<svg xmlns="http://www.w3.org/2000/svg" width="860" height="520" viewBox="0 0 860 520" role="img" aria-label="Schema size ECDF: completed vs timeout"><rect width="100%" height="100%" fill="#FFFFFF"/><text x="24.00" y="30.00" font-family="Inter, Arial, sans-serif" font-size="17" fill="#1F2933" text-anchor="start" font-weight="700">Schema size ECDF: completed vs timeout</text><line x1="78.00" y1="56" x2="78.00" y2="452" stroke="#D9DEE5"/><line x1="78" y1="56.00" x2="826" y2="56.00" stroke="#D9DEE5"/><line x1="227.60" y1="56" x2="227.60" y2="452" stroke="#D9DEE5"/><line x1="78" y1="135.20" x2="826" y2="135.20" stroke="#D9DEE5"/><line x1="377.20" y1="56" x2="377.20" y2="452" stroke="#D9DEE5"/><line x1="78" y1="214.40" x2="826" y2="214.40" stroke="#D9DEE5"/><line x1="526.80" y1="56" x2="526.80" y2="452" stroke="#D9DEE5"/><line x1="78" y1="293.60" x2="826" y2="293.60" stroke="#D9DEE5"/><line x1="676.40" y1="56" x2="676.40" y2="452" stroke="#D9DEE5"/><line x1="78" y1="372.80" x2="826" y2="372.80" stroke="#D9DEE5"/><line x1="826.00" y1="56" x2="826.00" y2="452" stroke="#D9DEE5"/><line x1="78" y1="452.00" x2="826" y2="452.00" stroke="#D9DEE5"/><polyline points="78.00,451.77 78.00,451.54 78.00,451.32 125.10,451.09 234.94,450.86 244.25,450.63 255.55,450.40 265.89,450.17 267.68,449.95 272.33,449.72 273.46,449.49 274.58,449.26 275.97,449.03 278.98,448.80 280.85,448.58 282.70,448.35 283.48,448.12 286.31,447.89 288.08,447.66 288.58,447.44 288.58,447.21 289.82,446.98 290.06,446.75 290.31,446.52 290.80,446.29 290.80,446.07 290.80,445.84 291.29,445.61 291.29,445.38 291.53,445.15 292.26,444.92 292.50,444.70 292.50,444.47 292.74,444.24 293.23,444.01 293.47,443.78 293.47,443.56 294.42,443.33 295.13,443.10 295.60,442.87 296.54,442.64 296.54,442.41 297.01,442.19 297.24,441.96 297.94,441.73 297.94,441.50 298.17,441.27 298.40,441.04 299.31,440.82 299.54,440.59 299.77,440.36 299.77,440.13 300.00,439.90 300.00,439.67 300.00,439.45 300.22,439.22 300.45,438.99 301.58,438.76 301.58,438.53 301.58,438.31 301.58,438.08 301.80,437.85 302.02,437.62 302.25,437.39 302.47,437.16 302.69,436.94 302.69,436.71 302.69,436.48 302.69,436.25 302.92,436.02 303.14,435.79 303.14,435.57 303.14,435.34 303.14,435.11 303.14,434.88 303.36,434.65 304.68,434.43 304.89,434.20 305.33,433.97 305.55,433.74 305.76,433.51 306.41,433.28 306.41,433.06 306.63,432.83 306.63,432.60 306.63,432.37 307.06,432.14 307.06,431.91 307.49,431.69 307.70,431.46 307.91,431.23 308.55,431.00 308.76,430.77 308.76,430.55 308.97,430.32 309.60,430.09 309.81,429.86 310.02,429.63 310.02,429.40 310.44,429.18 310.65,428.95 310.86,428.72 311.27,428.49 311.27,428.26 311.48,428.03 311.48,427.81 311.48,427.58 311.68,427.35 311.89,427.12 312.10,426.89 312.71,426.67 312.92,426.44 313.12,426.21 313.12,425.98 313.53,425.75 313.73,425.52 313.93,425.30 313.93,425.07 314.54,424.84 314.74,424.61 314.74,424.38 315.14,424.15 315.14,423.93 315.34,423.70 315.34,423.47 315.54,423.24 315.54,423.01 315.74,422.79 315.74,422.56 315.74,422.33 315.74,422.10 315.94,421.87 316.14,421.64 316.34,421.42 316.34,421.19 316.34,420.96 316.54,420.73 316.54,420.50 316.74,420.27 316.94,420.05 317.13,419.82 317.13,419.59 317.33,419.36 317.33,419.13 317.53,418.90 317.72,418.68 317.72,418.45 318.70,418.22 319.09,417.99 319.09,417.76 319.29,417.54 319.67,417.31 319.87,417.08 320.06,416.85 320.06,416.62 320.06,416.39 320.25,416.17 320.44,415.94 320.63,415.71 320.83,415.48 320.83,415.25 320.83,415.02 320.83,414.80 321.02,414.57 321.02,414.34 321.21,414.11 321.59,413.88 321.97,413.66 322.16,413.43 322.16,413.20 322.54,412.97 322.54,412.74 322.54,412.51 322.54,412.29 322.73,412.06 322.91,411.83 322.91,411.60 322.91,411.37 323.10,411.14 323.29,410.92 324.78,410.69 324.78,410.46 324.97,410.23 324.97,410.00 325.52,409.78 325.52,409.55 325.71,409.32 325.71,409.09 326.62,408.86 326.99,408.63 326.99,408.41 327.17,408.18 327.35,407.95 327.53,407.72 327.53,407.49 327.53,407.26 327.53,407.04 327.53,406.81 327.71,406.58 327.89,406.35 328.07,406.12 328.07,405.90 328.43,405.67 328.61,405.44 328.61,405.21 328.61,404.98 328.79,404.75 328.79,404.53 328.79,404.30 328.97,404.07 328.97,403.84 329.33,403.61 329.51,403.38 329.69,403.16 329.69,402.93 329.69,402.70 330.04,402.47 330.04,402.24 330.75,402.01 331.10,401.79 331.10,401.56 331.46,401.33 331.46,401.10 331.63,400.87 331.63,400.65 331.81,400.42 331.81,400.19 331.81,399.96 331.98,399.73 332.16,399.50 332.33,399.28 332.33,399.05 332.68,398.82 332.68,398.59 332.68,398.36 332.68,398.13 332.68,397.91 332.85,397.68 332.85,397.45 332.85,397.22 332.85,396.99 333.02,396.77 333.02,396.54 333.20,396.31 333.20,396.08 333.20,395.85 333.20,395.62 333.20,395.40 333.54,395.17 333.72,394.94 333.89,394.71 334.06,394.48 334.23,394.25 334.40,394.03 334.57,393.80 334.92,393.57 335.09,393.34 335.26,393.11 335.26,392.89 335.43,392.66 335.43,392.43 335.43,392.20 335.60,391.97 335.77,391.74 335.94,391.52 336.10,391.29 336.61,391.06 336.61,390.83 336.61,390.60 336.61,390.37 336.61,390.15 337.28,389.92 337.28,389.69 337.62,389.46 337.78,389.23 337.95,389.01 337.95,388.78 337.95,388.55 338.28,388.32 338.28,388.09 338.28,387.86 338.78,387.64 338.94,387.41 338.94,387.18 339.11,386.95 339.11,386.72 339.11,386.49 339.11,386.27 339.60,386.04 339.60,385.81 339.77,385.58 339.77,385.35 339.77,385.13 339.77,384.90 339.77,384.67 339.93,384.44 339.93,384.21 339.93,383.98 339.93,383.76 340.26,383.53 340.26,383.30 340.42,383.07 340.42,382.84 340.58,382.61 340.74,382.39 340.74,382.16 340.91,381.93 341.23,381.70 341.72,381.47 341.88,381.24 341.88,381.02 341.88,380.79 342.04,380.56 342.04,380.33 342.20,380.10 342.36,379.88 342.36,379.65 342.52,379.42 342.52,379.19 342.68,378.96 343.00,378.73 343.00,378.51 343.00,378.28 343.16,378.05 343.16,377.82 343.16,377.59 343.32,377.36 343.80,377.14 343.80,376.91 343.80,376.68 344.11,376.45 344.11,376.22 344.27,376.00 344.43,375.77 344.74,375.54 344.90,375.31 344.90,375.08 344.90,374.85 345.22,374.63 345.37,374.40 345.37,374.17 345.37,373.94 345.53,373.71 345.53,373.48 345.53,373.26 345.53,373.03 345.68,372.80 345.68,372.57 345.84,372.34 346.15,372.12 346.15,371.89 346.15,371.66 346.46,371.43 346.93,371.20 346.93,370.97 346.93,370.75 347.08,370.52 347.24,370.29 347.39,370.06 347.70,369.83 348.01,369.60 348.01,369.38 348.31,369.15 348.46,368.92 348.92,368.69 349.07,368.46 349.07,368.24 349.22,368.01 349.22,367.78 349.22,367.55 349.38,367.32 349.68,367.09 349.83,366.87 349.83,366.64 350.13,366.41 350.43,366.18 350.43,365.95 350.58,365.72 350.58,365.50 350.88,365.27 350.88,365.04 350.88,364.81 351.03,364.58 351.18,364.36 351.33,364.13 351.33,363.90 351.78,363.67 351.93,363.44 351.93,363.21 352.07,362.99 352.07,362.76 352.37,362.53 352.67,362.30 352.67,362.07 352.81,361.84 352.81,361.62 352.81,361.39 352.96,361.16 353.25,360.93 353.25,360.70 353.40,360.47 353.40,360.25 353.40,360.02 353.55,359.79 353.69,359.56 353.69,359.33 353.84,359.11 353.84,358.88 353.99,358.65 354.13,358.42 354.13,358.19 354.42,357.96 354.57,357.74 354.57,357.51 354.86,357.28 355.00,357.05 355.00,356.82 355.15,356.59 355.29,356.37 355.29,356.14 355.29,355.91 355.44,355.68 355.44,355.45 355.44,355.23 355.44,355.00 355.58,354.77 355.72,354.54 355.87,354.31 355.87,354.08 355.87,353.86 356.01,353.63 356.01,353.40 356.01,353.17 356.15,352.94 356.15,352.71 356.30,352.49 356.44,352.26 356.73,352.03 356.73,351.80 356.87,351.57 357.15,351.35 357.30,351.12 357.30,350.89 357.44,350.66 357.58,350.43 357.58,350.20 357.72,349.98 357.86,349.75 357.86,349.52 358.14,349.29 358.14,349.06 358.29,348.83 358.29,348.61 358.43,348.38 358.43,348.15 358.43,347.92 358.57,347.69 358.57,347.47 358.57,347.24 358.71,347.01 358.85,346.78 358.85,346.55 358.99,346.32 359.55,346.10 359.55,345.87 359.55,345.64 359.55,345.41 359.69,345.18 359.69,344.95 359.96,344.73 359.96,344.50 359.96,344.27 360.10,344.04 360.38,343.81 360.79,343.59 361.07,343.36 361.21,343.13 361.21,342.90 361.35,342.67 361.35,342.44 361.48,342.22 361.48,341.99 361.62,341.76 361.62,341.53 361.62,341.30 361.89,341.07 362.17,340.85 362.30,340.62 362.30,340.39 362.58,340.16 362.58,339.93 362.58,339.70 362.58,339.48 362.71,339.25 362.71,339.02 362.85,338.79 362.98,338.56 363.12,338.34 363.39,338.11 363.39,337.88 363.52,337.65 363.93,337.42 364.06,337.19 364.20,336.97 364.46,336.74 364.60,336.51 364.73,336.28 364.73,336.05 364.73,335.82 364.87,335.60 365.13,335.37 365.27,335.14 365.66,334.91 365.80,334.68 365.80,334.46 365.93,334.23 365.93,334.00 366.19,333.77 366.19,333.54 366.46,333.31 366.59,333.09 366.72,332.86 366.98,332.63 366.98,332.40 366.98,332.17 367.11,331.94 367.11,331.72 367.11,331.49 367.24,331.26 367.24,331.03 367.24,330.80 367.37,330.58 367.77,330.35 367.77,330.12 367.90,329.89 368.03,329.66 368.29,329.43 368.42,329.21 368.42,328.98 368.55,328.75 368.55,328.52 368.55,328.29 368.55,328.06 368.68,327.84 368.68,327.61 368.80,327.38 368.93,327.15 368.93,326.92 369.32,326.70 369.45,326.47 369.83,326.24 369.96,326.01 370.09,325.78 370.09,325.55 370.09,325.33 370.09,325.10 370.47,324.87 370.47,324.64 370.47,324.41 370.60,324.18 370.73,323.96 370.85,323.73 370.98,323.50 370.98,323.27 371.24,323.04 371.36,322.81 371.36,322.59 371.61,322.36 371.99,322.13 371.99,321.90 372.50,321.67 372.50,321.45 372.62,321.22 372.75,320.99 372.75,320.76 372.75,320.53 372.75,320.30 372.87,320.08 372.87,319.85 372.87,319.62 373.00,319.39 373.37,319.16 373.49,318.93 373.62,318.71 373.62,318.48 373.74,318.25 373.99,318.02 374.24,317.79 374.48,317.57 374.48,317.34 374.61,317.11 374.61,316.88 374.73,316.65 374.85,316.42 374.98,316.20 375.10,315.97 375.22,315.74 375.34,315.51 375.34,315.28 375.71,315.05 375.83,314.83 375.96,314.60 376.08,314.37 376.20,314.14 376.20,313.91 376.32,313.69 376.32,313.46 376.44,313.23 376.56,313.00 376.68,312.77 376.93,312.54 376.93,312.32 377.05,312.09 377.17,311.86 377.29,311.63 377.41,311.40 377.41,311.17 377.53,310.95 377.65,310.72 377.77,310.49 377.77,310.26 378.01,310.03 378.13,309.81 378.96,309.58 379.08,309.35 379.20,309.12 379.91,308.89 379.91,308.66 380.15,308.44 380.15,308.21 380.50,307.98 380.50,307.75 380.62,307.52 380.97,307.29 381.20,307.07 381.20,306.84 381.44,306.61 381.44,306.38 381.55,306.15 381.67,305.93 381.78,305.70 381.90,305.47 382.02,305.24 382.02,305.01 382.13,304.78 382.13,304.56 382.48,304.33 382.59,304.10 382.59,303.87 382.94,303.64 382.94,303.41 383.06,303.19 383.17,302.96 383.29,302.73 383.40,302.50 383.40,302.27 383.63,302.04 383.74,301.82 383.74,301.59 383.86,301.36 383.97,301.13 384.09,300.90 384.43,300.68 384.43,300.45 384.54,300.22 384.54,299.99 384.54,299.76 384.65,299.53 384.77,299.31 384.77,299.08 384.77,298.85 384.88,298.62 384.88,298.39 385.11,298.16 385.22,297.94 385.33,297.71 385.45,297.48 385.56,297.25 385.56,297.02 385.67,296.80 385.78,296.57 385.90,296.34 386.01,296.11 386.01,295.88 386.01,295.65 386.01,295.43 386.01,295.20 386.01,294.97 386.12,294.74 386.12,294.51 386.34,294.28 386.46,294.06 386.57,293.83 386.79,293.60 386.79,293.37 386.79,293.14 386.90,292.92 386.90,292.69 386.90,292.46 386.90,292.23 386.90,292.00 387.46,291.77 387.57,291.55 387.68,291.32 387.79,291.09 388.01,290.86 388.45,290.63 388.56,290.40 388.67,290.18 388.78,289.95 388.78,289.72 389.11,289.49 389.11,289.26 389.55,289.04 389.55,288.81 389.55,288.58 389.66,288.35 389.87,288.12 389.98,287.89 390.09,287.67 390.42,287.44 391.06,287.21 391.06,286.98 391.28,286.75 391.28,286.52 391.39,286.30 391.49,286.07 391.60,285.84 391.92,285.61 392.03,285.38 392.14,285.16 392.46,284.93 392.46,284.70 392.56,284.47 392.88,284.24 392.88,284.01 392.88,283.79 392.99,283.56 393.30,283.33 393.30,283.10 393.41,282.87 393.41,282.64 393.41,282.42 393.52,282.19 393.62,281.96 393.62,281.73 393.94,281.50 394.04,281.27 394.04,281.05 394.36,280.82 394.46,280.59 394.46,280.36 394.46,280.13 394.46,279.91 394.57,279.68 395.30,279.45 395.40,279.22 395.50,278.99 395.71,278.76 395.71,278.54 395.81,278.31 396.12,278.08 396.43,277.85 396.54,277.62 396.54,277.39 396.54,277.17 396.74,276.94 396.85,276.71 396.85,276.48 396.95,276.25 397.26,276.03 397.36,275.80 397.36,275.57 397.36,275.34 397.66,275.11 397.77,274.88 397.77,274.66 397.77,274.43 397.77,274.20 397.87,273.97 397.87,273.74 397.87,273.51 397.97,273.29 398.07,273.06 398.07,272.83 398.07,272.60 398.27,272.37 398.48,272.15 398.58,271.92 398.68,271.69 398.68,271.46 398.78,271.23 398.88,271.00 398.98,270.78 398.98,270.55 399.29,270.32 399.29,270.09 399.39,269.86 399.49,269.63 399.49,269.41 399.49,269.18 399.79,268.95 400.09,268.72 400.09,268.49 400.19,268.27 400.19,268.04 400.59,267.81 400.59,267.58 400.59,267.35 400.59,267.12 400.88,266.90 400.98,266.67 400.98,266.44 400.98,266.21 401.28,265.98 401.28,265.75 401.28,265.53 401.38,265.30 401.38,265.07 401.68,264.84 401.78,264.61 401.78,264.39 401.78,264.16 401.97,263.93 401.97,263.70 401.97,263.47 402.07,263.24 402.07,263.02 402.17,262.79 402.27,262.56 402.37,262.33 402.46,262.10 402.46,261.87 402.56,261.65 402.66,261.42 402.76,261.19 402.76,260.96 402.86,260.73 403.25,260.50 403.25,260.28 403.34,260.05 403.54,259.82 403.54,259.59 403.63,259.36 403.63,259.14 403.63,258.91 403.73,258.68 403.73,258.45 403.73,258.22 403.83,257.99 403.83,257.77 403.83,257.54 404.12,257.31 404.12,257.08 404.41,256.85 404.60,256.62 404.60,256.40 404.89,256.17 404.89,255.94 405.37,255.71 405.56,255.48 405.85,255.26 406.04,255.03 406.32,254.80 406.42,254.57 406.61,254.34 406.80,254.11 406.80,253.89 406.80,253.66 407.08,253.43 407.36,253.20 407.46,252.97 407.55,252.74 407.74,252.52 407.83,252.29 408.02,252.06 408.02,251.83 408.12,251.60 408.21,251.38 408.21,251.15 408.30,250.92 408.30,250.69 408.49,250.46 408.58,250.23 408.68,250.01 408.77,249.78 408.86,249.55 408.96,249.32 408.96,249.09 409.05,248.86 409.23,248.64 409.42,248.41 409.70,248.18 410.07,247.95 410.25,247.72 410.25,247.50 410.25,247.27 410.43,247.04 410.43,246.81 410.53,246.58 410.62,246.35 410.89,246.13 410.98,245.90 411.07,245.67 411.17,245.44 411.17,245.21 411.26,244.98 411.35,244.76 411.35,244.53 411.53,244.30 411.53,244.07 411.53,243.84 411.80,243.61 411.80,243.39 412.17,243.16 412.17,242.93 412.26,242.70 412.26,242.47 412.35,242.25 412.44,242.02 412.53,241.79 412.53,241.56 412.62,241.33 412.80,241.10 412.80,240.88 413.07,240.65 413.07,240.42 413.16,240.19 413.34,239.96 413.34,239.73 413.61,239.51 413.61,239.28 413.70,239.05 413.70,238.82 413.79,238.59 413.87,238.37 414.14,238.14 414.23,237.91 414.41,237.68 414.41,237.45 414.59,237.22 414.85,237.00 415.03,236.77 415.21,236.54 415.29,236.31 415.38,236.08 415.47,235.85 415.91,235.63 416.00,235.40 416.00,235.17 416.00,234.94 416.09,234.71 416.17,234.49 416.26,234.26 416.44,234.03 416.52,233.80 416.61,233.57 416.79,233.34 416.79,233.12 416.87,232.89 416.87,232.66 417.05,232.43 417.05,232.20 417.39,231.97 417.57,231.75 417.65,231.52 417.65,231.29 417.74,231.06 417.74,230.83 417.83,230.61 417.83,230.38 417.91,230.15 417.91,229.92 418.00,229.69 418.26,229.46 418.26,229.24 418.35,229.01 418.52,228.78 418.52,228.55 418.78,228.32 418.78,228.09 418.86,227.87 418.86,227.64 418.86,227.41 418.86,227.18 419.46,226.95 419.54,226.73 419.63,226.50 419.63,226.27 419.71,226.04 419.89,225.81 419.97,225.58 420.05,225.36 420.05,225.13 420.14,224.90 420.14,224.67 420.14,224.44 420.22,224.21 420.31,223.99 420.31,223.76 420.39,223.53 420.48,223.30 420.56,223.07 420.73,222.84 420.90,222.62 420.99,222.39 421.07,222.16 421.07,221.93 421.15,221.70 421.24,221.48 421.32,221.25 421.41,221.02 421.41,220.79 421.57,220.56 421.66,220.33 421.74,220.11 421.82,219.88 421.99,219.65 422.08,219.42 422.08,219.19 422.24,218.96 422.33,218.74 422.41,218.51 422.49,218.28 422.58,218.05 422.66,217.82 422.74,217.60 422.74,217.37 422.82,217.14 422.99,216.91 422.99,216.68 423.07,216.45 423.16,216.23 423.16,216.00 423.40,215.77 423.57,215.54 423.57,215.31 423.82,215.08 423.82,214.86 423.98,214.63 424.06,214.40 424.06,214.17 424.23,213.94 424.23,213.72 424.31,213.49 424.39,213.26 424.39,213.03 424.39,212.80 424.39,212.57 424.55,212.35 424.72,212.12 424.80,211.89 425.04,211.66 425.13,211.43 425.13,211.20 425.21,210.98 425.21,210.75 425.37,210.52 425.45,210.29 425.53,210.06 425.53,209.84 425.61,209.61 425.69,209.38 425.69,209.15 426.34,208.92 426.50,208.69 426.58,208.47 426.66,208.24 426.66,208.01 426.74,207.78 426.74,207.55 426.74,207.32 426.82,207.10 426.82,206.87 426.90,206.64 426.98,206.41 427.06,206.18 427.30,205.96 427.30,205.73 427.38,205.50 427.54,205.27 427.70,205.04 427.86,204.81 427.86,204.59 427.94,204.36 427.94,204.13 428.10,203.90 428.26,203.67 428.26,203.44 428.50,203.22 428.74,202.99 428.89,202.76 428.89,202.53 428.97,202.30 429.05,202.07 429.05,201.85 429.13,201.62 429.13,201.39 429.13,201.16 429.21,200.93 429.21,200.71 429.21,200.48 429.29,200.25 429.29,200.02 429.29,199.79 429.37,199.56 429.37,199.34 429.37,199.11 429.45,198.88 429.45,198.65 429.52,198.42 429.84,198.19 430.15,197.97 430.15,197.74 430.31,197.51 430.38,197.28 430.62,197.05 430.77,196.83 430.85,196.60 430.93,196.37 431.01,196.14 431.01,195.91 431.01,195.68 431.08,195.46 431.08,195.23 431.16,195.00 431.39,194.77 431.47,194.54 431.70,194.31 431.86,194.09 431.93,193.86 431.93,193.63 432.01,193.40 432.17,193.17 432.17,192.95 432.24,192.72 432.24,192.49 432.24,192.26 432.24,192.03 432.32,191.80 432.32,191.58 432.47,191.35 432.55,191.12 432.63,190.89 432.78,190.66 432.78,190.43 432.85,190.21 432.85,189.98 432.85,189.75 433.08,189.52 433.16,189.29 433.16,189.07 433.16,188.84 433.16,188.61 433.39,188.38 433.39,188.15 433.46,187.92 433.46,187.70 433.46,187.47 433.62,187.24 433.62,187.01 433.62,186.78 433.69,186.55 433.77,186.33 433.84,186.10 434.00,185.87 434.15,185.64 434.45,185.41 434.45,185.19 434.45,184.96 434.52,184.73 434.52,184.50 434.60,184.27 434.60,184.04 434.68,183.82 434.68,183.59 434.75,183.36 434.83,183.13 434.83,182.90 435.05,182.67 435.13,182.45 435.20,182.22 435.28,181.99 435.28,181.76 435.35,181.53 435.43,181.30 435.50,181.08 435.58,180.85 435.65,180.62 435.72,180.39 435.72,180.16 435.72,179.94 435.95,179.71 436.39,179.48 436.84,179.25 437.06,179.02 437.14,178.79 437.28,178.57 437.43,178.34 437.50,178.11 437.58,177.88 438.02,177.65 438.02,177.42 438.09,177.20 438.16,176.97 438.24,176.74 438.31,176.51 438.31,176.28 438.31,176.06 438.46,175.83 438.46,175.60 438.53,175.37 438.67,175.14 438.75,174.91 438.75,174.69 438.82,174.46 438.82,174.23 439.04,174.00 439.33,173.77 439.62,173.54 439.62,173.32 439.91,173.09 439.98,172.86 439.98,172.63 440.48,172.40 440.55,172.18 440.70,171.95 440.77,171.72 440.84,171.49 440.84,171.26 440.91,171.03 441.34,170.81 441.55,170.58 441.63,170.35 441.63,170.12 441.77,169.89 441.91,169.66 441.98,169.44 442.12,169.21 442.19,168.98 442.19,168.75 442.26,168.52 442.34,168.30 442.34,168.07 442.55,167.84 442.76,167.61 442.90,167.38 442.90,167.15 443.18,166.93 443.25,166.70 443.53,166.47 443.53,166.24 443.60,166.01 443.60,165.78 443.81,165.56 443.95,165.33 443.95,165.10 444.02,164.87 444.09,164.64 444.16,164.41 444.16,164.19 444.23,163.96 444.30,163.73 444.30,163.50 444.51,163.27 444.58,163.05 444.65,162.82 444.65,162.59 444.85,162.36 444.92,162.13 444.92,161.90 444.99,161.68 444.99,161.45 445.13,161.22 445.27,160.99 445.34,160.76 445.34,160.53 445.41,160.31 445.89,160.08 446.09,159.85 446.16,159.62 446.16,159.39 446.23,159.17 446.30,158.94 446.37,158.71 446.57,158.48 446.64,158.25 446.64,158.02 446.64,157.80 446.71,157.57 446.78,157.34 446.78,157.11 447.05,156.88 447.12,156.65 447.12,156.43 447.19,156.20 447.66,155.97 447.73,155.74 447.80,155.51 447.86,155.29 448.07,155.06 448.13,154.83 448.13,154.60 448.20,154.37 448.34,154.14 448.40,153.92 448.40,153.69 448.47,153.46 448.47,153.23 448.54,153.00 448.67,152.77 448.74,152.55 448.81,152.32 448.87,152.09 449.01,151.86 449.01,151.63 449.07,151.41 449.34,151.18 449.54,150.95 449.54,150.72 449.61,150.49 449.68,150.26 449.74,150.04 449.81,149.81 449.88,149.58 450.07,149.35 450.14,149.12 450.27,148.89 450.60,148.67 450.74,148.44 450.74,148.21 450.74,147.98 450.74,147.75 451.00,147.53 451.07,147.30 451.33,147.07 451.33,146.84 451.39,146.61 451.53,146.38 451.59,146.16 451.79,145.93 451.92,145.70 451.92,145.47 452.24,145.24 452.24,145.01 452.31,144.79 452.38,144.56 452.51,144.33 452.64,144.10 452.70,143.87 452.70,143.64 452.77,143.42 452.90,143.19 452.90,142.96 452.90,142.73 453.02,142.50 453.09,142.28 453.15,142.05 453.22,141.82 453.35,141.59 453.35,141.36 453.41,141.13 453.54,140.91 453.67,140.68 453.80,140.45 453.93,140.22 454.31,139.99 454.51,139.76 454.76,139.54 454.89,139.31 454.89,139.08 454.95,138.85 454.95,138.62 455.02,138.40 455.02,138.17 455.21,137.94 455.27,137.71 455.27,137.48 455.27,137.25 455.40,137.03 455.46,136.80 455.59,136.57 455.59,136.34 455.65,136.11 455.65,135.88 455.78,135.66 455.97,135.43 456.03,135.20 456.03,134.97 456.09,134.74 456.47,134.52 456.47,134.29 456.72,134.06 456.85,133.83 456.98,133.60 456.98,133.37 456.98,133.15 456.98,132.92 456.98,132.69 457.16,132.46 457.29,132.23 457.41,132.00 457.79,131.78 457.79,131.55 458.04,131.32 458.10,131.09 458.16,130.86 458.16,130.64 458.22,130.41 458.29,130.18 458.60,129.95 458.90,129.72 459.09,129.49 459.21,129.27 459.46,129.04 459.52,128.81 459.77,128.58 459.77,128.35 459.77,128.12 459.95,127.90 460.01,127.67 460.32,127.44 460.62,127.21 460.62,126.98 460.68,126.76 460.80,126.53 460.80,126.30 460.86,126.07 460.99,125.84 461.17,125.61 461.23,125.39 461.23,125.16 461.29,124.93 461.47,124.70 461.53,124.47 462.01,124.24 462.25,124.02 462.49,123.79 462.61,123.56 462.85,123.33 462.91,123.10 462.97,122.87 463.21,122.65 463.45,122.42 463.45,122.19 463.69,121.96 463.86,121.73 463.92,121.51 463.92,121.28 463.98,121.05 464.10,120.82 464.10,120.59 464.16,120.36 465.04,120.14 465.16,119.91 465.34,119.68 465.45,119.45 465.86,119.22 465.86,118.99 465.92,118.77 466.21,118.54 466.33,118.31 466.44,118.08 466.73,117.85 466.85,117.63 467.37,117.40 467.83,117.17 468.00,116.94 468.00,116.71 468.06,116.48 468.06,116.26 468.12,116.03 468.17,115.80 468.40,115.57 468.63,115.34 468.69,115.11 468.69,114.89 469.08,114.66 469.14,114.43 469.25,114.20 469.31,113.97 469.88,113.75 469.93,113.52 470.16,113.29 470.33,113.06 470.44,112.83 470.83,112.60 470.94,112.38 471.22,112.15 471.34,111.92 471.56,111.69 471.61,111.46 471.61,111.23 472.17,111.01 472.39,110.78 472.72,110.55 472.78,110.32 472.83,110.09 473.49,109.87 473.54,109.64 473.60,109.41 473.76,109.18 473.93,108.95 473.98,108.72 474.53,108.50 474.69,108.27 474.69,108.04 474.85,107.81 475.45,107.58 475.50,107.35 475.61,107.13 475.77,106.90 475.82,106.67 476.20,106.44 476.31,106.21 476.41,105.99 476.57,105.76 476.79,105.53 476.95,105.30 477.26,105.07 477.64,104.84 477.69,104.62 478.22,104.39 478.22,104.16 478.32,103.93 478.53,103.70 479.00,103.47 479.27,103.25 479.42,103.02 479.42,102.79 479.53,102.56 479.84,102.33 479.89,102.10 480.00,101.88 480.15,101.65 480.31,101.42 480.36,101.19 480.41,100.96 480.51,100.74 480.93,100.51 481.08,100.28 481.24,100.05 481.39,99.82 481.44,99.59 481.54,99.37 481.59,99.14 481.75,98.91 482.11,98.68 482.16,98.45 482.31,98.22 482.31,98.00 482.77,97.77 482.97,97.54 483.02,97.31 483.98,97.08 484.03,96.86 484.18,96.63 485.33,96.40 485.97,96.17 486.22,95.94 486.27,95.71 486.81,95.49 486.86,95.26 486.96,95.03 487.35,94.80 487.55,94.57 487.64,94.34 487.84,94.12 488.13,93.89 488.18,93.66 488.32,93.43 488.37,93.20 488.66,92.98 488.66,92.75 488.76,92.52 489.63,92.29 490.01,92.06 490.15,91.83 490.15,91.61 490.63,91.38 490.72,91.15 490.91,90.92 491.39,90.69 491.67,90.46 492.24,90.24 492.24,90.01 492.33,89.78 492.57,89.55 493.08,89.32 493.41,89.10 493.59,88.87 493.82,88.64 493.96,88.41 494.01,88.18 494.33,87.95 494.75,87.73 494.79,87.50 495.21,87.27 495.34,87.04 496.07,86.81 496.07,86.58 496.12,86.36 496.17,86.13 496.26,85.90 496.39,85.67 496.76,85.44 497.03,85.21 497.48,84.99 497.52,84.76 497.52,84.53 497.97,84.30 498.15,84.07 498.24,83.85 499.17,83.62 499.79,83.39 499.93,83.16 500.19,82.93 500.54,82.70 501.20,82.48 501.46,82.25 501.76,82.02 501.90,81.79 502.72,81.56 502.98,81.33 503.45,81.11 503.53,80.88 503.87,80.65 504.39,80.42 504.85,80.19 504.94,79.97 505.19,79.74 505.36,79.51 506.12,79.28 506.83,79.05 507.20,78.82 507.33,78.60 508.03,78.37 508.81,78.14 509.34,77.91 509.63,77.68 510.04,77.45 511.09,77.23 511.13,77.00 511.33,76.77 511.49,76.54 512.53,76.31 512.96,76.09 513.52,75.86 514.18,75.63 516.67,75.40 516.71,75.17 516.94,74.94 518.39,74.72 519.26,74.49 520.16,74.26 520.72,74.03 521.46,73.80 521.57,73.57 521.79,73.35 521.86,73.12 523.51,72.89 523.62,72.66 523.87,72.43 524.05,72.21 524.13,71.98 524.38,71.75 524.81,71.52 525.35,71.29 527.20,71.06 527.23,70.84 528.18,70.61 528.32,70.38 528.53,70.15 528.67,69.92 528.70,69.69 530.71,69.47 530.81,69.24 531.32,69.01 532.10,68.78 532.24,68.55 532.48,68.33 533.48,68.10 534.02,67.87 534.92,67.64 534.95,67.41 535.44,67.18 536.00,66.96 536.40,66.73 536.72,66.50 536.95,66.27 538.50,66.04 538.57,65.81 538.60,65.59 538.92,65.36 540.10,65.13 540.16,64.90 540.61,64.67 540.83,64.44 541.80,64.22 542.05,63.99 542.08,63.76 542.15,63.53 543.23,63.30 543.26,63.08 544.71,62.85 544.74,62.62 546.53,62.39 548.08,62.16 548.64,61.93 551.60,61.71 552.83,61.48 554.73,61.25 555.40,61.02 557.29,60.79 560.66,60.56 563.97,60.34 564.56,60.11 564.64,59.88 570.24,59.65 570.79,59.42 572.96,59.20 575.93,58.97 601.39,58.74 605.44,58.51 622.79,58.28 659.59,58.05 660.33,57.83 676.02,57.60 701.17,57.37 723.20,57.14 725.21,56.91 748.85,56.68 750.12,56.46 750.61,56.23 826.00,56.00" fill="none" stroke="#2F6BFF" stroke-width="2.5"/><rect x="690" y="50" width="12" height="12" fill="#2F6BFF"/><text x="708.00" y="61.00" font-family="Inter, Arial, sans-serif" font-size="11" fill="#1F2933" text-anchor="start" font-weight="400">completed (n=1735)</text><polyline points="299.54,447.50 313.53,443.00 315.14,438.50 317.72,434.00 326.80,429.50 336.78,425.00 337.45,420.50 345.84,416.00 349.68,411.50 350.43,407.00 350.43,402.50 351.78,398.00 352.07,393.50 353.55,389.00 355.15,384.50 358.57,380.00 361.35,375.50 361.48,371.00 361.89,366.50 362.98,362.00 365.40,357.50 366.98,353.00 366.98,348.50 370.35,344.00 371.24,339.50 373.99,335.00 375.83,330.50 376.20,326.00 376.44,321.50 377.77,317.00 382.59,312.50 388.23,308.00 390.09,303.50 392.99,299.00 398.17,294.50 398.78,290.00 402.56,285.50 402.95,281.00 405.27,276.50 405.85,272.00 407.18,267.50 407.55,263.00 417.05,258.50 419.12,254.00 419.37,249.50 419.97,245.00 419.97,240.50 420.99,236.00 421.82,231.50 424.06,227.00 424.72,222.50 425.13,218.00 425.29,213.50 428.10,209.00 429.37,204.50 433.69,200.00 435.28,195.50 436.39,191.00 439.47,186.50 442.05,182.00 444.85,177.50 445.96,173.00 448.61,168.50 449.88,164.00 450.14,159.50 450.67,155.00 452.83,150.50 456.54,146.00 457.79,141.50 459.34,137.00 461.23,132.50 461.89,128.00 466.21,123.50 466.39,119.00 466.39,114.50 469.54,110.00 471.17,105.50 471.67,101.00 473.05,96.50 476.14,92.00 478.11,87.50 478.16,83.00 484.98,78.50 488.32,74.00 503.28,69.50 527.09,65.00 560.12,60.50 640.58,56.00" fill="none" stroke="#C43C39" stroke-width="2.5"/><rect x="690" y="70" width="12" height="12" fill="#C43C39"/><text x="708.00" y="81.00" font-family="Inter, Arial, sans-serif" font-size="11" fill="#1F2933" text-anchor="start" font-weight="400">timeout (n=88)</text><text x="452.00" y="498.00" font-family="Inter, Arial, sans-serif" font-size="12" fill="#1F2933" text-anchor="middle" font-weight="400">schema_json_chars (log)</text><text x="22.00" y="254.00" font-family="Inter, Arial, sans-serif" font-size="12" fill="#1F2933" text-anchor="middle" font-weight="400">ECDF</text></svg>
