<svg xmlns="http://www.w3.org/2000/svg" width="960" height="500" viewBox="0 0 960 500" role="img" aria-label="Phase time share for slowest completed schemas"><rect width="100%" height="100%" fill="#FFFFFF"/><text x="24.00" y="30.00" font-family="Inter, Arial, sans-serif" font-size="17" fill="#1F2933" text-anchor="start" font-weight="700">Phase time share for slowest completed schemas</text><rect x="805" y="48" width="12" height="12" fill="#2F6BFF"/><text x="822.00" y="59.00" font-family="Inter, Arial, sans-serif" font-size="11" fill="#1F2933" text-anchor="start" font-weight="400">compile</text><rect x="805" y="67" width="12" height="12" fill="#008C7D"/><text x="822.00" y="78.00" font-family="Inter, Arial, sans-serif" font-size="11" fill="#1F2933" text-anchor="start" font-weight="400">validation</text><rect x="805" y="86" width="12" height="12" fill="#D96C06"/><text x="822.00" y="97.00" font-family="Inter, Arial, sans-serif" font-size="11" fill="#1F2933" text-anchor="start" font-weight="400">mask</text><rect x="805" y="105" width="12" height="12" fill="#7557B8"/><text x="822.00" y="116.00" font-family="Inter, Arial, sans-serif" font-size="11" fill="#1F2933" text-anchor="start" font-weight="400">commit</text><text x="250.00" y="76.00" font-family="Inter, Arial, sans-serif" font-size="10" fill="#1F2933" text-anchor="end" font-weight="400">Github_medium---o9890.json</text><rect x="260.00" y="60" width="519.98" height="20" fill="#2F6BFF"/><rect x="779.98" y="60" width="0.01" height="20" fill="#008C7D"/><rect x="779.99" y="60" width="0.01" height="20" fill="#D96C06"/><rect x="780.00" y="60" width="0.00" height="20" fill="#7557B8"/><text x="788.00" y="75.00" font-family="Inter, Arial, sans-serif" font-size="10" fill="#1F2933" text-anchor="start" font-weight="400">575s</text><text x="250.00" y="110.00" font-family="Inter, Arial, sans-serif" font-size="10" fill="#1F2933" text-anchor="end" font-weight="400">Github_medium---o9887.json</text><rect x="260.00" y="94" width="519.97" height="20" fill="#2F6BFF"/><rect x="779.97" y="94" width="0.02" height="20" fill="#008C7D"/><rect x="779.98" y="94" width="0.01" height="20" fill="#D96C06"/><rect x="780.00" y="94" width="0.00" height="20" fill="#7557B8"/><text x="788.00" y="109.00" font-family="Inter, Arial, sans-serif" font-size="10" fill="#1F2933" text-anchor="start" font-weight="400">571s</text><text x="250.00" y="144.00" font-family="Inter, Arial, sans-serif" font-size="10" fill="#1F2933" text-anchor="end" font-weight="400">Github_medium---o54613.json</text><rect x="260.00" y="128" width="520.00" height="20" fill="#2F6BFF"/><rect x="780.00" y="128" width="0.00" height="20" fill="#008C7D"/><rect x="780.00" y="128" width="0.00" height="20" fill="#D96C06"/><rect x="780.00" y="128" width="0.00" height="20" fill="#7557B8"/><text x="788.00" y="143.00" font-family="Inter, Arial, sans-serif" font-size="10" fill="#1F2933" text-anchor="start" font-weight="400">515s</text><text x="250.00" y="178.00" font-family="Inter, Arial, sans-serif" font-size="10" fill="#1F2933" text-anchor="end" font-weight="400">Github_medium---o9903.json</text><rect x="260.00" y="162" width="519.96" height="20" fill="#2F6BFF"/><rect x="779.96" y="162" width="0.02" height="20" fill="#008C7D"/><rect x="779.98" y="162" width="0.02" height="20" fill="#D96C06"/><rect x="780.00" y="162" width="0.00" height="20" fill="#7557B8"/><text x="788.00" y="177.00" font-family="Inter, Arial, sans-serif" font-size="10" fill="#1F2933" text-anchor="start" font-weight="400">506s</text><text x="250.00" y="212.00" font-family="Inter, Arial, sans-serif" font-size="10" fill="#1F2933" text-anchor="end" font-weight="400">Github_medium---o9899.json</text><rect x="260.00" y="196" width="519.98" height="20" fill="#2F6BFF"/><rect x="779.98" y="196" width="0.01" height="20" fill="#008C7D"/><rect x="779.99" y="196" width="0.01" height="20" fill="#D96C06"/><rect x="780.00" y="196" width="0.00" height="20" fill="#7557B8"/><text x="788.00" y="211.00" font-family="Inter, Arial, sans-serif" font-size="10" fill="#1F2933" text-anchor="start" font-weight="400">500s</text><text x="250.00" y="246.00" font-family="Inter, Arial, sans-serif" font-size="10" fill="#1F2933" text-anchor="end" font-weight="400">Github_medium---o9902.json</text><rect x="260.00" y="230" width="519.99" height="20" fill="#2F6BFF"/><rect x="779.99" y="230" width="0.01" height="20" fill="#008C7D"/><rect x="779.99" y="230" width="0.01" height="20" fill="#D96C06"/><rect x="780.00" y="230" width="0.00" height="20" fill="#7557B8"/><text x="788.00" y="245.00" font-family="Inter, Arial, sans-serif" font-size="10" fill="#1F2933" text-anchor="start" font-weight="400">495s</text><text x="250.00" y="280.00" font-family="Inter, Arial, sans-serif" font-size="10" fill="#1F2933" text-anchor="end" font-weight="400">Github_medium---o76907.json</text><rect x="260.00" y="264" width="519.99" height="20" fill="#2F6BFF"/><rect x="779.99" y="264" width="0.00" height="20" fill="#008C7D"/><rect x="780.00" y="264" width="0.00" height="20" fill="#D96C06"/><rect x="780.00" y="264" width="0.00" height="20" fill="#7557B8"/><text x="788.00" y="279.00" font-family="Inter, Arial, sans-serif" font-size="10" fill="#1F2933" text-anchor="start" font-weight="400">308s</text><text x="250.00" y="314.00" font-family="Inter, Arial, sans-serif" font-size="10" fill="#1F2933" text-anchor="end" font-weight="400">Github_medium---o32648.json</text><rect x="260.00" y="298" width="519.93" height="20" fill="#2F6BFF"/><rect x="779.93" y="298" width="0.04" height="20" fill="#008C7D"/><rect x="779.97" y="298" width="0.03" height="20" fill="#D96C06"/><rect x="780.00" y="298" width="0.00" height="20" fill="#7557B8"/><text x="788.00" y="313.00" font-family="Inter, Arial, sans-serif" font-size="10" fill="#1F2933" text-anchor="start" font-weight="400">303s</text><text x="250.00" y="348.00" font-family="Inter, Arial, sans-serif" font-size="10" fill="#1F2933" text-anchor="end" font-weight="400">Github_medium---o9856.json</text><rect x="260.00" y="332" width="519.92" height="20" fill="#2F6BFF"/><rect x="779.92" y="332" width="0.04" height="20" fill="#008C7D"/><rect x="779.96" y="332" width="0.04" height="20" fill="#D96C06"/><rect x="780.00" y="332" width="0.00" height="20" fill="#7557B8"/><text x="788.00" y="347.00" font-family="Inter, Arial, sans-serif" font-size="10" fill="#1F2933" text-anchor="start" font-weight="400">263s</text><text x="250.00" y="382.00" font-family="Inter, Arial, sans-serif" font-size="10" fill="#1F2933" text-anchor="end" font-weight="400">Github_medium---o9798.json</text><rect x="260.00" y="366" width="519.98" height="20" fill="#2F6BFF"/><rect x="779.98" y="366" width="0.01" height="20" fill="#008C7D"/><rect x="779.99" y="366" width="0.01" height="20" fill="#D96C06"/><rect x="780.00" y="366" width="0.00" height="20" fill="#7557B8"/><text x="788.00" y="381.00" font-family="Inter, Arial, sans-serif" font-size="10" fill="#1F2933" text-anchor="start" font-weight="400">262s</text><text x="250.00" y="416.00" font-family="Inter, Arial, sans-serif" font-size="10" fill="#1F2933" text-anchor="end" font-weight="400">Github_medium---o6769.json</text><rect x="260.00" y="400" width="519.69" height="20" fill="#2F6BFF"/><rect x="779.69" y="400" width="0.16" height="20" fill="#008C7D"/><rect x="779.84" y="400" width="0.16" height="20" fill="#D96C06"/><rect x="780.00" y="400" width="0.00" height="20" fill="#7557B8"/><text x="788.00" y="415.00" font-family="Inter, Arial, sans-serif" font-size="10" fill="#1F2933" text-anchor="start" font-weight="400">223s</text><text x="250.00" y="450.00" font-family="Inter, Arial, sans-serif" font-size="10" fill="#1F2933" text-anchor="end" font-weight="400">Github_medium---o6766.json</text><rect x="260.00" y="434" width="519.68" height="20" fill="#2F6BFF"/><rect x="779.68" y="434" width="0.16" height="20" fill="#008C7D"/><rect x="779.84" y="434" width="0.16" height="20" fill="#D96C06"/><rect x="780.00" y="434" width="0.00" height="20" fill="#7557B8"/><text x="788.00" y="449.00" font-family="Inter, Arial, sans-serif" font-size="10" fill="#1F2933" text-anchor="start" font-weight="400">222s</text></svg>
