<svg xmlns="http://www.w3.org/2000/svg" width="860" height="520" viewBox="0 0 860 520" role="img" aria-label="Schema size ECDF: completed vs timeout"><rect width="100%" height="100%" fill="#FFFFFF"/><text x="24.00" y="30.00" font-family="Inter, Arial, sans-serif" font-size="17" fill="#1F2933" text-anchor="start" font-weight="700">Schema size ECDF: completed vs timeout</text><line x1="78.00" y1="56" x2="78.00" y2="452" stroke="#D9DEE5"/><line x1="78" y1="56.00" x2="826" y2="56.00" stroke="#D9DEE5"/><line x1="227.60" y1="56" x2="227.60" y2="452" stroke="#D9DEE5"/><line x1="78" y1="135.20" x2="826" y2="135.20" stroke="#D9DEE5"/><line x1="377.20" y1="56" x2="377.20" y2="452" stroke="#D9DEE5"/><line x1="78" y1="214.40" x2="826" y2="214.40" stroke="#D9DEE5"/><line x1="526.80" y1="56" x2="526.80" y2="452" stroke="#D9DEE5"/><line x1="78" y1="293.60" x2="826" y2="293.60" stroke="#D9DEE5"/><line x1="676.40" y1="56" x2="676.40" y2="452" stroke="#D9DEE5"/><line x1="78" y1="372.80" x2="826" y2="372.80" stroke="#D9DEE5"/><line x1="826.00" y1="56" x2="826.00" y2="452" stroke="#D9DEE5"/><line x1="78" y1="452.00" x2="826" y2="452.00" stroke="#D9DEE5"/><polyline points="78.00,451.77 78.00,451.54 78.00,451.31 125.10,451.08 234.94,450.85 244.25,450.62 255.55,450.38 265.89,450.15 267.68,449.92 272.33,449.69 273.46,449.46 274.58,449.23 275.97,449.00 278.98,448.77 280.85,448.54 282.70,448.31 283.48,448.08 286.31,447.85 288.08,447.62 288.58,447.38 288.58,447.15 289.82,446.92 290.06,446.69 290.31,446.46 290.80,446.23 290.80,446.00 290.80,445.77 291.29,445.54 291.29,445.31 291.53,445.08 292.26,444.85 292.50,444.62 292.50,444.38 292.74,444.15 293.23,443.92 293.47,443.69 293.47,443.46 294.42,443.23 295.13,443.00 295.60,442.77 296.54,442.54 296.54,442.31 297.01,442.08 297.24,441.85 297.94,441.62 297.94,441.38 298.17,441.15 298.40,440.92 299.31,440.69 299.54,440.46 299.77,440.23 299.77,440.00 300.00,439.77 300.00,439.54 300.00,439.31 300.22,439.08 301.58,438.85 301.58,438.62 301.58,438.38 301.58,438.15 301.80,437.92 302.02,437.69 302.25,437.46 302.47,437.23 302.69,437.00 302.69,436.77 302.69,436.54 302.69,436.31 302.92,436.08 303.14,435.85 303.14,435.62 303.14,435.38 303.14,435.15 303.14,434.92 303.36,434.69 304.68,434.46 304.89,434.23 305.33,434.00 305.55,433.77 305.76,433.54 306.41,433.31 306.41,433.08 306.63,432.85 306.63,432.62 306.63,432.38 307.06,432.15 307.06,431.92 307.49,431.69 307.70,431.46 307.91,431.23 308.55,431.00 308.76,430.77 308.76,430.54 308.97,430.31 309.60,430.08 309.81,429.85 310.02,429.62 310.02,429.38 310.44,429.15 310.65,428.92 310.86,428.69 311.27,428.46 311.27,428.23 311.48,428.00 311.48,427.77 311.48,427.54 311.68,427.31 311.89,427.08 312.10,426.85 312.71,426.62 312.92,426.38 313.12,426.15 313.12,425.92 313.53,425.69 313.53,425.46 313.73,425.23 313.93,425.00 313.93,424.77 314.54,424.54 314.74,424.31 314.74,424.08 315.14,423.85 315.14,423.62 315.14,423.38 315.34,423.15 315.54,422.92 315.74,422.69 315.74,422.46 315.74,422.23 315.74,422.00 315.94,421.77 316.14,421.54 316.34,421.31 316.34,421.08 316.34,420.85 316.54,420.62 316.54,420.38 316.74,420.15 316.94,419.92 317.13,419.69 317.13,419.46 317.33,419.23 317.33,419.00 317.53,418.77 317.72,418.54 317.72,418.31 318.70,418.08 319.09,417.85 319.09,417.62 319.29,417.38 319.67,417.15 319.87,416.92 320.06,416.69 320.06,416.46 320.06,416.23 320.25,416.00 320.44,415.77 320.63,415.54 320.83,415.31 320.83,415.08 320.83,414.85 320.83,414.62 321.02,414.38 321.02,414.15 321.59,413.92 321.97,413.69 322.16,413.46 322.16,413.23 322.54,413.00 322.54,412.77 322.54,412.54 322.54,412.31 322.73,412.08 322.91,411.85 322.91,411.62 322.91,411.38 323.10,411.15 323.29,410.92 324.78,410.69 324.78,410.46 324.97,410.23 324.97,410.00 325.52,409.77 325.52,409.54 325.71,409.31 325.71,409.08 326.62,408.85 326.80,408.62 326.99,408.38 326.99,408.15 327.17,407.92 327.35,407.69 327.53,407.46 327.53,407.23 327.53,407.00 327.53,406.77 327.53,406.54 327.71,406.31 327.89,406.08 328.07,405.85 328.43,405.62 328.61,405.38 328.61,405.15 328.61,404.92 328.79,404.69 328.79,404.46 328.79,404.23 328.97,404.00 328.97,403.77 329.33,403.54 329.51,403.31 329.69,403.08 329.69,402.85 329.69,402.62 330.04,402.38 330.04,402.15 330.75,401.92 331.10,401.69 331.10,401.46 331.46,401.23 331.46,401.00 331.63,400.77 331.63,400.54 331.81,400.31 331.81,400.08 331.81,399.85 331.98,399.62 332.16,399.38 332.33,399.15 332.33,398.92 332.68,398.69 332.68,398.46 332.68,398.23 332.68,398.00 332.68,397.77 332.85,397.54 332.85,397.31 332.85,397.08 332.85,396.85 333.02,396.62 333.02,396.38 333.20,396.15 333.20,395.92 333.20,395.69 333.20,395.46 333.20,395.23 333.54,395.00 333.72,394.77 333.89,394.54 334.06,394.31 334.23,394.08 334.40,393.85 334.57,393.62 334.92,393.38 335.09,393.15 335.26,392.92 335.26,392.69 335.43,392.46 335.43,392.23 335.43,392.00 335.60,391.77 335.77,391.54 335.94,391.31 336.10,391.08 336.61,390.85 336.61,390.62 336.61,390.38 336.61,390.15 336.61,389.92 337.28,389.69 337.28,389.46 337.62,389.23 337.78,389.00 337.95,388.77 337.95,388.54 337.95,388.31 338.28,388.08 338.28,387.85 338.28,387.62 338.78,387.38 338.94,387.15 338.94,386.92 339.11,386.69 339.11,386.46 339.11,386.23 339.11,386.00 339.60,385.77 339.60,385.54 339.77,385.31 339.77,385.08 339.77,384.85 339.77,384.62 339.77,384.38 339.93,384.15 339.93,383.92 339.93,383.69 339.93,383.46 340.26,383.23 340.26,383.00 340.42,382.77 340.42,382.54 340.58,382.31 340.74,382.08 340.74,381.85 340.91,381.62 341.23,381.38 341.72,381.15 341.88,380.92 341.88,380.69 341.88,380.46 342.04,380.23 342.04,380.00 342.20,379.77 342.36,379.54 342.36,379.31 342.52,379.08 342.52,378.85 342.68,378.62 343.00,378.38 343.00,378.15 343.00,377.92 343.16,377.69 343.16,377.46 343.16,377.23 343.32,377.00 343.80,376.77 343.80,376.54 343.80,376.31 344.11,376.08 344.11,375.85 344.27,375.62 344.43,375.38 344.74,375.15 344.90,374.92 344.90,374.69 344.90,374.46 345.22,374.23 345.37,374.00 345.37,373.77 345.37,373.54 345.53,373.31 345.53,373.08 345.53,372.85 345.53,372.62 345.68,372.38 345.68,372.15 345.84,371.92 346.15,371.69 346.15,371.46 346.15,371.23 346.46,371.00 346.93,370.77 346.93,370.54 346.93,370.31 347.08,370.08 347.24,369.85 347.39,369.62 347.70,369.38 348.01,369.15 348.01,368.92 348.31,368.69 348.46,368.46 348.92,368.23 349.07,368.00 349.07,367.77 349.22,367.54 349.22,367.31 349.22,367.08 349.38,366.85 349.68,366.62 349.83,366.38 349.83,366.15 350.13,365.92 350.43,365.69 350.43,365.46 350.58,365.23 350.58,365.00 350.88,364.77 350.88,364.54 350.88,364.31 351.03,364.08 351.18,363.85 351.33,363.62 351.33,363.38 351.78,363.15 351.78,362.92 351.93,362.69 352.07,362.46 352.07,362.23 352.07,362.00 352.37,361.77 352.67,361.54 352.67,361.31 352.81,361.08 352.81,360.85 352.81,360.62 352.96,360.38 353.25,360.15 353.25,359.92 353.40,359.69 353.40,359.46 353.40,359.23 353.55,359.00 353.55,358.77 353.69,358.54 353.69,358.31 353.84,358.08 353.84,357.85 353.99,357.62 354.13,357.38 354.13,357.15 354.42,356.92 354.57,356.69 354.57,356.46 354.86,356.23 355.00,356.00 355.00,355.77 355.15,355.54 355.15,355.31 355.29,355.08 355.29,354.85 355.29,354.62 355.44,354.38 355.44,354.15 355.44,353.92 355.44,353.69 355.58,353.46 355.72,353.23 355.87,353.00 355.87,352.77 355.87,352.54 356.01,352.31 356.01,352.08 356.01,351.85 356.15,351.62 356.15,351.38 356.30,351.15 356.44,350.92 356.73,350.69 356.73,350.46 356.87,350.23 357.15,350.00 357.30,349.77 357.30,349.54 357.44,349.31 357.58,349.08 357.58,348.85 357.72,348.62 357.86,348.38 357.86,348.15 358.14,347.92 358.14,347.69 358.29,347.46 358.29,347.23 358.43,347.00 358.43,346.77 358.43,346.54 358.57,346.31 358.57,346.08 358.57,345.85 358.71,345.62 358.85,345.38 358.85,345.15 358.99,344.92 359.55,344.69 359.55,344.46 359.55,344.23 359.55,344.00 359.69,343.77 359.69,343.54 359.96,343.31 359.96,343.08 359.96,342.85 360.10,342.62 360.38,342.38 360.79,342.15 361.07,341.92 361.21,341.69 361.21,341.46 361.35,341.23 361.35,341.00 361.48,340.77 361.48,340.54 361.48,340.31 361.62,340.08 361.62,339.85 361.62,339.62 361.89,339.38 362.17,339.15 362.30,338.92 362.30,338.69 362.58,338.46 362.58,338.23 362.58,338.00 362.58,337.77 362.71,337.54 362.71,337.31 362.85,337.08 362.98,336.85 362.98,336.62 363.12,336.38 363.39,336.15 363.39,335.92 363.52,335.69 363.93,335.46 364.06,335.23 364.20,335.00 364.46,334.77 364.60,334.54 364.73,334.31 364.73,334.08 364.73,333.85 364.87,333.62 365.13,333.38 365.27,333.15 365.66,332.92 365.80,332.69 365.80,332.46 365.93,332.23 365.93,332.00 366.19,331.77 366.19,331.54 366.46,331.31 366.59,331.08 366.72,330.85 366.98,330.62 366.98,330.38 366.98,330.15 367.11,329.92 367.11,329.69 367.11,329.46 367.24,329.23 367.24,329.00 367.24,328.77 367.37,328.54 367.77,328.31 367.77,328.08 367.90,327.85 368.03,327.62 368.29,327.38 368.42,327.15 368.42,326.92 368.55,326.69 368.55,326.46 368.55,326.23 368.55,326.00 368.68,325.77 368.68,325.54 368.80,325.31 368.93,325.08 368.93,324.85 369.32,324.62 369.45,324.38 369.83,324.15 369.96,323.92 370.09,323.69 370.09,323.46 370.09,323.23 370.09,323.00 370.35,322.77 370.47,322.54 370.47,322.31 370.47,322.08 370.60,321.85 370.73,321.62 370.85,321.38 370.98,321.15 370.98,320.92 371.36,320.69 371.36,320.46 371.61,320.23 371.99,320.00 371.99,319.77 372.50,319.54 372.50,319.31 372.62,319.08 372.75,318.85 372.75,318.62 372.75,318.38 372.75,318.15 372.87,317.92 372.87,317.69 372.87,317.46 373.00,317.23 373.37,317.00 373.49,316.77 373.62,316.54 373.62,316.31 373.74,316.08 373.99,315.85 374.24,315.62 374.48,315.38 374.48,315.15 374.61,314.92 374.61,314.69 374.73,314.46 374.85,314.23 374.98,314.00 375.10,313.77 375.22,313.54 375.34,313.31 375.34,313.08 375.71,312.85 375.83,312.62 375.96,312.38 376.08,312.15 376.20,311.92 376.20,311.69 376.20,311.46 376.32,311.23 376.32,311.00 376.44,310.77 376.56,310.54 376.68,310.31 376.93,310.08 376.93,309.85 377.05,309.62 377.17,309.38 377.29,309.15 377.41,308.92 377.41,308.69 377.53,308.46 377.65,308.23 377.77,308.00 377.77,307.77 378.01,307.54 378.13,307.31 378.96,307.08 379.08,306.85 379.20,306.62 379.91,306.38 379.91,306.15 380.15,305.92 380.15,305.69 380.50,305.46 380.50,305.23 380.62,305.00 380.97,304.77 381.20,304.54 381.20,304.31 381.44,304.08 381.44,303.85 381.55,303.62 381.67,303.38 381.78,303.15 381.90,302.92 382.02,302.69 382.02,302.46 382.13,302.23 382.13,302.00 382.48,301.77 382.59,301.54 382.59,301.31 382.94,301.08 382.94,300.85 383.06,300.62 383.17,300.38 383.29,300.15 383.40,299.92 383.40,299.69 383.63,299.46 383.74,299.23 383.86,299.00 383.97,298.77 384.09,298.54 384.43,298.31 384.43,298.08 384.54,297.85 384.54,297.62 384.54,297.38 384.65,297.15 384.77,296.92 384.77,296.69 384.77,296.46 384.88,296.23 384.88,296.00 385.11,295.77 385.22,295.54 385.33,295.31 385.45,295.08 385.56,294.85 385.56,294.62 385.67,294.38 385.78,294.15 385.90,293.92 386.01,293.69 386.01,293.46 386.01,293.23 386.01,293.00 386.01,292.77 386.12,292.54 386.12,292.31 386.34,292.08 386.46,291.85 386.57,291.62 386.79,291.38 386.79,291.15 386.79,290.92 386.90,290.69 386.90,290.46 386.90,290.23 386.90,290.00 386.90,289.77 387.46,289.54 387.57,289.31 387.68,289.08 387.79,288.85 388.01,288.62 388.45,288.38 388.56,288.15 388.67,287.92 388.78,287.69 388.78,287.46 389.11,287.23 389.11,287.00 389.55,286.77 389.55,286.54 389.55,286.31 389.66,286.08 389.87,285.85 389.98,285.62 390.09,285.38 390.42,285.15 391.06,284.92 391.06,284.69 391.28,284.46 391.28,284.23 391.39,284.00 391.49,283.77 391.60,283.54 391.92,283.31 392.03,283.08 392.14,282.85 392.46,282.62 392.46,282.38 392.56,282.15 392.88,281.92 392.88,281.69 392.88,281.46 393.30,281.23 393.41,281.00 393.41,280.77 393.41,280.54 393.52,280.31 393.62,280.08 393.62,279.85 393.94,279.62 394.04,279.38 394.04,279.15 394.36,278.92 394.46,278.69 394.46,278.46 394.46,278.23 394.46,278.00 394.57,277.77 395.30,277.54 395.40,277.31 395.50,277.08 395.71,276.85 395.71,276.62 395.81,276.38 396.12,276.15 396.43,275.92 396.54,275.69 396.54,275.46 396.54,275.23 396.74,275.00 396.85,274.77 396.85,274.54 396.95,274.31 397.26,274.08 397.36,273.85 397.36,273.62 397.36,273.38 397.66,273.15 397.77,272.92 397.77,272.69 397.77,272.46 397.77,272.23 397.87,272.00 397.87,271.77 397.87,271.54 397.97,271.31 398.07,271.08 398.07,270.85 398.07,270.62 398.27,270.38 398.48,270.15 398.58,269.92 398.68,269.69 398.68,269.46 398.78,269.23 398.78,269.00 398.88,268.77 398.98,268.54 398.98,268.31 399.29,268.08 399.29,267.85 399.39,267.62 399.49,267.38 399.49,267.15 400.09,266.92 400.09,266.69 400.19,266.46 400.19,266.23 400.59,266.00 400.59,265.77 400.59,265.54 400.88,265.31 400.98,265.08 400.98,264.85 400.98,264.62 401.28,264.38 401.28,264.15 401.38,263.92 401.38,263.69 401.68,263.46 401.78,263.23 401.78,263.00 401.78,262.77 401.97,262.54 401.97,262.31 401.97,262.08 402.07,261.85 402.07,261.62 402.17,261.38 402.27,261.15 402.37,260.92 402.46,260.69 402.46,260.46 402.56,260.23 402.66,260.00 402.76,259.77 402.76,259.54 402.86,259.31 402.95,259.08 403.25,258.85 403.25,258.62 403.34,258.38 403.54,258.15 403.63,257.92 403.63,257.69 403.63,257.46 403.73,257.23 403.73,257.00 403.73,256.77 403.83,256.54 403.83,256.31 403.83,256.08 404.12,255.85 404.12,255.62 404.41,255.38 404.60,255.15 404.60,254.92 404.89,254.69 404.89,254.46 405.37,254.23 405.56,254.00 405.85,253.77 406.04,253.54 406.32,253.31 406.42,253.08 406.61,252.85 406.80,252.62 406.80,252.38 406.80,252.15 407.08,251.92 407.18,251.69 407.36,251.46 407.46,251.23 407.55,251.00 407.74,250.77 407.83,250.54 408.02,250.31 408.02,250.08 408.12,249.85 408.21,249.62 408.21,249.38 408.30,249.15 408.30,248.92 408.49,248.69 408.58,248.46 408.68,248.23 408.77,248.00 408.86,247.77 408.96,247.54 408.96,247.31 409.05,247.08 409.23,246.85 409.42,246.62 409.70,246.38 410.07,246.15 410.25,245.92 410.25,245.69 410.25,245.46 410.43,245.23 410.43,245.00 410.53,244.77 410.62,244.54 410.89,244.31 410.98,244.08 411.07,243.85 411.17,243.62 411.17,243.38 411.35,243.15 411.35,242.92 411.53,242.69 411.53,242.46 411.53,242.23 411.80,242.00 411.80,241.77 412.17,241.54 412.17,241.31 412.26,241.08 412.26,240.85 412.35,240.62 412.44,240.38 412.53,240.15 412.53,239.92 412.62,239.69 412.80,239.46 412.80,239.23 413.07,239.00 413.07,238.77 413.16,238.54 413.34,238.31 413.34,238.08 413.61,237.85 413.61,237.62 413.70,237.38 413.70,237.15 413.79,236.92 413.87,236.69 414.14,236.46 414.23,236.23 414.41,236.00 414.41,235.77 414.59,235.54 414.85,235.31 415.03,235.08 415.21,234.85 415.29,234.62 415.38,234.38 415.47,234.15 415.91,233.92 416.00,233.69 416.00,233.46 416.00,233.23 416.09,233.00 416.17,232.77 416.26,232.54 416.44,232.31 416.52,232.08 416.61,231.85 416.79,231.62 416.79,231.38 416.87,231.15 416.87,230.92 417.05,230.69 417.05,230.46 417.39,230.23 417.57,230.00 417.65,229.77 417.65,229.54 417.74,229.31 417.74,229.08 417.83,228.85 417.83,228.62 417.91,228.38 417.91,228.15 418.00,227.92 418.26,227.69 418.26,227.46 418.35,227.23 418.52,227.00 418.78,226.77 418.78,226.54 418.86,226.31 418.86,226.08 418.86,225.85 418.86,225.62 419.46,225.38 419.54,225.15 419.63,224.92 419.63,224.69 419.71,224.46 419.89,224.23 419.97,224.00 419.97,223.77 420.05,223.54 420.05,223.31 420.14,223.08 420.14,222.85 420.14,222.62 420.22,222.38 420.31,222.15 420.31,221.92 420.39,221.69 420.48,221.46 420.56,221.23 420.73,221.00 420.90,220.77 420.99,220.54 421.07,220.31 421.07,220.08 421.15,219.85 421.24,219.62 421.32,219.38 421.41,219.15 421.41,218.92 421.57,218.69 421.66,218.46 421.74,218.23 421.82,218.00 421.99,217.77 422.08,217.54 422.08,217.31 422.24,217.08 422.33,216.85 422.41,216.62 422.49,216.38 422.58,216.15 422.66,215.92 422.74,215.69 422.74,215.46 422.82,215.23 422.99,215.00 422.99,214.77 423.07,214.54 423.16,214.31 423.16,214.08 423.40,213.85 423.57,213.62 423.57,213.38 423.82,213.15 423.82,212.92 423.98,212.69 424.06,212.46 424.06,212.23 424.06,212.00 424.23,211.77 424.23,211.54 424.31,211.31 424.39,211.08 424.39,210.85 424.39,210.62 424.39,210.38 424.55,210.15 424.72,209.92 424.80,209.69 425.04,209.46 425.13,209.23 425.13,209.00 425.13,208.77 425.21,208.54 425.21,208.31 425.37,208.08 425.45,207.85 425.53,207.62 425.53,207.38 425.61,207.15 425.69,206.92 426.34,206.69 426.58,206.46 426.66,206.23 426.74,206.00 426.74,205.77 426.82,205.54 426.90,205.31 426.98,205.08 427.06,204.85 427.30,204.62 427.30,204.38 427.38,204.15 427.54,203.92 427.70,203.69 427.86,203.46 427.86,203.23 427.94,203.00 427.94,202.77 428.26,202.54 428.26,202.31 428.50,202.08 428.74,201.85 428.89,201.62 428.89,201.38 428.97,201.15 429.05,200.92 429.05,200.69 429.13,200.46 429.13,200.23 429.21,200.00 429.21,199.77 429.21,199.54 429.29,199.31 429.29,199.08 429.29,198.85 429.37,198.62 429.37,198.38 429.37,198.15 429.37,197.92 429.45,197.69 429.45,197.46 429.52,197.23 429.84,197.00 430.15,196.77 430.15,196.54 430.31,196.31 430.38,196.08 430.62,195.85 430.77,195.62 430.93,195.38 431.01,195.15 431.01,194.92 431.01,194.69 431.08,194.46 431.08,194.23 431.16,194.00 431.39,193.77 431.70,193.54 431.86,193.31 431.93,193.08 431.93,192.85 432.01,192.62 432.17,192.38 432.17,192.15 432.24,191.92 432.24,191.69 432.24,191.46 432.24,191.23 432.32,191.00 432.32,190.77 432.47,190.54 432.63,190.31 432.78,190.08 432.78,189.85 432.85,189.62 432.85,189.38 432.85,189.15 433.08,188.92 433.16,188.69 433.16,188.46 433.16,188.23 433.39,188.00 433.39,187.77 433.46,187.54 433.46,187.31 433.46,187.08 433.62,186.85 433.62,186.62 433.62,186.38 433.69,186.15 433.77,185.92 433.84,185.69 434.00,185.46 434.15,185.23 434.45,185.00 434.45,184.77 434.45,184.54 434.52,184.31 434.52,184.08 434.60,183.85 434.60,183.62 434.68,183.38 434.68,183.15 434.75,182.92 434.83,182.69 434.83,182.46 435.05,182.23 435.13,182.00 435.20,181.77 435.28,181.54 435.28,181.31 435.28,181.08 435.35,180.85 435.43,180.62 435.50,180.38 435.58,180.15 435.65,179.92 435.72,179.69 435.72,179.46 435.95,179.23 436.39,179.00 436.84,178.77 437.06,178.54 437.14,178.31 437.28,178.08 437.43,177.85 437.50,177.62 437.58,177.38 438.02,177.15 438.02,176.92 438.09,176.69 438.16,176.46 438.24,176.23 438.31,176.00 438.31,175.77 438.31,175.54 438.46,175.31 438.46,175.08 438.53,174.85 438.67,174.62 438.75,174.38 438.75,174.15 438.82,173.92 438.82,173.69 439.04,173.46 439.47,173.23 439.62,173.00 439.91,172.77 439.98,172.54 439.98,172.31 440.48,172.08 440.55,171.85 440.70,171.62 440.77,171.38 440.84,171.15 440.84,170.92 440.91,170.69 441.34,170.46 441.55,170.23 441.63,170.00 441.63,169.77 441.77,169.54 441.91,169.31 441.98,169.08 442.12,168.85 442.19,168.62 442.19,168.38 442.26,168.15 442.34,167.92 442.34,167.69 442.55,167.46 442.76,167.23 442.90,167.00 442.90,166.77 443.18,166.54 443.25,166.31 443.53,166.08 443.53,165.85 443.60,165.62 443.60,165.38 443.81,165.15 443.95,164.92 443.95,164.69 444.02,164.46 444.09,164.23 444.16,164.00 444.16,163.77 444.23,163.54 444.30,163.31 444.30,163.08 444.51,162.85 444.58,162.62 444.65,162.38 444.65,162.15 444.85,161.92 444.92,161.69 444.92,161.46 444.99,161.23 444.99,161.00 445.13,160.77 445.27,160.54 445.34,160.31 445.34,160.08 445.41,159.85 445.89,159.62 445.96,159.38 446.09,159.15 446.16,158.92 446.16,158.69 446.23,158.46 446.30,158.23 446.37,158.00 446.57,157.77 446.64,157.54 446.64,157.31 446.64,157.08 446.71,156.85 446.78,156.62 446.78,156.38 447.12,156.15 447.12,155.92 447.19,155.69 447.66,155.46 447.73,155.23 447.80,155.00 447.86,154.77 448.07,154.54 448.13,154.31 448.13,154.08 448.20,153.85 448.34,153.62 448.40,153.38 448.40,153.15 448.47,152.92 448.47,152.69 448.54,152.46 448.67,152.23 448.74,152.00 448.81,151.77 448.87,151.54 449.01,151.31 449.07,151.08 449.34,150.85 449.54,150.62 449.54,150.38 449.61,150.15 449.68,149.92 449.74,149.69 449.88,149.46 449.88,149.23 450.07,149.00 450.14,148.77 450.27,148.54 450.60,148.31 450.74,148.08 450.74,147.85 450.74,147.62 450.74,147.38 451.00,147.15 451.07,146.92 451.33,146.69 451.33,146.46 451.39,146.23 451.53,146.00 451.59,145.77 451.79,145.54 451.92,145.31 452.24,145.08 452.24,144.85 452.31,144.62 452.38,144.38 452.51,144.15 452.64,143.92 452.70,143.69 452.77,143.46 452.90,143.23 452.90,143.00 452.90,142.77 453.02,142.54 453.09,142.31 453.15,142.08 453.22,141.85 453.35,141.62 453.35,141.38 453.41,141.15 453.54,140.92 453.67,140.69 453.80,140.46 453.93,140.23 454.31,140.00 454.51,139.77 454.76,139.54 454.89,139.31 454.89,139.08 454.95,138.85 454.95,138.62 455.02,138.38 455.02,138.15 455.21,137.92 455.27,137.69 455.27,137.46 455.27,137.23 455.40,137.00 455.46,136.77 455.59,136.54 455.59,136.31 455.65,136.08 455.65,135.85 455.78,135.62 455.97,135.38 456.03,135.15 456.03,134.92 456.09,134.69 456.47,134.46 456.47,134.23 456.54,134.00 456.72,133.77 456.85,133.54 456.98,133.31 456.98,133.08 456.98,132.85 456.98,132.62 457.16,132.38 457.29,132.15 457.41,131.92 457.79,131.69 457.79,131.46 458.04,131.23 458.10,131.00 458.16,130.77 458.16,130.54 458.22,130.31 458.29,130.08 458.60,129.85 458.90,129.62 459.09,129.38 459.21,129.15 459.52,128.92 459.77,128.69 459.77,128.46 459.95,128.23 460.01,128.00 460.32,127.77 460.62,127.54 460.62,127.31 460.68,127.08 460.80,126.85 460.80,126.62 460.86,126.38 460.99,126.15 461.17,125.92 461.23,125.69 461.23,125.46 461.29,125.23 461.47,125.00 461.53,124.77 461.89,124.54 462.01,124.31 462.25,124.08 462.49,123.85 462.61,123.62 462.85,123.38 462.91,123.15 462.97,122.92 463.21,122.69 463.45,122.46 463.45,122.23 463.69,122.00 463.86,121.77 463.92,121.54 463.92,121.31 463.98,121.08 464.10,120.85 464.10,120.62 464.16,120.38 465.04,120.15 465.16,119.92 465.34,119.69 465.45,119.46 465.86,119.23 465.86,119.00 465.92,118.77 466.21,118.54 466.33,118.31 466.44,118.08 466.73,117.85 466.85,117.62 467.37,117.38 467.83,117.15 468.00,116.92 468.00,116.69 468.06,116.46 468.06,116.23 468.12,116.00 468.17,115.77 468.40,115.54 468.63,115.31 468.69,115.08 468.69,114.85 469.08,114.62 469.14,114.38 469.25,114.15 469.31,113.92 469.54,113.69 469.88,113.46 469.93,113.23 470.16,113.00 470.33,112.77 470.44,112.54 470.94,112.31 471.17,112.08 471.22,111.85 471.34,111.62 471.56,111.38 471.61,111.15 471.61,110.92 471.67,110.69 472.17,110.46 472.39,110.23 472.78,110.00 472.83,109.77 473.49,109.54 473.54,109.31 473.60,109.08 473.76,108.85 473.93,108.62 473.98,108.38 474.53,108.15 474.69,107.92 474.69,107.69 474.85,107.46 475.45,107.23 475.50,107.00 475.61,106.77 475.77,106.54 475.82,106.31 476.20,106.08 476.31,105.85 476.41,105.62 476.57,105.38 476.79,105.15 476.95,104.92 477.26,104.69 477.64,104.46 477.69,104.23 478.16,104.00 478.22,103.77 478.32,103.54 479.00,103.31 479.27,103.08 479.42,102.85 479.42,102.62 479.53,102.38 479.84,102.15 479.89,101.92 480.00,101.69 480.31,101.46 480.36,101.23 480.41,101.00 480.51,100.77 480.93,100.54 481.08,100.31 481.24,100.08 481.39,99.85 481.44,99.62 481.59,99.38 481.75,99.15 482.11,98.92 482.16,98.69 482.31,98.46 482.31,98.23 482.77,98.00 482.97,97.77 483.02,97.54 483.98,97.31 484.03,97.08 484.18,96.85 485.33,96.62 485.97,96.38 486.22,96.15 486.27,95.92 486.81,95.69 486.86,95.46 487.35,95.23 487.55,95.00 487.64,94.77 487.84,94.54 488.13,94.31 488.18,94.08 488.32,93.85 488.37,93.62 488.66,93.38 488.66,93.15 488.76,92.92 489.63,92.69 490.01,92.46 490.15,92.23 490.15,92.00 490.63,91.77 490.72,91.54 490.91,91.31 491.39,91.08 491.67,90.85 492.24,90.62 492.24,90.38 492.33,90.15 492.57,89.92 493.08,89.69 493.41,89.46 493.59,89.23 493.82,89.00 493.96,88.77 494.01,88.54 494.33,88.31 494.75,88.08 494.79,87.85 495.21,87.62 495.34,87.38 496.07,87.15 496.07,86.92 496.12,86.69 496.17,86.46 496.26,86.23 496.39,86.00 496.76,85.77 497.03,85.54 497.48,85.31 497.52,85.08 497.52,84.85 497.97,84.62 498.15,84.38 498.24,84.15 499.17,83.92 499.79,83.69 499.93,83.46 500.19,83.23 500.54,83.00 501.20,82.77 501.46,82.54 501.76,82.31 501.90,82.08 502.72,81.85 502.98,81.62 503.28,81.38 503.45,81.15 503.53,80.92 503.87,80.69 504.39,80.46 504.85,80.23 504.94,80.00 505.19,79.77 505.36,79.54 506.12,79.31 506.83,79.08 507.20,78.85 507.33,78.62 508.03,78.38 508.81,78.15 509.34,77.92 509.63,77.69 510.04,77.46 511.09,77.23 511.13,77.00 511.33,76.77 511.49,76.54 512.53,76.31 512.96,76.08 513.52,75.85 514.18,75.62 516.67,75.38 516.71,75.15 516.94,74.92 518.39,74.69 519.26,74.46 520.16,74.23 520.72,74.00 521.46,73.77 521.57,73.54 521.79,73.31 521.86,73.08 523.51,72.85 523.62,72.62 523.87,72.38 524.05,72.15 524.13,71.92 524.38,71.69 524.81,71.46 525.35,71.23 527.09,71.00 527.20,70.77 527.23,70.54 528.18,70.31 528.32,70.08 528.53,69.85 528.67,69.62 528.70,69.38 530.71,69.15 530.81,68.92 531.32,68.69 532.10,68.46 532.24,68.23 532.48,68.00 533.48,67.77 534.02,67.54 534.92,67.31 535.44,67.08 536.00,66.85 536.40,66.62 536.72,66.38 536.95,66.15 538.50,65.92 538.57,65.69 538.60,65.46 538.92,65.23 540.10,65.00 540.16,64.77 540.61,64.54 540.83,64.31 541.80,64.08 542.05,63.85 542.08,63.62 542.15,63.38 543.23,63.15 543.26,62.92 544.71,62.69 544.74,62.46 546.53,62.23 548.08,62.00 548.64,61.77 551.60,61.54 552.83,61.31 554.73,61.08 555.40,60.85 557.29,60.62 560.12,60.38 560.66,60.15 563.97,59.92 564.56,59.69 564.64,59.46 570.24,59.23 570.79,59.00 572.96,58.77 575.93,58.54 601.39,58.31 605.44,58.08 622.79,57.85 640.58,57.62 659.59,57.38 660.33,57.15 676.02,56.92 701.17,56.69 723.20,56.46 725.21,56.23 826.00,56.00" fill="none" stroke="#2F6BFF" stroke-width="2.5"/><rect x="690" y="50" width="12" height="12" fill="#2F6BFF"/><text x="708.00" y="61.00" font-family="Inter, Arial, sans-serif" font-size="11" fill="#1F2933" text-anchor="start" font-weight="400">completed (n=1716)</text><polyline points="299.54,448.30 300.45,444.60 315.34,440.90 315.54,437.20 317.72,433.50 321.21,429.79 328.07,426.09 336.78,422.39 337.45,418.69 345.84,414.99 349.68,411.29 350.43,407.59 350.43,403.89 351.93,400.19 358.57,396.49 361.35,392.79 361.89,389.08 365.40,385.38 366.98,381.68 366.98,377.98 371.24,374.28 371.24,370.58 373.99,366.88 375.83,363.18 376.44,359.48 377.77,355.78 382.59,352.07 383.74,348.37 386.01,344.67 388.23,340.97 390.09,337.27 392.99,333.57 392.99,329.87 393.30,326.17 398.17,322.47 399.49,318.77 399.79,315.07 400.59,311.36 401.28,307.66 402.56,303.96 403.54,300.26 405.27,296.56 405.85,292.86 407.55,289.16 411.26,285.46 417.05,281.76 418.52,278.06 419.12,274.36 419.37,270.65 419.97,266.95 420.99,263.25 421.82,259.55 424.72,255.85 425.29,252.15 425.69,248.45 426.50,244.75 426.66,241.05 426.74,237.35 426.82,233.64 428.10,229.94 428.10,226.24 429.13,222.54 430.85,218.84 431.47,215.14 432.55,211.44 433.16,207.74 433.69,204.04 435.72,200.34 436.39,196.64 439.33,192.93 439.62,189.23 442.05,185.53 444.85,181.83 447.05,178.13 448.61,174.43 449.01,170.73 449.81,167.03 450.14,163.33 450.67,159.63 451.92,155.93 452.70,152.22 452.83,148.52 456.98,144.82 457.79,141.12 459.34,137.42 459.46,133.72 459.77,130.02 461.23,126.32 466.21,122.62 466.39,118.92 466.39,115.21 470.83,111.51 472.72,107.81 473.05,104.11 476.14,100.41 478.11,96.71 478.22,93.01 478.53,89.31 480.15,85.61 481.54,81.91 484.98,78.21 486.96,74.50 488.32,70.80 534.95,67.10 748.85,63.40 750.12,59.70 750.61,56.00" fill="none" stroke="#C43C39" stroke-width="2.5"/><rect x="690" y="70" width="12" height="12" fill="#C43C39"/><text x="708.00" y="81.00" font-family="Inter, Arial, sans-serif" font-size="11" fill="#1F2933" text-anchor="start" font-weight="400">timeout (n=107)</text><text x="452.00" y="498.00" font-family="Inter, Arial, sans-serif" font-size="12" fill="#1F2933" text-anchor="middle" font-weight="400">schema_json_chars (log)</text><text x="22.00" y="254.00" font-family="Inter, Arial, sans-serif" font-size="12" fill="#1F2933" text-anchor="middle" font-weight="400">ECDF</text></svg>
