<svg xmlns="http://www.w3.org/2000/svg" width="732" height="702" viewBox="0 0 732 702" role="img" aria-label="Local keyword co-occurrence counts"><rect width="100%" height="100%" fill="#FFFFFF"/><text x="24.00" y="30.00" font-family="Inter, Arial, sans-serif" font-size="17" fill="#1F2933" text-anchor="start" font-weight="700">Local keyword co-occurrence counts</text><text x="171.00" y="60.00" font-family="Inter, Arial, sans-serif" font-size="10" fill="#1F2933" text-anchor="middle" font-weight="400">additionalProperties</text><text x="140.00" y="95.00" font-family="Inter, Arial, sans-serif" font-size="10" fill="#1F2933" text-anchor="end" font-weight="400">additionalProperties</text><text x="213.00" y="60.00" font-family="Inter, Arial, sans-serif" font-size="10" fill="#1F2933" text-anchor="middle" font-weight="400">allOf</text><text x="140.00" y="137.00" font-family="Inter, Arial, sans-serif" font-size="10" fill="#1F2933" text-anchor="end" font-weight="400">allOf</text><text x="255.00" y="60.00" font-family="Inter, Arial, sans-serif" font-size="10" fill="#1F2933" text-anchor="middle" font-weight="400">anyOf</text><text x="140.00" y="179.00" font-family="Inter, Arial, sans-serif" font-size="10" fill="#1F2933" text-anchor="end" font-weight="400">anyOf</text><text x="297.00" y="60.00" font-family="Inter, Arial, sans-serif" font-size="10" fill="#1F2933" text-anchor="middle" font-weight="400">items</text><text x="140.00" y="221.00" font-family="Inter, Arial, sans-serif" font-size="10" fill="#1F2933" text-anchor="end" font-weight="400">items</text><text x="339.00" y="60.00" font-family="Inter, Arial, sans-serif" font-size="10" fill="#1F2933" text-anchor="middle" font-weight="400">maxProperties</text><text x="140.00" y="263.00" font-family="Inter, Arial, sans-serif" font-size="10" fill="#1F2933" text-anchor="end" font-weight="400">maxProperties</text><text x="381.00" y="60.00" font-family="Inter, Arial, sans-serif" font-size="10" fill="#1F2933" text-anchor="middle" font-weight="400">minProperties</text><text x="140.00" y="305.00" font-family="Inter, Arial, sans-serif" font-size="10" fill="#1F2933" text-anchor="end" font-weight="400">minProperties</text><text x="423.00" y="60.00" font-family="Inter, Arial, sans-serif" font-size="10" fill="#1F2933" text-anchor="middle" font-weight="400">not</text><text x="140.00" y="347.00" font-family="Inter, Arial, sans-serif" font-size="10" fill="#1F2933" text-anchor="end" font-weight="400">not</text><text x="465.00" y="60.00" font-family="Inter, Arial, sans-serif" font-size="10" fill="#1F2933" text-anchor="middle" font-weight="400">oneOf</text><text x="140.00" y="389.00" font-family="Inter, Arial, sans-serif" font-size="10" fill="#1F2933" text-anchor="end" font-weight="400">oneOf</text><text x="507.00" y="60.00" font-family="Inter, Arial, sans-serif" font-size="10" fill="#1F2933" text-anchor="middle" font-weight="400">pattern</text><text x="140.00" y="431.00" font-family="Inter, Arial, sans-serif" font-size="10" fill="#1F2933" text-anchor="end" font-weight="400">pattern</text><text x="549.00" y="60.00" font-family="Inter, Arial, sans-serif" font-size="10" fill="#1F2933" text-anchor="middle" font-weight="400">patternProperties</text><text x="140.00" y="473.00" font-family="Inter, Arial, sans-serif" font-size="10" fill="#1F2933" text-anchor="end" font-weight="400">patternProperties</text><text x="591.00" y="60.00" font-family="Inter, Arial, sans-serif" font-size="10" fill="#1F2933" text-anchor="middle" font-weight="400">properties</text><text x="140.00" y="515.00" font-family="Inter, Arial, sans-serif" font-size="10" fill="#1F2933" text-anchor="end" font-weight="400">properties</text><text x="633.00" y="60.00" font-family="Inter, Arial, sans-serif" font-size="10" fill="#1F2933" text-anchor="middle" font-weight="400">required</text><text x="140.00" y="557.00" font-family="Inter, Arial, sans-serif" font-size="10" fill="#1F2933" text-anchor="end" font-weight="400">required</text><rect x="150" y="70" width="40" height="40" fill="#2F6BFF" opacity="0.080"/><rect x="192" y="70" width="40" height="40" fill="#2F6BFF" opacity="0.083"/><text x="213.00" y="95.00" font-family="Inter, Arial, sans-serif" font-size="9" fill="#1F2933" text-anchor="middle" font-weight="400">122</text><rect x="234" y="70" width="40" height="40" fill="#2F6BFF" opacity="0.085"/><text x="255.00" y="95.00" font-family="Inter, Arial, sans-serif" font-size="9" fill="#1F2933" text-anchor="middle" font-weight="400">191</text><rect x="276" y="70" width="40" height="40" fill="#2F6BFF" opacity="0.089"/><text x="297.00" y="95.00" font-family="Inter, Arial, sans-serif" font-size="9" fill="#1F2933" text-anchor="middle" font-weight="400">325</text><rect x="318" y="70" width="40" height="40" fill="#2F6BFF" opacity="0.082"/><text x="339.00" y="95.00" font-family="Inter, Arial, sans-serif" font-size="9" fill="#1F2933" text-anchor="middle" font-weight="400">75</text><rect x="360" y="70" width="40" height="40" fill="#2F6BFF" opacity="0.088"/><text x="381.00" y="95.00" font-family="Inter, Arial, sans-serif" font-size="9" fill="#1F2933" text-anchor="middle" font-weight="400">286</text><rect x="402" y="70" width="40" height="40" fill="#2F6BFF" opacity="0.081"/><text x="423.00" y="95.00" font-family="Inter, Arial, sans-serif" font-size="9" fill="#1F2933" text-anchor="middle" font-weight="400">36</text><rect x="444" y="70" width="40" height="40" fill="#2F6BFF" opacity="0.083"/><text x="465.00" y="95.00" font-family="Inter, Arial, sans-serif" font-size="9" fill="#1F2933" text-anchor="middle" font-weight="400">103</text><rect x="486" y="70" width="40" height="40" fill="#2F6BFF" opacity="0.080"/><rect x="528" y="70" width="40" height="40" fill="#2F6BFF" opacity="0.101"/><text x="549.00" y="95.00" font-family="Inter, Arial, sans-serif" font-size="9" fill="#1F2933" text-anchor="middle" font-weight="400">775</text><rect x="570" y="70" width="40" height="40" fill="#2F6BFF" opacity="0.700"/><text x="591.00" y="95.00" font-family="Inter, Arial, sans-serif" font-size="9" fill="#1F2933" text-anchor="middle" font-weight="400">23174</text><rect x="612" y="70" width="40" height="40" fill="#2F6BFF" opacity="0.433"/><text x="633.00" y="95.00" font-family="Inter, Arial, sans-serif" font-size="9" fill="#1F2933" text-anchor="middle" font-weight="400">13190</text><rect x="150" y="112" width="40" height="40" fill="#2F6BFF" opacity="0.083"/><text x="171.00" y="137.00" font-family="Inter, Arial, sans-serif" font-size="9" fill="#1F2933" text-anchor="middle" font-weight="400">122</text><rect x="192" y="112" width="40" height="40" fill="#2F6BFF" opacity="0.080"/><rect x="234" y="112" width="40" height="40" fill="#2F6BFF" opacity="0.080"/><rect x="276" y="112" width="40" height="40" fill="#2F6BFF" opacity="0.080"/><rect x="318" y="112" width="40" height="40" fill="#2F6BFF" opacity="0.080"/><rect x="360" y="112" width="40" height="40" fill="#2F6BFF" opacity="0.080"/><rect x="402" y="112" width="40" height="40" fill="#2F6BFF" opacity="0.080"/><rect x="444" y="112" width="40" height="40" fill="#2F6BFF" opacity="0.080"/><text x="465.00" y="137.00" font-family="Inter, Arial, sans-serif" font-size="9" fill="#1F2933" text-anchor="middle" font-weight="400">5</text><rect x="486" y="112" width="40" height="40" fill="#2F6BFF" opacity="0.080"/><rect x="528" y="112" width="40" height="40" fill="#2F6BFF" opacity="0.080"/><rect x="570" y="112" width="40" height="40" fill="#2F6BFF" opacity="0.087"/><text x="591.00" y="137.00" font-family="Inter, Arial, sans-serif" font-size="9" fill="#1F2933" text-anchor="middle" font-weight="400">280</text><rect x="612" y="112" width="40" height="40" fill="#2F6BFF" opacity="0.083"/><text x="633.00" y="137.00" font-family="Inter, Arial, sans-serif" font-size="9" fill="#1F2933" text-anchor="middle" font-weight="400">98</text><rect x="150" y="154" width="40" height="40" fill="#2F6BFF" opacity="0.085"/><text x="171.00" y="179.00" font-family="Inter, Arial, sans-serif" font-size="9" fill="#1F2933" text-anchor="middle" font-weight="400">191</text><rect x="192" y="154" width="40" height="40" fill="#2F6BFF" opacity="0.080"/><rect x="234" y="154" width="40" height="40" fill="#2F6BFF" opacity="0.080"/><rect x="276" y="154" width="40" height="40" fill="#2F6BFF" opacity="0.080"/><text x="297.00" y="179.00" font-family="Inter, Arial, sans-serif" font-size="9" fill="#1F2933" text-anchor="middle" font-weight="400">2</text><rect x="318" y="154" width="40" height="40" fill="#2F6BFF" opacity="0.080"/><rect x="360" y="154" width="40" height="40" fill="#2F6BFF" opacity="0.080"/><text x="381.00" y="179.00" font-family="Inter, Arial, sans-serif" font-size="9" fill="#1F2933" text-anchor="middle" font-weight="400">5</text><rect x="402" y="154" width="40" height="40" fill="#2F6BFF" opacity="0.080"/><text x="423.00" y="179.00" font-family="Inter, Arial, sans-serif" font-size="9" fill="#1F2933" text-anchor="middle" font-weight="400">6</text><rect x="444" y="154" width="40" height="40" fill="#2F6BFF" opacity="0.080"/><text x="465.00" y="179.00" font-family="Inter, Arial, sans-serif" font-size="9" fill="#1F2933" text-anchor="middle" font-weight="400">4</text><rect x="486" y="154" width="40" height="40" fill="#2F6BFF" opacity="0.080"/><rect x="528" y="154" width="40" height="40" fill="#2F6BFF" opacity="0.080"/><rect x="570" y="154" width="40" height="40" fill="#2F6BFF" opacity="0.088"/><text x="591.00" y="179.00" font-family="Inter, Arial, sans-serif" font-size="9" fill="#1F2933" text-anchor="middle" font-weight="400">309</text><rect x="612" y="154" width="40" height="40" fill="#2F6BFF" opacity="0.087"/><text x="633.00" y="179.00" font-family="Inter, Arial, sans-serif" font-size="9" fill="#1F2933" text-anchor="middle" font-weight="400">275</text><rect x="150" y="196" width="40" height="40" fill="#2F6BFF" opacity="0.089"/><text x="171.00" y="221.00" font-family="Inter, Arial, sans-serif" font-size="9" fill="#1F2933" text-anchor="middle" font-weight="400">325</text><rect x="192" y="196" width="40" height="40" fill="#2F6BFF" opacity="0.080"/><rect x="234" y="196" width="40" height="40" fill="#2F6BFF" opacity="0.080"/><text x="255.00" y="221.00" font-family="Inter, Arial, sans-serif" font-size="9" fill="#1F2933" text-anchor="middle" font-weight="400">2</text><rect x="276" y="196" width="40" height="40" fill="#2F6BFF" opacity="0.080"/><rect x="318" y="196" width="40" height="40" fill="#2F6BFF" opacity="0.080"/><rect x="360" y="196" width="40" height="40" fill="#2F6BFF" opacity="0.080"/><rect x="402" y="196" width="40" height="40" fill="#2F6BFF" opacity="0.080"/><rect x="444" y="196" width="40" height="40" fill="#2F6BFF" opacity="0.080"/><rect x="486" y="196" width="40" height="40" fill="#2F6BFF" opacity="0.080"/><rect x="528" y="196" width="40" height="40" fill="#2F6BFF" opacity="0.080"/><rect x="570" y="196" width="40" height="40" fill="#2F6BFF" opacity="0.085"/><text x="591.00" y="221.00" font-family="Inter, Arial, sans-serif" font-size="9" fill="#1F2933" text-anchor="middle" font-weight="400">176</text><rect x="612" y="196" width="40" height="40" fill="#2F6BFF" opacity="0.083"/><text x="633.00" y="221.00" font-family="Inter, Arial, sans-serif" font-size="9" fill="#1F2933" text-anchor="middle" font-weight="400">108</text><rect x="150" y="238" width="40" height="40" fill="#2F6BFF" opacity="0.082"/><text x="171.00" y="263.00" font-family="Inter, Arial, sans-serif" font-size="9" fill="#1F2933" text-anchor="middle" font-weight="400">75</text><rect x="192" y="238" width="40" height="40" fill="#2F6BFF" opacity="0.080"/><rect x="234" y="238" width="40" height="40" fill="#2F6BFF" opacity="0.080"/><rect x="276" y="238" width="40" height="40" fill="#2F6BFF" opacity="0.080"/><rect x="318" y="238" width="40" height="40" fill="#2F6BFF" opacity="0.080"/><rect x="360" y="238" width="40" height="40" fill="#2F6BFF" opacity="0.082"/><text x="381.00" y="263.00" font-family="Inter, Arial, sans-serif" font-size="9" fill="#1F2933" text-anchor="middle" font-weight="400">71</text><rect x="402" y="238" width="40" height="40" fill="#2F6BFF" opacity="0.080"/><rect x="444" y="238" width="40" height="40" fill="#2F6BFF" opacity="0.080"/><rect x="486" y="238" width="40" height="40" fill="#2F6BFF" opacity="0.080"/><rect x="528" y="238" width="40" height="40" fill="#2F6BFF" opacity="0.080"/><rect x="570" y="238" width="40" height="40" fill="#2F6BFF" opacity="0.081"/><text x="591.00" y="263.00" font-family="Inter, Arial, sans-serif" font-size="9" fill="#1F2933" text-anchor="middle" font-weight="400">42</text><rect x="612" y="238" width="40" height="40" fill="#2F6BFF" opacity="0.081"/><text x="633.00" y="263.00" font-family="Inter, Arial, sans-serif" font-size="9" fill="#1F2933" text-anchor="middle" font-weight="400">24</text><rect x="150" y="280" width="40" height="40" fill="#2F6BFF" opacity="0.088"/><text x="171.00" y="305.00" font-family="Inter, Arial, sans-serif" font-size="9" fill="#1F2933" text-anchor="middle" font-weight="400">286</text><rect x="192" y="280" width="40" height="40" fill="#2F6BFF" opacity="0.080"/><rect x="234" y="280" width="40" height="40" fill="#2F6BFF" opacity="0.080"/><text x="255.00" y="305.00" font-family="Inter, Arial, sans-serif" font-size="9" fill="#1F2933" text-anchor="middle" font-weight="400">5</text><rect x="276" y="280" width="40" height="40" fill="#2F6BFF" opacity="0.080"/><rect x="318" y="280" width="40" height="40" fill="#2F6BFF" opacity="0.082"/><text x="339.00" y="305.00" font-family="Inter, Arial, sans-serif" font-size="9" fill="#1F2933" text-anchor="middle" font-weight="400">71</text><rect x="360" y="280" width="40" height="40" fill="#2F6BFF" opacity="0.080"/><rect x="402" y="280" width="40" height="40" fill="#2F6BFF" opacity="0.080"/><text x="423.00" y="305.00" font-family="Inter, Arial, sans-serif" font-size="9" fill="#1F2933" text-anchor="middle" font-weight="400">15</text><rect x="444" y="280" width="40" height="40" fill="#2F6BFF" opacity="0.080"/><text x="465.00" y="305.00" font-family="Inter, Arial, sans-serif" font-size="9" fill="#1F2933" text-anchor="middle" font-weight="400">7</text><rect x="486" y="280" width="40" height="40" fill="#2F6BFF" opacity="0.080"/><rect x="528" y="280" width="40" height="40" fill="#2F6BFF" opacity="0.083"/><text x="549.00" y="305.00" font-family="Inter, Arial, sans-serif" font-size="9" fill="#1F2933" text-anchor="middle" font-weight="400">122</text><rect x="570" y="280" width="40" height="40" fill="#2F6BFF" opacity="0.084"/><text x="591.00" y="305.00" font-family="Inter, Arial, sans-serif" font-size="9" fill="#1F2933" text-anchor="middle" font-weight="400">145</text><rect x="612" y="280" width="40" height="40" fill="#2F6BFF" opacity="0.081"/><text x="633.00" y="305.00" font-family="Inter, Arial, sans-serif" font-size="9" fill="#1F2933" text-anchor="middle" font-weight="400">32</text><rect x="150" y="322" width="40" height="40" fill="#2F6BFF" opacity="0.081"/><text x="171.00" y="347.00" font-family="Inter, Arial, sans-serif" font-size="9" fill="#1F2933" text-anchor="middle" font-weight="400">36</text><rect x="192" y="322" width="40" height="40" fill="#2F6BFF" opacity="0.080"/><rect x="234" y="322" width="40" height="40" fill="#2F6BFF" opacity="0.080"/><text x="255.00" y="347.00" font-family="Inter, Arial, sans-serif" font-size="9" fill="#1F2933" text-anchor="middle" font-weight="400">6</text><rect x="276" y="322" width="40" height="40" fill="#2F6BFF" opacity="0.080"/><rect x="318" y="322" width="40" height="40" fill="#2F6BFF" opacity="0.080"/><rect x="360" y="322" width="40" height="40" fill="#2F6BFF" opacity="0.080"/><text x="381.00" y="347.00" font-family="Inter, Arial, sans-serif" font-size="9" fill="#1F2933" text-anchor="middle" font-weight="400">15</text><rect x="402" y="322" width="40" height="40" fill="#2F6BFF" opacity="0.080"/><rect x="444" y="322" width="40" height="40" fill="#2F6BFF" opacity="0.080"/><text x="465.00" y="347.00" font-family="Inter, Arial, sans-serif" font-size="9" fill="#1F2933" text-anchor="middle" font-weight="400">4</text><rect x="486" y="322" width="40" height="40" fill="#2F6BFF" opacity="0.080"/><text x="507.00" y="347.00" font-family="Inter, Arial, sans-serif" font-size="9" fill="#1F2933" text-anchor="middle" font-weight="400">4</text><rect x="528" y="322" width="40" height="40" fill="#2F6BFF" opacity="0.080"/><text x="549.00" y="347.00" font-family="Inter, Arial, sans-serif" font-size="9" fill="#1F2933" text-anchor="middle" font-weight="400">15</text><rect x="570" y="322" width="40" height="40" fill="#2F6BFF" opacity="0.081"/><text x="591.00" y="347.00" font-family="Inter, Arial, sans-serif" font-size="9" fill="#1F2933" text-anchor="middle" font-weight="400">45</text><rect x="612" y="322" width="40" height="40" fill="#2F6BFF" opacity="0.081"/><text x="633.00" y="347.00" font-family="Inter, Arial, sans-serif" font-size="9" fill="#1F2933" text-anchor="middle" font-weight="400">42</text><rect x="150" y="364" width="40" height="40" fill="#2F6BFF" opacity="0.083"/><text x="171.00" y="389.00" font-family="Inter, Arial, sans-serif" font-size="9" fill="#1F2933" text-anchor="middle" font-weight="400">103</text><rect x="192" y="364" width="40" height="40" fill="#2F6BFF" opacity="0.080"/><text x="213.00" y="389.00" font-family="Inter, Arial, sans-serif" font-size="9" fill="#1F2933" text-anchor="middle" font-weight="400">5</text><rect x="234" y="364" width="40" height="40" fill="#2F6BFF" opacity="0.080"/><text x="255.00" y="389.00" font-family="Inter, Arial, sans-serif" font-size="9" fill="#1F2933" text-anchor="middle" font-weight="400">4</text><rect x="276" y="364" width="40" height="40" fill="#2F6BFF" opacity="0.080"/><rect x="318" y="364" width="40" height="40" fill="#2F6BFF" opacity="0.080"/><rect x="360" y="364" width="40" height="40" fill="#2F6BFF" opacity="0.080"/><text x="381.00" y="389.00" font-family="Inter, Arial, sans-serif" font-size="9" fill="#1F2933" text-anchor="middle" font-weight="400">7</text><rect x="402" y="364" width="40" height="40" fill="#2F6BFF" opacity="0.080"/><text x="423.00" y="389.00" font-family="Inter, Arial, sans-serif" font-size="9" fill="#1F2933" text-anchor="middle" font-weight="400">4</text><rect x="444" y="364" width="40" height="40" fill="#2F6BFF" opacity="0.080"/><rect x="486" y="364" width="40" height="40" fill="#2F6BFF" opacity="0.080"/><rect x="528" y="364" width="40" height="40" fill="#2F6BFF" opacity="0.080"/><rect x="570" y="364" width="40" height="40" fill="#2F6BFF" opacity="0.088"/><text x="591.00" y="389.00" font-family="Inter, Arial, sans-serif" font-size="9" fill="#1F2933" text-anchor="middle" font-weight="400">310</text><rect x="612" y="364" width="40" height="40" fill="#2F6BFF" opacity="0.085"/><text x="633.00" y="389.00" font-family="Inter, Arial, sans-serif" font-size="9" fill="#1F2933" text-anchor="middle" font-weight="400">186</text><rect x="150" y="406" width="40" height="40" fill="#2F6BFF" opacity="0.080"/><rect x="192" y="406" width="40" height="40" fill="#2F6BFF" opacity="0.080"/><rect x="234" y="406" width="40" height="40" fill="#2F6BFF" opacity="0.080"/><rect x="276" y="406" width="40" height="40" fill="#2F6BFF" opacity="0.080"/><rect x="318" y="406" width="40" height="40" fill="#2F6BFF" opacity="0.080"/><rect x="360" y="406" width="40" height="40" fill="#2F6BFF" opacity="0.080"/><rect x="402" y="406" width="40" height="40" fill="#2F6BFF" opacity="0.080"/><text x="423.00" y="431.00" font-family="Inter, Arial, sans-serif" font-size="9" fill="#1F2933" text-anchor="middle" font-weight="400">4</text><rect x="444" y="406" width="40" height="40" fill="#2F6BFF" opacity="0.080"/><rect x="486" y="406" width="40" height="40" fill="#2F6BFF" opacity="0.080"/><rect x="528" y="406" width="40" height="40" fill="#2F6BFF" opacity="0.080"/><text x="549.00" y="431.00" font-family="Inter, Arial, sans-serif" font-size="9" fill="#1F2933" text-anchor="middle" font-weight="400">3</text><rect x="570" y="406" width="40" height="40" fill="#2F6BFF" opacity="0.080"/><rect x="612" y="406" width="40" height="40" fill="#2F6BFF" opacity="0.080"/><text x="633.00" y="431.00" font-family="Inter, Arial, sans-serif" font-size="9" fill="#1F2933" text-anchor="middle" font-weight="400">6</text><rect x="150" y="448" width="40" height="40" fill="#2F6BFF" opacity="0.101"/><text x="171.00" y="473.00" font-family="Inter, Arial, sans-serif" font-size="9" fill="#1F2933" text-anchor="middle" font-weight="400">775</text><rect x="192" y="448" width="40" height="40" fill="#2F6BFF" opacity="0.080"/><rect x="234" y="448" width="40" height="40" fill="#2F6BFF" opacity="0.080"/><rect x="276" y="448" width="40" height="40" fill="#2F6BFF" opacity="0.080"/><rect x="318" y="448" width="40" height="40" fill="#2F6BFF" opacity="0.080"/><rect x="360" y="448" width="40" height="40" fill="#2F6BFF" opacity="0.083"/><text x="381.00" y="473.00" font-family="Inter, Arial, sans-serif" font-size="9" fill="#1F2933" text-anchor="middle" font-weight="400">122</text><rect x="402" y="448" width="40" height="40" fill="#2F6BFF" opacity="0.080"/><text x="423.00" y="473.00" font-family="Inter, Arial, sans-serif" font-size="9" fill="#1F2933" text-anchor="middle" font-weight="400">15</text><rect x="444" y="448" width="40" height="40" fill="#2F6BFF" opacity="0.080"/><rect x="486" y="448" width="40" height="40" fill="#2F6BFF" opacity="0.080"/><text x="507.00" y="473.00" font-family="Inter, Arial, sans-serif" font-size="9" fill="#1F2933" text-anchor="middle" font-weight="400">3</text><rect x="528" y="448" width="40" height="40" fill="#2F6BFF" opacity="0.080"/><rect x="570" y="448" width="40" height="40" fill="#2F6BFF" opacity="0.092"/><text x="591.00" y="473.00" font-family="Inter, Arial, sans-serif" font-size="9" fill="#1F2933" text-anchor="middle" font-weight="400">466</text><rect x="612" y="448" width="40" height="40" fill="#2F6BFF" opacity="0.085"/><text x="633.00" y="473.00" font-family="Inter, Arial, sans-serif" font-size="9" fill="#1F2933" text-anchor="middle" font-weight="400">186</text><rect x="150" y="490" width="40" height="40" fill="#2F6BFF" opacity="0.700"/><text x="171.00" y="515.00" font-family="Inter, Arial, sans-serif" font-size="9" fill="#1F2933" text-anchor="middle" font-weight="400">23174</text><rect x="192" y="490" width="40" height="40" fill="#2F6BFF" opacity="0.087"/><text x="213.00" y="515.00" font-family="Inter, Arial, sans-serif" font-size="9" fill="#1F2933" text-anchor="middle" font-weight="400">280</text><rect x="234" y="490" width="40" height="40" fill="#2F6BFF" opacity="0.088"/><text x="255.00" y="515.00" font-family="Inter, Arial, sans-serif" font-size="9" fill="#1F2933" text-anchor="middle" font-weight="400">309</text><rect x="276" y="490" width="40" height="40" fill="#2F6BFF" opacity="0.085"/><text x="297.00" y="515.00" font-family="Inter, Arial, sans-serif" font-size="9" fill="#1F2933" text-anchor="middle" font-weight="400">176</text><rect x="318" y="490" width="40" height="40" fill="#2F6BFF" opacity="0.081"/><text x="339.00" y="515.00" font-family="Inter, Arial, sans-serif" font-size="9" fill="#1F2933" text-anchor="middle" font-weight="400">42</text><rect x="360" y="490" width="40" height="40" fill="#2F6BFF" opacity="0.084"/><text x="381.00" y="515.00" font-family="Inter, Arial, sans-serif" font-size="9" fill="#1F2933" text-anchor="middle" font-weight="400">145</text><rect x="402" y="490" width="40" height="40" fill="#2F6BFF" opacity="0.081"/><text x="423.00" y="515.00" font-family="Inter, Arial, sans-serif" font-size="9" fill="#1F2933" text-anchor="middle" font-weight="400">45</text><rect x="444" y="490" width="40" height="40" fill="#2F6BFF" opacity="0.088"/><text x="465.00" y="515.00" font-family="Inter, Arial, sans-serif" font-size="9" fill="#1F2933" text-anchor="middle" font-weight="400">310</text><rect x="486" y="490" width="40" height="40" fill="#2F6BFF" opacity="0.080"/><rect x="528" y="490" width="40" height="40" fill="#2F6BFF" opacity="0.092"/><text x="549.00" y="515.00" font-family="Inter, Arial, sans-serif" font-size="9" fill="#1F2933" text-anchor="middle" font-weight="400">466</text><rect x="570" y="490" width="40" height="40" fill="#2F6BFF" opacity="0.080"/><rect x="612" y="490" width="40" height="40" fill="#2F6BFF" opacity="0.900"/><text x="633.00" y="515.00" font-family="Inter, Arial, sans-serif" font-size="9" fill="#1F2933" text-anchor="middle" font-weight="400">30666</text><rect x="150" y="532" width="40" height="40" fill="#2F6BFF" opacity="0.433"/><text x="171.00" y="557.00" font-family="Inter, Arial, sans-serif" font-size="9" fill="#1F2933" text-anchor="middle" font-weight="400">13190</text><rect x="192" y="532" width="40" height="40" fill="#2F6BFF" opacity="0.083"/><text x="213.00" y="557.00" font-family="Inter, Arial, sans-serif" font-size="9" fill="#1F2933" text-anchor="middle" font-weight="400">98</text><rect x="234" y="532" width="40" height="40" fill="#2F6BFF" opacity="0.087"/><text x="255.00" y="557.00" font-family="Inter, Arial, sans-serif" font-size="9" fill="#1F2933" text-anchor="middle" font-weight="400">275</text><rect x="276" y="532" width="40" height="40" fill="#2F6BFF" opacity="0.083"/><text x="297.00" y="557.00" font-family="Inter, Arial, sans-serif" font-size="9" fill="#1F2933" text-anchor="middle" font-weight="400">108</text><rect x="318" y="532" width="40" height="40" fill="#2F6BFF" opacity="0.081"/><text x="339.00" y="557.00" font-family="Inter, Arial, sans-serif" font-size="9" fill="#1F2933" text-anchor="middle" font-weight="400">24</text><rect x="360" y="532" width="40" height="40" fill="#2F6BFF" opacity="0.081"/><text x="381.00" y="557.00" font-family="Inter, Arial, sans-serif" font-size="9" fill="#1F2933" text-anchor="middle" font-weight="400">32</text><rect x="402" y="532" width="40" height="40" fill="#2F6BFF" opacity="0.081"/><text x="423.00" y="557.00" font-family="Inter, Arial, sans-serif" font-size="9" fill="#1F2933" text-anchor="middle" font-weight="400">42</text><rect x="444" y="532" width="40" height="40" fill="#2F6BFF" opacity="0.085"/><text x="465.00" y="557.00" font-family="Inter, Arial, sans-serif" font-size="9" fill="#1F2933" text-anchor="middle" font-weight="400">186</text><rect x="486" y="532" width="40" height="40" fill="#2F6BFF" opacity="0.080"/><text x="507.00" y="557.00" font-family="Inter, Arial, sans-serif" font-size="9" fill="#1F2933" text-anchor="middle" font-weight="400">6</text><rect x="528" y="532" width="40" height="40" fill="#2F6BFF" opacity="0.085"/><text x="549.00" y="557.00" font-family="Inter, Arial, sans-serif" font-size="9" fill="#1F2933" text-anchor="middle" font-weight="400">186</text><rect x="570" y="532" width="40" height="40" fill="#2F6BFF" opacity="0.900"/><text x="591.00" y="557.00" font-family="Inter, Arial, sans-serif" font-size="9" fill="#1F2933" text-anchor="middle" font-weight="400">30666</text><rect x="612" y="532" width="40" height="40" fill="#2F6BFF" opacity="0.080"/></svg>
