<svg xmlns="http://www.w3.org/2000/svg" width="560" height="520" viewBox="0 0 560 520" role="img" aria-label="Local combination OVER-rate heatmap"><rect width="100%" height="100%" fill="#FFFFFF"/><text x="24.00" y="30.00" font-family="Inter, Arial, sans-serif" font-size="17" fill="#1F2933" text-anchor="start" font-weight="700">Local combination OVER-rate heatmap</text><text x="171.00" y="60.00" font-family="Inter, Arial, sans-serif" font-size="10" fill="#1F2933" text-anchor="middle" font-weight="400">OVER_lift_proxy</text><text x="140.00" y="95.00" font-family="Inter, Arial, sans-serif" font-size="10" fill="#1F2933" text-anchor="end" font-weight="400">OVER_lift_proxy</text><text x="213.00" y="60.00" font-family="Inter, Arial, sans-serif" font-size="10" fill="#1F2933" text-anchor="middle" font-weight="400">same_node_not_and_pattern</text><text x="140.00" y="137.00" font-family="Inter, Arial, sans-serif" font-size="10" fill="#1F2933" text-anchor="end" font-weight="400">same_node_not_and_pattern</text><text x="255.00" y="60.00" font-family="Inter, Arial, sans-serif" font-size="10" fill="#1F2933" text-anchor="middle" font-weight="400">same_node_not_and_type</text><text x="140.00" y="179.00" font-family="Inter, Arial, sans-serif" font-size="10" fill="#1F2933" text-anchor="end" font-weight="400">same_node_not_and_type</text><text x="297.00" y="60.00" font-family="Inter, Arial, sans-serif" font-size="10" fill="#1F2933" text-anchor="middle" font-weight="400">same_node_patternProperties_and_additionalProperties</text><text x="140.00" y="221.00" font-family="Inter, Arial, sans-serif" font-size="10" fill="#1F2933" text-anchor="end" font-weight="400">same_node_patternProperties_and_additionalProperties</text><text x="339.00" y="60.00" font-family="Inter, Arial, sans-serif" font-size="10" fill="#1F2933" text-anchor="middle" font-weight="400">same_node_properties_and_patternProperties</text><text x="140.00" y="263.00" font-family="Inter, Arial, sans-serif" font-size="10" fill="#1F2933" text-anchor="end" font-weight="400">same_node_properties_and_patternProperties</text><text x="381.00" y="60.00" font-family="Inter, Arial, sans-serif" font-size="10" fill="#1F2933" text-anchor="middle" font-weight="400">same_node_properties_and_required</text><text x="140.00" y="305.00" font-family="Inter, Arial, sans-serif" font-size="10" fill="#1F2933" text-anchor="end" font-weight="400">same_node_properties_and_required</text><rect x="150" y="70" width="40" height="40" fill="#2F6BFF" opacity="0.080"/><rect x="192" y="70" width="40" height="40" fill="#2F6BFF" opacity="0.900"/><text x="213.00" y="95.00" font-family="Inter, Arial, sans-serif" font-size="9" fill="#1F2933" text-anchor="middle" font-weight="400">0</text><rect x="234" y="70" width="40" height="40" fill="#2F6BFF" opacity="0.539"/><text x="255.00" y="95.00" font-family="Inter, Arial, sans-serif" font-size="9" fill="#1F2933" text-anchor="middle" font-weight="400">0</text><rect x="276" y="70" width="40" height="40" fill="#2F6BFF" opacity="0.616"/><text x="297.00" y="95.00" font-family="Inter, Arial, sans-serif" font-size="9" fill="#1F2933" text-anchor="middle" font-weight="400">0</text><rect x="318" y="70" width="40" height="40" fill="#2F6BFF" opacity="0.597"/><text x="339.00" y="95.00" font-family="Inter, Arial, sans-serif" font-size="9" fill="#1F2933" text-anchor="middle" font-weight="400">0</text><rect x="360" y="70" width="40" height="40" fill="#2F6BFF" opacity="0.280"/><text x="381.00" y="95.00" font-family="Inter, Arial, sans-serif" font-size="9" fill="#1F2933" text-anchor="middle" font-weight="400">0</text><rect x="150" y="112" width="40" height="40" fill="#2F6BFF" opacity="0.900"/><text x="171.00" y="137.00" font-family="Inter, Arial, sans-serif" font-size="9" fill="#1F2933" text-anchor="middle" font-weight="400">0</text><rect x="192" y="112" width="40" height="40" fill="#2F6BFF" opacity="0.080"/><rect x="234" y="112" width="40" height="40" fill="#2F6BFF" opacity="0.080"/><rect x="276" y="112" width="40" height="40" fill="#2F6BFF" opacity="0.080"/><rect x="318" y="112" width="40" height="40" fill="#2F6BFF" opacity="0.080"/><rect x="360" y="112" width="40" height="40" fill="#2F6BFF" opacity="0.080"/><rect x="150" y="154" width="40" height="40" fill="#2F6BFF" opacity="0.539"/><text x="171.00" y="179.00" font-family="Inter, Arial, sans-serif" font-size="9" fill="#1F2933" text-anchor="middle" font-weight="400">0</text><rect x="192" y="154" width="40" height="40" fill="#2F6BFF" opacity="0.080"/><rect x="234" y="154" width="40" height="40" fill="#2F6BFF" opacity="0.080"/><rect x="276" y="154" width="40" height="40" fill="#2F6BFF" opacity="0.080"/><rect x="318" y="154" width="40" height="40" fill="#2F6BFF" opacity="0.080"/><rect x="360" y="154" width="40" height="40" fill="#2F6BFF" opacity="0.080"/><rect x="150" y="196" width="40" height="40" fill="#2F6BFF" opacity="0.616"/><text x="171.00" y="221.00" font-family="Inter, Arial, sans-serif" font-size="9" fill="#1F2933" text-anchor="middle" font-weight="400">0</text><rect x="192" y="196" width="40" height="40" fill="#2F6BFF" opacity="0.080"/><rect x="234" y="196" width="40" height="40" fill="#2F6BFF" opacity="0.080"/><rect x="276" y="196" width="40" height="40" fill="#2F6BFF" opacity="0.080"/><rect x="318" y="196" width="40" height="40" fill="#2F6BFF" opacity="0.080"/><rect x="360" y="196" width="40" height="40" fill="#2F6BFF" opacity="0.080"/><rect x="150" y="238" width="40" height="40" fill="#2F6BFF" opacity="0.597"/><text x="171.00" y="263.00" font-family="Inter, Arial, sans-serif" font-size="9" fill="#1F2933" text-anchor="middle" font-weight="400">0</text><rect x="192" y="238" width="40" height="40" fill="#2F6BFF" opacity="0.080"/><rect x="234" y="238" width="40" height="40" fill="#2F6BFF" opacity="0.080"/><rect x="276" y="238" width="40" height="40" fill="#2F6BFF" opacity="0.080"/><rect x="318" y="238" width="40" height="40" fill="#2F6BFF" opacity="0.080"/><rect x="360" y="238" width="40" height="40" fill="#2F6BFF" opacity="0.080"/><rect x="150" y="280" width="40" height="40" fill="#2F6BFF" opacity="0.280"/><text x="171.00" y="305.00" font-family="Inter, Arial, sans-serif" font-size="9" fill="#1F2933" text-anchor="middle" font-weight="400">0</text><rect x="192" y="280" width="40" height="40" fill="#2F6BFF" opacity="0.080"/><rect x="234" y="280" width="40" height="40" fill="#2F6BFF" opacity="0.080"/><rect x="276" y="280" width="40" height="40" fill="#2F6BFF" opacity="0.080"/><rect x="318" y="280" width="40" height="40" fill="#2F6BFF" opacity="0.080"/><rect x="360" y="280" width="40" height="40" fill="#2F6BFF" opacity="0.080"/></svg>
