<svg xmlns="http://www.w3.org/2000/svg" width="760" height="500" viewBox="0 0 760 500" role="img" aria-label="Completed compile time vs timeout elapsed"><rect width="100%" height="100%" fill="#FFFFFF"/><text x="24.00" y="30.00" font-family="Inter, Arial, sans-serif" font-size="17" fill="#1F2933" text-anchor="start" font-weight="700">Completed compile time vs timeout elapsed</text><line x1="76" y1="428.00" x2="726" y2="428.00" stroke="#D9DEE5"/><text x="68.00" y="432.00" font-family="Inter, Arial, sans-serif" font-size="10" fill="#1F2933" text-anchor="end" font-weight="400">0</text><line x1="76" y1="353.60" x2="726" y2="353.60" stroke="#D9DEE5"/><text x="68.00" y="357.60" font-family="Inter, Arial, sans-serif" font-size="10" fill="#1F2933" text-anchor="end" font-weight="400">4e+02</text><line x1="76" y1="279.20" x2="726" y2="279.20" stroke="#D9DEE5"/><text x="68.00" y="283.20" font-family="Inter, Arial, sans-serif" font-size="10" fill="#1F2933" text-anchor="end" font-weight="400">8e+02</text><line x1="76" y1="204.80" x2="726" y2="204.80" stroke="#D9DEE5"/><text x="68.00" y="208.80" font-family="Inter, Arial, sans-serif" font-size="10" fill="#1F2933" text-anchor="end" font-weight="400">1.2e+03</text><line x1="76" y1="130.40" x2="726" y2="130.40" stroke="#D9DEE5"/><text x="68.00" y="134.40" font-family="Inter, Arial, sans-serif" font-size="10" fill="#1F2933" text-anchor="end" font-weight="400">1.6e+03</text><line x1="76" y1="56.00" x2="726" y2="56.00" stroke="#D9DEE5"/><text x="68.00" y="60.00" font-family="Inter, Arial, sans-serif" font-size="10" fill="#1F2933" text-anchor="end" font-weight="400">2e+03</text><line x1="238.50" y1="428.00" x2="238.50" y2="316.97" stroke="#5C6670" stroke-width="2"/><rect x="193.50" y="427.22" width="90.00" height="1.00" fill="#008C7D" opacity="0.7" stroke="#1F2933"/><line x1="193.50" y1="427.67" x2="283.50" y2="427.67" stroke="#1F2933" stroke-width="2"/><text x="238.50" y="466.00" font-family="Inter, Arial, sans-serif" font-size="11" fill="#1F2933" text-anchor="middle" font-weight="400">completed compile (n=4770)</text><line x1="563.50" y1="426.14" x2="563.50" y2="93.19" stroke="#5C6670" stroke-width="2"/><rect x="518.50" y="316.39" width="90.00" height="1.00" fill="#008C7D" opacity="0.7" stroke="#1F2933"/><line x1="518.50" y1="316.39" x2="608.50" y2="316.39" stroke="#1F2933" stroke-width="2"/><text x="563.50" y="466.00" font-family="Inter, Arial, sans-serif" font-size="11" fill="#1F2933" text-anchor="middle" font-weight="400">timeout elapsed (n=190)</text><text x="24.00" y="242.00" font-family="Inter, Arial, sans-serif" font-size="12" fill="#1F2933" text-anchor="middle" font-weight="400">seconds</text></svg>
