<svg xmlns="http://www.w3.org/2000/svg" width="860" height="520" viewBox="0 0 860 520" role="img" aria-label="Schema size ECDF: completed vs timeout"><rect width="100%" height="100%" fill="#FFFFFF"/><text x="24.00" y="30.00" font-family="Inter, Arial, sans-serif" font-size="17" fill="#1F2933" text-anchor="start" font-weight="700">Schema size ECDF: completed vs timeout</text><line x1="78.00" y1="56" x2="78.00" y2="452" stroke="#D9DEE5"/><line x1="78" y1="56.00" x2="826" y2="56.00" stroke="#D9DEE5"/><line x1="227.60" y1="56" x2="227.60" y2="452" stroke="#D9DEE5"/><line x1="78" y1="135.20" x2="826" y2="135.20" stroke="#D9DEE5"/><line x1="377.20" y1="56" x2="377.20" y2="452" stroke="#D9DEE5"/><line x1="78" y1="214.40" x2="826" y2="214.40" stroke="#D9DEE5"/><line x1="526.80" y1="56" x2="526.80" y2="452" stroke="#D9DEE5"/><line x1="78" y1="293.60" x2="826" y2="293.60" stroke="#D9DEE5"/><line x1="676.40" y1="56" x2="676.40" y2="452" stroke="#D9DEE5"/><line x1="78" y1="372.80" x2="826" y2="372.80" stroke="#D9DEE5"/><line x1="826.00" y1="56" x2="826.00" y2="452" stroke="#D9DEE5"/><line x1="78" y1="452.00" x2="826" y2="452.00" stroke="#D9DEE5"/><polyline points="78.00,451.92 123.44,451.83 123.44,451.75 151.23,451.67 153.37,451.58 170.64,451.50 189.44,451.42 190.84,451.34 196.23,451.25 200.07,451.17 200.07,451.09 211.79,451.00 216.08,450.92 217.12,450.84 218.15,450.75 218.15,450.67 218.15,450.59 218.15,450.51 218.15,450.42 218.15,450.34 218.15,450.26 218.15,450.17 222.15,450.09 226.91,450.01 226.91,449.92 228.74,449.84 229.64,449.76 232.30,449.68 232.30,449.59 232.30,449.51 234.88,449.43 234.88,449.34 234.88,449.26 235.72,449.18 236.56,449.09 236.56,449.01 236.56,448.93 237.38,448.85 238.20,448.76 238.20,448.68 239.02,448.60 241.41,448.51 241.41,448.43 242.19,448.35 242.19,448.26 243.74,448.18 245.26,448.10 246.01,448.02 249.67,447.93 252.50,447.85 252.50,447.77 253.19,447.68 253.88,447.60 254.56,447.52 255.24,447.43 255.91,447.35 255.91,447.27 257.23,447.18 257.23,447.10 257.23,447.02 257.23,446.94 257.89,446.85 257.89,446.77 257.89,446.69 257.89,446.60 259.19,446.52 259.19,446.44 259.83,446.35 259.83,446.27 259.83,446.19 260.47,446.11 260.47,446.02 261.10,445.94 261.73,445.86 262.36,445.77 262.36,445.69 262.98,445.61 262.98,445.52 262.98,445.44 264.20,445.36 264.20,445.28 264.81,445.19 265.41,445.11 266.01,445.03 266.61,444.94 266.61,444.86 266.61,444.78 266.61,444.69 267.20,444.61 267.20,444.53 267.20,444.45 267.20,444.36 267.78,444.28 267.78,444.20 267.78,444.11 268.37,444.03 268.95,443.95 268.95,443.86 269.52,443.78 269.52,443.70 269.52,443.62 270.10,443.53 270.10,443.45 271.79,443.37 271.79,443.28 271.79,443.20 271.79,443.12 272.35,443.03 272.90,442.95 273.45,442.87 274.00,442.78 274.00,442.70 274.00,442.62 274.54,442.54 274.54,442.45 274.54,442.37 275.08,442.29 275.62,442.20 275.62,442.12 276.16,442.04 276.16,441.95 276.69,441.87 276.69,441.79 276.69,441.71 276.69,441.62 276.69,441.54 277.22,441.46 277.74,441.37 277.74,441.29 277.74,441.21 277.74,441.12 277.74,441.04 278.26,440.96 278.26,440.88 278.26,440.79 278.78,440.71 279.30,440.63 279.30,440.54 279.30,440.46 279.30,440.38 279.30,440.29 279.30,440.21 279.81,440.13 280.32,440.05 280.32,439.96 280.32,439.88 280.32,439.80 280.32,439.71 280.32,439.63 280.83,439.55 281.83,439.46 281.83,439.38 282.82,439.30 282.82,439.22 283.32,439.13 283.32,439.05 283.81,438.97 283.81,438.88 283.81,438.80 283.81,438.72 284.30,438.63 284.78,438.55 284.78,438.47 284.78,438.38 284.78,438.30 284.78,438.22 285.26,438.14 285.74,438.05 285.74,437.97 286.69,437.89 286.69,437.80 286.69,437.72 286.69,437.64 286.69,437.55 287.16,437.47 287.16,437.39 287.16,437.31 287.16,437.22 287.16,437.14 287.63,437.06 287.63,436.97 287.63,436.89 287.63,436.81 288.10,436.72 288.10,436.64 288.10,436.56 288.10,436.48 288.57,436.39 288.57,436.31 288.57,436.23 289.03,436.14 289.03,436.06 289.03,435.98 289.49,435.89 289.49,435.81 289.94,435.73 289.94,435.65 289.94,435.56 290.40,435.48 290.40,435.40 290.40,435.31 290.40,435.23 290.40,435.15 290.85,435.06 290.85,434.98 291.30,434.90 291.30,434.82 291.30,434.73 291.75,434.65 291.75,434.57 292.20,434.48 292.20,434.40 292.20,434.32 292.20,434.23 293.08,434.15 293.08,434.07 293.08,433.98 293.08,433.90 293.96,433.82 293.96,433.74 294.39,433.65 294.83,433.57 294.83,433.49 294.83,433.40 295.26,433.32 295.26,433.24 295.26,433.15 295.69,433.07 295.69,432.99 295.69,432.91 295.69,432.82 295.69,432.74 296.11,432.66 296.11,432.57 296.54,432.49 296.96,432.41 296.96,432.32 296.96,432.24 297.38,432.16 297.38,432.08 297.38,431.99 297.80,431.91 297.80,431.83 297.80,431.74 297.80,431.66 298.22,431.58 298.22,431.49 298.22,431.41 298.63,431.33 298.63,431.25 298.63,431.16 299.04,431.08 299.04,431.00 299.04,430.91 299.04,430.83 299.04,430.75 299.04,430.66 299.45,430.58 299.45,430.50 299.86,430.42 299.86,430.33 299.86,430.25 300.27,430.17 300.27,430.08 300.68,430.00 300.68,429.92 301.08,429.83 301.08,429.75 301.08,429.67 301.08,429.58 301.08,429.50 301.08,429.42 301.08,429.34 301.48,429.25 301.48,429.17 301.48,429.09 301.48,429.00 301.88,428.92 301.88,428.84 302.28,428.75 302.28,428.67 302.28,428.59 302.67,428.51 302.67,428.42 302.67,428.34 302.67,428.26 302.67,428.17 303.07,428.09 303.07,428.01 303.46,427.92 303.46,427.84 303.85,427.76 303.85,427.68 304.24,427.59 304.24,427.51 304.24,427.43 304.63,427.34 304.63,427.26 304.63,427.18 305.02,427.09 305.02,427.01 305.40,426.93 305.40,426.85 305.40,426.76 305.40,426.68 305.78,426.60 305.78,426.51 305.78,426.43 305.78,426.35 305.78,426.26 305.78,426.18 305.78,426.10 306.16,426.02 306.16,425.93 306.16,425.85 306.16,425.77 306.16,425.68 306.16,425.60 306.54,425.52 306.54,425.43 306.92,425.35 306.92,425.27 306.92,425.18 306.92,425.10 307.30,425.02 307.30,424.94 307.30,424.85 307.30,424.77 307.30,424.69 307.67,424.60 307.67,424.52 307.67,424.44 307.67,424.35 307.67,424.27 308.04,424.19 308.04,424.11 308.04,424.02 308.04,423.94 308.04,423.86 308.42,423.77 308.42,423.69 308.42,423.61 308.42,423.52 308.42,423.44 308.42,423.36 308.79,423.28 308.79,423.19 308.79,423.11 308.79,423.03 308.79,422.94 309.15,422.86 309.52,422.78 309.89,422.69 309.89,422.61 309.89,422.53 309.89,422.45 310.61,422.36 310.97,422.28 310.97,422.20 311.33,422.11 311.33,422.03 311.33,421.95 311.33,421.86 311.69,421.78 311.69,421.70 312.05,421.62 312.05,421.53 312.05,421.45 312.05,421.37 312.05,421.28 312.05,421.20 312.05,421.12 312.40,421.03 312.40,420.95 312.40,420.87 312.40,420.78 312.76,420.70 312.76,420.62 312.76,420.54 313.11,420.45 313.11,420.37 313.11,420.29 313.11,420.20 313.46,420.12 313.46,420.04 313.46,419.95 313.46,419.87 313.46,419.79 313.46,419.71 313.81,419.62 313.81,419.54 313.81,419.46 313.81,419.37 313.81,419.29 313.81,419.21 314.16,419.12 314.16,419.04 314.16,418.96 314.16,418.88 314.16,418.79 314.50,418.71 314.50,418.63 314.50,418.54 314.50,418.46 314.85,418.38 314.85,418.29 314.85,418.21 314.85,418.13 314.85,418.05 315.19,417.96 315.19,417.88 315.19,417.80 315.19,417.71 315.54,417.63 315.54,417.55 315.54,417.46 315.54,417.38 315.54,417.30 315.54,417.22 315.88,417.13 315.88,417.05 315.88,416.97 315.88,416.88 316.22,416.80 316.22,416.72 316.22,416.63 316.22,416.55 316.22,416.47 316.22,416.38 316.56,416.30 316.89,416.22 316.89,416.14 316.89,416.05 316.89,415.97 316.89,415.89 316.89,415.80 316.89,415.72 316.89,415.64 316.89,415.55 317.23,415.47 317.23,415.39 317.23,415.31 317.23,415.22 317.23,415.14 317.23,415.06 317.56,414.97 317.56,414.89 317.56,414.81 317.56,414.72 317.90,414.64 317.90,414.56 317.90,414.48 318.23,414.39 318.23,414.31 318.23,414.23 318.56,414.14 318.56,414.06 318.56,413.98 318.56,413.89 318.89,413.81 318.89,413.73 319.22,413.65 319.22,413.56 319.22,413.48 319.22,413.40 319.55,413.31 319.55,413.23 319.55,413.15 319.88,413.06 319.88,412.98 319.88,412.90 319.88,412.82 319.88,412.73 319.88,412.65 320.20,412.57 320.52,412.48 320.52,412.40 320.52,412.32 320.52,412.23 320.52,412.15 320.52,412.07 320.52,411.98 320.85,411.90 320.85,411.82 320.85,411.74 320.85,411.65 321.17,411.57 321.17,411.49 321.17,411.40 321.17,411.32 321.17,411.24 321.17,411.15 321.49,411.07 321.49,410.99 321.49,410.91 321.81,410.82 321.81,410.74 321.81,410.66 321.81,410.57 322.13,410.49 322.13,410.41 322.13,410.32 322.13,410.24 322.13,410.16 322.13,410.08 322.44,409.99 322.44,409.91 322.76,409.83 322.76,409.74 322.76,409.66 322.76,409.58 322.76,409.49 323.08,409.41 323.08,409.33 323.08,409.25 323.08,409.16 323.08,409.08 323.08,409.00 323.39,408.91 323.39,408.83 323.39,408.75 323.39,408.66 323.39,408.58 323.39,408.50 323.70,408.42 323.70,408.33 324.01,408.25 324.01,408.17 324.01,408.08 324.01,408.00 324.01,407.92 324.32,407.83 324.32,407.75 324.32,407.67 324.32,407.58 324.32,407.50 324.32,407.42 324.63,407.34 324.63,407.25 324.63,407.17 324.63,407.09 324.94,407.00 324.94,406.92 324.94,406.84 325.25,406.75 325.25,406.67 325.56,406.59 325.56,406.51 325.56,406.42 325.86,406.34 325.86,406.26 325.86,406.17 325.86,406.09 326.16,406.01 326.16,405.92 326.16,405.84 326.16,405.76 326.16,405.68 326.47,405.59 326.47,405.51 326.77,405.43 326.77,405.34 326.77,405.26 327.07,405.18 327.07,405.09 327.07,405.01 327.07,404.93 327.37,404.85 327.37,404.76 327.37,404.68 327.37,404.60 327.37,404.51 327.67,404.43 327.67,404.35 327.67,404.26 327.67,404.18 327.67,404.10 327.67,404.02 327.97,403.93 327.97,403.85 327.97,403.77 328.26,403.68 328.26,403.60 328.26,403.52 328.26,403.43 328.26,403.35 328.56,403.27 328.56,403.18 328.56,403.10 328.56,403.02 328.56,402.94 328.86,402.85 328.86,402.77 328.86,402.69 329.15,402.60 329.15,402.52 329.15,402.44 329.15,402.35 329.15,402.27 329.15,402.19 329.44,402.11 329.44,402.02 329.44,401.94 329.74,401.86 330.03,401.77 330.03,401.69 330.03,401.61 330.32,401.52 330.32,401.44 330.32,401.36 330.61,401.28 330.61,401.19 330.89,401.11 330.89,401.03 330.89,400.94 330.89,400.86 330.89,400.78 331.18,400.69 331.18,400.61 331.18,400.53 331.18,400.45 331.47,400.36 331.47,400.28 331.47,400.20 331.47,400.11 331.47,400.03 331.75,399.95 331.75,399.86 331.75,399.78 331.75,399.70 331.75,399.62 331.75,399.53 331.75,399.45 332.04,399.37 332.32,399.28 332.32,399.20 332.32,399.12 332.32,399.03 332.60,398.95 332.60,398.87 332.60,398.78 332.60,398.70 332.89,398.62 332.89,398.54 332.89,398.45 332.89,398.37 332.89,398.29 332.89,398.20 332.89,398.12 333.17,398.04 333.17,397.95 333.17,397.87 333.17,397.79 333.17,397.71 333.45,397.62 333.45,397.54 333.45,397.46 333.45,397.37 333.45,397.29 333.73,397.21 333.73,397.12 333.73,397.04 333.73,396.96 334.01,396.88 334.01,396.79 334.01,396.71 334.01,396.63 334.01,396.54 334.28,396.46 334.28,396.38 334.28,396.29 334.28,396.21 334.28,396.13 334.56,396.05 334.56,395.96 334.84,395.88 334.84,395.80 334.84,395.71 335.11,395.63 335.11,395.55 335.11,395.46 335.11,395.38 335.39,395.30 335.39,395.22 335.39,395.13 335.39,395.05 335.66,394.97 335.66,394.88 335.66,394.80 335.66,394.72 335.66,394.63 335.66,394.55 335.66,394.47 335.66,394.38 335.93,394.30 335.93,394.22 335.93,394.14 336.20,394.05 336.20,393.97 336.20,393.89 336.20,393.80 336.47,393.72 336.47,393.64 336.47,393.55 336.47,393.47 336.47,393.39 336.74,393.31 336.74,393.22 336.74,393.14 337.01,393.06 337.01,392.97 337.01,392.89 337.01,392.81 337.28,392.72 337.28,392.64 337.28,392.56 337.28,392.48 337.55,392.39 337.55,392.31 337.55,392.23 337.55,392.14 337.81,392.06 337.81,391.98 337.81,391.89 338.08,391.81 338.35,391.73 338.35,391.65 338.61,391.56 338.61,391.48 338.61,391.40 338.87,391.31 338.87,391.23 338.87,391.15 338.87,391.06 338.87,390.98 338.87,390.90 339.14,390.82 339.14,390.73 339.40,390.65 339.40,390.57 339.40,390.48 339.40,390.40 339.66,390.32 339.66,390.23 339.66,390.15 339.66,390.07 339.66,389.98 339.66,389.90 339.92,389.82 339.92,389.74 339.92,389.65 339.92,389.57 339.92,389.49 339.92,389.40 340.18,389.32 340.18,389.24 340.18,389.15 340.18,389.07 340.18,388.99 340.18,388.91 340.44,388.82 340.44,388.74 340.44,388.66 340.44,388.57 340.44,388.49 340.44,388.41 340.44,388.32 340.44,388.24 340.44,388.16 340.44,388.08 340.70,387.99 340.70,387.91 340.70,387.83 340.70,387.74 340.70,387.66 340.95,387.58 340.95,387.49 340.95,387.41 340.95,387.33 340.95,387.25 341.21,387.16 341.21,387.08 341.21,387.00 341.21,386.91 341.47,386.83 341.47,386.75 341.72,386.66 341.72,386.58 341.72,386.50 341.72,386.42 341.98,386.33 341.98,386.25 341.98,386.17 341.98,386.08 341.98,386.00 342.23,385.92 342.23,385.83 342.23,385.75 342.23,385.67 342.23,385.58 342.23,385.50 342.48,385.42 342.48,385.34 342.48,385.25 342.48,385.17 342.48,385.09 342.74,385.00 342.74,384.92 342.74,384.84 342.99,384.75 342.99,384.67 342.99,384.59 342.99,384.51 343.24,384.42 343.24,384.34 343.24,384.26 343.24,384.17 343.49,384.09 343.49,384.01 343.49,383.92 343.74,383.84 343.74,383.76 343.74,383.68 343.74,383.59 343.74,383.51 343.99,383.43 343.99,383.34 343.99,383.26 344.24,383.18 344.24,383.09 344.24,383.01 344.24,382.93 344.24,382.85 344.48,382.76 344.48,382.68 344.48,382.60 344.48,382.51 344.48,382.43 344.98,382.35 344.98,382.26 345.22,382.18 345.22,382.10 345.22,382.02 345.22,381.93 345.47,381.85 345.47,381.77 345.47,381.68 345.71,381.60 345.71,381.52 345.71,381.43 345.71,381.35 345.71,381.27 345.71,381.18 345.95,381.10 345.95,381.02 345.95,380.94 345.95,380.85 345.95,380.77 346.20,380.69 346.44,380.60 346.44,380.52 346.68,380.44 346.68,380.35 346.68,380.27 346.68,380.19 346.92,380.11 346.92,380.02 346.92,379.94 346.92,379.86 347.16,379.77 347.16,379.69 347.16,379.61 347.40,379.52 347.40,379.44 347.40,379.36 347.40,379.28 347.40,379.19 347.64,379.11 347.64,379.03 347.64,378.94 347.88,378.86 347.88,378.78 347.88,378.69 348.11,378.61 348.11,378.53 348.35,378.45 348.35,378.36 348.35,378.28 348.35,378.20 348.59,378.11 348.59,378.03 348.59,377.95 348.59,377.86 348.82,377.78 348.82,377.70 349.06,377.62 349.06,377.53 349.06,377.45 349.06,377.37 349.06,377.28 349.06,377.20 349.29,377.12 349.29,377.03 349.29,376.95 349.29,376.87 349.53,376.78 349.53,376.70 349.53,376.62 349.53,376.54 349.53,376.45 349.53,376.37 349.76,376.29 349.76,376.20 349.76,376.12 349.99,376.04 349.99,375.95 349.99,375.87 350.22,375.79 350.22,375.71 350.22,375.62 350.22,375.54 350.22,375.46 350.22,375.37 350.46,375.29 350.46,375.21 350.46,375.12 350.69,375.04 350.69,374.96 350.69,374.88 350.69,374.79 350.92,374.71 350.92,374.63 350.92,374.54 351.15,374.46 351.15,374.38 351.15,374.29 351.15,374.21 351.15,374.13 351.37,374.05 351.37,373.96 351.37,373.88 351.37,373.80 351.37,373.71 351.60,373.63 351.60,373.55 351.60,373.46 351.60,373.38 351.60,373.30 351.83,373.22 351.83,373.13 351.83,373.05 351.83,372.97 352.06,372.88 352.06,372.80 352.28,372.72 352.28,372.63 352.28,372.55 352.51,372.47 352.51,372.38 352.51,372.30 352.51,372.22 352.51,372.14 352.51,372.05 352.51,371.97 352.74,371.89 352.74,371.80 352.74,371.72 352.74,371.64 352.74,371.55 352.96,371.47 352.96,371.39 352.96,371.31 353.19,371.22 353.19,371.14 353.19,371.06 353.19,370.97 353.19,370.89 353.41,370.81 353.41,370.72 353.41,370.64 353.41,370.56 353.41,370.48 353.41,370.39 353.41,370.31 353.63,370.23 353.63,370.14 353.63,370.06 353.86,369.98 353.86,369.89 353.86,369.81 353.86,369.73 353.86,369.65 353.86,369.56 353.86,369.48 354.08,369.40 354.08,369.31 354.08,369.23 354.08,369.15 354.08,369.06 354.08,368.98 354.30,368.90 354.30,368.82 354.30,368.73 354.52,368.65 354.52,368.57 354.74,368.48 354.74,368.40 354.96,368.32 354.96,368.23 354.96,368.15 354.96,368.07 354.96,367.98 355.18,367.90 355.18,367.82 355.18,367.74 355.40,367.65 355.40,367.57 355.62,367.49 355.62,367.40 355.62,367.32 355.62,367.24 355.83,367.15 356.05,367.07 356.05,366.99 356.05,366.91 356.27,366.82 356.27,366.74 356.27,366.66 356.27,366.57 356.27,366.49 356.48,366.41 356.48,366.32 356.48,366.24 356.48,366.16 356.48,366.08 356.70,365.99 356.70,365.91 356.92,365.83 356.92,365.74 356.92,365.66 356.92,365.58 356.92,365.49 357.13,365.41 357.13,365.33 357.13,365.25 357.13,365.16 357.13,365.08 357.34,365.00 357.34,364.91 357.34,364.83 357.34,364.75 357.34,364.66 357.56,364.58 357.56,364.50 357.56,364.42 357.77,364.33 357.77,364.25 357.77,364.17 357.77,364.08 357.77,364.00 357.98,363.92 357.98,363.83 357.98,363.75 357.98,363.67 357.98,363.58 358.20,363.50 358.20,363.42 358.41,363.34 358.41,363.25 358.41,363.17 358.41,363.09 358.62,363.00 358.62,362.92 358.62,362.84 358.62,362.75 358.62,362.67 358.62,362.59 358.62,362.51 358.83,362.42 358.83,362.34 358.83,362.26 358.83,362.17 358.83,362.09 358.83,362.01 358.83,361.92 358.83,361.84 359.04,361.76 359.04,361.68 359.04,361.59 359.04,361.51 359.04,361.43 359.04,361.34 359.04,361.26 359.25,361.18 359.46,361.09 359.67,361.01 359.67,360.93 359.67,360.85 359.87,360.76 359.87,360.68 359.87,360.60 360.08,360.51 360.08,360.43 360.08,360.35 360.08,360.26 360.08,360.18 360.08,360.10 360.29,360.02 360.29,359.93 360.29,359.85 360.29,359.77 360.29,359.68 360.29,359.60 360.50,359.52 360.50,359.43 360.50,359.35 360.70,359.27 360.70,359.18 360.70,359.10 360.70,359.02 360.70,358.94 360.70,358.85 360.91,358.77 360.91,358.69 360.91,358.60 361.11,358.52 361.32,358.44 361.32,358.35 361.32,358.27 361.32,358.19 361.32,358.11 361.32,358.02 361.52,357.94 361.52,357.86 361.52,357.77 361.52,357.69 361.52,357.61 361.52,357.52 361.52,357.44 361.73,357.36 361.73,357.28 361.73,357.19 361.73,357.11 361.73,357.03 361.93,356.94 361.93,356.86 362.13,356.78 362.13,356.69 362.13,356.61 362.13,356.53 362.54,356.45 362.74,356.36 362.74,356.28 362.74,356.20 362.74,356.11 363.14,356.03 363.14,355.95 363.14,355.86 363.34,355.78 363.34,355.70 363.34,355.62 363.34,355.53 363.34,355.45 363.54,355.37 363.74,355.28 363.94,355.20 363.94,355.12 363.94,355.03 364.13,354.95 364.13,354.87 364.13,354.78 364.13,354.70 364.13,354.62 364.13,354.54 364.13,354.45 364.13,354.37 364.33,354.29 364.33,354.20 364.53,354.12 364.53,354.04 364.73,353.95 364.73,353.87 364.73,353.79 364.73,353.71 364.73,353.62 364.92,353.54 364.92,353.46 365.12,353.37 365.12,353.29 365.12,353.21 365.32,353.12 365.32,353.04 365.32,352.96 365.32,352.88 365.32,352.79 365.51,352.71 365.51,352.63 365.51,352.54 365.51,352.46 365.51,352.38 365.71,352.29 365.71,352.21 365.71,352.13 365.90,352.05 365.90,351.96 365.90,351.88 365.90,351.80 366.09,351.71 366.09,351.63 366.09,351.55 366.09,351.46 366.09,351.38 366.09,351.30 366.09,351.22 366.09,351.13 366.29,351.05 366.29,350.97 366.29,350.88 366.29,350.80 366.29,350.72 366.29,350.63 366.48,350.55 366.48,350.47 366.48,350.38 366.48,350.30 366.67,350.22 366.67,350.14 366.87,350.05 366.87,349.97 366.87,349.89 366.87,349.80 367.06,349.72 367.06,349.64 367.06,349.55 367.06,349.47 367.06,349.39 367.25,349.31 367.25,349.22 367.44,349.14 367.44,349.06 367.44,348.97 367.63,348.89 367.63,348.81 367.63,348.72 367.63,348.64 367.63,348.56 367.63,348.48 367.82,348.39 367.82,348.31 367.82,348.23 367.82,348.14 368.01,348.06 368.01,347.98 368.01,347.89 368.01,347.81 368.01,347.73 368.01,347.65 368.01,347.56 368.01,347.48 368.01,347.40 368.20,347.31 368.20,347.23 368.20,347.15 368.20,347.06 368.39,346.98 368.39,346.90 368.39,346.82 368.58,346.73 368.58,346.65 368.58,346.57 368.58,346.48 368.58,346.40 368.58,346.32 368.77,346.23 368.77,346.15 368.77,346.07 368.77,345.98 368.95,345.90 368.95,345.82 369.14,345.74 369.14,345.65 369.33,345.57 369.33,345.49 369.33,345.40 369.52,345.32 369.52,345.24 369.70,345.15 369.70,345.07 369.70,344.99 369.70,344.91 369.70,344.82 369.70,344.74 369.89,344.66 369.89,344.57 369.89,344.49 369.89,344.41 369.89,344.32 369.89,344.24 369.89,344.16 369.89,344.08 370.07,343.99 370.07,343.91 370.07,343.83 370.07,343.74 370.26,343.66 370.26,343.58 370.26,343.49 370.44,343.41 370.44,343.33 370.44,343.25 370.44,343.16 370.44,343.08 370.63,343.00 370.63,342.91 370.63,342.83 370.81,342.75 370.81,342.66 370.81,342.58 371.00,342.50 371.00,342.42 371.18,342.33 371.18,342.25 371.18,342.17 371.36,342.08 371.36,342.00 371.36,341.92 371.36,341.83 371.54,341.75 371.54,341.67 371.54,341.58 371.54,341.50 371.73,341.42 371.73,341.34 371.73,341.25 371.73,341.17 371.91,341.09 371.91,341.00 371.91,340.92 372.09,340.84 372.09,340.75 372.27,340.67 372.27,340.59 372.27,340.51 372.45,340.42 372.45,340.34 372.45,340.26 372.63,340.17 372.63,340.09 372.63,340.01 372.63,339.92 372.81,339.84 372.81,339.76 372.81,339.68 372.81,339.59 372.81,339.51 372.81,339.43 372.81,339.34 372.99,339.26 372.99,339.18 373.17,339.09 373.17,339.01 373.35,338.93 373.35,338.85 373.35,338.76 373.35,338.68 373.35,338.60 373.35,338.51 373.35,338.43 373.35,338.35 373.53,338.26 373.53,338.18 373.53,338.10 373.70,338.02 373.70,337.93 373.70,337.85 373.70,337.77 373.70,337.68 373.88,337.60 373.88,337.52 373.88,337.43 373.88,337.35 374.06,337.27 374.06,337.18 374.06,337.10 374.06,337.02 374.24,336.94 374.24,336.85 374.24,336.77 374.24,336.69 374.41,336.60 374.41,336.52 374.41,336.44 374.41,336.35 374.41,336.27 374.59,336.19 374.59,336.11 374.59,336.02 374.59,335.94 374.59,335.86 374.77,335.77 374.77,335.69 374.77,335.61 374.77,335.52 374.94,335.44 374.94,335.36 374.94,335.28 374.94,335.19 375.12,335.11 375.12,335.03 375.12,334.94 375.29,334.86 375.29,334.78 375.29,334.69 375.29,334.61 375.29,334.53 375.29,334.45 375.29,334.36 375.29,334.28 375.29,334.20 375.47,334.11 375.64,334.03 375.64,333.95 375.81,333.86 375.81,333.78 375.81,333.70 375.99,333.62 375.99,333.53 375.99,333.45 375.99,333.37 376.16,333.28 376.16,333.20 376.16,333.12 376.16,333.03 376.33,332.95 376.33,332.87 376.33,332.78 376.51,332.70 376.51,332.62 376.51,332.54 376.51,332.45 376.51,332.37 376.51,332.29 376.51,332.20 376.51,332.12 376.68,332.04 376.68,331.95 376.68,331.87 376.85,331.79 376.85,331.71 376.85,331.62 376.85,331.54 377.02,331.46 377.02,331.37 377.19,331.29 377.19,331.21 377.19,331.12 377.36,331.04 377.36,330.96 377.36,330.88 377.36,330.79 377.54,330.71 377.54,330.63 377.54,330.54 377.54,330.46 377.54,330.38 377.54,330.29 377.54,330.21 377.71,330.13 377.71,330.05 377.71,329.96 377.71,329.88 377.71,329.80 377.71,329.71 377.88,329.63 377.88,329.55 377.88,329.46 377.88,329.38 377.88,329.30 377.88,329.22 377.88,329.13 378.05,329.05 378.05,328.97 378.05,328.88 378.05,328.80 378.21,328.72 378.21,328.63 378.55,328.55 378.55,328.47 378.55,328.38 378.72,328.30 378.72,328.22 378.72,328.14 378.72,328.05 378.72,327.97 378.72,327.89 378.89,327.80 378.89,327.72 378.89,327.64 378.89,327.55 378.89,327.47 379.06,327.39 379.06,327.31 379.06,327.22 379.06,327.14 379.22,327.06 379.22,326.97 379.22,326.89 379.39,326.81 379.56,326.72 379.56,326.64 379.56,326.56 379.56,326.48 379.56,326.39 379.56,326.31 379.56,326.23 379.56,326.14 379.72,326.06 379.72,325.98 379.72,325.89 379.72,325.81 379.72,325.73 379.89,325.65 379.89,325.56 379.89,325.48 379.89,325.40 380.06,325.31 380.06,325.23 380.06,325.15 380.06,325.06 380.06,324.98 380.22,324.90 380.22,324.82 380.22,324.73 380.22,324.65 380.39,324.57 380.39,324.48 380.55,324.40 380.72,324.32 380.88,324.23 380.88,324.15 380.88,324.07 381.04,323.98 381.04,323.90 381.04,323.82 381.21,323.74 381.21,323.65 381.21,323.57 381.21,323.49 381.21,323.40 381.37,323.32 381.37,323.24 381.37,323.15 381.37,323.07 381.37,322.99 381.37,322.91 381.53,322.82 381.53,322.74 381.53,322.66 381.53,322.57 381.53,322.49 381.70,322.41 381.70,322.32 381.70,322.24 381.70,322.16 381.70,322.08 381.86,321.99 381.86,321.91 381.86,321.83 382.02,321.74 382.02,321.66 382.02,321.58 382.02,321.49 382.02,321.41 382.02,321.33 382.18,321.25 382.18,321.16 382.18,321.08 382.18,321.00 382.18,320.91 382.18,320.83 382.34,320.75 382.34,320.66 382.34,320.58 382.34,320.50 382.34,320.42 382.34,320.33 382.34,320.25 382.51,320.17 382.51,320.08 382.51,320.00 382.51,319.92 382.67,319.83 382.67,319.75 382.83,319.67 382.83,319.58 382.83,319.50 382.83,319.42 382.83,319.34 382.99,319.25 382.99,319.17 383.31,319.09 383.31,319.00 383.31,318.92 383.47,318.84 383.63,318.75 383.63,318.67 383.63,318.59 383.63,318.51 383.63,318.42 383.63,318.34 383.79,318.26 383.79,318.17 383.79,318.09 383.79,318.01 383.94,317.92 383.94,317.84 383.94,317.76 383.94,317.68 384.10,317.59 384.10,317.51 384.10,317.43 384.26,317.34 384.26,317.26 384.26,317.18 384.26,317.09 384.26,317.01 384.42,316.93 384.42,316.85 384.58,316.76 384.58,316.68 384.58,316.60 384.58,316.51 384.73,316.43 384.73,316.35 384.73,316.26 384.73,316.18 384.73,316.10 384.89,316.02 384.89,315.93 384.89,315.85 384.89,315.77 384.89,315.68 384.89,315.60 385.05,315.52 385.20,315.43 385.20,315.35 385.20,315.27 385.20,315.18 385.36,315.10 385.36,315.02 385.52,314.94 385.67,314.85 385.67,314.77 385.67,314.69 385.67,314.60 385.67,314.52 385.83,314.44 385.83,314.35 385.83,314.27 385.98,314.19 385.98,314.11 386.14,314.02 386.14,313.94 386.29,313.86 386.29,313.77 386.29,313.69 386.29,313.61 386.45,313.52 386.45,313.44 386.45,313.36 386.45,313.28 386.45,313.19 386.60,313.11 386.60,313.03 386.60,312.94 386.75,312.86 386.75,312.78 386.75,312.69 386.75,312.61 386.91,312.53 386.91,312.45 387.06,312.36 387.06,312.28 387.06,312.20 387.06,312.11 387.21,312.03 387.21,311.95 387.21,311.86 387.37,311.78 387.37,311.70 387.37,311.62 387.37,311.53 387.37,311.45 387.52,311.37 387.67,311.28 387.67,311.20 387.67,311.12 387.82,311.03 387.82,310.95 387.82,310.87 387.82,310.78 387.97,310.70 387.97,310.62 387.97,310.54 388.13,310.45 388.28,310.37 388.28,310.29 388.28,310.20 388.28,310.12 388.43,310.04 388.43,309.95 388.43,309.87 388.43,309.79 388.43,309.71 388.58,309.62 388.58,309.54 388.58,309.46 388.58,309.37 388.58,309.29 388.73,309.21 388.88,309.12 388.88,309.04 388.88,308.96 389.03,308.88 389.18,308.79 389.18,308.71 389.18,308.63 389.18,308.54 389.33,308.46 389.33,308.38 389.33,308.29 389.48,308.21 389.48,308.13 389.48,308.05 389.48,307.96 389.48,307.88 389.48,307.80 389.48,307.71 389.63,307.63 389.63,307.55 389.63,307.46 389.63,307.38 389.77,307.30 389.92,307.22 389.92,307.13 389.92,307.05 389.92,306.97 389.92,306.88 389.92,306.80 389.92,306.72 389.92,306.63 390.07,306.55 390.07,306.47 390.07,306.38 390.22,306.30 390.22,306.22 390.22,306.14 390.22,306.05 390.22,305.97 390.22,305.89 390.37,305.80 390.51,305.72 390.66,305.64 390.66,305.55 390.66,305.47 390.66,305.39 390.66,305.31 390.81,305.22 390.81,305.14 390.81,305.06 390.96,304.97 390.96,304.89 391.10,304.81 391.10,304.72 391.10,304.64 391.10,304.56 391.25,304.48 391.25,304.39 391.25,304.31 391.25,304.23 391.39,304.14 391.39,304.06 391.39,303.98 391.39,303.89 391.54,303.81 391.54,303.73 391.54,303.65 391.54,303.56 391.54,303.48 391.54,303.40 391.54,303.31 391.68,303.23 391.83,303.15 391.98,303.06 391.98,302.98 391.98,302.90 391.98,302.82 391.98,302.73 392.12,302.65 392.12,302.57 392.12,302.48 392.12,302.40 392.12,302.32 392.26,302.23 392.26,302.15 392.41,302.07 392.41,301.98 392.41,301.90 392.41,301.82 392.41,301.74 392.55,301.65 392.55,301.57 392.55,301.49 392.55,301.40 392.70,301.32 392.70,301.24 392.70,301.15 392.84,301.07 392.84,300.99 392.98,300.91 392.98,300.82 392.98,300.74 393.27,300.66 393.27,300.57 393.41,300.49 393.41,300.41 393.41,300.32 393.55,300.24 393.70,300.16 393.70,300.08 393.70,299.99 393.70,299.91 393.70,299.83 393.84,299.74 393.98,299.66 393.98,299.58 393.98,299.49 393.98,299.41 394.12,299.33 394.12,299.25 394.12,299.16 394.26,299.08 394.26,299.00 394.40,298.91 394.55,298.83 394.69,298.75 394.69,298.66 394.69,298.58 394.83,298.50 394.83,298.42 394.83,298.33 394.97,298.25 394.97,298.17 394.97,298.08 394.97,298.00 394.97,297.92 394.97,297.83 395.11,297.75 395.25,297.67 395.25,297.58 395.25,297.50 395.25,297.42 395.25,297.34 395.25,297.25 395.39,297.17 395.39,297.09 395.39,297.00 395.53,296.92 395.80,296.84 395.80,296.75 395.80,296.67 395.80,296.59 395.94,296.51 396.08,296.42 396.22,296.34 396.22,296.26 396.22,296.17 396.36,296.09 396.36,296.01 396.49,295.92 396.49,295.84 396.49,295.76 396.49,295.68 396.49,295.59 396.49,295.51 396.63,295.43 396.77,295.34 396.77,295.26 396.77,295.18 396.77,295.09 396.91,295.01 396.91,294.93 397.04,294.85 397.04,294.76 397.18,294.68 397.32,294.60 397.32,294.51 397.45,294.43 397.45,294.35 397.73,294.26 398.00,294.18 398.13,294.10 398.13,294.02 398.13,293.93 398.27,293.85 398.27,293.77 398.27,293.68 398.27,293.60 398.40,293.52 398.40,293.43 398.54,293.35 398.67,293.27 398.67,293.18 398.67,293.10 398.67,293.02 398.80,292.94 398.80,292.85 398.94,292.77 399.07,292.69 399.21,292.60 399.47,292.52 399.47,292.44 399.47,292.35 399.61,292.27 399.61,292.19 399.61,292.11 399.61,292.02 399.74,291.94 399.74,291.86 399.74,291.77 399.74,291.69 399.74,291.61 399.87,291.52 399.87,291.44 399.87,291.36 399.87,291.28 400.00,291.19 400.00,291.11 400.14,291.03 400.14,290.94 400.14,290.86 400.14,290.78 400.14,290.69 400.27,290.61 400.27,290.53 400.40,290.45 400.53,290.36 400.53,290.28 400.53,290.20 400.53,290.11 400.53,290.03 400.80,289.95 400.80,289.86 400.93,289.78 400.93,289.70 400.93,289.62 400.93,289.53 400.93,289.45 401.06,289.37 401.06,289.28 401.06,289.20 401.06,289.12 401.06,289.03 401.06,288.95 401.06,288.87 401.19,288.78 401.19,288.70 401.19,288.62 401.45,288.54 401.45,288.45 401.45,288.37 401.58,288.29 401.58,288.20 401.71,288.12 401.71,288.04 401.71,287.95 401.71,287.87 401.71,287.79 401.71,287.71 401.84,287.62 401.84,287.54 401.84,287.46 401.97,287.37 401.97,287.29 402.10,287.21 402.23,287.12 402.23,287.04 402.48,286.96 402.48,286.88 402.48,286.79 402.48,286.71 402.74,286.63 402.74,286.54 402.74,286.46 402.74,286.38 402.87,286.29 403.00,286.21 403.00,286.13 403.00,286.05 403.00,285.96 403.13,285.88 403.13,285.80 403.13,285.71 403.13,285.63 403.25,285.55 403.25,285.46 403.25,285.38 403.38,285.30 403.51,285.22 403.51,285.13 403.64,285.05 403.64,284.97 403.76,284.88 403.89,284.80 403.89,284.72 403.89,284.63 403.89,284.55 403.89,284.47 403.89,284.38 403.89,284.30 404.02,284.22 404.02,284.14 404.02,284.05 404.02,283.97 404.02,283.89 404.14,283.80 404.14,283.72 404.14,283.64 404.14,283.55 404.27,283.47 404.27,283.39 404.27,283.31 404.27,283.22 404.27,283.14 404.27,283.06 404.39,282.97 404.52,282.89 404.52,282.81 404.52,282.72 404.65,282.64 404.77,282.56 404.90,282.48 404.90,282.39 405.02,282.31 405.02,282.23 405.02,282.14 405.15,282.06 405.15,281.98 405.27,281.89 405.27,281.81 405.40,281.73 405.52,281.65 405.52,281.56 405.65,281.48 405.77,281.40 405.77,281.31 405.89,281.23 405.89,281.15 405.89,281.06 405.89,280.98 405.89,280.90 406.02,280.82 406.14,280.73 406.14,280.65 406.14,280.57 406.27,280.48 406.27,280.40 406.27,280.32 406.39,280.23 406.39,280.15 406.39,280.07 406.51,279.98 406.63,279.90 406.76,279.82 406.76,279.74 406.76,279.65 406.76,279.57 406.76,279.49 407.00,279.40 407.25,279.32 407.25,279.24 407.25,279.15 407.25,279.07 407.25,278.99 407.49,278.91 407.49,278.82 407.61,278.74 407.61,278.66 407.73,278.57 407.73,278.49 407.73,278.41 407.73,278.32 407.73,278.24 407.85,278.16 407.85,278.08 407.98,277.99 407.98,277.91 407.98,277.83 407.98,277.74 407.98,277.66 408.10,277.58 408.22,277.49 408.34,277.41 408.34,277.33 408.34,277.25 408.34,277.16 408.46,277.08 408.46,277.00 408.46,276.91 408.58,276.83 408.58,276.75 408.58,276.66 408.58,276.58 408.58,276.50 408.70,276.42 408.70,276.33 408.94,276.25 408.94,276.17 409.06,276.08 409.06,276.00 409.06,275.92 409.06,275.83 409.06,275.75 409.06,275.67 409.18,275.58 409.18,275.50 409.18,275.42 409.18,275.34 409.18,275.25 409.18,275.17 409.42,275.09 409.42,275.00 409.42,274.92 409.54,274.84 409.54,274.75 409.54,274.67 409.65,274.59 409.77,274.51 409.77,274.42 409.77,274.34 409.77,274.26 409.77,274.17 409.89,274.09 409.89,274.01 410.01,273.92 410.01,273.84 410.13,273.76 410.13,273.68 410.48,273.59 410.60,273.51 410.60,273.43 410.60,273.34 410.60,273.26 410.60,273.18 410.60,273.09 410.72,273.01 410.72,272.93 410.72,272.85 410.83,272.76 410.83,272.68 410.83,272.60 410.95,272.51 410.95,272.43 410.95,272.35 410.95,272.26 411.07,272.18 411.07,272.10 411.07,272.02 411.07,271.93 411.18,271.85 411.42,271.77 411.42,271.68 411.42,271.60 411.42,271.52 411.42,271.43 411.53,271.35 411.53,271.27 411.53,271.18 411.53,271.10 411.65,271.02 411.65,270.94 412.00,270.85 412.00,270.77 412.00,270.69 412.00,270.60 412.00,270.52 412.00,270.44 412.11,270.35 412.11,270.27 412.23,270.19 412.23,270.11 412.23,270.02 412.23,269.94 412.34,269.86 412.34,269.77 412.46,269.69 412.46,269.61 412.46,269.52 412.46,269.44 412.69,269.36 412.69,269.28 412.69,269.19 412.80,269.11 412.80,269.03 412.80,268.94 413.03,268.86 413.03,268.78 413.03,268.69 413.15,268.61 413.15,268.53 413.15,268.45 413.15,268.36 413.15,268.28 413.26,268.20 413.26,268.11 413.26,268.03 413.26,267.95 413.38,267.86 413.38,267.78 413.38,267.70 413.49,267.62 413.72,267.53 413.72,267.45 413.72,267.37 413.72,267.28 413.72,267.20 413.94,267.12 414.06,267.03 414.06,266.95 414.28,266.87 414.28,266.78 414.28,266.70 414.39,266.62 414.39,266.54 414.51,266.45 414.62,266.37 414.62,266.29 414.73,266.20 414.84,266.12 414.84,266.04 414.96,265.95 414.96,265.87 415.07,265.79 415.07,265.71 415.18,265.62 415.29,265.54 415.40,265.46 415.40,265.37 415.62,265.29 415.62,265.21 415.74,265.12 415.85,265.04 415.85,264.96 415.96,264.88 415.96,264.79 415.96,264.71 415.96,264.63 415.96,264.54 416.07,264.46 416.07,264.38 416.07,264.29 416.07,264.21 416.29,264.13 416.40,264.05 416.40,263.96 416.51,263.88 416.62,263.80 416.73,263.71 416.84,263.63 416.84,263.55 416.95,263.46 416.95,263.38 416.95,263.30 416.95,263.22 417.06,263.13 417.06,263.05 417.06,262.97 417.17,262.88 417.17,262.80 417.17,262.72 417.28,262.63 417.28,262.55 417.38,262.47 417.49,262.38 417.49,262.30 417.82,262.22 417.82,262.14 417.93,262.05 418.04,261.97 418.04,261.89 418.04,261.80 418.04,261.72 418.04,261.64 418.14,261.55 418.14,261.47 418.25,261.39 418.47,261.31 418.47,261.22 418.47,261.14 418.57,261.06 418.57,260.97 418.57,260.89 418.57,260.81 418.57,260.72 418.68,260.64 418.68,260.56 418.79,260.48 418.90,260.39 418.90,260.31 419.00,260.23 419.00,260.14 419.00,260.06 419.00,259.98 419.11,259.89 419.11,259.81 419.22,259.73 419.22,259.65 419.22,259.56 419.32,259.48 419.32,259.40 419.32,259.31 419.43,259.23 419.43,259.15 419.54,259.06 419.54,258.98 419.54,258.90 419.64,258.82 419.75,258.73 419.85,258.65 419.85,258.57 419.85,258.48 419.96,258.40 420.07,258.32 420.17,258.23 420.17,258.15 420.28,258.07 420.28,257.98 420.28,257.90 420.38,257.82 420.38,257.74 420.38,257.65 420.49,257.57 420.49,257.49 420.49,257.40 420.49,257.32 420.59,257.24 420.70,257.15 420.70,257.07 420.80,256.99 420.80,256.91 420.80,256.82 420.91,256.74 420.91,256.66 420.91,256.57 420.91,256.49 421.01,256.41 421.01,256.32 421.12,256.24 421.12,256.16 421.22,256.08 421.43,255.99 421.43,255.91 421.43,255.83 421.43,255.74 421.53,255.66 421.64,255.58 421.74,255.49 421.74,255.41 421.74,255.33 421.84,255.25 421.84,255.16 421.95,255.08 421.95,255.00 422.05,254.91 422.05,254.83 422.15,254.75 422.26,254.66 422.26,254.58 422.46,254.50 422.46,254.42 422.46,254.33 422.57,254.25 422.57,254.17 422.57,254.08 422.57,254.00 422.67,253.92 422.67,253.83 422.67,253.75 422.77,253.67 422.77,253.58 422.77,253.50 422.87,253.42 422.98,253.34 422.98,253.25 423.08,253.17 423.08,253.09 423.28,253.00 423.28,252.92 423.38,252.84 423.38,252.75 423.49,252.67 423.49,252.59 423.49,252.51 423.49,252.42 423.49,252.34 423.49,252.26 423.59,252.17 423.59,252.09 423.69,252.01 423.79,251.92 423.79,251.84 423.79,251.76 423.79,251.68 423.89,251.59 423.89,251.51 424.09,251.43 424.29,251.34 424.40,251.26 424.40,251.18 424.40,251.09 424.50,251.01 424.60,250.93 424.70,250.85 424.70,250.76 424.70,250.68 424.80,250.60 424.80,250.51 424.80,250.43 424.90,250.35 424.90,250.26 424.90,250.18 424.90,250.10 424.90,250.02 424.90,249.93 425.00,249.85 425.00,249.77 425.00,249.68 425.00,249.60 425.00,249.52 425.00,249.43 425.20,249.35 425.30,249.27 425.40,249.18 425.40,249.10 425.50,249.02 425.50,248.94 425.50,248.85 425.69,248.77 425.69,248.69 425.69,248.60 425.69,248.52 425.69,248.44 425.79,248.35 425.79,248.27 425.89,248.19 425.99,248.11 425.99,248.02 425.99,247.94 425.99,247.86 426.09,247.77 426.29,247.69 426.29,247.61 426.29,247.52 426.39,247.44 426.58,247.36 426.58,247.28 426.68,247.19 426.68,247.11 426.78,247.03 426.88,246.94 426.88,246.86 426.88,246.78 426.88,246.69 426.97,246.61 427.07,246.53 427.17,246.45 427.17,246.36 427.27,246.28 427.27,246.20 427.27,246.11 427.27,246.03 427.36,245.95 427.56,245.86 427.66,245.78 427.75,245.70 427.75,245.62 427.95,245.53 428.04,245.45 428.04,245.37 428.14,245.28 428.14,245.20 428.33,245.12 428.33,245.03 428.52,244.95 428.52,244.87 428.62,244.78 428.72,244.70 428.91,244.62 428.91,244.54 428.91,244.45 428.91,244.37 428.91,244.29 429.00,244.20 429.00,244.12 429.00,244.04 429.10,243.95 429.10,243.87 429.10,243.79 429.19,243.71 429.19,243.62 429.48,243.54 429.48,243.46 429.57,243.37 429.67,243.29 429.86,243.21 429.95,243.12 429.95,243.04 430.05,242.96 430.05,242.88 430.05,242.79 430.05,242.71 430.14,242.63 430.14,242.54 430.24,242.46 430.33,242.38 430.33,242.29 430.33,242.21 430.33,242.13 430.52,242.05 430.61,241.96 430.61,241.88 430.71,241.80 430.71,241.71 430.80,241.63 430.89,241.55 430.99,241.46 431.08,241.38 431.17,241.30 431.17,241.22 431.17,241.13 431.17,241.05 431.17,240.97 431.36,240.88 431.45,240.80 431.45,240.72 431.45,240.63 431.55,240.55 431.64,240.47 431.73,240.38 431.73,240.30 431.82,240.22 431.82,240.14 431.82,240.05 431.82,239.97 432.10,239.89 432.10,239.80 432.10,239.72 432.29,239.64 432.38,239.55 432.56,239.47 432.56,239.39 432.56,239.31 432.65,239.22 432.84,239.14 432.93,239.06 432.93,238.97 433.02,238.89 433.02,238.81 433.11,238.72 433.11,238.64 433.11,238.56 433.11,238.48 433.11,238.39 433.11,238.31 433.20,238.23 433.20,238.14 433.20,238.06 433.20,237.98 433.20,237.89 433.29,237.81 433.38,237.73 433.38,237.65 433.57,237.56 433.66,237.48 433.75,237.40 433.75,237.31 433.75,237.23 433.75,237.15 433.84,237.06 433.84,236.98 433.93,236.90 434.02,236.82 434.20,236.73 434.38,236.65 434.38,236.57 434.38,236.48 434.47,236.40 434.47,236.32 434.56,236.23 434.65,236.15 434.65,236.07 434.74,235.98 434.83,235.90 434.92,235.82 434.92,235.74 434.92,235.65 435.01,235.57 435.01,235.49 435.10,235.40 435.19,235.32 435.27,235.24 435.36,235.15 435.36,235.07 435.45,234.99 435.54,234.91 435.63,234.82 435.63,234.74 435.63,234.66 435.72,234.57 435.72,234.49 435.81,234.41 435.81,234.32 435.90,234.24 435.98,234.16 436.16,234.08 436.16,233.99 436.25,233.91 436.25,233.83 436.34,233.74 436.34,233.66 436.42,233.58 436.42,233.49 436.51,233.41 436.51,233.33 436.60,233.25 436.69,233.16 436.78,233.08 436.78,233.00 436.78,232.91 436.86,232.83 436.95,232.75 437.04,232.66 437.30,232.58 437.65,232.50 437.65,232.42 437.73,232.33 437.73,232.25 437.82,232.17 437.91,232.08 437.91,232.00 438.08,231.92 438.17,231.83 438.17,231.75 438.34,231.67 438.34,231.58 438.42,231.50 438.42,231.42 438.51,231.34 438.51,231.25 438.77,231.17 438.77,231.09 438.85,231.00 438.94,230.92 439.02,230.84 439.11,230.75 439.19,230.67 439.28,230.59 439.28,230.51 439.45,230.42 439.45,230.34 439.45,230.26 439.53,230.17 439.62,230.09 439.70,230.01 439.70,229.92 439.79,229.84 439.87,229.76 439.87,229.68 439.96,229.59 439.96,229.51 440.21,229.43 440.29,229.34 440.29,229.26 440.38,229.18 440.46,229.09 440.55,229.01 440.55,228.93 440.63,228.85 440.71,228.76 440.80,228.68 440.80,228.60 440.88,228.51 440.88,228.43 441.05,228.35 441.13,228.26 441.22,228.18 441.30,228.10 441.38,228.02 441.38,227.93 441.63,227.85 441.63,227.77 441.71,227.68 441.71,227.60 441.71,227.52 441.80,227.43 441.80,227.35 441.88,227.27 441.88,227.18 441.88,227.10 441.88,227.02 441.96,226.94 441.96,226.85 442.13,226.77 442.21,226.69 442.29,226.60 442.29,226.52 442.37,226.44 442.46,226.35 442.46,226.27 442.46,226.19 442.54,226.11 442.54,226.02 442.62,225.94 442.70,225.86 442.78,225.77 442.78,225.69 442.78,225.61 442.78,225.52 442.78,225.44 442.87,225.36 442.87,225.28 442.87,225.19 443.03,225.11 443.11,225.03 443.11,224.94 443.19,224.86 443.36,224.78 443.36,224.69 443.36,224.61 443.36,224.53 443.44,224.45 443.44,224.36 443.44,224.28 443.44,224.20 443.44,224.11 443.44,224.03 443.60,223.95 443.84,223.86 443.84,223.78 443.92,223.70 444.00,223.62 444.08,223.53 444.16,223.45 444.25,223.37 444.33,223.28 444.41,223.20 444.49,223.12 444.57,223.03 444.65,222.95 444.65,222.87 444.73,222.78 444.81,222.70 444.81,222.62 445.05,222.54 445.05,222.45 445.36,222.37 445.36,222.29 445.36,222.20 445.36,222.12 445.44,222.04 445.52,221.95 445.52,221.87 445.52,221.79 445.60,221.71 445.68,221.62 445.76,221.54 445.76,221.46 446.00,221.37 446.47,221.29 446.47,221.21 446.55,221.12 446.63,221.04 446.63,220.96 446.71,220.88 446.78,220.79 446.86,220.71 446.86,220.63 447.10,220.54 447.10,220.46 447.17,220.38 447.17,220.29 447.25,220.21 447.41,220.13 447.49,220.05 447.49,219.96 447.56,219.88 447.64,219.80 447.64,219.71 447.80,219.63 447.80,219.55 447.80,219.46 447.80,219.38 447.87,219.30 448.10,219.22 448.18,219.13 448.18,219.05 448.18,218.97 448.26,218.88 448.26,218.80 448.26,218.72 448.34,218.63 448.34,218.55 448.41,218.47 448.49,218.38 448.57,218.30 448.57,218.22 448.64,218.14 448.64,218.05 448.87,217.97 448.87,217.89 448.95,217.80 448.95,217.72 448.95,217.64 448.95,217.55 448.95,217.47 449.02,217.39 449.56,217.31 449.63,217.22 449.63,217.14 449.71,217.06 449.78,216.97 449.86,216.89 449.86,216.81 449.94,216.72 450.09,216.64 450.16,216.56 450.39,216.48 450.46,216.39 450.46,216.31 450.46,216.23 450.46,216.14 450.54,216.06 450.54,215.98 450.61,215.89 450.61,215.81 450.69,215.73 450.69,215.65 450.76,215.56 450.99,215.48 451.06,215.40 451.06,215.31 451.06,215.23 451.28,215.15 451.28,215.06 451.36,214.98 451.36,214.90 451.36,214.82 451.36,214.73 451.43,214.65 451.43,214.57 451.43,214.48 451.51,214.40 451.58,214.32 451.58,214.23 451.58,214.15 451.58,214.07 451.58,213.98 451.73,213.90 451.88,213.82 451.88,213.74 451.88,213.65 451.95,213.57 451.95,213.49 452.03,213.40 452.03,213.32 452.03,213.24 452.10,213.15 452.10,213.07 452.17,212.99 452.25,212.91 452.25,212.82 452.25,212.74 452.47,212.66 452.47,212.57 452.54,212.49 452.61,212.41 452.61,212.32 452.61,212.24 452.69,212.16 453.05,212.08 453.05,211.99 453.12,211.91 453.12,211.83 453.27,211.74 453.42,211.66 453.42,211.58 453.42,211.49 453.42,211.41 453.49,211.33 453.63,211.25 453.63,211.16 453.71,211.08 453.71,211.00 453.71,210.91 453.92,210.83 453.92,210.75 453.99,210.66 453.99,210.58 454.07,210.50 454.21,210.42 454.28,210.33 454.28,210.25 454.28,210.17 454.28,210.08 454.35,210.00 454.43,209.92 454.43,209.83 454.43,209.75 454.50,209.67 454.50,209.58 454.57,209.50 454.64,209.42 454.71,209.34 454.78,209.25 454.78,209.17 454.86,209.09 454.93,209.00 454.93,208.92 455.00,208.84 455.00,208.75 455.00,208.67 455.00,208.59 455.07,208.51 455.14,208.42 455.36,208.34 455.36,208.26 455.43,208.17 455.57,208.09 455.64,208.01 455.64,207.92 455.64,207.84 455.71,207.76 455.71,207.68 455.71,207.59 455.78,207.51 455.78,207.43 455.78,207.34 455.99,207.26 455.99,207.18 456.20,207.09 456.34,207.01 456.34,206.93 456.48,206.85 456.55,206.76 456.55,206.68 456.90,206.60 457.04,206.51 457.11,206.43 457.25,206.35 457.25,206.26 457.25,206.18 457.39,206.10 457.60,206.02 457.67,205.93 457.81,205.85 457.95,205.77 457.95,205.68 457.95,205.60 458.15,205.52 458.15,205.43 458.22,205.35 458.36,205.27 458.43,205.18 458.43,205.10 458.50,205.02 458.63,204.94 458.70,204.85 458.84,204.77 458.84,204.69 458.91,204.60 458.98,204.52 458.98,204.44 459.04,204.35 459.04,204.27 459.18,204.19 459.25,204.11 459.25,204.02 459.25,203.94 459.32,203.86 459.38,203.77 459.45,203.69 459.52,203.61 459.52,203.52 459.52,203.44 459.59,203.36 459.72,203.28 459.86,203.19 459.99,203.11 460.06,203.03 460.33,202.94 460.33,202.86 460.46,202.78 460.46,202.69 460.46,202.61 460.53,202.53 460.60,202.45 460.60,202.36 460.66,202.28 460.73,202.20 460.86,202.11 460.93,202.03 461.00,201.95 461.07,201.86 461.13,201.78 461.13,201.70 461.20,201.62 461.26,201.53 461.26,201.45 461.40,201.37 461.40,201.28 461.40,201.20 461.40,201.12 461.60,201.03 461.60,200.95 461.86,200.87 461.86,200.78 461.93,200.70 461.93,200.62 461.99,200.54 462.06,200.45 462.12,200.37 462.12,200.29 462.19,200.20 462.26,200.12 462.32,200.04 462.32,199.95 462.52,199.87 462.52,199.79 462.58,199.71 462.72,199.62 462.72,199.54 462.91,199.46 462.91,199.37 462.98,199.29 462.98,199.21 463.04,199.12 463.11,199.04 463.11,198.96 463.30,198.88 463.37,198.79 463.50,198.71 463.50,198.63 463.63,198.54 463.63,198.46 463.82,198.38 463.89,198.29 463.95,198.21 464.08,198.13 464.14,198.05 464.21,197.96 464.21,197.88 464.27,197.80 464.27,197.71 464.46,197.63 464.59,197.55 464.66,197.46 464.66,197.38 464.66,197.30 464.72,197.22 464.78,197.13 464.85,197.05 464.85,196.97 464.98,196.88 465.04,196.80 465.04,196.72 465.10,196.63 465.23,196.55 465.23,196.47 465.29,196.38 465.29,196.30 465.42,196.22 465.42,196.14 465.61,196.05 465.67,195.97 465.80,195.89 465.86,195.80 465.86,195.72 465.93,195.64 465.93,195.55 465.93,195.47 465.99,195.39 465.99,195.31 465.99,195.22 466.05,195.14 466.05,195.06 466.12,194.97 466.30,194.89 466.30,194.81 466.37,194.72 466.49,194.64 466.68,194.56 466.68,194.48 466.74,194.39 466.74,194.31 466.74,194.23 466.74,194.14 467.18,194.06 467.24,193.98 467.24,193.89 467.30,193.81 467.30,193.73 467.37,193.65 467.49,193.56 467.55,193.48 467.55,193.40 467.61,193.31 467.61,193.23 467.68,193.15 467.68,193.06 467.68,192.98 467.68,192.90 467.74,192.82 467.80,192.73 467.80,192.65 467.86,192.57 467.92,192.48 467.99,192.40 468.11,192.32 468.23,192.23 468.23,192.15 468.29,192.07 468.35,191.98 468.35,191.90 468.42,191.82 468.48,191.74 468.54,191.65 468.60,191.57 468.60,191.49 468.72,191.40 468.78,191.32 468.84,191.24 468.90,191.15 469.03,191.07 469.09,190.99 469.09,190.91 469.21,190.82 469.27,190.74 469.33,190.66 469.39,190.57 469.45,190.49 469.51,190.41 469.57,190.32 469.57,190.24 469.63,190.16 469.76,190.08 469.76,189.99 469.82,189.91 469.88,189.83 469.88,189.74 470.06,189.66 470.18,189.58 470.18,189.49 470.36,189.41 470.36,189.33 470.48,189.25 470.54,189.16 470.54,189.08 470.54,189.00 470.66,188.91 470.66,188.83 470.72,188.75 470.78,188.66 470.78,188.58 470.78,188.50 470.78,188.42 470.90,188.33 470.90,188.25 471.02,188.17 471.07,188.08 471.25,188.00 471.31,187.92 471.31,187.83 471.31,187.75 471.37,187.67 471.37,187.58 471.49,187.50 471.55,187.42 471.61,187.34 471.61,187.25 471.67,187.17 471.73,187.09 472.20,187.00 472.20,186.92 472.38,186.84 472.43,186.75 472.49,186.67 472.49,186.59 472.55,186.51 472.61,186.42 472.61,186.34 472.67,186.26 472.67,186.17 472.73,186.09 472.90,186.01 472.90,185.92 472.90,185.84 472.96,185.76 473.08,185.68 473.19,185.59 473.31,185.51 473.31,185.43 473.37,185.34 473.37,185.26 473.60,185.18 473.60,185.09 473.77,185.01 473.95,184.93 473.95,184.85 474.06,184.76 474.06,184.68 474.12,184.60 474.18,184.51 474.18,184.43 474.23,184.35 474.23,184.26 474.29,184.18 474.29,184.10 474.29,184.02 474.35,183.93 474.35,183.85 474.35,183.77 474.41,183.68 474.41,183.60 474.41,183.52 474.41,183.43 474.46,183.35 474.46,183.27 474.52,183.18 474.69,183.10 474.69,183.02 474.75,182.94 474.92,182.85 474.98,182.77 474.98,182.69 475.09,182.60 475.15,182.52 475.32,182.44 475.43,182.35 475.49,182.27 475.55,182.19 475.60,182.11 475.60,182.02 475.60,181.94 475.60,181.86 475.66,181.77 475.66,181.69 475.71,181.61 475.88,181.52 476.00,181.44 476.11,181.36 476.22,181.28 476.28,181.19 476.28,181.11 476.33,181.03 476.45,180.94 476.45,180.86 476.50,180.78 476.50,180.69 476.50,180.61 476.50,180.53 476.56,180.45 476.56,180.36 476.67,180.28 476.73,180.20 476.78,180.11 476.89,180.03 476.89,179.95 476.95,179.86 476.95,179.78 476.95,179.70 477.12,179.62 477.17,179.53 477.17,179.45 477.17,179.37 477.34,179.28 477.34,179.20 477.39,179.12 477.39,179.03 477.39,178.95 477.51,178.87 477.51,178.78 477.51,178.70 477.56,178.62 477.62,178.54 477.67,178.45 477.78,178.37 477.84,178.29 477.89,178.20 477.89,178.12 478.11,178.04 478.11,177.95 478.11,177.87 478.17,177.79 478.17,177.71 478.22,177.62 478.22,177.54 478.28,177.46 478.28,177.37 478.33,177.29 478.39,177.21 478.39,177.12 478.55,177.04 478.61,176.96 478.66,176.88 478.72,176.79 478.72,176.71 478.72,176.63 478.77,176.54 478.82,176.46 478.88,176.38 478.93,176.29 478.99,176.21 479.04,176.13 479.04,176.05 479.21,175.96 479.53,175.88 479.64,175.80 479.75,175.71 479.86,175.63 479.96,175.55 480.02,175.46 480.02,175.38 480.07,175.30 480.18,175.22 480.29,175.13 480.34,175.05 480.39,174.97 480.71,174.88 480.71,174.80 480.77,174.72 480.82,174.63 480.87,174.55 480.93,174.47 480.93,174.38 480.93,174.30 481.03,174.22 481.03,174.14 481.03,174.05 481.09,173.97 481.19,173.89 481.25,173.80 481.25,173.72 481.30,173.64 481.30,173.55 481.46,173.47 481.78,173.39 481.88,173.31 482.09,173.22 482.15,173.14 482.15,173.06 482.20,172.97 482.46,172.89 482.51,172.81 482.51,172.72 482.57,172.64 482.67,172.56 482.72,172.48 482.77,172.39 482.77,172.31 482.83,172.23 483.14,172.14 483.29,172.06 483.35,171.98 483.35,171.89 483.45,171.81 483.55,171.73 483.61,171.65 483.71,171.56 483.76,171.48 483.76,171.40 483.81,171.31 483.86,171.23 483.86,171.15 484.02,171.06 484.17,170.98 484.28,170.90 484.28,170.82 484.48,170.73 484.53,170.65 484.74,170.57 484.74,170.48 484.79,170.40 484.79,170.32 484.94,170.23 484.99,170.15 485.04,170.07 485.04,169.98 485.09,169.90 485.14,169.82 485.19,169.74 485.19,169.65 485.25,169.57 485.30,169.49 485.30,169.40 485.35,169.32 485.45,169.24 485.50,169.15 485.55,169.07 485.55,168.99 485.70,168.91 485.75,168.82 485.75,168.74 485.80,168.66 485.80,168.57 485.90,168.49 486.00,168.41 486.05,168.32 486.05,168.24 486.10,168.16 486.46,168.08 486.46,167.99 486.51,167.91 486.56,167.83 486.61,167.74 486.66,167.66 486.66,167.58 486.71,167.49 486.76,167.41 486.81,167.33 486.95,167.25 487.00,167.16 487.00,167.08 487.00,167.00 487.05,166.91 487.05,166.83 487.10,166.75 487.10,166.66 487.25,166.58 487.35,166.50 487.35,166.42 487.40,166.33 487.75,166.25 487.80,166.17 487.85,166.08 487.90,166.00 488.04,165.92 488.09,165.83 488.09,165.75 488.14,165.67 488.24,165.58 488.24,165.50 488.29,165.42 488.29,165.34 488.34,165.25 488.34,165.17 488.34,165.09 488.39,165.00 488.39,164.92 488.49,164.84 488.49,164.75 488.53,164.67 488.58,164.59 488.63,164.51 488.73,164.42 488.78,164.34 488.97,164.26 488.97,164.17 489.12,164.09 489.12,164.01 489.12,163.92 489.17,163.84 489.22,163.76 489.27,163.68 489.36,163.59 489.36,163.51 489.36,163.43 489.51,163.34 489.56,163.26 489.65,163.18 489.89,163.09 489.99,163.01 489.99,162.93 489.99,162.85 489.99,162.76 490.13,162.68 490.18,162.60 490.23,162.51 490.42,162.43 490.42,162.35 490.47,162.26 490.57,162.18 490.61,162.10 490.76,162.02 490.85,161.93 490.95,161.85 490.95,161.77 491.09,161.68 491.09,161.60 491.09,161.52 491.14,161.43 491.19,161.35 491.23,161.27 491.28,161.18 491.38,161.10 491.42,161.02 491.47,160.94 491.57,160.85 491.57,160.77 491.57,160.69 491.66,160.60 491.71,160.52 491.75,160.44 491.75,160.35 491.80,160.27 491.90,160.19 491.90,160.11 491.90,160.02 491.94,159.94 492.04,159.86 492.04,159.77 492.13,159.69 492.22,159.61 492.27,159.52 492.32,159.44 492.55,159.36 492.60,159.28 492.74,159.19 492.93,159.11 492.97,159.03 493.02,158.94 493.02,158.86 493.07,158.78 493.07,158.69 493.11,158.61 493.11,158.53 493.25,158.45 493.30,158.36 493.30,158.28 493.30,158.20 493.39,158.11 493.44,158.03 493.44,157.95 493.53,157.86 493.53,157.78 493.58,157.70 493.58,157.62 493.67,157.53 493.76,157.45 493.81,157.37 493.85,157.28 493.85,157.20 493.90,157.12 494.17,157.03 494.17,156.95 494.22,156.87 494.31,156.78 494.36,156.70 494.45,156.62 494.54,156.54 494.54,156.45 494.54,156.37 494.54,156.29 494.59,156.20 494.68,156.12 494.77,156.04 494.86,155.95 494.91,155.87 495.04,155.79 495.13,155.71 495.13,155.62 495.13,155.54 495.32,155.46 495.32,155.37 495.36,155.29 495.41,155.21 495.41,155.12 495.41,155.04 495.45,154.96 495.50,154.88 495.72,154.79 495.95,154.71 495.99,154.63 496.04,154.54 496.08,154.46 496.17,154.38 496.17,154.29 496.22,154.21 496.40,154.13 496.58,154.05 496.58,153.96 496.71,153.88 496.75,153.80 496.98,153.71 497.02,153.63 497.20,153.55 497.20,153.46 497.20,153.38 497.24,153.30 497.29,153.22 497.33,153.13 497.33,153.05 497.33,152.97 497.33,152.88 497.38,152.80 497.47,152.72 497.55,152.63 497.60,152.55 497.64,152.47 497.64,152.38 497.64,152.30 497.69,152.22 497.82,152.14 497.86,152.05 498.13,151.97 498.21,151.89 498.39,151.80 498.57,151.72 498.65,151.64 498.70,151.55 498.83,151.47 498.87,151.39 498.91,151.31 499.09,151.22 499.26,151.14 499.26,151.06 499.39,150.97 499.43,150.89 499.52,150.81 499.56,150.72 499.61,150.64 499.61,150.56 499.65,150.48 499.74,150.39 499.74,150.31 499.78,150.23 500.30,150.14 500.43,150.06 500.47,149.98 500.51,149.89 500.55,149.81 500.64,149.73 500.72,149.65 501.02,149.56 501.02,149.48 501.06,149.40 501.19,149.31 501.28,149.23 501.32,149.15 501.36,149.06 501.45,148.98 501.66,148.90 501.74,148.82 501.78,148.73 501.83,148.65 501.91,148.57 502.04,148.48 502.12,148.40 502.12,148.32 502.33,148.23 502.46,148.15 502.46,148.07 502.58,147.98 502.58,147.90 502.62,147.82 502.62,147.74 502.67,147.65 502.71,147.57 502.71,147.49 502.83,147.40 502.87,147.32 502.92,147.24 503.04,147.15 503.08,147.07 503.08,146.99 503.21,146.91 503.37,146.82 503.41,146.74 503.50,146.66 503.54,146.57 503.70,146.49 503.74,146.41 503.79,146.32 503.83,146.24 503.91,146.16 503.95,146.08 503.99,145.99 504.16,145.91 504.16,145.83 504.28,145.74 504.36,145.66 504.40,145.58 504.73,145.49 504.85,145.41 504.89,145.33 504.93,145.25 504.93,145.16 505.01,145.08 505.01,145.00 505.05,144.91 505.18,144.83 505.22,144.75 505.22,144.66 505.26,144.58 505.50,144.50 505.62,144.42 505.78,144.33 505.82,144.25 505.90,144.17 506.06,144.08 506.10,144.00 506.26,143.92 506.39,143.83 506.47,143.75 506.59,143.67 506.63,143.58 506.66,143.50 506.78,143.42 506.90,143.34 506.94,143.25 507.10,143.17 507.10,143.09 507.22,143.00 507.30,142.92 507.34,142.84 507.38,142.75 507.46,142.67 507.46,142.59 507.58,142.51 507.78,142.42 507.93,142.34 508.01,142.26 508.05,142.17 508.13,142.09 508.25,142.01 508.29,141.92 508.33,141.84 508.36,141.76 508.48,141.68 508.52,141.59 508.56,141.51 508.64,141.43 508.72,141.34 508.83,141.26 508.99,141.18 509.11,141.09 509.22,141.01 509.34,140.93 509.45,140.85 509.61,140.76 509.65,140.68 509.84,140.60 509.99,140.51 509.99,140.43 510.03,140.35 510.11,140.26 510.19,140.18 510.61,140.10 510.80,140.02 510.91,139.93 510.91,139.85 510.99,139.77 511.22,139.68 511.25,139.60 511.33,139.52 511.37,139.43 511.41,139.35 511.56,139.27 511.59,139.18 511.59,139.10 511.63,139.02 511.63,138.94 511.71,138.85 511.97,138.77 511.97,138.69 512.01,138.60 512.05,138.52 512.12,138.44 512.12,138.35 512.23,138.27 512.35,138.19 512.38,138.11 512.42,138.02 512.50,137.94 512.61,137.86 512.83,137.77 512.87,137.69 512.91,137.61 512.94,137.52 513.02,137.44 513.02,137.36 513.20,137.28 513.24,137.19 513.28,137.11 513.35,137.03 513.43,136.94 513.50,136.86 513.54,136.78 513.76,136.69 513.83,136.61 513.90,136.53 514.09,136.45 514.24,136.36 514.27,136.28 514.38,136.20 514.67,136.11 515.18,136.03 515.22,135.95 515.44,135.86 515.69,135.78 515.87,135.70 515.91,135.62 516.23,135.53 516.30,135.45 516.34,135.37 516.48,135.28 516.51,135.20 516.55,135.12 516.69,135.03 516.84,134.95 516.91,134.87 517.05,134.78 517.16,134.70 517.19,134.62 517.23,134.54 517.26,134.45 517.30,134.37 517.40,134.29 517.44,134.20 517.51,134.12 517.62,134.04 517.65,133.95 517.65,133.87 517.72,133.79 517.79,133.71 517.83,133.62 517.90,133.54 518.11,133.46 518.14,133.37 518.35,133.29 518.49,133.21 518.56,133.12 518.63,133.04 518.63,132.96 518.74,132.88 518.74,132.79 518.74,132.71 518.74,132.63 518.91,132.54 518.95,132.46 519.09,132.38 519.15,132.29 519.15,132.21 519.19,132.13 519.29,132.05 519.33,131.96 519.54,131.88 519.64,131.80 519.78,131.71 519.85,131.63 520.12,131.55 520.15,131.46 520.26,131.38 520.26,131.30 520.29,131.22 520.33,131.13 520.46,131.05 520.50,130.97 520.60,130.88 520.67,130.80 520.74,130.72 520.77,130.63 520.80,130.55 520.87,130.47 521.11,130.38 521.21,130.30 521.25,130.22 521.38,130.14 521.41,130.05 521.45,129.97 521.52,129.89 521.55,129.80 521.68,129.72 521.79,129.64 521.85,129.55 522.09,129.47 522.12,129.39 522.12,129.31 522.29,129.22 522.29,129.14 522.36,129.06 522.42,128.97 522.52,128.89 522.56,128.81 522.56,128.72 522.62,128.64 522.76,128.56 522.79,128.48 522.86,128.39 522.89,128.31 523.06,128.23 523.06,128.14 523.09,128.06 523.12,127.98 523.16,127.89 523.19,127.81 523.29,127.73 523.32,127.65 523.42,127.56 523.55,127.48 523.75,127.40 523.75,127.31 524.08,127.23 524.11,127.15 524.11,127.06 524.44,126.98 524.57,126.90 524.64,126.82 524.70,126.73 524.80,126.65 524.99,126.57 525.09,126.48 525.19,126.40 525.22,126.32 525.32,126.23 525.45,126.15 525.64,126.07 525.64,125.98 525.77,125.90 525.83,125.82 525.87,125.74 526.03,125.65 526.06,125.57 526.06,125.49 526.31,125.40 526.31,125.32 526.35,125.24 526.41,125.15 526.47,125.07 526.51,124.99 526.76,124.91 526.79,124.82 526.86,124.74 526.98,124.66 527.21,124.57 527.21,124.49 527.30,124.41 527.30,124.32 527.62,124.24 527.74,124.16 527.90,124.08 527.90,123.99 528.03,123.91 528.03,123.83 528.06,123.74 528.09,123.66 528.28,123.58 528.31,123.49 528.37,123.41 528.43,123.33 528.50,123.25 528.68,123.16 528.75,123.08 528.78,123.00 528.93,122.91 528.99,122.83 529.12,122.75 529.46,122.66 529.49,122.58 529.52,122.50 529.61,122.42 529.64,122.33 529.71,122.25 529.74,122.17 529.83,122.08 529.92,122.00 529.92,121.92 530.04,121.83 530.10,121.75 530.23,121.67 530.38,121.58 530.38,121.50 530.41,121.42 530.69,121.34 530.69,121.25 530.90,121.17 531.14,121.09 531.17,121.00 531.26,120.92 531.38,120.84 531.72,120.75 531.72,120.67 531.78,120.59 531.87,120.51 532.02,120.42 532.17,120.34 532.17,120.26 532.23,120.17 532.35,120.09 532.38,120.01 532.46,119.92 532.52,119.84 532.64,119.76 532.70,119.68 532.73,119.59 532.82,119.51 532.88,119.43 532.88,119.34 532.91,119.26 532.94,119.18 532.94,119.09 533.03,119.01 533.09,118.93 533.15,118.85 533.18,118.76 533.21,118.68 533.24,118.60 533.27,118.51 533.30,118.43 533.62,118.35 533.65,118.26 533.65,118.18 533.80,118.10 533.92,118.02 533.97,117.93 533.97,117.85 534.00,117.77 534.03,117.68 534.06,117.60 534.12,117.52 534.18,117.43 534.24,117.35 534.30,117.27 534.38,117.18 534.41,117.10 534.41,117.02 534.41,116.94 534.94,116.85 535.05,116.77 535.37,116.69 535.46,116.60 535.52,116.52 535.63,116.44 535.78,116.35 535.78,116.27 536.01,116.19 536.06,116.11 536.09,116.02 536.26,115.94 536.49,115.86 536.89,115.77 536.92,115.69 536.92,115.61 537.01,115.52 537.43,115.44 537.80,115.36 537.99,115.28 538.05,115.19 538.08,115.11 538.10,115.03 538.27,114.94 538.47,114.86 538.75,114.78 538.97,114.69 539.33,114.61 539.33,114.53 539.47,114.45 539.80,114.36 539.91,114.28 539.96,114.20 540.13,114.11 540.13,114.03 540.40,113.95 540.48,113.86 540.62,113.78 540.73,113.70 540.97,113.62 541.03,113.53 541.51,113.45 541.57,113.37 541.65,113.28 541.81,113.20 541.86,113.12 541.92,113.03 542.11,112.95 542.24,112.87 542.35,112.78 542.37,112.70 542.61,112.62 542.80,112.54 542.88,112.45 542.93,112.37 543.06,112.29 543.14,112.20 543.17,112.12 543.33,112.04 543.46,111.95 543.46,111.87 543.51,111.79 543.54,111.71 543.62,111.62 543.70,111.54 544.01,111.46 544.28,111.37 544.35,111.29 544.38,111.21 544.41,111.12 544.59,111.04 544.64,110.96 544.64,110.88 544.82,110.79 545.68,110.71 545.68,110.63 545.75,110.54 545.78,110.46 546.39,110.38 546.47,110.29 546.57,110.21 546.73,110.13 546.73,110.05 546.83,109.96 546.85,109.88 547.18,109.80 547.33,109.71 547.59,109.63 547.61,109.55 547.69,109.46 547.79,109.38 548.01,109.30 548.21,109.22 548.24,109.13 548.31,109.05 548.39,108.97 548.56,108.88 548.76,108.80 549.04,108.72 549.28,108.63 549.33,108.55 549.41,108.47 549.43,108.38 549.55,108.30 549.60,108.22 549.75,108.14 550.12,108.05 550.17,107.97 550.29,107.89 550.34,107.80 550.61,107.72 550.63,107.64 550.68,107.55 550.68,107.47 550.73,107.39 550.75,107.31 550.85,107.22 550.97,107.14 551.36,107.06 551.38,106.97 551.50,106.89 551.67,106.81 551.77,106.72 551.84,106.64 551.89,106.56 551.94,106.48 552.13,106.39 552.15,106.31 552.18,106.23 552.18,106.14 552.46,106.06 552.68,105.98 552.70,105.89 552.82,105.81 552.87,105.73 553.22,105.65 553.29,105.56 553.91,105.48 553.98,105.40 554.00,105.31 554.00,105.23 554.05,105.15 554.07,105.06 554.19,104.98 554.30,104.90 554.33,104.82 554.42,104.73 554.47,104.65 554.51,104.57 554.61,104.48 554.63,104.40 554.77,104.32 555.07,104.23 555.16,104.15 555.19,104.07 555.21,103.98 555.40,103.90 555.49,103.82 555.53,103.74 555.70,103.65 555.97,103.57 556.25,103.49 556.36,103.40 556.41,103.32 556.59,103.24 556.61,103.15 556.66,103.07 557.00,102.99 557.02,102.91 557.04,102.82 557.15,102.74 557.38,102.66 557.43,102.57 557.45,102.49 557.47,102.41 557.47,102.32 557.65,102.24 557.92,102.16 557.99,102.08 558.12,101.99 558.28,101.91 558.30,101.83 558.32,101.74 558.37,101.66 558.52,101.58 558.55,101.49 558.77,101.41 558.81,101.33 558.90,101.25 558.99,101.16 559.06,101.08 559.10,101.00 559.15,100.91 559.30,100.83 559.39,100.75 559.52,100.66 559.54,100.58 559.61,100.50 559.74,100.42 559.85,100.33 559.87,100.25 560.22,100.17 560.25,100.08 560.38,100.00 560.46,99.92 560.70,99.83 560.70,99.75 560.88,99.67 560.99,99.58 561.14,99.50 561.22,99.42 561.22,99.34 561.27,99.25 561.40,99.17 561.48,99.09 561.53,99.00 561.78,98.92 561.85,98.84 561.93,98.75 562.00,98.67 562.25,98.59 562.45,98.51 562.47,98.42 562.55,98.34 562.89,98.26 562.94,98.17 563.30,98.09 563.44,98.01 563.49,97.92 563.55,97.84 563.55,97.76 563.72,97.68 563.74,97.59 563.74,97.51 563.82,97.43 563.88,97.34 563.95,97.26 563.99,97.18 564.03,97.09 564.22,97.01 564.45,96.93 564.51,96.85 564.51,96.76 564.86,96.68 565.03,96.60 565.20,96.51 565.26,96.43 565.34,96.35 565.40,96.26 565.48,96.18 565.61,96.10 565.83,96.02 566.33,95.93 566.35,95.85 566.45,95.77 566.45,95.68 566.73,95.60 566.87,95.52 567.00,95.43 567.02,95.35 567.14,95.27 567.38,95.18 567.70,95.10 568.32,95.02 568.38,94.94 568.80,94.85 569.10,94.77 569.24,94.69 569.59,94.60 569.71,94.52 569.77,94.44 569.87,94.35 569.87,94.27 570.08,94.19 570.16,94.11 570.65,94.02 570.92,93.94 570.98,93.86 571.67,93.77 571.69,93.69 571.77,93.61 571.90,93.52 572.06,93.44 572.57,93.36 572.72,93.28 572.76,93.19 572.87,93.11 573.01,93.03 573.06,92.94 573.06,92.86 573.21,92.78 573.33,92.69 573.70,92.61 574.32,92.53 574.36,92.45 574.55,92.36 574.75,92.28 575.49,92.20 575.60,92.11 575.73,92.03 575.86,91.95 576.04,91.86 576.04,91.78 576.15,91.70 576.30,91.62 576.61,91.53 576.64,91.45 576.84,91.37 576.91,91.28 576.95,91.20 577.00,91.12 577.15,91.03 577.42,90.95 577.44,90.87 577.55,90.78 577.58,90.70 577.90,90.62 577.94,90.54 578.28,90.45 578.49,90.37 578.51,90.29 578.58,90.20 578.64,90.12 579.08,90.04 579.08,89.95 579.13,89.87 579.45,89.79 579.50,89.71 579.80,89.62 580.41,89.54 580.54,89.46 581.00,89.37 581.30,89.29 581.37,89.21 581.45,89.12 581.56,89.04 581.80,88.96 581.95,88.88 582.26,88.79 582.27,88.71 582.58,88.63 582.60,88.54 582.94,88.46 583.12,88.38 584.10,88.29 584.58,88.21 584.90,88.13 585.24,88.05 585.44,87.96 585.57,87.88 585.85,87.80 586.02,87.71 586.39,87.63 586.52,87.55 586.75,87.46 586.78,87.38 587.01,87.30 587.15,87.22 587.20,87.13 587.30,87.05 587.35,86.97 587.68,86.88 587.97,86.80 588.82,86.72 588.82,86.63 588.88,86.55 589.17,86.47 589.75,86.38 589.78,86.30 589.79,86.22 589.90,86.14 590.04,86.05 590.48,85.97 590.61,85.89 590.79,85.80 591.05,85.72 591.27,85.64 591.41,85.55 591.50,85.47 591.62,85.39 592.08,85.31 592.25,85.22 592.36,85.14 592.74,85.06 593.19,84.97 593.94,84.89 593.97,84.81 594.11,84.72 594.48,84.64 594.54,84.56 594.56,84.48 595.03,84.39 595.21,84.31 595.63,84.23 596.09,84.14 596.17,84.06 596.61,83.98 597.12,83.89 597.55,83.81 597.61,83.73 597.79,83.65 598.24,83.56 598.44,83.48 598.59,83.40 598.66,83.31 598.72,83.23 598.86,83.15 599.09,83.06 599.51,82.98 599.86,82.90 599.93,82.82 600.41,82.73 600.75,82.65 600.77,82.57 601.39,82.48 601.77,82.40 601.85,82.32 601.90,82.23 602.17,82.15 602.69,82.07 602.82,81.98 603.09,81.90 604.11,81.82 605.45,81.74 605.50,81.65 605.62,81.57 605.79,81.49 605.86,81.40 606.94,81.32 607.23,81.24 607.57,81.15 607.62,81.07 607.73,80.99 607.90,80.91 607.91,80.82 607.99,80.74 608.57,80.66 608.83,80.57 609.04,80.49 609.46,80.41 609.50,80.32 609.57,80.24 609.83,80.16 610.02,80.08 610.08,79.99 610.30,79.91 610.32,79.83 610.83,79.74 610.97,79.66 611.03,79.58 611.29,79.49 611.55,79.41 612.22,79.33 612.34,79.25 612.79,79.16 613.07,79.08 613.15,79.00 613.67,78.91 613.86,78.83 613.87,78.75 613.90,78.66 614.06,78.58 614.07,78.50 614.16,78.42 614.70,78.33 614.98,78.25 615.11,78.17 615.47,78.08 615.49,78.00 615.82,77.92 615.87,77.83 616.43,77.75 616.44,77.67 617.15,77.58 617.18,77.50 617.71,77.42 617.84,77.34 617.92,77.25 618.65,77.17 618.90,77.09 619.21,77.00 619.47,76.92 619.68,76.84 620.62,76.75 620.93,76.67 620.97,76.59 621.08,76.51 621.08,76.42 621.66,76.34 621.68,76.26 621.78,76.17 622.98,76.09 623.86,76.01 624.05,75.92 624.38,75.84 624.48,75.76 625.13,75.68 625.40,75.59 626.49,75.51 626.80,75.43 627.02,75.34 627.53,75.26 627.61,75.18 627.72,75.09 627.79,75.01 628.44,74.93 628.46,74.85 628.67,74.76 628.67,74.68 628.94,74.60 629.90,74.51 629.97,74.43 630.17,74.35 630.23,74.26 630.25,74.18 631.03,74.10 631.67,74.02 631.68,73.93 631.69,73.85 632.10,73.77 632.26,73.68 632.35,73.60 632.59,73.52 632.86,73.43 633.05,73.35 633.21,73.27 633.24,73.18 634.24,73.10 634.37,73.02 634.37,72.94 634.42,72.85 635.21,72.77 635.61,72.69 636.32,72.60 636.89,72.52 636.95,72.44 638.13,72.35 639.65,72.27 639.95,72.19 640.15,72.11 640.40,72.02 640.56,71.94 642.31,71.86 642.38,71.77 642.85,71.69 642.89,71.61 643.19,71.52 644.02,71.44 644.04,71.36 644.23,71.28 644.26,71.19 645.76,71.11 645.77,71.03 646.41,70.94 646.68,70.86 646.89,70.78 647.15,70.69 647.33,70.61 647.85,70.53 649.27,70.45 650.30,70.36 650.52,70.28 652.78,70.20 652.94,70.11 653.45,70.03 654.25,69.95 654.29,69.86 654.43,69.78 654.61,69.70 655.07,69.62 655.28,69.53 657.02,69.45 657.96,69.37 659.33,69.28 659.42,69.20 659.92,69.12 661.62,69.03 661.78,68.95 661.82,68.87 662.02,68.78 663.12,68.70 663.81,68.62 665.19,68.54 665.87,68.45 666.20,68.37 666.20,68.29 666.85,68.20 667.69,68.12 668.13,68.04 668.39,67.95 668.69,67.87 668.76,67.79 668.85,67.71 669.66,67.62 670.16,67.54 670.19,67.46 670.95,67.37 671.42,67.29 671.73,67.21 672.25,67.12 672.63,67.04 673.08,66.96 673.12,66.88 673.43,66.79 673.49,66.71 673.63,66.63 673.73,66.54 674.09,66.46 674.37,66.38 674.69,66.29 675.99,66.21 676.81,66.13 677.50,66.05 677.64,65.96 677.71,65.88 678.09,65.80 678.70,65.71 679.25,65.63 679.60,65.55 680.46,65.46 680.63,65.38 681.34,65.30 681.74,65.22 682.17,65.13 683.23,65.05 683.45,64.97 685.11,64.88 685.36,64.80 685.60,64.72 685.78,64.63 686.66,64.55 687.25,64.47 688.10,64.38 688.63,64.30 688.65,64.22 688.70,64.14 688.73,64.05 689.10,63.97 690.04,63.89 690.11,63.80 690.14,63.72 690.17,63.64 690.57,63.55 690.59,63.47 691.02,63.39 693.97,63.31 695.30,63.22 695.83,63.14 696.04,63.06 696.24,62.97 696.60,62.89 696.68,62.81 698.69,62.72 699.50,62.64 699.50,62.56 700.91,62.48 701.51,62.39 701.88,62.31 701.98,62.23 704.25,62.14 704.34,62.06 705.36,61.98 705.77,61.89 705.92,61.81 705.97,61.73 706.11,61.65 706.28,61.56 707.85,61.48 707.96,61.40 709.75,61.31 711.03,61.23 712.60,61.15 713.19,61.06 713.57,60.98 713.62,60.90 713.88,60.82 714.75,60.73 715.06,60.65 715.66,60.57 717.01,60.48 717.59,60.40 717.90,60.32 718.98,60.23 721.76,60.15 723.18,60.07 725.36,59.98 726.77,59.90 727.33,59.82 728.51,59.74 731.58,59.65 733.09,59.57 734.45,59.49 741.89,59.40 743.82,59.32 745.74,59.24 747.83,59.15 750.74,59.07 755.09,58.99 755.26,58.91 760.82,58.82 762.63,58.74 763.67,58.66 765.16,58.57 767.96,58.49 768.97,58.41 772.05,58.32 773.14,58.24 779.61,58.16 781.34,58.08 782.40,57.99 783.50,57.91 788.48,57.83 788.72,57.74 788.75,57.66 788.75,57.58 789.51,57.49 789.82,57.41 794.42,57.33 795.30,57.25 800.34,57.16 802.93,57.08 806.39,57.00 809.95,56.91 810.23,56.83 812.69,56.75 813.32,56.66 814.00,56.58 815.84,56.50 817.70,56.42 820.00,56.33 820.44,56.25 824.36,56.17 825.79,56.08 826.00,56.00" fill="none" stroke="#2F6BFF" stroke-width="2.5"/><rect x="690" y="50" width="12" height="12" fill="#2F6BFF"/><text x="708.00" y="61.00" font-family="Inter, Arial, sans-serif" font-size="11" fill="#1F2933" text-anchor="start" font-weight="400">completed (n=4770)</text><polyline points="272.35,449.92 285.74,447.83 289.49,445.75 297.80,443.66 299.86,441.58 316.89,439.49 320.20,437.41 320.85,435.33 326.47,433.24 333.17,431.16 338.35,429.07 338.61,426.99 346.20,424.91 351.60,422.82 353.19,420.74 359.67,418.65 362.54,416.57 363.14,414.48 365.71,412.40 368.39,410.32 373.17,408.23 374.94,406.15 376.68,404.06 378.72,401.98 379.72,399.89 380.06,397.81 380.39,395.73 385.67,393.64 388.58,391.56 391.25,389.47 391.39,387.39 392.98,385.31 395.53,383.22 400.53,381.14 406.88,379.05 407.37,376.97 413.49,374.88 416.29,372.80 416.84,370.72 416.84,368.63 417.93,366.55 422.77,364.46 424.80,362.38 425.20,360.29 427.75,358.21 428.91,356.13 428.91,354.04 432.01,351.96 432.01,349.87 434.02,347.79 435.36,345.71 435.81,343.62 436.78,341.54 440.29,339.45 441.13,337.37 442.78,335.28 444.41,333.20 445.76,331.12 447.87,329.03 447.87,326.95 448.10,324.86 451.66,322.78 452.61,320.69 452.83,318.61 453.42,316.53 453.92,314.44 454.86,312.36 455.57,310.27 456.83,308.19 457.25,306.11 458.50,304.02 461.20,301.94 465.42,299.85 466.49,297.77 466.93,295.68 467.12,293.60 467.55,291.52 468.29,289.43 468.90,287.35 471.02,285.26 471.43,283.18 471.73,281.09 472.32,279.01 472.43,276.93 472.49,274.84 472.55,272.76 473.48,270.67 473.48,268.59 474.23,266.51 475.49,264.42 475.94,262.34 476.73,260.25 477.17,258.17 477.56,256.08 479.04,254.00 479.53,251.92 481.67,249.83 481.88,247.75 483.66,245.66 485.70,243.58 487.30,241.49 488.44,239.41 488.73,237.33 489.31,235.24 489.56,233.16 489.94,231.07 490.85,228.99 491.42,226.91 491.52,224.82 493.02,222.74 494.54,220.65 495.13,218.57 496.26,216.48 496.35,214.40 496.44,212.32 496.58,210.23 496.67,208.15 497.64,206.06 498.13,203.98 501.28,201.89 501.40,199.81 501.40,197.73 502.21,195.64 503.87,193.56 504.65,191.47 506.02,189.39 506.26,187.31 507.22,185.22 507.38,183.14 508.52,181.05 508.87,178.97 509.53,176.88 509.96,174.80 510.03,172.72 510.26,170.63 511.29,168.55 511.44,166.46 512.46,164.38 513.20,162.29 513.94,160.21 514.97,158.13 516.41,156.04 517.37,153.96 517.40,151.87 520.50,149.79 521.62,147.71 522.12,145.62 522.36,143.54 524.90,141.45 528.43,139.37 528.46,137.28 532.76,135.20 533.56,133.12 535.72,131.03 536.18,128.95 536.55,126.86 537.09,124.78 537.57,122.69 538.83,120.61 541.70,118.53 542.29,116.44 542.37,114.36 542.59,112.27 550.66,110.19 551.41,108.11 554.21,106.02 555.37,103.94 558.46,101.85 559.26,99.77 564.05,97.68 566.63,95.60 567.00,93.52 567.18,91.43 573.08,89.35 580.57,87.26 583.16,85.18 586.64,83.09 602.55,81.01 620.79,78.93 628.81,76.84 634.73,74.76 638.17,72.67 664.44,70.59 677.50,68.51 691.54,66.42 707.41,64.34 708.33,62.25 708.69,60.17 713.30,58.08 719.77,56.00" fill="none" stroke="#C43C39" stroke-width="2.5"/><rect x="690" y="70" width="12" height="12" fill="#C43C39"/><text x="708.00" y="81.00" font-family="Inter, Arial, sans-serif" font-size="11" fill="#1F2933" text-anchor="start" font-weight="400">timeout (n=190)</text><text x="452.00" y="498.00" font-family="Inter, Arial, sans-serif" font-size="12" fill="#1F2933" text-anchor="middle" font-weight="400">schema_json_chars (log)</text><text x="22.00" y="254.00" font-family="Inter, Arial, sans-serif" font-size="12" fill="#1F2933" text-anchor="middle" font-weight="400">ECDF</text></svg>
