<svg xmlns="http://www.w3.org/2000/svg" width="980" height="930" viewBox="0 0 980 930" role="img" aria-label="Keyword co-occurrence in OVER schemas"><rect width="100%" height="100%" fill="#FFFFFF"/><text x="24.00" y="30.00" font-family="Inter, Arial, sans-serif" font-size="17" fill="#1F2933" text-anchor="start" font-weight="700">Keyword co-occurrence in OVER schemas</text><text x="214.00" y="66.00" font-family="Inter, Arial, sans-serif" font-size="9" fill="#1F2933" text-anchor="middle" font-weight="400">minimum</text><text x="180.00" y="105.00" font-family="Inter, Arial, sans-serif" font-size="9" fill="#1F2933" text-anchor="end" font-weight="400">minimum</text><text x="262.00" y="66.00" font-family="Inter, Arial, sans-serif" font-size="9" fill="#1F2933" text-anchor="middle" font-weight="400">maximum</text><text x="180.00" y="153.00" font-family="Inter, Arial, sans-serif" font-size="9" fill="#1F2933" text-anchor="end" font-weight="400">maximum</text><text x="310.00" y="66.00" font-family="Inter, Arial, sans-serif" font-size="9" fill="#1F2933" text-anchor="middle" font-weight="400">exclusiveM</text><text x="180.00" y="201.00" font-family="Inter, Arial, sans-serif" font-size="9" fill="#1F2933" text-anchor="end" font-weight="400">exclusiveMinimum</text><text x="358.00" y="66.00" font-family="Inter, Arial, sans-serif" font-size="9" fill="#1F2933" text-anchor="middle" font-weight="400">exclusiveM</text><text x="180.00" y="249.00" font-family="Inter, Arial, sans-serif" font-size="9" fill="#1F2933" text-anchor="end" font-weight="400">exclusiveMaximum</text><text x="406.00" y="66.00" font-family="Inter, Arial, sans-serif" font-size="9" fill="#1F2933" text-anchor="middle" font-weight="400">multipleOf</text><text x="180.00" y="297.00" font-family="Inter, Arial, sans-serif" font-size="9" fill="#1F2933" text-anchor="end" font-weight="400">multipleOf</text><text x="454.00" y="66.00" font-family="Inter, Arial, sans-serif" font-size="9" fill="#1F2933" text-anchor="middle" font-weight="400">patternPro</text><text x="180.00" y="345.00" font-family="Inter, Arial, sans-serif" font-size="9" fill="#1F2933" text-anchor="end" font-weight="400">patternProperties</text><text x="502.00" y="66.00" font-family="Inter, Arial, sans-serif" font-size="9" fill="#1F2933" text-anchor="middle" font-weight="400">additional</text><text x="180.00" y="393.00" font-family="Inter, Arial, sans-serif" font-size="9" fill="#1F2933" text-anchor="end" font-weight="400">additionalProperties</text><text x="550.00" y="66.00" font-family="Inter, Arial, sans-serif" font-size="9" fill="#1F2933" text-anchor="middle" font-weight="400">properties</text><text x="180.00" y="441.00" font-family="Inter, Arial, sans-serif" font-size="9" fill="#1F2933" text-anchor="end" font-weight="400">properties</text><text x="598.00" y="66.00" font-family="Inter, Arial, sans-serif" font-size="9" fill="#1F2933" text-anchor="middle" font-weight="400">required</text><text x="180.00" y="489.00" font-family="Inter, Arial, sans-serif" font-size="9" fill="#1F2933" text-anchor="end" font-weight="400">required</text><text x="646.00" y="66.00" font-family="Inter, Arial, sans-serif" font-size="9" fill="#1F2933" text-anchor="middle" font-weight="400">allOf</text><text x="180.00" y="537.00" font-family="Inter, Arial, sans-serif" font-size="9" fill="#1F2933" text-anchor="end" font-weight="400">allOf</text><text x="694.00" y="66.00" font-family="Inter, Arial, sans-serif" font-size="9" fill="#1F2933" text-anchor="middle" font-weight="400">anyOf</text><text x="180.00" y="585.00" font-family="Inter, Arial, sans-serif" font-size="9" fill="#1F2933" text-anchor="end" font-weight="400">anyOf</text><text x="742.00" y="66.00" font-family="Inter, Arial, sans-serif" font-size="9" fill="#1F2933" text-anchor="middle" font-weight="400">oneOf</text><text x="180.00" y="633.00" font-family="Inter, Arial, sans-serif" font-size="9" fill="#1F2933" text-anchor="end" font-weight="400">oneOf</text><text x="790.00" y="66.00" font-family="Inter, Arial, sans-serif" font-size="9" fill="#1F2933" text-anchor="middle" font-weight="400">not</text><text x="180.00" y="681.00" font-family="Inter, Arial, sans-serif" font-size="9" fill="#1F2933" text-anchor="end" font-weight="400">not</text><text x="838.00" y="66.00" font-family="Inter, Arial, sans-serif" font-size="9" fill="#1F2933" text-anchor="middle" font-weight="400">enum</text><text x="180.00" y="729.00" font-family="Inter, Arial, sans-serif" font-size="9" fill="#1F2933" text-anchor="end" font-weight="400">enum</text><text x="886.00" y="66.00" font-family="Inter, Arial, sans-serif" font-size="9" fill="#1F2933" text-anchor="middle" font-weight="400">const</text><text x="180.00" y="777.00" font-family="Inter, Arial, sans-serif" font-size="9" fill="#1F2933" text-anchor="end" font-weight="400">const</text><rect x="190" y="76" width="46" height="46" fill="#2F6BFF" opacity="0.060"/><rect x="238" y="76" width="46" height="46" fill="#2F6BFF" opacity="0.128"/><text x="262.00" y="104.00" font-family="Inter, Arial, sans-serif" font-size="8" fill="#1F2933" text-anchor="middle" font-weight="400">40</text><rect x="286" y="76" width="46" height="46" fill="#2F6BFF" opacity="0.062"/><text x="310.00" y="104.00" font-family="Inter, Arial, sans-serif" font-size="8" fill="#1F2933" text-anchor="middle" font-weight="400">1</text><rect x="334" y="76" width="46" height="46" fill="#2F6BFF" opacity="0.060"/><rect x="382" y="76" width="46" height="46" fill="#2F6BFF" opacity="0.060"/><rect x="430" y="76" width="46" height="46" fill="#2F6BFF" opacity="0.092"/><text x="454.00" y="104.00" font-family="Inter, Arial, sans-serif" font-size="8" fill="#1F2933" text-anchor="middle" font-weight="400">19</text><rect x="478" y="76" width="46" height="46" fill="#2F6BFF" opacity="0.137"/><text x="502.00" y="104.00" font-family="Inter, Arial, sans-serif" font-size="8" fill="#1F2933" text-anchor="middle" font-weight="400">45</text><rect x="526" y="76" width="46" height="46" fill="#2F6BFF" opacity="0.191"/><text x="550.00" y="104.00" font-family="Inter, Arial, sans-serif" font-size="8" fill="#1F2933" text-anchor="middle" font-weight="400">77</text><rect x="574" y="76" width="46" height="46" fill="#2F6BFF" opacity="0.174"/><text x="598.00" y="104.00" font-family="Inter, Arial, sans-serif" font-size="8" fill="#1F2933" text-anchor="middle" font-weight="400">67</text><rect x="622" y="76" width="46" height="46" fill="#2F6BFF" opacity="0.079"/><text x="646.00" y="104.00" font-family="Inter, Arial, sans-serif" font-size="8" fill="#1F2933" text-anchor="middle" font-weight="400">11</text><rect x="670" y="76" width="46" height="46" fill="#2F6BFF" opacity="0.079"/><text x="694.00" y="104.00" font-family="Inter, Arial, sans-serif" font-size="8" fill="#1F2933" text-anchor="middle" font-weight="400">11</text><rect x="718" y="76" width="46" height="46" fill="#2F6BFF" opacity="0.096"/><text x="742.00" y="104.00" font-family="Inter, Arial, sans-serif" font-size="8" fill="#1F2933" text-anchor="middle" font-weight="400">21</text><rect x="766" y="76" width="46" height="46" fill="#2F6BFF" opacity="0.072"/><text x="790.00" y="104.00" font-family="Inter, Arial, sans-serif" font-size="8" fill="#1F2933" text-anchor="middle" font-weight="400">7</text><rect x="814" y="76" width="46" height="46" fill="#2F6BFF" opacity="0.140"/><text x="838.00" y="104.00" font-family="Inter, Arial, sans-serif" font-size="8" fill="#1F2933" text-anchor="middle" font-weight="400">47</text><rect x="862" y="76" width="46" height="46" fill="#2F6BFF" opacity="0.062"/><text x="886.00" y="104.00" font-family="Inter, Arial, sans-serif" font-size="8" fill="#1F2933" text-anchor="middle" font-weight="400">1</text><rect x="190" y="124" width="46" height="46" fill="#2F6BFF" opacity="0.128"/><text x="214.00" y="152.00" font-family="Inter, Arial, sans-serif" font-size="8" fill="#1F2933" text-anchor="middle" font-weight="400">40</text><rect x="238" y="124" width="46" height="46" fill="#2F6BFF" opacity="0.060"/><rect x="286" y="124" width="46" height="46" fill="#2F6BFF" opacity="0.062"/><text x="310.00" y="152.00" font-family="Inter, Arial, sans-serif" font-size="8" fill="#1F2933" text-anchor="middle" font-weight="400">1</text><rect x="334" y="124" width="46" height="46" fill="#2F6BFF" opacity="0.060"/><rect x="382" y="124" width="46" height="46" fill="#2F6BFF" opacity="0.060"/><rect x="430" y="124" width="46" height="46" fill="#2F6BFF" opacity="0.082"/><text x="454.00" y="152.00" font-family="Inter, Arial, sans-serif" font-size="8" fill="#1F2933" text-anchor="middle" font-weight="400">13</text><rect x="478" y="124" width="46" height="46" fill="#2F6BFF" opacity="0.116"/><text x="502.00" y="152.00" font-family="Inter, Arial, sans-serif" font-size="8" fill="#1F2933" text-anchor="middle" font-weight="400">33</text><rect x="526" y="124" width="46" height="46" fill="#2F6BFF" opacity="0.130"/><text x="550.00" y="152.00" font-family="Inter, Arial, sans-serif" font-size="8" fill="#1F2933" text-anchor="middle" font-weight="400">41</text><rect x="574" y="124" width="46" height="46" fill="#2F6BFF" opacity="0.121"/><text x="598.00" y="152.00" font-family="Inter, Arial, sans-serif" font-size="8" fill="#1F2933" text-anchor="middle" font-weight="400">36</text><rect x="622" y="124" width="46" height="46" fill="#2F6BFF" opacity="0.069"/><text x="646.00" y="152.00" font-family="Inter, Arial, sans-serif" font-size="8" fill="#1F2933" text-anchor="middle" font-weight="400">5</text><rect x="670" y="124" width="46" height="46" fill="#2F6BFF" opacity="0.070"/><text x="694.00" y="152.00" font-family="Inter, Arial, sans-serif" font-size="8" fill="#1F2933" text-anchor="middle" font-weight="400">6</text><rect x="718" y="124" width="46" height="46" fill="#2F6BFF" opacity="0.084"/><text x="742.00" y="152.00" font-family="Inter, Arial, sans-serif" font-size="8" fill="#1F2933" text-anchor="middle" font-weight="400">14</text><rect x="766" y="124" width="46" height="46" fill="#2F6BFF" opacity="0.065"/><text x="790.00" y="152.00" font-family="Inter, Arial, sans-serif" font-size="8" fill="#1F2933" text-anchor="middle" font-weight="400">3</text><rect x="814" y="124" width="46" height="46" fill="#2F6BFF" opacity="0.118"/><text x="838.00" y="152.00" font-family="Inter, Arial, sans-serif" font-size="8" fill="#1F2933" text-anchor="middle" font-weight="400">34</text><rect x="862" y="124" width="46" height="46" fill="#2F6BFF" opacity="0.060"/><rect x="190" y="172" width="46" height="46" fill="#2F6BFF" opacity="0.062"/><text x="214.00" y="200.00" font-family="Inter, Arial, sans-serif" font-size="8" fill="#1F2933" text-anchor="middle" font-weight="400">1</text><rect x="238" y="172" width="46" height="46" fill="#2F6BFF" opacity="0.062"/><text x="262.00" y="200.00" font-family="Inter, Arial, sans-serif" font-size="8" fill="#1F2933" text-anchor="middle" font-weight="400">1</text><rect x="286" y="172" width="46" height="46" fill="#2F6BFF" opacity="0.060"/><rect x="334" y="172" width="46" height="46" fill="#2F6BFF" opacity="0.060"/><rect x="382" y="172" width="46" height="46" fill="#2F6BFF" opacity="0.060"/><rect x="430" y="172" width="46" height="46" fill="#2F6BFF" opacity="0.060"/><rect x="478" y="172" width="46" height="46" fill="#2F6BFF" opacity="0.063"/><text x="502.00" y="200.00" font-family="Inter, Arial, sans-serif" font-size="8" fill="#1F2933" text-anchor="middle" font-weight="400">2</text><rect x="526" y="172" width="46" height="46" fill="#2F6BFF" opacity="0.065"/><text x="550.00" y="200.00" font-family="Inter, Arial, sans-serif" font-size="8" fill="#1F2933" text-anchor="middle" font-weight="400">3</text><rect x="574" y="172" width="46" height="46" fill="#2F6BFF" opacity="0.065"/><text x="598.00" y="200.00" font-family="Inter, Arial, sans-serif" font-size="8" fill="#1F2933" text-anchor="middle" font-weight="400">3</text><rect x="622" y="172" width="46" height="46" fill="#2F6BFF" opacity="0.060"/><rect x="670" y="172" width="46" height="46" fill="#2F6BFF" opacity="0.060"/><rect x="718" y="172" width="46" height="46" fill="#2F6BFF" opacity="0.062"/><text x="742.00" y="200.00" font-family="Inter, Arial, sans-serif" font-size="8" fill="#1F2933" text-anchor="middle" font-weight="400">1</text><rect x="766" y="172" width="46" height="46" fill="#2F6BFF" opacity="0.060"/><rect x="814" y="172" width="46" height="46" fill="#2F6BFF" opacity="0.062"/><text x="838.00" y="200.00" font-family="Inter, Arial, sans-serif" font-size="8" fill="#1F2933" text-anchor="middle" font-weight="400">1</text><rect x="862" y="172" width="46" height="46" fill="#2F6BFF" opacity="0.060"/><rect x="190" y="220" width="46" height="46" fill="#2F6BFF" opacity="0.060"/><rect x="238" y="220" width="46" height="46" fill="#2F6BFF" opacity="0.060"/><rect x="286" y="220" width="46" height="46" fill="#2F6BFF" opacity="0.060"/><rect x="334" y="220" width="46" height="46" fill="#2F6BFF" opacity="0.060"/><rect x="382" y="220" width="46" height="46" fill="#2F6BFF" opacity="0.060"/><rect x="430" y="220" width="46" height="46" fill="#2F6BFF" opacity="0.060"/><rect x="478" y="220" width="46" height="46" fill="#2F6BFF" opacity="0.060"/><rect x="526" y="220" width="46" height="46" fill="#2F6BFF" opacity="0.060"/><rect x="574" y="220" width="46" height="46" fill="#2F6BFF" opacity="0.060"/><rect x="622" y="220" width="46" height="46" fill="#2F6BFF" opacity="0.060"/><rect x="670" y="220" width="46" height="46" fill="#2F6BFF" opacity="0.060"/><rect x="718" y="220" width="46" height="46" fill="#2F6BFF" opacity="0.060"/><rect x="766" y="220" width="46" height="46" fill="#2F6BFF" opacity="0.060"/><rect x="814" y="220" width="46" height="46" fill="#2F6BFF" opacity="0.060"/><rect x="862" y="220" width="46" height="46" fill="#2F6BFF" opacity="0.060"/><rect x="190" y="268" width="46" height="46" fill="#2F6BFF" opacity="0.060"/><rect x="238" y="268" width="46" height="46" fill="#2F6BFF" opacity="0.060"/><rect x="286" y="268" width="46" height="46" fill="#2F6BFF" opacity="0.060"/><rect x="334" y="268" width="46" height="46" fill="#2F6BFF" opacity="0.060"/><rect x="382" y="268" width="46" height="46" fill="#2F6BFF" opacity="0.060"/><rect x="430" y="268" width="46" height="46" fill="#2F6BFF" opacity="0.060"/><rect x="478" y="268" width="46" height="46" fill="#2F6BFF" opacity="0.060"/><rect x="526" y="268" width="46" height="46" fill="#2F6BFF" opacity="0.060"/><rect x="574" y="268" width="46" height="46" fill="#2F6BFF" opacity="0.060"/><rect x="622" y="268" width="46" height="46" fill="#2F6BFF" opacity="0.060"/><rect x="670" y="268" width="46" height="46" fill="#2F6BFF" opacity="0.060"/><rect x="718" y="268" width="46" height="46" fill="#2F6BFF" opacity="0.060"/><rect x="766" y="268" width="46" height="46" fill="#2F6BFF" opacity="0.060"/><rect x="814" y="268" width="46" height="46" fill="#2F6BFF" opacity="0.060"/><rect x="862" y="268" width="46" height="46" fill="#2F6BFF" opacity="0.060"/><rect x="190" y="316" width="46" height="46" fill="#2F6BFF" opacity="0.092"/><text x="214.00" y="344.00" font-family="Inter, Arial, sans-serif" font-size="8" fill="#1F2933" text-anchor="middle" font-weight="400">19</text><rect x="238" y="316" width="46" height="46" fill="#2F6BFF" opacity="0.082"/><text x="262.00" y="344.00" font-family="Inter, Arial, sans-serif" font-size="8" fill="#1F2933" text-anchor="middle" font-weight="400">13</text><rect x="286" y="316" width="46" height="46" fill="#2F6BFF" opacity="0.060"/><rect x="334" y="316" width="46" height="46" fill="#2F6BFF" opacity="0.060"/><rect x="382" y="316" width="46" height="46" fill="#2F6BFF" opacity="0.060"/><rect x="430" y="316" width="46" height="46" fill="#2F6BFF" opacity="0.060"/><rect x="478" y="316" width="46" height="46" fill="#2F6BFF" opacity="0.189"/><text x="502.00" y="344.00" font-family="Inter, Arial, sans-serif" font-size="8" fill="#1F2933" text-anchor="middle" font-weight="400">76</text><rect x="526" y="316" width="46" height="46" fill="#2F6BFF" opacity="0.230"/><text x="550.00" y="344.00" font-family="Inter, Arial, sans-serif" font-size="8" fill="#1F2933" text-anchor="middle" font-weight="400">100</text><rect x="574" y="316" width="46" height="46" fill="#2F6BFF" opacity="0.193"/><text x="598.00" y="344.00" font-family="Inter, Arial, sans-serif" font-size="8" fill="#1F2933" text-anchor="middle" font-weight="400">78</text><rect x="622" y="316" width="46" height="46" fill="#2F6BFF" opacity="0.067"/><text x="646.00" y="344.00" font-family="Inter, Arial, sans-serif" font-size="8" fill="#1F2933" text-anchor="middle" font-weight="400">4</text><rect x="670" y="316" width="46" height="46" fill="#2F6BFF" opacity="0.077"/><text x="694.00" y="344.00" font-family="Inter, Arial, sans-serif" font-size="8" fill="#1F2933" text-anchor="middle" font-weight="400">10</text><rect x="718" y="316" width="46" height="46" fill="#2F6BFF" opacity="0.101"/><text x="742.00" y="344.00" font-family="Inter, Arial, sans-serif" font-size="8" fill="#1F2933" text-anchor="middle" font-weight="400">24</text><rect x="766" y="316" width="46" height="46" fill="#2F6BFF" opacity="0.069"/><text x="790.00" y="344.00" font-family="Inter, Arial, sans-serif" font-size="8" fill="#1F2933" text-anchor="middle" font-weight="400">5</text><rect x="814" y="316" width="46" height="46" fill="#2F6BFF" opacity="0.143"/><text x="838.00" y="344.00" font-family="Inter, Arial, sans-serif" font-size="8" fill="#1F2933" text-anchor="middle" font-weight="400">49</text><rect x="862" y="316" width="46" height="46" fill="#2F6BFF" opacity="0.067"/><text x="886.00" y="344.00" font-family="Inter, Arial, sans-serif" font-size="8" fill="#1F2933" text-anchor="middle" font-weight="400">4</text><rect x="190" y="364" width="46" height="46" fill="#2F6BFF" opacity="0.137"/><text x="214.00" y="392.00" font-family="Inter, Arial, sans-serif" font-size="8" fill="#1F2933" text-anchor="middle" font-weight="400">45</text><rect x="238" y="364" width="46" height="46" fill="#2F6BFF" opacity="0.116"/><text x="262.00" y="392.00" font-family="Inter, Arial, sans-serif" font-size="8" fill="#1F2933" text-anchor="middle" font-weight="400">33</text><rect x="286" y="364" width="46" height="46" fill="#2F6BFF" opacity="0.063"/><text x="310.00" y="392.00" font-family="Inter, Arial, sans-serif" font-size="8" fill="#1F2933" text-anchor="middle" font-weight="400">2</text><rect x="334" y="364" width="46" height="46" fill="#2F6BFF" opacity="0.060"/><rect x="382" y="364" width="46" height="46" fill="#2F6BFF" opacity="0.060"/><rect x="430" y="364" width="46" height="46" fill="#2F6BFF" opacity="0.189"/><text x="454.00" y="392.00" font-family="Inter, Arial, sans-serif" font-size="8" fill="#1F2933" text-anchor="middle" font-weight="400">76</text><rect x="478" y="364" width="46" height="46" fill="#2F6BFF" opacity="0.060"/><rect x="526" y="364" width="46" height="46" fill="#2F6BFF" opacity="0.582"/><text x="550.00" y="392.00" font-family="Inter, Arial, sans-serif" font-size="8" fill="#1F2933" text-anchor="middle" font-weight="400">307</text><rect x="574" y="364" width="46" height="46" fill="#2F6BFF" opacity="0.514"/><text x="598.00" y="392.00" font-family="Inter, Arial, sans-serif" font-size="8" fill="#1F2933" text-anchor="middle" font-weight="400">267</text><rect x="622" y="364" width="46" height="46" fill="#2F6BFF" opacity="0.089"/><text x="646.00" y="392.00" font-family="Inter, Arial, sans-serif" font-size="8" fill="#1F2933" text-anchor="middle" font-weight="400">17</text><rect x="670" y="364" width="46" height="46" fill="#2F6BFF" opacity="0.106"/><text x="694.00" y="392.00" font-family="Inter, Arial, sans-serif" font-size="8" fill="#1F2933" text-anchor="middle" font-weight="400">27</text><rect x="718" y="364" width="46" height="46" fill="#2F6BFF" opacity="0.160"/><text x="742.00" y="392.00" font-family="Inter, Arial, sans-serif" font-size="8" fill="#1F2933" text-anchor="middle" font-weight="400">59</text><rect x="766" y="364" width="46" height="46" fill="#2F6BFF" opacity="0.089"/><text x="790.00" y="392.00" font-family="Inter, Arial, sans-serif" font-size="8" fill="#1F2933" text-anchor="middle" font-weight="400">17</text><rect x="814" y="364" width="46" height="46" fill="#2F6BFF" opacity="0.334"/><text x="838.00" y="392.00" font-family="Inter, Arial, sans-serif" font-size="8" fill="#1F2933" text-anchor="middle" font-weight="400">161</text><rect x="862" y="364" width="46" height="46" fill="#2F6BFF" opacity="0.075"/><text x="886.00" y="392.00" font-family="Inter, Arial, sans-serif" font-size="8" fill="#1F2933" text-anchor="middle" font-weight="400">9</text><rect x="190" y="412" width="46" height="46" fill="#2F6BFF" opacity="0.191"/><text x="214.00" y="440.00" font-family="Inter, Arial, sans-serif" font-size="8" fill="#1F2933" text-anchor="middle" font-weight="400">77</text><rect x="238" y="412" width="46" height="46" fill="#2F6BFF" opacity="0.130"/><text x="262.00" y="440.00" font-family="Inter, Arial, sans-serif" font-size="8" fill="#1F2933" text-anchor="middle" font-weight="400">41</text><rect x="286" y="412" width="46" height="46" fill="#2F6BFF" opacity="0.065"/><text x="310.00" y="440.00" font-family="Inter, Arial, sans-serif" font-size="8" fill="#1F2933" text-anchor="middle" font-weight="400">3</text><rect x="334" y="412" width="46" height="46" fill="#2F6BFF" opacity="0.060"/><rect x="382" y="412" width="46" height="46" fill="#2F6BFF" opacity="0.060"/><rect x="430" y="412" width="46" height="46" fill="#2F6BFF" opacity="0.230"/><text x="454.00" y="440.00" font-family="Inter, Arial, sans-serif" font-size="8" fill="#1F2933" text-anchor="middle" font-weight="400">100</text><rect x="478" y="412" width="46" height="46" fill="#2F6BFF" opacity="0.582"/><text x="502.00" y="440.00" font-family="Inter, Arial, sans-serif" font-size="8" fill="#1F2933" text-anchor="middle" font-weight="400">307</text><rect x="526" y="412" width="46" height="46" fill="#2F6BFF" opacity="0.060"/><rect x="574" y="412" width="46" height="46" fill="#2F6BFF" opacity="0.900"/><text x="598.00" y="440.00" font-family="Inter, Arial, sans-serif" font-size="8" fill="#1F2933" text-anchor="middle" font-weight="400">494</text><rect x="622" y="412" width="46" height="46" fill="#2F6BFF" opacity="0.118"/><text x="646.00" y="440.00" font-family="Inter, Arial, sans-serif" font-size="8" fill="#1F2933" text-anchor="middle" font-weight="400">34</text><rect x="670" y="412" width="46" height="46" fill="#2F6BFF" opacity="0.147"/><text x="694.00" y="440.00" font-family="Inter, Arial, sans-serif" font-size="8" fill="#1F2933" text-anchor="middle" font-weight="400">51</text><rect x="718" y="412" width="46" height="46" fill="#2F6BFF" opacity="0.228"/><text x="742.00" y="440.00" font-family="Inter, Arial, sans-serif" font-size="8" fill="#1F2933" text-anchor="middle" font-weight="400">99</text><rect x="766" y="412" width="46" height="46" fill="#2F6BFF" opacity="0.096"/><text x="790.00" y="440.00" font-family="Inter, Arial, sans-serif" font-size="8" fill="#1F2933" text-anchor="middle" font-weight="400">21</text><rect x="814" y="412" width="46" height="46" fill="#2F6BFF" opacity="0.599"/><text x="838.00" y="440.00" font-family="Inter, Arial, sans-serif" font-size="8" fill="#1F2933" text-anchor="middle" font-weight="400">317</text><rect x="862" y="412" width="46" height="46" fill="#2F6BFF" opacity="0.077"/><text x="886.00" y="440.00" font-family="Inter, Arial, sans-serif" font-size="8" fill="#1F2933" text-anchor="middle" font-weight="400">10</text><rect x="190" y="460" width="46" height="46" fill="#2F6BFF" opacity="0.174"/><text x="214.00" y="488.00" font-family="Inter, Arial, sans-serif" font-size="8" fill="#1F2933" text-anchor="middle" font-weight="400">67</text><rect x="238" y="460" width="46" height="46" fill="#2F6BFF" opacity="0.121"/><text x="262.00" y="488.00" font-family="Inter, Arial, sans-serif" font-size="8" fill="#1F2933" text-anchor="middle" font-weight="400">36</text><rect x="286" y="460" width="46" height="46" fill="#2F6BFF" opacity="0.065"/><text x="310.00" y="488.00" font-family="Inter, Arial, sans-serif" font-size="8" fill="#1F2933" text-anchor="middle" font-weight="400">3</text><rect x="334" y="460" width="46" height="46" fill="#2F6BFF" opacity="0.060"/><rect x="382" y="460" width="46" height="46" fill="#2F6BFF" opacity="0.060"/><rect x="430" y="460" width="46" height="46" fill="#2F6BFF" opacity="0.193"/><text x="454.00" y="488.00" font-family="Inter, Arial, sans-serif" font-size="8" fill="#1F2933" text-anchor="middle" font-weight="400">78</text><rect x="478" y="460" width="46" height="46" fill="#2F6BFF" opacity="0.514"/><text x="502.00" y="488.00" font-family="Inter, Arial, sans-serif" font-size="8" fill="#1F2933" text-anchor="middle" font-weight="400">267</text><rect x="526" y="460" width="46" height="46" fill="#2F6BFF" opacity="0.900"/><text x="550.00" y="488.00" font-family="Inter, Arial, sans-serif" font-size="8" fill="#1F2933" text-anchor="middle" font-weight="400">494</text><rect x="574" y="460" width="46" height="46" fill="#2F6BFF" opacity="0.060"/><rect x="622" y="460" width="46" height="46" fill="#2F6BFF" opacity="0.111"/><text x="646.00" y="488.00" font-family="Inter, Arial, sans-serif" font-size="8" fill="#1F2933" text-anchor="middle" font-weight="400">30</text><rect x="670" y="460" width="46" height="46" fill="#2F6BFF" opacity="0.145"/><text x="694.00" y="488.00" font-family="Inter, Arial, sans-serif" font-size="8" fill="#1F2933" text-anchor="middle" font-weight="400">50</text><rect x="718" y="460" width="46" height="46" fill="#2F6BFF" opacity="0.215"/><text x="742.00" y="488.00" font-family="Inter, Arial, sans-serif" font-size="8" fill="#1F2933" text-anchor="middle" font-weight="400">91</text><rect x="766" y="460" width="46" height="46" fill="#2F6BFF" opacity="0.096"/><text x="790.00" y="488.00" font-family="Inter, Arial, sans-serif" font-size="8" fill="#1F2933" text-anchor="middle" font-weight="400">21</text><rect x="814" y="460" width="46" height="46" fill="#2F6BFF" opacity="0.468"/><text x="838.00" y="488.00" font-family="Inter, Arial, sans-serif" font-size="8" fill="#1F2933" text-anchor="middle" font-weight="400">240</text><rect x="862" y="460" width="46" height="46" fill="#2F6BFF" opacity="0.077"/><text x="886.00" y="488.00" font-family="Inter, Arial, sans-serif" font-size="8" fill="#1F2933" text-anchor="middle" font-weight="400">10</text><rect x="190" y="508" width="46" height="46" fill="#2F6BFF" opacity="0.079"/><text x="214.00" y="536.00" font-family="Inter, Arial, sans-serif" font-size="8" fill="#1F2933" text-anchor="middle" font-weight="400">11</text><rect x="238" y="508" width="46" height="46" fill="#2F6BFF" opacity="0.069"/><text x="262.00" y="536.00" font-family="Inter, Arial, sans-serif" font-size="8" fill="#1F2933" text-anchor="middle" font-weight="400">5</text><rect x="286" y="508" width="46" height="46" fill="#2F6BFF" opacity="0.060"/><rect x="334" y="508" width="46" height="46" fill="#2F6BFF" opacity="0.060"/><rect x="382" y="508" width="46" height="46" fill="#2F6BFF" opacity="0.060"/><rect x="430" y="508" width="46" height="46" fill="#2F6BFF" opacity="0.067"/><text x="454.00" y="536.00" font-family="Inter, Arial, sans-serif" font-size="8" fill="#1F2933" text-anchor="middle" font-weight="400">4</text><rect x="478" y="508" width="46" height="46" fill="#2F6BFF" opacity="0.089"/><text x="502.00" y="536.00" font-family="Inter, Arial, sans-serif" font-size="8" fill="#1F2933" text-anchor="middle" font-weight="400">17</text><rect x="526" y="508" width="46" height="46" fill="#2F6BFF" opacity="0.118"/><text x="550.00" y="536.00" font-family="Inter, Arial, sans-serif" font-size="8" fill="#1F2933" text-anchor="middle" font-weight="400">34</text><rect x="574" y="508" width="46" height="46" fill="#2F6BFF" opacity="0.111"/><text x="598.00" y="536.00" font-family="Inter, Arial, sans-serif" font-size="8" fill="#1F2933" text-anchor="middle" font-weight="400">30</text><rect x="622" y="508" width="46" height="46" fill="#2F6BFF" opacity="0.060"/><rect x="670" y="508" width="46" height="46" fill="#2F6BFF" opacity="0.079"/><text x="694.00" y="536.00" font-family="Inter, Arial, sans-serif" font-size="8" fill="#1F2933" text-anchor="middle" font-weight="400">11</text><rect x="718" y="508" width="46" height="46" fill="#2F6BFF" opacity="0.099"/><text x="742.00" y="536.00" font-family="Inter, Arial, sans-serif" font-size="8" fill="#1F2933" text-anchor="middle" font-weight="400">23</text><rect x="766" y="508" width="46" height="46" fill="#2F6BFF" opacity="0.082"/><text x="790.00" y="536.00" font-family="Inter, Arial, sans-serif" font-size="8" fill="#1F2933" text-anchor="middle" font-weight="400">13</text><rect x="814" y="508" width="46" height="46" fill="#2F6BFF" opacity="0.101"/><text x="838.00" y="536.00" font-family="Inter, Arial, sans-serif" font-size="8" fill="#1F2933" text-anchor="middle" font-weight="400">24</text><rect x="862" y="508" width="46" height="46" fill="#2F6BFF" opacity="0.063"/><text x="886.00" y="536.00" font-family="Inter, Arial, sans-serif" font-size="8" fill="#1F2933" text-anchor="middle" font-weight="400">2</text><rect x="190" y="556" width="46" height="46" fill="#2F6BFF" opacity="0.079"/><text x="214.00" y="584.00" font-family="Inter, Arial, sans-serif" font-size="8" fill="#1F2933" text-anchor="middle" font-weight="400">11</text><rect x="238" y="556" width="46" height="46" fill="#2F6BFF" opacity="0.070"/><text x="262.00" y="584.00" font-family="Inter, Arial, sans-serif" font-size="8" fill="#1F2933" text-anchor="middle" font-weight="400">6</text><rect x="286" y="556" width="46" height="46" fill="#2F6BFF" opacity="0.060"/><rect x="334" y="556" width="46" height="46" fill="#2F6BFF" opacity="0.060"/><rect x="382" y="556" width="46" height="46" fill="#2F6BFF" opacity="0.060"/><rect x="430" y="556" width="46" height="46" fill="#2F6BFF" opacity="0.077"/><text x="454.00" y="584.00" font-family="Inter, Arial, sans-serif" font-size="8" fill="#1F2933" text-anchor="middle" font-weight="400">10</text><rect x="478" y="556" width="46" height="46" fill="#2F6BFF" opacity="0.106"/><text x="502.00" y="584.00" font-family="Inter, Arial, sans-serif" font-size="8" fill="#1F2933" text-anchor="middle" font-weight="400">27</text><rect x="526" y="556" width="46" height="46" fill="#2F6BFF" opacity="0.147"/><text x="550.00" y="584.00" font-family="Inter, Arial, sans-serif" font-size="8" fill="#1F2933" text-anchor="middle" font-weight="400">51</text><rect x="574" y="556" width="46" height="46" fill="#2F6BFF" opacity="0.145"/><text x="598.00" y="584.00" font-family="Inter, Arial, sans-serif" font-size="8" fill="#1F2933" text-anchor="middle" font-weight="400">50</text><rect x="622" y="556" width="46" height="46" fill="#2F6BFF" opacity="0.079"/><text x="646.00" y="584.00" font-family="Inter, Arial, sans-serif" font-size="8" fill="#1F2933" text-anchor="middle" font-weight="400">11</text><rect x="670" y="556" width="46" height="46" fill="#2F6BFF" opacity="0.060"/><rect x="718" y="556" width="46" height="46" fill="#2F6BFF" opacity="0.091"/><text x="742.00" y="584.00" font-family="Inter, Arial, sans-serif" font-size="8" fill="#1F2933" text-anchor="middle" font-weight="400">18</text><rect x="766" y="556" width="46" height="46" fill="#2F6BFF" opacity="0.074"/><text x="790.00" y="584.00" font-family="Inter, Arial, sans-serif" font-size="8" fill="#1F2933" text-anchor="middle" font-weight="400">8</text><rect x="814" y="556" width="46" height="46" fill="#2F6BFF" opacity="0.123"/><text x="838.00" y="584.00" font-family="Inter, Arial, sans-serif" font-size="8" fill="#1F2933" text-anchor="middle" font-weight="400">37</text><rect x="862" y="556" width="46" height="46" fill="#2F6BFF" opacity="0.067"/><text x="886.00" y="584.00" font-family="Inter, Arial, sans-serif" font-size="8" fill="#1F2933" text-anchor="middle" font-weight="400">4</text><rect x="190" y="604" width="46" height="46" fill="#2F6BFF" opacity="0.096"/><text x="214.00" y="632.00" font-family="Inter, Arial, sans-serif" font-size="8" fill="#1F2933" text-anchor="middle" font-weight="400">21</text><rect x="238" y="604" width="46" height="46" fill="#2F6BFF" opacity="0.084"/><text x="262.00" y="632.00" font-family="Inter, Arial, sans-serif" font-size="8" fill="#1F2933" text-anchor="middle" font-weight="400">14</text><rect x="286" y="604" width="46" height="46" fill="#2F6BFF" opacity="0.062"/><text x="310.00" y="632.00" font-family="Inter, Arial, sans-serif" font-size="8" fill="#1F2933" text-anchor="middle" font-weight="400">1</text><rect x="334" y="604" width="46" height="46" fill="#2F6BFF" opacity="0.060"/><rect x="382" y="604" width="46" height="46" fill="#2F6BFF" opacity="0.060"/><rect x="430" y="604" width="46" height="46" fill="#2F6BFF" opacity="0.101"/><text x="454.00" y="632.00" font-family="Inter, Arial, sans-serif" font-size="8" fill="#1F2933" text-anchor="middle" font-weight="400">24</text><rect x="478" y="604" width="46" height="46" fill="#2F6BFF" opacity="0.160"/><text x="502.00" y="632.00" font-family="Inter, Arial, sans-serif" font-size="8" fill="#1F2933" text-anchor="middle" font-weight="400">59</text><rect x="526" y="604" width="46" height="46" fill="#2F6BFF" opacity="0.228"/><text x="550.00" y="632.00" font-family="Inter, Arial, sans-serif" font-size="8" fill="#1F2933" text-anchor="middle" font-weight="400">99</text><rect x="574" y="604" width="46" height="46" fill="#2F6BFF" opacity="0.215"/><text x="598.00" y="632.00" font-family="Inter, Arial, sans-serif" font-size="8" fill="#1F2933" text-anchor="middle" font-weight="400">91</text><rect x="622" y="604" width="46" height="46" fill="#2F6BFF" opacity="0.099"/><text x="646.00" y="632.00" font-family="Inter, Arial, sans-serif" font-size="8" fill="#1F2933" text-anchor="middle" font-weight="400">23</text><rect x="670" y="604" width="46" height="46" fill="#2F6BFF" opacity="0.091"/><text x="694.00" y="632.00" font-family="Inter, Arial, sans-serif" font-size="8" fill="#1F2933" text-anchor="middle" font-weight="400">18</text><rect x="718" y="604" width="46" height="46" fill="#2F6BFF" opacity="0.060"/><rect x="766" y="604" width="46" height="46" fill="#2F6BFF" opacity="0.086"/><text x="790.00" y="632.00" font-family="Inter, Arial, sans-serif" font-size="8" fill="#1F2933" text-anchor="middle" font-weight="400">15</text><rect x="814" y="604" width="46" height="46" fill="#2F6BFF" opacity="0.177"/><text x="838.00" y="632.00" font-family="Inter, Arial, sans-serif" font-size="8" fill="#1F2933" text-anchor="middle" font-weight="400">69</text><rect x="862" y="604" width="46" height="46" fill="#2F6BFF" opacity="0.067"/><text x="886.00" y="632.00" font-family="Inter, Arial, sans-serif" font-size="8" fill="#1F2933" text-anchor="middle" font-weight="400">4</text><rect x="190" y="652" width="46" height="46" fill="#2F6BFF" opacity="0.072"/><text x="214.00" y="680.00" font-family="Inter, Arial, sans-serif" font-size="8" fill="#1F2933" text-anchor="middle" font-weight="400">7</text><rect x="238" y="652" width="46" height="46" fill="#2F6BFF" opacity="0.065"/><text x="262.00" y="680.00" font-family="Inter, Arial, sans-serif" font-size="8" fill="#1F2933" text-anchor="middle" font-weight="400">3</text><rect x="286" y="652" width="46" height="46" fill="#2F6BFF" opacity="0.060"/><rect x="334" y="652" width="46" height="46" fill="#2F6BFF" opacity="0.060"/><rect x="382" y="652" width="46" height="46" fill="#2F6BFF" opacity="0.060"/><rect x="430" y="652" width="46" height="46" fill="#2F6BFF" opacity="0.069"/><text x="454.00" y="680.00" font-family="Inter, Arial, sans-serif" font-size="8" fill="#1F2933" text-anchor="middle" font-weight="400">5</text><rect x="478" y="652" width="46" height="46" fill="#2F6BFF" opacity="0.089"/><text x="502.00" y="680.00" font-family="Inter, Arial, sans-serif" font-size="8" fill="#1F2933" text-anchor="middle" font-weight="400">17</text><rect x="526" y="652" width="46" height="46" fill="#2F6BFF" opacity="0.096"/><text x="550.00" y="680.00" font-family="Inter, Arial, sans-serif" font-size="8" fill="#1F2933" text-anchor="middle" font-weight="400">21</text><rect x="574" y="652" width="46" height="46" fill="#2F6BFF" opacity="0.096"/><text x="598.00" y="680.00" font-family="Inter, Arial, sans-serif" font-size="8" fill="#1F2933" text-anchor="middle" font-weight="400">21</text><rect x="622" y="652" width="46" height="46" fill="#2F6BFF" opacity="0.082"/><text x="646.00" y="680.00" font-family="Inter, Arial, sans-serif" font-size="8" fill="#1F2933" text-anchor="middle" font-weight="400">13</text><rect x="670" y="652" width="46" height="46" fill="#2F6BFF" opacity="0.074"/><text x="694.00" y="680.00" font-family="Inter, Arial, sans-serif" font-size="8" fill="#1F2933" text-anchor="middle" font-weight="400">8</text><rect x="718" y="652" width="46" height="46" fill="#2F6BFF" opacity="0.086"/><text x="742.00" y="680.00" font-family="Inter, Arial, sans-serif" font-size="8" fill="#1F2933" text-anchor="middle" font-weight="400">15</text><rect x="766" y="652" width="46" height="46" fill="#2F6BFF" opacity="0.060"/><rect x="814" y="652" width="46" height="46" fill="#2F6BFF" opacity="0.092"/><text x="838.00" y="680.00" font-family="Inter, Arial, sans-serif" font-size="8" fill="#1F2933" text-anchor="middle" font-weight="400">19</text><rect x="862" y="652" width="46" height="46" fill="#2F6BFF" opacity="0.067"/><text x="886.00" y="680.00" font-family="Inter, Arial, sans-serif" font-size="8" fill="#1F2933" text-anchor="middle" font-weight="400">4</text><rect x="190" y="700" width="46" height="46" fill="#2F6BFF" opacity="0.140"/><text x="214.00" y="728.00" font-family="Inter, Arial, sans-serif" font-size="8" fill="#1F2933" text-anchor="middle" font-weight="400">47</text><rect x="238" y="700" width="46" height="46" fill="#2F6BFF" opacity="0.118"/><text x="262.00" y="728.00" font-family="Inter, Arial, sans-serif" font-size="8" fill="#1F2933" text-anchor="middle" font-weight="400">34</text><rect x="286" y="700" width="46" height="46" fill="#2F6BFF" opacity="0.062"/><text x="310.00" y="728.00" font-family="Inter, Arial, sans-serif" font-size="8" fill="#1F2933" text-anchor="middle" font-weight="400">1</text><rect x="334" y="700" width="46" height="46" fill="#2F6BFF" opacity="0.060"/><rect x="382" y="700" width="46" height="46" fill="#2F6BFF" opacity="0.060"/><rect x="430" y="700" width="46" height="46" fill="#2F6BFF" opacity="0.143"/><text x="454.00" y="728.00" font-family="Inter, Arial, sans-serif" font-size="8" fill="#1F2933" text-anchor="middle" font-weight="400">49</text><rect x="478" y="700" width="46" height="46" fill="#2F6BFF" opacity="0.334"/><text x="502.00" y="728.00" font-family="Inter, Arial, sans-serif" font-size="8" fill="#1F2933" text-anchor="middle" font-weight="400">161</text><rect x="526" y="700" width="46" height="46" fill="#2F6BFF" opacity="0.599"/><text x="550.00" y="728.00" font-family="Inter, Arial, sans-serif" font-size="8" fill="#1F2933" text-anchor="middle" font-weight="400">317</text><rect x="574" y="700" width="46" height="46" fill="#2F6BFF" opacity="0.468"/><text x="598.00" y="728.00" font-family="Inter, Arial, sans-serif" font-size="8" fill="#1F2933" text-anchor="middle" font-weight="400">240</text><rect x="622" y="700" width="46" height="46" fill="#2F6BFF" opacity="0.101"/><text x="646.00" y="728.00" font-family="Inter, Arial, sans-serif" font-size="8" fill="#1F2933" text-anchor="middle" font-weight="400">24</text><rect x="670" y="700" width="46" height="46" fill="#2F6BFF" opacity="0.123"/><text x="694.00" y="728.00" font-family="Inter, Arial, sans-serif" font-size="8" fill="#1F2933" text-anchor="middle" font-weight="400">37</text><rect x="718" y="700" width="46" height="46" fill="#2F6BFF" opacity="0.177"/><text x="742.00" y="728.00" font-family="Inter, Arial, sans-serif" font-size="8" fill="#1F2933" text-anchor="middle" font-weight="400">69</text><rect x="766" y="700" width="46" height="46" fill="#2F6BFF" opacity="0.092"/><text x="790.00" y="728.00" font-family="Inter, Arial, sans-serif" font-size="8" fill="#1F2933" text-anchor="middle" font-weight="400">19</text><rect x="814" y="700" width="46" height="46" fill="#2F6BFF" opacity="0.060"/><rect x="862" y="700" width="46" height="46" fill="#2F6BFF" opacity="0.070"/><text x="886.00" y="728.00" font-family="Inter, Arial, sans-serif" font-size="8" fill="#1F2933" text-anchor="middle" font-weight="400">6</text><rect x="190" y="748" width="46" height="46" fill="#2F6BFF" opacity="0.062"/><text x="214.00" y="776.00" font-family="Inter, Arial, sans-serif" font-size="8" fill="#1F2933" text-anchor="middle" font-weight="400">1</text><rect x="238" y="748" width="46" height="46" fill="#2F6BFF" opacity="0.060"/><rect x="286" y="748" width="46" height="46" fill="#2F6BFF" opacity="0.060"/><rect x="334" y="748" width="46" height="46" fill="#2F6BFF" opacity="0.060"/><rect x="382" y="748" width="46" height="46" fill="#2F6BFF" opacity="0.060"/><rect x="430" y="748" width="46" height="46" fill="#2F6BFF" opacity="0.067"/><text x="454.00" y="776.00" font-family="Inter, Arial, sans-serif" font-size="8" fill="#1F2933" text-anchor="middle" font-weight="400">4</text><rect x="478" y="748" width="46" height="46" fill="#2F6BFF" opacity="0.075"/><text x="502.00" y="776.00" font-family="Inter, Arial, sans-serif" font-size="8" fill="#1F2933" text-anchor="middle" font-weight="400">9</text><rect x="526" y="748" width="46" height="46" fill="#2F6BFF" opacity="0.077"/><text x="550.00" y="776.00" font-family="Inter, Arial, sans-serif" font-size="8" fill="#1F2933" text-anchor="middle" font-weight="400">10</text><rect x="574" y="748" width="46" height="46" fill="#2F6BFF" opacity="0.077"/><text x="598.00" y="776.00" font-family="Inter, Arial, sans-serif" font-size="8" fill="#1F2933" text-anchor="middle" font-weight="400">10</text><rect x="622" y="748" width="46" height="46" fill="#2F6BFF" opacity="0.063"/><text x="646.00" y="776.00" font-family="Inter, Arial, sans-serif" font-size="8" fill="#1F2933" text-anchor="middle" font-weight="400">2</text><rect x="670" y="748" width="46" height="46" fill="#2F6BFF" opacity="0.067"/><text x="694.00" y="776.00" font-family="Inter, Arial, sans-serif" font-size="8" fill="#1F2933" text-anchor="middle" font-weight="400">4</text><rect x="718" y="748" width="46" height="46" fill="#2F6BFF" opacity="0.067"/><text x="742.00" y="776.00" font-family="Inter, Arial, sans-serif" font-size="8" fill="#1F2933" text-anchor="middle" font-weight="400">4</text><rect x="766" y="748" width="46" height="46" fill="#2F6BFF" opacity="0.067"/><text x="790.00" y="776.00" font-family="Inter, Arial, sans-serif" font-size="8" fill="#1F2933" text-anchor="middle" font-weight="400">4</text><rect x="814" y="748" width="46" height="46" fill="#2F6BFF" opacity="0.070"/><text x="838.00" y="776.00" font-family="Inter, Arial, sans-serif" font-size="8" fill="#1F2933" text-anchor="middle" font-weight="400">6</text><rect x="862" y="748" width="46" height="46" fill="#2F6BFF" opacity="0.060"/></svg>
