<svg xmlns="http://www.w3.org/2000/svg" width="960" height="790" viewBox="0 0 960 790" role="img" aria-label="Under vs over rates by feature"><rect width="100%" height="100%" fill="#FFFFFF"/><text x="24.00" y="30.00" font-family="Inter, Arial, sans-serif" font-size="17" fill="#1F2933" text-anchor="start" font-weight="700">Under vs over rates by feature</text><rect x="855" y="45" width="12" height="12" fill="#008C7D"/><text x="872.00" y="56.00" font-family="Inter, Arial, sans-serif" font-size="11" fill="#1F2933" text-anchor="start" font-weight="400">under</text><rect x="855" y="64" width="12" height="12" fill="#D96C06"/><text x="872.00" y="75.00" font-family="Inter, Arial, sans-serif" font-size="11" fill="#1F2933" text-anchor="start" font-weight="400">over</text><line x1="240.00" y1="58" x2="240.00" y2="740" stroke="#D9DEE5" stroke-width="1"/><text x="240.00" y="770.00" font-family="Inter, Arial, sans-serif" font-size="10" fill="#1F2933" text-anchor="middle" font-weight="400">0.0%</text><line x1="360.00" y1="58" x2="360.00" y2="740" stroke="#D9DEE5" stroke-width="1"/><text x="360.00" y="770.00" font-family="Inter, Arial, sans-serif" font-size="10" fill="#1F2933" text-anchor="middle" font-weight="400">20.0%</text><line x1="480.00" y1="58" x2="480.00" y2="740" stroke="#D9DEE5" stroke-width="1"/><text x="480.00" y="770.00" font-family="Inter, Arial, sans-serif" font-size="10" fill="#1F2933" text-anchor="middle" font-weight="400">40.0%</text><line x1="600.00" y1="58" x2="600.00" y2="740" stroke="#D9DEE5" stroke-width="1"/><text x="600.00" y="770.00" font-family="Inter, Arial, sans-serif" font-size="10" fill="#1F2933" text-anchor="middle" font-weight="400">60.0%</text><line x1="720.00" y1="58" x2="720.00" y2="740" stroke="#D9DEE5" stroke-width="1"/><text x="720.00" y="770.00" font-family="Inter, Arial, sans-serif" font-size="10" fill="#1F2933" text-anchor="middle" font-weight="400">80.0%</text><line x1="840.00" y1="58" x2="840.00" y2="740" stroke="#D9DEE5" stroke-width="1"/><text x="840.00" y="770.00" font-family="Inter, Arial, sans-serif" font-size="10" fill="#1F2933" text-anchor="middle" font-weight="400">100.0%</text><text x="230.00" y="87.00" font-family="Inter, Arial, sans-serif" font-size="11" fill="#1F2933" text-anchor="end" font-weight="400">has_patternProperties</text><rect x="240" y="65" width="1.00" height="15" rx="2" fill="#008C7D"/><rect x="240" y="83" width="563.64" height="15" rx="2" fill="#D96C06"/><text x="246.00" y="77.00" font-family="Inter, Arial, sans-serif" font-size="10" fill="#1F2933" text-anchor="start" font-weight="400">0.0%</text><text x="809.64" y="95.00" font-family="Inter, Arial, sans-serif" font-size="10" fill="#1F2933" text-anchor="start" font-weight="400">93.9%</text><text x="230.00" y="133.00" font-family="Inter, Arial, sans-serif" font-size="11" fill="#1F2933" text-anchor="end" font-weight="400">has_not</text><rect x="240" y="111" width="300.00" height="15" rx="2" fill="#008C7D"/><rect x="240" y="129" width="150.00" height="15" rx="2" fill="#D96C06"/><text x="546.00" y="123.00" font-family="Inter, Arial, sans-serif" font-size="10" fill="#1F2933" text-anchor="start" font-weight="400">50.0%</text><text x="396.00" y="141.00" font-family="Inter, Arial, sans-serif" font-size="10" fill="#1F2933" text-anchor="start" font-weight="400">25.0%</text><text x="230.00" y="179.00" font-family="Inter, Arial, sans-serif" font-size="11" fill="#1F2933" text-anchor="end" font-weight="400">has_minProperties</text><rect x="240" y="157" width="1.00" height="15" rx="2" fill="#008C7D"/><rect x="240" y="175" width="360.00" height="15" rx="2" fill="#D96C06"/><text x="246.00" y="169.00" font-family="Inter, Arial, sans-serif" font-size="10" fill="#1F2933" text-anchor="start" font-weight="400">0.0%</text><text x="606.00" y="187.00" font-family="Inter, Arial, sans-serif" font-size="10" fill="#1F2933" text-anchor="start" font-weight="400">60.0%</text><text x="230.00" y="225.00" font-family="Inter, Arial, sans-serif" font-size="11" fill="#1F2933" text-anchor="end" font-weight="400">has_multipleOf</text><rect x="240" y="203" width="360.00" height="15" rx="2" fill="#008C7D"/><rect x="240" y="221" width="1.00" height="15" rx="2" fill="#D96C06"/><text x="606.00" y="215.00" font-family="Inter, Arial, sans-serif" font-size="10" fill="#1F2933" text-anchor="start" font-weight="400">60.0%</text><text x="246.00" y="233.00" font-family="Inter, Arial, sans-serif" font-size="10" fill="#1F2933" text-anchor="start" font-weight="400">0.0%</text><text x="230.00" y="271.00" font-family="Inter, Arial, sans-serif" font-size="11" fill="#1F2933" text-anchor="end" font-weight="400">has_maxItems</text><rect x="240" y="249" width="150.00" height="15" rx="2" fill="#008C7D"/><rect x="240" y="267" width="200.00" height="15" rx="2" fill="#D96C06"/><text x="396.00" y="261.00" font-family="Inter, Arial, sans-serif" font-size="10" fill="#1F2933" text-anchor="start" font-weight="400">25.0%</text><text x="446.00" y="279.00" font-family="Inter, Arial, sans-serif" font-size="10" fill="#1F2933" text-anchor="start" font-weight="400">33.3%</text><text x="230.00" y="317.00" font-family="Inter, Arial, sans-serif" font-size="11" fill="#1F2933" text-anchor="end" font-weight="400">has_allOf</text><rect x="240" y="295" width="290.91" height="15" rx="2" fill="#008C7D"/><rect x="240" y="313" width="1.00" height="15" rx="2" fill="#D96C06"/><text x="536.91" y="307.00" font-family="Inter, Arial, sans-serif" font-size="10" fill="#1F2933" text-anchor="start" font-weight="400">48.5%</text><text x="246.00" y="325.00" font-family="Inter, Arial, sans-serif" font-size="10" fill="#1F2933" text-anchor="start" font-weight="400">0.0%</text><text x="230.00" y="363.00" font-family="Inter, Arial, sans-serif" font-size="11" fill="#1F2933" text-anchor="end" font-weight="400">has_minItems</text><rect x="240" y="341" width="175.61" height="15" rx="2" fill="#008C7D"/><rect x="240" y="359" width="90.00" height="15" rx="2" fill="#D96C06"/><text x="421.61" y="353.00" font-family="Inter, Arial, sans-serif" font-size="10" fill="#1F2933" text-anchor="start" font-weight="400">29.3%</text><text x="336.00" y="371.00" font-family="Inter, Arial, sans-serif" font-size="10" fill="#1F2933" text-anchor="start" font-weight="400">15.0%</text><text x="230.00" y="409.00" font-family="Inter, Arial, sans-serif" font-size="11" fill="#1F2933" text-anchor="end" font-weight="400">has_minLength</text><rect x="240" y="387" width="73.85" height="15" rx="2" fill="#008C7D"/><rect x="240" y="405" width="154.29" height="15" rx="2" fill="#D96C06"/><text x="319.85" y="399.00" font-family="Inter, Arial, sans-serif" font-size="10" fill="#1F2933" text-anchor="start" font-weight="400">12.3%</text><text x="400.29" y="417.00" font-family="Inter, Arial, sans-serif" font-size="10" fill="#1F2933" text-anchor="start" font-weight="400">25.7%</text><text x="230.00" y="455.00" font-family="Inter, Arial, sans-serif" font-size="11" fill="#1F2933" text-anchor="end" font-weight="400">has_oneOf</text><rect x="240" y="433" width="107.55" height="15" rx="2" fill="#008C7D"/><rect x="240" y="451" width="118.18" height="15" rx="2" fill="#D96C06"/><text x="353.55" y="445.00" font-family="Inter, Arial, sans-serif" font-size="10" fill="#1F2933" text-anchor="start" font-weight="400">17.9%</text><text x="364.18" y="463.00" font-family="Inter, Arial, sans-serif" font-size="10" fill="#1F2933" text-anchor="start" font-weight="400">19.7%</text><text x="230.00" y="501.00" font-family="Inter, Arial, sans-serif" font-size="11" fill="#1F2933" text-anchor="end" font-weight="400">many_required</text><rect x="240" y="479" width="162.86" height="15" rx="2" fill="#008C7D"/><rect x="240" y="497" width="57.14" height="15" rx="2" fill="#D96C06"/><text x="408.86" y="491.00" font-family="Inter, Arial, sans-serif" font-size="10" fill="#1F2933" text-anchor="start" font-weight="400">27.1%</text><text x="303.14" y="509.00" font-family="Inter, Arial, sans-serif" font-size="10" fill="#1F2933" text-anchor="start" font-weight="400">9.5%</text><text x="230.00" y="547.00" font-family="Inter, Arial, sans-serif" font-size="11" fill="#1F2933" text-anchor="end" font-weight="400">deep_schema</text><rect x="240" y="525" width="120.00" height="15" rx="2" fill="#008C7D"/><rect x="240" y="543" width="73.47" height="15" rx="2" fill="#D96C06"/><text x="366.00" y="537.00" font-family="Inter, Arial, sans-serif" font-size="10" fill="#1F2933" text-anchor="start" font-weight="400">20.0%</text><text x="319.47" y="555.00" font-family="Inter, Arial, sans-serif" font-size="10" fill="#1F2933" text-anchor="start" font-weight="400">12.2%</text><text x="230.00" y="593.00" font-family="Inter, Arial, sans-serif" font-size="11" fill="#1F2933" text-anchor="end" font-weight="400">has_minimum</text><rect x="240" y="571" width="137.70" height="15" rx="2" fill="#008C7D"/><rect x="240" y="589" width="50.00" height="15" rx="2" fill="#D96C06"/><text x="383.70" y="583.00" font-family="Inter, Arial, sans-serif" font-size="10" fill="#1F2933" text-anchor="start" font-weight="400">23.0%</text><text x="296.00" y="601.00" font-family="Inter, Arial, sans-serif" font-size="10" fill="#1F2933" text-anchor="start" font-weight="400">8.3%</text><text x="230.00" y="639.00" font-family="Inter, Arial, sans-serif" font-size="11" fill="#1F2933" text-anchor="end" font-weight="400">many_properties</text><rect x="240" y="617" width="120.00" height="15" rx="2" fill="#008C7D"/><rect x="240" y="635" width="61.22" height="15" rx="2" fill="#D96C06"/><text x="366.00" y="629.00" font-family="Inter, Arial, sans-serif" font-size="10" fill="#1F2933" text-anchor="start" font-weight="400">20.0%</text><text x="307.22" y="647.00" font-family="Inter, Arial, sans-serif" font-size="10" fill="#1F2933" text-anchor="start" font-weight="400">10.2%</text><text x="230.00" y="685.00" font-family="Inter, Arial, sans-serif" font-size="11" fill="#1F2933" text-anchor="end" font-weight="400">has_maximum</text><rect x="240" y="663" width="171.43" height="15" rx="2" fill="#008C7D"/><rect x="240" y="681" width="1.00" height="15" rx="2" fill="#D96C06"/><text x="417.43" y="675.00" font-family="Inter, Arial, sans-serif" font-size="10" fill="#1F2933" text-anchor="start" font-weight="400">28.6%</text><text x="246.00" y="693.00" font-family="Inter, Arial, sans-serif" font-size="10" fill="#1F2933" text-anchor="start" font-weight="400">0.0%</text><text x="230.00" y="731.00" font-family="Inter, Arial, sans-serif" font-size="11" fill="#1F2933" text-anchor="end" font-weight="400">has_boolean_schema</text><rect x="240" y="709" width="88.39" height="15" rx="2" fill="#008C7D"/><rect x="240" y="727" width="73.08" height="15" rx="2" fill="#D96C06"/><text x="334.39" y="721.00" font-family="Inter, Arial, sans-serif" font-size="10" fill="#1F2933" text-anchor="start" font-weight="400">14.7%</text><text x="319.08" y="739.00" font-family="Inter, Arial, sans-serif" font-size="10" fill="#1F2933" text-anchor="start" font-weight="400">12.2%</text></svg>
