<svg xmlns="http://www.w3.org/2000/svg" width="960" height="500" viewBox="0 0 960 500" role="img" aria-label="Phase time share for slowest completed schemas"><rect width="100%" height="100%" fill="#FFFFFF"/><text x="24.00" y="30.00" font-family="Inter, Arial, sans-serif" font-size="17" fill="#1F2933" text-anchor="start" font-weight="700">Phase time share for slowest completed schemas</text><rect x="805" y="48" width="12" height="12" fill="#2F6BFF"/><text x="822.00" y="59.00" font-family="Inter, Arial, sans-serif" font-size="11" fill="#1F2933" text-anchor="start" font-weight="400">compile</text><rect x="805" y="67" width="12" height="12" fill="#008C7D"/><text x="822.00" y="78.00" font-family="Inter, Arial, sans-serif" font-size="11" fill="#1F2933" text-anchor="start" font-weight="400">validation</text><rect x="805" y="86" width="12" height="12" fill="#D96C06"/><text x="822.00" y="97.00" font-family="Inter, Arial, sans-serif" font-size="11" fill="#1F2933" text-anchor="start" font-weight="400">mask</text><rect x="805" y="105" width="12" height="12" fill="#7557B8"/><text x="822.00" y="116.00" font-family="Inter, Arial, sans-serif" font-size="11" fill="#1F2933" text-anchor="start" font-weight="400">commit</text><text x="250.00" y="76.00" font-family="Inter, Arial, sans-serif" font-size="10" fill="#1F2933" text-anchor="end" font-weight="400">o9827.json</text><rect x="260.00" y="60" width="519.98" height="20" fill="#2F6BFF"/><rect x="779.98" y="60" width="0.01" height="20" fill="#008C7D"/><rect x="779.99" y="60" width="0.01" height="20" fill="#D96C06"/><rect x="780.00" y="60" width="0.00" height="20" fill="#7557B8"/><text x="788.00" y="75.00" font-family="Inter, Arial, sans-serif" font-size="10" fill="#1F2933" text-anchor="start" font-weight="400">135s</text><text x="250.00" y="110.00" font-family="Inter, Arial, sans-serif" font-size="10" fill="#1F2933" text-anchor="end" font-weight="400">o48167.json</text><rect x="260.00" y="94" width="519.99" height="20" fill="#2F6BFF"/><rect x="779.99" y="94" width="0.01" height="20" fill="#008C7D"/><rect x="779.99" y="94" width="0.01" height="20" fill="#D96C06"/><rect x="780.00" y="94" width="0.00" height="20" fill="#7557B8"/><text x="788.00" y="109.00" font-family="Inter, Arial, sans-serif" font-size="10" fill="#1F2933" text-anchor="start" font-weight="400">121s</text><text x="250.00" y="144.00" font-family="Inter, Arial, sans-serif" font-size="10" fill="#1F2933" text-anchor="end" font-weight="400">o9948.json</text><rect x="260.00" y="128" width="519.96" height="20" fill="#2F6BFF"/><rect x="779.96" y="128" width="0.02" height="20" fill="#008C7D"/><rect x="779.98" y="128" width="0.02" height="20" fill="#D96C06"/><rect x="780.00" y="128" width="0.00" height="20" fill="#7557B8"/><text x="788.00" y="143.00" font-family="Inter, Arial, sans-serif" font-size="10" fill="#1F2933" text-anchor="start" font-weight="400">116s</text><text x="250.00" y="178.00" font-family="Inter, Arial, sans-serif" font-size="10" fill="#1F2933" text-anchor="end" font-weight="400">o72207.json</text><rect x="260.00" y="162" width="519.99" height="20" fill="#2F6BFF"/><rect x="779.99" y="162" width="0.00" height="20" fill="#008C7D"/><rect x="780.00" y="162" width="0.00" height="20" fill="#D96C06"/><rect x="780.00" y="162" width="0.00" height="20" fill="#7557B8"/><text x="788.00" y="177.00" font-family="Inter, Arial, sans-serif" font-size="10" fill="#1F2933" text-anchor="start" font-weight="400">114s</text><text x="250.00" y="212.00" font-family="Inter, Arial, sans-serif" font-size="10" fill="#1F2933" text-anchor="end" font-weight="400">o9840.json</text><rect x="260.00" y="196" width="519.90" height="20" fill="#2F6BFF"/><rect x="779.90" y="196" width="0.05" height="20" fill="#008C7D"/><rect x="779.95" y="196" width="0.05" height="20" fill="#D96C06"/><rect x="780.00" y="196" width="0.00" height="20" fill="#7557B8"/><text x="788.00" y="211.00" font-family="Inter, Arial, sans-serif" font-size="10" fill="#1F2933" text-anchor="start" font-weight="400">56.7s</text><text x="250.00" y="246.00" font-family="Inter, Arial, sans-serif" font-size="10" fill="#1F2933" text-anchor="end" font-weight="400">o44010.json</text><rect x="260.00" y="230" width="519.81" height="20" fill="#2F6BFF"/><rect x="779.81" y="230" width="0.09" height="20" fill="#008C7D"/><rect x="779.91" y="230" width="0.09" height="20" fill="#D96C06"/><rect x="780.00" y="230" width="0.00" height="20" fill="#7557B8"/><text x="788.00" y="245.00" font-family="Inter, Arial, sans-serif" font-size="10" fill="#1F2933" text-anchor="start" font-weight="400">24.8s</text><text x="250.00" y="280.00" font-family="Inter, Arial, sans-serif" font-size="10" fill="#1F2933" text-anchor="end" font-weight="400">o6269.json</text><rect x="260.00" y="264" width="519.97" height="20" fill="#2F6BFF"/><rect x="779.97" y="264" width="0.02" height="20" fill="#008C7D"/><rect x="779.98" y="264" width="0.02" height="20" fill="#D96C06"/><rect x="780.00" y="264" width="0.00" height="20" fill="#7557B8"/><text x="788.00" y="279.00" font-family="Inter, Arial, sans-serif" font-size="10" fill="#1F2933" text-anchor="start" font-weight="400">24.1s</text><text x="250.00" y="314.00" font-family="Inter, Arial, sans-serif" font-size="10" fill="#1F2933" text-anchor="end" font-weight="400">o26589.json</text><rect x="260.00" y="298" width="519.93" height="20" fill="#2F6BFF"/><rect x="779.93" y="298" width="0.04" height="20" fill="#008C7D"/><rect x="779.96" y="298" width="0.04" height="20" fill="#D96C06"/><rect x="780.00" y="298" width="0.00" height="20" fill="#7557B8"/><text x="788.00" y="313.00" font-family="Inter, Arial, sans-serif" font-size="10" fill="#1F2933" text-anchor="start" font-weight="400">23.7s</text><text x="250.00" y="348.00" font-family="Inter, Arial, sans-serif" font-size="10" fill="#1F2933" text-anchor="end" font-weight="400">o63308.json</text><rect x="260.00" y="332" width="519.75" height="20" fill="#2F6BFF"/><rect x="779.75" y="332" width="0.13" height="20" fill="#008C7D"/><rect x="779.88" y="332" width="0.12" height="20" fill="#D96C06"/><rect x="779.99" y="332" width="0.01" height="20" fill="#7557B8"/><text x="788.00" y="347.00" font-family="Inter, Arial, sans-serif" font-size="10" fill="#1F2933" text-anchor="start" font-weight="400">21s</text><text x="250.00" y="382.00" font-family="Inter, Arial, sans-serif" font-size="10" fill="#1F2933" text-anchor="end" font-weight="400">o36276.json</text><rect x="260.00" y="366" width="519.57" height="20" fill="#2F6BFF"/><rect x="779.57" y="366" width="0.22" height="20" fill="#008C7D"/><rect x="779.79" y="366" width="0.20" height="20" fill="#D96C06"/><rect x="779.99" y="366" width="0.01" height="20" fill="#7557B8"/><text x="788.00" y="381.00" font-family="Inter, Arial, sans-serif" font-size="10" fill="#1F2933" text-anchor="start" font-weight="400">19.2s</text><text x="250.00" y="416.00" font-family="Inter, Arial, sans-serif" font-size="10" fill="#1F2933" text-anchor="end" font-weight="400">o65598.json</text><rect x="260.00" y="400" width="519.99" height="20" fill="#2F6BFF"/><rect x="779.99" y="400" width="0.00" height="20" fill="#008C7D"/><rect x="780.00" y="400" width="0.00" height="20" fill="#D96C06"/><rect x="780.00" y="400" width="0.00" height="20" fill="#7557B8"/><text x="788.00" y="415.00" font-family="Inter, Arial, sans-serif" font-size="10" fill="#1F2933" text-anchor="start" font-weight="400">18s</text><text x="250.00" y="450.00" font-family="Inter, Arial, sans-serif" font-size="10" fill="#1F2933" text-anchor="end" font-weight="400">o84270.json</text><rect x="260.00" y="434" width="517.95" height="20" fill="#2F6BFF"/><rect x="777.95" y="434" width="1.04" height="20" fill="#008C7D"/><rect x="778.98" y="434" width="1.01" height="20" fill="#D96C06"/><rect x="779.99" y="434" width="0.01" height="20" fill="#7557B8"/><text x="788.00" y="449.00" font-family="Inter, Arial, sans-serif" font-size="10" fill="#1F2933" text-anchor="start" font-weight="400">15.7s</text></svg>
