<svg xmlns="http://www.w3.org/2000/svg" width="960" height="300" viewBox="0 0 960 300" role="img" aria-label="Under/over rates by schema size quartile"><rect width="100%" height="100%" fill="#FFFFFF"/><text x="24.00" y="30.00" font-family="Inter, Arial, sans-serif" font-size="17" fill="#1F2933" text-anchor="start" font-weight="700">Under/over rates by schema size quartile</text><rect x="855" y="45" width="12" height="12" fill="#008C7D"/><text x="872.00" y="56.00" font-family="Inter, Arial, sans-serif" font-size="11" fill="#1F2933" text-anchor="start" font-weight="400">under</text><rect x="855" y="64" width="12" height="12" fill="#D96C06"/><text x="872.00" y="75.00" font-family="Inter, Arial, sans-serif" font-size="11" fill="#1F2933" text-anchor="start" font-weight="400">over</text><line x1="240.00" y1="58" x2="240.00" y2="250" stroke="#D9DEE5" stroke-width="1"/><text x="240.00" y="280.00" font-family="Inter, Arial, sans-serif" font-size="10" fill="#1F2933" text-anchor="middle" font-weight="400">0.0%</text><line x1="360.00" y1="58" x2="360.00" y2="250" stroke="#D9DEE5" stroke-width="1"/><text x="360.00" y="280.00" font-family="Inter, Arial, sans-serif" font-size="10" fill="#1F2933" text-anchor="middle" font-weight="400">4.0%</text><line x1="480.00" y1="58" x2="480.00" y2="250" stroke="#D9DEE5" stroke-width="1"/><text x="480.00" y="280.00" font-family="Inter, Arial, sans-serif" font-size="10" fill="#1F2933" text-anchor="middle" font-weight="400">8.0%</text><line x1="600.00" y1="58" x2="600.00" y2="250" stroke="#D9DEE5" stroke-width="1"/><text x="600.00" y="280.00" font-family="Inter, Arial, sans-serif" font-size="10" fill="#1F2933" text-anchor="middle" font-weight="400">12.0%</text><line x1="720.00" y1="58" x2="720.00" y2="250" stroke="#D9DEE5" stroke-width="1"/><text x="720.00" y="280.00" font-family="Inter, Arial, sans-serif" font-size="10" fill="#1F2933" text-anchor="middle" font-weight="400">16.0%</text><line x1="840.00" y1="58" x2="840.00" y2="250" stroke="#D9DEE5" stroke-width="1"/><text x="840.00" y="280.00" font-family="Inter, Arial, sans-serif" font-size="10" fill="#1F2933" text-anchor="middle" font-weight="400">20.0%</text><text x="230.00" y="87.00" font-family="Inter, Arial, sans-serif" font-size="11" fill="#1F2933" text-anchor="end" font-weight="400">q1_low</text><rect x="240" y="65" width="197.97" height="15" rx="2" fill="#008C7D"/><rect x="240" y="83" width="412.84" height="15" rx="2" fill="#D96C06"/><text x="443.97" y="77.00" font-family="Inter, Arial, sans-serif" font-size="10" fill="#1F2933" text-anchor="start" font-weight="400">6.6%</text><text x="658.84" y="95.00" font-family="Inter, Arial, sans-serif" font-size="10" fill="#1F2933" text-anchor="start" font-weight="400">13.8%</text><text x="230.00" y="133.00" font-family="Inter, Arial, sans-serif" font-size="11" fill="#1F2933" text-anchor="end" font-weight="400">q2_mid_low</text><rect x="240" y="111" width="268.16" height="15" rx="2" fill="#008C7D"/><rect x="240" y="129" width="364.49" height="15" rx="2" fill="#D96C06"/><text x="514.16" y="123.00" font-family="Inter, Arial, sans-serif" font-size="10" fill="#1F2933" text-anchor="start" font-weight="400">8.9%</text><text x="610.49" y="141.00" font-family="Inter, Arial, sans-serif" font-size="10" fill="#1F2933" text-anchor="start" font-weight="400">12.1%</text><text x="230.00" y="179.00" font-family="Inter, Arial, sans-serif" font-size="11" fill="#1F2933" text-anchor="end" font-weight="400">q3_mid_high</text><rect x="240" y="157" width="232.04" height="15" rx="2" fill="#008C7D"/><rect x="240" y="175" width="302.75" height="15" rx="2" fill="#D96C06"/><text x="478.04" y="169.00" font-family="Inter, Arial, sans-serif" font-size="10" fill="#1F2933" text-anchor="start" font-weight="400">7.7%</text><text x="548.75" y="187.00" font-family="Inter, Arial, sans-serif" font-size="10" fill="#1F2933" text-anchor="start" font-weight="400">10.1%</text><text x="230.00" y="225.00" font-family="Inter, Arial, sans-serif" font-size="11" fill="#1F2933" text-anchor="end" font-weight="400">q4_high</text><rect x="240" y="203" width="407.04" height="15" rx="2" fill="#008C7D"/><rect x="240" y="221" width="461.54" height="15" rx="2" fill="#D96C06"/><text x="653.04" y="215.00" font-family="Inter, Arial, sans-serif" font-size="10" fill="#1F2933" text-anchor="start" font-weight="400">13.6%</text><text x="707.54" y="233.00" font-family="Inter, Arial, sans-serif" font-size="10" fill="#1F2933" text-anchor="start" font-weight="400">15.4%</text></svg>
