<svg xmlns="http://www.w3.org/2000/svg" width="860" height="520" viewBox="0 0 860 520" role="img" aria-label="Schema size ECDF: completed vs timeout"><rect width="100%" height="100%" fill="#FFFFFF"/><text x="24.00" y="30.00" font-family="Inter, Arial, sans-serif" font-size="17" fill="#1F2933" text-anchor="start" font-weight="700">Schema size ECDF: completed vs timeout</text><line x1="78.00" y1="56" x2="78.00" y2="452" stroke="#D9DEE5"/><line x1="78" y1="56.00" x2="826" y2="56.00" stroke="#D9DEE5"/><line x1="227.60" y1="56" x2="227.60" y2="452" stroke="#D9DEE5"/><line x1="78" y1="135.20" x2="826" y2="135.20" stroke="#D9DEE5"/><line x1="377.20" y1="56" x2="377.20" y2="452" stroke="#D9DEE5"/><line x1="78" y1="214.40" x2="826" y2="214.40" stroke="#D9DEE5"/><line x1="526.80" y1="56" x2="526.80" y2="452" stroke="#D9DEE5"/><line x1="78" y1="293.60" x2="826" y2="293.60" stroke="#D9DEE5"/><line x1="676.40" y1="56" x2="676.40" y2="452" stroke="#D9DEE5"/><line x1="78" y1="372.80" x2="826" y2="372.80" stroke="#D9DEE5"/><line x1="826.00" y1="56" x2="826.00" y2="452" stroke="#D9DEE5"/><line x1="78" y1="452.00" x2="826" y2="452.00" stroke="#D9DEE5"/><polyline points="78.00,450.90 131.96,449.80 131.96,448.70 164.96,447.60 167.51,446.50 188.02,445.40 210.34,444.30 212.01,443.20 218.41,442.10 222.97,441.00 222.97,439.90 236.89,438.80 241.98,437.70 243.22,436.60 244.44,435.50 244.44,434.40 249.19,433.30 254.84,432.20 254.84,431.10 257.02,430.00 258.09,428.90 261.24,427.80 261.24,426.70 261.24,425.60 264.31,424.50 264.31,423.40 264.31,422.30 265.31,421.20 266.30,420.10 266.30,419.00 266.30,417.90 267.28,416.80 268.26,415.70 268.26,414.60 269.22,413.50 272.06,412.40 272.06,411.30 272.99,410.20 272.99,409.10 274.83,408.00 276.64,406.90 277.53,405.80 281.88,404.70 286.05,403.60 286.87,402.50 287.68,401.40 288.48,400.30 289.28,399.20 289.28,398.10 290.85,397.00 290.85,395.90 290.85,394.80 290.85,393.70 291.63,392.60 291.63,391.50 291.63,390.40 291.63,389.30 293.18,388.20 293.18,387.10 293.94,386.00 293.94,384.90 294.70,383.80 294.70,382.70 295.45,381.60 296.20,380.50 296.94,379.40 296.94,378.30 297.67,377.20 297.67,376.10 297.67,375.00 299.13,373.90 299.13,372.80 299.85,371.70 300.57,370.60 301.28,369.50 301.99,368.40 301.99,367.30 301.99,366.20 301.99,365.10 302.69,364.00 302.69,362.90 302.69,361.80 303.38,360.70 303.38,359.60 304.08,358.50 304.77,357.40 304.77,356.30 305.45,355.20 305.45,354.10 306.13,353.00 306.13,351.90 308.14,350.80 308.14,349.70 308.14,348.60 308.80,347.50 309.46,346.40 310.12,345.30 310.77,344.20 310.77,343.10 311.41,342.00 311.41,340.90 311.41,339.80 313.33,338.70 313.33,337.60 313.96,336.50 313.96,335.40 313.96,334.30 315.21,333.20 315.21,332.10 315.21,331.00 315.21,329.90 315.21,328.80 315.83,327.70 315.83,326.60 316.44,325.50 317.06,324.40 317.06,323.30 317.06,322.20 317.66,321.10 318.27,320.00 318.27,318.90 318.27,317.80 318.27,316.70 318.27,315.60 318.87,314.50 320.07,313.40 320.07,312.30 321.25,311.20 321.83,310.10 321.83,309.00 322.99,307.90 323.57,306.80 323.57,305.70 323.57,304.60 324.14,303.50 324.71,302.40 324.71,301.30 325.84,300.20 325.84,299.10 325.84,298.00 325.84,296.90 326.40,295.80 326.40,294.70 326.40,293.60 326.96,292.50 326.96,291.40 326.96,290.30 326.96,289.20 327.51,288.10 327.51,287.00 327.51,285.90 327.51,284.80 328.06,283.70 328.06,282.60 328.61,281.50 329.70,280.40 330.24,279.30 330.24,278.20 330.24,277.10 330.78,276.00 331.31,274.90 331.85,273.80 332.38,272.70 332.38,271.60 332.38,270.50 333.43,269.40 333.43,268.30 333.43,267.20 333.43,266.10 334.98,265.00 335.50,263.90 335.50,262.80 337.03,261.70 338.03,260.60 339.03,259.50 339.03,258.40 339.03,257.30 339.52,256.20 340.02,255.10 340.02,254.00 340.51,252.90 340.51,251.80 341.48,250.70 342.44,249.60 342.44,248.50 342.92,247.40 342.92,246.30 342.92,245.20 343.40,244.10 343.88,243.00 344.35,241.90 344.82,240.80 344.82,239.70 344.82,238.60 345.75,237.50 346.22,236.40 347.14,235.30 347.60,234.20 348.06,233.10 348.51,232.00 348.51,230.90 348.96,229.80 348.96,228.70 348.96,227.60 349.86,226.50 350.31,225.40 350.31,224.30 350.31,223.20 351.20,222.10 351.64,221.00 351.64,219.90 352.08,218.80 355.53,217.70 355.95,216.60 356.37,215.50 357.63,214.40 357.63,213.30 358.04,212.20 358.04,211.10 358.04,210.00 358.45,208.90 359.69,207.80 359.69,206.70 360.09,205.60 360.50,204.50 360.50,203.40 360.90,202.30 361.71,201.20 361.71,200.10 361.71,199.00 362.50,197.90 363.29,196.80 363.69,195.70 364.47,194.60 365.25,193.50 365.25,192.40 366.02,191.30 366.02,190.20 366.40,189.10 366.78,188.00 367.54,186.90 367.92,185.80 370.16,184.70 370.53,183.60 372.35,182.50 372.72,181.40 372.72,180.30 373.43,179.20 373.79,178.10 374.86,177.00 375.21,175.90 376.26,174.80 378.33,173.70 379.01,172.60 379.35,171.50 379.35,170.40 379.35,169.30 379.35,168.20 382.69,167.10 383.34,166.00 383.67,164.90 384.64,163.80 384.96,162.70 389.05,161.60 389.05,160.50 389.97,159.40 389.97,158.30 391.49,157.20 392.10,156.10 392.40,155.00 394.18,153.90 394.47,152.80 396.22,151.70 398.78,150.60 399.90,149.50 399.90,148.40 399.90,147.30 402.38,146.20 403.20,145.10 403.20,144.00 405.07,142.90 405.60,141.80 410.50,140.70 412.00,139.60 414.46,138.50 416.62,137.40 417.81,136.30 419.67,135.20 423.53,134.10 424.64,133.00 424.64,131.90 425.96,130.80 427.68,129.70 429.81,128.60 432.91,127.50 433.52,126.40 433.92,125.30 436.32,124.20 438.28,123.10 447.19,122.00 449.31,120.90 451.04,119.80 451.04,118.70 456.73,117.60 458.34,116.50 460.09,115.40 460.41,114.30 461.03,113.20 467.84,112.10 473.27,111.00 475.20,109.90 478.16,108.80 482.46,107.70 483.98,106.60 488.05,105.50 488.05,104.40 491.27,103.30 492.32,102.20 499.72,101.10 503.45,100.00 504.18,98.90 510.04,97.80 510.14,96.70 511.60,95.60 511.98,94.50 512.18,93.40 516.33,92.30 517.16,91.20 519.34,90.10 522.01,89.00 522.45,87.90 523.84,86.80 528.39,85.70 546.63,84.60 549.37,83.50 550.18,82.40 555.36,81.30 566.06,80.20 569.37,79.10 569.53,78.00 585.11,76.90 592.97,75.80 594.88,74.70 605.63,73.60 625.87,72.50 627.53,71.40 641.07,70.30 651.45,69.20 654.33,68.10 654.95,67.00 682.83,65.90 696.40,64.80 710.94,63.70 725.21,62.60 735.53,61.50 750.47,60.40 776.53,59.30 776.54,58.20 812.73,57.10 826.00,56.00" fill="none" stroke="#2F6BFF" stroke-width="2.5"/><rect x="690" y="50" width="12" height="12" fill="#2F6BFF"/><text x="708.00" y="61.00" font-family="Inter, Arial, sans-serif" font-size="11" fill="#1F2933" text-anchor="start" font-weight="400">completed (n=360)</text><polyline points="308.80,372.80 324.71,293.60 329.16,214.40 387.50,135.20 419.67,56.00" fill="none" stroke="#C43C39" stroke-width="2.5"/><rect x="690" y="70" width="12" height="12" fill="#C43C39"/><text x="708.00" y="81.00" font-family="Inter, Arial, sans-serif" font-size="11" fill="#1F2933" text-anchor="start" font-weight="400">timeout (n=5)</text><text x="452.00" y="498.00" font-family="Inter, Arial, sans-serif" font-size="12" fill="#1F2933" text-anchor="middle" font-weight="400">schema_json_chars (log)</text><text x="22.00" y="254.00" font-family="Inter, Arial, sans-serif" font-size="12" fill="#1F2933" text-anchor="middle" font-weight="400">ECDF</text></svg>
