<svg xmlns="http://www.w3.org/2000/svg" width="920" height="560" viewBox="0 0 920 560" role="img" aria-label="Schema size vs nb_keywords by constraint group"><rect width="100%" height="100%" fill="#FFFFFF"/><text x="24.00" y="30.00" font-family="Inter, Arial, sans-serif" font-size="17" fill="#1F2933" text-anchor="start" font-weight="700">Schema size vs nb_keywords by constraint group</text><line x1="82.00" y1="56" x2="82.00" y2="488" stroke="#D9DEE5"/><line x1="82" y1="56.00" x2="750" y2="56.00" stroke="#D9DEE5"/><line x1="215.60" y1="56" x2="215.60" y2="488" stroke="#D9DEE5"/><line x1="82" y1="142.40" x2="750" y2="142.40" stroke="#D9DEE5"/><line x1="349.20" y1="56" x2="349.20" y2="488" stroke="#D9DEE5"/><line x1="82" y1="228.80" x2="750" y2="228.80" stroke="#D9DEE5"/><line x1="482.80" y1="56" x2="482.80" y2="488" stroke="#D9DEE5"/><line x1="82" y1="315.20" x2="750" y2="315.20" stroke="#D9DEE5"/><line x1="616.40" y1="56" x2="616.40" y2="488" stroke="#D9DEE5"/><line x1="82" y1="401.60" x2="750" y2="401.60" stroke="#D9DEE5"/><line x1="750.00" y1="56" x2="750.00" y2="488" stroke="#D9DEE5"/><line x1="82" y1="488.00" x2="750" y2="488.00" stroke="#D9DEE5"/><circle cx="350.21" cy="479.60" r="4" fill="#D96C06" opacity="0.72"/><circle cx="267.80" cy="485.00" r="4" fill="#2F6BFF" opacity="0.72"/><circle cx="415.14" cy="471.20" r="4" fill="#D96C06" opacity="0.72"/><circle cx="289.87" cy="483.80" r="4" fill="#2F6BFF" opacity="0.72"/><circle cx="391.57" cy="479.00" r="4" fill="#D96C06" opacity="0.72"/><circle cx="241.87" cy="485.60" r="4" fill="#2F6BFF" opacity="0.72"/><circle cx="276.86" cy="485.60" r="4" fill="#2F6BFF" opacity="0.72"/><circle cx="317.30" cy="483.20" r="4" fill="#2F6BFF" opacity="0.72"/><circle cx="298.18" cy="484.40" r="4" fill="#2F6BFF" opacity="0.72"/><circle cx="285.73" cy="485.60" r="4" fill="#D96C06" opacity="0.72"/><circle cx="318.16" cy="484.40" r="4" fill="#7557B8" opacity="0.72"/><circle cx="335.36" cy="483.80" r="4" fill="#2F6BFF" opacity="0.72"/><circle cx="343.24" cy="484.40" r="4" fill="#D96C06" opacity="0.72"/><circle cx="282.03" cy="485.60" r="4" fill="#2F6BFF" opacity="0.72"/><circle cx="234.88" cy="485.60" r="4" fill="#2F6BFF" opacity="0.72"/><circle cx="444.56" cy="472.40" r="4" fill="#2F6BFF" opacity="0.72"/><circle cx="318.16" cy="484.40" r="4" fill="#2F6BFF" opacity="0.72"/><circle cx="276.19" cy="485.00" r="4" fill="#2F6BFF" opacity="0.72"/><circle cx="290.45" cy="484.40" r="4" fill="#2F6BFF" opacity="0.72"/><circle cx="304.33" cy="484.40" r="4" fill="#2F6BFF" opacity="0.72"/><circle cx="303.83" cy="484.40" r="4" fill="#2F6BFF" opacity="0.72"/><circle cx="473.45" cy="483.20" r="4" fill="#2F6BFF" opacity="0.72"/><circle cx="348.36" cy="480.80" r="4" fill="#7557B8" opacity="0.72"/><circle cx="277.52" cy="485.00" r="4" fill="#2F6BFF" opacity="0.72"/><circle cx="230.64" cy="486.80" r="4" fill="#2F6BFF" opacity="0.72"/><circle cx="307.26" cy="485.00" r="4" fill="#2F6BFF" opacity="0.72"/><circle cx="333.92" cy="484.40" r="4" fill="#7557B8" opacity="0.72"/><circle cx="308.22" cy="485.60" r="4" fill="#2F6BFF" opacity="0.72"/><circle cx="274.84" cy="486.20" r="4" fill="#2F6BFF" opacity="0.72"/><circle cx="333.56" cy="481.40" r="4" fill="#2F6BFF" opacity="0.72"/><circle cx="354.97" cy="479.60" r="4" fill="#2F6BFF" opacity="0.72"/><circle cx="351.12" cy="480.20" r="4" fill="#2F6BFF" opacity="0.72"/><circle cx="319.86" cy="485.00" r="4" fill="#2F6BFF" opacity="0.72"/><circle cx="385.46" cy="477.20" r="4" fill="#D96C06" opacity="0.72"/><circle cx="311.50" cy="484.40" r="4" fill="#2F6BFF" opacity="0.72"/><circle cx="292.16" cy="485.00" r="4" fill="#D96C06" opacity="0.72"/><circle cx="315.11" cy="484.40" r="4" fill="#2F6BFF" opacity="0.72"/><circle cx="305.32" cy="485.00" r="4" fill="#2F6BFF" opacity="0.72"/><circle cx="250.16" cy="488.00" r="4" fill="#2F6BFF" opacity="0.72"/><circle cx="201.67" cy="486.20" r="4" fill="#7557B8" opacity="0.72"/><circle cx="255.31" cy="486.20" r="4" fill="#D96C06" opacity="0.72"/><circle cx="269.97" cy="485.60" r="4" fill="#2F6BFF" opacity="0.72"/><circle cx="252.77" cy="486.20" r="4" fill="#2F6BFF" opacity="0.72"/><circle cx="274.16" cy="485.00" r="4" fill="#2F6BFF" opacity="0.72"/><circle cx="248.38" cy="486.20" r="4" fill="#7557B8" opacity="0.72"/><circle cx="279.48" cy="485.00" r="4" fill="#2F6BFF" opacity="0.72"/><circle cx="248.38" cy="486.20" r="4" fill="#7557B8" opacity="0.72"/><circle cx="279.48" cy="485.00" r="4" fill="#2F6BFF" opacity="0.72"/><circle cx="251.04" cy="486.20" r="4" fill="#D96C06" opacity="0.72"/><circle cx="284.51" cy="485.00" r="4" fill="#2F6BFF" opacity="0.72"/><circle cx="285.12" cy="485.00" r="4" fill="#7557B8" opacity="0.72"/><circle cx="469.22" cy="462.20" r="4" fill="#2F6BFF" opacity="0.72"/><circle cx="396.18" cy="474.20" r="4" fill="#2F6BFF" opacity="0.72"/><circle cx="517.86" cy="443.60" r="4" fill="#7557B8" opacity="0.72"/><circle cx="439.36" cy="467.00" r="4" fill="#D96C06" opacity="0.72"/><circle cx="309.17" cy="485.00" r="4" fill="#2F6BFF" opacity="0.72"/><circle cx="248.38" cy="486.20" r="4" fill="#2F6BFF" opacity="0.72"/><circle cx="321.12" cy="482.60" r="4" fill="#2F6BFF" opacity="0.72"/><circle cx="269.25" cy="485.60" r="4" fill="#2F6BFF" opacity="0.72"/><circle cx="323.98" cy="484.40" r="4" fill="#2F6BFF" opacity="0.72"/><circle cx="299.75" cy="483.80" r="4" fill="#2F6BFF" opacity="0.72"/><circle cx="287.53" cy="485.00" r="4" fill="#7557B8" opacity="0.72"/><circle cx="293.84" cy="485.00" r="4" fill="#7557B8" opacity="0.72"/><circle cx="82.00" cy="488.00" r="4" fill="#2F6BFF" opacity="0.72"/><circle cx="161.94" cy="486.80" r="4" fill="#2F6BFF" opacity="0.72"/><circle cx="268.53" cy="485.00" r="4" fill="#2F6BFF" opacity="0.72"/><circle cx="180.25" cy="487.40" r="4" fill="#2F6BFF" opacity="0.72"/><circle cx="130.19" cy="487.40" r="4" fill="#2F6BFF" opacity="0.72"/><circle cx="296.57" cy="484.40" r="4" fill="#D96C06" opacity="0.72"/><circle cx="200.19" cy="486.20" r="4" fill="#2F6BFF" opacity="0.72"/><circle cx="294.39" cy="484.40" r="4" fill="#2F6BFF" opacity="0.72"/><circle cx="314.22" cy="485.60" r="4" fill="#7557B8" opacity="0.72"/><circle cx="325.18" cy="484.40" r="4" fill="#2F6BFF" opacity="0.72"/><circle cx="378.94" cy="485.00" r="4" fill="#2F6BFF" opacity="0.72"/><circle cx="340.58" cy="484.40" r="4" fill="#2F6BFF" opacity="0.72"/><circle cx="369.48" cy="483.80" r="4" fill="#2F6BFF" opacity="0.72"/><circle cx="270.68" cy="485.00" r="4" fill="#2F6BFF" opacity="0.72"/><circle cx="255.31" cy="485.60" r="4" fill="#7557B8" opacity="0.72"/><circle cx="508.31" cy="444.20" r="4" fill="#2F6BFF" opacity="0.72"/><circle cx="282.03" cy="485.00" r="4" fill="#2F6BFF" opacity="0.72"/><circle cx="360.61" cy="484.40" r="4" fill="#2F6BFF" opacity="0.72"/><circle cx="520.96" cy="479.60" r="4" fill="#7557B8" opacity="0.72"/><circle cx="705.83" cy="56.00" r="4" fill="#D96C06" opacity="0.72"/><circle cx="336.78" cy="483.80" r="4" fill="#2F6BFF" opacity="0.72"/><circle cx="207.39" cy="486.80" r="4" fill="#2F6BFF" opacity="0.72"/><circle cx="326.37" cy="483.80" r="4" fill="#2F6BFF" opacity="0.72"/><circle cx="304.83" cy="484.40" r="4" fill="#D96C06" opacity="0.72"/><circle cx="315.99" cy="484.40" r="4" fill="#2F6BFF" opacity="0.72"/><circle cx="323.58" cy="485.00" r="4" fill="#2F6BFF" opacity="0.72"/><circle cx="502.96" cy="449.60" r="4" fill="#D96C06" opacity="0.72"/><circle cx="324.78" cy="484.40" r="4" fill="#2F6BFF" opacity="0.72"/><circle cx="448.19" cy="469.40" r="4" fill="#2F6BFF" opacity="0.72"/><circle cx="282.66" cy="486.80" r="4" fill="#2F6BFF" opacity="0.72"/><circle cx="307.26" cy="483.80" r="4" fill="#2F6BFF" opacity="0.72"/><circle cx="338.52" cy="481.40" r="4" fill="#2F6BFF" opacity="0.72"/><circle cx="296.03" cy="485.00" r="4" fill="#2F6BFF" opacity="0.72"/><circle cx="283.90" cy="485.00" r="4" fill="#2F6BFF" opacity="0.72"/><circle cx="334.28" cy="481.40" r="4" fill="#2F6BFF" opacity="0.72"/><circle cx="299.75" cy="483.80" r="4" fill="#2F6BFF" opacity="0.72"/><circle cx="339.90" cy="481.40" r="4" fill="#2F6BFF" opacity="0.72"/><circle cx="315.11" cy="483.20" r="4" fill="#2F6BFF" opacity="0.72"/><circle cx="318.59" cy="483.20" r="4" fill="#2F6BFF" opacity="0.72"/><circle cx="318.59" cy="484.40" r="4" fill="#2F6BFF" opacity="0.72"/><circle cx="345.19" cy="482.00" r="4" fill="#2F6BFF" opacity="0.72"/><circle cx="322.76" cy="485.00" r="4" fill="#D96C06" opacity="0.72"/><circle cx="320.28" cy="485.60" r="4" fill="#2F6BFF" opacity="0.72"/><circle cx="270.68" cy="485.60" r="4" fill="#2F6BFF" opacity="0.72"/><circle cx="310.11" cy="483.80" r="4" fill="#2F6BFF" opacity="0.72"/><circle cx="351.12" cy="483.80" r="4" fill="#2F6BFF" opacity="0.72"/><circle cx="289.29" cy="485.60" r="4" fill="#2F6BFF" opacity="0.72"/><circle cx="304.83" cy="484.40" r="4" fill="#2F6BFF" opacity="0.72"/><circle cx="390.58" cy="483.80" r="4" fill="#2F6BFF" opacity="0.72"/><circle cx="443.20" cy="478.40" r="4" fill="#2F6BFF" opacity="0.72"/><circle cx="372.42" cy="482.00" r="4" fill="#2F6BFF" opacity="0.72"/><circle cx="354.68" cy="481.40" r="4" fill="#D96C06" opacity="0.72"/><circle cx="305.81" cy="485.00" r="4" fill="#2F6BFF" opacity="0.72"/><circle cx="296.57" cy="484.40" r="4" fill="#2F6BFF" opacity="0.72"/><circle cx="596.69" cy="409.40" r="4" fill="#2F6BFF" opacity="0.72"/><circle cx="478.52" cy="463.40" r="4" fill="#2F6BFF" opacity="0.72"/><circle cx="534.88" cy="446.00" r="4" fill="#2F6BFF" opacity="0.72"/><circle cx="571.27" cy="427.40" r="4" fill="#2F6BFF" opacity="0.72"/><circle cx="541.90" cy="441.20" r="4" fill="#2F6BFF" opacity="0.72"/><circle cx="543.60" cy="440.60" r="4" fill="#2F6BFF" opacity="0.72"/><circle cx="634.26" cy="384.80" r="4" fill="#2F6BFF" opacity="0.72"/><circle cx="682.55" cy="334.40" r="4" fill="#2F6BFF" opacity="0.72"/><circle cx="659.99" cy="336.80" r="4" fill="#2F6BFF" opacity="0.72"/><circle cx="647.25" cy="372.80" r="4" fill="#2F6BFF" opacity="0.72"/><circle cx="584.84" cy="419.60" r="4" fill="#2F6BFF" opacity="0.72"/><circle cx="669.21" cy="320.60" r="4" fill="#2F6BFF" opacity="0.72"/><circle cx="274.84" cy="485.00" r="4" fill="#2F6BFF" opacity="0.72"/><circle cx="264.07" cy="485.60" r="4" fill="#2F6BFF" opacity="0.72"/><circle cx="351.12" cy="484.40" r="4" fill="#2F6BFF" opacity="0.72"/><circle cx="239.93" cy="486.20" r="4" fill="#2F6BFF" opacity="0.72"/><circle cx="305.32" cy="486.80" r="4" fill="#2F6BFF" opacity="0.72"/><circle cx="280.76" cy="485.60" r="4" fill="#2F6BFF" opacity="0.72"/><circle cx="298.18" cy="484.40" r="4" fill="#2F6BFF" opacity="0.72"/><circle cx="316.43" cy="483.80" r="4" fill="#2F6BFF" opacity="0.72"/><circle cx="272.09" cy="485.00" r="4" fill="#2F6BFF" opacity="0.72"/><circle cx="594.12" cy="357.20" r="4" fill="#2F6BFF" opacity="0.72"/><circle cx="344.87" cy="479.60" r="4" fill="#2F6BFF" opacity="0.72"/><circle cx="622.14" cy="300.80" r="4" fill="#2F6BFF" opacity="0.72"/><circle cx="503.68" cy="442.40" r="4" fill="#D96C06" opacity="0.72"/><circle cx="260.19" cy="486.20" r="4" fill="#7557B8" opacity="0.72"/><circle cx="311.96" cy="483.80" r="4" fill="#2F6BFF" opacity="0.72"/><circle cx="333.56" cy="485.00" r="4" fill="#2F6BFF" opacity="0.72"/><circle cx="320.28" cy="484.40" r="4" fill="#2F6BFF" opacity="0.72"/><circle cx="211.47" cy="485.60" r="4" fill="#2F6BFF" opacity="0.72"/><circle cx="230.64" cy="486.80" r="4" fill="#2F6BFF" opacity="0.72"/><circle cx="326.76" cy="483.80" r="4" fill="#2F6BFF" opacity="0.72"/><circle cx="330.22" cy="485.00" r="4" fill="#2F6BFF" opacity="0.72"/><circle cx="301.30" cy="485.00" r="4" fill="#7557B8" opacity="0.72"/><circle cx="392.74" cy="478.40" r="4" fill="#2F6BFF" opacity="0.72"/><circle cx="374.09" cy="482.00" r="4" fill="#2F6BFF" opacity="0.72"/><circle cx="287.53" cy="484.40" r="4" fill="#2F6BFF" opacity="0.72"/><circle cx="334.64" cy="483.80" r="4" fill="#2F6BFF" opacity="0.72"/><circle cx="330.60" cy="483.20" r="4" fill="#2F6BFF" opacity="0.72"/><circle cx="337.13" cy="483.80" r="4" fill="#2F6BFF" opacity="0.72"/><circle cx="332.09" cy="485.60" r="4" fill="#7557B8" opacity="0.72"/><circle cx="339.21" cy="485.00" r="4" fill="#7557B8" opacity="0.72"/><circle cx="332.46" cy="483.20" r="4" fill="#2F6BFF" opacity="0.72"/><circle cx="282.03" cy="484.40" r="4" fill="#2F6BFF" opacity="0.72"/><circle cx="275.52" cy="485.60" r="4" fill="#2F6BFF" opacity="0.72"/><circle cx="320.28" cy="483.80" r="4" fill="#2F6BFF" opacity="0.72"/><circle cx="448.19" cy="485.60" r="4" fill="#2F6BFF" opacity="0.72"/><circle cx="301.30" cy="485.60" r="4" fill="#2F6BFF" opacity="0.72"/><circle cx="315.55" cy="484.40" r="4" fill="#2F6BFF" opacity="0.72"/><circle cx="285.73" cy="485.60" r="4" fill="#2F6BFF" opacity="0.72"/><circle cx="335.36" cy="485.00" r="4" fill="#2F6BFF" opacity="0.72"/><circle cx="339.56" cy="484.40" r="4" fill="#2F6BFF" opacity="0.72"/><circle cx="325.98" cy="483.80" r="4" fill="#2F6BFF" opacity="0.72"/><circle cx="295.49" cy="485.00" r="4" fill="#2F6BFF" opacity="0.72"/><circle cx="323.17" cy="483.80" r="4" fill="#2F6BFF" opacity="0.72"/><circle cx="368.47" cy="480.20" r="4" fill="#2F6BFF" opacity="0.72"/><circle cx="354.10" cy="481.40" r="4" fill="#2F6BFF" opacity="0.72"/><circle cx="272.79" cy="484.40" r="4" fill="#2F6BFF" opacity="0.72"/><circle cx="334.28" cy="484.40" r="4" fill="#2F6BFF" opacity="0.72"/><circle cx="299.23" cy="485.00" r="4" fill="#2F6BFF" opacity="0.72"/><circle cx="331.72" cy="484.40" r="4" fill="#2F6BFF" opacity="0.72"/><circle cx="307.26" cy="483.80" r="4" fill="#2F6BFF" opacity="0.72"/><circle cx="292.72" cy="484.40" r="4" fill="#2F6BFF" opacity="0.72"/><circle cx="323.58" cy="483.80" r="4" fill="#2F6BFF" opacity="0.72"/><circle cx="304.83" cy="484.40" r="4" fill="#2F6BFF" opacity="0.72"/><circle cx="705.82" cy="56.00" r="4" fill="#7557B8" opacity="0.72"/><circle cx="256.14" cy="486.20" r="4" fill="#2F6BFF" opacity="0.72"/><circle cx="242.83" cy="486.20" r="4" fill="#2F6BFF" opacity="0.72"/><circle cx="469.57" cy="469.40" r="4" fill="#2F6BFF" opacity="0.72"/><circle cx="520.81" cy="458.60" r="4" fill="#2F6BFF" opacity="0.72"/><circle cx="281.40" cy="485.00" r="4" fill="#2F6BFF" opacity="0.72"/><circle cx="250.16" cy="485.60" r="4" fill="#2F6BFF" opacity="0.72"/><circle cx="229.55" cy="486.80" r="4" fill="#2F6BFF" opacity="0.72"/><circle cx="387.13" cy="485.00" r="4" fill="#5C6670" opacity="0.72"/><circle cx="421.66" cy="485.00" r="4" fill="#2F6BFF" opacity="0.72"/><circle cx="337.83" cy="485.00" r="4" fill="#2F6BFF" opacity="0.72"/><circle cx="436.72" cy="466.40" r="4" fill="#D96C06" opacity="0.72"/><circle cx="342.91" cy="483.80" r="4" fill="#2F6BFF" opacity="0.72"/><circle cx="282.66" cy="484.40" r="4" fill="#2F6BFF" opacity="0.72"/><circle cx="304.33" cy="484.40" r="4" fill="#2F6BFF" opacity="0.72"/><circle cx="399.86" cy="477.20" r="4" fill="#D96C06" opacity="0.72"/><circle cx="369.48" cy="481.40" r="4" fill="#2F6BFF" opacity="0.72"/><circle cx="452.01" cy="477.80" r="4" fill="#2F6BFF" opacity="0.72"/><circle cx="467.92" cy="473.60" r="4" fill="#2F6BFF" opacity="0.72"/><circle cx="301.81" cy="484.40" r="4" fill="#2F6BFF" opacity="0.72"/><circle cx="411.71" cy="483.80" r="4" fill="#2F6BFF" opacity="0.72"/><circle cx="597.25" cy="458.00" r="4" fill="#2F6BFF" opacity="0.72"/><circle cx="423.23" cy="486.20" r="4" fill="#2F6BFF" opacity="0.72"/><circle cx="572.75" cy="482.00" r="4" fill="#2F6BFF" opacity="0.72"/><circle cx="476.14" cy="483.20" r="4" fill="#2F6BFF" opacity="0.72"/><circle cx="500.51" cy="471.80" r="4" fill="#2F6BFF" opacity="0.72"/><circle cx="553.20" cy="462.80" r="4" fill="#2F6BFF" opacity="0.72"/><circle cx="467.83" cy="476.60" r="4" fill="#2F6BFF" opacity="0.72"/><circle cx="478.91" cy="467.00" r="4" fill="#2F6BFF" opacity="0.72"/><circle cx="284.51" cy="484.40" r="4" fill="#D96C06" opacity="0.72"/><circle cx="272.09" cy="485.00" r="4" fill="#2F6BFF" opacity="0.72"/><circle cx="251.91" cy="485.00" r="4" fill="#D96C06" opacity="0.72"/><circle cx="282.03" cy="485.60" r="4" fill="#2F6BFF" opacity="0.72"/><circle cx="245.65" cy="485.60" r="4" fill="#2F6BFF" opacity="0.72"/><circle cx="303.33" cy="485.00" r="4" fill="#2F6BFF" opacity="0.72"/><circle cx="130.19" cy="487.40" r="4" fill="#2F6BFF" opacity="0.72"/><circle cx="306.30" cy="486.80" r="4" fill="#5C6670" opacity="0.72"/><circle cx="434.99" cy="480.20" r="4" fill="#2F6BFF" opacity="0.72"/><circle cx="469.74" cy="476.00" r="4" fill="#2F6BFF" opacity="0.72"/><circle cx="223.90" cy="486.80" r="4" fill="#2F6BFF" opacity="0.72"/><circle cx="345.84" cy="483.80" r="4" fill="#2F6BFF" opacity="0.72"/><circle cx="318.59" cy="485.00" r="4" fill="#7557B8" opacity="0.72"/><circle cx="310.11" cy="482.60" r="4" fill="#7557B8" opacity="0.72"/><circle cx="315.11" cy="483.20" r="4" fill="#7557B8" opacity="0.72"/><circle cx="278.18" cy="485.00" r="4" fill="#2F6BFF" opacity="0.72"/><circle cx="297.11" cy="483.20" r="4" fill="#2F6BFF" opacity="0.72"/><circle cx="290.45" cy="483.80" r="4" fill="#2F6BFF" opacity="0.72"/><circle cx="275.52" cy="485.00" r="4" fill="#2F6BFF" opacity="0.72"/><circle cx="303.33" cy="483.80" r="4" fill="#2F6BFF" opacity="0.72"/><circle cx="319.44" cy="482.60" r="4" fill="#2F6BFF" opacity="0.72"/><circle cx="285.12" cy="484.40" r="4" fill="#2F6BFF" opacity="0.72"/><circle cx="272.79" cy="485.60" r="4" fill="#2F6BFF" opacity="0.72"/><circle cx="294.94" cy="484.40" r="4" fill="#2F6BFF" opacity="0.72"/><circle cx="288.71" cy="486.80" r="4" fill="#2F6BFF" opacity="0.72"/><circle cx="302.32" cy="483.80" r="4" fill="#2F6BFF" opacity="0.72"/><circle cx="283.28" cy="484.40" r="4" fill="#2F6BFF" opacity="0.72"/><circle cx="289.87" cy="485.00" r="4" fill="#D96C06" opacity="0.72"/><circle cx="259.39" cy="485.60" r="4" fill="#D96C06" opacity="0.72"/><circle cx="366.18" cy="483.80" r="4" fill="#2F6BFF" opacity="0.72"/><circle cx="272.09" cy="486.20" r="4" fill="#2F6BFF" opacity="0.72"/><circle cx="307.74" cy="484.40" r="4" fill="#2F6BFF" opacity="0.72"/><circle cx="249.27" cy="486.80" r="4" fill="#2F6BFF" opacity="0.72"/><circle cx="283.28" cy="486.20" r="4" fill="#7557B8" opacity="0.72"/><circle cx="282.66" cy="484.40" r="4" fill="#2F6BFF" opacity="0.72"/><circle cx="323.98" cy="485.60" r="4" fill="#2F6BFF" opacity="0.72"/><circle cx="316.43" cy="485.00" r="4" fill="#2F6BFF" opacity="0.72"/><circle cx="332.09" cy="484.40" r="4" fill="#2F6BFF" opacity="0.72"/><circle cx="292.16" cy="485.00" r="4" fill="#2F6BFF" opacity="0.72"/><circle cx="315.99" cy="483.80" r="4" fill="#D96C06" opacity="0.72"/><circle cx="303.33" cy="485.00" r="4" fill="#2F6BFF" opacity="0.72"/><circle cx="362.77" cy="483.80" r="4" fill="#2F6BFF" opacity="0.72"/><circle cx="361.97" cy="483.80" r="4" fill="#2F6BFF" opacity="0.72"/><circle cx="272.79" cy="484.40" r="4" fill="#7557B8" opacity="0.72"/><circle cx="329.84" cy="486.20" r="4" fill="#2F6BFF" opacity="0.72"/><circle cx="359.78" cy="486.20" r="4" fill="#2F6BFF" opacity="0.72"/><circle cx="347.42" cy="482.60" r="4" fill="#2F6BFF" opacity="0.72"/><circle cx="280.12" cy="485.00" r="4" fill="#2F6BFF" opacity="0.72"/><circle cx="362.50" cy="479.00" r="4" fill="#D96C06" opacity="0.72"/><circle cx="332.09" cy="481.40" r="4" fill="#2F6BFF" opacity="0.72"/><circle cx="346.16" cy="485.60" r="4" fill="#2F6BFF" opacity="0.72"/><circle cx="413.60" cy="474.80" r="4" fill="#D96C06" opacity="0.72"/><circle cx="382.48" cy="477.20" r="4" fill="#D96C06" opacity="0.72"/><circle cx="336.07" cy="483.80" r="4" fill="#2F6BFF" opacity="0.72"/><circle cx="420.22" cy="485.00" r="4" fill="#7557B8" opacity="0.72"/><circle cx="295.49" cy="483.20" r="4" fill="#2F6BFF" opacity="0.72"/><circle cx="239.93" cy="485.60" r="4" fill="#2F6BFF" opacity="0.72"/><circle cx="292.72" cy="484.40" r="4" fill="#2F6BFF" opacity="0.72"/><circle cx="369.48" cy="483.80" r="4" fill="#7557B8" opacity="0.72"/><circle cx="325.18" cy="486.20" r="4" fill="#2F6BFF" opacity="0.72"/><circle cx="331.72" cy="486.80" r="4" fill="#2F6BFF" opacity="0.72"/><circle cx="274.16" cy="485.00" r="4" fill="#2F6BFF" opacity="0.72"/><circle cx="309.17" cy="485.00" r="4" fill="#2F6BFF" opacity="0.72"/><circle cx="340.91" cy="484.40" r="4" fill="#2F6BFF" opacity="0.72"/><circle cx="309.17" cy="484.40" r="4" fill="#D96C06" opacity="0.72"/><circle cx="311.96" cy="485.60" r="4" fill="#2F6BFF" opacity="0.72"/><circle cx="304.33" cy="486.20" r="4" fill="#2F6BFF" opacity="0.72"/><circle cx="321.53" cy="485.60" r="4" fill="#2F6BFF" opacity="0.72"/><circle cx="296.57" cy="483.80" r="4" fill="#2F6BFF" opacity="0.72"/><circle cx="350.82" cy="483.80" r="4" fill="#2F6BFF" opacity="0.72"/><circle cx="302.32" cy="484.40" r="4" fill="#D96C06" opacity="0.72"/><circle cx="287.53" cy="485.00" r="4" fill="#2F6BFF" opacity="0.72"/><circle cx="394.28" cy="484.40" r="4" fill="#2F6BFF" opacity="0.72"/><circle cx="257.78" cy="485.00" r="4" fill="#2F6BFF" opacity="0.72"/><circle cx="294.39" cy="485.00" r="4" fill="#2F6BFF" opacity="0.72"/><circle cx="256.14" cy="486.20" r="4" fill="#2F6BFF" opacity="0.72"/><circle cx="310.11" cy="484.40" r="4" fill="#2F6BFF" opacity="0.72"/><circle cx="335.36" cy="484.40" r="4" fill="#2F6BFF" opacity="0.72"/><circle cx="303.83" cy="484.40" r="4" fill="#2F6BFF" opacity="0.72"/><circle cx="387.13" cy="483.80" r="4" fill="#2F6BFF" opacity="0.72"/><circle cx="323.98" cy="484.40" r="4" fill="#2F6BFF" opacity="0.72"/><circle cx="272.79" cy="485.00" r="4" fill="#2F6BFF" opacity="0.72"/><circle cx="355.84" cy="483.80" r="4" fill="#2F6BFF" opacity="0.72"/><circle cx="304.33" cy="483.80" r="4" fill="#D96C06" opacity="0.72"/><circle cx="272.09" cy="486.80" r="4" fill="#2F6BFF" opacity="0.72"/><circle cx="290.45" cy="485.00" r="4" fill="#2F6BFF" opacity="0.72"/><circle cx="245.65" cy="485.60" r="4" fill="#2F6BFF" opacity="0.72"/><circle cx="313.32" cy="485.60" r="4" fill="#2F6BFF" opacity="0.72"/><circle cx="415.14" cy="474.20" r="4" fill="#2F6BFF" opacity="0.72"/><circle cx="301.30" cy="484.40" r="4" fill="#2F6BFF" opacity="0.72"/><circle cx="402.00" cy="476.00" r="4" fill="#2F6BFF" opacity="0.72"/><circle cx="296.57" cy="483.80" r="4" fill="#7557B8" opacity="0.72"/><circle cx="338.52" cy="483.80" r="4" fill="#2F6BFF" opacity="0.72"/><circle cx="374.56" cy="476.60" r="4" fill="#2F6BFF" opacity="0.72"/><circle cx="451.07" cy="469.40" r="4" fill="#2F6BFF" opacity="0.72"/><circle cx="347.11" cy="483.80" r="4" fill="#2F6BFF" opacity="0.72"/><circle cx="319.02" cy="483.80" r="4" fill="#D96C06" opacity="0.72"/><circle cx="398.95" cy="484.40" r="4" fill="#2F6BFF" opacity="0.72"/><circle cx="325.18" cy="483.80" r="4" fill="#2F6BFF" opacity="0.72"/><circle cx="322.36" cy="484.40" r="4" fill="#2F6BFF" opacity="0.72"/><circle cx="310.11" cy="485.00" r="4" fill="#2F6BFF" opacity="0.72"/><circle cx="750.00" cy="180.20" r="4" fill="#D96C06" opacity="0.72"/><circle cx="738.15" cy="227.00" r="4" fill="#D96C06" opacity="0.72"/><circle cx="356.13" cy="484.40" r="4" fill="#2F6BFF" opacity="0.72"/><circle cx="461.95" cy="474.20" r="4" fill="#D96C06" opacity="0.72"/><circle cx="359.78" cy="485.00" r="4" fill="#2F6BFF" opacity="0.72"/><circle cx="424.07" cy="485.60" r="4" fill="#2F6BFF" opacity="0.72"/><circle cx="360.61" cy="484.40" r="4" fill="#2F6BFF" opacity="0.72"/><circle cx="372.42" cy="483.80" r="4" fill="#2F6BFF" opacity="0.72"/><circle cx="384.41" cy="483.20" r="4" fill="#2F6BFF" opacity="0.72"/><circle cx="430.15" cy="485.00" r="4" fill="#2F6BFF" opacity="0.72"/><circle cx="345.19" cy="484.40" r="4" fill="#7557B8" opacity="0.72"/><circle cx="364.62" cy="484.40" r="4" fill="#7557B8" opacity="0.72"/><circle cx="484.22" cy="471.20" r="4" fill="#D96C06" opacity="0.72"/><circle cx="391.57" cy="483.80" r="4" fill="#2F6BFF" opacity="0.72"/><circle cx="380.28" cy="484.40" r="4" fill="#2F6BFF" opacity="0.72"/><circle cx="292.72" cy="486.80" r="4" fill="#7557B8" opacity="0.72"/><circle cx="462.60" cy="465.80" r="4" fill="#7557B8" opacity="0.72"/><circle cx="326.37" cy="486.80" r="4" fill="#2F6BFF" opacity="0.72"/><circle cx="403.74" cy="485.00" r="4" fill="#7557B8" opacity="0.72"/><circle cx="245.65" cy="485.60" r="4" fill="#2F6BFF" opacity="0.72"/><circle cx="300.79" cy="485.00" r="4" fill="#2F6BFF" opacity="0.72"/><circle cx="303.83" cy="485.00" r="4" fill="#2F6BFF" opacity="0.72"/><circle cx="339.21" cy="483.80" r="4" fill="#2F6BFF" opacity="0.72"/><circle cx="159.66" cy="486.80" r="4" fill="#2F6BFF" opacity="0.72"/><circle cx="351.12" cy="480.80" r="4" fill="#2F6BFF" opacity="0.72"/><circle cx="278.18" cy="485.00" r="4" fill="#2F6BFF" opacity="0.72"/><circle cx="308.70" cy="485.60" r="4" fill="#2F6BFF" opacity="0.72"/><circle cx="277.52" cy="485.00" r="4" fill="#7557B8" opacity="0.72"/><circle cx="293.84" cy="484.40" r="4" fill="#2F6BFF" opacity="0.72"/><circle cx="364.36" cy="482.60" r="4" fill="#2F6BFF" opacity="0.72"/><circle cx="251.91" cy="486.80" r="4" fill="#C43C39" opacity="0.72"/><circle cx="295.49" cy="484.40" r="4" fill="#2F6BFF" opacity="0.72"/><circle cx="293.84" cy="484.40" r="4" fill="#2F6BFF" opacity="0.72"/><circle cx="303.33" cy="485.00" r="4" fill="#2F6BFF" opacity="0.72"/><circle cx="293.84" cy="484.40" r="4" fill="#2F6BFF" opacity="0.72"/><circle cx="399.50" cy="483.20" r="4" fill="#7557B8" opacity="0.72"/><circle cx="296.57" cy="485.60" r="4" fill="#2F6BFF" opacity="0.72"/><circle cx="211.47" cy="486.20" r="4" fill="#2F6BFF" opacity="0.72"/><circle cx="228.44" cy="486.80" r="4" fill="#7557B8" opacity="0.72"/><circle cx="458.62" cy="470.00" r="4" fill="#7557B8" opacity="0.72"/><circle cx="288.12" cy="485.00" r="4" fill="#2F6BFF" opacity="0.72"/><circle cx="288.12" cy="485.00" r="4" fill="#5C6670" opacity="0.72"/><circle cx="371.69" cy="479.00" r="4" fill="#7557B8" opacity="0.72"/><circle cx="423.51" cy="477.80" r="4" fill="#7557B8" opacity="0.72"/><circle cx="304.83" cy="485.60" r="4" fill="#7557B8" opacity="0.72"/><circle cx="474.19" cy="461.00" r="4" fill="#2F6BFF" opacity="0.72"/><circle cx="480.15" cy="459.80" r="4" fill="#7557B8" opacity="0.72"/><circle cx="250.16" cy="486.80" r="4" fill="#7557B8" opacity="0.72"/><circle cx="302.32" cy="484.40" r="4" fill="#5C6670" opacity="0.72"/><circle cx="358.39" cy="480.20" r="4" fill="#5C6670" opacity="0.72"/><circle cx="293.84" cy="485.00" r="4" fill="#2F6BFF" opacity="0.72"/><circle cx="306.78" cy="483.80" r="4" fill="#2F6BFF" opacity="0.72"/><circle cx="278.18" cy="485.00" r="4" fill="#2F6BFF" opacity="0.72"/><rect x="775" y="52" width="12" height="12" fill="#2F6BFF"/><text x="793.00" y="63.00" font-family="Inter, Arial, sans-serif" font-size="11" fill="#1F2933" text-anchor="start" font-weight="400">correct only</text><rect x="775" y="73" width="12" height="12" fill="#D96C06"/><text x="793.00" y="84.00" font-family="Inter, Arial, sans-serif" font-size="11" fill="#1F2933" text-anchor="start" font-weight="400">under</text><rect x="775" y="94" width="12" height="12" fill="#7557B8"/><text x="793.00" y="105.00" font-family="Inter, Arial, sans-serif" font-size="11" fill="#1F2933" text-anchor="start" font-weight="400">over</text><rect x="775" y="115" width="12" height="12" fill="#C43C39"/><text x="793.00" y="126.00" font-family="Inter, Arial, sans-serif" font-size="11" fill="#1F2933" text-anchor="start" font-weight="400">under+over</text><rect x="775" y="136" width="12" height="12" fill="#5C6670"/><text x="793.00" y="147.00" font-family="Inter, Arial, sans-serif" font-size="11" fill="#1F2933" text-anchor="start" font-weight="400">timeout</text><line x1="82" y1="488" x2="750" y2="488" stroke="#1F2933"/><line x1="82" y1="56" x2="82" y2="488" stroke="#1F2933"/><text x="416.00" y="538.00" font-family="Inter, Arial, sans-serif" font-size="12" fill="#1F2933" text-anchor="middle" font-weight="400">schema_json_chars (log)</text><text x="22.00" y="272.00" font-family="Inter, Arial, sans-serif" font-size="12" fill="#1F2933" text-anchor="middle" font-weight="400">nb_keywords</text></svg>
