<svg xmlns="http://www.w3.org/2000/svg" width="900" height="560" viewBox="0 0 900 560" role="img" aria-label="Schema size vs compile time"><rect width="100%" height="100%" fill="#FFFFFF"/><text x="24.00" y="30.00" font-family="Inter, Arial, sans-serif" font-size="17" fill="#1F2933" text-anchor="start" font-weight="700">Schema size vs compile time</text><line x1="82.00" y1="56" x2="82.00" y2="488" stroke="#D9DEE5"/><line x1="82" y1="56.00" x2="868" y2="56.00" stroke="#D9DEE5"/><line x1="239.20" y1="56" x2="239.20" y2="488" stroke="#D9DEE5"/><line x1="82" y1="142.40" x2="868" y2="142.40" stroke="#D9DEE5"/><line x1="396.40" y1="56" x2="396.40" y2="488" stroke="#D9DEE5"/><line x1="82" y1="228.80" x2="868" y2="228.80" stroke="#D9DEE5"/><line x1="553.60" y1="56" x2="553.60" y2="488" stroke="#D9DEE5"/><line x1="82" y1="315.20" x2="868" y2="315.20" stroke="#D9DEE5"/><line x1="710.80" y1="56" x2="710.80" y2="488" stroke="#D9DEE5"/><line x1="82" y1="401.60" x2="868" y2="401.60" stroke="#D9DEE5"/><line x1="868.00" y1="56" x2="868.00" y2="488" stroke="#D9DEE5"/><line x1="82" y1="488.00" x2="868" y2="488.00" stroke="#D9DEE5"/><circle cx="397.59" cy="455.08" r="4.2" fill="#2F6BFF" opacity="0.72"/><circle cx="300.62" cy="467.45" r="4.2" fill="#2F6BFF" opacity="0.72"/><circle cx="473.99" cy="393.59" r="4.2" fill="#2F6BFF" opacity="0.72"/><circle cx="326.59" cy="472.04" r="4.2" fill="#2F6BFF" opacity="0.72"/><circle cx="446.25" cy="450.98" r="4.2" fill="#2F6BFF" opacity="0.72"/><circle cx="270.11" cy="468.05" r="4.2" fill="#2F6BFF" opacity="0.72"/><circle cx="311.28" cy="447.62" r="4.2" fill="#2F6BFF" opacity="0.72"/><circle cx="358.87" cy="466.12" r="4.2" fill="#2F6BFF" opacity="0.72"/><circle cx="336.36" cy="453.55" r="4.2" fill="#2F6BFF" opacity="0.72"/><circle cx="321.72" cy="458.38" r="4.2" fill="#2F6BFF" opacity="0.72"/><circle cx="359.88" cy="462.98" r="4.2" fill="#2F6BFF" opacity="0.72"/><circle cx="380.12" cy="475.37" r="4.2" fill="#2F6BFF" opacity="0.72"/><circle cx="389.39" cy="466.03" r="4.2" fill="#2F6BFF" opacity="0.72"/><circle cx="317.36" cy="345.95" r="4.2" fill="#2F6BFF" opacity="0.72"/><circle cx="261.89" cy="477.58" r="4.2" fill="#2F6BFF" opacity="0.72"/><circle cx="508.60" cy="445.47" r="4.2" fill="#2F6BFF" opacity="0.72"/><circle cx="359.88" cy="460.40" r="4.2" fill="#2F6BFF" opacity="0.72"/><circle cx="310.50" cy="479.09" r="4.2" fill="#2F6BFF" opacity="0.72"/><circle cx="327.27" cy="475.44" r="4.2" fill="#2F6BFF" opacity="0.72"/><circle cx="343.60" cy="473.48" r="4.2" fill="#2F6BFF" opacity="0.72"/><circle cx="343.02" cy="462.80" r="4.2" fill="#2F6BFF" opacity="0.72"/><circle cx="542.60" cy="478.41" r="4.2" fill="#2F6BFF" opacity="0.72"/><circle cx="395.41" cy="458.92" r="4.2" fill="#2F6BFF" opacity="0.72"/><circle cx="312.06" cy="472.87" r="4.2" fill="#2F6BFF" opacity="0.72"/><circle cx="256.90" cy="481.19" r="4.2" fill="#2F6BFF" opacity="0.72"/><circle cx="347.06" cy="481.04" r="4.2" fill="#2F6BFF" opacity="0.72"/><circle cx="378.42" cy="467.59" r="4.2" fill="#2F6BFF" opacity="0.72"/><circle cx="348.18" cy="481.24" r="4.2" fill="#2F6BFF" opacity="0.72"/><circle cx="308.91" cy="454.85" r="4.2" fill="#2F6BFF" opacity="0.72"/><circle cx="378.00" cy="474.96" r="4.2" fill="#2F6BFF" opacity="0.72"/><circle cx="403.19" cy="471.70" r="4.2" fill="#2F6BFF" opacity="0.72"/><circle cx="398.66" cy="465.73" r="4.2" fill="#2F6BFF" opacity="0.72"/><circle cx="361.88" cy="471.74" r="4.2" fill="#2F6BFF" opacity="0.72"/><circle cx="439.07" cy="463.98" r="4.2" fill="#2F6BFF" opacity="0.72"/><circle cx="352.04" cy="468.97" r="4.2" fill="#2F6BFF" opacity="0.72"/><circle cx="329.28" cy="474.73" r="4.2" fill="#2F6BFF" opacity="0.72"/><circle cx="356.29" cy="472.73" r="4.2" fill="#2F6BFF" opacity="0.72"/><circle cx="344.77" cy="477.04" r="4.2" fill="#2F6BFF" opacity="0.72"/><circle cx="279.87" cy="444.46" r="4.2" fill="#2F6BFF" opacity="0.72"/><circle cx="222.81" cy="479.07" r="4.2" fill="#2F6BFF" opacity="0.72"/><circle cx="285.92" cy="473.67" r="4.2" fill="#2F6BFF" opacity="0.72"/><circle cx="303.17" cy="471.12" r="4.2" fill="#2F6BFF" opacity="0.72"/><circle cx="282.93" cy="469.08" r="4.2" fill="#2F6BFF" opacity="0.72"/><circle cx="308.11" cy="469.47" r="4.2" fill="#2F6BFF" opacity="0.72"/><circle cx="277.77" cy="469.34" r="4.2" fill="#2F6BFF" opacity="0.72"/><circle cx="314.36" cy="423.70" r="4.2" fill="#2F6BFF" opacity="0.72"/><circle cx="277.77" cy="469.28" r="4.2" fill="#2F6BFF" opacity="0.72"/><circle cx="314.36" cy="412.45" r="4.2" fill="#2F6BFF" opacity="0.72"/><circle cx="280.90" cy="462.74" r="4.2" fill="#2F6BFF" opacity="0.72"/><circle cx="320.29" cy="442.75" r="4.2" fill="#2F6BFF" opacity="0.72"/><circle cx="321.00" cy="460.31" r="4.2" fill="#2F6BFF" opacity="0.72"/><circle cx="537.63" cy="370.45" r="4.2" fill="#2F6BFF" opacity="0.72"/><circle cx="451.68" cy="457.71" r="4.2" fill="#2F6BFF" opacity="0.72"/><circle cx="594.86" cy="339.41" r="4.2" fill="#2F6BFF" opacity="0.72"/><circle cx="502.49" cy="386.64" r="4.2" fill="#2F6BFF" opacity="0.72"/><circle cx="349.30" cy="463.01" r="4.2" fill="#2F6BFF" opacity="0.72"/><circle cx="277.77" cy="473.43" r="4.2" fill="#2F6BFF" opacity="0.72"/><circle cx="363.36" cy="463.26" r="4.2" fill="#2F6BFF" opacity="0.72"/><circle cx="302.33" cy="471.77" r="4.2" fill="#2F6BFF" opacity="0.72"/><circle cx="366.73" cy="471.59" r="4.2" fill="#2F6BFF" opacity="0.72"/><circle cx="338.22" cy="259.02" r="4.2" fill="#2F6BFF" opacity="0.72"/><circle cx="323.83" cy="473.85" r="4.2" fill="#2F6BFF" opacity="0.72"/><circle cx="331.26" cy="477.43" r="4.2" fill="#2F6BFF" opacity="0.72"/><circle cx="82.00" cy="479.53" r="4.2" fill="#2F6BFF" opacity="0.72"/><circle cx="176.06" cy="478.01" r="4.2" fill="#2F6BFF" opacity="0.72"/><circle cx="301.48" cy="471.25" r="4.2" fill="#2F6BFF" opacity="0.72"/><circle cx="197.61" cy="468.13" r="4.2" fill="#2F6BFF" opacity="0.72"/><circle cx="138.71" cy="474.54" r="4.2" fill="#2F6BFF" opacity="0.72"/><circle cx="334.48" cy="450.01" r="4.2" fill="#2F6BFF" opacity="0.72"/><circle cx="221.07" cy="479.95" r="4.2" fill="#2F6BFF" opacity="0.72"/><circle cx="331.91" cy="453.25" r="4.2" fill="#2F6BFF" opacity="0.72"/><circle cx="355.24" cy="432.49" r="4.2" fill="#2F6BFF" opacity="0.72"/><circle cx="368.14" cy="431.60" r="4.2" fill="#2F6BFF" opacity="0.72"/><circle cx="431.39" cy="395.26" r="4.2" fill="#2F6BFF" opacity="0.72"/><circle cx="386.25" cy="460.07" r="4.2" fill="#2F6BFF" opacity="0.72"/><circle cx="420.26" cy="470.72" r="4.2" fill="#2F6BFF" opacity="0.72"/><circle cx="304.01" cy="463.37" r="4.2" fill="#2F6BFF" opacity="0.72"/><circle cx="285.92" cy="474.04" r="4.2" fill="#2F6BFF" opacity="0.72"/><circle cx="583.61" cy="330.87" r="4.2" fill="#2F6BFF" opacity="0.72"/><circle cx="317.36" cy="467.86" r="4.2" fill="#2F6BFF" opacity="0.72"/><circle cx="409.82" cy="472.13" r="4.2" fill="#2F6BFF" opacity="0.72"/><circle cx="598.50" cy="479.37" r="4.2" fill="#2F6BFF" opacity="0.72"/><circle cx="816.02" cy="272.32" r="4.2" fill="#2F6BFF" opacity="0.72"/><circle cx="381.79" cy="470.69" r="4.2" fill="#2F6BFF" opacity="0.72"/><circle cx="229.54" cy="465.91" r="4.2" fill="#2F6BFF" opacity="0.72"/><circle cx="369.54" cy="473.00" r="4.2" fill="#2F6BFF" opacity="0.72"/><circle cx="344.19" cy="465.01" r="4.2" fill="#2F6BFF" opacity="0.72"/><circle cx="357.33" cy="455.42" r="4.2" fill="#2F6BFF" opacity="0.72"/><circle cx="366.25" cy="426.71" r="4.2" fill="#2F6BFF" opacity="0.72"/><circle cx="577.32" cy="368.22" r="4.2" fill="#2F6BFF" opacity="0.72"/><circle cx="367.67" cy="470.23" r="4.2" fill="#2F6BFF" opacity="0.72"/><circle cx="512.88" cy="400.28" r="4.2" fill="#2F6BFF" opacity="0.72"/><circle cx="318.10" cy="452.78" r="4.2" fill="#2F6BFF" opacity="0.72"/><circle cx="347.06" cy="474.11" r="4.2" fill="#2F6BFF" opacity="0.72"/><circle cx="383.84" cy="468.74" r="4.2" fill="#2F6BFF" opacity="0.72"/><circle cx="333.84" cy="464.09" r="4.2" fill="#2F6BFF" opacity="0.72"/><circle cx="319.56" cy="469.34" r="4.2" fill="#2F6BFF" opacity="0.72"/><circle cx="378.85" cy="462.03" r="4.2" fill="#2F6BFF" opacity="0.72"/><circle cx="338.22" cy="467.52" r="4.2" fill="#2F6BFF" opacity="0.72"/><circle cx="385.45" cy="463.21" r="4.2" fill="#2F6BFF" opacity="0.72"/><circle cx="356.29" cy="467.25" r="4.2" fill="#2F6BFF" opacity="0.72"/><circle cx="360.38" cy="463.06" r="4.2" fill="#2F6BFF" opacity="0.72"/><circle cx="360.38" cy="468.74" r="4.2" fill="#2F6BFF" opacity="0.72"/><circle cx="391.69" cy="460.33" r="4.2" fill="#2F6BFF" opacity="0.72"/><circle cx="365.29" cy="469.41" r="4.2" fill="#2F6BFF" opacity="0.72"/><circle cx="362.37" cy="473.47" r="4.2" fill="#2F6BFF" opacity="0.72"/><circle cx="304.01" cy="466.50" r="4.2" fill="#2F6BFF" opacity="0.72"/><circle cx="350.40" cy="412.83" r="4.2" fill="#2F6BFF" opacity="0.72"/><circle cx="398.66" cy="440.19" r="4.2" fill="#2F6BFF" opacity="0.72"/><circle cx="325.91" cy="478.95" r="4.2" fill="#2F6BFF" opacity="0.72"/><circle cx="344.19" cy="256.34" r="4.2" fill="#2F6BFF" opacity="0.72"/><circle cx="445.09" cy="462.18" r="4.2" fill="#2F6BFF" opacity="0.72"/><circle cx="507.01" cy="452.87" r="4.2" fill="#2F6BFF" opacity="0.72"/><circle cx="423.72" cy="461.88" r="4.2" fill="#2F6BFF" opacity="0.72"/><circle cx="402.85" cy="474.16" r="4.2" fill="#2F6BFF" opacity="0.72"/><circle cx="345.34" cy="453.42" r="4.2" fill="#2F6BFF" opacity="0.72"/><circle cx="334.48" cy="463.65" r="4.2" fill="#2F6BFF" opacity="0.72"/><circle cx="687.61" cy="461.47" r="4.2" fill="#2F6BFF" opacity="0.72"/><circle cx="548.57" cy="444.59" r="4.2" fill="#2F6BFF" opacity="0.72"/><circle cx="614.87" cy="470.04" r="4.2" fill="#2F6BFF" opacity="0.72"/><circle cx="657.70" cy="466.98" r="4.2" fill="#2F6BFF" opacity="0.72"/><circle cx="623.13" cy="471.32" r="4.2" fill="#2F6BFF" opacity="0.72"/><circle cx="625.14" cy="463.13" r="4.2" fill="#2F6BFF" opacity="0.72"/><circle cx="731.81" cy="469.95" r="4.2" fill="#2F6BFF" opacity="0.72"/><circle cx="788.64" cy="463.38" r="4.2" fill="#2F6BFF" opacity="0.72"/><circle cx="762.08" cy="464.65" r="4.2" fill="#2F6BFF" opacity="0.72"/><circle cx="747.09" cy="475.08" r="4.2" fill="#2F6BFF" opacity="0.72"/><circle cx="673.67" cy="467.91" r="4.2" fill="#2F6BFF" opacity="0.72"/><circle cx="772.93" cy="463.24" r="4.2" fill="#2F6BFF" opacity="0.72"/><circle cx="308.91" cy="464.44" r="4.2" fill="#2F6BFF" opacity="0.72"/><circle cx="296.23" cy="469.19" r="4.2" fill="#2F6BFF" opacity="0.72"/><circle cx="398.66" cy="465.15" r="4.2" fill="#2F6BFF" opacity="0.72"/><circle cx="267.82" cy="464.96" r="4.2" fill="#2F6BFF" opacity="0.72"/><circle cx="344.77" cy="464.14" r="4.2" fill="#2F6BFF" opacity="0.72"/><circle cx="315.87" cy="470.26" r="4.2" fill="#2F6BFF" opacity="0.72"/><circle cx="336.36" cy="465.74" r="4.2" fill="#2F6BFF" opacity="0.72"/><circle cx="357.84" cy="465.58" r="4.2" fill="#2F6BFF" opacity="0.72"/><circle cx="305.67" cy="477.01" r="4.2" fill="#2F6BFF" opacity="0.72"/><circle cx="684.59" cy="466.26" r="4.2" fill="#2F6BFF" opacity="0.72"/><circle cx="391.31" cy="464.34" r="4.2" fill="#2F6BFF" opacity="0.72"/><circle cx="717.56" cy="464.23" r="4.2" fill="#2F6BFF" opacity="0.72"/><circle cx="578.17" cy="429.96" r="4.2" fill="#2F6BFF" opacity="0.72"/><circle cx="291.66" cy="470.25" r="4.2" fill="#2F6BFF" opacity="0.72"/><circle cx="352.58" cy="465.28" r="4.2" fill="#2F6BFF" opacity="0.72"/><circle cx="378.00" cy="320.13" r="4.2" fill="#2F6BFF" opacity="0.72"/><circle cx="362.37" cy="156.71" r="4.2" fill="#2F6BFF" opacity="0.72"/><circle cx="234.34" cy="466.72" r="4.2" fill="#2F6BFF" opacity="0.72"/><circle cx="256.90" cy="454.55" r="4.2" fill="#2F6BFF" opacity="0.72"/><circle cx="370.00" cy="460.61" r="4.2" fill="#2F6BFF" opacity="0.72"/><circle cx="374.07" cy="453.34" r="4.2" fill="#2F6BFF" opacity="0.72"/><circle cx="340.04" cy="455.73" r="4.2" fill="#2F6BFF" opacity="0.72"/><circle cx="447.63" cy="438.60" r="4.2" fill="#2F6BFF" opacity="0.72"/><circle cx="425.69" cy="449.71" r="4.2" fill="#2F6BFF" opacity="0.72"/><circle cx="323.83" cy="464.49" r="4.2" fill="#2F6BFF" opacity="0.72"/><circle cx="379.27" cy="451.45" r="4.2" fill="#2F6BFF" opacity="0.72"/><circle cx="374.51" cy="466.73" r="4.2" fill="#2F6BFF" opacity="0.72"/><circle cx="382.20" cy="463.85" r="4.2" fill="#2F6BFF" opacity="0.72"/><circle cx="376.27" cy="469.07" r="4.2" fill="#2F6BFF" opacity="0.72"/><circle cx="384.65" cy="471.28" r="4.2" fill="#2F6BFF" opacity="0.72"/><circle cx="376.70" cy="466.27" r="4.2" fill="#2F6BFF" opacity="0.72"/><circle cx="317.36" cy="459.79" r="4.2" fill="#2F6BFF" opacity="0.72"/><circle cx="309.71" cy="468.19" r="4.2" fill="#2F6BFF" opacity="0.72"/><circle cx="362.37" cy="466.72" r="4.2" fill="#2F6BFF" opacity="0.72"/><circle cx="512.88" cy="452.73" r="4.2" fill="#2F6BFF" opacity="0.72"/><circle cx="340.04" cy="470.59" r="4.2" fill="#2F6BFF" opacity="0.72"/><circle cx="356.81" cy="463.65" r="4.2" fill="#2F6BFF" opacity="0.72"/><circle cx="321.72" cy="458.68" r="4.2" fill="#2F6BFF" opacity="0.72"/><circle cx="380.12" cy="451.74" r="4.2" fill="#2F6BFF" opacity="0.72"/><circle cx="385.05" cy="460.30" r="4.2" fill="#2F6BFF" opacity="0.72"/><circle cx="369.07" cy="467.46" r="4.2" fill="#2F6BFF" opacity="0.72"/><circle cx="333.20" cy="460.54" r="4.2" fill="#2F6BFF" opacity="0.72"/><circle cx="365.77" cy="466.10" r="4.2" fill="#2F6BFF" opacity="0.72"/><circle cx="419.08" cy="451.05" r="4.2" fill="#2F6BFF" opacity="0.72"/><circle cx="402.16" cy="458.97" r="4.2" fill="#2F6BFF" opacity="0.72"/><circle cx="306.49" cy="444.86" r="4.2" fill="#2F6BFF" opacity="0.72"/><circle cx="378.85" cy="468.53" r="4.2" fill="#2F6BFF" opacity="0.72"/><circle cx="337.60" cy="448.98" r="4.2" fill="#2F6BFF" opacity="0.72"/><circle cx="375.83" cy="457.47" r="4.2" fill="#2F6BFF" opacity="0.72"/><circle cx="347.06" cy="447.80" r="4.2" fill="#2F6BFF" opacity="0.72"/><circle cx="329.94" cy="258.17" r="4.2" fill="#2F6BFF" opacity="0.72"/><circle cx="366.25" cy="454.54" r="4.2" fill="#2F6BFF" opacity="0.72"/><circle cx="344.19" cy="462.32" r="4.2" fill="#2F6BFF" opacity="0.72"/><circle cx="816.02" cy="266.63" r="4.2" fill="#2F6BFF" opacity="0.72"/><circle cx="286.90" cy="477.19" r="4.2" fill="#2F6BFF" opacity="0.72"/><circle cx="271.24" cy="462.69" r="4.2" fill="#2F6BFF" opacity="0.72"/><circle cx="538.03" cy="430.26" r="4.2" fill="#2F6BFF" opacity="0.72"/><circle cx="598.33" cy="405.24" r="4.2" fill="#2F6BFF" opacity="0.72"/><circle cx="316.62" cy="456.19" r="4.2" fill="#2F6BFF" opacity="0.72"/><circle cx="279.87" cy="475.72" r="4.2" fill="#2F6BFF" opacity="0.72"/><circle cx="255.61" cy="468.30" r="4.2" fill="#2F6BFF" opacity="0.72"/><circle cx="441.03" cy="329.42" r="4.2" fill="#C43C39" opacity="0.72"/><circle cx="481.66" cy="455.44" r="4.2" fill="#2F6BFF" opacity="0.72"/><circle cx="383.02" cy="485.12" r="4.2" fill="#2F6BFF" opacity="0.72"/><circle cx="499.38" cy="488.00" r="4.2" fill="#2F6BFF" opacity="0.72"/><circle cx="389.00" cy="467.78" r="4.2" fill="#2F6BFF" opacity="0.72"/><circle cx="318.10" cy="473.32" r="4.2" fill="#2F6BFF" opacity="0.72"/><circle cx="343.60" cy="464.95" r="4.2" fill="#2F6BFF" opacity="0.72"/><circle cx="456.01" cy="465.38" r="4.2" fill="#2F6BFF" opacity="0.72"/><circle cx="420.26" cy="468.33" r="4.2" fill="#2F6BFF" opacity="0.72"/><circle cx="517.37" cy="424.74" r="4.2" fill="#2F6BFF" opacity="0.72"/><circle cx="536.09" cy="416.55" r="4.2" fill="#2F6BFF" opacity="0.72"/><circle cx="340.64" cy="471.05" r="4.2" fill="#2F6BFF" opacity="0.72"/><circle cx="469.95" cy="482.45" r="4.2" fill="#2F6BFF" opacity="0.72"/><circle cx="688.26" cy="423.90" r="4.2" fill="#2F6BFF" opacity="0.72"/><circle cx="483.50" cy="463.28" r="4.2" fill="#2F6BFF" opacity="0.72"/><circle cx="659.44" cy="276.43" r="4.2" fill="#2F6BFF" opacity="0.72"/><circle cx="545.77" cy="360.87" r="4.2" fill="#2F6BFF" opacity="0.72"/><circle cx="574.44" cy="438.05" r="4.2" fill="#2F6BFF" opacity="0.72"/><circle cx="636.43" cy="406.46" r="4.2" fill="#2F6BFF" opacity="0.72"/><circle cx="535.99" cy="440.94" r="4.2" fill="#2F6BFF" opacity="0.72"/><circle cx="549.03" cy="431.65" r="4.2" fill="#2F6BFF" opacity="0.72"/><circle cx="320.29" cy="464.24" r="4.2" fill="#2F6BFF" opacity="0.72"/><circle cx="305.67" cy="467.16" r="4.2" fill="#2F6BFF" opacity="0.72"/><circle cx="281.92" cy="447.56" r="4.2" fill="#2F6BFF" opacity="0.72"/><circle cx="317.36" cy="453.20" r="4.2" fill="#2F6BFF" opacity="0.72"/><circle cx="274.55" cy="468.47" r="4.2" fill="#2F6BFF" opacity="0.72"/><circle cx="342.43" cy="443.85" r="4.2" fill="#2F6BFF" opacity="0.72"/><circle cx="138.71" cy="473.57" r="4.2" fill="#2F6BFF" opacity="0.72"/><circle cx="345.92" cy="56.00" r="4.2" fill="#C43C39" opacity="0.72"/><circle cx="497.35" cy="454.73" r="4.2" fill="#2F6BFF" opacity="0.72"/><circle cx="538.23" cy="423.15" r="4.2" fill="#2F6BFF" opacity="0.72"/><circle cx="248.96" cy="482.44" r="4.2" fill="#2F6BFF" opacity="0.72"/><circle cx="392.44" cy="465.61" r="4.2" fill="#2F6BFF" opacity="0.72"/><circle cx="360.38" cy="478.36" r="4.2" fill="#2F6BFF" opacity="0.72"/><circle cx="350.40" cy="466.60" r="4.2" fill="#2F6BFF" opacity="0.72"/><circle cx="356.29" cy="481.94" r="4.2" fill="#2F6BFF" opacity="0.72"/><circle cx="312.83" cy="461.06" r="4.2" fill="#2F6BFF" opacity="0.72"/><circle cx="335.11" cy="470.44" r="4.2" fill="#2F6BFF" opacity="0.72"/><circle cx="327.27" cy="468.83" r="4.2" fill="#2F6BFF" opacity="0.72"/><circle cx="309.71" cy="472.90" r="4.2" fill="#2F6BFF" opacity="0.72"/><circle cx="342.43" cy="468.43" r="4.2" fill="#2F6BFF" opacity="0.72"/><circle cx="361.38" cy="455.61" r="4.2" fill="#2F6BFF" opacity="0.72"/><circle cx="321.00" cy="476.77" r="4.2" fill="#2F6BFF" opacity="0.72"/><circle cx="306.49" cy="469.11" r="4.2" fill="#2F6BFF" opacity="0.72"/><circle cx="332.56" cy="472.92" r="4.2" fill="#2F6BFF" opacity="0.72"/><circle cx="325.22" cy="483.45" r="4.2" fill="#2F6BFF" opacity="0.72"/><circle cx="341.24" cy="472.67" r="4.2" fill="#2F6BFF" opacity="0.72"/><circle cx="318.83" cy="403.03" r="4.2" fill="#2F6BFF" opacity="0.72"/><circle cx="326.59" cy="466.38" r="4.2" fill="#2F6BFF" opacity="0.72"/><circle cx="290.73" cy="476.36" r="4.2" fill="#2F6BFF" opacity="0.72"/><circle cx="416.38" cy="470.92" r="4.2" fill="#2F6BFF" opacity="0.72"/><circle cx="305.67" cy="470.67" r="4.2" fill="#2F6BFF" opacity="0.72"/><circle cx="347.62" cy="462.07" r="4.2" fill="#2F6BFF" opacity="0.72"/><circle cx="278.82" cy="470.42" r="4.2" fill="#2F6BFF" opacity="0.72"/><circle cx="318.83" cy="478.36" r="4.2" fill="#2F6BFF" opacity="0.72"/><circle cx="318.10" cy="160.65" r="4.2" fill="#2F6BFF" opacity="0.72"/><circle cx="366.73" cy="474.69" r="4.2" fill="#2F6BFF" opacity="0.72"/><circle cx="357.84" cy="457.69" r="4.2" fill="#2F6BFF" opacity="0.72"/><circle cx="376.27" cy="445.55" r="4.2" fill="#2F6BFF" opacity="0.72"/><circle cx="329.28" cy="451.59" r="4.2" fill="#2F6BFF" opacity="0.72"/><circle cx="357.33" cy="470.74" r="4.2" fill="#2F6BFF" opacity="0.72"/><circle cx="342.43" cy="475.58" r="4.2" fill="#2F6BFF" opacity="0.72"/><circle cx="412.37" cy="466.58" r="4.2" fill="#2F6BFF" opacity="0.72"/><circle cx="411.42" cy="468.29" r="4.2" fill="#2F6BFF" opacity="0.72"/><circle cx="306.49" cy="441.02" r="4.2" fill="#2F6BFF" opacity="0.72"/><circle cx="373.62" cy="474.65" r="4.2" fill="#2F6BFF" opacity="0.72"/><circle cx="408.85" cy="421.93" r="4.2" fill="#2F6BFF" opacity="0.72"/><circle cx="394.31" cy="458.81" r="4.2" fill="#2F6BFF" opacity="0.72"/><circle cx="315.12" cy="474.39" r="4.2" fill="#2F6BFF" opacity="0.72"/><circle cx="412.05" cy="462.60" r="4.2" fill="#2F6BFF" opacity="0.72"/><circle cx="376.27" cy="454.56" r="4.2" fill="#2F6BFF" opacity="0.72"/><circle cx="392.82" cy="417.58" r="4.2" fill="#2F6BFF" opacity="0.72"/><circle cx="472.17" cy="405.88" r="4.2" fill="#2F6BFF" opacity="0.72"/><circle cx="435.55" cy="432.20" r="4.2" fill="#2F6BFF" opacity="0.72"/><circle cx="380.96" cy="454.18" r="4.2" fill="#2F6BFF" opacity="0.72"/><circle cx="479.97" cy="468.91" r="4.2" fill="#2F6BFF" opacity="0.72"/><circle cx="333.20" cy="444.46" r="4.2" fill="#2F6BFF" opacity="0.72"/><circle cx="267.82" cy="463.77" r="4.2" fill="#2F6BFF" opacity="0.72"/><circle cx="329.94" cy="456.64" r="4.2" fill="#2F6BFF" opacity="0.72"/><circle cx="420.26" cy="466.58" r="4.2" fill="#2F6BFF" opacity="0.72"/><circle cx="368.14" cy="426.70" r="4.2" fill="#2F6BFF" opacity="0.72"/><circle cx="375.83" cy="471.39" r="4.2" fill="#2F6BFF" opacity="0.72"/><circle cx="308.11" cy="460.63" r="4.2" fill="#2F6BFF" opacity="0.72"/><circle cx="349.30" cy="453.43" r="4.2" fill="#2F6BFF" opacity="0.72"/><circle cx="386.65" cy="467.01" r="4.2" fill="#2F6BFF" opacity="0.72"/><circle cx="349.30" cy="459.21" r="4.2" fill="#2F6BFF" opacity="0.72"/><circle cx="352.58" cy="468.50" r="4.2" fill="#2F6BFF" opacity="0.72"/><circle cx="343.60" cy="460.72" r="4.2" fill="#2F6BFF" opacity="0.72"/><circle cx="363.84" cy="460.41" r="4.2" fill="#2F6BFF" opacity="0.72"/><circle cx="334.48" cy="452.36" r="4.2" fill="#2F6BFF" opacity="0.72"/><circle cx="398.31" cy="453.65" r="4.2" fill="#2F6BFF" opacity="0.72"/><circle cx="341.24" cy="437.85" r="4.2" fill="#2F6BFF" opacity="0.72"/><circle cx="323.83" cy="446.08" r="4.2" fill="#2F6BFF" opacity="0.72"/><circle cx="449.45" cy="461.29" r="4.2" fill="#2F6BFF" opacity="0.72"/><circle cx="288.83" cy="468.12" r="4.2" fill="#2F6BFF" opacity="0.72"/><circle cx="331.91" cy="454.39" r="4.2" fill="#2F6BFF" opacity="0.72"/><circle cx="286.90" cy="471.05" r="4.2" fill="#2F6BFF" opacity="0.72"/><circle cx="350.40" cy="462.15" r="4.2" fill="#2F6BFF" opacity="0.72"/><circle cx="380.12" cy="468.93" r="4.2" fill="#2F6BFF" opacity="0.72"/><circle cx="343.02" cy="462.81" r="4.2" fill="#2F6BFF" opacity="0.72"/><circle cx="441.03" cy="455.28" r="4.2" fill="#2F6BFF" opacity="0.72"/><circle cx="366.73" cy="466.90" r="4.2" fill="#2F6BFF" opacity="0.72"/><circle cx="306.49" cy="460.05" r="4.2" fill="#2F6BFF" opacity="0.72"/><circle cx="404.21" cy="424.98" r="4.2" fill="#2F6BFF" opacity="0.72"/><circle cx="343.60" cy="447.63" r="4.2" fill="#2F6BFF" opacity="0.72"/><circle cx="305.67" cy="456.23" r="4.2" fill="#2F6BFF" opacity="0.72"/><circle cx="327.27" cy="453.31" r="4.2" fill="#2F6BFF" opacity="0.72"/><circle cx="274.55" cy="459.98" r="4.2" fill="#2F6BFF" opacity="0.72"/><circle cx="354.19" cy="469.10" r="4.2" fill="#2F6BFF" opacity="0.72"/><circle cx="473.99" cy="424.17" r="4.2" fill="#2F6BFF" opacity="0.72"/><circle cx="340.04" cy="457.78" r="4.2" fill="#2F6BFF" opacity="0.72"/><circle cx="458.52" cy="424.17" r="4.2" fill="#2F6BFF" opacity="0.72"/><circle cx="334.48" cy="472.41" r="4.2" fill="#2F6BFF" opacity="0.72"/><circle cx="383.84" cy="443.85" r="4.2" fill="#2F6BFF" opacity="0.72"/><circle cx="426.24" cy="459.13" r="4.2" fill="#2F6BFF" opacity="0.72"/><circle cx="516.26" cy="396.31" r="4.2" fill="#2F6BFF" opacity="0.72"/><circle cx="393.94" cy="426.94" r="4.2" fill="#2F6BFF" opacity="0.72"/><circle cx="360.88" cy="461.97" r="4.2" fill="#2F6BFF" opacity="0.72"/><circle cx="454.94" cy="395.85" r="4.2" fill="#2F6BFF" opacity="0.72"/><circle cx="368.14" cy="461.27" r="4.2" fill="#2F6BFF" opacity="0.72"/><circle cx="364.81" cy="448.55" r="4.2" fill="#2F6BFF" opacity="0.72"/><circle cx="350.40" cy="444.61" r="4.2" fill="#2F6BFF" opacity="0.72"/><circle cx="868.00" cy="285.04" r="4.2" fill="#2F6BFF" opacity="0.72"/><circle cx="854.05" cy="297.32" r="4.2" fill="#2F6BFF" opacity="0.72"/><circle cx="404.55" cy="456.63" r="4.2" fill="#2F6BFF" opacity="0.72"/><circle cx="529.06" cy="417.96" r="4.2" fill="#2F6BFF" opacity="0.72"/><circle cx="408.85" cy="466.58" r="4.2" fill="#2F6BFF" opacity="0.72"/><circle cx="484.49" cy="474.26" r="4.2" fill="#2F6BFF" opacity="0.72"/><circle cx="409.82" cy="469.05" r="4.2" fill="#2F6BFF" opacity="0.72"/><circle cx="423.72" cy="463.89" r="4.2" fill="#2F6BFF" opacity="0.72"/><circle cx="437.83" cy="472.36" r="4.2" fill="#2F6BFF" opacity="0.72"/><circle cx="491.65" cy="463.00" r="4.2" fill="#2F6BFF" opacity="0.72"/><circle cx="391.69" cy="472.86" r="4.2" fill="#2F6BFF" opacity="0.72"/><circle cx="414.55" cy="469.54" r="4.2" fill="#2F6BFF" opacity="0.72"/><circle cx="555.27" cy="411.52" r="4.2" fill="#2F6BFF" opacity="0.72"/><circle cx="446.25" cy="464.42" r="4.2" fill="#2F6BFF" opacity="0.72"/><circle cx="432.97" cy="468.41" r="4.2" fill="#2F6BFF" opacity="0.72"/><circle cx="329.94" cy="469.13" r="4.2" fill="#2F6BFF" opacity="0.72"/><circle cx="529.83" cy="404.02" r="4.2" fill="#2F6BFF" opacity="0.72"/><circle cx="369.54" cy="429.17" r="4.2" fill="#2F6BFF" opacity="0.72"/><circle cx="460.58" cy="473.54" r="4.2" fill="#2F6BFF" opacity="0.72"/><circle cx="274.55" cy="451.82" r="4.2" fill="#2F6BFF" opacity="0.72"/><circle cx="339.44" cy="454.45" r="4.2" fill="#2F6BFF" opacity="0.72"/><circle cx="343.02" cy="468.41" r="4.2" fill="#2F6BFF" opacity="0.72"/><circle cx="384.65" cy="468.49" r="4.2" fill="#2F6BFF" opacity="0.72"/><circle cx="173.38" cy="453.68" r="4.2" fill="#2F6BFF" opacity="0.72"/><circle cx="398.66" cy="442.45" r="4.2" fill="#2F6BFF" opacity="0.72"/><circle cx="312.83" cy="463.94" r="4.2" fill="#2F6BFF" opacity="0.72"/><circle cx="348.74" cy="467.74" r="4.2" fill="#2F6BFF" opacity="0.72"/><circle cx="312.06" cy="455.30" r="4.2" fill="#2F6BFF" opacity="0.72"/><circle cx="331.26" cy="457.20" r="4.2" fill="#2F6BFF" opacity="0.72"/><circle cx="414.24" cy="473.20" r="4.2" fill="#2F6BFF" opacity="0.72"/><circle cx="281.92" cy="456.64" r="4.2" fill="#2F6BFF" opacity="0.72"/><circle cx="333.20" cy="453.50" r="4.2" fill="#2F6BFF" opacity="0.72"/><circle cx="331.26" cy="454.31" r="4.2" fill="#2F6BFF" opacity="0.72"/><circle cx="342.43" cy="439.72" r="4.2" fill="#2F6BFF" opacity="0.72"/><circle cx="331.26" cy="458.08" r="4.2" fill="#2F6BFF" opacity="0.72"/><circle cx="455.58" cy="472.17" r="4.2" fill="#2F6BFF" opacity="0.72"/><circle cx="334.48" cy="459.04" r="4.2" fill="#2F6BFF" opacity="0.72"/><circle cx="234.34" cy="465.10" r="4.2" fill="#2F6BFF" opacity="0.72"/><circle cx="254.31" cy="476.90" r="4.2" fill="#2F6BFF" opacity="0.72"/><circle cx="525.15" cy="464.83" r="4.2" fill="#2F6BFF" opacity="0.72"/><circle cx="324.53" cy="448.37" r="4.2" fill="#2F6BFF" opacity="0.72"/><circle cx="324.53" cy="56.20" r="4.2" fill="#C43C39" opacity="0.72"/><circle cx="422.86" cy="473.74" r="4.2" fill="#2F6BFF" opacity="0.72"/><circle cx="483.83" cy="469.28" r="4.2" fill="#2F6BFF" opacity="0.72"/><circle cx="344.19" cy="473.15" r="4.2" fill="#2F6BFF" opacity="0.72"/><circle cx="543.47" cy="149.89" r="4.2" fill="#2F6BFF" opacity="0.72"/><circle cx="550.49" cy="204.34" r="4.2" fill="#2F6BFF" opacity="0.72"/><circle cx="279.87" cy="473.17" r="4.2" fill="#2F6BFF" opacity="0.72"/><circle cx="341.24" cy="56.19" r="4.2" fill="#C43C39" opacity="0.72"/><circle cx="407.22" cy="56.19" r="4.2" fill="#C43C39" opacity="0.72"/><circle cx="331.26" cy="433.82" r="4.2" fill="#2F6BFF" opacity="0.72"/><circle cx="346.49" cy="159.41" r="4.2" fill="#2F6BFF" opacity="0.72"/><circle cx="312.83" cy="475.34" r="4.2" fill="#2F6BFF" opacity="0.72"/><line x1="82" y1="488" x2="868" y2="488" stroke="#1F2933"/><line x1="82" y1="56" x2="82" y2="488" stroke="#1F2933"/><text x="475.00" y="538.00" font-family="Inter, Arial, sans-serif" font-size="12" fill="#1F2933" text-anchor="middle" font-weight="400">schema_json_chars (log)</text><text x="20.00" y="272.00" font-family="Inter, Arial, sans-serif" font-size="12" fill="#1F2933" text-anchor="middle" font-weight="400">seconds (log)</text><rect x="735" y="48" width="12" height="12" fill="#2F6BFF"/><text x="753.00" y="59.00" font-family="Inter, Arial, sans-serif" font-size="11" fill="#1F2933" text-anchor="start" font-weight="400">completed</text><rect x="735" y="68" width="12" height="12" fill="#C43C39"/><text x="753.00" y="79.00" font-family="Inter, Arial, sans-serif" font-size="11" fill="#1F2933" text-anchor="start" font-weight="400">timeout</text></svg>
