<svg xmlns="http://www.w3.org/2000/svg" width="900" height="560" viewBox="0 0 900 560" role="img" aria-label="Schema depth vs compile time"><rect width="100%" height="100%" fill="#FFFFFF"/><text x="24.00" y="30.00" font-family="Inter, Arial, sans-serif" font-size="17" fill="#1F2933" text-anchor="start" font-weight="700">Schema depth vs compile time</text><line x1="82.00" y1="56" x2="82.00" y2="488" stroke="#D9DEE5"/><line x1="82" y1="56.00" x2="868" y2="56.00" stroke="#D9DEE5"/><line x1="239.20" y1="56" x2="239.20" y2="488" stroke="#D9DEE5"/><line x1="82" y1="142.40" x2="868" y2="142.40" stroke="#D9DEE5"/><line x1="396.40" y1="56" x2="396.40" y2="488" stroke="#D9DEE5"/><line x1="82" y1="228.80" x2="868" y2="228.80" stroke="#D9DEE5"/><line x1="553.60" y1="56" x2="553.60" y2="488" stroke="#D9DEE5"/><line x1="82" y1="315.20" x2="868" y2="315.20" stroke="#D9DEE5"/><line x1="710.80" y1="56" x2="710.80" y2="488" stroke="#D9DEE5"/><line x1="82" y1="401.60" x2="868" y2="401.60" stroke="#D9DEE5"/><line x1="868.00" y1="56" x2="868.00" y2="488" stroke="#D9DEE5"/><line x1="82" y1="488.00" x2="868" y2="488.00" stroke="#D9DEE5"/><circle cx="247.47" cy="455.06" r="4.2" fill="#2F6BFF" opacity="0.72"/><circle cx="123.37" cy="467.44" r="4.2" fill="#2F6BFF" opacity="0.72"/><circle cx="330.21" cy="393.55" r="4.2" fill="#2F6BFF" opacity="0.72"/><circle cx="164.74" cy="472.03" r="4.2" fill="#2F6BFF" opacity="0.72"/><circle cx="206.11" cy="450.97" r="4.2" fill="#2F6BFF" opacity="0.72"/><circle cx="123.37" cy="468.05" r="4.2" fill="#2F6BFF" opacity="0.72"/><circle cx="123.37" cy="447.60" r="4.2" fill="#2F6BFF" opacity="0.72"/><circle cx="206.11" cy="466.11" r="4.2" fill="#2F6BFF" opacity="0.72"/><circle cx="123.37" cy="453.53" r="4.2" fill="#2F6BFF" opacity="0.72"/><circle cx="123.37" cy="458.37" r="4.2" fill="#2F6BFF" opacity="0.72"/><circle cx="123.37" cy="462.97" r="4.2" fill="#2F6BFF" opacity="0.72"/><circle cx="123.37" cy="475.36" r="4.2" fill="#2F6BFF" opacity="0.72"/><circle cx="123.37" cy="466.02" r="4.2" fill="#2F6BFF" opacity="0.72"/><circle cx="123.37" cy="345.89" r="4.2" fill="#2F6BFF" opacity="0.72"/><circle cx="82.00" cy="477.57" r="4.2" fill="#2F6BFF" opacity="0.72"/><circle cx="288.84" cy="445.45" r="4.2" fill="#2F6BFF" opacity="0.72"/><circle cx="206.11" cy="460.39" r="4.2" fill="#2F6BFF" opacity="0.72"/><circle cx="82.00" cy="479.09" r="4.2" fill="#2F6BFF" opacity="0.72"/><circle cx="82.00" cy="475.43" r="4.2" fill="#2F6BFF" opacity="0.72"/><circle cx="123.37" cy="473.48" r="4.2" fill="#2F6BFF" opacity="0.72"/><circle cx="206.11" cy="462.79" r="4.2" fill="#2F6BFF" opacity="0.72"/><circle cx="164.74" cy="478.41" r="4.2" fill="#2F6BFF" opacity="0.72"/><circle cx="206.11" cy="458.90" r="4.2" fill="#2F6BFF" opacity="0.72"/><circle cx="164.74" cy="472.86" r="4.2" fill="#2F6BFF" opacity="0.72"/><circle cx="82.00" cy="481.04" r="4.2" fill="#2F6BFF" opacity="0.72"/><circle cx="123.37" cy="467.58" r="4.2" fill="#2F6BFF" opacity="0.72"/><circle cx="82.00" cy="481.23" r="4.2" fill="#2F6BFF" opacity="0.72"/><circle cx="123.37" cy="454.83" r="4.2" fill="#2F6BFF" opacity="0.72"/><circle cx="288.84" cy="474.96" r="4.2" fill="#2F6BFF" opacity="0.72"/><circle cx="330.21" cy="471.69" r="4.2" fill="#2F6BFF" opacity="0.72"/><circle cx="288.84" cy="465.72" r="4.2" fill="#2F6BFF" opacity="0.72"/><circle cx="288.84" cy="463.97" r="4.2" fill="#2F6BFF" opacity="0.72"/><circle cx="206.11" cy="468.97" r="4.2" fill="#2F6BFF" opacity="0.72"/><circle cx="164.74" cy="474.72" r="4.2" fill="#2F6BFF" opacity="0.72"/><circle cx="123.37" cy="472.72" r="4.2" fill="#2F6BFF" opacity="0.72"/><circle cx="82.00" cy="477.03" r="4.2" fill="#2F6BFF" opacity="0.72"/><circle cx="123.37" cy="444.45" r="4.2" fill="#2F6BFF" opacity="0.72"/><circle cx="82.00" cy="479.07" r="4.2" fill="#2F6BFF" opacity="0.72"/><circle cx="123.37" cy="473.66" r="4.2" fill="#2F6BFF" opacity="0.72"/><circle cx="123.37" cy="471.11" r="4.2" fill="#2F6BFF" opacity="0.72"/><circle cx="82.00" cy="469.07" r="4.2" fill="#2F6BFF" opacity="0.72"/><circle cx="206.11" cy="469.46" r="4.2" fill="#2F6BFF" opacity="0.72"/><circle cx="123.37" cy="469.33" r="4.2" fill="#2F6BFF" opacity="0.72"/><circle cx="123.37" cy="423.67" r="4.2" fill="#2F6BFF" opacity="0.72"/><circle cx="123.37" cy="469.27" r="4.2" fill="#2F6BFF" opacity="0.72"/><circle cx="123.37" cy="412.42" r="4.2" fill="#2F6BFF" opacity="0.72"/><circle cx="123.37" cy="462.73" r="4.2" fill="#2F6BFF" opacity="0.72"/><circle cx="123.37" cy="442.73" r="4.2" fill="#2F6BFF" opacity="0.72"/><circle cx="123.37" cy="460.30" r="4.2" fill="#2F6BFF" opacity="0.72"/><circle cx="371.58" cy="370.40" r="4.2" fill="#2F6BFF" opacity="0.72"/><circle cx="330.21" cy="457.70" r="4.2" fill="#2F6BFF" opacity="0.72"/><circle cx="412.95" cy="339.35" r="4.2" fill="#2F6BFF" opacity="0.72"/><circle cx="412.95" cy="386.60" r="4.2" fill="#2F6BFF" opacity="0.72"/><circle cx="206.11" cy="463.00" r="4.2" fill="#2F6BFF" opacity="0.72"/><circle cx="164.74" cy="473.43" r="4.2" fill="#2F6BFF" opacity="0.72"/><circle cx="247.47" cy="463.25" r="4.2" fill="#2F6BFF" opacity="0.72"/><circle cx="123.37" cy="471.76" r="4.2" fill="#2F6BFF" opacity="0.72"/><circle cx="123.37" cy="471.59" r="4.2" fill="#2F6BFF" opacity="0.72"/><circle cx="123.37" cy="258.91" r="4.2" fill="#2F6BFF" opacity="0.72"/><circle cx="123.37" cy="473.84" r="4.2" fill="#2F6BFF" opacity="0.72"/><circle cx="123.37" cy="477.43" r="4.2" fill="#2F6BFF" opacity="0.72"/><circle cx="123.37" cy="471.25" r="4.2" fill="#2F6BFF" opacity="0.72"/><circle cx="123.37" cy="468.12" r="4.2" fill="#2F6BFF" opacity="0.72"/><circle cx="123.37" cy="449.99" r="4.2" fill="#2F6BFF" opacity="0.72"/><circle cx="123.37" cy="453.23" r="4.2" fill="#2F6BFF" opacity="0.72"/><circle cx="206.11" cy="432.46" r="4.2" fill="#2F6BFF" opacity="0.72"/><circle cx="206.11" cy="431.58" r="4.2" fill="#2F6BFF" opacity="0.72"/><circle cx="206.11" cy="395.22" r="4.2" fill="#2F6BFF" opacity="0.72"/><circle cx="123.37" cy="460.06" r="4.2" fill="#2F6BFF" opacity="0.72"/><circle cx="123.37" cy="470.71" r="4.2" fill="#2F6BFF" opacity="0.72"/><circle cx="123.37" cy="463.36" r="4.2" fill="#2F6BFF" opacity="0.72"/><circle cx="123.37" cy="474.03" r="4.2" fill="#2F6BFF" opacity="0.72"/><circle cx="288.84" cy="330.80" r="4.2" fill="#2F6BFF" opacity="0.72"/><circle cx="206.11" cy="467.85" r="4.2" fill="#2F6BFF" opacity="0.72"/><circle cx="123.37" cy="472.12" r="4.2" fill="#2F6BFF" opacity="0.72"/><circle cx="206.11" cy="479.37" r="4.2" fill="#2F6BFF" opacity="0.72"/><circle cx="868.00" cy="272.22" r="4.2" fill="#2F6BFF" opacity="0.72"/><circle cx="123.37" cy="470.68" r="4.2" fill="#2F6BFF" opacity="0.72"/><circle cx="206.11" cy="465.90" r="4.2" fill="#2F6BFF" opacity="0.72"/><circle cx="123.37" cy="472.99" r="4.2" fill="#2F6BFF" opacity="0.72"/><circle cx="123.37" cy="465.00" r="4.2" fill="#2F6BFF" opacity="0.72"/><circle cx="123.37" cy="455.41" r="4.2" fill="#2F6BFF" opacity="0.72"/><circle cx="123.37" cy="426.68" r="4.2" fill="#2F6BFF" opacity="0.72"/><circle cx="330.21" cy="368.17" r="4.2" fill="#2F6BFF" opacity="0.72"/><circle cx="206.11" cy="470.22" r="4.2" fill="#2F6BFF" opacity="0.72"/><circle cx="371.58" cy="400.24" r="4.2" fill="#2F6BFF" opacity="0.72"/><circle cx="206.11" cy="474.11" r="4.2" fill="#2F6BFF" opacity="0.72"/><circle cx="206.11" cy="468.73" r="4.2" fill="#2F6BFF" opacity="0.72"/><circle cx="206.11" cy="464.08" r="4.2" fill="#2F6BFF" opacity="0.72"/><circle cx="206.11" cy="469.33" r="4.2" fill="#2F6BFF" opacity="0.72"/><circle cx="288.84" cy="462.02" r="4.2" fill="#2F6BFF" opacity="0.72"/><circle cx="288.84" cy="467.51" r="4.2" fill="#2F6BFF" opacity="0.72"/><circle cx="288.84" cy="463.20" r="4.2" fill="#2F6BFF" opacity="0.72"/><circle cx="288.84" cy="467.24" r="4.2" fill="#2F6BFF" opacity="0.72"/><circle cx="288.84" cy="463.05" r="4.2" fill="#2F6BFF" opacity="0.72"/><circle cx="164.74" cy="468.73" r="4.2" fill="#2F6BFF" opacity="0.72"/><circle cx="371.58" cy="460.32" r="4.2" fill="#2F6BFF" opacity="0.72"/><circle cx="123.37" cy="469.40" r="4.2" fill="#2F6BFF" opacity="0.72"/><circle cx="123.37" cy="473.46" r="4.2" fill="#2F6BFF" opacity="0.72"/><circle cx="123.37" cy="466.49" r="4.2" fill="#2F6BFF" opacity="0.72"/><circle cx="123.37" cy="412.79" r="4.2" fill="#2F6BFF" opacity="0.72"/><circle cx="206.11" cy="440.17" r="4.2" fill="#2F6BFF" opacity="0.72"/><circle cx="82.00" cy="478.95" r="4.2" fill="#2F6BFF" opacity="0.72"/><circle cx="123.37" cy="256.24" r="4.2" fill="#2F6BFF" opacity="0.72"/><circle cx="123.37" cy="462.17" r="4.2" fill="#2F6BFF" opacity="0.72"/><circle cx="123.37" cy="452.85" r="4.2" fill="#2F6BFF" opacity="0.72"/><circle cx="247.47" cy="461.87" r="4.2" fill="#2F6BFF" opacity="0.72"/><circle cx="206.11" cy="474.15" r="4.2" fill="#2F6BFF" opacity="0.72"/><circle cx="123.37" cy="453.41" r="4.2" fill="#2F6BFF" opacity="0.72"/><circle cx="164.74" cy="463.64" r="4.2" fill="#2F6BFF" opacity="0.72"/><circle cx="578.42" cy="461.45" r="4.2" fill="#2F6BFF" opacity="0.72"/><circle cx="412.95" cy="444.57" r="4.2" fill="#2F6BFF" opacity="0.72"/><circle cx="578.42" cy="470.03" r="4.2" fill="#2F6BFF" opacity="0.72"/><circle cx="661.16" cy="466.97" r="4.2" fill="#2F6BFF" opacity="0.72"/><circle cx="578.42" cy="471.31" r="4.2" fill="#2F6BFF" opacity="0.72"/><circle cx="578.42" cy="463.12" r="4.2" fill="#2F6BFF" opacity="0.72"/><circle cx="785.26" cy="469.94" r="4.2" fill="#2F6BFF" opacity="0.72"/><circle cx="702.53" cy="463.37" r="4.2" fill="#2F6BFF" opacity="0.72"/><circle cx="785.26" cy="464.64" r="4.2" fill="#2F6BFF" opacity="0.72"/><circle cx="785.26" cy="475.07" r="4.2" fill="#2F6BFF" opacity="0.72"/><circle cx="661.16" cy="467.90" r="4.2" fill="#2F6BFF" opacity="0.72"/><circle cx="785.26" cy="463.23" r="4.2" fill="#2F6BFF" opacity="0.72"/><circle cx="82.00" cy="464.43" r="4.2" fill="#2F6BFF" opacity="0.72"/><circle cx="82.00" cy="469.19" r="4.2" fill="#2F6BFF" opacity="0.72"/><circle cx="123.37" cy="465.14" r="4.2" fill="#2F6BFF" opacity="0.72"/><circle cx="82.00" cy="464.95" r="4.2" fill="#2F6BFF" opacity="0.72"/><circle cx="123.37" cy="470.26" r="4.2" fill="#2F6BFF" opacity="0.72"/><circle cx="82.00" cy="465.73" r="4.2" fill="#2F6BFF" opacity="0.72"/><circle cx="123.37" cy="465.57" r="4.2" fill="#2F6BFF" opacity="0.72"/><circle cx="123.37" cy="477.01" r="4.2" fill="#2F6BFF" opacity="0.72"/><circle cx="330.21" cy="466.25" r="4.2" fill="#2F6BFF" opacity="0.72"/><circle cx="247.47" cy="464.33" r="4.2" fill="#2F6BFF" opacity="0.72"/><circle cx="412.95" cy="464.22" r="4.2" fill="#2F6BFF" opacity="0.72"/><circle cx="330.21" cy="429.93" r="4.2" fill="#2F6BFF" opacity="0.72"/><circle cx="123.37" cy="470.24" r="4.2" fill="#2F6BFF" opacity="0.72"/><circle cx="123.37" cy="465.27" r="4.2" fill="#2F6BFF" opacity="0.72"/><circle cx="82.00" cy="466.71" r="4.2" fill="#2F6BFF" opacity="0.72"/><circle cx="123.37" cy="454.53" r="4.2" fill="#2F6BFF" opacity="0.72"/><circle cx="123.37" cy="460.59" r="4.2" fill="#2F6BFF" opacity="0.72"/><circle cx="123.37" cy="453.33" r="4.2" fill="#2F6BFF" opacity="0.72"/><circle cx="206.11" cy="455.72" r="4.2" fill="#2F6BFF" opacity="0.72"/><circle cx="371.58" cy="438.58" r="4.2" fill="#2F6BFF" opacity="0.72"/><circle cx="206.11" cy="449.69" r="4.2" fill="#2F6BFF" opacity="0.72"/><circle cx="206.11" cy="464.48" r="4.2" fill="#2F6BFF" opacity="0.72"/><circle cx="123.37" cy="451.44" r="4.2" fill="#2F6BFF" opacity="0.72"/><circle cx="82.00" cy="466.72" r="4.2" fill="#2F6BFF" opacity="0.72"/><circle cx="82.00" cy="463.84" r="4.2" fill="#2F6BFF" opacity="0.72"/><circle cx="123.37" cy="469.06" r="4.2" fill="#2F6BFF" opacity="0.72"/><circle cx="123.37" cy="471.27" r="4.2" fill="#2F6BFF" opacity="0.72"/><circle cx="82.00" cy="466.26" r="4.2" fill="#2F6BFF" opacity="0.72"/><circle cx="123.37" cy="459.78" r="4.2" fill="#2F6BFF" opacity="0.72"/><circle cx="123.37" cy="468.18" r="4.2" fill="#2F6BFF" opacity="0.72"/><circle cx="164.74" cy="466.71" r="4.2" fill="#2F6BFF" opacity="0.72"/><circle cx="123.37" cy="452.72" r="4.2" fill="#2F6BFF" opacity="0.72"/><circle cx="82.00" cy="470.58" r="4.2" fill="#2F6BFF" opacity="0.72"/><circle cx="123.37" cy="463.64" r="4.2" fill="#2F6BFF" opacity="0.72"/><circle cx="123.37" cy="458.67" r="4.2" fill="#2F6BFF" opacity="0.72"/><circle cx="123.37" cy="451.72" r="4.2" fill="#2F6BFF" opacity="0.72"/><circle cx="123.37" cy="460.28" r="4.2" fill="#2F6BFF" opacity="0.72"/><circle cx="123.37" cy="467.46" r="4.2" fill="#2F6BFF" opacity="0.72"/><circle cx="82.00" cy="460.53" r="4.2" fill="#2F6BFF" opacity="0.72"/><circle cx="164.74" cy="466.09" r="4.2" fill="#2F6BFF" opacity="0.72"/><circle cx="206.11" cy="451.03" r="4.2" fill="#2F6BFF" opacity="0.72"/><circle cx="206.11" cy="458.96" r="4.2" fill="#2F6BFF" opacity="0.72"/><circle cx="123.37" cy="444.84" r="4.2" fill="#2F6BFF" opacity="0.72"/><circle cx="206.11" cy="468.52" r="4.2" fill="#2F6BFF" opacity="0.72"/><circle cx="206.11" cy="448.96" r="4.2" fill="#2F6BFF" opacity="0.72"/><circle cx="123.37" cy="457.46" r="4.2" fill="#2F6BFF" opacity="0.72"/><circle cx="123.37" cy="447.79" r="4.2" fill="#2F6BFF" opacity="0.72"/><circle cx="123.37" cy="258.07" r="4.2" fill="#2F6BFF" opacity="0.72"/><circle cx="206.11" cy="454.53" r="4.2" fill="#2F6BFF" opacity="0.72"/><circle cx="206.11" cy="462.31" r="4.2" fill="#2F6BFF" opacity="0.72"/><circle cx="868.00" cy="266.53" r="4.2" fill="#2F6BFF" opacity="0.72"/><circle cx="82.00" cy="477.18" r="4.2" fill="#2F6BFF" opacity="0.72"/><circle cx="288.84" cy="430.23" r="4.2" fill="#2F6BFF" opacity="0.72"/><circle cx="288.84" cy="405.20" r="4.2" fill="#2F6BFF" opacity="0.72"/><circle cx="206.11" cy="456.18" r="4.2" fill="#2F6BFF" opacity="0.72"/><circle cx="82.00" cy="475.72" r="4.2" fill="#2F6BFF" opacity="0.72"/><circle cx="371.58" cy="488.00" r="4.2" fill="#2F6BFF" opacity="0.72"/><circle cx="123.37" cy="467.77" r="4.2" fill="#2F6BFF" opacity="0.72"/><circle cx="123.37" cy="473.31" r="4.2" fill="#2F6BFF" opacity="0.72"/><circle cx="123.37" cy="464.94" r="4.2" fill="#2F6BFF" opacity="0.72"/><circle cx="288.84" cy="465.37" r="4.2" fill="#2F6BFF" opacity="0.72"/><circle cx="206.11" cy="468.32" r="4.2" fill="#2F6BFF" opacity="0.72"/><circle cx="288.84" cy="424.72" r="4.2" fill="#2F6BFF" opacity="0.72"/><circle cx="288.84" cy="416.52" r="4.2" fill="#2F6BFF" opacity="0.72"/><circle cx="123.37" cy="471.04" r="4.2" fill="#2F6BFF" opacity="0.72"/><circle cx="123.37" cy="482.45" r="4.2" fill="#2F6BFF" opacity="0.72"/><circle cx="123.37" cy="423.87" r="4.2" fill="#2F6BFF" opacity="0.72"/><circle cx="123.37" cy="463.27" r="4.2" fill="#2F6BFF" opacity="0.72"/><circle cx="123.37" cy="276.33" r="4.2" fill="#2F6BFF" opacity="0.72"/><circle cx="123.37" cy="360.81" r="4.2" fill="#2F6BFF" opacity="0.72"/><circle cx="123.37" cy="438.03" r="4.2" fill="#2F6BFF" opacity="0.72"/><circle cx="123.37" cy="406.42" r="4.2" fill="#2F6BFF" opacity="0.72"/><circle cx="123.37" cy="440.91" r="4.2" fill="#2F6BFF" opacity="0.72"/><circle cx="288.84" cy="431.63" r="4.2" fill="#2F6BFF" opacity="0.72"/><circle cx="247.47" cy="464.23" r="4.2" fill="#2F6BFF" opacity="0.72"/><circle cx="164.74" cy="467.15" r="4.2" fill="#2F6BFF" opacity="0.72"/><circle cx="123.37" cy="447.54" r="4.2" fill="#2F6BFF" opacity="0.72"/><circle cx="206.11" cy="453.18" r="4.2" fill="#2F6BFF" opacity="0.72"/><circle cx="123.37" cy="468.46" r="4.2" fill="#2F6BFF" opacity="0.72"/><circle cx="206.11" cy="443.83" r="4.2" fill="#2F6BFF" opacity="0.72"/><circle cx="206.11" cy="454.71" r="4.2" fill="#2F6BFF" opacity="0.72"/><circle cx="206.11" cy="423.12" r="4.2" fill="#2F6BFF" opacity="0.72"/><circle cx="123.37" cy="465.60" r="4.2" fill="#2F6BFF" opacity="0.72"/><circle cx="82.00" cy="478.35" r="4.2" fill="#2F6BFF" opacity="0.72"/><circle cx="123.37" cy="466.60" r="4.2" fill="#2F6BFF" opacity="0.72"/><circle cx="123.37" cy="481.94" r="4.2" fill="#2F6BFF" opacity="0.72"/><circle cx="123.37" cy="461.05" r="4.2" fill="#2F6BFF" opacity="0.72"/><circle cx="330.21" cy="470.44" r="4.2" fill="#2F6BFF" opacity="0.72"/><circle cx="247.47" cy="468.82" r="4.2" fill="#2F6BFF" opacity="0.72"/><circle cx="206.11" cy="472.89" r="4.2" fill="#2F6BFF" opacity="0.72"/><circle cx="288.84" cy="468.42" r="4.2" fill="#2F6BFF" opacity="0.72"/><circle cx="288.84" cy="455.59" r="4.2" fill="#2F6BFF" opacity="0.72"/><circle cx="288.84" cy="476.77" r="4.2" fill="#2F6BFF" opacity="0.72"/><circle cx="206.11" cy="469.10" r="4.2" fill="#2F6BFF" opacity="0.72"/><circle cx="206.11" cy="472.91" r="4.2" fill="#2F6BFF" opacity="0.72"/><circle cx="123.37" cy="472.67" r="4.2" fill="#2F6BFF" opacity="0.72"/><circle cx="123.37" cy="466.37" r="4.2" fill="#2F6BFF" opacity="0.72"/><circle cx="123.37" cy="476.35" r="4.2" fill="#2F6BFF" opacity="0.72"/><circle cx="123.37" cy="470.92" r="4.2" fill="#2F6BFF" opacity="0.72"/><circle cx="82.00" cy="470.66" r="4.2" fill="#2F6BFF" opacity="0.72"/><circle cx="123.37" cy="462.06" r="4.2" fill="#2F6BFF" opacity="0.72"/><circle cx="123.37" cy="470.42" r="4.2" fill="#2F6BFF" opacity="0.72"/><circle cx="123.37" cy="478.36" r="4.2" fill="#2F6BFF" opacity="0.72"/><circle cx="123.37" cy="160.50" r="4.2" fill="#2F6BFF" opacity="0.72"/><circle cx="206.11" cy="457.68" r="4.2" fill="#2F6BFF" opacity="0.72"/><circle cx="123.37" cy="445.53" r="4.2" fill="#2F6BFF" opacity="0.72"/><circle cx="123.37" cy="451.57" r="4.2" fill="#2F6BFF" opacity="0.72"/><circle cx="123.37" cy="470.73" r="4.2" fill="#2F6BFF" opacity="0.72"/><circle cx="82.00" cy="475.57" r="4.2" fill="#2F6BFF" opacity="0.72"/><circle cx="123.37" cy="466.57" r="4.2" fill="#2F6BFF" opacity="0.72"/><circle cx="123.37" cy="468.28" r="4.2" fill="#2F6BFF" opacity="0.72"/><circle cx="164.74" cy="441.00" r="4.2" fill="#2F6BFF" opacity="0.72"/><circle cx="123.37" cy="421.90" r="4.2" fill="#2F6BFF" opacity="0.72"/><circle cx="206.11" cy="458.80" r="4.2" fill="#2F6BFF" opacity="0.72"/><circle cx="82.00" cy="474.39" r="4.2" fill="#2F6BFF" opacity="0.72"/><circle cx="288.84" cy="462.59" r="4.2" fill="#2F6BFF" opacity="0.72"/><circle cx="288.84" cy="454.55" r="4.2" fill="#2F6BFF" opacity="0.72"/><circle cx="247.47" cy="405.84" r="4.2" fill="#2F6BFF" opacity="0.72"/><circle cx="247.47" cy="432.17" r="4.2" fill="#2F6BFF" opacity="0.72"/><circle cx="123.37" cy="454.17" r="4.2" fill="#2F6BFF" opacity="0.72"/><circle cx="123.37" cy="468.91" r="4.2" fill="#2F6BFF" opacity="0.72"/><circle cx="123.37" cy="444.44" r="4.2" fill="#2F6BFF" opacity="0.72"/><circle cx="123.37" cy="463.76" r="4.2" fill="#2F6BFF" opacity="0.72"/><circle cx="123.37" cy="456.63" r="4.2" fill="#2F6BFF" opacity="0.72"/><circle cx="123.37" cy="466.57" r="4.2" fill="#2F6BFF" opacity="0.72"/><circle cx="123.37" cy="426.67" r="4.2" fill="#2F6BFF" opacity="0.72"/><circle cx="123.37" cy="460.62" r="4.2" fill="#2F6BFF" opacity="0.72"/><circle cx="206.11" cy="453.42" r="4.2" fill="#2F6BFF" opacity="0.72"/><circle cx="123.37" cy="467.00" r="4.2" fill="#2F6BFF" opacity="0.72"/><circle cx="164.74" cy="459.20" r="4.2" fill="#2F6BFF" opacity="0.72"/><circle cx="123.37" cy="468.49" r="4.2" fill="#2F6BFF" opacity="0.72"/><circle cx="123.37" cy="460.71" r="4.2" fill="#2F6BFF" opacity="0.72"/><circle cx="206.11" cy="460.40" r="4.2" fill="#2F6BFF" opacity="0.72"/><circle cx="164.74" cy="452.34" r="4.2" fill="#2F6BFF" opacity="0.72"/><circle cx="123.37" cy="453.63" r="4.2" fill="#2F6BFF" opacity="0.72"/><circle cx="206.11" cy="437.83" r="4.2" fill="#2F6BFF" opacity="0.72"/><circle cx="288.84" cy="446.06" r="4.2" fill="#2F6BFF" opacity="0.72"/><circle cx="123.37" cy="461.28" r="4.2" fill="#2F6BFF" opacity="0.72"/><circle cx="123.37" cy="468.11" r="4.2" fill="#2F6BFF" opacity="0.72"/><circle cx="123.37" cy="454.38" r="4.2" fill="#2F6BFF" opacity="0.72"/><circle cx="82.00" cy="471.05" r="4.2" fill="#2F6BFF" opacity="0.72"/><circle cx="164.74" cy="462.14" r="4.2" fill="#2F6BFF" opacity="0.72"/><circle cx="123.37" cy="468.92" r="4.2" fill="#2F6BFF" opacity="0.72"/><circle cx="123.37" cy="462.79" r="4.2" fill="#2F6BFF" opacity="0.72"/><circle cx="123.37" cy="455.26" r="4.2" fill="#2F6BFF" opacity="0.72"/><circle cx="123.37" cy="466.89" r="4.2" fill="#2F6BFF" opacity="0.72"/><circle cx="123.37" cy="460.04" r="4.2" fill="#2F6BFF" opacity="0.72"/><circle cx="206.11" cy="424.96" r="4.2" fill="#2F6BFF" opacity="0.72"/><circle cx="123.37" cy="447.62" r="4.2" fill="#2F6BFF" opacity="0.72"/><circle cx="123.37" cy="456.21" r="4.2" fill="#2F6BFF" opacity="0.72"/><circle cx="123.37" cy="453.30" r="4.2" fill="#2F6BFF" opacity="0.72"/><circle cx="123.37" cy="459.97" r="4.2" fill="#2F6BFF" opacity="0.72"/><circle cx="82.00" cy="469.10" r="4.2" fill="#2F6BFF" opacity="0.72"/><circle cx="371.58" cy="424.15" r="4.2" fill="#2F6BFF" opacity="0.72"/><circle cx="123.37" cy="457.77" r="4.2" fill="#2F6BFF" opacity="0.72"/><circle cx="371.58" cy="424.14" r="4.2" fill="#2F6BFF" opacity="0.72"/><circle cx="123.37" cy="472.40" r="4.2" fill="#2F6BFF" opacity="0.72"/><circle cx="206.11" cy="443.83" r="4.2" fill="#2F6BFF" opacity="0.72"/><circle cx="206.11" cy="459.11" r="4.2" fill="#2F6BFF" opacity="0.72"/><circle cx="288.84" cy="396.27" r="4.2" fill="#2F6BFF" opacity="0.72"/><circle cx="206.11" cy="426.92" r="4.2" fill="#2F6BFF" opacity="0.72"/><circle cx="123.37" cy="461.96" r="4.2" fill="#2F6BFF" opacity="0.72"/><circle cx="206.11" cy="395.81" r="4.2" fill="#2F6BFF" opacity="0.72"/><circle cx="123.37" cy="461.25" r="4.2" fill="#2F6BFF" opacity="0.72"/><circle cx="123.37" cy="448.53" r="4.2" fill="#2F6BFF" opacity="0.72"/><circle cx="206.11" cy="444.59" r="4.2" fill="#2F6BFF" opacity="0.72"/><circle cx="578.42" cy="284.95" r="4.2" fill="#2F6BFF" opacity="0.72"/><circle cx="495.68" cy="297.24" r="4.2" fill="#2F6BFF" opacity="0.72"/><circle cx="123.37" cy="456.62" r="4.2" fill="#2F6BFF" opacity="0.72"/><circle cx="288.84" cy="417.93" r="4.2" fill="#2F6BFF" opacity="0.72"/><circle cx="82.00" cy="466.57" r="4.2" fill="#2F6BFF" opacity="0.72"/><circle cx="82.00" cy="469.04" r="4.2" fill="#2F6BFF" opacity="0.72"/><circle cx="82.00" cy="463.88" r="4.2" fill="#2F6BFF" opacity="0.72"/><circle cx="164.74" cy="472.36" r="4.2" fill="#2F6BFF" opacity="0.72"/><circle cx="123.37" cy="462.99" r="4.2" fill="#2F6BFF" opacity="0.72"/><circle cx="123.37" cy="472.85" r="4.2" fill="#2F6BFF" opacity="0.72"/><circle cx="123.37" cy="469.53" r="4.2" fill="#2F6BFF" opacity="0.72"/><circle cx="288.84" cy="411.48" r="4.2" fill="#2F6BFF" opacity="0.72"/><circle cx="123.37" cy="464.41" r="4.2" fill="#2F6BFF" opacity="0.72"/><circle cx="123.37" cy="468.40" r="4.2" fill="#2F6BFF" opacity="0.72"/><circle cx="123.37" cy="469.12" r="4.2" fill="#2F6BFF" opacity="0.72"/><circle cx="288.84" cy="403.98" r="4.2" fill="#2F6BFF" opacity="0.72"/><circle cx="123.37" cy="473.53" r="4.2" fill="#2F6BFF" opacity="0.72"/><circle cx="123.37" cy="451.81" r="4.2" fill="#2F6BFF" opacity="0.72"/><circle cx="123.37" cy="468.48" r="4.2" fill="#2F6BFF" opacity="0.72"/><circle cx="288.84" cy="442.43" r="4.2" fill="#2F6BFF" opacity="0.72"/><circle cx="123.37" cy="463.93" r="4.2" fill="#2F6BFF" opacity="0.72"/><circle cx="123.37" cy="467.73" r="4.2" fill="#2F6BFF" opacity="0.72"/><circle cx="123.37" cy="455.29" r="4.2" fill="#2F6BFF" opacity="0.72"/><circle cx="123.37" cy="457.19" r="4.2" fill="#2F6BFF" opacity="0.72"/><circle cx="247.47" cy="473.19" r="4.2" fill="#2F6BFF" opacity="0.72"/><circle cx="123.37" cy="456.63" r="4.2" fill="#2F6BFF" opacity="0.72"/><circle cx="206.11" cy="453.48" r="4.2" fill="#2F6BFF" opacity="0.72"/><circle cx="123.37" cy="454.30" r="4.2" fill="#2F6BFF" opacity="0.72"/><circle cx="206.11" cy="439.70" r="4.2" fill="#2F6BFF" opacity="0.72"/><circle cx="164.74" cy="458.06" r="4.2" fill="#2F6BFF" opacity="0.72"/><circle cx="164.74" cy="472.16" r="4.2" fill="#2F6BFF" opacity="0.72"/><circle cx="123.37" cy="459.03" r="4.2" fill="#2F6BFF" opacity="0.72"/><circle cx="123.37" cy="465.09" r="4.2" fill="#2F6BFF" opacity="0.72"/><circle cx="371.58" cy="464.82" r="4.2" fill="#2F6BFF" opacity="0.72"/><circle cx="206.11" cy="448.35" r="4.2" fill="#2F6BFF" opacity="0.72"/><circle cx="123.37" cy="56.01" r="4.2" fill="#C43C39" opacity="0.72"/><circle cx="288.84" cy="473.74" r="4.2" fill="#2F6BFF" opacity="0.72"/><circle cx="330.21" cy="469.27" r="4.2" fill="#2F6BFF" opacity="0.72"/><circle cx="206.11" cy="473.14" r="4.2" fill="#2F6BFF" opacity="0.72"/><circle cx="371.58" cy="149.74" r="4.2" fill="#2F6BFF" opacity="0.72"/><circle cx="412.95" cy="204.21" r="4.2" fill="#2F6BFF" opacity="0.72"/><circle cx="123.37" cy="473.16" r="4.2" fill="#2F6BFF" opacity="0.72"/><circle cx="123.37" cy="56.00" r="4.2" fill="#C43C39" opacity="0.72"/><circle cx="288.84" cy="56.00" r="4.2" fill="#C43C39" opacity="0.72"/><circle cx="123.37" cy="433.79" r="4.2" fill="#2F6BFF" opacity="0.72"/><circle cx="123.37" cy="159.26" r="4.2" fill="#2F6BFF" opacity="0.72"/><circle cx="82.00" cy="475.34" r="4.2" fill="#2F6BFF" opacity="0.72"/><line x1="82" y1="488" x2="868" y2="488" stroke="#1F2933"/><line x1="82" y1="56" x2="82" y2="488" stroke="#1F2933"/><text x="475.00" y="538.00" font-family="Inter, Arial, sans-serif" font-size="12" fill="#1F2933" text-anchor="middle" font-weight="400">schema_depth</text><text x="20.00" y="272.00" font-family="Inter, Arial, sans-serif" font-size="12" fill="#1F2933" text-anchor="middle" font-weight="400">seconds (log)</text><rect x="735" y="48" width="12" height="12" fill="#2F6BFF"/><text x="753.00" y="59.00" font-family="Inter, Arial, sans-serif" font-size="11" fill="#1F2933" text-anchor="start" font-weight="400">completed</text><rect x="735" y="68" width="12" height="12" fill="#C43C39"/><text x="753.00" y="79.00" font-family="Inter, Arial, sans-serif" font-size="11" fill="#1F2933" text-anchor="start" font-weight="400">timeout</text></svg>
