<svg xmlns="http://www.w3.org/2000/svg" width="860" height="520" viewBox="0 0 860 520" role="img" aria-label="Schema size ECDF: completed vs timeout"><rect width="100%" height="100%" fill="#FFFFFF"/><text x="24.00" y="30.00" font-family="Inter, Arial, sans-serif" font-size="17" fill="#1F2933" text-anchor="start" font-weight="700">Schema size ECDF: completed vs timeout</text><line x1="78.00" y1="56" x2="78.00" y2="452" stroke="#D9DEE5"/><line x1="78" y1="56.00" x2="826" y2="56.00" stroke="#D9DEE5"/><line x1="227.60" y1="56" x2="227.60" y2="452" stroke="#D9DEE5"/><line x1="78" y1="135.20" x2="826" y2="135.20" stroke="#D9DEE5"/><line x1="377.20" y1="56" x2="377.20" y2="452" stroke="#D9DEE5"/><line x1="78" y1="214.40" x2="826" y2="214.40" stroke="#D9DEE5"/><line x1="526.80" y1="56" x2="526.80" y2="452" stroke="#D9DEE5"/><line x1="78" y1="293.60" x2="826" y2="293.60" stroke="#D9DEE5"/><line x1="676.40" y1="56" x2="676.40" y2="452" stroke="#D9DEE5"/><line x1="78" y1="372.80" x2="826" y2="372.80" stroke="#D9DEE5"/><line x1="826.00" y1="56" x2="826.00" y2="452" stroke="#D9DEE5"/><line x1="78" y1="452.00" x2="826" y2="452.00" stroke="#D9DEE5"/><polyline points="78.00,451.90 123.44,451.80 123.44,451.70 151.23,451.60 153.37,451.50 170.64,451.40 189.44,451.30 190.84,451.20 196.23,451.10 200.07,451.00 200.07,450.90 211.79,450.80 216.08,450.70 217.12,450.60 218.15,450.50 218.15,450.40 218.15,450.30 218.15,450.20 218.15,450.10 218.15,450.00 218.15,449.90 218.15,449.79 222.15,449.69 226.91,449.59 226.91,449.49 228.74,449.39 229.64,449.29 232.30,449.19 232.30,449.09 232.30,448.99 234.88,448.89 234.88,448.79 234.88,448.69 235.72,448.59 236.56,448.49 236.56,448.39 236.56,448.29 237.38,448.19 238.20,448.09 238.20,447.99 239.02,447.89 241.41,447.79 241.41,447.69 242.19,447.59 242.19,447.49 243.74,447.39 245.26,447.29 246.01,447.19 249.67,447.09 252.50,446.99 252.50,446.89 253.19,446.79 253.88,446.69 254.56,446.59 255.24,446.49 255.91,446.39 255.91,446.29 257.23,446.19 257.23,446.09 257.23,445.99 257.23,445.89 257.89,445.79 257.89,445.69 257.89,445.59 257.89,445.49 259.19,445.38 259.19,445.28 259.83,445.18 259.83,445.08 259.83,444.98 260.47,444.88 260.47,444.78 261.10,444.68 261.73,444.58 262.36,444.48 262.36,444.38 262.98,444.28 262.98,444.18 262.98,444.08 264.20,443.98 264.20,443.88 264.81,443.78 265.41,443.68 266.01,443.58 266.61,443.48 266.61,443.38 266.61,443.28 266.61,443.18 267.20,443.08 267.20,442.98 267.20,442.88 267.20,442.78 267.78,442.68 267.78,442.58 267.78,442.48 268.37,442.38 268.95,442.28 268.95,442.18 269.52,442.08 269.52,441.98 269.52,441.88 270.10,441.78 270.10,441.68 271.79,441.58 271.79,441.48 271.79,441.38 271.79,441.28 272.35,441.18 272.90,441.08 273.45,440.97 274.00,440.87 274.00,440.77 274.00,440.67 274.54,440.57 274.54,440.47 274.54,440.37 275.08,440.27 275.62,440.17 275.62,440.07 276.16,439.97 276.16,439.87 276.69,439.77 276.69,439.67 276.69,439.57 276.69,439.47 276.69,439.37 277.22,439.27 277.74,439.17 277.74,439.07 277.74,438.97 277.74,438.87 277.74,438.77 278.26,438.67 278.26,438.57 278.26,438.47 278.78,438.37 279.30,438.27 279.30,438.17 279.30,438.07 279.30,437.97 279.30,437.87 279.30,437.77 279.81,437.67 280.32,437.57 280.32,437.47 280.32,437.37 280.32,437.27 280.32,437.17 280.32,437.07 280.83,436.97 281.83,436.87 281.83,436.77 282.82,436.67 282.82,436.56 283.32,436.46 283.32,436.36 283.81,436.26 283.81,436.16 283.81,436.06 283.81,435.96 284.30,435.86 284.78,435.76 284.78,435.66 284.78,435.56 284.78,435.46 284.78,435.36 285.26,435.26 285.74,435.16 285.74,435.06 286.69,434.96 286.69,434.86 286.69,434.76 286.69,434.66 286.69,434.56 287.16,434.46 287.16,434.36 287.16,434.26 287.16,434.16 287.16,434.06 287.63,433.96 287.63,433.86 287.63,433.76 287.63,433.66 288.10,433.56 288.10,433.46 288.10,433.36 288.10,433.26 288.57,433.16 288.57,433.06 288.57,432.96 289.03,432.86 289.03,432.76 289.03,432.66 289.49,432.56 289.49,432.46 289.49,432.36 289.94,432.26 289.94,432.15 289.94,432.05 290.40,431.95 290.40,431.85 290.40,431.75 290.40,431.65 290.40,431.55 290.85,431.45 290.85,431.35 291.30,431.25 291.30,431.15 291.30,431.05 291.75,430.95 291.75,430.85 292.20,430.75 292.20,430.65 292.20,430.55 292.20,430.45 293.08,430.35 293.08,430.25 293.08,430.15 293.08,430.05 293.96,429.95 293.96,429.85 294.39,429.75 294.83,429.65 294.83,429.55 294.83,429.45 295.26,429.35 295.26,429.25 295.26,429.15 295.69,429.05 295.69,428.95 295.69,428.85 295.69,428.75 295.69,428.65 296.11,428.55 296.11,428.45 296.54,428.35 296.96,428.25 296.96,428.15 296.96,428.05 297.38,427.95 297.38,427.85 297.38,427.74 297.80,427.64 297.80,427.54 297.80,427.44 297.80,427.34 298.22,427.24 298.22,427.14 298.22,427.04 298.63,426.94 298.63,426.84 298.63,426.74 299.04,426.64 299.04,426.54 299.04,426.44 299.04,426.34 299.04,426.24 299.04,426.14 299.45,426.04 299.45,425.94 299.86,425.84 299.86,425.74 299.86,425.64 300.27,425.54 300.27,425.44 300.68,425.34 300.68,425.24 301.08,425.14 301.08,425.04 301.08,424.94 301.08,424.84 301.08,424.74 301.08,424.64 301.08,424.54 301.48,424.44 301.48,424.34 301.48,424.24 301.48,424.14 301.88,424.04 301.88,423.94 302.28,423.84 302.28,423.74 302.28,423.64 302.67,423.54 302.67,423.44 302.67,423.33 302.67,423.23 303.07,423.13 303.07,423.03 303.46,422.93 303.46,422.83 303.85,422.73 303.85,422.63 304.24,422.53 304.24,422.43 304.24,422.33 304.63,422.23 304.63,422.13 304.63,422.03 305.02,421.93 305.02,421.83 305.40,421.73 305.40,421.63 305.40,421.53 305.40,421.43 305.78,421.33 305.78,421.23 305.78,421.13 305.78,421.03 305.78,420.93 305.78,420.83 305.78,420.73 306.16,420.63 306.16,420.53 306.16,420.43 306.16,420.33 306.16,420.23 306.16,420.13 306.54,420.03 306.54,419.93 306.92,419.83 306.92,419.73 306.92,419.63 306.92,419.53 307.30,419.43 307.30,419.33 307.30,419.23 307.30,419.13 307.30,419.03 307.67,418.92 307.67,418.82 307.67,418.72 307.67,418.62 307.67,418.52 308.04,418.42 308.04,418.32 308.04,418.22 308.04,418.12 308.04,418.02 308.42,417.92 308.42,417.82 308.42,417.72 308.42,417.62 308.42,417.52 308.42,417.42 308.79,417.32 308.79,417.22 308.79,417.12 308.79,417.02 308.79,416.92 309.15,416.82 309.52,416.72 309.89,416.62 309.89,416.52 309.89,416.42 309.89,416.32 310.61,416.22 310.97,416.12 310.97,416.02 311.33,415.92 311.33,415.82 311.33,415.72 311.33,415.62 311.69,415.52 311.69,415.42 312.05,415.32 312.05,415.22 312.05,415.12 312.05,415.02 312.05,414.92 312.05,414.82 312.05,414.72 312.40,414.62 312.40,414.51 312.40,414.41 312.40,414.31 312.76,414.21 312.76,414.11 312.76,414.01 313.11,413.91 313.11,413.81 313.11,413.71 313.11,413.61 313.46,413.51 313.46,413.41 313.46,413.31 313.46,413.21 313.46,413.11 313.46,413.01 313.81,412.91 313.81,412.81 313.81,412.71 313.81,412.61 313.81,412.51 313.81,412.41 314.16,412.31 314.16,412.21 314.16,412.11 314.16,412.01 314.16,411.91 314.50,411.81 314.50,411.71 314.50,411.61 314.50,411.51 314.85,411.41 314.85,411.31 314.85,411.21 314.85,411.11 314.85,411.01 315.19,410.91 315.19,410.81 315.19,410.71 315.54,410.61 315.54,410.51 315.54,410.41 315.54,410.31 315.54,410.21 315.54,410.10 315.88,410.00 315.88,409.90 315.88,409.80 315.88,409.70 316.22,409.60 316.22,409.50 316.22,409.40 316.22,409.30 316.22,409.20 316.22,409.10 316.56,409.00 316.89,408.90 316.89,408.80 316.89,408.70 316.89,408.60 316.89,408.50 316.89,408.40 316.89,408.30 316.89,408.20 316.89,408.10 316.89,408.00 317.23,407.90 317.23,407.80 317.23,407.70 317.23,407.60 317.23,407.50 317.23,407.40 317.56,407.30 317.56,407.20 317.56,407.10 317.56,407.00 317.90,406.90 317.90,406.80 317.90,406.70 318.23,406.60 318.23,406.50 318.56,406.40 318.56,406.30 318.56,406.20 318.56,406.10 318.89,406.00 318.89,405.90 319.22,405.79 319.22,405.69 319.22,405.59 319.22,405.49 319.55,405.39 319.55,405.29 319.55,405.19 319.88,405.09 319.88,404.99 319.88,404.89 319.88,404.79 319.88,404.69 319.88,404.59 320.20,404.49 320.52,404.39 320.52,404.29 320.52,404.19 320.52,404.09 320.52,403.99 320.52,403.89 320.52,403.79 320.85,403.69 320.85,403.59 320.85,403.49 320.85,403.39 321.17,403.29 321.17,403.19 321.17,403.09 321.17,402.99 321.17,402.89 321.17,402.79 321.49,402.69 321.49,402.59 321.49,402.49 321.81,402.39 321.81,402.29 321.81,402.19 321.81,402.09 322.13,401.99 322.13,401.89 322.13,401.79 322.13,401.69 322.13,401.59 322.13,401.49 322.44,401.38 322.44,401.28 322.76,401.18 322.76,401.08 322.76,400.98 322.76,400.88 322.76,400.78 323.08,400.68 323.08,400.58 323.08,400.48 323.08,400.38 323.08,400.28 323.08,400.18 323.39,400.08 323.39,399.98 323.39,399.88 323.39,399.78 323.39,399.68 323.39,399.58 323.70,399.48 323.70,399.38 324.01,399.28 324.01,399.18 324.01,399.08 324.01,398.98 324.01,398.88 324.32,398.78 324.32,398.68 324.32,398.58 324.32,398.48 324.32,398.38 324.32,398.28 324.63,398.18 324.63,398.08 324.63,397.98 324.63,397.88 324.94,397.78 324.94,397.68 324.94,397.58 325.25,397.48 325.25,397.38 325.56,397.28 325.56,397.18 325.56,397.08 325.86,396.97 325.86,396.87 325.86,396.77 325.86,396.67 326.16,396.57 326.16,396.47 326.16,396.37 326.16,396.27 326.16,396.17 326.47,396.07 326.47,395.97 326.77,395.87 326.77,395.77 326.77,395.67 327.07,395.57 327.07,395.47 327.07,395.37 327.07,395.27 327.37,395.17 327.37,395.07 327.37,394.97 327.37,394.87 327.37,394.77 327.67,394.67 327.67,394.57 327.67,394.47 327.67,394.37 327.67,394.27 327.67,394.17 327.97,394.07 327.97,393.97 327.97,393.87 328.26,393.77 328.26,393.67 328.26,393.57 328.26,393.47 328.26,393.37 328.56,393.27 328.56,393.17 328.56,393.07 328.56,392.97 328.56,392.87 328.86,392.77 328.86,392.67 328.86,392.56 329.15,392.46 329.15,392.36 329.15,392.26 329.15,392.16 329.15,392.06 329.15,391.96 329.44,391.86 329.44,391.76 329.44,391.66 329.74,391.56 330.03,391.46 330.03,391.36 330.03,391.26 330.32,391.16 330.32,391.06 330.32,390.96 330.61,390.86 330.61,390.76 330.89,390.66 330.89,390.56 330.89,390.46 330.89,390.36 330.89,390.26 331.18,390.16 331.18,390.06 331.18,389.96 331.18,389.86 331.47,389.76 331.47,389.66 331.47,389.56 331.47,389.46 331.47,389.36 331.75,389.26 331.75,389.16 331.75,389.06 331.75,388.96 331.75,388.86 331.75,388.76 331.75,388.66 332.04,388.56 332.32,388.46 332.32,388.36 332.32,388.26 332.32,388.15 332.60,388.05 332.60,387.95 332.60,387.85 332.60,387.75 332.89,387.65 332.89,387.55 332.89,387.45 332.89,387.35 332.89,387.25 332.89,387.15 332.89,387.05 333.17,386.95 333.17,386.85 333.17,386.75 333.17,386.65 333.17,386.55 333.17,386.45 333.45,386.35 333.45,386.25 333.45,386.15 333.45,386.05 333.45,385.95 333.73,385.85 333.73,385.75 333.73,385.65 333.73,385.55 334.01,385.45 334.01,385.35 334.01,385.25 334.01,385.15 334.01,385.05 334.28,384.95 334.28,384.85 334.28,384.75 334.28,384.65 334.28,384.55 334.56,384.45 334.56,384.35 334.84,384.25 334.84,384.15 334.84,384.05 335.11,383.95 335.11,383.85 335.11,383.74 335.11,383.64 335.39,383.54 335.39,383.44 335.39,383.34 335.39,383.24 335.66,383.14 335.66,383.04 335.66,382.94 335.66,382.84 335.66,382.74 335.66,382.64 335.66,382.54 335.93,382.44 335.93,382.34 335.93,382.24 336.20,382.14 336.20,382.04 336.20,381.94 336.20,381.84 336.47,381.74 336.47,381.64 336.47,381.54 336.47,381.44 336.47,381.34 336.74,381.24 336.74,381.14 336.74,381.04 337.01,380.94 337.01,380.84 337.01,380.74 337.01,380.64 337.28,380.54 337.28,380.44 337.28,380.34 337.28,380.24 337.55,380.14 337.55,380.04 337.55,379.94 337.55,379.84 337.81,379.74 337.81,379.64 337.81,379.54 338.08,379.44 338.35,379.33 338.35,379.23 338.61,379.13 338.61,379.03 338.61,378.93 338.87,378.83 338.87,378.73 338.87,378.63 338.87,378.53 338.87,378.43 338.87,378.33 339.14,378.23 339.14,378.13 339.40,378.03 339.40,377.93 339.40,377.83 339.40,377.73 339.66,377.63 339.66,377.53 339.66,377.43 339.66,377.33 339.66,377.23 339.66,377.13 339.92,377.03 339.92,376.93 339.92,376.83 339.92,376.73 339.92,376.63 339.92,376.53 340.18,376.43 340.18,376.33 340.18,376.23 340.18,376.13 340.18,376.03 340.18,375.93 340.44,375.83 340.44,375.73 340.44,375.63 340.44,375.53 340.44,375.43 340.44,375.33 340.44,375.23 340.44,375.13 340.44,375.03 340.44,374.92 340.70,374.82 340.70,374.72 340.70,374.62 340.70,374.52 340.70,374.42 340.95,374.32 340.95,374.22 340.95,374.12 340.95,374.02 340.95,373.92 341.21,373.82 341.21,373.72 341.21,373.62 341.21,373.52 341.47,373.42 341.47,373.32 341.72,373.22 341.72,373.12 341.72,373.02 341.72,372.92 341.98,372.82 341.98,372.72 341.98,372.62 341.98,372.52 341.98,372.42 342.23,372.32 342.23,372.22 342.23,372.12 342.23,372.02 342.23,371.92 342.23,371.82 342.48,371.72 342.48,371.62 342.48,371.52 342.48,371.42 342.48,371.32 342.74,371.22 342.74,371.12 342.74,371.02 342.99,370.92 342.99,370.82 342.99,370.72 342.99,370.62 343.24,370.51 343.24,370.41 343.24,370.31 343.24,370.21 343.49,370.11 343.49,370.01 343.49,369.91 343.74,369.81 343.74,369.71 343.74,369.61 343.74,369.51 343.74,369.41 343.99,369.31 343.99,369.21 343.99,369.11 344.24,369.01 344.24,368.91 344.24,368.81 344.24,368.71 344.24,368.61 344.48,368.51 344.48,368.41 344.48,368.31 344.48,368.21 344.48,368.11 344.98,368.01 344.98,367.91 345.22,367.81 345.22,367.71 345.22,367.61 345.22,367.51 345.47,367.41 345.47,367.31 345.47,367.21 345.71,367.11 345.71,367.01 345.71,366.91 345.71,366.81 345.71,366.71 345.71,366.61 345.95,366.51 345.95,366.41 345.95,366.31 345.95,366.21 345.95,366.10 346.20,366.00 346.44,365.90 346.44,365.80 346.68,365.70 346.68,365.60 346.68,365.50 346.68,365.40 346.92,365.30 346.92,365.20 346.92,365.10 346.92,365.00 347.16,364.90 347.16,364.80 347.16,364.70 347.40,364.60 347.40,364.50 347.40,364.40 347.40,364.30 347.40,364.20 347.64,364.10 347.64,364.00 347.64,363.90 347.88,363.80 347.88,363.70 347.88,363.60 348.11,363.50 348.11,363.40 348.35,363.30 348.35,363.20 348.35,363.10 348.35,363.00 348.59,362.90 348.59,362.80 348.59,362.70 348.59,362.60 348.82,362.50 348.82,362.40 349.06,362.30 349.06,362.20 349.06,362.10 349.06,362.00 349.06,361.90 349.06,361.79 349.29,361.69 349.29,361.59 349.29,361.49 349.29,361.39 349.53,361.29 349.53,361.19 349.53,361.09 349.53,360.99 349.53,360.89 349.53,360.79 349.76,360.69 349.76,360.59 349.76,360.49 349.99,360.39 349.99,360.29 349.99,360.19 350.22,360.09 350.22,359.99 350.22,359.89 350.22,359.79 350.22,359.69 350.22,359.59 350.46,359.49 350.46,359.39 350.46,359.29 350.69,359.19 350.69,359.09 350.69,358.99 350.69,358.89 350.92,358.79 350.92,358.69 350.92,358.59 351.15,358.49 351.15,358.39 351.15,358.29 351.15,358.19 351.15,358.09 351.37,357.99 351.37,357.89 351.37,357.79 351.37,357.69 351.37,357.59 351.60,357.49 351.60,357.38 351.60,357.28 351.60,357.18 351.60,357.08 351.60,356.98 351.83,356.88 351.83,356.78 351.83,356.68 351.83,356.58 352.06,356.48 352.06,356.38 352.28,356.28 352.28,356.18 352.28,356.08 352.51,355.98 352.51,355.88 352.51,355.78 352.51,355.68 352.51,355.58 352.51,355.48 352.74,355.38 352.74,355.28 352.74,355.18 352.74,355.08 352.74,354.98 352.96,354.88 352.96,354.78 352.96,354.68 353.19,354.58 353.19,354.48 353.19,354.38 353.19,354.28 353.19,354.18 353.41,354.08 353.41,353.98 353.41,353.88 353.41,353.78 353.41,353.68 353.41,353.58 353.41,353.48 353.63,353.38 353.63,353.28 353.63,353.18 353.86,353.08 353.86,352.97 353.86,352.87 353.86,352.77 353.86,352.67 353.86,352.57 353.86,352.47 354.08,352.37 354.08,352.27 354.08,352.17 354.08,352.07 354.08,351.97 354.08,351.87 354.30,351.77 354.30,351.67 354.30,351.57 354.52,351.47 354.52,351.37 354.74,351.27 354.74,351.17 354.96,351.07 354.96,350.97 354.96,350.87 354.96,350.77 354.96,350.67 355.18,350.57 355.18,350.47 355.18,350.37 355.40,350.27 355.40,350.17 355.62,350.07 355.62,349.97 355.62,349.87 355.62,349.77 355.83,349.67 356.05,349.57 356.05,349.47 356.05,349.37 356.27,349.27 356.27,349.17 356.27,349.07 356.27,348.97 356.27,348.87 356.48,348.77 356.48,348.67 356.48,348.56 356.48,348.46 356.48,348.36 356.70,348.26 356.70,348.16 356.92,348.06 356.92,347.96 356.92,347.86 356.92,347.76 356.92,347.66 357.13,347.56 357.13,347.46 357.13,347.36 357.13,347.26 357.13,347.16 357.34,347.06 357.34,346.96 357.34,346.86 357.34,346.76 357.34,346.66 357.56,346.56 357.56,346.46 357.56,346.36 357.77,346.26 357.77,346.16 357.77,346.06 357.77,345.96 357.77,345.86 357.98,345.76 357.98,345.66 357.98,345.56 357.98,345.46 357.98,345.36 358.20,345.26 358.20,345.16 358.41,345.06 358.41,344.96 358.41,344.86 358.41,344.76 358.62,344.66 358.62,344.56 358.62,344.46 358.62,344.36 358.62,344.26 358.62,344.15 358.62,344.05 358.83,343.95 358.83,343.85 358.83,343.75 358.83,343.65 358.83,343.55 358.83,343.45 358.83,343.35 358.83,343.25 359.04,343.15 359.04,343.05 359.04,342.95 359.04,342.85 359.04,342.75 359.04,342.65 359.04,342.55 359.25,342.45 359.46,342.35 359.67,342.25 359.67,342.15 359.67,342.05 359.67,341.95 359.87,341.85 359.87,341.75 359.87,341.65 360.08,341.55 360.08,341.45 360.08,341.35 360.08,341.25 360.08,341.15 360.08,341.05 360.29,340.95 360.29,340.85 360.29,340.75 360.29,340.65 360.29,340.55 360.29,340.45 360.50,340.35 360.50,340.25 360.50,340.15 360.70,340.05 360.70,339.95 360.70,339.85 360.70,339.74 360.70,339.64 360.70,339.54 360.91,339.44 360.91,339.34 360.91,339.24 361.11,339.14 361.32,339.04 361.32,338.94 361.32,338.84 361.32,338.74 361.32,338.64 361.32,338.54 361.52,338.44 361.52,338.34 361.52,338.24 361.52,338.14 361.52,338.04 361.52,337.94 361.52,337.84 361.73,337.74 361.73,337.64 361.73,337.54 361.73,337.44 361.73,337.34 361.93,337.24 361.93,337.14 362.13,337.04 362.13,336.94 362.13,336.84 362.13,336.74 362.54,336.64 362.74,336.54 362.74,336.44 362.74,336.34 362.74,336.24 363.14,336.14 363.14,336.04 363.14,335.94 363.34,335.84 363.34,335.74 363.34,335.64 363.34,335.54 363.34,335.44 363.54,335.33 363.74,335.23 363.94,335.13 363.94,335.03 363.94,334.93 364.13,334.83 364.13,334.73 364.13,334.63 364.13,334.53 364.13,334.43 364.13,334.33 364.13,334.23 364.13,334.13 364.33,334.03 364.33,333.93 364.53,333.83 364.53,333.73 364.73,333.63 364.73,333.53 364.73,333.43 364.73,333.33 364.73,333.23 364.92,333.13 364.92,333.03 365.12,332.93 365.12,332.83 365.12,332.73 365.32,332.63 365.32,332.53 365.32,332.43 365.32,332.33 365.32,332.23 365.51,332.13 365.51,332.03 365.51,331.93 365.51,331.83 365.51,331.73 365.71,331.63 365.71,331.53 365.71,331.43 365.71,331.33 365.90,331.23 365.90,331.13 365.90,331.03 365.90,330.92 366.09,330.82 366.09,330.72 366.09,330.62 366.09,330.52 366.09,330.42 366.09,330.32 366.09,330.22 366.09,330.12 366.29,330.02 366.29,329.92 366.29,329.82 366.29,329.72 366.29,329.62 366.29,329.52 366.48,329.42 366.48,329.32 366.48,329.22 366.48,329.12 366.67,329.02 366.67,328.92 366.87,328.82 366.87,328.72 366.87,328.62 366.87,328.52 367.06,328.42 367.06,328.32 367.06,328.22 367.06,328.12 367.06,328.02 367.25,327.92 367.25,327.82 367.44,327.72 367.44,327.62 367.44,327.52 367.63,327.42 367.63,327.32 367.63,327.22 367.63,327.12 367.63,327.02 367.63,326.92 367.82,326.82 367.82,326.72 367.82,326.62 367.82,326.51 368.01,326.41 368.01,326.31 368.01,326.21 368.01,326.11 368.01,326.01 368.01,325.91 368.01,325.81 368.01,325.71 368.01,325.61 368.20,325.51 368.20,325.41 368.20,325.31 368.20,325.21 368.39,325.11 368.39,325.01 368.39,324.91 368.58,324.81 368.58,324.71 368.58,324.61 368.58,324.51 368.58,324.41 368.58,324.31 368.77,324.21 368.77,324.11 368.77,324.01 368.77,323.91 368.95,323.81 368.95,323.71 369.14,323.61 369.14,323.51 369.33,323.41 369.33,323.31 369.33,323.21 369.52,323.11 369.52,323.01 369.70,322.91 369.70,322.81 369.70,322.71 369.70,322.61 369.70,322.51 369.70,322.41 369.89,322.31 369.89,322.21 369.89,322.10 369.89,322.00 369.89,321.90 369.89,321.80 369.89,321.70 369.89,321.60 370.07,321.50 370.07,321.40 370.07,321.30 370.07,321.20 370.26,321.10 370.26,321.00 370.26,320.90 370.44,320.80 370.44,320.70 370.44,320.60 370.44,320.50 370.44,320.40 370.63,320.30 370.63,320.20 370.63,320.10 370.81,320.00 370.81,319.90 370.81,319.80 371.00,319.70 371.00,319.60 371.18,319.50 371.18,319.40 371.18,319.30 371.36,319.20 371.36,319.10 371.36,319.00 371.36,318.90 371.54,318.80 371.54,318.70 371.54,318.60 371.54,318.50 371.73,318.40 371.73,318.30 371.73,318.20 371.73,318.10 371.91,318.00 371.91,317.90 372.09,317.79 372.09,317.69 372.27,317.59 372.27,317.49 372.27,317.39 372.45,317.29 372.45,317.19 372.45,317.09 372.63,316.99 372.63,316.89 372.63,316.79 372.63,316.69 372.81,316.59 372.81,316.49 372.81,316.39 372.81,316.29 372.81,316.19 372.81,316.09 372.81,315.99 372.99,315.89 372.99,315.79 373.17,315.69 373.17,315.59 373.17,315.49 373.35,315.39 373.35,315.29 373.35,315.19 373.35,315.09 373.35,314.99 373.35,314.89 373.35,314.79 373.35,314.69 373.53,314.59 373.53,314.49 373.53,314.39 373.70,314.29 373.70,314.19 373.70,314.09 373.70,313.99 373.70,313.89 373.88,313.79 373.88,313.69 373.88,313.59 373.88,313.49 374.06,313.38 374.06,313.28 374.06,313.18 374.06,313.08 374.24,312.98 374.24,312.88 374.24,312.78 374.24,312.68 374.41,312.58 374.41,312.48 374.41,312.38 374.41,312.28 374.41,312.18 374.59,312.08 374.59,311.98 374.59,311.88 374.59,311.78 374.59,311.68 374.77,311.58 374.77,311.48 374.77,311.38 374.77,311.28 374.94,311.18 374.94,311.08 374.94,310.98 374.94,310.88 375.12,310.78 375.12,310.68 375.12,310.58 375.29,310.48 375.29,310.38 375.29,310.28 375.29,310.18 375.29,310.08 375.29,309.98 375.29,309.88 375.29,309.78 375.47,309.68 375.64,309.58 375.64,309.48 375.81,309.38 375.81,309.28 375.81,309.18 375.99,309.08 375.99,308.97 375.99,308.87 375.99,308.77 376.16,308.67 376.16,308.57 376.16,308.47 376.16,308.37 376.33,308.27 376.33,308.17 376.33,308.07 376.51,307.97 376.51,307.87 376.51,307.77 376.51,307.67 376.51,307.57 376.51,307.47 376.51,307.37 376.51,307.27 376.68,307.17 376.68,307.07 376.68,306.97 376.85,306.87 376.85,306.77 376.85,306.67 376.85,306.57 377.02,306.47 377.02,306.37 377.19,306.27 377.19,306.17 377.19,306.07 377.36,305.97 377.36,305.87 377.36,305.77 377.36,305.67 377.54,305.57 377.54,305.47 377.54,305.37 377.54,305.27 377.54,305.17 377.54,305.07 377.54,304.97 377.71,304.87 377.71,304.77 377.71,304.67 377.71,304.56 377.71,304.46 377.71,304.36 377.88,304.26 377.88,304.16 377.88,304.06 377.88,303.96 377.88,303.86 377.88,303.76 377.88,303.66 378.05,303.56 378.05,303.46 378.05,303.36 378.05,303.26 378.21,303.16 378.21,303.06 378.55,302.96 378.55,302.86 378.55,302.76 378.72,302.66 378.72,302.56 378.72,302.46 378.72,302.36 378.72,302.26 378.89,302.16 378.89,302.06 378.89,301.96 378.89,301.86 378.89,301.76 379.06,301.66 379.06,301.56 379.06,301.46 379.06,301.36 379.22,301.26 379.22,301.16 379.22,301.06 379.39,300.96 379.56,300.86 379.56,300.76 379.56,300.66 379.56,300.56 379.56,300.46 379.56,300.36 379.56,300.26 379.56,300.15 379.72,300.05 379.72,299.95 379.72,299.85 379.72,299.75 379.72,299.65 379.89,299.55 379.89,299.45 379.89,299.35 379.89,299.25 380.06,299.15 380.06,299.05 380.06,298.95 380.06,298.85 380.06,298.75 380.22,298.65 380.22,298.55 380.22,298.45 380.22,298.35 380.39,298.25 380.39,298.15 380.39,298.05 380.55,297.95 380.72,297.85 380.88,297.75 380.88,297.65 380.88,297.55 381.04,297.45 381.04,297.35 381.04,297.25 381.21,297.15 381.21,297.05 381.21,296.95 381.21,296.85 381.21,296.75 381.37,296.65 381.37,296.55 381.37,296.45 381.37,296.35 381.37,296.25 381.37,296.15 381.53,296.05 381.53,295.95 381.53,295.85 381.53,295.74 381.53,295.64 381.70,295.54 381.70,295.44 381.70,295.34 381.70,295.24 381.70,295.14 381.86,295.04 381.86,294.94 381.86,294.84 382.02,294.74 382.02,294.64 382.02,294.54 382.02,294.44 382.02,294.34 382.02,294.24 382.18,294.14 382.18,294.04 382.18,293.94 382.18,293.84 382.18,293.74 382.18,293.64 382.34,293.54 382.34,293.44 382.34,293.34 382.34,293.24 382.34,293.14 382.34,293.04 382.34,292.94 382.51,292.84 382.51,292.74 382.51,292.64 382.51,292.54 382.67,292.44 382.67,292.34 382.83,292.24 382.83,292.14 382.83,292.04 382.83,291.94 382.83,291.84 382.99,291.74 382.99,291.64 383.31,291.54 383.31,291.44 383.31,291.33 383.47,291.23 383.63,291.13 383.63,291.03 383.63,290.93 383.63,290.83 383.63,290.73 383.63,290.63 383.79,290.53 383.79,290.43 383.79,290.33 383.79,290.23 383.94,290.13 383.94,290.03 383.94,289.93 383.94,289.83 384.10,289.73 384.10,289.63 384.10,289.53 384.26,289.43 384.26,289.33 384.26,289.23 384.26,289.13 384.42,289.03 384.42,288.93 384.58,288.83 384.58,288.73 384.58,288.63 384.58,288.53 384.73,288.43 384.73,288.33 384.73,288.23 384.73,288.13 384.73,288.03 384.89,287.93 384.89,287.83 384.89,287.73 384.89,287.63 384.89,287.53 384.89,287.43 385.05,287.33 385.20,287.23 385.20,287.13 385.20,287.03 385.20,286.92 385.36,286.82 385.36,286.72 385.52,286.62 385.67,286.52 385.67,286.42 385.67,286.32 385.67,286.22 385.67,286.12 385.83,286.02 385.83,285.92 385.83,285.82 385.98,285.72 385.98,285.62 386.14,285.52 386.14,285.42 386.29,285.32 386.29,285.22 386.29,285.12 386.29,285.02 386.45,284.92 386.45,284.82 386.45,284.72 386.45,284.62 386.45,284.52 386.60,284.42 386.60,284.32 386.60,284.22 386.75,284.12 386.75,284.02 386.75,283.92 386.75,283.82 386.91,283.72 386.91,283.62 387.06,283.52 387.06,283.42 387.06,283.32 387.06,283.22 387.21,283.12 387.21,283.02 387.21,282.92 387.37,282.82 387.37,282.72 387.37,282.62 387.37,282.51 387.37,282.41 387.52,282.31 387.67,282.21 387.67,282.11 387.67,282.01 387.82,281.91 387.82,281.81 387.82,281.71 387.82,281.61 387.97,281.51 387.97,281.41 387.97,281.31 388.13,281.21 388.28,281.11 388.28,281.01 388.28,280.91 388.28,280.81 388.43,280.71 388.43,280.61 388.43,280.51 388.43,280.41 388.43,280.31 388.58,280.21 388.58,280.11 388.58,280.01 388.58,279.91 388.58,279.81 388.58,279.71 388.73,279.61 388.88,279.51 388.88,279.41 388.88,279.31 389.03,279.21 389.18,279.11 389.18,279.01 389.18,278.91 389.18,278.81 389.33,278.71 389.33,278.61 389.33,278.51 389.48,278.41 389.48,278.31 389.48,278.21 389.48,278.10 389.48,278.00 389.48,277.90 389.48,277.80 389.63,277.70 389.63,277.60 389.63,277.50 389.63,277.40 389.77,277.30 389.92,277.20 389.92,277.10 389.92,277.00 389.92,276.90 389.92,276.80 389.92,276.70 389.92,276.60 390.07,276.50 390.07,276.40 390.07,276.30 390.22,276.20 390.22,276.10 390.22,276.00 390.22,275.90 390.22,275.80 390.22,275.70 390.37,275.60 390.51,275.50 390.66,275.40 390.66,275.30 390.66,275.20 390.66,275.10 390.66,275.00 390.81,274.90 390.81,274.80 390.81,274.70 390.96,274.60 390.96,274.50 391.10,274.40 391.10,274.30 391.10,274.20 391.25,274.10 391.25,274.00 391.25,273.90 391.25,273.79 391.25,273.69 391.39,273.59 391.39,273.49 391.39,273.39 391.39,273.29 391.39,273.19 391.54,273.09 391.54,272.99 391.54,272.89 391.54,272.79 391.54,272.69 391.54,272.59 391.54,272.49 391.68,272.39 391.83,272.29 391.98,272.19 391.98,272.09 391.98,271.99 391.98,271.89 391.98,271.79 392.12,271.69 392.12,271.59 392.12,271.49 392.12,271.39 392.12,271.29 392.26,271.19 392.26,271.09 392.41,270.99 392.41,270.89 392.41,270.79 392.41,270.69 392.41,270.59 392.55,270.49 392.55,270.39 392.55,270.29 392.55,270.19 392.70,270.09 392.70,269.99 392.70,269.89 392.84,269.79 392.84,269.69 392.98,269.59 392.98,269.49 392.98,269.38 393.27,269.28 393.27,269.18 393.41,269.08 393.41,268.98 393.41,268.88 393.55,268.78 393.70,268.68 393.70,268.58 393.70,268.48 393.70,268.38 393.70,268.28 393.84,268.18 393.98,268.08 393.98,267.98 393.98,267.88 393.98,267.78 394.12,267.68 394.12,267.58 394.12,267.48 394.26,267.38 394.26,267.28 394.40,267.18 394.55,267.08 394.69,266.98 394.69,266.88 394.69,266.78 394.83,266.68 394.83,266.58 394.83,266.48 394.97,266.38 394.97,266.28 394.97,266.18 394.97,266.08 394.97,265.98 394.97,265.88 395.11,265.78 395.25,265.68 395.25,265.58 395.25,265.48 395.25,265.38 395.25,265.28 395.25,265.18 395.39,265.08 395.39,264.97 395.39,264.87 395.53,264.77 395.53,264.67 395.80,264.57 395.80,264.47 395.80,264.37 395.80,264.27 395.94,264.17 396.08,264.07 396.22,263.97 396.22,263.87 396.22,263.77 396.36,263.67 396.36,263.57 396.49,263.47 396.49,263.37 396.49,263.27 396.49,263.17 396.49,263.07 396.49,262.97 396.63,262.87 396.77,262.77 396.77,262.67 396.77,262.57 396.77,262.47 396.91,262.37 396.91,262.27 397.04,262.17 397.04,262.07 397.18,261.97 397.32,261.87 397.32,261.77 397.45,261.67 397.45,261.57 397.73,261.47 398.00,261.37 398.13,261.27 398.13,261.17 398.13,261.07 398.27,260.97 398.27,260.87 398.27,260.77 398.27,260.67 398.40,260.56 398.40,260.46 398.54,260.36 398.67,260.26 398.67,260.16 398.67,260.06 398.67,259.96 398.80,259.86 398.80,259.76 398.94,259.66 399.07,259.56 399.21,259.46 399.47,259.36 399.47,259.26 399.47,259.16 399.61,259.06 399.61,258.96 399.61,258.86 399.74,258.76 399.74,258.66 399.74,258.56 399.74,258.46 399.74,258.36 399.87,258.26 399.87,258.16 399.87,258.06 399.87,257.96 400.00,257.86 400.00,257.76 400.14,257.66 400.14,257.56 400.14,257.46 400.14,257.36 400.14,257.26 400.27,257.16 400.27,257.06 400.40,256.96 400.53,256.86 400.53,256.76 400.53,256.66 400.53,256.56 400.53,256.46 400.53,256.36 400.80,256.26 400.80,256.15 400.93,256.05 400.93,255.95 400.93,255.85 400.93,255.75 400.93,255.65 401.06,255.55 401.06,255.45 401.06,255.35 401.06,255.25 401.06,255.15 401.06,255.05 401.06,254.95 401.19,254.85 401.19,254.75 401.19,254.65 401.45,254.55 401.45,254.45 401.58,254.35 401.58,254.25 401.71,254.15 401.71,254.05 401.71,253.95 401.71,253.85 401.71,253.75 401.71,253.65 401.84,253.55 401.84,253.45 401.84,253.35 401.97,253.25 401.97,253.15 402.10,253.05 402.23,252.95 402.23,252.85 402.48,252.75 402.48,252.65 402.48,252.55 402.48,252.45 402.74,252.35 402.74,252.25 402.74,252.15 402.74,252.05 402.87,251.95 403.00,251.85 403.00,251.74 403.00,251.64 403.00,251.54 403.13,251.44 403.13,251.34 403.13,251.24 403.13,251.14 403.25,251.04 403.25,250.94 403.25,250.84 403.38,250.74 403.51,250.64 403.51,250.54 403.64,250.44 403.64,250.34 403.76,250.24 403.89,250.14 403.89,250.04 403.89,249.94 403.89,249.84 403.89,249.74 403.89,249.64 403.89,249.54 404.02,249.44 404.02,249.34 404.02,249.24 404.02,249.14 404.02,249.04 404.14,248.94 404.14,248.84 404.14,248.74 404.14,248.64 404.27,248.54 404.27,248.44 404.27,248.34 404.27,248.24 404.27,248.14 404.27,248.04 404.39,247.94 404.52,247.84 404.52,247.74 404.52,247.64 404.65,247.54 404.77,247.44 404.90,247.33 404.90,247.23 405.02,247.13 405.02,247.03 405.02,246.93 405.15,246.83 405.15,246.73 405.27,246.63 405.27,246.53 405.40,246.43 405.52,246.33 405.52,246.23 405.65,246.13 405.77,246.03 405.77,245.93 405.89,245.83 405.89,245.73 405.89,245.63 405.89,245.53 405.89,245.43 406.02,245.33 406.14,245.23 406.14,245.13 406.14,245.03 406.27,244.93 406.27,244.83 406.27,244.73 406.39,244.63 406.39,244.53 406.39,244.43 406.51,244.33 406.63,244.23 406.76,244.13 406.76,244.03 406.76,243.93 406.76,243.83 406.76,243.73 407.00,243.63 407.25,243.53 407.25,243.43 407.25,243.33 407.25,243.23 407.25,243.13 407.49,243.03 407.49,242.92 407.61,242.82 407.61,242.72 407.73,242.62 407.73,242.52 407.73,242.42 407.73,242.32 407.73,242.22 407.85,242.12 407.85,242.02 407.98,241.92 407.98,241.82 407.98,241.72 407.98,241.62 407.98,241.52 408.10,241.42 408.22,241.32 408.34,241.22 408.34,241.12 408.34,241.02 408.46,240.92 408.46,240.82 408.46,240.72 408.58,240.62 408.58,240.52 408.58,240.42 408.58,240.32 408.58,240.22 408.70,240.12 408.70,240.02 408.94,239.92 408.94,239.82 409.06,239.72 409.06,239.62 409.06,239.52 409.06,239.42 409.06,239.32 409.06,239.22 409.18,239.12 409.18,239.02 409.18,238.92 409.18,238.82 409.18,238.72 409.18,238.62 409.42,238.51 409.42,238.41 409.42,238.31 409.54,238.21 409.54,238.11 409.54,238.01 409.65,237.91 409.77,237.81 409.77,237.71 409.77,237.61 409.77,237.51 409.77,237.41 409.89,237.31 409.89,237.21 410.01,237.11 410.01,237.01 410.13,236.91 410.13,236.81 410.48,236.71 410.60,236.61 410.60,236.51 410.60,236.41 410.60,236.31 410.60,236.21 410.60,236.11 410.72,236.01 410.72,235.91 410.72,235.81 410.83,235.71 410.83,235.61 410.83,235.51 410.95,235.41 410.95,235.31 410.95,235.21 410.95,235.11 411.07,235.01 411.07,234.91 411.07,234.81 411.07,234.71 411.18,234.61 411.42,234.51 411.42,234.41 411.42,234.31 411.42,234.21 411.42,234.10 411.53,234.00 411.53,233.90 411.53,233.80 411.53,233.70 411.65,233.60 411.65,233.50 412.00,233.40 412.00,233.30 412.00,233.20 412.00,233.10 412.00,233.00 412.00,232.90 412.11,232.80 412.11,232.70 412.23,232.60 412.23,232.50 412.23,232.40 412.23,232.30 412.34,232.20 412.34,232.10 412.46,232.00 412.46,231.90 412.46,231.80 412.46,231.70 412.69,231.60 412.69,231.50 412.69,231.40 412.80,231.30 412.80,231.20 412.80,231.10 413.03,231.00 413.03,230.90 413.03,230.80 413.15,230.70 413.15,230.60 413.15,230.50 413.15,230.40 413.15,230.30 413.26,230.20 413.26,230.10 413.26,230.00 413.26,229.90 413.38,229.79 413.38,229.69 413.38,229.59 413.49,229.49 413.72,229.39 413.72,229.29 413.72,229.19 413.72,229.09 413.72,228.99 413.94,228.89 414.06,228.79 414.06,228.69 414.28,228.59 414.28,228.49 414.28,228.39 414.39,228.29 414.39,228.19 414.51,228.09 414.62,227.99 414.62,227.89 414.73,227.79 414.84,227.69 414.96,227.59 414.96,227.49 415.07,227.39 415.07,227.29 415.18,227.19 415.29,227.09 415.40,226.99 415.40,226.89 415.62,226.79 415.62,226.69 415.74,226.59 415.85,226.49 415.85,226.39 415.96,226.29 415.96,226.19 415.96,226.09 415.96,225.99 415.96,225.89 416.07,225.79 416.07,225.69 416.07,225.59 416.29,225.49 416.40,225.38 416.40,225.28 416.62,225.18 416.73,225.08 416.84,224.98 416.84,224.88 416.95,224.78 416.95,224.68 416.95,224.58 416.95,224.48 417.06,224.38 417.06,224.28 417.06,224.18 417.17,224.08 417.17,223.98 417.17,223.88 417.28,223.78 417.28,223.68 417.38,223.58 417.49,223.48 417.49,223.38 417.82,223.28 417.93,223.18 417.93,223.08 418.04,222.98 418.04,222.88 418.04,222.78 418.04,222.68 418.14,222.58 418.14,222.48 418.25,222.38 418.47,222.28 418.47,222.18 418.47,222.08 418.57,221.98 418.57,221.88 418.57,221.78 418.57,221.68 418.57,221.58 418.68,221.48 418.68,221.38 418.79,221.28 418.90,221.18 418.90,221.08 419.00,220.97 419.00,220.87 419.00,220.77 419.00,220.67 419.11,220.57 419.22,220.47 419.22,220.37 419.22,220.27 419.32,220.17 419.32,220.07 419.32,219.97 419.43,219.87 419.43,219.77 419.54,219.67 419.54,219.57 419.54,219.47 419.64,219.37 419.75,219.27 419.85,219.17 419.85,219.07 419.85,218.97 419.96,218.87 420.07,218.77 420.17,218.67 420.17,218.57 420.28,218.47 420.28,218.37 420.38,218.27 420.38,218.17 420.38,218.07 420.49,217.97 420.49,217.87 420.49,217.77 420.49,217.67 420.59,217.57 420.70,217.47 420.70,217.37 420.80,217.27 420.80,217.17 420.80,217.07 420.91,216.97 420.91,216.87 420.91,216.77 420.91,216.67 421.01,216.56 421.01,216.46 421.12,216.36 421.12,216.26 421.22,216.16 421.43,216.06 421.43,215.96 421.43,215.86 421.43,215.76 421.53,215.66 421.64,215.56 421.74,215.46 421.74,215.36 421.74,215.26 421.84,215.16 421.84,215.06 421.95,214.96 421.95,214.86 422.05,214.76 422.05,214.66 422.15,214.56 422.26,214.46 422.26,214.36 422.46,214.26 422.46,214.16 422.46,214.06 422.57,213.96 422.57,213.86 422.57,213.76 422.57,213.66 422.67,213.56 422.67,213.46 422.67,213.36 422.77,213.26 422.77,213.16 422.77,213.06 422.87,212.96 422.98,212.86 422.98,212.76 423.08,212.66 423.08,212.56 423.28,212.46 423.28,212.36 423.38,212.26 423.38,212.15 423.49,212.05 423.49,211.95 423.49,211.85 423.49,211.75 423.49,211.65 423.59,211.55 423.59,211.45 423.69,211.35 423.79,211.25 423.79,211.15 423.79,211.05 423.79,210.95 423.89,210.85 423.89,210.75 424.09,210.65 424.29,210.55 424.40,210.45 424.40,210.35 424.40,210.25 424.50,210.15 424.60,210.05 424.70,209.95 424.70,209.85 424.70,209.75 424.80,209.65 424.80,209.55 424.80,209.45 424.90,209.35 424.90,209.25 424.90,209.15 424.90,209.05 424.90,208.95 425.00,208.85 425.00,208.75 425.00,208.65 425.00,208.55 425.00,208.45 425.00,208.35 425.20,208.25 425.30,208.15 425.40,208.05 425.40,207.95 425.50,207.85 425.50,207.74 425.50,207.64 425.69,207.54 425.69,207.44 425.69,207.34 425.69,207.24 425.69,207.14 425.79,207.04 425.79,206.94 425.89,206.84 425.99,206.74 425.99,206.64 425.99,206.54 426.09,206.44 426.29,206.34 426.29,206.24 426.29,206.14 426.39,206.04 426.58,205.94 426.58,205.84 426.68,205.74 426.68,205.64 426.78,205.54 426.88,205.44 426.88,205.34 426.88,205.24 426.88,205.14 426.97,205.04 427.07,204.94 427.17,204.84 427.17,204.74 427.27,204.64 427.27,204.54 427.27,204.44 427.27,204.34 427.36,204.24 427.56,204.14 427.66,204.04 427.75,203.94 427.75,203.84 427.95,203.74 428.04,203.64 428.04,203.54 428.14,203.44 428.14,203.33 428.33,203.23 428.33,203.13 428.52,203.03 428.52,202.93 428.62,202.83 428.72,202.73 428.91,202.63 428.91,202.53 428.91,202.43 428.91,202.33 428.91,202.23 429.00,202.13 429.00,202.03 429.00,201.93 429.10,201.83 429.10,201.73 429.10,201.63 429.19,201.53 429.19,201.43 429.48,201.33 429.48,201.23 429.57,201.13 429.67,201.03 429.86,200.93 429.95,200.83 429.95,200.73 430.05,200.63 430.05,200.53 430.05,200.43 430.05,200.33 430.14,200.23 430.14,200.13 430.24,200.03 430.33,199.93 430.33,199.83 430.33,199.73 430.33,199.63 430.52,199.53 430.61,199.43 430.61,199.33 430.71,199.23 430.71,199.13 430.80,199.03 430.89,198.92 430.99,198.82 431.08,198.72 431.17,198.62 431.17,198.52 431.17,198.42 431.17,198.32 431.17,198.22 431.45,198.12 431.45,198.02 431.45,197.92 431.55,197.82 431.64,197.72 431.73,197.62 431.73,197.52 431.82,197.42 431.82,197.32 431.82,197.22 431.82,197.12 432.01,197.02 432.10,196.92 432.10,196.82 432.29,196.72 432.56,196.62 432.56,196.52 432.56,196.42 432.84,196.32 432.93,196.22 432.93,196.12 433.02,196.02 433.02,195.92 433.11,195.82 433.11,195.72 433.11,195.62 433.11,195.52 433.11,195.42 433.11,195.32 433.20,195.22 433.20,195.12 433.20,195.02 433.20,194.92 433.20,194.82 433.29,194.72 433.38,194.62 433.57,194.51 433.66,194.41 433.75,194.31 433.75,194.21 433.75,194.11 433.84,194.01 434.02,193.91 434.20,193.81 434.38,193.71 434.38,193.61 434.38,193.51 434.47,193.41 434.47,193.31 434.56,193.21 434.65,193.11 434.65,193.01 434.74,192.91 434.83,192.81 434.92,192.71 434.92,192.61 435.01,192.51 435.01,192.41 435.10,192.31 435.19,192.21 435.27,192.11 435.36,192.01 435.36,191.91 435.45,191.81 435.54,191.71 435.63,191.61 435.63,191.51 435.72,191.41 435.72,191.31 435.81,191.21 435.81,191.11 435.90,191.01 435.98,190.91 436.16,190.81 436.16,190.71 436.25,190.61 436.25,190.51 436.34,190.41 436.34,190.31 436.42,190.21 436.51,190.10 436.51,190.00 436.60,189.90 436.69,189.80 436.78,189.70 436.78,189.60 436.78,189.50 436.86,189.40 436.95,189.30 437.04,189.20 437.30,189.10 437.65,189.00 437.65,188.90 437.73,188.80 437.73,188.70 437.82,188.60 437.91,188.50 438.17,188.40 438.17,188.30 438.34,188.20 438.34,188.10 438.42,188.00 438.51,187.90 438.51,187.80 438.77,187.70 438.77,187.60 438.85,187.50 438.94,187.40 439.02,187.30 439.11,187.20 439.19,187.10 439.28,187.00 439.28,186.90 439.45,186.80 439.45,186.70 439.45,186.60 439.53,186.50 439.62,186.40 439.70,186.30 439.70,186.20 439.79,186.10 439.87,186.00 439.87,185.90 439.96,185.79 439.96,185.69 440.21,185.59 440.29,185.49 440.29,185.39 440.38,185.29 440.55,185.19 440.55,185.09 440.63,184.99 440.71,184.89 440.80,184.79 440.80,184.69 440.88,184.59 440.88,184.49 441.05,184.39 441.13,184.29 441.13,184.19 441.22,184.09 441.30,183.99 441.38,183.89 441.63,183.79 441.63,183.69 441.71,183.59 441.71,183.49 441.71,183.39 441.80,183.29 441.80,183.19 441.88,183.09 441.88,182.99 441.88,182.89 441.88,182.79 441.96,182.69 441.96,182.59 442.13,182.49 442.21,182.39 442.29,182.29 442.29,182.19 442.37,182.09 442.46,181.99 442.46,181.89 442.54,181.79 442.62,181.69 442.70,181.59 442.78,181.49 442.78,181.38 442.78,181.28 442.78,181.18 442.78,181.08 442.78,180.98 442.87,180.88 442.87,180.78 442.87,180.68 443.03,180.58 443.11,180.48 443.11,180.38 443.19,180.28 443.36,180.18 443.36,180.08 443.36,179.98 443.44,179.88 443.44,179.78 443.44,179.68 443.44,179.58 443.44,179.48 443.44,179.38 443.60,179.28 443.84,179.18 443.84,179.08 443.92,178.98 444.00,178.88 444.08,178.78 444.16,178.68 444.25,178.58 444.33,178.48 444.41,178.38 444.49,178.28 444.57,178.18 444.65,178.08 444.65,177.98 444.73,177.88 444.81,177.78 444.81,177.68 445.05,177.58 445.05,177.48 445.36,177.38 445.36,177.28 445.36,177.18 445.36,177.08 445.44,176.97 445.52,176.87 445.52,176.77 445.52,176.67 445.60,176.57 445.68,176.47 445.76,176.37 445.76,176.27 446.00,176.17 446.47,176.07 446.47,175.97 446.63,175.87 446.63,175.77 446.71,175.67 446.78,175.57 446.86,175.47 446.86,175.37 447.10,175.27 447.10,175.17 447.17,175.07 447.25,174.97 447.41,174.87 447.49,174.77 447.49,174.67 447.56,174.57 447.64,174.47 447.64,174.37 447.80,174.27 447.80,174.17 447.80,174.07 447.80,173.97 447.87,173.87 448.10,173.77 448.10,173.67 448.18,173.57 448.18,173.47 448.18,173.37 448.26,173.27 448.26,173.17 448.26,173.07 448.34,172.97 448.34,172.87 448.49,172.77 448.57,172.67 448.57,172.56 448.64,172.46 448.64,172.36 448.87,172.26 448.87,172.16 448.95,172.06 448.95,171.96 448.95,171.86 448.95,171.76 448.95,171.66 449.02,171.56 449.56,171.46 449.63,171.36 449.63,171.26 449.71,171.16 449.86,171.06 449.86,170.96 449.94,170.86 450.16,170.76 450.39,170.66 450.46,170.56 450.46,170.46 450.46,170.36 450.54,170.26 450.61,170.16 450.61,170.06 450.69,169.96 450.69,169.86 450.76,169.76 450.99,169.66 451.06,169.56 451.06,169.46 451.06,169.36 451.28,169.26 451.28,169.16 451.36,169.06 451.36,168.96 451.36,168.86 451.36,168.76 451.43,168.66 451.43,168.56 451.43,168.46 451.51,168.36 451.58,168.26 451.58,168.15 451.58,168.05 451.58,167.95 451.73,167.85 451.88,167.75 451.88,167.65 451.88,167.55 451.95,167.45 451.95,167.35 452.03,167.25 452.03,167.15 452.10,167.05 452.17,166.95 452.25,166.85 452.25,166.75 452.25,166.65 452.47,166.55 452.47,166.45 452.54,166.35 452.61,166.25 452.61,166.15 452.61,166.05 452.61,165.95 452.69,165.85 452.83,165.75 453.05,165.65 453.05,165.55 453.12,165.45 453.12,165.35 453.27,165.25 453.42,165.15 453.42,165.05 453.42,164.95 453.42,164.85 453.42,164.75 453.49,164.65 453.63,164.55 453.71,164.45 453.71,164.35 453.71,164.25 453.92,164.15 453.92,164.05 453.92,163.95 453.99,163.85 453.99,163.74 454.07,163.64 454.21,163.54 454.28,163.44 454.28,163.34 454.28,163.24 454.35,163.14 454.43,163.04 454.43,162.94 454.43,162.84 454.50,162.74 454.50,162.64 454.57,162.54 454.64,162.44 454.71,162.34 454.78,162.24 454.78,162.14 454.86,162.04 454.93,161.94 454.93,161.84 455.00,161.74 455.00,161.64 455.07,161.54 455.36,161.44 455.36,161.34 455.43,161.24 455.57,161.14 455.57,161.04 455.64,160.94 455.64,160.84 455.64,160.74 455.71,160.64 455.71,160.54 455.71,160.44 455.78,160.34 455.78,160.24 455.78,160.14 455.99,160.04 455.99,159.94 456.20,159.84 456.34,159.74 456.34,159.64 456.48,159.54 456.55,159.44 456.55,159.33 456.90,159.23 457.04,159.13 457.11,159.03 457.25,158.93 457.25,158.83 457.25,158.73 457.39,158.63 457.60,158.53 457.67,158.43 457.81,158.33 457.95,158.23 457.95,158.13 457.95,158.03 458.15,157.93 458.15,157.83 458.36,157.73 458.43,157.63 458.50,157.53 458.63,157.43 458.70,157.33 458.84,157.23 458.84,157.13 458.91,157.03 458.98,156.93 458.98,156.83 459.04,156.73 459.04,156.63 459.18,156.53 459.25,156.43 459.25,156.33 459.32,156.23 459.38,156.13 459.45,156.03 459.52,155.93 459.52,155.83 459.59,155.73 459.72,155.63 459.86,155.53 459.99,155.43 460.06,155.33 460.33,155.23 460.33,155.13 460.46,155.03 460.46,154.92 460.46,154.82 460.53,154.72 460.60,154.62 460.60,154.52 460.66,154.42 460.73,154.32 460.86,154.22 460.93,154.12 461.00,154.02 461.07,153.92 461.13,153.82 461.13,153.72 461.20,153.62 461.20,153.52 461.26,153.42 461.26,153.32 461.40,153.22 461.40,153.12 461.40,153.02 461.40,152.92 461.60,152.82 461.60,152.72 461.86,152.62 461.86,152.52 461.93,152.42 461.93,152.32 461.99,152.22 462.06,152.12 462.12,152.02 462.12,151.92 462.19,151.82 462.26,151.72 462.32,151.62 462.32,151.52 462.52,151.42 462.52,151.32 462.58,151.22 462.72,151.12 462.72,151.02 462.91,150.92 462.91,150.82 462.98,150.72 462.98,150.62 463.04,150.51 463.11,150.41 463.30,150.31 463.37,150.21 463.50,150.11 463.50,150.01 463.63,149.91 463.63,149.81 463.82,149.71 463.95,149.61 464.08,149.51 464.14,149.41 464.21,149.31 464.27,149.21 464.27,149.11 464.46,149.01 464.59,148.91 464.66,148.81 464.66,148.71 464.66,148.61 464.72,148.51 464.78,148.41 464.85,148.31 464.85,148.21 464.98,148.11 465.04,148.01 465.04,147.91 465.10,147.81 465.23,147.71 465.23,147.61 465.29,147.51 465.29,147.41 465.42,147.31 465.42,147.21 465.67,147.11 465.80,147.01 465.86,146.91 465.86,146.81 465.93,146.71 465.93,146.61 465.99,146.51 465.99,146.41 465.99,146.31 466.05,146.21 466.05,146.10 466.12,146.00 466.30,145.90 466.30,145.80 466.37,145.70 466.49,145.60 466.49,145.50 466.68,145.40 466.68,145.30 466.74,145.20 466.74,145.10 466.74,145.00 466.74,144.90 467.18,144.80 467.24,144.70 467.30,144.60 467.30,144.50 467.37,144.40 467.49,144.30 467.55,144.20 467.61,144.10 467.61,144.00 467.68,143.90 467.68,143.80 467.68,143.70 467.74,143.60 467.80,143.50 467.80,143.40 467.86,143.30 467.92,143.20 467.99,143.10 468.11,143.00 468.23,142.90 468.29,142.80 468.35,142.70 468.35,142.60 468.42,142.50 468.48,142.40 468.54,142.30 468.60,142.20 468.60,142.10 468.72,142.00 468.78,141.90 468.84,141.79 468.90,141.69 469.03,141.59 469.09,141.49 469.09,141.39 469.21,141.29 469.27,141.19 469.33,141.09 469.39,140.99 469.45,140.89 469.51,140.79 469.57,140.69 469.57,140.59 469.63,140.49 469.76,140.39 469.76,140.29 469.82,140.19 469.88,140.09 469.88,139.99 470.06,139.89 470.18,139.79 470.18,139.69 470.36,139.59 470.36,139.49 470.48,139.39 470.54,139.29 470.54,139.19 470.66,139.09 470.66,138.99 470.72,138.89 470.78,138.79 470.78,138.69 470.78,138.59 470.78,138.49 470.90,138.39 471.02,138.29 471.07,138.19 471.25,138.09 471.31,137.99 471.31,137.89 471.37,137.79 471.37,137.69 471.49,137.59 471.55,137.49 471.61,137.38 471.61,137.28 471.67,137.18 471.73,137.08 471.73,136.98 472.20,136.88 472.32,136.78 472.38,136.68 472.43,136.58 472.43,136.48 472.49,136.38 472.49,136.28 472.49,136.18 472.55,136.08 472.55,135.98 472.61,135.88 472.61,135.78 472.67,135.68 472.67,135.58 472.73,135.48 472.90,135.38 472.90,135.28 472.90,135.18 472.96,135.08 473.08,134.98 473.19,134.88 473.31,134.78 473.31,134.68 473.37,134.58 473.37,134.48 473.48,134.38 473.60,134.28 473.60,134.18 473.77,134.08 473.95,133.98 474.06,133.88 474.06,133.78 474.12,133.68 474.18,133.58 474.18,133.48 474.23,133.38 474.23,133.28 474.23,133.18 474.29,133.08 474.29,132.97 474.29,132.87 474.35,132.77 474.35,132.67 474.35,132.57 474.41,132.47 474.41,132.37 474.41,132.27 474.46,132.17 474.46,132.07 474.52,131.97 474.75,131.87 474.92,131.77 474.98,131.67 474.98,131.57 475.09,131.47 475.15,131.37 475.32,131.27 475.43,131.17 475.49,131.07 475.55,130.97 475.60,130.87 475.60,130.77 475.60,130.67 475.66,130.57 475.66,130.47 475.71,130.37 475.88,130.27 475.94,130.17 476.00,130.07 476.11,129.97 476.22,129.87 476.28,129.77 476.28,129.67 476.33,129.57 476.45,129.47 476.45,129.37 476.50,129.27 476.50,129.17 476.50,129.07 476.50,128.97 476.56,128.87 476.56,128.77 476.67,128.67 476.73,128.56 476.78,128.46 476.89,128.36 476.89,128.26 476.95,128.16 476.95,128.06 476.95,127.96 477.12,127.86 477.17,127.76 477.17,127.66 477.17,127.56 477.17,127.46 477.34,127.36 477.34,127.26 477.39,127.16 477.39,127.06 477.39,126.96 477.51,126.86 477.51,126.76 477.51,126.66 477.56,126.56 477.62,126.46 477.67,126.36 477.78,126.26 477.84,126.16 477.89,126.06 478.11,125.96 478.11,125.86 478.11,125.76 478.17,125.66 478.17,125.56 478.22,125.46 478.22,125.36 478.28,125.26 478.28,125.16 478.33,125.06 478.39,124.96 478.39,124.86 478.55,124.76 478.61,124.66 478.66,124.56 478.72,124.46 478.72,124.36 478.77,124.26 478.82,124.15 478.88,124.05 478.93,123.95 478.99,123.85 479.04,123.75 479.04,123.65 479.04,123.55 479.21,123.45 479.53,123.35 479.86,123.25 479.96,123.15 480.02,123.05 480.07,122.95 480.18,122.85 480.29,122.75 480.34,122.65 480.39,122.55 480.71,122.45 480.71,122.35 480.77,122.25 480.82,122.15 480.87,122.05 480.93,121.95 480.93,121.85 480.93,121.75 481.03,121.65 481.03,121.55 481.09,121.45 481.19,121.35 481.25,121.25 481.25,121.15 481.30,121.05 481.30,120.95 481.46,120.85 481.67,120.75 481.88,120.65 481.88,120.55 482.09,120.45 482.15,120.35 482.15,120.25 482.51,120.15 482.51,120.05 482.57,119.95 482.67,119.85 482.72,119.74 482.77,119.64 482.77,119.54 482.83,119.44 483.14,119.34 483.29,119.24 483.35,119.14 483.35,119.04 483.45,118.94 483.55,118.84 483.61,118.74 483.71,118.64 483.76,118.54 483.76,118.44 483.81,118.34 483.86,118.24 483.86,118.14 484.02,118.04 484.17,117.94 484.28,117.84 484.28,117.74 484.48,117.64 484.53,117.54 484.74,117.44 484.74,117.34 484.79,117.24 484.79,117.14 484.94,117.04 485.04,116.94 485.04,116.84 485.09,116.74 485.14,116.64 485.19,116.54 485.19,116.44 485.25,116.34 485.30,116.24 485.30,116.14 485.45,116.04 485.50,115.94 485.55,115.84 485.55,115.74 485.70,115.64 485.75,115.54 485.75,115.44 485.80,115.33 485.80,115.23 485.90,115.13 486.00,115.03 486.05,114.93 486.05,114.83 486.10,114.73 486.46,114.63 486.56,114.53 486.61,114.43 486.66,114.33 486.66,114.23 486.71,114.13 486.76,114.03 486.81,113.93 486.95,113.83 487.00,113.73 487.00,113.63 487.00,113.53 487.05,113.43 487.10,113.33 487.10,113.23 487.30,113.13 487.35,113.03 487.35,112.93 487.40,112.83 487.75,112.73 487.80,112.63 487.85,112.53 487.90,112.43 488.04,112.33 488.09,112.23 488.09,112.13 488.14,112.03 488.24,111.93 488.24,111.83 488.29,111.73 488.29,111.63 488.34,111.53 488.34,111.43 488.39,111.33 488.49,111.23 488.49,111.13 488.53,111.03 488.58,110.92 488.63,110.82 488.73,110.72 488.73,110.62 488.78,110.52 488.97,110.42 488.97,110.32 489.12,110.22 489.12,110.12 489.17,110.02 489.22,109.92 489.27,109.82 489.31,109.72 489.36,109.62 489.51,109.52 489.56,109.42 489.65,109.32 489.89,109.22 489.99,109.12 489.99,109.02 489.99,108.92 489.99,108.82 490.18,108.72 490.23,108.62 490.42,108.52 490.42,108.42 490.47,108.32 490.57,108.22 490.61,108.12 490.76,108.02 490.85,107.92 490.85,107.82 490.95,107.72 491.09,107.62 491.09,107.52 491.14,107.42 491.19,107.32 491.28,107.22 491.38,107.12 491.42,107.02 491.42,106.92 491.47,106.82 491.57,106.72 491.57,106.62 491.57,106.51 491.66,106.41 491.71,106.31 491.75,106.21 491.75,106.11 491.80,106.01 491.90,105.91 491.90,105.81 491.90,105.71 491.94,105.61 492.04,105.51 492.13,105.41 492.22,105.31 492.32,105.21 492.60,105.11 492.74,105.01 492.93,104.91 493.02,104.81 493.02,104.71 493.07,104.61 493.07,104.51 493.11,104.41 493.11,104.31 493.25,104.21 493.30,104.11 493.30,104.01 493.30,103.91 493.39,103.81 493.44,103.71 493.53,103.61 493.53,103.51 493.58,103.41 493.58,103.31 493.67,103.21 493.81,103.11 493.85,103.01 493.85,102.91 493.90,102.81 494.17,102.71 494.17,102.61 494.36,102.51 494.45,102.41 494.54,102.31 494.54,102.21 494.54,102.10 494.54,102.00 494.54,101.90 494.68,101.80 494.77,101.70 494.86,101.60 495.13,101.50 495.13,101.40 495.32,101.30 495.36,101.20 495.41,101.10 495.41,101.00 495.45,100.90 495.50,100.80 495.72,100.70 495.95,100.60 496.08,100.50 496.17,100.40 496.35,100.30 496.40,100.20 496.58,100.10 496.58,100.00 496.58,99.90 496.71,99.80 496.75,99.70 496.98,99.60 497.20,99.50 497.20,99.40 497.24,99.30 497.33,99.20 497.33,99.10 497.38,99.00 497.47,98.90 497.55,98.80 497.60,98.70 497.64,98.60 497.64,98.50 497.69,98.40 497.82,98.30 497.86,98.20 498.21,98.10 498.39,98.00 498.57,97.90 498.65,97.79 498.83,97.69 498.87,97.59 498.91,97.49 499.09,97.39 499.26,97.29 499.26,97.19 499.43,97.09 499.52,96.99 499.56,96.89 499.61,96.79 499.61,96.69 499.65,96.59 499.74,96.49 499.74,96.39 499.78,96.29 500.43,96.19 500.51,96.09 500.64,95.99 500.72,95.89 501.02,95.79 501.02,95.69 501.06,95.59 501.28,95.49 501.36,95.39 501.45,95.29 501.66,95.19 501.74,95.09 502.12,94.99 502.46,94.89 502.58,94.79 502.58,94.69 502.62,94.59 502.62,94.49 502.67,94.39 502.71,94.29 502.87,94.19 503.04,94.09 503.08,93.99 503.08,93.89 503.37,93.79 503.41,93.69 503.50,93.59 503.54,93.49 503.95,93.38 503.99,93.28 504.16,93.18 504.28,93.08 504.36,92.98 504.65,92.88 504.73,92.78 504.93,92.68 505.01,92.58 505.01,92.48 505.18,92.38 505.22,92.28 505.22,92.18 505.62,92.08 505.78,91.98 506.02,91.88 506.06,91.78 506.10,91.68 506.59,91.58 506.63,91.48 506.66,91.38 506.78,91.28 506.90,91.18 506.94,91.08 507.30,90.98 507.34,90.88 507.46,90.78 507.46,90.68 507.58,90.58 508.01,90.48 508.05,90.38 508.13,90.28 508.25,90.18 508.29,90.08 508.56,89.98 508.64,89.88 508.72,89.78 508.83,89.68 508.99,89.58 509.11,89.48 509.34,89.38 509.61,89.28 509.65,89.18 510.03,89.08 510.03,88.97 510.11,88.87 510.26,88.77 510.61,88.67 510.80,88.57 510.91,88.47 510.91,88.37 510.99,88.27 511.22,88.17 511.25,88.07 511.33,87.97 511.44,87.87 511.56,87.77 511.59,87.67 511.63,87.57 511.63,87.47 511.71,87.37 512.01,87.27 512.12,87.17 512.23,87.07 512.35,86.97 512.38,86.87 512.46,86.77 512.50,86.67 512.61,86.57 512.87,86.47 512.91,86.37 513.02,86.27 513.02,86.17 513.24,86.07 513.35,85.97 513.50,85.87 513.54,85.77 514.24,85.67 514.27,85.57 514.38,85.47 515.22,85.37 515.69,85.27 515.87,85.17 515.91,85.07 516.30,84.97 516.34,84.87 516.41,84.77 516.69,84.67 516.84,84.56 516.91,84.46 517.05,84.36 517.26,84.26 517.30,84.16 517.40,84.06 517.44,83.96 517.65,83.86 517.65,83.76 517.72,83.66 518.35,83.56 518.63,83.46 518.74,83.36 518.74,83.26 519.09,83.16 519.15,83.06 519.29,82.96 519.64,82.86 519.85,82.76 520.26,82.66 520.26,82.56 520.33,82.46 520.50,82.36 520.87,82.26 521.11,82.16 521.25,82.06 521.41,81.96 521.52,81.86 521.55,81.76 521.79,81.66 522.09,81.56 522.12,81.46 522.29,81.36 522.42,81.26 522.52,81.16 523.06,81.06 523.06,80.96 523.09,80.86 523.12,80.76 523.19,80.66 523.29,80.56 523.55,80.46 523.75,80.36 524.08,80.26 524.11,80.15 524.11,80.05 524.44,79.95 524.57,79.85 524.64,79.75 525.32,79.65 525.77,79.55 525.87,79.45 526.06,79.35 526.31,79.25 526.79,79.15 526.98,79.05 527.21,78.95 527.30,78.85 527.90,78.75 528.09,78.65 528.43,78.55 528.50,78.45 528.75,78.35 529.12,78.25 529.46,78.15 529.52,78.05 529.71,77.95 529.83,77.85 530.38,77.75 530.69,77.65 530.90,77.55 531.17,77.45 531.26,77.35 531.78,77.25 532.17,77.15 532.35,77.05 532.70,76.95 532.73,76.85 532.94,76.75 533.24,76.65 534.00,76.55 534.03,76.45 534.18,76.35 534.30,76.25 535.05,76.15 535.37,76.05 535.78,75.95 536.26,75.85 538.08,75.74 538.10,75.64 538.27,75.54 539.33,75.44 539.33,75.34 539.96,75.24 540.62,75.14 540.73,75.04 541.03,74.94 541.57,74.84 541.65,74.74 541.81,74.64 541.86,74.54 543.06,74.44 543.14,74.34 543.33,74.24 543.46,74.14 543.51,74.04 543.70,73.94 544.01,73.84 544.41,73.74 545.75,73.64 545.78,73.54 546.47,73.44 546.57,73.34 546.73,73.24 546.83,73.14 546.85,73.04 548.31,72.94 548.39,72.84 548.76,72.74 549.33,72.64 549.43,72.54 549.60,72.44 550.34,72.34 550.73,72.24 551.38,72.14 551.41,72.04 551.77,71.94 552.13,71.84 552.18,71.74 552.46,71.64 552.70,71.54 552.87,71.44 554.00,71.33 554.05,71.23 554.07,71.13 554.30,71.03 555.16,70.93 555.21,70.83 555.53,70.73 555.70,70.63 556.41,70.53 556.59,70.43 556.61,70.33 556.66,70.23 557.45,70.13 557.47,70.03 558.52,69.93 558.55,69.83 559.54,69.73 559.85,69.63 560.88,69.53 560.99,69.43 561.40,69.33 563.30,69.23 563.55,69.13 563.82,69.03 564.45,68.93 565.83,68.83 566.33,68.73 567.70,68.63 568.32,68.53 570.16,68.43 572.57,68.33 572.87,68.23 573.01,68.13 573.06,68.03 577.15,67.93 577.55,67.83 579.13,67.73 581.30,67.63 587.30,67.53 598.72,67.43 599.86,67.33 600.75,67.23 602.55,67.13 602.82,67.03 610.97,66.92 615.47,66.82 622.98,66.72 631.67,66.62 638.13,66.52 642.31,66.42 642.85,66.32 644.26,66.22 653.45,66.12 654.29,66.02 657.96,65.92 659.92,65.82 661.62,65.72 666.20,65.62 666.20,65.52 668.13,65.42 668.85,65.32 672.25,65.22 672.63,65.12 673.08,65.02 674.69,64.92 677.64,64.82 678.70,64.72 681.34,64.62 685.11,64.52 687.25,64.42 688.10,64.32 688.70,64.22 690.04,64.12 690.17,64.02 690.57,63.92 691.02,63.82 691.54,63.72 693.97,63.62 695.30,63.52 696.04,63.42 696.60,63.32 696.68,63.22 698.69,63.12 699.50,63.02 699.50,62.92 701.51,62.82 701.88,62.72 705.36,62.62 705.77,62.51 705.92,62.41 705.97,62.31 706.11,62.21 706.28,62.11 707.41,62.01 707.85,61.91 707.96,61.81 708.33,61.71 708.69,61.61 711.03,61.51 713.19,61.41 713.57,61.31 713.88,61.21 714.75,61.11 715.06,61.01 717.01,60.91 717.59,60.81 717.90,60.71 718.98,60.61 719.77,60.51 721.76,60.41 723.18,60.31 725.36,60.21 726.77,60.11 727.33,60.01 731.58,59.91 733.09,59.81 734.45,59.71 741.89,59.61 745.74,59.51 755.09,59.41 755.26,59.31 760.82,59.21 762.63,59.11 763.67,59.01 765.16,58.91 767.96,58.81 768.97,58.71 773.14,58.61 779.61,58.51 781.34,58.41 782.40,58.31 783.50,58.21 788.48,58.10 788.72,58.00 788.75,57.90 788.75,57.80 789.51,57.70 789.82,57.60 794.42,57.50 800.34,57.40 802.93,57.30 806.39,57.20 809.95,57.10 810.23,57.00 812.69,56.90 813.32,56.80 814.00,56.70 815.84,56.60 817.70,56.50 820.00,56.40 820.44,56.30 824.36,56.20 825.79,56.10 826.00,56.00" fill="none" stroke="#2F6BFF" stroke-width="2.5"/><rect x="690" y="50" width="12" height="12" fill="#2F6BFF"/><text x="708.00" y="61.00" font-family="Inter, Arial, sans-serif" font-size="11" fill="#1F2933" text-anchor="start" font-weight="400">completed (n=3951)</text><polyline points="272.35,448.73 285.74,445.45 297.80,442.18 299.86,438.91 302.67,435.64 315.19,432.36 318.23,429.09 320.20,425.82 320.85,422.55 326.47,419.27 335.66,416.00 338.35,412.73 338.61,409.45 346.20,406.18 352.51,402.91 353.19,399.64 362.54,396.36 363.14,393.09 368.39,389.82 371.91,386.55 374.94,383.27 375.29,380.00 376.68,376.73 378.72,373.45 378.72,370.18 379.72,366.91 380.06,363.64 384.26,360.36 385.67,357.09 389.92,353.82 391.10,350.55 392.98,347.27 399.61,344.00 406.88,340.73 407.37,337.45 413.49,334.18 416.29,330.91 416.84,327.64 416.84,324.36 417.82,321.09 418.04,317.82 419.11,314.55 420.28,311.27 422.77,308.00 424.80,304.73 424.90,301.45 425.20,298.18 425.99,294.91 427.75,291.64 428.91,288.36 428.91,285.09 431.36,281.82 432.01,278.55 434.02,275.27 435.36,272.00 435.63,268.73 435.81,265.45 436.78,262.18 440.29,258.91 444.41,255.64 445.76,252.36 447.87,249.09 451.66,245.82 452.10,242.55 454.86,239.27 455.14,236.00 456.83,232.73 457.25,229.45 458.22,226.18 458.50,222.91 465.42,219.64 466.93,216.36 467.12,213.09 467.55,209.82 467.55,206.55 468.29,203.27 468.90,200.00 470.54,196.73 471.02,193.45 471.31,190.18 471.43,186.91 473.48,183.64 474.41,180.36 475.60,177.09 477.56,173.82 478.72,170.55 479.53,167.27 481.78,164.00 483.66,160.73 485.70,157.45 486.51,154.18 488.44,150.91 489.36,147.64 489.56,144.36 489.94,141.09 491.52,137.82 494.22,134.55 495.13,131.27 496.26,128.00 497.64,124.73 498.13,121.45 501.28,118.18 501.40,114.91 501.40,111.64 503.70,108.36 504.89,105.09 505.26,101.82 506.26,98.55 508.52,95.27 509.96,92.00 509.99,88.73 514.97,85.45 517.40,82.18 528.31,78.91 545.68,75.64 569.77,72.36 586.64,69.09 628.44,65.82 664.44,62.55 750.74,59.27 795.30,56.00" fill="none" stroke="#C43C39" stroke-width="2.5"/><rect x="690" y="70" width="12" height="12" fill="#C43C39"/><text x="708.00" y="81.00" font-family="Inter, Arial, sans-serif" font-size="11" fill="#1F2933" text-anchor="start" font-weight="400">timeout (n=121)</text><text x="452.00" y="498.00" font-family="Inter, Arial, sans-serif" font-size="12" fill="#1F2933" text-anchor="middle" font-weight="400">schema_json_chars (log)</text><text x="22.00" y="254.00" font-family="Inter, Arial, sans-serif" font-size="12" fill="#1F2933" text-anchor="middle" font-weight="400">ECDF</text></svg>
