<svg xmlns="http://www.w3.org/2000/svg" width="962" height="932" viewBox="0 0 962 932" role="img" aria-label="Local combination OVER-rate heatmap"><rect width="100%" height="100%" fill="#FFFFFF"/><text x="24.00" y="30.00" font-family="Inter, Arial, sans-serif" font-size="17" fill="#1F2933" text-anchor="start" font-weight="700">Local combination OVER-rate heatmap</text><text x="171.00" y="60.00" font-family="Inter, Arial, sans-serif" font-size="10" fill="#1F2933" text-anchor="middle" font-weight="400">OVER_lift_proxy</text><text x="140.00" y="95.00" font-family="Inter, Arial, sans-serif" font-size="10" fill="#1F2933" text-anchor="end" font-weight="400">OVER_lift_proxy</text><text x="213.00" y="60.00" font-family="Inter, Arial, sans-serif" font-size="10" fill="#1F2933" text-anchor="middle" font-weight="400">same_node_allOf_and_properties</text><text x="140.00" y="137.00" font-family="Inter, Arial, sans-serif" font-size="10" fill="#1F2933" text-anchor="end" font-weight="400">same_node_allOf_and_properties</text><text x="255.00" y="60.00" font-family="Inter, Arial, sans-serif" font-size="10" fill="#1F2933" text-anchor="middle" font-weight="400">same_node_allOf_and_required</text><text x="140.00" y="179.00" font-family="Inter, Arial, sans-serif" font-size="10" fill="#1F2933" text-anchor="end" font-weight="400">same_node_allOf_and_required</text><text x="297.00" y="60.00" font-family="Inter, Arial, sans-serif" font-size="10" fill="#1F2933" text-anchor="middle" font-weight="400">same_node_combinator_and_numeric</text><text x="140.00" y="221.00" font-family="Inter, Arial, sans-serif" font-size="10" fill="#1F2933" text-anchor="end" font-weight="400">same_node_combinator_and_numeric</text><text x="339.00" y="60.00" font-family="Inter, Arial, sans-serif" font-size="10" fill="#1F2933" text-anchor="middle" font-weight="400">same_node_combinator_and_patternProperties</text><text x="140.00" y="263.00" font-family="Inter, Arial, sans-serif" font-size="10" fill="#1F2933" text-anchor="end" font-weight="400">same_node_combinator_and_patternProperties</text><text x="381.00" y="60.00" font-family="Inter, Arial, sans-serif" font-size="10" fill="#1F2933" text-anchor="middle" font-weight="400">same_node_combinator_and_properties</text><text x="140.00" y="305.00" font-family="Inter, Arial, sans-serif" font-size="10" fill="#1F2933" text-anchor="end" font-weight="400">same_node_combinator_and_properties</text><text x="423.00" y="60.00" font-family="Inter, Arial, sans-serif" font-size="10" fill="#1F2933" text-anchor="middle" font-weight="400">same_node_combinator_and_required</text><text x="140.00" y="347.00" font-family="Inter, Arial, sans-serif" font-size="10" fill="#1F2933" text-anchor="end" font-weight="400">same_node_combinator_and_required</text><text x="465.00" y="60.00" font-family="Inter, Arial, sans-serif" font-size="10" fill="#1F2933" text-anchor="middle" font-weight="400">same_node_minProperties_and_required</text><text x="140.00" y="389.00" font-family="Inter, Arial, sans-serif" font-size="10" fill="#1F2933" text-anchor="end" font-weight="400">same_node_minProperties_and_required</text><text x="507.00" y="60.00" font-family="Inter, Arial, sans-serif" font-size="10" fill="#1F2933" text-anchor="middle" font-weight="400">same_node_not_and_pattern</text><text x="140.00" y="431.00" font-family="Inter, Arial, sans-serif" font-size="10" fill="#1F2933" text-anchor="end" font-weight="400">same_node_not_and_pattern</text><text x="549.00" y="60.00" font-family="Inter, Arial, sans-serif" font-size="10" fill="#1F2933" text-anchor="middle" font-weight="400">same_node_not_and_properties</text><text x="140.00" y="473.00" font-family="Inter, Arial, sans-serif" font-size="10" fill="#1F2933" text-anchor="end" font-weight="400">same_node_not_and_properties</text><text x="591.00" y="60.00" font-family="Inter, Arial, sans-serif" font-size="10" fill="#1F2933" text-anchor="middle" font-weight="400">same_node_not_and_required</text><text x="140.00" y="515.00" font-family="Inter, Arial, sans-serif" font-size="10" fill="#1F2933" text-anchor="end" font-weight="400">same_node_not_and_required</text><text x="633.00" y="60.00" font-family="Inter, Arial, sans-serif" font-size="10" fill="#1F2933" text-anchor="middle" font-weight="400">same_node_not_and_type</text><text x="140.00" y="557.00" font-family="Inter, Arial, sans-serif" font-size="10" fill="#1F2933" text-anchor="end" font-weight="400">same_node_not_and_type</text><text x="675.00" y="60.00" font-family="Inter, Arial, sans-serif" font-size="10" fill="#1F2933" text-anchor="middle" font-weight="400">same_node_oneOf_and_required</text><text x="140.00" y="599.00" font-family="Inter, Arial, sans-serif" font-size="10" fill="#1F2933" text-anchor="end" font-weight="400">same_node_oneOf_and_required</text><text x="717.00" y="60.00" font-family="Inter, Arial, sans-serif" font-size="10" fill="#1F2933" text-anchor="middle" font-weight="400">same_node_patternProperties_and_additionalProperties</text><text x="140.00" y="641.00" font-family="Inter, Arial, sans-serif" font-size="10" fill="#1F2933" text-anchor="end" font-weight="400">same_node_patternProperties_and_additionalProperties</text><text x="759.00" y="60.00" font-family="Inter, Arial, sans-serif" font-size="10" fill="#1F2933" text-anchor="middle" font-weight="400">same_node_properties_and_additionalProperties</text><text x="140.00" y="683.00" font-family="Inter, Arial, sans-serif" font-size="10" fill="#1F2933" text-anchor="end" font-weight="400">same_node_properties_and_additionalProperties</text><text x="801.00" y="60.00" font-family="Inter, Arial, sans-serif" font-size="10" fill="#1F2933" text-anchor="middle" font-weight="400">same_node_properties_and_patternProperties</text><text x="140.00" y="725.00" font-family="Inter, Arial, sans-serif" font-size="10" fill="#1F2933" text-anchor="end" font-weight="400">same_node_properties_and_patternProperties</text><text x="843.00" y="60.00" font-family="Inter, Arial, sans-serif" font-size="10" fill="#1F2933" text-anchor="middle" font-weight="400">same_node_properties_and_required</text><text x="140.00" y="767.00" font-family="Inter, Arial, sans-serif" font-size="10" fill="#1F2933" text-anchor="end" font-weight="400">same_node_properties_and_required</text><rect x="150" y="70" width="40" height="40" fill="#2F6BFF" opacity="0.080"/><rect x="192" y="70" width="40" height="40" fill="#2F6BFF" opacity="0.577"/><text x="213.00" y="95.00" font-family="Inter, Arial, sans-serif" font-size="9" fill="#1F2933" text-anchor="middle" font-weight="400">0</text><rect x="234" y="70" width="40" height="40" fill="#2F6BFF" opacity="0.581"/><text x="255.00" y="95.00" font-family="Inter, Arial, sans-serif" font-size="9" fill="#1F2933" text-anchor="middle" font-weight="400">0</text><rect x="276" y="70" width="40" height="40" fill="#2F6BFF" opacity="0.763"/><text x="297.00" y="95.00" font-family="Inter, Arial, sans-serif" font-size="9" fill="#1F2933" text-anchor="middle" font-weight="400">0</text><rect x="318" y="70" width="40" height="40" fill="#2F6BFF" opacity="0.666"/><text x="339.00" y="95.00" font-family="Inter, Arial, sans-serif" font-size="9" fill="#1F2933" text-anchor="middle" font-weight="400">0</text><rect x="360" y="70" width="40" height="40" fill="#2F6BFF" opacity="0.607"/><text x="381.00" y="95.00" font-family="Inter, Arial, sans-serif" font-size="9" fill="#1F2933" text-anchor="middle" font-weight="400">0</text><rect x="402" y="70" width="40" height="40" fill="#2F6BFF" opacity="0.588"/><text x="423.00" y="95.00" font-family="Inter, Arial, sans-serif" font-size="9" fill="#1F2933" text-anchor="middle" font-weight="400">0</text><rect x="444" y="70" width="40" height="40" fill="#2F6BFF" opacity="0.666"/><text x="465.00" y="95.00" font-family="Inter, Arial, sans-serif" font-size="9" fill="#1F2933" text-anchor="middle" font-weight="400">0</text><rect x="486" y="70" width="40" height="40" fill="#2F6BFF" opacity="0.900"/><text x="507.00" y="95.00" font-family="Inter, Arial, sans-serif" font-size="9" fill="#1F2933" text-anchor="middle" font-weight="400">0</text><rect x="528" y="70" width="40" height="40" fill="#2F6BFF" opacity="0.504"/><text x="549.00" y="95.00" font-family="Inter, Arial, sans-serif" font-size="9" fill="#1F2933" text-anchor="middle" font-weight="400">0</text><rect x="570" y="70" width="40" height="40" fill="#2F6BFF" opacity="0.558"/><text x="591.00" y="95.00" font-family="Inter, Arial, sans-serif" font-size="9" fill="#1F2933" text-anchor="middle" font-weight="400">0</text><rect x="612" y="70" width="40" height="40" fill="#2F6BFF" opacity="0.579"/><text x="633.00" y="95.00" font-family="Inter, Arial, sans-serif" font-size="9" fill="#1F2933" text-anchor="middle" font-weight="400">0</text><rect x="654" y="70" width="40" height="40" fill="#2F6BFF" opacity="0.656"/><text x="675.00" y="95.00" font-family="Inter, Arial, sans-serif" font-size="9" fill="#1F2933" text-anchor="middle" font-weight="400">0</text><rect x="696" y="70" width="40" height="40" fill="#2F6BFF" opacity="0.728"/><text x="717.00" y="95.00" font-family="Inter, Arial, sans-serif" font-size="9" fill="#1F2933" text-anchor="middle" font-weight="400">0</text><rect x="738" y="70" width="40" height="40" fill="#2F6BFF" opacity="0.489"/><text x="759.00" y="95.00" font-family="Inter, Arial, sans-serif" font-size="9" fill="#1F2933" text-anchor="middle" font-weight="400">0</text><rect x="780" y="70" width="40" height="40" fill="#2F6BFF" opacity="0.774"/><text x="801.00" y="95.00" font-family="Inter, Arial, sans-serif" font-size="9" fill="#1F2933" text-anchor="middle" font-weight="400">0</text><rect x="822" y="70" width="40" height="40" fill="#2F6BFF" opacity="0.507"/><text x="843.00" y="95.00" font-family="Inter, Arial, sans-serif" font-size="9" fill="#1F2933" text-anchor="middle" font-weight="400">0</text><rect x="150" y="112" width="40" height="40" fill="#2F6BFF" opacity="0.577"/><text x="171.00" y="137.00" font-family="Inter, Arial, sans-serif" font-size="9" fill="#1F2933" text-anchor="middle" font-weight="400">0</text><rect x="192" y="112" width="40" height="40" fill="#2F6BFF" opacity="0.080"/><rect x="234" y="112" width="40" height="40" fill="#2F6BFF" opacity="0.080"/><rect x="276" y="112" width="40" height="40" fill="#2F6BFF" opacity="0.080"/><rect x="318" y="112" width="40" height="40" fill="#2F6BFF" opacity="0.080"/><rect x="360" y="112" width="40" height="40" fill="#2F6BFF" opacity="0.080"/><rect x="402" y="112" width="40" height="40" fill="#2F6BFF" opacity="0.080"/><rect x="444" y="112" width="40" height="40" fill="#2F6BFF" opacity="0.080"/><rect x="486" y="112" width="40" height="40" fill="#2F6BFF" opacity="0.080"/><rect x="528" y="112" width="40" height="40" fill="#2F6BFF" opacity="0.080"/><rect x="570" y="112" width="40" height="40" fill="#2F6BFF" opacity="0.080"/><rect x="612" y="112" width="40" height="40" fill="#2F6BFF" opacity="0.080"/><rect x="654" y="112" width="40" height="40" fill="#2F6BFF" opacity="0.080"/><rect x="696" y="112" width="40" height="40" fill="#2F6BFF" opacity="0.080"/><rect x="738" y="112" width="40" height="40" fill="#2F6BFF" opacity="0.080"/><rect x="780" y="112" width="40" height="40" fill="#2F6BFF" opacity="0.080"/><rect x="822" y="112" width="40" height="40" fill="#2F6BFF" opacity="0.080"/><rect x="150" y="154" width="40" height="40" fill="#2F6BFF" opacity="0.581"/><text x="171.00" y="179.00" font-family="Inter, Arial, sans-serif" font-size="9" fill="#1F2933" text-anchor="middle" font-weight="400">0</text><rect x="192" y="154" width="40" height="40" fill="#2F6BFF" opacity="0.080"/><rect x="234" y="154" width="40" height="40" fill="#2F6BFF" opacity="0.080"/><rect x="276" y="154" width="40" height="40" fill="#2F6BFF" opacity="0.080"/><rect x="318" y="154" width="40" height="40" fill="#2F6BFF" opacity="0.080"/><rect x="360" y="154" width="40" height="40" fill="#2F6BFF" opacity="0.080"/><rect x="402" y="154" width="40" height="40" fill="#2F6BFF" opacity="0.080"/><rect x="444" y="154" width="40" height="40" fill="#2F6BFF" opacity="0.080"/><rect x="486" y="154" width="40" height="40" fill="#2F6BFF" opacity="0.080"/><rect x="528" y="154" width="40" height="40" fill="#2F6BFF" opacity="0.080"/><rect x="570" y="154" width="40" height="40" fill="#2F6BFF" opacity="0.080"/><rect x="612" y="154" width="40" height="40" fill="#2F6BFF" opacity="0.080"/><rect x="654" y="154" width="40" height="40" fill="#2F6BFF" opacity="0.080"/><rect x="696" y="154" width="40" height="40" fill="#2F6BFF" opacity="0.080"/><rect x="738" y="154" width="40" height="40" fill="#2F6BFF" opacity="0.080"/><rect x="780" y="154" width="40" height="40" fill="#2F6BFF" opacity="0.080"/><rect x="822" y="154" width="40" height="40" fill="#2F6BFF" opacity="0.080"/><rect x="150" y="196" width="40" height="40" fill="#2F6BFF" opacity="0.763"/><text x="171.00" y="221.00" font-family="Inter, Arial, sans-serif" font-size="9" fill="#1F2933" text-anchor="middle" font-weight="400">0</text><rect x="192" y="196" width="40" height="40" fill="#2F6BFF" opacity="0.080"/><rect x="234" y="196" width="40" height="40" fill="#2F6BFF" opacity="0.080"/><rect x="276" y="196" width="40" height="40" fill="#2F6BFF" opacity="0.080"/><rect x="318" y="196" width="40" height="40" fill="#2F6BFF" opacity="0.080"/><rect x="360" y="196" width="40" height="40" fill="#2F6BFF" opacity="0.080"/><rect x="402" y="196" width="40" height="40" fill="#2F6BFF" opacity="0.080"/><rect x="444" y="196" width="40" height="40" fill="#2F6BFF" opacity="0.080"/><rect x="486" y="196" width="40" height="40" fill="#2F6BFF" opacity="0.080"/><rect x="528" y="196" width="40" height="40" fill="#2F6BFF" opacity="0.080"/><rect x="570" y="196" width="40" height="40" fill="#2F6BFF" opacity="0.080"/><rect x="612" y="196" width="40" height="40" fill="#2F6BFF" opacity="0.080"/><rect x="654" y="196" width="40" height="40" fill="#2F6BFF" opacity="0.080"/><rect x="696" y="196" width="40" height="40" fill="#2F6BFF" opacity="0.080"/><rect x="738" y="196" width="40" height="40" fill="#2F6BFF" opacity="0.080"/><rect x="780" y="196" width="40" height="40" fill="#2F6BFF" opacity="0.080"/><rect x="822" y="196" width="40" height="40" fill="#2F6BFF" opacity="0.080"/><rect x="150" y="238" width="40" height="40" fill="#2F6BFF" opacity="0.666"/><text x="171.00" y="263.00" font-family="Inter, Arial, sans-serif" font-size="9" fill="#1F2933" text-anchor="middle" font-weight="400">0</text><rect x="192" y="238" width="40" height="40" fill="#2F6BFF" opacity="0.080"/><rect x="234" y="238" width="40" height="40" fill="#2F6BFF" opacity="0.080"/><rect x="276" y="238" width="40" height="40" fill="#2F6BFF" opacity="0.080"/><rect x="318" y="238" width="40" height="40" fill="#2F6BFF" opacity="0.080"/><rect x="360" y="238" width="40" height="40" fill="#2F6BFF" opacity="0.080"/><rect x="402" y="238" width="40" height="40" fill="#2F6BFF" opacity="0.080"/><rect x="444" y="238" width="40" height="40" fill="#2F6BFF" opacity="0.080"/><rect x="486" y="238" width="40" height="40" fill="#2F6BFF" opacity="0.080"/><rect x="528" y="238" width="40" height="40" fill="#2F6BFF" opacity="0.080"/><rect x="570" y="238" width="40" height="40" fill="#2F6BFF" opacity="0.080"/><rect x="612" y="238" width="40" height="40" fill="#2F6BFF" opacity="0.080"/><rect x="654" y="238" width="40" height="40" fill="#2F6BFF" opacity="0.080"/><rect x="696" y="238" width="40" height="40" fill="#2F6BFF" opacity="0.080"/><rect x="738" y="238" width="40" height="40" fill="#2F6BFF" opacity="0.080"/><rect x="780" y="238" width="40" height="40" fill="#2F6BFF" opacity="0.080"/><rect x="822" y="238" width="40" height="40" fill="#2F6BFF" opacity="0.080"/><rect x="150" y="280" width="40" height="40" fill="#2F6BFF" opacity="0.607"/><text x="171.00" y="305.00" font-family="Inter, Arial, sans-serif" font-size="9" fill="#1F2933" text-anchor="middle" font-weight="400">0</text><rect x="192" y="280" width="40" height="40" fill="#2F6BFF" opacity="0.080"/><rect x="234" y="280" width="40" height="40" fill="#2F6BFF" opacity="0.080"/><rect x="276" y="280" width="40" height="40" fill="#2F6BFF" opacity="0.080"/><rect x="318" y="280" width="40" height="40" fill="#2F6BFF" opacity="0.080"/><rect x="360" y="280" width="40" height="40" fill="#2F6BFF" opacity="0.080"/><rect x="402" y="280" width="40" height="40" fill="#2F6BFF" opacity="0.080"/><rect x="444" y="280" width="40" height="40" fill="#2F6BFF" opacity="0.080"/><rect x="486" y="280" width="40" height="40" fill="#2F6BFF" opacity="0.080"/><rect x="528" y="280" width="40" height="40" fill="#2F6BFF" opacity="0.080"/><rect x="570" y="280" width="40" height="40" fill="#2F6BFF" opacity="0.080"/><rect x="612" y="280" width="40" height="40" fill="#2F6BFF" opacity="0.080"/><rect x="654" y="280" width="40" height="40" fill="#2F6BFF" opacity="0.080"/><rect x="696" y="280" width="40" height="40" fill="#2F6BFF" opacity="0.080"/><rect x="738" y="280" width="40" height="40" fill="#2F6BFF" opacity="0.080"/><rect x="780" y="280" width="40" height="40" fill="#2F6BFF" opacity="0.080"/><rect x="822" y="280" width="40" height="40" fill="#2F6BFF" opacity="0.080"/><rect x="150" y="322" width="40" height="40" fill="#2F6BFF" opacity="0.588"/><text x="171.00" y="347.00" font-family="Inter, Arial, sans-serif" font-size="9" fill="#1F2933" text-anchor="middle" font-weight="400">0</text><rect x="192" y="322" width="40" height="40" fill="#2F6BFF" opacity="0.080"/><rect x="234" y="322" width="40" height="40" fill="#2F6BFF" opacity="0.080"/><rect x="276" y="322" width="40" height="40" fill="#2F6BFF" opacity="0.080"/><rect x="318" y="322" width="40" height="40" fill="#2F6BFF" opacity="0.080"/><rect x="360" y="322" width="40" height="40" fill="#2F6BFF" opacity="0.080"/><rect x="402" y="322" width="40" height="40" fill="#2F6BFF" opacity="0.080"/><rect x="444" y="322" width="40" height="40" fill="#2F6BFF" opacity="0.080"/><rect x="486" y="322" width="40" height="40" fill="#2F6BFF" opacity="0.080"/><rect x="528" y="322" width="40" height="40" fill="#2F6BFF" opacity="0.080"/><rect x="570" y="322" width="40" height="40" fill="#2F6BFF" opacity="0.080"/><rect x="612" y="322" width="40" height="40" fill="#2F6BFF" opacity="0.080"/><rect x="654" y="322" width="40" height="40" fill="#2F6BFF" opacity="0.080"/><rect x="696" y="322" width="40" height="40" fill="#2F6BFF" opacity="0.080"/><rect x="738" y="322" width="40" height="40" fill="#2F6BFF" opacity="0.080"/><rect x="780" y="322" width="40" height="40" fill="#2F6BFF" opacity="0.080"/><rect x="822" y="322" width="40" height="40" fill="#2F6BFF" opacity="0.080"/><rect x="150" y="364" width="40" height="40" fill="#2F6BFF" opacity="0.666"/><text x="171.00" y="389.00" font-family="Inter, Arial, sans-serif" font-size="9" fill="#1F2933" text-anchor="middle" font-weight="400">0</text><rect x="192" y="364" width="40" height="40" fill="#2F6BFF" opacity="0.080"/><rect x="234" y="364" width="40" height="40" fill="#2F6BFF" opacity="0.080"/><rect x="276" y="364" width="40" height="40" fill="#2F6BFF" opacity="0.080"/><rect x="318" y="364" width="40" height="40" fill="#2F6BFF" opacity="0.080"/><rect x="360" y="364" width="40" height="40" fill="#2F6BFF" opacity="0.080"/><rect x="402" y="364" width="40" height="40" fill="#2F6BFF" opacity="0.080"/><rect x="444" y="364" width="40" height="40" fill="#2F6BFF" opacity="0.080"/><rect x="486" y="364" width="40" height="40" fill="#2F6BFF" opacity="0.080"/><rect x="528" y="364" width="40" height="40" fill="#2F6BFF" opacity="0.080"/><rect x="570" y="364" width="40" height="40" fill="#2F6BFF" opacity="0.080"/><rect x="612" y="364" width="40" height="40" fill="#2F6BFF" opacity="0.080"/><rect x="654" y="364" width="40" height="40" fill="#2F6BFF" opacity="0.080"/><rect x="696" y="364" width="40" height="40" fill="#2F6BFF" opacity="0.080"/><rect x="738" y="364" width="40" height="40" fill="#2F6BFF" opacity="0.080"/><rect x="780" y="364" width="40" height="40" fill="#2F6BFF" opacity="0.080"/><rect x="822" y="364" width="40" height="40" fill="#2F6BFF" opacity="0.080"/><rect x="150" y="406" width="40" height="40" fill="#2F6BFF" opacity="0.900"/><text x="171.00" y="431.00" font-family="Inter, Arial, sans-serif" font-size="9" fill="#1F2933" text-anchor="middle" font-weight="400">0</text><rect x="192" y="406" width="40" height="40" fill="#2F6BFF" opacity="0.080"/><rect x="234" y="406" width="40" height="40" fill="#2F6BFF" opacity="0.080"/><rect x="276" y="406" width="40" height="40" fill="#2F6BFF" opacity="0.080"/><rect x="318" y="406" width="40" height="40" fill="#2F6BFF" opacity="0.080"/><rect x="360" y="406" width="40" height="40" fill="#2F6BFF" opacity="0.080"/><rect x="402" y="406" width="40" height="40" fill="#2F6BFF" opacity="0.080"/><rect x="444" y="406" width="40" height="40" fill="#2F6BFF" opacity="0.080"/><rect x="486" y="406" width="40" height="40" fill="#2F6BFF" opacity="0.080"/><rect x="528" y="406" width="40" height="40" fill="#2F6BFF" opacity="0.080"/><rect x="570" y="406" width="40" height="40" fill="#2F6BFF" opacity="0.080"/><rect x="612" y="406" width="40" height="40" fill="#2F6BFF" opacity="0.080"/><rect x="654" y="406" width="40" height="40" fill="#2F6BFF" opacity="0.080"/><rect x="696" y="406" width="40" height="40" fill="#2F6BFF" opacity="0.080"/><rect x="738" y="406" width="40" height="40" fill="#2F6BFF" opacity="0.080"/><rect x="780" y="406" width="40" height="40" fill="#2F6BFF" opacity="0.080"/><rect x="822" y="406" width="40" height="40" fill="#2F6BFF" opacity="0.080"/><rect x="150" y="448" width="40" height="40" fill="#2F6BFF" opacity="0.504"/><text x="171.00" y="473.00" font-family="Inter, Arial, sans-serif" font-size="9" fill="#1F2933" text-anchor="middle" font-weight="400">0</text><rect x="192" y="448" width="40" height="40" fill="#2F6BFF" opacity="0.080"/><rect x="234" y="448" width="40" height="40" fill="#2F6BFF" opacity="0.080"/><rect x="276" y="448" width="40" height="40" fill="#2F6BFF" opacity="0.080"/><rect x="318" y="448" width="40" height="40" fill="#2F6BFF" opacity="0.080"/><rect x="360" y="448" width="40" height="40" fill="#2F6BFF" opacity="0.080"/><rect x="402" y="448" width="40" height="40" fill="#2F6BFF" opacity="0.080"/><rect x="444" y="448" width="40" height="40" fill="#2F6BFF" opacity="0.080"/><rect x="486" y="448" width="40" height="40" fill="#2F6BFF" opacity="0.080"/><rect x="528" y="448" width="40" height="40" fill="#2F6BFF" opacity="0.080"/><rect x="570" y="448" width="40" height="40" fill="#2F6BFF" opacity="0.080"/><rect x="612" y="448" width="40" height="40" fill="#2F6BFF" opacity="0.080"/><rect x="654" y="448" width="40" height="40" fill="#2F6BFF" opacity="0.080"/><rect x="696" y="448" width="40" height="40" fill="#2F6BFF" opacity="0.080"/><rect x="738" y="448" width="40" height="40" fill="#2F6BFF" opacity="0.080"/><rect x="780" y="448" width="40" height="40" fill="#2F6BFF" opacity="0.080"/><rect x="822" y="448" width="40" height="40" fill="#2F6BFF" opacity="0.080"/><rect x="150" y="490" width="40" height="40" fill="#2F6BFF" opacity="0.558"/><text x="171.00" y="515.00" font-family="Inter, Arial, sans-serif" font-size="9" fill="#1F2933" text-anchor="middle" font-weight="400">0</text><rect x="192" y="490" width="40" height="40" fill="#2F6BFF" opacity="0.080"/><rect x="234" y="490" width="40" height="40" fill="#2F6BFF" opacity="0.080"/><rect x="276" y="490" width="40" height="40" fill="#2F6BFF" opacity="0.080"/><rect x="318" y="490" width="40" height="40" fill="#2F6BFF" opacity="0.080"/><rect x="360" y="490" width="40" height="40" fill="#2F6BFF" opacity="0.080"/><rect x="402" y="490" width="40" height="40" fill="#2F6BFF" opacity="0.080"/><rect x="444" y="490" width="40" height="40" fill="#2F6BFF" opacity="0.080"/><rect x="486" y="490" width="40" height="40" fill="#2F6BFF" opacity="0.080"/><rect x="528" y="490" width="40" height="40" fill="#2F6BFF" opacity="0.080"/><rect x="570" y="490" width="40" height="40" fill="#2F6BFF" opacity="0.080"/><rect x="612" y="490" width="40" height="40" fill="#2F6BFF" opacity="0.080"/><rect x="654" y="490" width="40" height="40" fill="#2F6BFF" opacity="0.080"/><rect x="696" y="490" width="40" height="40" fill="#2F6BFF" opacity="0.080"/><rect x="738" y="490" width="40" height="40" fill="#2F6BFF" opacity="0.080"/><rect x="780" y="490" width="40" height="40" fill="#2F6BFF" opacity="0.080"/><rect x="822" y="490" width="40" height="40" fill="#2F6BFF" opacity="0.080"/><rect x="150" y="532" width="40" height="40" fill="#2F6BFF" opacity="0.579"/><text x="171.00" y="557.00" font-family="Inter, Arial, sans-serif" font-size="9" fill="#1F2933" text-anchor="middle" font-weight="400">0</text><rect x="192" y="532" width="40" height="40" fill="#2F6BFF" opacity="0.080"/><rect x="234" y="532" width="40" height="40" fill="#2F6BFF" opacity="0.080"/><rect x="276" y="532" width="40" height="40" fill="#2F6BFF" opacity="0.080"/><rect x="318" y="532" width="40" height="40" fill="#2F6BFF" opacity="0.080"/><rect x="360" y="532" width="40" height="40" fill="#2F6BFF" opacity="0.080"/><rect x="402" y="532" width="40" height="40" fill="#2F6BFF" opacity="0.080"/><rect x="444" y="532" width="40" height="40" fill="#2F6BFF" opacity="0.080"/><rect x="486" y="532" width="40" height="40" fill="#2F6BFF" opacity="0.080"/><rect x="528" y="532" width="40" height="40" fill="#2F6BFF" opacity="0.080"/><rect x="570" y="532" width="40" height="40" fill="#2F6BFF" opacity="0.080"/><rect x="612" y="532" width="40" height="40" fill="#2F6BFF" opacity="0.080"/><rect x="654" y="532" width="40" height="40" fill="#2F6BFF" opacity="0.080"/><rect x="696" y="532" width="40" height="40" fill="#2F6BFF" opacity="0.080"/><rect x="738" y="532" width="40" height="40" fill="#2F6BFF" opacity="0.080"/><rect x="780" y="532" width="40" height="40" fill="#2F6BFF" opacity="0.080"/><rect x="822" y="532" width="40" height="40" fill="#2F6BFF" opacity="0.080"/><rect x="150" y="574" width="40" height="40" fill="#2F6BFF" opacity="0.656"/><text x="171.00" y="599.00" font-family="Inter, Arial, sans-serif" font-size="9" fill="#1F2933" text-anchor="middle" font-weight="400">0</text><rect x="192" y="574" width="40" height="40" fill="#2F6BFF" opacity="0.080"/><rect x="234" y="574" width="40" height="40" fill="#2F6BFF" opacity="0.080"/><rect x="276" y="574" width="40" height="40" fill="#2F6BFF" opacity="0.080"/><rect x="318" y="574" width="40" height="40" fill="#2F6BFF" opacity="0.080"/><rect x="360" y="574" width="40" height="40" fill="#2F6BFF" opacity="0.080"/><rect x="402" y="574" width="40" height="40" fill="#2F6BFF" opacity="0.080"/><rect x="444" y="574" width="40" height="40" fill="#2F6BFF" opacity="0.080"/><rect x="486" y="574" width="40" height="40" fill="#2F6BFF" opacity="0.080"/><rect x="528" y="574" width="40" height="40" fill="#2F6BFF" opacity="0.080"/><rect x="570" y="574" width="40" height="40" fill="#2F6BFF" opacity="0.080"/><rect x="612" y="574" width="40" height="40" fill="#2F6BFF" opacity="0.080"/><rect x="654" y="574" width="40" height="40" fill="#2F6BFF" opacity="0.080"/><rect x="696" y="574" width="40" height="40" fill="#2F6BFF" opacity="0.080"/><rect x="738" y="574" width="40" height="40" fill="#2F6BFF" opacity="0.080"/><rect x="780" y="574" width="40" height="40" fill="#2F6BFF" opacity="0.080"/><rect x="822" y="574" width="40" height="40" fill="#2F6BFF" opacity="0.080"/><rect x="150" y="616" width="40" height="40" fill="#2F6BFF" opacity="0.728"/><text x="171.00" y="641.00" font-family="Inter, Arial, sans-serif" font-size="9" fill="#1F2933" text-anchor="middle" font-weight="400">0</text><rect x="192" y="616" width="40" height="40" fill="#2F6BFF" opacity="0.080"/><rect x="234" y="616" width="40" height="40" fill="#2F6BFF" opacity="0.080"/><rect x="276" y="616" width="40" height="40" fill="#2F6BFF" opacity="0.080"/><rect x="318" y="616" width="40" height="40" fill="#2F6BFF" opacity="0.080"/><rect x="360" y="616" width="40" height="40" fill="#2F6BFF" opacity="0.080"/><rect x="402" y="616" width="40" height="40" fill="#2F6BFF" opacity="0.080"/><rect x="444" y="616" width="40" height="40" fill="#2F6BFF" opacity="0.080"/><rect x="486" y="616" width="40" height="40" fill="#2F6BFF" opacity="0.080"/><rect x="528" y="616" width="40" height="40" fill="#2F6BFF" opacity="0.080"/><rect x="570" y="616" width="40" height="40" fill="#2F6BFF" opacity="0.080"/><rect x="612" y="616" width="40" height="40" fill="#2F6BFF" opacity="0.080"/><rect x="654" y="616" width="40" height="40" fill="#2F6BFF" opacity="0.080"/><rect x="696" y="616" width="40" height="40" fill="#2F6BFF" opacity="0.080"/><rect x="738" y="616" width="40" height="40" fill="#2F6BFF" opacity="0.080"/><rect x="780" y="616" width="40" height="40" fill="#2F6BFF" opacity="0.080"/><rect x="822" y="616" width="40" height="40" fill="#2F6BFF" opacity="0.080"/><rect x="150" y="658" width="40" height="40" fill="#2F6BFF" opacity="0.489"/><text x="171.00" y="683.00" font-family="Inter, Arial, sans-serif" font-size="9" fill="#1F2933" text-anchor="middle" font-weight="400">0</text><rect x="192" y="658" width="40" height="40" fill="#2F6BFF" opacity="0.080"/><rect x="234" y="658" width="40" height="40" fill="#2F6BFF" opacity="0.080"/><rect x="276" y="658" width="40" height="40" fill="#2F6BFF" opacity="0.080"/><rect x="318" y="658" width="40" height="40" fill="#2F6BFF" opacity="0.080"/><rect x="360" y="658" width="40" height="40" fill="#2F6BFF" opacity="0.080"/><rect x="402" y="658" width="40" height="40" fill="#2F6BFF" opacity="0.080"/><rect x="444" y="658" width="40" height="40" fill="#2F6BFF" opacity="0.080"/><rect x="486" y="658" width="40" height="40" fill="#2F6BFF" opacity="0.080"/><rect x="528" y="658" width="40" height="40" fill="#2F6BFF" opacity="0.080"/><rect x="570" y="658" width="40" height="40" fill="#2F6BFF" opacity="0.080"/><rect x="612" y="658" width="40" height="40" fill="#2F6BFF" opacity="0.080"/><rect x="654" y="658" width="40" height="40" fill="#2F6BFF" opacity="0.080"/><rect x="696" y="658" width="40" height="40" fill="#2F6BFF" opacity="0.080"/><rect x="738" y="658" width="40" height="40" fill="#2F6BFF" opacity="0.080"/><rect x="780" y="658" width="40" height="40" fill="#2F6BFF" opacity="0.080"/><rect x="822" y="658" width="40" height="40" fill="#2F6BFF" opacity="0.080"/><rect x="150" y="700" width="40" height="40" fill="#2F6BFF" opacity="0.774"/><text x="171.00" y="725.00" font-family="Inter, Arial, sans-serif" font-size="9" fill="#1F2933" text-anchor="middle" font-weight="400">0</text><rect x="192" y="700" width="40" height="40" fill="#2F6BFF" opacity="0.080"/><rect x="234" y="700" width="40" height="40" fill="#2F6BFF" opacity="0.080"/><rect x="276" y="700" width="40" height="40" fill="#2F6BFF" opacity="0.080"/><rect x="318" y="700" width="40" height="40" fill="#2F6BFF" opacity="0.080"/><rect x="360" y="700" width="40" height="40" fill="#2F6BFF" opacity="0.080"/><rect x="402" y="700" width="40" height="40" fill="#2F6BFF" opacity="0.080"/><rect x="444" y="700" width="40" height="40" fill="#2F6BFF" opacity="0.080"/><rect x="486" y="700" width="40" height="40" fill="#2F6BFF" opacity="0.080"/><rect x="528" y="700" width="40" height="40" fill="#2F6BFF" opacity="0.080"/><rect x="570" y="700" width="40" height="40" fill="#2F6BFF" opacity="0.080"/><rect x="612" y="700" width="40" height="40" fill="#2F6BFF" opacity="0.080"/><rect x="654" y="700" width="40" height="40" fill="#2F6BFF" opacity="0.080"/><rect x="696" y="700" width="40" height="40" fill="#2F6BFF" opacity="0.080"/><rect x="738" y="700" width="40" height="40" fill="#2F6BFF" opacity="0.080"/><rect x="780" y="700" width="40" height="40" fill="#2F6BFF" opacity="0.080"/><rect x="822" y="700" width="40" height="40" fill="#2F6BFF" opacity="0.080"/><rect x="150" y="742" width="40" height="40" fill="#2F6BFF" opacity="0.507"/><text x="171.00" y="767.00" font-family="Inter, Arial, sans-serif" font-size="9" fill="#1F2933" text-anchor="middle" font-weight="400">0</text><rect x="192" y="742" width="40" height="40" fill="#2F6BFF" opacity="0.080"/><rect x="234" y="742" width="40" height="40" fill="#2F6BFF" opacity="0.080"/><rect x="276" y="742" width="40" height="40" fill="#2F6BFF" opacity="0.080"/><rect x="318" y="742" width="40" height="40" fill="#2F6BFF" opacity="0.080"/><rect x="360" y="742" width="40" height="40" fill="#2F6BFF" opacity="0.080"/><rect x="402" y="742" width="40" height="40" fill="#2F6BFF" opacity="0.080"/><rect x="444" y="742" width="40" height="40" fill="#2F6BFF" opacity="0.080"/><rect x="486" y="742" width="40" height="40" fill="#2F6BFF" opacity="0.080"/><rect x="528" y="742" width="40" height="40" fill="#2F6BFF" opacity="0.080"/><rect x="570" y="742" width="40" height="40" fill="#2F6BFF" opacity="0.080"/><rect x="612" y="742" width="40" height="40" fill="#2F6BFF" opacity="0.080"/><rect x="654" y="742" width="40" height="40" fill="#2F6BFF" opacity="0.080"/><rect x="696" y="742" width="40" height="40" fill="#2F6BFF" opacity="0.080"/><rect x="738" y="742" width="40" height="40" fill="#2F6BFF" opacity="0.080"/><rect x="780" y="742" width="40" height="40" fill="#2F6BFF" opacity="0.080"/><rect x="822" y="742" width="40" height="40" fill="#2F6BFF" opacity="0.080"/></svg>
