<svg xmlns="http://www.w3.org/2000/svg" width="960" height="790" viewBox="0 0 960 790" role="img" aria-label="Under vs over rates by feature"><rect width="100%" height="100%" fill="#FFFFFF"/><text x="24.00" y="30.00" font-family="Inter, Arial, sans-serif" font-size="17" fill="#1F2933" text-anchor="start" font-weight="700">Under vs over rates by feature</text><rect x="855" y="45" width="12" height="12" fill="#008C7D"/><text x="872.00" y="56.00" font-family="Inter, Arial, sans-serif" font-size="11" fill="#1F2933" text-anchor="start" font-weight="400">under</text><rect x="855" y="64" width="12" height="12" fill="#D96C06"/><text x="872.00" y="75.00" font-family="Inter, Arial, sans-serif" font-size="11" fill="#1F2933" text-anchor="start" font-weight="400">over</text><line x1="240.00" y1="58" x2="240.00" y2="740" stroke="#D9DEE5" stroke-width="1"/><text x="240.00" y="770.00" font-family="Inter, Arial, sans-serif" font-size="10" fill="#1F2933" text-anchor="middle" font-weight="400">0.0%</text><line x1="360.00" y1="58" x2="360.00" y2="740" stroke="#D9DEE5" stroke-width="1"/><text x="360.00" y="770.00" font-family="Inter, Arial, sans-serif" font-size="10" fill="#1F2933" text-anchor="middle" font-weight="400">20.0%</text><line x1="480.00" y1="58" x2="480.00" y2="740" stroke="#D9DEE5" stroke-width="1"/><text x="480.00" y="770.00" font-family="Inter, Arial, sans-serif" font-size="10" fill="#1F2933" text-anchor="middle" font-weight="400">40.0%</text><line x1="600.00" y1="58" x2="600.00" y2="740" stroke="#D9DEE5" stroke-width="1"/><text x="600.00" y="770.00" font-family="Inter, Arial, sans-serif" font-size="10" fill="#1F2933" text-anchor="middle" font-weight="400">60.0%</text><line x1="720.00" y1="58" x2="720.00" y2="740" stroke="#D9DEE5" stroke-width="1"/><text x="720.00" y="770.00" font-family="Inter, Arial, sans-serif" font-size="10" fill="#1F2933" text-anchor="middle" font-weight="400">80.0%</text><line x1="840.00" y1="58" x2="840.00" y2="740" stroke="#D9DEE5" stroke-width="1"/><text x="840.00" y="770.00" font-family="Inter, Arial, sans-serif" font-size="10" fill="#1F2933" text-anchor="middle" font-weight="400">100.0%</text><text x="230.00" y="87.00" font-family="Inter, Arial, sans-serif" font-size="11" fill="#1F2933" text-anchor="end" font-weight="400">has_if_then_else</text><rect x="240" y="65" width="160.00" height="15" rx="2" fill="#008C7D"/><rect x="240" y="83" width="514.29" height="15" rx="2" fill="#D96C06"/><text x="406.00" y="77.00" font-family="Inter, Arial, sans-serif" font-size="10" fill="#1F2933" text-anchor="start" font-weight="400">26.7%</text><text x="760.29" y="95.00" font-family="Inter, Arial, sans-serif" font-size="10" fill="#1F2933" text-anchor="start" font-weight="400">85.7%</text><text x="230.00" y="133.00" font-family="Inter, Arial, sans-serif" font-size="11" fill="#1F2933" text-anchor="end" font-weight="400">has_patternProperties</text><rect x="240" y="111" width="55.63" height="15" rx="2" fill="#008C7D"/><rect x="240" y="129" width="525.00" height="15" rx="2" fill="#D96C06"/><text x="301.63" y="123.00" font-family="Inter, Arial, sans-serif" font-size="10" fill="#1F2933" text-anchor="start" font-weight="400">9.3%</text><text x="771.00" y="141.00" font-family="Inter, Arial, sans-serif" font-size="10" fill="#1F2933" text-anchor="start" font-weight="400">87.5%</text><text x="230.00" y="179.00" font-family="Inter, Arial, sans-serif" font-size="11" fill="#1F2933" text-anchor="end" font-weight="400">has_exclusiveMinimum</text><rect x="240" y="157" width="1.00" height="15" rx="2" fill="#008C7D"/><rect x="240" y="175" width="525.00" height="15" rx="2" fill="#D96C06"/><text x="246.00" y="169.00" font-family="Inter, Arial, sans-serif" font-size="10" fill="#1F2933" text-anchor="start" font-weight="400">0.0%</text><text x="771.00" y="187.00" font-family="Inter, Arial, sans-serif" font-size="10" fill="#1F2933" text-anchor="start" font-weight="400">87.5%</text><text x="230.00" y="225.00" font-family="Inter, Arial, sans-serif" font-size="11" fill="#1F2933" text-anchor="end" font-weight="400">has_const</text><rect x="240" y="203" width="160.00" height="15" rx="2" fill="#008C7D"/><rect x="240" y="221" width="337.50" height="15" rx="2" fill="#D96C06"/><text x="406.00" y="215.00" font-family="Inter, Arial, sans-serif" font-size="10" fill="#1F2933" text-anchor="start" font-weight="400">26.7%</text><text x="583.50" y="233.00" font-family="Inter, Arial, sans-serif" font-size="10" fill="#1F2933" text-anchor="start" font-weight="400">56.2%</text><text x="230.00" y="271.00" font-family="Inter, Arial, sans-serif" font-size="11" fill="#1F2933" text-anchor="end" font-weight="400">has_not</text><rect x="240" y="249" width="206.45" height="15" rx="2" fill="#008C7D"/><rect x="240" y="267" width="288.00" height="15" rx="2" fill="#D96C06"/><text x="452.45" y="261.00" font-family="Inter, Arial, sans-serif" font-size="10" fill="#1F2933" text-anchor="start" font-weight="400">34.4%</text><text x="534.00" y="279.00" font-family="Inter, Arial, sans-serif" font-size="10" fill="#1F2933" text-anchor="start" font-weight="400">48.0%</text><text x="230.00" y="317.00" font-family="Inter, Arial, sans-serif" font-size="11" fill="#1F2933" text-anchor="end" font-weight="400">has_propertyNames</text><rect x="240" y="295" width="173.33" height="15" rx="2" fill="#008C7D"/><rect x="240" y="313" width="300.00" height="15" rx="2" fill="#D96C06"/><text x="419.33" y="307.00" font-family="Inter, Arial, sans-serif" font-size="10" fill="#1F2933" text-anchor="start" font-weight="400">28.9%</text><text x="546.00" y="325.00" font-family="Inter, Arial, sans-serif" font-size="10" fill="#1F2933" text-anchor="start" font-weight="400">50.0%</text><text x="230.00" y="363.00" font-family="Inter, Arial, sans-serif" font-size="11" fill="#1F2933" text-anchor="end" font-weight="400">has_multipleOf</text><rect x="240" y="341" width="173.08" height="15" rx="2" fill="#008C7D"/><rect x="240" y="359" width="270.00" height="15" rx="2" fill="#D96C06"/><text x="419.08" y="353.00" font-family="Inter, Arial, sans-serif" font-size="10" fill="#1F2933" text-anchor="start" font-weight="400">28.8%</text><text x="516.00" y="371.00" font-family="Inter, Arial, sans-serif" font-size="10" fill="#1F2933" text-anchor="start" font-weight="400">45.0%</text><text x="230.00" y="409.00" font-family="Inter, Arial, sans-serif" font-size="11" fill="#1F2933" text-anchor="end" font-weight="400">has_allOf</text><rect x="240" y="387" width="157.89" height="15" rx="2" fill="#008C7D"/><rect x="240" y="405" width="257.14" height="15" rx="2" fill="#D96C06"/><text x="403.89" y="399.00" font-family="Inter, Arial, sans-serif" font-size="10" fill="#1F2933" text-anchor="start" font-weight="400">26.3%</text><text x="503.14" y="417.00" font-family="Inter, Arial, sans-serif" font-size="10" fill="#1F2933" text-anchor="start" font-weight="400">42.9%</text><text x="230.00" y="455.00" font-family="Inter, Arial, sans-serif" font-size="11" fill="#1F2933" text-anchor="end" font-weight="400">has_minProperties</text><rect x="240" y="433" width="81.36" height="15" rx="2" fill="#008C7D"/><rect x="240" y="451" width="315.00" height="15" rx="2" fill="#D96C06"/><text x="327.36" y="445.00" font-family="Inter, Arial, sans-serif" font-size="10" fill="#1F2933" text-anchor="start" font-weight="400">13.6%</text><text x="561.00" y="463.00" font-family="Inter, Arial, sans-serif" font-size="10" fill="#1F2933" text-anchor="start" font-weight="400">52.5%</text><text x="230.00" y="501.00" font-family="Inter, Arial, sans-serif" font-size="11" fill="#1F2933" text-anchor="end" font-weight="400">has_maximum</text><rect x="240" y="479" width="119.78" height="15" rx="2" fill="#008C7D"/><rect x="240" y="497" width="275.00" height="15" rx="2" fill="#D96C06"/><text x="365.78" y="491.00" font-family="Inter, Arial, sans-serif" font-size="10" fill="#1F2933" text-anchor="start" font-weight="400">20.0%</text><text x="521.00" y="509.00" font-family="Inter, Arial, sans-serif" font-size="10" fill="#1F2933" text-anchor="start" font-weight="400">45.8%</text><text x="230.00" y="547.00" font-family="Inter, Arial, sans-serif" font-size="11" fill="#1F2933" text-anchor="end" font-weight="400">has_oneOf</text><rect x="240" y="525" width="71.96" height="15" rx="2" fill="#008C7D"/><rect x="240" y="543" width="316.25" height="15" rx="2" fill="#D96C06"/><text x="317.96" y="537.00" font-family="Inter, Arial, sans-serif" font-size="10" fill="#1F2933" text-anchor="start" font-weight="400">12.0%</text><text x="562.25" y="555.00" font-family="Inter, Arial, sans-serif" font-size="10" fill="#1F2933" text-anchor="start" font-weight="400">52.7%</text><text x="230.00" y="593.00" font-family="Inter, Arial, sans-serif" font-size="11" fill="#1F2933" text-anchor="end" font-weight="400">has_maxLength</text><rect x="240" y="571" width="158.88" height="15" rx="2" fill="#008C7D"/><rect x="240" y="589" width="228.57" height="15" rx="2" fill="#D96C06"/><text x="404.88" y="583.00" font-family="Inter, Arial, sans-serif" font-size="10" fill="#1F2933" text-anchor="start" font-weight="400">26.5%</text><text x="474.57" y="601.00" font-family="Inter, Arial, sans-serif" font-size="10" fill="#1F2933" text-anchor="start" font-weight="400">38.1%</text><text x="230.00" y="639.00" font-family="Inter, Arial, sans-serif" font-size="11" fill="#1F2933" text-anchor="end" font-weight="400">has_minimum</text><rect x="240" y="617" width="123.01" height="15" rx="2" fill="#008C7D"/><rect x="240" y="635" width="241.46" height="15" rx="2" fill="#D96C06"/><text x="369.01" y="629.00" font-family="Inter, Arial, sans-serif" font-size="10" fill="#1F2933" text-anchor="start" font-weight="400">20.5%</text><text x="487.46" y="647.00" font-family="Inter, Arial, sans-serif" font-size="10" fill="#1F2933" text-anchor="start" font-weight="400">40.2%</text><text x="230.00" y="685.00" font-family="Inter, Arial, sans-serif" font-size="11" fill="#1F2933" text-anchor="end" font-weight="400">has_minLength</text><rect x="240" y="663" width="103.85" height="15" rx="2" fill="#008C7D"/><rect x="240" y="681" width="256.68" height="15" rx="2" fill="#D96C06"/><text x="349.85" y="675.00" font-family="Inter, Arial, sans-serif" font-size="10" fill="#1F2933" text-anchor="start" font-weight="400">17.3%</text><text x="502.68" y="693.00" font-family="Inter, Arial, sans-serif" font-size="10" fill="#1F2933" text-anchor="start" font-weight="400">42.8%</text><text x="230.00" y="731.00" font-family="Inter, Arial, sans-serif" font-size="11" fill="#1F2933" text-anchor="end" font-weight="400">has_maxProperties</text><rect x="240" y="709" width="113.79" height="15" rx="2" fill="#008C7D"/><rect x="240" y="727" width="240.00" height="15" rx="2" fill="#D96C06"/><text x="359.79" y="721.00" font-family="Inter, Arial, sans-serif" font-size="10" fill="#1F2933" text-anchor="start" font-weight="400">19.0%</text><text x="486.00" y="739.00" font-family="Inter, Arial, sans-serif" font-size="10" fill="#1F2933" text-anchor="start" font-weight="400">40.0%</text></svg>
