<svg xmlns="http://www.w3.org/2000/svg" width="860" height="520" viewBox="0 0 860 520" role="img" aria-label="Schema size ECDF: completed vs timeout"><rect width="100%" height="100%" fill="#FFFFFF"/><text x="24.00" y="30.00" font-family="Inter, Arial, sans-serif" font-size="17" fill="#1F2933" text-anchor="start" font-weight="700">Schema size ECDF: completed vs timeout</text><line x1="78.00" y1="56" x2="78.00" y2="452" stroke="#D9DEE5"/><line x1="78" y1="56.00" x2="826" y2="56.00" stroke="#D9DEE5"/><line x1="227.60" y1="56" x2="227.60" y2="452" stroke="#D9DEE5"/><line x1="78" y1="135.20" x2="826" y2="135.20" stroke="#D9DEE5"/><line x1="377.20" y1="56" x2="377.20" y2="452" stroke="#D9DEE5"/><line x1="78" y1="214.40" x2="826" y2="214.40" stroke="#D9DEE5"/><line x1="526.80" y1="56" x2="526.80" y2="452" stroke="#D9DEE5"/><line x1="78" y1="293.60" x2="826" y2="293.60" stroke="#D9DEE5"/><line x1="676.40" y1="56" x2="676.40" y2="452" stroke="#D9DEE5"/><line x1="78" y1="372.80" x2="826" y2="372.80" stroke="#D9DEE5"/><line x1="826.00" y1="56" x2="826.00" y2="452" stroke="#D9DEE5"/><line x1="78" y1="452.00" x2="826" y2="452.00" stroke="#D9DEE5"/><polyline points="78.00,451.53 91.91,451.05 105.04,450.58 107.51,450.11 108.40,449.63 122.48,449.16 139.87,448.69 140.43,448.22 140.98,447.74 142.46,447.27 143.19,446.80 143.37,446.32 143.55,445.85 145.55,445.38 148.59,444.90 151.58,444.43 151.93,443.96 152.63,443.48 156.74,443.01 158.60,442.54 160.77,442.06 160.93,441.59 162.58,441.12 169.03,440.65 170.29,440.17 171.70,439.70 172.79,439.23 175.56,438.75 176.17,438.28 176.93,437.81 177.08,437.33 179.18,436.86 180.08,436.39 183.33,435.91 184.64,435.44 186.08,434.97 186.08,434.49 193.00,434.02 194.66,433.55 195.20,433.08 202.45,432.60 204.02,432.13 204.67,431.66 207.50,431.18 208.14,430.71 210.79,430.24 211.67,429.76 212.79,429.29 218.17,428.82 220.80,428.34 224.32,427.87 225.83,427.40 225.83,426.92 227.44,426.45 229.93,425.98 232.29,425.51 235.81,425.03 236.03,424.56 236.58,424.09 238.63,423.61 240.98,423.14 241.51,422.67 246.62,422.19 247.33,421.72 249.57,421.25 250.78,420.77 251.18,420.30 253.37,419.83 253.47,419.35 254.95,418.88 255.44,418.41 257.00,417.94 258.64,417.46 258.93,416.99 259.21,416.52 260.84,416.04 261.31,415.57 261.88,415.10 262.72,414.62 263.66,414.15 264.31,413.68 265.43,413.20 265.98,412.73 266.63,412.26 266.90,411.78 267.09,411.31 267.45,410.84 267.64,410.37 268.82,409.89 268.91,409.42 269.18,408.95 269.27,408.47 270.90,408.00 271.26,407.53 271.43,407.05 271.52,406.58 271.52,406.11 272.15,405.63 274.28,405.16 275.68,404.69 277.51,404.22 277.85,403.74 278.03,403.27 279.31,402.80 279.57,402.32 280.51,401.85 280.59,401.38 280.76,400.90 281.02,400.43 281.19,399.96 281.61,399.48 281.87,399.01 282.37,398.54 282.62,398.06 282.79,397.59 283.38,397.12 284.47,396.65 284.55,396.17 284.63,395.70 284.80,395.23 285.30,394.75 285.79,394.28 286.70,393.81 286.86,393.33 287.11,392.86 288.01,392.39 288.66,391.91 288.82,391.44 289.55,390.97 289.80,390.49 289.96,390.02 291.24,389.55 291.24,389.08 291.48,388.60 291.80,388.13 292.60,387.66 292.92,387.18 293.71,386.71 293.79,386.24 294.03,385.76 294.11,385.29 295.52,384.82 295.99,384.34 296.77,383.87 297.08,383.40 297.47,382.92 299.85,382.45 299.93,381.98 300.31,381.51 301.07,381.03 301.07,380.56 301.22,380.09 301.37,379.61 301.98,379.14 302.81,378.67 303.03,378.19 303.56,377.72 303.71,377.25 304.00,376.77 304.68,376.30 304.82,375.83 304.97,375.35 305.34,374.88 306.52,374.41 307.55,373.94 308.06,373.46 309.66,372.99 310.17,372.52 310.24,372.04 310.31,371.57 311.53,371.10 311.61,370.62 311.68,370.15 312.25,369.68 312.46,369.20 312.82,368.73 312.89,368.26 313.03,367.78 313.46,367.31 313.53,366.84 314.23,366.37 314.37,365.89 314.52,365.42 314.73,364.95 314.73,364.47 315.08,364.00 315.15,363.53 315.57,363.05 315.64,362.58 315.92,362.11 316.34,361.63 316.82,361.16 317.52,360.69 317.59,360.22 317.86,359.74 318.21,359.27 318.48,358.80 318.62,358.32 318.76,357.85 318.83,357.38 318.90,356.90 319.72,356.43 320.06,355.96 320.20,355.48 320.67,355.01 321.01,354.54 321.56,354.06 321.90,353.59 322.03,353.12 322.43,352.65 322.43,352.17 322.57,351.70 322.84,351.23 322.91,350.75 323.04,350.28 323.11,349.81 323.64,349.33 323.98,348.86 324.18,348.39 324.84,347.91 326.76,347.44 326.96,346.97 327.35,346.49 327.55,346.02 327.75,345.55 327.81,345.08 328.27,344.60 328.66,344.13 328.66,343.66 329.05,343.18 329.44,342.71 329.50,342.24 330.02,341.76 330.08,341.29 330.21,340.82 330.34,340.34 330.41,339.87 330.92,339.40 331.11,338.92 331.82,338.45 332.01,337.98 332.65,337.51 332.90,337.03 333.22,336.56 333.47,336.09 333.47,335.61 333.54,335.14 333.98,334.67 334.17,334.19 334.80,333.72 334.99,333.25 335.30,332.77 335.43,332.30 336.43,331.83 336.68,331.35 336.74,330.88 336.92,330.41 337.30,329.94 337.30,329.46 337.55,328.99 337.67,328.52 337.92,328.04 338.23,327.57 338.29,327.10 338.84,326.62 339.76,326.15 340.25,325.68 340.92,325.20 340.92,324.73 341.22,324.26 341.53,323.78 341.83,323.31 341.95,322.84 342.25,322.37 342.43,321.89 342.55,321.42 342.79,320.95 343.15,320.47 343.27,320.00 343.27,319.53 343.33,319.05 343.39,318.58 343.57,318.11 343.69,317.63 343.81,317.16 343.87,316.69 343.93,316.22 344.05,315.74 344.11,315.27 344.77,314.80 344.83,314.32 344.83,313.85 345.12,313.38 345.36,312.90 345.48,312.43 345.48,311.96 345.66,311.48 345.78,311.01 346.01,310.54 346.31,310.06 346.37,309.59 346.37,309.12 346.37,308.65 347.42,308.17 348.48,307.70 348.59,307.23 348.83,306.75 349.12,306.28 349.58,305.81 349.70,305.33 349.75,304.86 350.56,304.39 351.37,303.91 351.42,303.44 351.42,302.97 351.60,302.49 352.45,302.02 353.19,301.55 353.59,301.08 353.70,300.60 354.55,300.13 355.11,299.66 355.56,299.18 356.57,298.71 357.23,298.24 357.46,297.76 357.90,297.29 357.90,296.82 358.45,296.34 358.62,295.87 359.60,295.40 360.70,294.92 361.51,294.45 361.89,293.98 362.16,293.51 362.38,293.03 362.43,292.56 362.91,292.09 363.29,291.61 363.45,291.14 363.56,290.67 364.04,290.19 364.63,289.72 364.79,289.25 364.95,288.77 366.27,288.30 366.43,287.83 366.48,287.35 366.90,286.88 367.01,286.41 367.01,285.94 367.38,285.46 369.10,284.99 370.55,284.52 371.22,284.04 372.14,283.57 372.44,283.10 372.95,282.62 373.00,282.15 373.16,281.68 373.36,281.20 373.82,280.73 374.22,280.26 374.27,279.78 374.92,279.31 375.88,278.84 376.38,278.37 376.63,277.89 376.93,277.42 377.32,276.95 378.07,276.47 378.16,276.00 378.41,275.53 379.05,275.05 379.10,274.58 379.20,274.11 379.20,273.63 379.35,273.16 379.54,272.69 379.79,272.22 380.57,271.74 380.86,271.27 381.20,270.80 381.54,270.32 381.64,269.85 381.73,269.38 382.17,268.90 382.22,268.43 383.23,267.96 383.52,267.48 384.33,267.01 384.47,266.54 385.71,266.06 385.85,265.59 385.90,265.12 386.28,264.65 386.56,264.17 386.75,263.70 386.84,263.23 386.94,262.75 387.12,262.28 387.17,261.81 387.45,261.33 388.06,260.86 388.29,260.39 388.71,259.91 388.90,259.44 389.87,258.97 390.43,258.49 390.66,258.02 391.95,257.55 391.99,257.08 392.04,256.60 392.27,256.13 392.72,255.66 392.81,255.18 392.90,254.71 393.27,254.24 393.81,253.76 393.95,253.29 394.22,252.82 394.53,252.34 394.58,251.87 394.62,251.40 394.71,250.92 395.52,250.45 395.61,249.98 395.79,249.51 395.97,249.03 396.10,248.56 396.19,248.09 396.28,247.61 396.60,247.14 396.77,246.67 397.04,246.19 397.22,245.72 397.49,245.25 397.75,244.77 398.46,244.30 398.50,243.83 398.77,243.35 398.94,242.88 399.43,242.41 399.43,241.94 400.30,241.46 400.48,240.99 400.48,240.52 400.56,240.04 401.00,239.57 401.09,239.10 401.61,238.62 401.74,238.15 401.91,237.68 402.04,237.20 402.56,236.73 402.95,236.26 402.99,235.78 403.16,235.31 403.85,234.84 403.93,234.37 404.96,233.89 405.04,233.42 405.17,232.95 405.51,232.47 405.55,232.00 405.55,231.53 405.85,231.05 405.97,230.58 406.06,230.11 406.14,229.63 406.52,229.16 407.11,228.69 407.11,228.22 407.83,227.74 408.16,227.27 408.49,226.80 408.62,226.32 408.79,225.85 408.91,225.38 409.08,224.90 409.33,224.43 410.82,223.96 411.02,223.48 411.02,223.01 411.60,222.54 411.88,222.06 412.13,221.59 412.17,221.12 412.41,220.65 412.90,220.17 414.93,219.70 415.77,219.23 416.37,218.75 416.65,218.28 417.37,217.81 417.60,217.33 417.92,216.86 417.92,216.39 418.36,215.91 419.50,215.44 420.05,214.97 420.16,214.49 421.56,214.02 421.60,213.55 421.76,213.08 422.03,212.60 422.34,212.13 423.69,211.66 423.76,211.18 424.37,210.71 424.68,210.24 424.91,209.76 425.67,209.29 426.91,208.82 426.99,208.34 427.37,207.87 427.78,207.40 429.27,206.92 429.49,206.45 429.75,205.98 430.01,205.51 430.38,205.03 430.38,204.56 430.60,204.09 430.90,203.61 431.52,203.14 431.60,202.67 432.00,202.19 432.15,201.72 432.22,201.25 432.33,200.77 433.17,200.30 433.20,199.83 433.49,199.35 434.15,198.88 434.22,198.41 434.90,197.94 435.33,197.46 435.37,196.99 435.51,196.52 435.62,196.04 436.52,195.57 436.52,195.10 437.26,194.62 437.37,194.15 437.97,193.68 439.21,193.20 439.45,192.73 440.40,192.26 441.13,191.78 441.30,191.31 441.51,190.84 442.00,190.37 442.31,189.89 442.93,189.42 442.97,188.95 443.58,188.47 443.62,188.00 444.30,187.53 444.68,187.05 446.65,186.58 447.62,186.11 448.26,185.63 448.96,185.16 449.36,184.69 449.62,184.22 450.19,183.74 450.52,183.27 451.27,182.80 451.54,182.32 452.00,181.85 452.06,181.38 452.52,180.90 452.81,180.43 452.91,179.96 453.20,179.48 453.88,179.01 454.47,178.54 456.17,178.06 456.17,177.59 456.30,177.12 456.87,176.65 458.05,176.17 458.11,175.70 458.14,175.23 458.36,174.75 458.65,174.28 459.53,173.81 459.78,173.33 460.16,172.86 460.69,172.39 461.12,171.91 461.40,171.44 461.59,170.97 461.84,170.49 462.76,170.02 463.10,169.55 463.32,169.08 464.08,168.60 465.00,168.13 466.52,167.66 466.58,167.18 466.85,166.71 467.60,166.24 467.72,165.76 467.75,165.29 468.71,164.82 469.07,164.34 469.93,163.87 470.84,163.40 471.02,162.92 471.90,162.45 472.92,161.98 473.80,161.51 473.91,161.03 474.29,160.56 475.18,160.09 475.58,159.61 475.90,159.14 476.04,158.67 476.44,158.19 476.90,157.72 477.75,157.25 478.60,156.77 479.56,156.30 480.29,155.83 481.54,155.35 482.32,154.88 482.48,154.41 482.57,153.94 483.12,153.46 484.16,152.99 484.98,152.52 487.04,152.04 489.74,151.57 489.84,151.10 490.08,150.62 490.43,150.15 490.56,149.68 492.74,149.20 493.34,148.73 494.01,148.26 494.12,147.78 494.35,147.31 494.68,146.84 494.71,146.37 494.86,145.89 496.05,145.42 496.56,144.95 496.99,144.47 497.83,144.00 497.91,143.53 498.06,143.05 498.59,142.58 498.97,142.11 499.09,141.63 499.52,141.16 499.57,140.69 500.60,140.22 501.00,139.74 501.52,139.27 502.04,138.80 503.40,138.32 503.64,137.85 504.55,137.38 505.11,136.90 505.28,136.43 506.33,135.96 506.71,135.48 506.74,135.01 506.78,134.54 507.12,134.06 507.15,133.59 507.31,133.12 508.42,132.65 508.97,132.17 509.23,131.70 510.01,131.23 510.68,130.75 510.77,130.28 511.90,129.81 511.92,129.33 513.35,128.86 513.42,128.39 514.48,127.91 514.74,127.44 514.90,126.97 516.39,126.49 516.89,126.02 517.51,125.55 518.03,125.08 518.46,124.60 520.35,124.13 520.98,123.66 521.06,123.18 521.29,122.71 521.29,122.24 522.46,121.76 522.51,121.29 522.71,120.82 526.90,120.34 527.28,119.87 527.95,119.40 528.14,118.92 529.47,118.45 530.00,117.98 532.21,117.51 532.84,117.03 533.27,116.56 534.31,116.09 534.46,115.61 534.68,115.14 534.83,114.67 536.19,114.19 536.60,113.72 536.60,113.25 537.15,112.77 539.09,112.30 539.23,111.83 539.64,111.35 539.76,110.88 539.80,110.41 541.37,109.94 542.68,109.46 542.70,108.99 543.53,108.52 543.85,108.04 544.04,107.57 544.51,107.10 545.06,106.62 545.45,106.15 545.76,105.68 545.84,105.20 547.84,104.73 548.11,104.26 548.11,103.78 548.21,103.31 549.81,102.84 550.61,102.37 552.06,101.89 553.20,101.42 553.33,100.95 558.77,100.47 559.37,100.00 559.78,99.53 560.28,99.05 560.61,98.58 564.27,98.11 565.30,97.63 565.91,97.16 567.58,96.69 567.64,96.22 568.01,95.74 571.11,95.27 571.13,94.80 572.40,94.32 572.95,93.85 573.37,93.38 573.90,92.90 574.27,92.43 575.32,91.96 578.18,91.48 580.26,91.01 580.71,90.54 585.27,90.06 585.58,89.59 588.22,89.12 588.59,88.65 588.96,88.17 589.89,87.70 590.31,87.23 593.82,86.75 598.49,86.28 598.68,85.81 603.43,85.33 603.51,84.86 603.91,84.39 606.14,83.91 607.54,83.44 610.31,82.97 611.69,82.49 613.67,82.02 615.36,81.55 616.78,81.08 617.38,80.60 617.51,80.13 619.34,79.66 620.35,79.18 620.40,78.71 621.95,78.24 622.88,77.76 623.52,77.29 626.33,76.82 626.95,76.34 627.07,75.87 627.34,75.40 627.55,74.92 628.28,74.45 628.85,73.98 632.11,73.51 633.76,73.03 635.16,72.56 635.58,72.09 636.36,71.61 638.69,71.14 639.40,70.67 641.14,70.19 641.48,69.72 643.72,69.25 644.59,68.77 646.73,68.30 647.17,67.83 651.02,67.35 651.50,66.88 651.88,66.41 653.65,65.94 657.63,65.46 657.66,64.99 657.82,64.52 658.57,64.04 660.60,63.57 660.67,63.10 661.58,62.62 672.17,62.15 672.98,61.68 682.40,61.20 684.56,60.73 689.15,60.26 689.33,59.78 700.25,59.31 706.00,58.84 708.05,58.37 712.17,57.89 738.12,57.42 769.01,56.95 777.10,56.47 826.00,56.00" fill="none" stroke="#2F6BFF" stroke-width="2.5"/><rect x="690" y="50" width="12" height="12" fill="#2F6BFF"/><text x="708.00" y="61.00" font-family="Inter, Arial, sans-serif" font-size="11" fill="#1F2933" text-anchor="start" font-weight="400">completed (n=837)</text><polyline points="262.82,444.24 269.73,436.47 270.18,428.71 273.13,420.94 281.36,413.18 284.71,405.41 291.48,397.65 291.80,389.88 294.82,382.12 296.15,374.35 299.70,366.59 303.56,358.82 305.05,351.06 311.96,343.29 318.28,335.53 320.54,327.76 321.56,320.00 322.03,312.24 327.16,304.47 334.30,296.71 334.36,288.94 343.03,281.18 344.65,273.41 349.00,265.65 349.93,257.88 350.68,250.12 351.77,242.35 352.74,234.59 355.28,226.82 361.08,219.06 362.27,211.29 362.43,203.53 362.86,195.76 379.15,188.00 386.32,180.24 388.67,172.47 394.89,164.71 396.51,156.94 406.19,149.18 411.39,141.41 412.13,133.65 412.50,125.88 424.41,118.12 439.52,110.35 444.75,102.59 520.71,94.82 536.88,87.06 548.84,79.29 555.79,71.53 635.16,63.76 707.41,56.00" fill="none" stroke="#C43C39" stroke-width="2.5"/><rect x="690" y="70" width="12" height="12" fill="#C43C39"/><text x="708.00" y="81.00" font-family="Inter, Arial, sans-serif" font-size="11" fill="#1F2933" text-anchor="start" font-weight="400">timeout (n=51)</text><text x="452.00" y="498.00" font-family="Inter, Arial, sans-serif" font-size="12" fill="#1F2933" text-anchor="middle" font-weight="400">schema_json_chars (log)</text><text x="22.00" y="254.00" font-family="Inter, Arial, sans-serif" font-size="12" fill="#1F2933" text-anchor="middle" font-weight="400">ECDF</text></svg>
