<svg xmlns="http://www.w3.org/2000/svg" width="960" height="500" viewBox="0 0 960 500" role="img" aria-label="Phase time share for slowest completed schemas"><rect width="100%" height="100%" fill="#FFFFFF"/><text x="24.00" y="30.00" font-family="Inter, Arial, sans-serif" font-size="17" fill="#1F2933" text-anchor="start" font-weight="700">Phase time share for slowest completed schemas</text><rect x="805" y="48" width="12" height="12" fill="#2F6BFF"/><text x="822.00" y="59.00" font-family="Inter, Arial, sans-serif" font-size="11" fill="#1F2933" text-anchor="start" font-weight="400">compile</text><rect x="805" y="67" width="12" height="12" fill="#008C7D"/><text x="822.00" y="78.00" font-family="Inter, Arial, sans-serif" font-size="11" fill="#1F2933" text-anchor="start" font-weight="400">validation</text><rect x="805" y="86" width="12" height="12" fill="#D96C06"/><text x="822.00" y="97.00" font-family="Inter, Arial, sans-serif" font-size="11" fill="#1F2933" text-anchor="start" font-weight="400">mask</text><rect x="805" y="105" width="12" height="12" fill="#7557B8"/><text x="822.00" y="116.00" font-family="Inter, Arial, sans-serif" font-size="11" fill="#1F2933" text-anchor="start" font-weight="400">commit</text><text x="250.00" y="76.00" font-family="Inter, Arial, sans-serif" font-size="10" fill="#1F2933" text-anchor="end" font-weight="400">o84270.json</text><rect x="260.00" y="60" width="518.90" height="20" fill="#2F6BFF"/><rect x="778.90" y="60" width="0.55" height="20" fill="#008C7D"/><rect x="779.45" y="60" width="0.25" height="20" fill="#D96C06"/><rect x="779.70" y="60" width="0.30" height="20" fill="#7557B8"/><text x="788.00" y="75.00" font-family="Inter, Arial, sans-serif" font-size="10" fill="#1F2933" text-anchor="start" font-weight="400">405s</text><text x="250.00" y="110.00" font-family="Inter, Arial, sans-serif" font-size="10" fill="#1F2933" text-anchor="end" font-weight="400">o70292.json</text><rect x="260.00" y="94" width="520.00" height="20" fill="#2F6BFF"/><text x="788.00" y="109.00" font-family="Inter, Arial, sans-serif" font-size="10" fill="#1F2933" text-anchor="start" font-weight="400">392s</text><text x="250.00" y="144.00" font-family="Inter, Arial, sans-serif" font-size="10" fill="#1F2933" text-anchor="end" font-weight="400">o84271.json</text><rect x="260.00" y="128" width="518.84" height="20" fill="#2F6BFF"/><rect x="778.84" y="128" width="0.58" height="20" fill="#008C7D"/><rect x="779.42" y="128" width="0.26" height="20" fill="#D96C06"/><rect x="779.68" y="128" width="0.32" height="20" fill="#7557B8"/><text x="788.00" y="143.00" font-family="Inter, Arial, sans-serif" font-size="10" fill="#1F2933" text-anchor="start" font-weight="400">351s</text><text x="250.00" y="178.00" font-family="Inter, Arial, sans-serif" font-size="10" fill="#1F2933" text-anchor="end" font-weight="400">o10089.json</text><rect x="260.00" y="162" width="519.92" height="20" fill="#2F6BFF"/><rect x="779.92" y="162" width="0.04" height="20" fill="#008C7D"/><rect x="779.96" y="162" width="0.01" height="20" fill="#D96C06"/><rect x="779.98" y="162" width="0.02" height="20" fill="#7557B8"/><text x="788.00" y="177.00" font-family="Inter, Arial, sans-serif" font-size="10" fill="#1F2933" text-anchor="start" font-weight="400">249s</text><text x="250.00" y="212.00" font-family="Inter, Arial, sans-serif" font-size="10" fill="#1F2933" text-anchor="end" font-weight="400">o72207.json</text><rect x="260.00" y="196" width="520.00" height="20" fill="#2F6BFF"/><text x="788.00" y="211.00" font-family="Inter, Arial, sans-serif" font-size="10" fill="#1F2933" text-anchor="start" font-weight="400">228s</text><text x="250.00" y="246.00" font-family="Inter, Arial, sans-serif" font-size="10" fill="#1F2933" text-anchor="end" font-weight="400">o63308.json</text><rect x="260.00" y="230" width="518.39" height="20" fill="#2F6BFF"/><rect x="778.39" y="230" width="0.81" height="20" fill="#008C7D"/><rect x="779.19" y="230" width="0.37" height="20" fill="#D96C06"/><rect x="779.57" y="230" width="0.43" height="20" fill="#7557B8"/><text x="788.00" y="245.00" font-family="Inter, Arial, sans-serif" font-size="10" fill="#1F2933" text-anchor="start" font-weight="400">114s</text><text x="250.00" y="280.00" font-family="Inter, Arial, sans-serif" font-size="10" fill="#1F2933" text-anchor="end" font-weight="400">o36276.json</text><rect x="260.00" y="264" width="518.59" height="20" fill="#2F6BFF"/><rect x="778.59" y="264" width="0.70" height="20" fill="#008C7D"/><rect x="779.30" y="264" width="0.31" height="20" fill="#D96C06"/><rect x="779.61" y="264" width="0.39" height="20" fill="#7557B8"/><text x="788.00" y="279.00" font-family="Inter, Arial, sans-serif" font-size="10" fill="#1F2933" text-anchor="start" font-weight="400">110s</text><text x="250.00" y="314.00" font-family="Inter, Arial, sans-serif" font-size="10" fill="#1F2933" text-anchor="end" font-weight="400">o35155.json</text><rect x="260.00" y="298" width="520.00" height="20" fill="#2F6BFF"/><rect x="780.00" y="298" width="0.00" height="20" fill="#008C7D"/><rect x="780.00" y="298" width="0.00" height="20" fill="#D96C06"/><rect x="780.00" y="298" width="0.00" height="20" fill="#7557B8"/><text x="788.00" y="313.00" font-family="Inter, Arial, sans-serif" font-size="10" fill="#1F2933" text-anchor="start" font-weight="400">95.1s</text><text x="250.00" y="348.00" font-family="Inter, Arial, sans-serif" font-size="10" fill="#1F2933" text-anchor="end" font-weight="400">o85901.json</text><rect x="260.00" y="332" width="519.73" height="20" fill="#2F6BFF"/><rect x="779.73" y="332" width="0.13" height="20" fill="#008C7D"/><rect x="779.87" y="332" width="0.06" height="20" fill="#D96C06"/><rect x="779.92" y="332" width="0.08" height="20" fill="#7557B8"/><text x="788.00" y="347.00" font-family="Inter, Arial, sans-serif" font-size="10" fill="#1F2933" text-anchor="start" font-weight="400">73.4s</text><text x="250.00" y="382.00" font-family="Inter, Arial, sans-serif" font-size="10" fill="#1F2933" text-anchor="end" font-weight="400">o10026.json</text><rect x="260.00" y="366" width="518.19" height="20" fill="#2F6BFF"/><rect x="778.19" y="366" width="0.90" height="20" fill="#008C7D"/><rect x="779.10" y="366" width="0.40" height="20" fill="#D96C06"/><rect x="779.50" y="366" width="0.50" height="20" fill="#7557B8"/><text x="788.00" y="381.00" font-family="Inter, Arial, sans-serif" font-size="10" fill="#1F2933" text-anchor="start" font-weight="400">64.9s</text><text x="250.00" y="416.00" font-family="Inter, Arial, sans-serif" font-size="10" fill="#1F2933" text-anchor="end" font-weight="400">o9827.json</text><rect x="260.00" y="400" width="518.80" height="20" fill="#2F6BFF"/><rect x="778.80" y="400" width="0.60" height="20" fill="#008C7D"/><rect x="779.40" y="400" width="0.26" height="20" fill="#D96C06"/><rect x="779.66" y="400" width="0.34" height="20" fill="#7557B8"/><text x="788.00" y="415.00" font-family="Inter, Arial, sans-serif" font-size="10" fill="#1F2933" text-anchor="start" font-weight="400">64.4s</text><text x="250.00" y="450.00" font-family="Inter, Arial, sans-serif" font-size="10" fill="#1F2933" text-anchor="end" font-weight="400">o9948.json</text><rect x="260.00" y="434" width="519.59" height="20" fill="#2F6BFF"/><rect x="779.59" y="434" width="0.21" height="20" fill="#008C7D"/><rect x="779.79" y="434" width="0.09" height="20" fill="#D96C06"/><rect x="779.88" y="434" width="0.12" height="20" fill="#7557B8"/><text x="788.00" y="449.00" font-family="Inter, Arial, sans-serif" font-size="10" fill="#1F2933" text-anchor="start" font-weight="400">62.3s</text></svg>
