<svg xmlns="http://www.w3.org/2000/svg" width="900" height="560" viewBox="0 0 900 560" role="img" aria-label="Schema depth vs compile time"><rect width="100%" height="100%" fill="#FFFFFF"/><text x="24.00" y="30.00" font-family="Inter, Arial, sans-serif" font-size="17" fill="#1F2933" text-anchor="start" font-weight="700">Schema depth vs compile time</text><line x1="82.00" y1="56" x2="82.00" y2="488" stroke="#D9DEE5"/><line x1="82" y1="56.00" x2="868" y2="56.00" stroke="#D9DEE5"/><line x1="239.20" y1="56" x2="239.20" y2="488" stroke="#D9DEE5"/><line x1="82" y1="142.40" x2="868" y2="142.40" stroke="#D9DEE5"/><line x1="396.40" y1="56" x2="396.40" y2="488" stroke="#D9DEE5"/><line x1="82" y1="228.80" x2="868" y2="228.80" stroke="#D9DEE5"/><line x1="553.60" y1="56" x2="553.60" y2="488" stroke="#D9DEE5"/><line x1="82" y1="315.20" x2="868" y2="315.20" stroke="#D9DEE5"/><line x1="710.80" y1="56" x2="710.80" y2="488" stroke="#D9DEE5"/><line x1="82" y1="401.60" x2="868" y2="401.60" stroke="#D9DEE5"/><line x1="868.00" y1="56" x2="868.00" y2="488" stroke="#D9DEE5"/><line x1="82" y1="488.00" x2="868" y2="488.00" stroke="#D9DEE5"/><circle cx="247.47" cy="297.98" r="4.2" fill="#2F6BFF" opacity="0.72"/><circle cx="123.37" cy="412.47" r="4.2" fill="#2F6BFF" opacity="0.72"/><circle cx="330.21" cy="152.61" r="4.2" fill="#2F6BFF" opacity="0.72"/><circle cx="164.74" cy="391.07" r="4.2" fill="#2F6BFF" opacity="0.72"/><circle cx="206.11" cy="376.68" r="4.2" fill="#2F6BFF" opacity="0.72"/><circle cx="123.37" cy="419.43" r="4.2" fill="#2F6BFF" opacity="0.72"/><circle cx="123.37" cy="94.22" r="4.2" fill="#2F6BFF" opacity="0.72"/><circle cx="206.11" cy="385.58" r="4.2" fill="#2F6BFF" opacity="0.72"/><circle cx="123.37" cy="403.07" r="4.2" fill="#2F6BFF" opacity="0.72"/><circle cx="123.37" cy="180.31" r="4.2" fill="#2F6BFF" opacity="0.72"/><circle cx="123.37" cy="239.33" r="4.2" fill="#2F6BFF" opacity="0.72"/><circle cx="123.37" cy="410.81" r="4.2" fill="#2F6BFF" opacity="0.72"/><circle cx="123.37" cy="398.78" r="4.2" fill="#2F6BFF" opacity="0.72"/><circle cx="123.37" cy="272.77" r="4.2" fill="#2F6BFF" opacity="0.72"/><circle cx="82.00" cy="403.98" r="4.2" fill="#2F6BFF" opacity="0.72"/><circle cx="288.84" cy="354.77" r="4.2" fill="#2F6BFF" opacity="0.72"/><circle cx="206.11" cy="397.20" r="4.2" fill="#2F6BFF" opacity="0.72"/><circle cx="82.00" cy="401.97" r="4.2" fill="#2F6BFF" opacity="0.72"/><circle cx="82.00" cy="165.36" r="4.2" fill="#2F6BFF" opacity="0.72"/><circle cx="123.37" cy="238.04" r="4.2" fill="#2F6BFF" opacity="0.72"/><circle cx="206.11" cy="388.23" r="4.2" fill="#2F6BFF" opacity="0.72"/><circle cx="164.74" cy="390.68" r="4.2" fill="#2F6BFF" opacity="0.72"/><circle cx="206.11" cy="207.77" r="4.2" fill="#2F6BFF" opacity="0.72"/><circle cx="164.74" cy="178.30" r="4.2" fill="#2F6BFF" opacity="0.72"/><circle cx="82.00" cy="458.50" r="4.2" fill="#2F6BFF" opacity="0.72"/><circle cx="123.37" cy="380.17" r="4.2" fill="#2F6BFF" opacity="0.72"/><circle cx="82.00" cy="452.09" r="4.2" fill="#2F6BFF" opacity="0.72"/><circle cx="123.37" cy="381.56" r="4.2" fill="#2F6BFF" opacity="0.72"/><circle cx="288.84" cy="406.12" r="4.2" fill="#2F6BFF" opacity="0.72"/><circle cx="330.21" cy="191.61" r="4.2" fill="#2F6BFF" opacity="0.72"/><circle cx="288.84" cy="405.61" r="4.2" fill="#2F6BFF" opacity="0.72"/><circle cx="288.84" cy="417.39" r="4.2" fill="#2F6BFF" opacity="0.72"/><circle cx="206.11" cy="207.27" r="4.2" fill="#2F6BFF" opacity="0.72"/><circle cx="164.74" cy="488.00" r="4.2" fill="#2F6BFF" opacity="0.72"/><circle cx="123.37" cy="404.69" r="4.2" fill="#2F6BFF" opacity="0.72"/><circle cx="82.00" cy="408.34" r="4.2" fill="#2F6BFF" opacity="0.72"/><circle cx="123.37" cy="381.72" r="4.2" fill="#2F6BFF" opacity="0.72"/><circle cx="82.00" cy="454.48" r="4.2" fill="#2F6BFF" opacity="0.72"/><circle cx="123.37" cy="390.39" r="4.2" fill="#2F6BFF" opacity="0.72"/><circle cx="123.37" cy="410.55" r="4.2" fill="#2F6BFF" opacity="0.72"/><circle cx="82.00" cy="375.51" r="4.2" fill="#2F6BFF" opacity="0.72"/><circle cx="206.11" cy="395.35" r="4.2" fill="#2F6BFF" opacity="0.72"/><circle cx="123.37" cy="169.52" r="4.2" fill="#2F6BFF" opacity="0.72"/><circle cx="123.37" cy="344.65" r="4.2" fill="#2F6BFF" opacity="0.72"/><circle cx="123.37" cy="170.81" r="4.2" fill="#2F6BFF" opacity="0.72"/><circle cx="123.37" cy="340.85" r="4.2" fill="#2F6BFF" opacity="0.72"/><circle cx="123.37" cy="423.91" r="4.2" fill="#2F6BFF" opacity="0.72"/><circle cx="123.37" cy="399.42" r="4.2" fill="#2F6BFF" opacity="0.72"/><circle cx="123.37" cy="209.24" r="4.2" fill="#2F6BFF" opacity="0.72"/><circle cx="371.58" cy="259.13" r="4.2" fill="#2F6BFF" opacity="0.72"/><circle cx="330.21" cy="483.65" r="4.2" fill="#2F6BFF" opacity="0.72"/><circle cx="412.95" cy="249.03" r="4.2" fill="#2F6BFF" opacity="0.72"/><circle cx="412.95" cy="298.88" r="4.2" fill="#2F6BFF" opacity="0.72"/><circle cx="206.11" cy="409.27" r="4.2" fill="#2F6BFF" opacity="0.72"/><circle cx="164.74" cy="383.46" r="4.2" fill="#2F6BFF" opacity="0.72"/><circle cx="247.47" cy="364.16" r="4.2" fill="#2F6BFF" opacity="0.72"/><circle cx="123.37" cy="481.84" r="4.2" fill="#2F6BFF" opacity="0.72"/><circle cx="123.37" cy="424.24" r="4.2" fill="#2F6BFF" opacity="0.72"/><circle cx="123.37" cy="214.25" r="4.2" fill="#2F6BFF" opacity="0.72"/><circle cx="123.37" cy="214.49" r="4.2" fill="#2F6BFF" opacity="0.72"/><circle cx="123.37" cy="214.40" r="4.2" fill="#2F6BFF" opacity="0.72"/><circle cx="123.37" cy="385.84" r="4.2" fill="#2F6BFF" opacity="0.72"/><circle cx="123.37" cy="428.79" r="4.2" fill="#2F6BFF" opacity="0.72"/><circle cx="123.37" cy="383.09" r="4.2" fill="#2F6BFF" opacity="0.72"/><circle cx="123.37" cy="379.75" r="4.2" fill="#2F6BFF" opacity="0.72"/><circle cx="206.11" cy="363.62" r="4.2" fill="#2F6BFF" opacity="0.72"/><circle cx="206.11" cy="366.03" r="4.2" fill="#2F6BFF" opacity="0.72"/><circle cx="206.11" cy="350.31" r="4.2" fill="#2F6BFF" opacity="0.72"/><circle cx="123.37" cy="382.40" r="4.2" fill="#2F6BFF" opacity="0.72"/><circle cx="123.37" cy="396.80" r="4.2" fill="#2F6BFF" opacity="0.72"/><circle cx="123.37" cy="421.13" r="4.2" fill="#2F6BFF" opacity="0.72"/><circle cx="123.37" cy="483.61" r="4.2" fill="#2F6BFF" opacity="0.72"/><circle cx="288.84" cy="135.90" r="4.2" fill="#2F6BFF" opacity="0.72"/><circle cx="206.11" cy="393.77" r="4.2" fill="#2F6BFF" opacity="0.72"/><circle cx="123.37" cy="442.91" r="4.2" fill="#2F6BFF" opacity="0.72"/><circle cx="206.11" cy="473.10" r="4.2" fill="#2F6BFF" opacity="0.72"/><circle cx="868.00" cy="129.67" r="4.2" fill="#2F6BFF" opacity="0.72"/><circle cx="123.37" cy="399.87" r="4.2" fill="#2F6BFF" opacity="0.72"/><circle cx="206.11" cy="401.68" r="4.2" fill="#2F6BFF" opacity="0.72"/><circle cx="123.37" cy="410.20" r="4.2" fill="#2F6BFF" opacity="0.72"/><circle cx="123.37" cy="383.06" r="4.2" fill="#2F6BFF" opacity="0.72"/><circle cx="123.37" cy="378.57" r="4.2" fill="#2F6BFF" opacity="0.72"/><circle cx="123.37" cy="380.35" r="4.2" fill="#2F6BFF" opacity="0.72"/><circle cx="330.21" cy="227.29" r="4.2" fill="#2F6BFF" opacity="0.72"/><circle cx="206.11" cy="407.18" r="4.2" fill="#2F6BFF" opacity="0.72"/><circle cx="371.58" cy="314.66" r="4.2" fill="#2F6BFF" opacity="0.72"/><circle cx="206.11" cy="407.83" r="4.2" fill="#2F6BFF" opacity="0.72"/><circle cx="206.11" cy="385.06" r="4.2" fill="#2F6BFF" opacity="0.72"/><circle cx="206.11" cy="411.84" r="4.2" fill="#2F6BFF" opacity="0.72"/><circle cx="206.11" cy="405.27" r="4.2" fill="#2F6BFF" opacity="0.72"/><circle cx="288.84" cy="447.34" r="4.2" fill="#2F6BFF" opacity="0.72"/><circle cx="288.84" cy="443.87" r="4.2" fill="#2F6BFF" opacity="0.72"/><circle cx="288.84" cy="372.74" r="4.2" fill="#2F6BFF" opacity="0.72"/><circle cx="288.84" cy="386.39" r="4.2" fill="#2F6BFF" opacity="0.72"/><circle cx="288.84" cy="379.99" r="4.2" fill="#2F6BFF" opacity="0.72"/><circle cx="164.74" cy="421.11" r="4.2" fill="#2F6BFF" opacity="0.72"/><circle cx="371.58" cy="368.71" r="4.2" fill="#2F6BFF" opacity="0.72"/><circle cx="123.37" cy="402.48" r="4.2" fill="#2F6BFF" opacity="0.72"/><circle cx="123.37" cy="472.16" r="4.2" fill="#2F6BFF" opacity="0.72"/><circle cx="123.37" cy="475.99" r="4.2" fill="#2F6BFF" opacity="0.72"/><circle cx="123.37" cy="320.39" r="4.2" fill="#2F6BFF" opacity="0.72"/><circle cx="206.11" cy="378.40" r="4.2" fill="#2F6BFF" opacity="0.72"/><circle cx="82.00" cy="440.49" r="4.2" fill="#2F6BFF" opacity="0.72"/><circle cx="123.37" cy="213.81" r="4.2" fill="#2F6BFF" opacity="0.72"/><circle cx="123.37" cy="418.13" r="4.2" fill="#2F6BFF" opacity="0.72"/><circle cx="123.37" cy="404.06" r="4.2" fill="#2F6BFF" opacity="0.72"/><circle cx="247.47" cy="376.56" r="4.2" fill="#2F6BFF" opacity="0.72"/><circle cx="206.11" cy="237.63" r="4.2" fill="#2F6BFF" opacity="0.72"/><circle cx="123.37" cy="366.74" r="4.2" fill="#2F6BFF" opacity="0.72"/><circle cx="164.74" cy="238.12" r="4.2" fill="#2F6BFF" opacity="0.72"/><circle cx="578.42" cy="444.99" r="4.2" fill="#2F6BFF" opacity="0.72"/><circle cx="412.95" cy="440.40" r="4.2" fill="#2F6BFF" opacity="0.72"/><circle cx="578.42" cy="441.28" r="4.2" fill="#2F6BFF" opacity="0.72"/><circle cx="661.16" cy="442.17" r="4.2" fill="#2F6BFF" opacity="0.72"/><circle cx="578.42" cy="443.53" r="4.2" fill="#2F6BFF" opacity="0.72"/><circle cx="578.42" cy="441.15" r="4.2" fill="#2F6BFF" opacity="0.72"/><circle cx="785.26" cy="442.52" r="4.2" fill="#2F6BFF" opacity="0.72"/><circle cx="702.53" cy="436.70" r="4.2" fill="#2F6BFF" opacity="0.72"/><circle cx="785.26" cy="442.27" r="4.2" fill="#2F6BFF" opacity="0.72"/><circle cx="785.26" cy="443.63" r="4.2" fill="#2F6BFF" opacity="0.72"/><circle cx="661.16" cy="442.24" r="4.2" fill="#2F6BFF" opacity="0.72"/><circle cx="785.26" cy="437.50" r="4.2" fill="#2F6BFF" opacity="0.72"/><circle cx="82.00" cy="443.97" r="4.2" fill="#2F6BFF" opacity="0.72"/><circle cx="82.00" cy="443.46" r="4.2" fill="#2F6BFF" opacity="0.72"/><circle cx="123.37" cy="398.76" r="4.2" fill="#2F6BFF" opacity="0.72"/><circle cx="82.00" cy="398.35" r="4.2" fill="#2F6BFF" opacity="0.72"/><circle cx="123.37" cy="398.82" r="4.2" fill="#2F6BFF" opacity="0.72"/><circle cx="82.00" cy="386.00" r="4.2" fill="#2F6BFF" opacity="0.72"/><circle cx="123.37" cy="403.93" r="4.2" fill="#2F6BFF" opacity="0.72"/><circle cx="123.37" cy="400.85" r="4.2" fill="#2F6BFF" opacity="0.72"/><circle cx="330.21" cy="455.08" r="4.2" fill="#2F6BFF" opacity="0.72"/><circle cx="247.47" cy="450.46" r="4.2" fill="#2F6BFF" opacity="0.72"/><circle cx="412.95" cy="467.42" r="4.2" fill="#2F6BFF" opacity="0.72"/><circle cx="330.21" cy="56.05" r="4.2" fill="#C43C39" opacity="0.72"/><circle cx="123.37" cy="213.96" r="4.2" fill="#2F6BFF" opacity="0.72"/><circle cx="123.37" cy="398.24" r="4.2" fill="#2F6BFF" opacity="0.72"/><circle cx="82.00" cy="395.05" r="4.2" fill="#2F6BFF" opacity="0.72"/><circle cx="123.37" cy="403.49" r="4.2" fill="#2F6BFF" opacity="0.72"/><circle cx="123.37" cy="400.87" r="4.2" fill="#2F6BFF" opacity="0.72"/><circle cx="123.37" cy="377.77" r="4.2" fill="#2F6BFF" opacity="0.72"/><circle cx="206.11" cy="393.72" r="4.2" fill="#2F6BFF" opacity="0.72"/><circle cx="371.58" cy="366.30" r="4.2" fill="#2F6BFF" opacity="0.72"/><circle cx="206.11" cy="208.27" r="4.2" fill="#2F6BFF" opacity="0.72"/><circle cx="206.11" cy="400.38" r="4.2" fill="#2F6BFF" opacity="0.72"/><circle cx="123.37" cy="398.20" r="4.2" fill="#2F6BFF" opacity="0.72"/><circle cx="82.00" cy="416.54" r="4.2" fill="#2F6BFF" opacity="0.72"/><circle cx="82.00" cy="417.81" r="4.2" fill="#2F6BFF" opacity="0.72"/><circle cx="123.37" cy="441.80" r="4.2" fill="#2F6BFF" opacity="0.72"/><circle cx="123.37" cy="461.26" r="4.2" fill="#2F6BFF" opacity="0.72"/><circle cx="82.00" cy="392.80" r="4.2" fill="#2F6BFF" opacity="0.72"/><circle cx="123.37" cy="389.50" r="4.2" fill="#2F6BFF" opacity="0.72"/><circle cx="123.37" cy="398.84" r="4.2" fill="#2F6BFF" opacity="0.72"/><circle cx="164.74" cy="400.86" r="4.2" fill="#2F6BFF" opacity="0.72"/><circle cx="123.37" cy="410.90" r="4.2" fill="#2F6BFF" opacity="0.72"/><circle cx="82.00" cy="368.14" r="4.2" fill="#2F6BFF" opacity="0.72"/><circle cx="123.37" cy="397.88" r="4.2" fill="#2F6BFF" opacity="0.72"/><circle cx="123.37" cy="401.87" r="4.2" fill="#2F6BFF" opacity="0.72"/><circle cx="123.37" cy="393.05" r="4.2" fill="#2F6BFF" opacity="0.72"/><circle cx="123.37" cy="399.57" r="4.2" fill="#2F6BFF" opacity="0.72"/><circle cx="123.37" cy="207.76" r="4.2" fill="#2F6BFF" opacity="0.72"/><circle cx="82.00" cy="397.15" r="4.2" fill="#2F6BFF" opacity="0.72"/><circle cx="164.74" cy="208.91" r="4.2" fill="#2F6BFF" opacity="0.72"/><circle cx="206.11" cy="351.63" r="4.2" fill="#2F6BFF" opacity="0.72"/><circle cx="206.11" cy="372.63" r="4.2" fill="#2F6BFF" opacity="0.72"/><circle cx="123.37" cy="346.34" r="4.2" fill="#2F6BFF" opacity="0.72"/><circle cx="206.11" cy="397.09" r="4.2" fill="#2F6BFF" opacity="0.72"/><circle cx="206.11" cy="390.30" r="4.2" fill="#2F6BFF" opacity="0.72"/><circle cx="123.37" cy="394.41" r="4.2" fill="#2F6BFF" opacity="0.72"/><circle cx="123.37" cy="394.15" r="4.2" fill="#2F6BFF" opacity="0.72"/><circle cx="123.37" cy="213.73" r="4.2" fill="#2F6BFF" opacity="0.72"/><circle cx="206.11" cy="397.75" r="4.2" fill="#2F6BFF" opacity="0.72"/><circle cx="206.11" cy="403.42" r="4.2" fill="#2F6BFF" opacity="0.72"/><circle cx="868.00" cy="128.00" r="4.2" fill="#2F6BFF" opacity="0.72"/><circle cx="82.00" cy="436.04" r="4.2" fill="#2F6BFF" opacity="0.72"/><circle cx="288.84" cy="345.58" r="4.2" fill="#2F6BFF" opacity="0.72"/><circle cx="288.84" cy="316.13" r="4.2" fill="#2F6BFF" opacity="0.72"/><circle cx="206.11" cy="419.54" r="4.2" fill="#2F6BFF" opacity="0.72"/><circle cx="82.00" cy="392.40" r="4.2" fill="#2F6BFF" opacity="0.72"/><circle cx="371.58" cy="444.90" r="4.2" fill="#2F6BFF" opacity="0.72"/><circle cx="123.37" cy="392.20" r="4.2" fill="#2F6BFF" opacity="0.72"/><circle cx="123.37" cy="378.40" r="4.2" fill="#2F6BFF" opacity="0.72"/><circle cx="123.37" cy="238.35" r="4.2" fill="#2F6BFF" opacity="0.72"/><circle cx="288.84" cy="325.28" r="4.2" fill="#2F6BFF" opacity="0.72"/><circle cx="206.11" cy="464.34" r="4.2" fill="#2F6BFF" opacity="0.72"/><circle cx="288.84" cy="234.38" r="4.2" fill="#2F6BFF" opacity="0.72"/><circle cx="288.84" cy="457.68" r="4.2" fill="#2F6BFF" opacity="0.72"/><circle cx="123.37" cy="395.24" r="4.2" fill="#2F6BFF" opacity="0.72"/><circle cx="123.37" cy="415.76" r="4.2" fill="#2F6BFF" opacity="0.72"/><circle cx="123.37" cy="334.18" r="4.2" fill="#2F6BFF" opacity="0.72"/><circle cx="123.37" cy="400.46" r="4.2" fill="#2F6BFF" opacity="0.72"/><circle cx="123.37" cy="252.78" r="4.2" fill="#2F6BFF" opacity="0.72"/><circle cx="123.37" cy="317.31" r="4.2" fill="#2F6BFF" opacity="0.72"/><circle cx="123.37" cy="370.44" r="4.2" fill="#2F6BFF" opacity="0.72"/><circle cx="123.37" cy="352.45" r="4.2" fill="#2F6BFF" opacity="0.72"/><circle cx="123.37" cy="375.66" r="4.2" fill="#2F6BFF" opacity="0.72"/><circle cx="288.84" cy="342.89" r="4.2" fill="#2F6BFF" opacity="0.72"/><circle cx="247.47" cy="369.53" r="4.2" fill="#2F6BFF" opacity="0.72"/><circle cx="164.74" cy="387.34" r="4.2" fill="#2F6BFF" opacity="0.72"/><circle cx="123.37" cy="380.55" r="4.2" fill="#2F6BFF" opacity="0.72"/><circle cx="206.11" cy="385.35" r="4.2" fill="#2F6BFF" opacity="0.72"/><circle cx="123.37" cy="406.41" r="4.2" fill="#2F6BFF" opacity="0.72"/><circle cx="206.11" cy="368.54" r="4.2" fill="#2F6BFF" opacity="0.72"/><circle cx="206.11" cy="453.49" r="4.2" fill="#2F6BFF" opacity="0.72"/><circle cx="206.11" cy="206.30" r="4.2" fill="#2F6BFF" opacity="0.72"/><circle cx="123.37" cy="392.74" r="4.2" fill="#2F6BFF" opacity="0.72"/><circle cx="82.00" cy="434.35" r="4.2" fill="#2F6BFF" opacity="0.72"/><circle cx="123.37" cy="376.94" r="4.2" fill="#2F6BFF" opacity="0.72"/><circle cx="123.37" cy="399.43" r="4.2" fill="#2F6BFF" opacity="0.72"/><circle cx="123.37" cy="366.92" r="4.2" fill="#2F6BFF" opacity="0.72"/><circle cx="330.21" cy="382.47" r="4.2" fill="#2F6BFF" opacity="0.72"/><circle cx="247.47" cy="371.64" r="4.2" fill="#2F6BFF" opacity="0.72"/><circle cx="206.11" cy="404.37" r="4.2" fill="#2F6BFF" opacity="0.72"/><circle cx="288.84" cy="390.77" r="4.2" fill="#2F6BFF" opacity="0.72"/><circle cx="288.84" cy="368.10" r="4.2" fill="#2F6BFF" opacity="0.72"/><circle cx="288.84" cy="396.27" r="4.2" fill="#2F6BFF" opacity="0.72"/><circle cx="206.11" cy="396.31" r="4.2" fill="#2F6BFF" opacity="0.72"/><circle cx="206.11" cy="386.91" r="4.2" fill="#2F6BFF" opacity="0.72"/><circle cx="123.37" cy="393.66" r="4.2" fill="#2F6BFF" opacity="0.72"/><circle cx="123.37" cy="447.82" r="4.2" fill="#2F6BFF" opacity="0.72"/><circle cx="123.37" cy="453.36" r="4.2" fill="#2F6BFF" opacity="0.72"/><circle cx="123.37" cy="402.22" r="4.2" fill="#2F6BFF" opacity="0.72"/><circle cx="82.00" cy="419.81" r="4.2" fill="#2F6BFF" opacity="0.72"/><circle cx="123.37" cy="415.31" r="4.2" fill="#2F6BFF" opacity="0.72"/><circle cx="123.37" cy="209.47" r="4.2" fill="#2F6BFF" opacity="0.72"/><circle cx="123.37" cy="214.18" r="4.2" fill="#2F6BFF" opacity="0.72"/><circle cx="123.37" cy="98.08" r="4.2" fill="#2F6BFF" opacity="0.72"/><circle cx="206.11" cy="384.23" r="4.2" fill="#2F6BFF" opacity="0.72"/><circle cx="123.37" cy="366.58" r="4.2" fill="#2F6BFF" opacity="0.72"/><circle cx="123.37" cy="379.33" r="4.2" fill="#2F6BFF" opacity="0.72"/><circle cx="123.37" cy="240.13" r="4.2" fill="#2F6BFF" opacity="0.72"/><circle cx="82.00" cy="373.31" r="4.2" fill="#2F6BFF" opacity="0.72"/><circle cx="123.37" cy="397.16" r="4.2" fill="#2F6BFF" opacity="0.72"/><circle cx="123.37" cy="396.48" r="4.2" fill="#2F6BFF" opacity="0.72"/><circle cx="164.74" cy="207.88" r="4.2" fill="#2F6BFF" opacity="0.72"/><circle cx="123.37" cy="379.37" r="4.2" fill="#2F6BFF" opacity="0.72"/><circle cx="206.11" cy="368.46" r="4.2" fill="#2F6BFF" opacity="0.72"/><circle cx="82.00" cy="425.73" r="4.2" fill="#2F6BFF" opacity="0.72"/><circle cx="288.84" cy="366.87" r="4.2" fill="#2F6BFF" opacity="0.72"/><circle cx="288.84" cy="400.83" r="4.2" fill="#2F6BFF" opacity="0.72"/><circle cx="247.47" cy="349.86" r="4.2" fill="#2F6BFF" opacity="0.72"/><circle cx="247.47" cy="362.49" r="4.2" fill="#2F6BFF" opacity="0.72"/><circle cx="123.37" cy="234.96" r="4.2" fill="#2F6BFF" opacity="0.72"/><circle cx="123.37" cy="438.56" r="4.2" fill="#2F6BFF" opacity="0.72"/><circle cx="123.37" cy="393.30" r="4.2" fill="#2F6BFF" opacity="0.72"/><circle cx="123.37" cy="403.46" r="4.2" fill="#2F6BFF" opacity="0.72"/><circle cx="123.37" cy="384.72" r="4.2" fill="#2F6BFF" opacity="0.72"/><circle cx="123.37" cy="213.93" r="4.2" fill="#2F6BFF" opacity="0.72"/><circle cx="123.37" cy="366.67" r="4.2" fill="#2F6BFF" opacity="0.72"/><circle cx="123.37" cy="392.38" r="4.2" fill="#2F6BFF" opacity="0.72"/><circle cx="206.11" cy="393.35" r="4.2" fill="#2F6BFF" opacity="0.72"/><circle cx="123.37" cy="390.45" r="4.2" fill="#2F6BFF" opacity="0.72"/><circle cx="164.74" cy="379.74" r="4.2" fill="#2F6BFF" opacity="0.72"/><circle cx="123.37" cy="437.77" r="4.2" fill="#2F6BFF" opacity="0.72"/><circle cx="123.37" cy="397.08" r="4.2" fill="#2F6BFF" opacity="0.72"/><circle cx="206.11" cy="450.99" r="4.2" fill="#2F6BFF" opacity="0.72"/><circle cx="164.74" cy="385.95" r="4.2" fill="#2F6BFF" opacity="0.72"/><circle cx="123.37" cy="390.61" r="4.2" fill="#2F6BFF" opacity="0.72"/><circle cx="206.11" cy="339.18" r="4.2" fill="#2F6BFF" opacity="0.72"/><circle cx="288.84" cy="383.32" r="4.2" fill="#2F6BFF" opacity="0.72"/><circle cx="123.37" cy="387.89" r="4.2" fill="#2F6BFF" opacity="0.72"/><circle cx="123.37" cy="406.24" r="4.2" fill="#2F6BFF" opacity="0.72"/><circle cx="123.37" cy="372.75" r="4.2" fill="#2F6BFF" opacity="0.72"/><circle cx="82.00" cy="423.76" r="4.2" fill="#2F6BFF" opacity="0.72"/><circle cx="164.74" cy="237.53" r="4.2" fill="#2F6BFF" opacity="0.72"/><circle cx="123.37" cy="391.77" r="4.2" fill="#2F6BFF" opacity="0.72"/><circle cx="123.37" cy="386.40" r="4.2" fill="#2F6BFF" opacity="0.72"/><circle cx="123.37" cy="394.63" r="4.2" fill="#2F6BFF" opacity="0.72"/><circle cx="123.37" cy="235.16" r="4.2" fill="#2F6BFF" opacity="0.72"/><circle cx="123.37" cy="403.71" r="4.2" fill="#2F6BFF" opacity="0.72"/><circle cx="206.11" cy="364.41" r="4.2" fill="#2F6BFF" opacity="0.72"/><circle cx="123.37" cy="400.74" r="4.2" fill="#2F6BFF" opacity="0.72"/><circle cx="123.37" cy="396.36" r="4.2" fill="#2F6BFF" opacity="0.72"/><circle cx="123.37" cy="398.93" r="4.2" fill="#2F6BFF" opacity="0.72"/><circle cx="123.37" cy="409.78" r="4.2" fill="#2F6BFF" opacity="0.72"/><circle cx="82.00" cy="423.22" r="4.2" fill="#2F6BFF" opacity="0.72"/><circle cx="371.58" cy="314.11" r="4.2" fill="#2F6BFF" opacity="0.72"/><circle cx="123.37" cy="380.08" r="4.2" fill="#2F6BFF" opacity="0.72"/><circle cx="371.58" cy="319.46" r="4.2" fill="#2F6BFF" opacity="0.72"/><circle cx="123.37" cy="422.37" r="4.2" fill="#2F6BFF" opacity="0.72"/><circle cx="206.11" cy="388.62" r="4.2" fill="#2F6BFF" opacity="0.72"/><circle cx="206.11" cy="404.76" r="4.2" fill="#2F6BFF" opacity="0.72"/><circle cx="288.84" cy="333.14" r="4.2" fill="#2F6BFF" opacity="0.72"/><circle cx="206.11" cy="365.83" r="4.2" fill="#2F6BFF" opacity="0.72"/><circle cx="123.37" cy="406.94" r="4.2" fill="#2F6BFF" opacity="0.72"/><circle cx="206.11" cy="357.48" r="4.2" fill="#2F6BFF" opacity="0.72"/><circle cx="123.37" cy="394.83" r="4.2" fill="#2F6BFF" opacity="0.72"/><circle cx="123.37" cy="394.59" r="4.2" fill="#2F6BFF" opacity="0.72"/><circle cx="206.11" cy="383.37" r="4.2" fill="#2F6BFF" opacity="0.72"/><circle cx="578.42" cy="73.25" r="4.2" fill="#2F6BFF" opacity="0.72"/><circle cx="495.68" cy="79.40" r="4.2" fill="#2F6BFF" opacity="0.72"/><circle cx="123.37" cy="440.35" r="4.2" fill="#2F6BFF" opacity="0.72"/><circle cx="288.84" cy="324.57" r="4.2" fill="#2F6BFF" opacity="0.72"/><circle cx="82.00" cy="147.13" r="4.2" fill="#2F6BFF" opacity="0.72"/><circle cx="82.00" cy="389.85" r="4.2" fill="#2F6BFF" opacity="0.72"/><circle cx="82.00" cy="414.02" r="4.2" fill="#2F6BFF" opacity="0.72"/><circle cx="164.74" cy="407.48" r="4.2" fill="#2F6BFF" opacity="0.72"/><circle cx="123.37" cy="401.21" r="4.2" fill="#2F6BFF" opacity="0.72"/><circle cx="123.37" cy="396.50" r="4.2" fill="#2F6BFF" opacity="0.72"/><circle cx="123.37" cy="214.68" r="4.2" fill="#2F6BFF" opacity="0.72"/><circle cx="288.84" cy="313.07" r="4.2" fill="#2F6BFF" opacity="0.72"/><circle cx="123.37" cy="391.42" r="4.2" fill="#2F6BFF" opacity="0.72"/><circle cx="123.37" cy="394.74" r="4.2" fill="#2F6BFF" opacity="0.72"/><circle cx="123.37" cy="441.73" r="4.2" fill="#2F6BFF" opacity="0.72"/><circle cx="288.84" cy="209.50" r="4.2" fill="#2F6BFF" opacity="0.72"/><circle cx="123.37" cy="435.85" r="4.2" fill="#2F6BFF" opacity="0.72"/><circle cx="123.37" cy="394.78" r="4.2" fill="#2F6BFF" opacity="0.72"/><circle cx="123.37" cy="394.21" r="4.2" fill="#2F6BFF" opacity="0.72"/><circle cx="288.84" cy="350.43" r="4.2" fill="#2F6BFF" opacity="0.72"/><circle cx="123.37" cy="394.42" r="4.2" fill="#2F6BFF" opacity="0.72"/><circle cx="123.37" cy="385.97" r="4.2" fill="#2F6BFF" opacity="0.72"/><circle cx="123.37" cy="357.65" r="4.2" fill="#2F6BFF" opacity="0.72"/><circle cx="123.37" cy="378.57" r="4.2" fill="#2F6BFF" opacity="0.72"/><circle cx="247.47" cy="377.38" r="4.2" fill="#2F6BFF" opacity="0.72"/><circle cx="123.37" cy="177.19" r="4.2" fill="#2F6BFF" opacity="0.72"/><circle cx="206.11" cy="389.16" r="4.2" fill="#2F6BFF" opacity="0.72"/><circle cx="123.37" cy="399.96" r="4.2" fill="#2F6BFF" opacity="0.72"/><circle cx="206.11" cy="365.87" r="4.2" fill="#2F6BFF" opacity="0.72"/><circle cx="164.74" cy="362.91" r="4.2" fill="#2F6BFF" opacity="0.72"/><circle cx="164.74" cy="214.31" r="4.2" fill="#2F6BFF" opacity="0.72"/><circle cx="123.37" cy="375.22" r="4.2" fill="#2F6BFF" opacity="0.72"/><circle cx="123.37" cy="388.61" r="4.2" fill="#2F6BFF" opacity="0.72"/><circle cx="371.58" cy="420.80" r="4.2" fill="#2F6BFF" opacity="0.72"/><circle cx="206.11" cy="375.45" r="4.2" fill="#2F6BFF" opacity="0.72"/><circle cx="123.37" cy="56.00" r="4.2" fill="#C43C39" opacity="0.72"/><circle cx="288.84" cy="436.57" r="4.2" fill="#2F6BFF" opacity="0.72"/><circle cx="330.21" cy="445.08" r="4.2" fill="#2F6BFF" opacity="0.72"/><circle cx="206.11" cy="442.33" r="4.2" fill="#2F6BFF" opacity="0.72"/><circle cx="371.58" cy="152.88" r="4.2" fill="#2F6BFF" opacity="0.72"/><circle cx="412.95" cy="435.31" r="4.2" fill="#2F6BFF" opacity="0.72"/><circle cx="123.37" cy="214.28" r="4.2" fill="#2F6BFF" opacity="0.72"/><circle cx="123.37" cy="56.01" r="4.2" fill="#C43C39" opacity="0.72"/><circle cx="288.84" cy="56.00" r="4.2" fill="#C43C39" opacity="0.72"/><circle cx="123.37" cy="283.52" r="4.2" fill="#2F6BFF" opacity="0.72"/><circle cx="123.37" cy="154.28" r="4.2" fill="#2F6BFF" opacity="0.72"/><circle cx="82.00" cy="405.20" r="4.2" fill="#2F6BFF" opacity="0.72"/><line x1="82" y1="488" x2="868" y2="488" stroke="#1F2933"/><line x1="82" y1="56" x2="82" y2="488" stroke="#1F2933"/><text x="475.00" y="538.00" font-family="Inter, Arial, sans-serif" font-size="12" fill="#1F2933" text-anchor="middle" font-weight="400">schema_depth</text><text x="20.00" y="272.00" font-family="Inter, Arial, sans-serif" font-size="12" fill="#1F2933" text-anchor="middle" font-weight="400">seconds (log)</text><rect x="735" y="48" width="12" height="12" fill="#2F6BFF"/><text x="753.00" y="59.00" font-family="Inter, Arial, sans-serif" font-size="11" fill="#1F2933" text-anchor="start" font-weight="400">completed</text><rect x="735" y="68" width="12" height="12" fill="#C43C39"/><text x="753.00" y="79.00" font-family="Inter, Arial, sans-serif" font-size="11" fill="#1F2933" text-anchor="start" font-weight="400">timeout</text></svg>
