<svg xmlns="http://www.w3.org/2000/svg" width="900" height="560" viewBox="0 0 900 560" role="img" aria-label="Schema size vs compile time"><rect width="100%" height="100%" fill="#FFFFFF"/><text x="24.00" y="30.00" font-family="Inter, Arial, sans-serif" font-size="17" fill="#1F2933" text-anchor="start" font-weight="700">Schema size vs compile time</text><line x1="82.00" y1="56" x2="82.00" y2="488" stroke="#D9DEE5"/><line x1="82" y1="56.00" x2="868" y2="56.00" stroke="#D9DEE5"/><line x1="239.20" y1="56" x2="239.20" y2="488" stroke="#D9DEE5"/><line x1="82" y1="142.40" x2="868" y2="142.40" stroke="#D9DEE5"/><line x1="396.40" y1="56" x2="396.40" y2="488" stroke="#D9DEE5"/><line x1="82" y1="228.80" x2="868" y2="228.80" stroke="#D9DEE5"/><line x1="553.60" y1="56" x2="553.60" y2="488" stroke="#D9DEE5"/><line x1="82" y1="315.20" x2="868" y2="315.20" stroke="#D9DEE5"/><line x1="710.80" y1="56" x2="710.80" y2="488" stroke="#D9DEE5"/><line x1="82" y1="401.60" x2="868" y2="401.60" stroke="#D9DEE5"/><line x1="868.00" y1="56" x2="868.00" y2="488" stroke="#D9DEE5"/><line x1="82" y1="488.00" x2="868" y2="488.00" stroke="#D9DEE5"/><circle cx="397.59" cy="297.98" r="4.2" fill="#2F6BFF" opacity="0.72"/><circle cx="300.62" cy="412.47" r="4.2" fill="#2F6BFF" opacity="0.72"/><circle cx="473.99" cy="152.61" r="4.2" fill="#2F6BFF" opacity="0.72"/><circle cx="326.59" cy="391.07" r="4.2" fill="#2F6BFF" opacity="0.72"/><circle cx="446.25" cy="376.68" r="4.2" fill="#2F6BFF" opacity="0.72"/><circle cx="270.11" cy="419.43" r="4.2" fill="#2F6BFF" opacity="0.72"/><circle cx="311.28" cy="94.22" r="4.2" fill="#2F6BFF" opacity="0.72"/><circle cx="358.87" cy="385.58" r="4.2" fill="#2F6BFF" opacity="0.72"/><circle cx="336.36" cy="403.07" r="4.2" fill="#2F6BFF" opacity="0.72"/><circle cx="321.72" cy="180.31" r="4.2" fill="#2F6BFF" opacity="0.72"/><circle cx="359.88" cy="239.33" r="4.2" fill="#2F6BFF" opacity="0.72"/><circle cx="380.12" cy="410.81" r="4.2" fill="#2F6BFF" opacity="0.72"/><circle cx="389.39" cy="398.78" r="4.2" fill="#2F6BFF" opacity="0.72"/><circle cx="317.36" cy="272.77" r="4.2" fill="#2F6BFF" opacity="0.72"/><circle cx="261.89" cy="403.98" r="4.2" fill="#2F6BFF" opacity="0.72"/><circle cx="508.60" cy="354.77" r="4.2" fill="#2F6BFF" opacity="0.72"/><circle cx="359.88" cy="397.20" r="4.2" fill="#2F6BFF" opacity="0.72"/><circle cx="310.50" cy="401.97" r="4.2" fill="#2F6BFF" opacity="0.72"/><circle cx="327.27" cy="165.36" r="4.2" fill="#2F6BFF" opacity="0.72"/><circle cx="343.60" cy="238.04" r="4.2" fill="#2F6BFF" opacity="0.72"/><circle cx="343.02" cy="388.23" r="4.2" fill="#2F6BFF" opacity="0.72"/><circle cx="542.60" cy="390.68" r="4.2" fill="#2F6BFF" opacity="0.72"/><circle cx="395.41" cy="207.77" r="4.2" fill="#2F6BFF" opacity="0.72"/><circle cx="312.06" cy="178.30" r="4.2" fill="#2F6BFF" opacity="0.72"/><circle cx="256.90" cy="456.70" r="4.2" fill="#2F6BFF" opacity="0.72"/><circle cx="347.06" cy="458.50" r="4.2" fill="#2F6BFF" opacity="0.72"/><circle cx="378.42" cy="380.17" r="4.2" fill="#2F6BFF" opacity="0.72"/><circle cx="348.18" cy="452.09" r="4.2" fill="#2F6BFF" opacity="0.72"/><circle cx="308.91" cy="381.56" r="4.2" fill="#2F6BFF" opacity="0.72"/><circle cx="378.00" cy="406.12" r="4.2" fill="#2F6BFF" opacity="0.72"/><circle cx="403.19" cy="191.61" r="4.2" fill="#2F6BFF" opacity="0.72"/><circle cx="398.66" cy="405.61" r="4.2" fill="#2F6BFF" opacity="0.72"/><circle cx="361.88" cy="429.11" r="4.2" fill="#2F6BFF" opacity="0.72"/><circle cx="439.07" cy="417.39" r="4.2" fill="#2F6BFF" opacity="0.72"/><circle cx="352.04" cy="207.27" r="4.2" fill="#2F6BFF" opacity="0.72"/><circle cx="329.28" cy="488.00" r="4.2" fill="#2F6BFF" opacity="0.72"/><circle cx="356.29" cy="404.69" r="4.2" fill="#2F6BFF" opacity="0.72"/><circle cx="344.77" cy="408.34" r="4.2" fill="#2F6BFF" opacity="0.72"/><circle cx="279.87" cy="381.72" r="4.2" fill="#2F6BFF" opacity="0.72"/><circle cx="222.81" cy="454.48" r="4.2" fill="#2F6BFF" opacity="0.72"/><circle cx="285.92" cy="390.39" r="4.2" fill="#2F6BFF" opacity="0.72"/><circle cx="303.17" cy="410.55" r="4.2" fill="#2F6BFF" opacity="0.72"/><circle cx="282.93" cy="375.51" r="4.2" fill="#2F6BFF" opacity="0.72"/><circle cx="308.11" cy="395.35" r="4.2" fill="#2F6BFF" opacity="0.72"/><circle cx="277.77" cy="169.52" r="4.2" fill="#2F6BFF" opacity="0.72"/><circle cx="314.36" cy="344.65" r="4.2" fill="#2F6BFF" opacity="0.72"/><circle cx="277.77" cy="170.81" r="4.2" fill="#2F6BFF" opacity="0.72"/><circle cx="314.36" cy="340.85" r="4.2" fill="#2F6BFF" opacity="0.72"/><circle cx="280.90" cy="423.91" r="4.2" fill="#2F6BFF" opacity="0.72"/><circle cx="320.29" cy="399.42" r="4.2" fill="#2F6BFF" opacity="0.72"/><circle cx="321.00" cy="209.24" r="4.2" fill="#2F6BFF" opacity="0.72"/><circle cx="537.63" cy="259.13" r="4.2" fill="#2F6BFF" opacity="0.72"/><circle cx="451.68" cy="483.65" r="4.2" fill="#2F6BFF" opacity="0.72"/><circle cx="594.86" cy="249.03" r="4.2" fill="#2F6BFF" opacity="0.72"/><circle cx="502.49" cy="298.88" r="4.2" fill="#2F6BFF" opacity="0.72"/><circle cx="349.30" cy="409.27" r="4.2" fill="#2F6BFF" opacity="0.72"/><circle cx="277.77" cy="383.46" r="4.2" fill="#2F6BFF" opacity="0.72"/><circle cx="363.36" cy="364.16" r="4.2" fill="#2F6BFF" opacity="0.72"/><circle cx="302.33" cy="481.84" r="4.2" fill="#2F6BFF" opacity="0.72"/><circle cx="366.73" cy="424.24" r="4.2" fill="#2F6BFF" opacity="0.72"/><circle cx="338.22" cy="214.25" r="4.2" fill="#2F6BFF" opacity="0.72"/><circle cx="323.83" cy="214.49" r="4.2" fill="#2F6BFF" opacity="0.72"/><circle cx="331.26" cy="214.40" r="4.2" fill="#2F6BFF" opacity="0.72"/><circle cx="82.00" cy="440.57" r="4.2" fill="#2F6BFF" opacity="0.72"/><circle cx="176.06" cy="447.08" r="4.2" fill="#2F6BFF" opacity="0.72"/><circle cx="301.48" cy="385.84" r="4.2" fill="#2F6BFF" opacity="0.72"/><circle cx="197.61" cy="428.79" r="4.2" fill="#2F6BFF" opacity="0.72"/><circle cx="138.71" cy="449.78" r="4.2" fill="#2F6BFF" opacity="0.72"/><circle cx="334.48" cy="383.09" r="4.2" fill="#2F6BFF" opacity="0.72"/><circle cx="221.07" cy="431.42" r="4.2" fill="#2F6BFF" opacity="0.72"/><circle cx="331.91" cy="379.75" r="4.2" fill="#2F6BFF" opacity="0.72"/><circle cx="355.24" cy="363.62" r="4.2" fill="#2F6BFF" opacity="0.72"/><circle cx="368.14" cy="366.03" r="4.2" fill="#2F6BFF" opacity="0.72"/><circle cx="431.39" cy="350.31" r="4.2" fill="#2F6BFF" opacity="0.72"/><circle cx="386.25" cy="382.40" r="4.2" fill="#2F6BFF" opacity="0.72"/><circle cx="420.26" cy="396.80" r="4.2" fill="#2F6BFF" opacity="0.72"/><circle cx="304.01" cy="421.13" r="4.2" fill="#2F6BFF" opacity="0.72"/><circle cx="285.92" cy="483.61" r="4.2" fill="#2F6BFF" opacity="0.72"/><circle cx="583.61" cy="135.90" r="4.2" fill="#2F6BFF" opacity="0.72"/><circle cx="317.36" cy="393.77" r="4.2" fill="#2F6BFF" opacity="0.72"/><circle cx="409.82" cy="442.91" r="4.2" fill="#2F6BFF" opacity="0.72"/><circle cx="598.50" cy="473.10" r="4.2" fill="#2F6BFF" opacity="0.72"/><circle cx="816.02" cy="129.67" r="4.2" fill="#2F6BFF" opacity="0.72"/><circle cx="381.79" cy="399.87" r="4.2" fill="#2F6BFF" opacity="0.72"/><circle cx="229.54" cy="401.68" r="4.2" fill="#2F6BFF" opacity="0.72"/><circle cx="369.54" cy="410.20" r="4.2" fill="#2F6BFF" opacity="0.72"/><circle cx="344.19" cy="383.06" r="4.2" fill="#2F6BFF" opacity="0.72"/><circle cx="357.33" cy="378.57" r="4.2" fill="#2F6BFF" opacity="0.72"/><circle cx="366.25" cy="380.35" r="4.2" fill="#2F6BFF" opacity="0.72"/><circle cx="577.32" cy="227.29" r="4.2" fill="#2F6BFF" opacity="0.72"/><circle cx="367.67" cy="407.18" r="4.2" fill="#2F6BFF" opacity="0.72"/><circle cx="512.88" cy="314.66" r="4.2" fill="#2F6BFF" opacity="0.72"/><circle cx="318.10" cy="421.33" r="4.2" fill="#2F6BFF" opacity="0.72"/><circle cx="347.06" cy="407.83" r="4.2" fill="#2F6BFF" opacity="0.72"/><circle cx="383.84" cy="385.06" r="4.2" fill="#2F6BFF" opacity="0.72"/><circle cx="333.84" cy="411.84" r="4.2" fill="#2F6BFF" opacity="0.72"/><circle cx="319.56" cy="405.27" r="4.2" fill="#2F6BFF" opacity="0.72"/><circle cx="378.85" cy="447.34" r="4.2" fill="#2F6BFF" opacity="0.72"/><circle cx="338.22" cy="443.87" r="4.2" fill="#2F6BFF" opacity="0.72"/><circle cx="385.45" cy="372.74" r="4.2" fill="#2F6BFF" opacity="0.72"/><circle cx="356.29" cy="386.39" r="4.2" fill="#2F6BFF" opacity="0.72"/><circle cx="360.38" cy="379.99" r="4.2" fill="#2F6BFF" opacity="0.72"/><circle cx="360.38" cy="421.11" r="4.2" fill="#2F6BFF" opacity="0.72"/><circle cx="391.69" cy="368.71" r="4.2" fill="#2F6BFF" opacity="0.72"/><circle cx="365.29" cy="402.48" r="4.2" fill="#2F6BFF" opacity="0.72"/><circle cx="362.37" cy="472.16" r="4.2" fill="#2F6BFF" opacity="0.72"/><circle cx="304.01" cy="475.99" r="4.2" fill="#2F6BFF" opacity="0.72"/><circle cx="350.40" cy="320.39" r="4.2" fill="#2F6BFF" opacity="0.72"/><circle cx="398.66" cy="378.40" r="4.2" fill="#2F6BFF" opacity="0.72"/><circle cx="325.91" cy="440.49" r="4.2" fill="#2F6BFF" opacity="0.72"/><circle cx="344.19" cy="213.81" r="4.2" fill="#2F6BFF" opacity="0.72"/><circle cx="445.09" cy="418.13" r="4.2" fill="#2F6BFF" opacity="0.72"/><circle cx="507.01" cy="404.06" r="4.2" fill="#2F6BFF" opacity="0.72"/><circle cx="423.72" cy="376.56" r="4.2" fill="#2F6BFF" opacity="0.72"/><circle cx="402.85" cy="237.63" r="4.2" fill="#2F6BFF" opacity="0.72"/><circle cx="345.34" cy="366.74" r="4.2" fill="#2F6BFF" opacity="0.72"/><circle cx="334.48" cy="238.12" r="4.2" fill="#2F6BFF" opacity="0.72"/><circle cx="687.61" cy="444.99" r="4.2" fill="#2F6BFF" opacity="0.72"/><circle cx="548.57" cy="440.40" r="4.2" fill="#2F6BFF" opacity="0.72"/><circle cx="614.87" cy="441.28" r="4.2" fill="#2F6BFF" opacity="0.72"/><circle cx="657.70" cy="442.17" r="4.2" fill="#2F6BFF" opacity="0.72"/><circle cx="623.13" cy="443.53" r="4.2" fill="#2F6BFF" opacity="0.72"/><circle cx="625.14" cy="441.15" r="4.2" fill="#2F6BFF" opacity="0.72"/><circle cx="731.81" cy="442.52" r="4.2" fill="#2F6BFF" opacity="0.72"/><circle cx="788.64" cy="436.70" r="4.2" fill="#2F6BFF" opacity="0.72"/><circle cx="762.08" cy="442.27" r="4.2" fill="#2F6BFF" opacity="0.72"/><circle cx="747.09" cy="443.63" r="4.2" fill="#2F6BFF" opacity="0.72"/><circle cx="673.67" cy="442.24" r="4.2" fill="#2F6BFF" opacity="0.72"/><circle cx="772.93" cy="437.50" r="4.2" fill="#2F6BFF" opacity="0.72"/><circle cx="308.91" cy="443.97" r="4.2" fill="#2F6BFF" opacity="0.72"/><circle cx="296.23" cy="443.46" r="4.2" fill="#2F6BFF" opacity="0.72"/><circle cx="398.66" cy="398.76" r="4.2" fill="#2F6BFF" opacity="0.72"/><circle cx="267.82" cy="398.35" r="4.2" fill="#2F6BFF" opacity="0.72"/><circle cx="344.77" cy="422.15" r="4.2" fill="#2F6BFF" opacity="0.72"/><circle cx="315.87" cy="398.82" r="4.2" fill="#2F6BFF" opacity="0.72"/><circle cx="336.36" cy="386.00" r="4.2" fill="#2F6BFF" opacity="0.72"/><circle cx="357.84" cy="403.93" r="4.2" fill="#2F6BFF" opacity="0.72"/><circle cx="305.67" cy="400.85" r="4.2" fill="#2F6BFF" opacity="0.72"/><circle cx="684.59" cy="455.08" r="4.2" fill="#2F6BFF" opacity="0.72"/><circle cx="391.31" cy="450.46" r="4.2" fill="#2F6BFF" opacity="0.72"/><circle cx="717.56" cy="467.42" r="4.2" fill="#2F6BFF" opacity="0.72"/><circle cx="578.17" cy="56.05" r="4.2" fill="#C43C39" opacity="0.72"/><circle cx="291.66" cy="213.96" r="4.2" fill="#2F6BFF" opacity="0.72"/><circle cx="352.58" cy="398.24" r="4.2" fill="#2F6BFF" opacity="0.72"/><circle cx="378.00" cy="56.07" r="4.2" fill="#C43C39" opacity="0.72"/><circle cx="362.37" cy="56.07" r="4.2" fill="#C43C39" opacity="0.72"/><circle cx="234.34" cy="395.05" r="4.2" fill="#2F6BFF" opacity="0.72"/><circle cx="256.90" cy="403.49" r="4.2" fill="#2F6BFF" opacity="0.72"/><circle cx="370.00" cy="400.87" r="4.2" fill="#2F6BFF" opacity="0.72"/><circle cx="374.07" cy="377.77" r="4.2" fill="#2F6BFF" opacity="0.72"/><circle cx="340.04" cy="393.72" r="4.2" fill="#2F6BFF" opacity="0.72"/><circle cx="447.63" cy="366.30" r="4.2" fill="#2F6BFF" opacity="0.72"/><circle cx="425.69" cy="208.27" r="4.2" fill="#2F6BFF" opacity="0.72"/><circle cx="323.83" cy="400.38" r="4.2" fill="#2F6BFF" opacity="0.72"/><circle cx="379.27" cy="398.20" r="4.2" fill="#2F6BFF" opacity="0.72"/><circle cx="374.51" cy="416.54" r="4.2" fill="#2F6BFF" opacity="0.72"/><circle cx="382.20" cy="417.81" r="4.2" fill="#2F6BFF" opacity="0.72"/><circle cx="376.27" cy="441.80" r="4.2" fill="#2F6BFF" opacity="0.72"/><circle cx="384.65" cy="461.26" r="4.2" fill="#2F6BFF" opacity="0.72"/><circle cx="376.70" cy="392.80" r="4.2" fill="#2F6BFF" opacity="0.72"/><circle cx="317.36" cy="389.50" r="4.2" fill="#2F6BFF" opacity="0.72"/><circle cx="309.71" cy="398.84" r="4.2" fill="#2F6BFF" opacity="0.72"/><circle cx="362.37" cy="400.86" r="4.2" fill="#2F6BFF" opacity="0.72"/><circle cx="512.88" cy="410.90" r="4.2" fill="#2F6BFF" opacity="0.72"/><circle cx="340.04" cy="368.14" r="4.2" fill="#2F6BFF" opacity="0.72"/><circle cx="356.81" cy="397.88" r="4.2" fill="#2F6BFF" opacity="0.72"/><circle cx="321.72" cy="401.87" r="4.2" fill="#2F6BFF" opacity="0.72"/><circle cx="380.12" cy="393.05" r="4.2" fill="#2F6BFF" opacity="0.72"/><circle cx="385.05" cy="399.57" r="4.2" fill="#2F6BFF" opacity="0.72"/><circle cx="369.07" cy="207.76" r="4.2" fill="#2F6BFF" opacity="0.72"/><circle cx="333.20" cy="397.15" r="4.2" fill="#2F6BFF" opacity="0.72"/><circle cx="365.77" cy="208.91" r="4.2" fill="#2F6BFF" opacity="0.72"/><circle cx="419.08" cy="351.63" r="4.2" fill="#2F6BFF" opacity="0.72"/><circle cx="402.16" cy="372.63" r="4.2" fill="#2F6BFF" opacity="0.72"/><circle cx="306.49" cy="346.34" r="4.2" fill="#2F6BFF" opacity="0.72"/><circle cx="378.85" cy="397.09" r="4.2" fill="#2F6BFF" opacity="0.72"/><circle cx="337.60" cy="390.30" r="4.2" fill="#2F6BFF" opacity="0.72"/><circle cx="375.83" cy="394.41" r="4.2" fill="#2F6BFF" opacity="0.72"/><circle cx="347.06" cy="394.15" r="4.2" fill="#2F6BFF" opacity="0.72"/><circle cx="329.94" cy="213.73" r="4.2" fill="#2F6BFF" opacity="0.72"/><circle cx="366.25" cy="397.75" r="4.2" fill="#2F6BFF" opacity="0.72"/><circle cx="344.19" cy="403.42" r="4.2" fill="#2F6BFF" opacity="0.72"/><circle cx="816.02" cy="128.00" r="4.2" fill="#2F6BFF" opacity="0.72"/><circle cx="286.90" cy="436.04" r="4.2" fill="#2F6BFF" opacity="0.72"/><circle cx="271.24" cy="435.47" r="4.2" fill="#2F6BFF" opacity="0.72"/><circle cx="538.03" cy="345.58" r="4.2" fill="#2F6BFF" opacity="0.72"/><circle cx="598.33" cy="316.13" r="4.2" fill="#2F6BFF" opacity="0.72"/><circle cx="316.62" cy="419.54" r="4.2" fill="#2F6BFF" opacity="0.72"/><circle cx="279.87" cy="392.40" r="4.2" fill="#2F6BFF" opacity="0.72"/><circle cx="255.61" cy="427.91" r="4.2" fill="#2F6BFF" opacity="0.72"/><circle cx="441.03" cy="254.04" r="4.2" fill="#2F6BFF" opacity="0.72"/><circle cx="481.66" cy="420.78" r="4.2" fill="#2F6BFF" opacity="0.72"/><circle cx="383.02" cy="417.48" r="4.2" fill="#2F6BFF" opacity="0.72"/><circle cx="499.38" cy="444.90" r="4.2" fill="#2F6BFF" opacity="0.72"/><circle cx="389.00" cy="392.20" r="4.2" fill="#2F6BFF" opacity="0.72"/><circle cx="318.10" cy="378.40" r="4.2" fill="#2F6BFF" opacity="0.72"/><circle cx="343.60" cy="238.35" r="4.2" fill="#2F6BFF" opacity="0.72"/><circle cx="456.01" cy="325.28" r="4.2" fill="#2F6BFF" opacity="0.72"/><circle cx="420.26" cy="464.34" r="4.2" fill="#2F6BFF" opacity="0.72"/><circle cx="517.37" cy="234.38" r="4.2" fill="#2F6BFF" opacity="0.72"/><circle cx="536.09" cy="457.68" r="4.2" fill="#2F6BFF" opacity="0.72"/><circle cx="340.64" cy="395.24" r="4.2" fill="#2F6BFF" opacity="0.72"/><circle cx="469.95" cy="415.76" r="4.2" fill="#2F6BFF" opacity="0.72"/><circle cx="688.26" cy="334.18" r="4.2" fill="#2F6BFF" opacity="0.72"/><circle cx="483.50" cy="400.46" r="4.2" fill="#2F6BFF" opacity="0.72"/><circle cx="659.44" cy="252.78" r="4.2" fill="#2F6BFF" opacity="0.72"/><circle cx="545.77" cy="317.31" r="4.2" fill="#2F6BFF" opacity="0.72"/><circle cx="574.44" cy="370.44" r="4.2" fill="#2F6BFF" opacity="0.72"/><circle cx="636.43" cy="352.45" r="4.2" fill="#2F6BFF" opacity="0.72"/><circle cx="535.99" cy="375.66" r="4.2" fill="#2F6BFF" opacity="0.72"/><circle cx="549.03" cy="342.89" r="4.2" fill="#2F6BFF" opacity="0.72"/><circle cx="320.29" cy="369.53" r="4.2" fill="#2F6BFF" opacity="0.72"/><circle cx="305.67" cy="387.34" r="4.2" fill="#2F6BFF" opacity="0.72"/><circle cx="281.92" cy="380.55" r="4.2" fill="#2F6BFF" opacity="0.72"/><circle cx="317.36" cy="385.35" r="4.2" fill="#2F6BFF" opacity="0.72"/><circle cx="274.55" cy="406.41" r="4.2" fill="#2F6BFF" opacity="0.72"/><circle cx="342.43" cy="368.54" r="4.2" fill="#2F6BFF" opacity="0.72"/><circle cx="138.71" cy="430.53" r="4.2" fill="#2F6BFF" opacity="0.72"/><circle cx="345.92" cy="280.08" r="4.2" fill="#2F6BFF" opacity="0.72"/><circle cx="497.35" cy="453.49" r="4.2" fill="#2F6BFF" opacity="0.72"/><circle cx="538.23" cy="206.30" r="4.2" fill="#2F6BFF" opacity="0.72"/><circle cx="248.96" cy="421.10" r="4.2" fill="#2F6BFF" opacity="0.72"/><circle cx="392.44" cy="392.74" r="4.2" fill="#2F6BFF" opacity="0.72"/><circle cx="360.38" cy="434.35" r="4.2" fill="#2F6BFF" opacity="0.72"/><circle cx="350.40" cy="376.94" r="4.2" fill="#2F6BFF" opacity="0.72"/><circle cx="356.29" cy="399.43" r="4.2" fill="#2F6BFF" opacity="0.72"/><circle cx="312.83" cy="366.92" r="4.2" fill="#2F6BFF" opacity="0.72"/><circle cx="335.11" cy="382.47" r="4.2" fill="#2F6BFF" opacity="0.72"/><circle cx="327.27" cy="371.64" r="4.2" fill="#2F6BFF" opacity="0.72"/><circle cx="309.71" cy="404.37" r="4.2" fill="#2F6BFF" opacity="0.72"/><circle cx="342.43" cy="390.77" r="4.2" fill="#2F6BFF" opacity="0.72"/><circle cx="361.38" cy="368.10" r="4.2" fill="#2F6BFF" opacity="0.72"/><circle cx="321.00" cy="396.27" r="4.2" fill="#2F6BFF" opacity="0.72"/><circle cx="306.49" cy="396.31" r="4.2" fill="#2F6BFF" opacity="0.72"/><circle cx="332.56" cy="386.91" r="4.2" fill="#2F6BFF" opacity="0.72"/><circle cx="325.22" cy="427.36" r="4.2" fill="#2F6BFF" opacity="0.72"/><circle cx="341.24" cy="393.66" r="4.2" fill="#2F6BFF" opacity="0.72"/><circle cx="318.83" cy="74.52" r="4.2" fill="#2F6BFF" opacity="0.72"/><circle cx="326.59" cy="447.82" r="4.2" fill="#2F6BFF" opacity="0.72"/><circle cx="290.73" cy="453.36" r="4.2" fill="#2F6BFF" opacity="0.72"/><circle cx="416.38" cy="402.22" r="4.2" fill="#2F6BFF" opacity="0.72"/><circle cx="305.67" cy="419.81" r="4.2" fill="#2F6BFF" opacity="0.72"/><circle cx="347.62" cy="415.31" r="4.2" fill="#2F6BFF" opacity="0.72"/><circle cx="278.82" cy="209.47" r="4.2" fill="#2F6BFF" opacity="0.72"/><circle cx="318.83" cy="214.18" r="4.2" fill="#2F6BFF" opacity="0.72"/><circle cx="318.10" cy="98.08" r="4.2" fill="#2F6BFF" opacity="0.72"/><circle cx="366.73" cy="429.80" r="4.2" fill="#2F6BFF" opacity="0.72"/><circle cx="357.84" cy="384.23" r="4.2" fill="#2F6BFF" opacity="0.72"/><circle cx="376.27" cy="366.58" r="4.2" fill="#2F6BFF" opacity="0.72"/><circle cx="329.28" cy="379.33" r="4.2" fill="#2F6BFF" opacity="0.72"/><circle cx="357.33" cy="240.13" r="4.2" fill="#2F6BFF" opacity="0.72"/><circle cx="342.43" cy="373.31" r="4.2" fill="#2F6BFF" opacity="0.72"/><circle cx="412.37" cy="397.16" r="4.2" fill="#2F6BFF" opacity="0.72"/><circle cx="411.42" cy="396.48" r="4.2" fill="#2F6BFF" opacity="0.72"/><circle cx="306.49" cy="207.88" r="4.2" fill="#2F6BFF" opacity="0.72"/><circle cx="373.62" cy="412.53" r="4.2" fill="#2F6BFF" opacity="0.72"/><circle cx="408.85" cy="379.37" r="4.2" fill="#2F6BFF" opacity="0.72"/><circle cx="394.31" cy="368.46" r="4.2" fill="#2F6BFF" opacity="0.72"/><circle cx="315.12" cy="425.73" r="4.2" fill="#2F6BFF" opacity="0.72"/><circle cx="412.05" cy="366.87" r="4.2" fill="#2F6BFF" opacity="0.72"/><circle cx="376.27" cy="400.83" r="4.2" fill="#2F6BFF" opacity="0.72"/><circle cx="392.82" cy="382.80" r="4.2" fill="#2F6BFF" opacity="0.72"/><circle cx="472.17" cy="349.86" r="4.2" fill="#2F6BFF" opacity="0.72"/><circle cx="435.55" cy="362.49" r="4.2" fill="#2F6BFF" opacity="0.72"/><circle cx="380.96" cy="234.96" r="4.2" fill="#2F6BFF" opacity="0.72"/><circle cx="479.97" cy="438.56" r="4.2" fill="#2F6BFF" opacity="0.72"/><circle cx="333.20" cy="393.30" r="4.2" fill="#2F6BFF" opacity="0.72"/><circle cx="267.82" cy="403.46" r="4.2" fill="#2F6BFF" opacity="0.72"/><circle cx="329.94" cy="384.72" r="4.2" fill="#2F6BFF" opacity="0.72"/><circle cx="420.26" cy="213.93" r="4.2" fill="#2F6BFF" opacity="0.72"/><circle cx="368.14" cy="366.67" r="4.2" fill="#2F6BFF" opacity="0.72"/><circle cx="375.83" cy="414.62" r="4.2" fill="#2F6BFF" opacity="0.72"/><circle cx="308.11" cy="392.38" r="4.2" fill="#2F6BFF" opacity="0.72"/><circle cx="349.30" cy="393.35" r="4.2" fill="#2F6BFF" opacity="0.72"/><circle cx="386.65" cy="390.45" r="4.2" fill="#2F6BFF" opacity="0.72"/><circle cx="349.30" cy="379.74" r="4.2" fill="#2F6BFF" opacity="0.72"/><circle cx="352.58" cy="437.77" r="4.2" fill="#2F6BFF" opacity="0.72"/><circle cx="343.60" cy="397.08" r="4.2" fill="#2F6BFF" opacity="0.72"/><circle cx="363.84" cy="450.99" r="4.2" fill="#2F6BFF" opacity="0.72"/><circle cx="334.48" cy="385.95" r="4.2" fill="#2F6BFF" opacity="0.72"/><circle cx="398.31" cy="390.61" r="4.2" fill="#2F6BFF" opacity="0.72"/><circle cx="341.24" cy="339.18" r="4.2" fill="#2F6BFF" opacity="0.72"/><circle cx="323.83" cy="383.32" r="4.2" fill="#2F6BFF" opacity="0.72"/><circle cx="449.45" cy="387.89" r="4.2" fill="#2F6BFF" opacity="0.72"/><circle cx="288.83" cy="406.24" r="4.2" fill="#2F6BFF" opacity="0.72"/><circle cx="331.91" cy="372.75" r="4.2" fill="#2F6BFF" opacity="0.72"/><circle cx="286.90" cy="423.76" r="4.2" fill="#2F6BFF" opacity="0.72"/><circle cx="350.40" cy="237.53" r="4.2" fill="#2F6BFF" opacity="0.72"/><circle cx="380.12" cy="391.77" r="4.2" fill="#2F6BFF" opacity="0.72"/><circle cx="343.02" cy="386.40" r="4.2" fill="#2F6BFF" opacity="0.72"/><circle cx="441.03" cy="394.63" r="4.2" fill="#2F6BFF" opacity="0.72"/><circle cx="366.73" cy="235.16" r="4.2" fill="#2F6BFF" opacity="0.72"/><circle cx="306.49" cy="403.71" r="4.2" fill="#2F6BFF" opacity="0.72"/><circle cx="404.21" cy="364.41" r="4.2" fill="#2F6BFF" opacity="0.72"/><circle cx="343.60" cy="400.74" r="4.2" fill="#2F6BFF" opacity="0.72"/><circle cx="305.67" cy="396.36" r="4.2" fill="#2F6BFF" opacity="0.72"/><circle cx="327.27" cy="398.93" r="4.2" fill="#2F6BFF" opacity="0.72"/><circle cx="274.55" cy="409.78" r="4.2" fill="#2F6BFF" opacity="0.72"/><circle cx="354.19" cy="423.22" r="4.2" fill="#2F6BFF" opacity="0.72"/><circle cx="473.99" cy="314.11" r="4.2" fill="#2F6BFF" opacity="0.72"/><circle cx="340.04" cy="380.08" r="4.2" fill="#2F6BFF" opacity="0.72"/><circle cx="458.52" cy="319.46" r="4.2" fill="#2F6BFF" opacity="0.72"/><circle cx="334.48" cy="422.37" r="4.2" fill="#2F6BFF" opacity="0.72"/><circle cx="383.84" cy="388.62" r="4.2" fill="#2F6BFF" opacity="0.72"/><circle cx="426.24" cy="404.76" r="4.2" fill="#2F6BFF" opacity="0.72"/><circle cx="516.26" cy="333.14" r="4.2" fill="#2F6BFF" opacity="0.72"/><circle cx="393.94" cy="365.83" r="4.2" fill="#2F6BFF" opacity="0.72"/><circle cx="360.88" cy="406.94" r="4.2" fill="#2F6BFF" opacity="0.72"/><circle cx="454.94" cy="357.48" r="4.2" fill="#2F6BFF" opacity="0.72"/><circle cx="368.14" cy="394.83" r="4.2" fill="#2F6BFF" opacity="0.72"/><circle cx="364.81" cy="394.59" r="4.2" fill="#2F6BFF" opacity="0.72"/><circle cx="350.40" cy="383.37" r="4.2" fill="#2F6BFF" opacity="0.72"/><circle cx="868.00" cy="73.25" r="4.2" fill="#2F6BFF" opacity="0.72"/><circle cx="854.05" cy="79.40" r="4.2" fill="#2F6BFF" opacity="0.72"/><circle cx="404.55" cy="440.35" r="4.2" fill="#2F6BFF" opacity="0.72"/><circle cx="529.06" cy="324.57" r="4.2" fill="#2F6BFF" opacity="0.72"/><circle cx="408.85" cy="147.13" r="4.2" fill="#2F6BFF" opacity="0.72"/><circle cx="484.49" cy="407.33" r="4.2" fill="#2F6BFF" opacity="0.72"/><circle cx="409.82" cy="389.85" r="4.2" fill="#2F6BFF" opacity="0.72"/><circle cx="423.72" cy="414.02" r="4.2" fill="#2F6BFF" opacity="0.72"/><circle cx="437.83" cy="407.48" r="4.2" fill="#2F6BFF" opacity="0.72"/><circle cx="491.65" cy="401.21" r="4.2" fill="#2F6BFF" opacity="0.72"/><circle cx="391.69" cy="396.50" r="4.2" fill="#2F6BFF" opacity="0.72"/><circle cx="414.55" cy="214.68" r="4.2" fill="#2F6BFF" opacity="0.72"/><circle cx="555.27" cy="313.07" r="4.2" fill="#2F6BFF" opacity="0.72"/><circle cx="446.25" cy="391.42" r="4.2" fill="#2F6BFF" opacity="0.72"/><circle cx="432.97" cy="394.74" r="4.2" fill="#2F6BFF" opacity="0.72"/><circle cx="329.94" cy="441.73" r="4.2" fill="#2F6BFF" opacity="0.72"/><circle cx="529.83" cy="209.50" r="4.2" fill="#2F6BFF" opacity="0.72"/><circle cx="369.54" cy="296.17" r="4.2" fill="#2F6BFF" opacity="0.72"/><circle cx="460.58" cy="435.85" r="4.2" fill="#2F6BFF" opacity="0.72"/><circle cx="274.55" cy="394.78" r="4.2" fill="#2F6BFF" opacity="0.72"/><circle cx="339.44" cy="413.56" r="4.2" fill="#2F6BFF" opacity="0.72"/><circle cx="343.02" cy="421.66" r="4.2" fill="#2F6BFF" opacity="0.72"/><circle cx="384.65" cy="394.21" r="4.2" fill="#2F6BFF" opacity="0.72"/><circle cx="173.38" cy="411.40" r="4.2" fill="#2F6BFF" opacity="0.72"/><circle cx="398.66" cy="350.43" r="4.2" fill="#2F6BFF" opacity="0.72"/><circle cx="312.83" cy="394.42" r="4.2" fill="#2F6BFF" opacity="0.72"/><circle cx="348.74" cy="385.97" r="4.2" fill="#2F6BFF" opacity="0.72"/><circle cx="312.06" cy="357.65" r="4.2" fill="#2F6BFF" opacity="0.72"/><circle cx="331.26" cy="378.57" r="4.2" fill="#2F6BFF" opacity="0.72"/><circle cx="414.24" cy="377.38" r="4.2" fill="#2F6BFF" opacity="0.72"/><circle cx="281.92" cy="177.19" r="4.2" fill="#2F6BFF" opacity="0.72"/><circle cx="333.20" cy="389.16" r="4.2" fill="#2F6BFF" opacity="0.72"/><circle cx="331.26" cy="399.96" r="4.2" fill="#2F6BFF" opacity="0.72"/><circle cx="342.43" cy="365.87" r="4.2" fill="#2F6BFF" opacity="0.72"/><circle cx="331.26" cy="362.91" r="4.2" fill="#2F6BFF" opacity="0.72"/><circle cx="455.58" cy="214.31" r="4.2" fill="#2F6BFF" opacity="0.72"/><circle cx="334.48" cy="375.22" r="4.2" fill="#2F6BFF" opacity="0.72"/><circle cx="234.34" cy="388.61" r="4.2" fill="#2F6BFF" opacity="0.72"/><circle cx="254.31" cy="425.23" r="4.2" fill="#2F6BFF" opacity="0.72"/><circle cx="525.15" cy="420.80" r="4.2" fill="#2F6BFF" opacity="0.72"/><circle cx="324.53" cy="375.45" r="4.2" fill="#2F6BFF" opacity="0.72"/><circle cx="324.53" cy="56.00" r="4.2" fill="#C43C39" opacity="0.72"/><circle cx="422.86" cy="436.57" r="4.2" fill="#2F6BFF" opacity="0.72"/><circle cx="483.83" cy="445.08" r="4.2" fill="#2F6BFF" opacity="0.72"/><circle cx="344.19" cy="442.33" r="4.2" fill="#2F6BFF" opacity="0.72"/><circle cx="543.47" cy="152.88" r="4.2" fill="#2F6BFF" opacity="0.72"/><circle cx="550.49" cy="435.31" r="4.2" fill="#2F6BFF" opacity="0.72"/><circle cx="279.87" cy="214.28" r="4.2" fill="#2F6BFF" opacity="0.72"/><circle cx="341.24" cy="56.01" r="4.2" fill="#C43C39" opacity="0.72"/><circle cx="407.22" cy="56.00" r="4.2" fill="#C43C39" opacity="0.72"/><circle cx="331.26" cy="283.52" r="4.2" fill="#2F6BFF" opacity="0.72"/><circle cx="346.49" cy="154.28" r="4.2" fill="#2F6BFF" opacity="0.72"/><circle cx="312.83" cy="405.20" r="4.2" fill="#2F6BFF" opacity="0.72"/><line x1="82" y1="488" x2="868" y2="488" stroke="#1F2933"/><line x1="82" y1="56" x2="82" y2="488" stroke="#1F2933"/><text x="475.00" y="538.00" font-family="Inter, Arial, sans-serif" font-size="12" fill="#1F2933" text-anchor="middle" font-weight="400">schema_json_chars (log)</text><text x="20.00" y="272.00" font-family="Inter, Arial, sans-serif" font-size="12" fill="#1F2933" text-anchor="middle" font-weight="400">seconds (log)</text><rect x="735" y="48" width="12" height="12" fill="#2F6BFF"/><text x="753.00" y="59.00" font-family="Inter, Arial, sans-serif" font-size="11" fill="#1F2933" text-anchor="start" font-weight="400">completed</text><rect x="735" y="68" width="12" height="12" fill="#C43C39"/><text x="753.00" y="79.00" font-family="Inter, Arial, sans-serif" font-size="11" fill="#1F2933" text-anchor="start" font-weight="400">timeout</text></svg>
