<svg xmlns="http://www.w3.org/2000/svg" width="920" height="560" viewBox="0 0 920 560" role="img" aria-label="Schema size vs schema_depth by constraint group"><rect width="100%" height="100%" fill="#FFFFFF"/><text x="24.00" y="30.00" font-family="Inter, Arial, sans-serif" font-size="17" fill="#1F2933" text-anchor="start" font-weight="700">Schema size vs schema_depth by constraint group</text><line x1="82.00" y1="56" x2="82.00" y2="488" stroke="#D9DEE5"/><line x1="82" y1="56.00" x2="750" y2="56.00" stroke="#D9DEE5"/><line x1="215.60" y1="56" x2="215.60" y2="488" stroke="#D9DEE5"/><line x1="82" y1="142.40" x2="750" y2="142.40" stroke="#D9DEE5"/><line x1="349.20" y1="56" x2="349.20" y2="488" stroke="#D9DEE5"/><line x1="82" y1="228.80" x2="750" y2="228.80" stroke="#D9DEE5"/><line x1="482.80" y1="56" x2="482.80" y2="488" stroke="#D9DEE5"/><line x1="82" y1="315.20" x2="750" y2="315.20" stroke="#D9DEE5"/><line x1="616.40" y1="56" x2="616.40" y2="488" stroke="#D9DEE5"/><line x1="82" y1="401.60" x2="750" y2="401.60" stroke="#D9DEE5"/><line x1="750.00" y1="56" x2="750.00" y2="488" stroke="#D9DEE5"/><line x1="82" y1="488.00" x2="750" y2="488.00" stroke="#D9DEE5"/><circle cx="350.21" cy="380.00" r="4" fill="#D96C06" opacity="0.72"/><circle cx="267.80" cy="444.80" r="4" fill="#D96C06" opacity="0.72"/><circle cx="415.14" cy="336.80" r="4" fill="#D96C06" opacity="0.72"/><circle cx="289.87" cy="423.20" r="4" fill="#2F6BFF" opacity="0.72"/><circle cx="391.57" cy="401.60" r="4" fill="#D96C06" opacity="0.72"/><circle cx="241.87" cy="444.80" r="4" fill="#D96C06" opacity="0.72"/><circle cx="276.86" cy="444.80" r="4" fill="#7557B8" opacity="0.72"/><circle cx="317.30" cy="401.60" r="4" fill="#2F6BFF" opacity="0.72"/><circle cx="298.18" cy="444.80" r="4" fill="#2F6BFF" opacity="0.72"/><circle cx="285.73" cy="444.80" r="4" fill="#7557B8" opacity="0.72"/><circle cx="318.16" cy="444.80" r="4" fill="#7557B8" opacity="0.72"/><circle cx="335.36" cy="444.80" r="4" fill="#2F6BFF" opacity="0.72"/><circle cx="343.24" cy="444.80" r="4" fill="#7557B8" opacity="0.72"/><circle cx="282.03" cy="444.80" r="4" fill="#2F6BFF" opacity="0.72"/><circle cx="234.88" cy="466.40" r="4" fill="#2F6BFF" opacity="0.72"/><circle cx="444.56" cy="358.40" r="4" fill="#2F6BFF" opacity="0.72"/><circle cx="318.16" cy="401.60" r="4" fill="#2F6BFF" opacity="0.72"/><circle cx="276.19" cy="466.40" r="4" fill="#2F6BFF" opacity="0.72"/><circle cx="290.45" cy="466.40" r="4" fill="#2F6BFF" opacity="0.72"/><circle cx="304.33" cy="444.80" r="4" fill="#2F6BFF" opacity="0.72"/><circle cx="303.83" cy="401.60" r="4" fill="#2F6BFF" opacity="0.72"/><circle cx="473.45" cy="423.20" r="4" fill="#2F6BFF" opacity="0.72"/><circle cx="348.36" cy="401.60" r="4" fill="#7557B8" opacity="0.72"/><circle cx="277.52" cy="423.20" r="4" fill="#2F6BFF" opacity="0.72"/><circle cx="230.64" cy="488.00" r="4" fill="#2F6BFF" opacity="0.72"/><circle cx="307.26" cy="466.40" r="4" fill="#2F6BFF" opacity="0.72"/><circle cx="333.92" cy="444.80" r="4" fill="#7557B8" opacity="0.72"/><circle cx="308.22" cy="466.40" r="4" fill="#2F6BFF" opacity="0.72"/><circle cx="274.84" cy="444.80" r="4" fill="#2F6BFF" opacity="0.72"/><circle cx="333.56" cy="358.40" r="4" fill="#2F6BFF" opacity="0.72"/><circle cx="354.97" cy="336.80" r="4" fill="#2F6BFF" opacity="0.72"/><circle cx="351.12" cy="358.40" r="4" fill="#2F6BFF" opacity="0.72"/><circle cx="319.86" cy="488.00" r="4" fill="#2F6BFF" opacity="0.72"/><circle cx="385.46" cy="358.40" r="4" fill="#7557B8" opacity="0.72"/><circle cx="311.50" cy="401.60" r="4" fill="#D96C06" opacity="0.72"/><circle cx="292.16" cy="423.20" r="4" fill="#7557B8" opacity="0.72"/><circle cx="315.11" cy="444.80" r="4" fill="#2F6BFF" opacity="0.72"/><circle cx="305.32" cy="466.40" r="4" fill="#2F6BFF" opacity="0.72"/><circle cx="250.16" cy="444.80" r="4" fill="#2F6BFF" opacity="0.72"/><circle cx="201.67" cy="466.40" r="4" fill="#7557B8" opacity="0.72"/><circle cx="255.31" cy="444.80" r="4" fill="#D96C06" opacity="0.72"/><circle cx="269.97" cy="444.80" r="4" fill="#2F6BFF" opacity="0.72"/><circle cx="252.77" cy="466.40" r="4" fill="#2F6BFF" opacity="0.72"/><circle cx="274.16" cy="401.60" r="4" fill="#2F6BFF" opacity="0.72"/><circle cx="248.38" cy="444.80" r="4" fill="#2F6BFF" opacity="0.72"/><circle cx="279.48" cy="444.80" r="4" fill="#2F6BFF" opacity="0.72"/><circle cx="248.38" cy="444.80" r="4" fill="#2F6BFF" opacity="0.72"/><circle cx="279.48" cy="444.80" r="4" fill="#2F6BFF" opacity="0.72"/><circle cx="251.04" cy="444.80" r="4" fill="#D96C06" opacity="0.72"/><circle cx="284.51" cy="444.80" r="4" fill="#2F6BFF" opacity="0.72"/><circle cx="285.12" cy="444.80" r="4" fill="#2F6BFF" opacity="0.72"/><circle cx="469.22" cy="315.20" r="4" fill="#2F6BFF" opacity="0.72"/><circle cx="396.18" cy="336.80" r="4" fill="#7557B8" opacity="0.72"/><circle cx="517.86" cy="293.60" r="4" fill="#7557B8" opacity="0.72"/><circle cx="439.36" cy="293.60" r="4" fill="#D96C06" opacity="0.72"/><circle cx="309.17" cy="401.60" r="4" fill="#2F6BFF" opacity="0.72"/><circle cx="248.38" cy="423.20" r="4" fill="#2F6BFF" opacity="0.72"/><circle cx="321.12" cy="380.00" r="4" fill="#2F6BFF" opacity="0.72"/><circle cx="269.25" cy="444.80" r="4" fill="#7557B8" opacity="0.72"/><circle cx="323.98" cy="444.80" r="4" fill="#2F6BFF" opacity="0.72"/><circle cx="299.75" cy="444.80" r="4" fill="#2F6BFF" opacity="0.72"/><circle cx="287.53" cy="444.80" r="4" fill="#D96C06" opacity="0.72"/><circle cx="293.84" cy="444.80" r="4" fill="#D96C06" opacity="0.72"/><circle cx="82.00" cy="488.00" r="4" fill="#2F6BFF" opacity="0.72"/><circle cx="161.94" cy="488.00" r="4" fill="#2F6BFF" opacity="0.72"/><circle cx="268.53" cy="444.80" r="4" fill="#2F6BFF" opacity="0.72"/><circle cx="180.25" cy="444.80" r="4" fill="#2F6BFF" opacity="0.72"/><circle cx="130.19" cy="488.00" r="4" fill="#2F6BFF" opacity="0.72"/><circle cx="296.57" cy="444.80" r="4" fill="#D96C06" opacity="0.72"/><circle cx="200.19" cy="488.00" r="4" fill="#2F6BFF" opacity="0.72"/><circle cx="294.39" cy="444.80" r="4" fill="#2F6BFF" opacity="0.72"/><circle cx="314.22" cy="401.60" r="4" fill="#7557B8" opacity="0.72"/><circle cx="325.18" cy="401.60" r="4" fill="#2F6BFF" opacity="0.72"/><circle cx="378.94" cy="401.60" r="4" fill="#2F6BFF" opacity="0.72"/><circle cx="340.58" cy="444.80" r="4" fill="#2F6BFF" opacity="0.72"/><circle cx="369.48" cy="444.80" r="4" fill="#2F6BFF" opacity="0.72"/><circle cx="270.68" cy="444.80" r="4" fill="#7557B8" opacity="0.72"/><circle cx="255.31" cy="444.80" r="4" fill="#7557B8" opacity="0.72"/><circle cx="508.31" cy="358.40" r="4" fill="#2F6BFF" opacity="0.72"/><circle cx="282.03" cy="401.60" r="4" fill="#2F6BFF" opacity="0.72"/><circle cx="360.61" cy="444.80" r="4" fill="#2F6BFF" opacity="0.72"/><circle cx="520.96" cy="401.60" r="4" fill="#7557B8" opacity="0.72"/><circle cx="705.83" cy="56.00" r="4" fill="#2F6BFF" opacity="0.72"/><circle cx="336.78" cy="444.80" r="4" fill="#2F6BFF" opacity="0.72"/><circle cx="207.39" cy="401.60" r="4" fill="#2F6BFF" opacity="0.72"/><circle cx="326.37" cy="444.80" r="4" fill="#2F6BFF" opacity="0.72"/><circle cx="304.83" cy="444.80" r="4" fill="#D96C06" opacity="0.72"/><circle cx="315.99" cy="444.80" r="4" fill="#2F6BFF" opacity="0.72"/><circle cx="323.58" cy="444.80" r="4" fill="#2F6BFF" opacity="0.72"/><circle cx="502.96" cy="336.80" r="4" fill="#2F6BFF" opacity="0.72"/><circle cx="324.78" cy="401.60" r="4" fill="#2F6BFF" opacity="0.72"/><circle cx="448.19" cy="315.20" r="4" fill="#2F6BFF" opacity="0.72"/><circle cx="282.66" cy="488.00" r="4" fill="#2F6BFF" opacity="0.72"/><circle cx="307.26" cy="401.60" r="4" fill="#2F6BFF" opacity="0.72"/><circle cx="338.52" cy="401.60" r="4" fill="#2F6BFF" opacity="0.72"/><circle cx="296.03" cy="401.60" r="4" fill="#2F6BFF" opacity="0.72"/><circle cx="283.90" cy="401.60" r="4" fill="#2F6BFF" opacity="0.72"/><circle cx="334.28" cy="358.40" r="4" fill="#7557B8" opacity="0.72"/><circle cx="299.75" cy="358.40" r="4" fill="#7557B8" opacity="0.72"/><circle cx="339.90" cy="358.40" r="4" fill="#2F6BFF" opacity="0.72"/><circle cx="315.11" cy="358.40" r="4" fill="#2F6BFF" opacity="0.72"/><circle cx="318.59" cy="358.40" r="4" fill="#2F6BFF" opacity="0.72"/><circle cx="318.59" cy="423.20" r="4" fill="#7557B8" opacity="0.72"/><circle cx="345.19" cy="315.20" r="4" fill="#2F6BFF" opacity="0.72"/><circle cx="322.76" cy="444.80" r="4" fill="#7557B8" opacity="0.72"/><circle cx="320.28" cy="444.80" r="4" fill="#7557B8" opacity="0.72"/><circle cx="270.68" cy="444.80" r="4" fill="#7557B8" opacity="0.72"/><circle cx="310.11" cy="444.80" r="4" fill="#2F6BFF" opacity="0.72"/><circle cx="351.12" cy="401.60" r="4" fill="#2F6BFF" opacity="0.72"/><circle cx="289.29" cy="466.40" r="4" fill="#2F6BFF" opacity="0.72"/><circle cx="304.83" cy="444.80" r="4" fill="#2F6BFF" opacity="0.72"/><circle cx="390.58" cy="444.80" r="4" fill="#2F6BFF" opacity="0.72"/><circle cx="443.20" cy="444.80" r="4" fill="#2F6BFF" opacity="0.72"/><circle cx="372.42" cy="380.00" r="4" fill="#2F6BFF" opacity="0.72"/><circle cx="354.68" cy="401.60" r="4" fill="#7557B8" opacity="0.72"/><circle cx="305.81" cy="444.80" r="4" fill="#2F6BFF" opacity="0.72"/><circle cx="296.57" cy="423.20" r="4" fill="#2F6BFF" opacity="0.72"/><circle cx="596.69" cy="207.20" r="4" fill="#7557B8" opacity="0.72"/><circle cx="478.52" cy="293.60" r="4" fill="#7557B8" opacity="0.72"/><circle cx="534.88" cy="207.20" r="4" fill="#7557B8" opacity="0.72"/><circle cx="571.27" cy="164.00" r="4" fill="#7557B8" opacity="0.72"/><circle cx="541.90" cy="207.20" r="4" fill="#7557B8" opacity="0.72"/><circle cx="543.60" cy="207.20" r="4" fill="#7557B8" opacity="0.72"/><circle cx="634.26" cy="99.20" r="4" fill="#7557B8" opacity="0.72"/><circle cx="682.55" cy="142.40" r="4" fill="#7557B8" opacity="0.72"/><circle cx="659.99" cy="99.20" r="4" fill="#7557B8" opacity="0.72"/><circle cx="647.25" cy="99.20" r="4" fill="#7557B8" opacity="0.72"/><circle cx="584.84" cy="164.00" r="4" fill="#7557B8" opacity="0.72"/><circle cx="669.21" cy="99.20" r="4" fill="#7557B8" opacity="0.72"/><circle cx="274.84" cy="466.40" r="4" fill="#7557B8" opacity="0.72"/><circle cx="264.07" cy="466.40" r="4" fill="#7557B8" opacity="0.72"/><circle cx="351.12" cy="444.80" r="4" fill="#2F6BFF" opacity="0.72"/><circle cx="239.93" cy="466.40" r="4" fill="#2F6BFF" opacity="0.72"/><circle cx="305.32" cy="488.00" r="4" fill="#2F6BFF" opacity="0.72"/><circle cx="280.76" cy="444.80" r="4" fill="#2F6BFF" opacity="0.72"/><circle cx="298.18" cy="466.40" r="4" fill="#2F6BFF" opacity="0.72"/><circle cx="316.43" cy="444.80" r="4" fill="#2F6BFF" opacity="0.72"/><circle cx="272.09" cy="444.80" r="4" fill="#2F6BFF" opacity="0.72"/><circle cx="594.12" cy="336.80" r="4" fill="#7557B8" opacity="0.72"/><circle cx="344.87" cy="380.00" r="4" fill="#7557B8" opacity="0.72"/><circle cx="622.14" cy="293.60" r="4" fill="#7557B8" opacity="0.72"/><circle cx="503.68" cy="336.80" r="4" fill="#5C6670" opacity="0.72"/><circle cx="260.19" cy="444.80" r="4" fill="#D96C06" opacity="0.72"/><circle cx="311.96" cy="444.80" r="4" fill="#2F6BFF" opacity="0.72"/><circle cx="333.56" cy="488.00" r="4" fill="#5C6670" opacity="0.72"/><circle cx="320.28" cy="488.00" r="4" fill="#5C6670" opacity="0.72"/><circle cx="211.47" cy="466.40" r="4" fill="#2F6BFF" opacity="0.72"/><circle cx="230.64" cy="444.80" r="4" fill="#2F6BFF" opacity="0.72"/><circle cx="326.76" cy="444.80" r="4" fill="#2F6BFF" opacity="0.72"/><circle cx="330.22" cy="444.80" r="4" fill="#2F6BFF" opacity="0.72"/><circle cx="301.30" cy="401.60" r="4" fill="#7557B8" opacity="0.72"/><circle cx="392.74" cy="315.20" r="4" fill="#2F6BFF" opacity="0.72"/><circle cx="374.09" cy="401.60" r="4" fill="#2F6BFF" opacity="0.72"/><circle cx="287.53" cy="401.60" r="4" fill="#2F6BFF" opacity="0.72"/><circle cx="334.64" cy="444.80" r="4" fill="#2F6BFF" opacity="0.72"/><circle cx="330.60" cy="466.40" r="4" fill="#2F6BFF" opacity="0.72"/><circle cx="337.13" cy="466.40" r="4" fill="#2F6BFF" opacity="0.72"/><circle cx="332.09" cy="444.80" r="4" fill="#7557B8" opacity="0.72"/><circle cx="339.21" cy="444.80" r="4" fill="#7557B8" opacity="0.72"/><circle cx="332.46" cy="466.40" r="4" fill="#2F6BFF" opacity="0.72"/><circle cx="282.03" cy="444.80" r="4" fill="#2F6BFF" opacity="0.72"/><circle cx="275.52" cy="444.80" r="4" fill="#2F6BFF" opacity="0.72"/><circle cx="320.28" cy="423.20" r="4" fill="#2F6BFF" opacity="0.72"/><circle cx="448.19" cy="444.80" r="4" fill="#2F6BFF" opacity="0.72"/><circle cx="301.30" cy="466.40" r="4" fill="#2F6BFF" opacity="0.72"/><circle cx="315.55" cy="444.80" r="4" fill="#2F6BFF" opacity="0.72"/><circle cx="285.73" cy="444.80" r="4" fill="#2F6BFF" opacity="0.72"/><circle cx="335.36" cy="444.80" r="4" fill="#2F6BFF" opacity="0.72"/><circle cx="339.56" cy="444.80" r="4" fill="#2F6BFF" opacity="0.72"/><circle cx="325.98" cy="444.80" r="4" fill="#2F6BFF" opacity="0.72"/><circle cx="295.49" cy="466.40" r="4" fill="#2F6BFF" opacity="0.72"/><circle cx="323.17" cy="423.20" r="4" fill="#2F6BFF" opacity="0.72"/><circle cx="368.47" cy="401.60" r="4" fill="#2F6BFF" opacity="0.72"/><circle cx="354.10" cy="401.60" r="4" fill="#2F6BFF" opacity="0.72"/><circle cx="272.79" cy="444.80" r="4" fill="#2F6BFF" opacity="0.72"/><circle cx="334.28" cy="401.60" r="4" fill="#2F6BFF" opacity="0.72"/><circle cx="299.23" cy="401.60" r="4" fill="#2F6BFF" opacity="0.72"/><circle cx="331.72" cy="444.80" r="4" fill="#2F6BFF" opacity="0.72"/><circle cx="307.26" cy="444.80" r="4" fill="#2F6BFF" opacity="0.72"/><circle cx="292.72" cy="444.80" r="4" fill="#2F6BFF" opacity="0.72"/><circle cx="323.58" cy="401.60" r="4" fill="#2F6BFF" opacity="0.72"/><circle cx="304.83" cy="401.60" r="4" fill="#2F6BFF" opacity="0.72"/><circle cx="705.82" cy="56.00" r="4" fill="#7557B8" opacity="0.72"/><circle cx="256.14" cy="466.40" r="4" fill="#2F6BFF" opacity="0.72"/><circle cx="242.83" cy="488.00" r="4" fill="#2F6BFF" opacity="0.72"/><circle cx="469.57" cy="358.40" r="4" fill="#2F6BFF" opacity="0.72"/><circle cx="520.81" cy="358.40" r="4" fill="#2F6BFF" opacity="0.72"/><circle cx="281.40" cy="401.60" r="4" fill="#7557B8" opacity="0.72"/><circle cx="250.16" cy="466.40" r="4" fill="#2F6BFF" opacity="0.72"/><circle cx="229.55" cy="488.00" r="4" fill="#2F6BFF" opacity="0.72"/><circle cx="387.13" cy="488.00" r="4" fill="#2F6BFF" opacity="0.72"/><circle cx="421.66" cy="488.00" r="4" fill="#2F6BFF" opacity="0.72"/><circle cx="337.83" cy="488.00" r="4" fill="#2F6BFF" opacity="0.72"/><circle cx="436.72" cy="315.20" r="4" fill="#7557B8" opacity="0.72"/><circle cx="342.91" cy="444.80" r="4" fill="#2F6BFF" opacity="0.72"/><circle cx="282.66" cy="444.80" r="4" fill="#2F6BFF" opacity="0.72"/><circle cx="304.33" cy="444.80" r="4" fill="#2F6BFF" opacity="0.72"/><circle cx="399.86" cy="358.40" r="4" fill="#2F6BFF" opacity="0.72"/><circle cx="369.48" cy="401.60" r="4" fill="#7557B8" opacity="0.72"/><circle cx="452.01" cy="358.40" r="4" fill="#2F6BFF" opacity="0.72"/><circle cx="467.92" cy="358.40" r="4" fill="#7557B8" opacity="0.72"/><circle cx="301.81" cy="444.80" r="4" fill="#2F6BFF" opacity="0.72"/><circle cx="411.71" cy="444.80" r="4" fill="#2F6BFF" opacity="0.72"/><circle cx="597.25" cy="444.80" r="4" fill="#2F6BFF" opacity="0.72"/><circle cx="423.23" cy="444.80" r="4" fill="#2F6BFF" opacity="0.72"/><circle cx="572.75" cy="444.80" r="4" fill="#2F6BFF" opacity="0.72"/><circle cx="476.14" cy="444.80" r="4" fill="#2F6BFF" opacity="0.72"/><circle cx="500.51" cy="444.80" r="4" fill="#2F6BFF" opacity="0.72"/><circle cx="553.20" cy="444.80" r="4" fill="#2F6BFF" opacity="0.72"/><circle cx="467.83" cy="444.80" r="4" fill="#2F6BFF" opacity="0.72"/><circle cx="478.91" cy="358.40" r="4" fill="#2F6BFF" opacity="0.72"/><circle cx="284.51" cy="380.00" r="4" fill="#2F6BFF" opacity="0.72"/><circle cx="272.09" cy="423.20" r="4" fill="#2F6BFF" opacity="0.72"/><circle cx="251.91" cy="444.80" r="4" fill="#D96C06" opacity="0.72"/><circle cx="282.03" cy="401.60" r="4" fill="#2F6BFF" opacity="0.72"/><circle cx="245.65" cy="444.80" r="4" fill="#D96C06" opacity="0.72"/><circle cx="303.33" cy="401.60" r="4" fill="#2F6BFF" opacity="0.72"/><circle cx="130.19" cy="488.00" r="4" fill="#2F6BFF" opacity="0.72"/><circle cx="306.30" cy="488.00" r="4" fill="#2F6BFF" opacity="0.72"/><circle cx="434.99" cy="401.60" r="4" fill="#7557B8" opacity="0.72"/><circle cx="469.74" cy="401.60" r="4" fill="#7557B8" opacity="0.72"/><circle cx="223.90" cy="488.00" r="4" fill="#2F6BFF" opacity="0.72"/><circle cx="345.84" cy="444.80" r="4" fill="#2F6BFF" opacity="0.72"/><circle cx="318.59" cy="466.40" r="4" fill="#7557B8" opacity="0.72"/><circle cx="310.11" cy="444.80" r="4" fill="#7557B8" opacity="0.72"/><circle cx="315.11" cy="444.80" r="4" fill="#7557B8" opacity="0.72"/><circle cx="278.18" cy="444.80" r="4" fill="#2F6BFF" opacity="0.72"/><circle cx="297.11" cy="336.80" r="4" fill="#2F6BFF" opacity="0.72"/><circle cx="290.45" cy="380.00" r="4" fill="#2F6BFF" opacity="0.72"/><circle cx="275.52" cy="401.60" r="4" fill="#2F6BFF" opacity="0.72"/><circle cx="303.33" cy="358.40" r="4" fill="#2F6BFF" opacity="0.72"/><circle cx="319.44" cy="358.40" r="4" fill="#2F6BFF" opacity="0.72"/><circle cx="285.12" cy="358.40" r="4" fill="#2F6BFF" opacity="0.72"/><circle cx="272.79" cy="401.60" r="4" fill="#2F6BFF" opacity="0.72"/><circle cx="294.94" cy="401.60" r="4" fill="#2F6BFF" opacity="0.72"/><circle cx="288.71" cy="488.00" r="4" fill="#2F6BFF" opacity="0.72"/><circle cx="302.32" cy="444.80" r="4" fill="#2F6BFF" opacity="0.72"/><circle cx="283.28" cy="488.00" r="4" fill="#7557B8" opacity="0.72"/><circle cx="289.87" cy="444.80" r="4" fill="#7557B8" opacity="0.72"/><circle cx="259.39" cy="444.80" r="4" fill="#7557B8" opacity="0.72"/><circle cx="366.18" cy="444.80" r="4" fill="#2F6BFF" opacity="0.72"/><circle cx="272.09" cy="466.40" r="4" fill="#2F6BFF" opacity="0.72"/><circle cx="307.74" cy="444.80" r="4" fill="#2F6BFF" opacity="0.72"/><circle cx="249.27" cy="444.80" r="4" fill="#2F6BFF" opacity="0.72"/><circle cx="283.28" cy="444.80" r="4" fill="#2F6BFF" opacity="0.72"/><circle cx="282.66" cy="444.80" r="4" fill="#7557B8" opacity="0.72"/><circle cx="323.98" cy="488.00" r="4" fill="#2F6BFF" opacity="0.72"/><circle cx="316.43" cy="401.60" r="4" fill="#2F6BFF" opacity="0.72"/><circle cx="332.09" cy="444.80" r="4" fill="#2F6BFF" opacity="0.72"/><circle cx="292.16" cy="444.80" r="4" fill="#2F6BFF" opacity="0.72"/><circle cx="315.99" cy="444.80" r="4" fill="#7557B8" opacity="0.72"/><circle cx="303.33" cy="466.40" r="4" fill="#2F6BFF" opacity="0.72"/><circle cx="362.77" cy="444.80" r="4" fill="#2F6BFF" opacity="0.72"/><circle cx="361.97" cy="444.80" r="4" fill="#2F6BFF" opacity="0.72"/><circle cx="272.79" cy="423.20" r="4" fill="#2F6BFF" opacity="0.72"/><circle cx="329.84" cy="488.00" r="4" fill="#2F6BFF" opacity="0.72"/><circle cx="359.78" cy="444.80" r="4" fill="#2F6BFF" opacity="0.72"/><circle cx="347.42" cy="401.60" r="4" fill="#2F6BFF" opacity="0.72"/><circle cx="280.12" cy="466.40" r="4" fill="#7557B8" opacity="0.72"/><circle cx="362.50" cy="358.40" r="4" fill="#7557B8" opacity="0.72"/><circle cx="332.09" cy="358.40" r="4" fill="#2F6BFF" opacity="0.72"/><circle cx="346.16" cy="488.00" r="4" fill="#2F6BFF" opacity="0.72"/><circle cx="413.60" cy="380.00" r="4" fill="#2F6BFF" opacity="0.72"/><circle cx="382.48" cy="380.00" r="4" fill="#2F6BFF" opacity="0.72"/><circle cx="336.07" cy="444.80" r="4" fill="#2F6BFF" opacity="0.72"/><circle cx="420.22" cy="444.80" r="4" fill="#7557B8" opacity="0.72"/><circle cx="295.49" cy="444.80" r="4" fill="#2F6BFF" opacity="0.72"/><circle cx="239.93" cy="444.80" r="4" fill="#2F6BFF" opacity="0.72"/><circle cx="292.72" cy="444.80" r="4" fill="#2F6BFF" opacity="0.72"/><circle cx="369.48" cy="444.80" r="4" fill="#2F6BFF" opacity="0.72"/><circle cx="325.18" cy="444.80" r="4" fill="#2F6BFF" opacity="0.72"/><circle cx="331.72" cy="488.00" r="4" fill="#2F6BFF" opacity="0.72"/><circle cx="274.16" cy="444.80" r="4" fill="#2F6BFF" opacity="0.72"/><circle cx="309.17" cy="401.60" r="4" fill="#2F6BFF" opacity="0.72"/><circle cx="340.91" cy="444.80" r="4" fill="#2F6BFF" opacity="0.72"/><circle cx="309.17" cy="423.20" r="4" fill="#2F6BFF" opacity="0.72"/><circle cx="311.96" cy="444.80" r="4" fill="#7557B8" opacity="0.72"/><circle cx="304.33" cy="444.80" r="4" fill="#2F6BFF" opacity="0.72"/><circle cx="321.53" cy="401.60" r="4" fill="#7557B8" opacity="0.72"/><circle cx="296.57" cy="423.20" r="4" fill="#2F6BFF" opacity="0.72"/><circle cx="350.82" cy="444.80" r="4" fill="#2F6BFF" opacity="0.72"/><circle cx="302.32" cy="401.60" r="4" fill="#D96C06" opacity="0.72"/><circle cx="287.53" cy="358.40" r="4" fill="#2F6BFF" opacity="0.72"/><circle cx="394.28" cy="444.80" r="4" fill="#2F6BFF" opacity="0.72"/><circle cx="257.78" cy="444.80" r="4" fill="#2F6BFF" opacity="0.72"/><circle cx="294.39" cy="444.80" r="4" fill="#2F6BFF" opacity="0.72"/><circle cx="256.14" cy="466.40" r="4" fill="#2F6BFF" opacity="0.72"/><circle cx="310.11" cy="423.20" r="4" fill="#7557B8" opacity="0.72"/><circle cx="335.36" cy="444.80" r="4" fill="#2F6BFF" opacity="0.72"/><circle cx="303.83" cy="444.80" r="4" fill="#2F6BFF" opacity="0.72"/><circle cx="387.13" cy="444.80" r="4" fill="#2F6BFF" opacity="0.72"/><circle cx="323.98" cy="444.80" r="4" fill="#2F6BFF" opacity="0.72"/><circle cx="272.79" cy="444.80" r="4" fill="#2F6BFF" opacity="0.72"/><circle cx="355.84" cy="401.60" r="4" fill="#2F6BFF" opacity="0.72"/><circle cx="304.33" cy="444.80" r="4" fill="#D96C06" opacity="0.72"/><circle cx="272.09" cy="444.80" r="4" fill="#2F6BFF" opacity="0.72"/><circle cx="290.45" cy="444.80" r="4" fill="#2F6BFF" opacity="0.72"/><circle cx="245.65" cy="444.80" r="4" fill="#2F6BFF" opacity="0.72"/><circle cx="313.32" cy="466.40" r="4" fill="#7557B8" opacity="0.72"/><circle cx="415.14" cy="315.20" r="4" fill="#2F6BFF" opacity="0.72"/><circle cx="301.30" cy="444.80" r="4" fill="#2F6BFF" opacity="0.72"/><circle cx="402.00" cy="315.20" r="4" fill="#2F6BFF" opacity="0.72"/><circle cx="296.57" cy="444.80" r="4" fill="#7557B8" opacity="0.72"/><circle cx="338.52" cy="401.60" r="4" fill="#2F6BFF" opacity="0.72"/><circle cx="374.56" cy="401.60" r="4" fill="#D96C06" opacity="0.72"/><circle cx="451.07" cy="358.40" r="4" fill="#2F6BFF" opacity="0.72"/><circle cx="347.11" cy="401.60" r="4" fill="#2F6BFF" opacity="0.72"/><circle cx="319.02" cy="444.80" r="4" fill="#D96C06" opacity="0.72"/><circle cx="398.95" cy="401.60" r="4" fill="#2F6BFF" opacity="0.72"/><circle cx="325.18" cy="444.80" r="4" fill="#2F6BFF" opacity="0.72"/><circle cx="322.36" cy="444.80" r="4" fill="#2F6BFF" opacity="0.72"/><circle cx="310.11" cy="401.60" r="4" fill="#2F6BFF" opacity="0.72"/><circle cx="750.00" cy="207.20" r="4" fill="#2F6BFF" opacity="0.72"/><circle cx="738.15" cy="250.40" r="4" fill="#2F6BFF" opacity="0.72"/><circle cx="356.13" cy="444.80" r="4" fill="#7557B8" opacity="0.72"/><circle cx="461.95" cy="358.40" r="4" fill="#D96C06" opacity="0.72"/><circle cx="359.78" cy="466.40" r="4" fill="#7557B8" opacity="0.72"/><circle cx="424.07" cy="488.00" r="4" fill="#2F6BFF" opacity="0.72"/><circle cx="360.61" cy="466.40" r="4" fill="#2F6BFF" opacity="0.72"/><circle cx="372.42" cy="466.40" r="4" fill="#2F6BFF" opacity="0.72"/><circle cx="384.41" cy="423.20" r="4" fill="#2F6BFF" opacity="0.72"/><circle cx="430.15" cy="444.80" r="4" fill="#2F6BFF" opacity="0.72"/><circle cx="345.19" cy="444.80" r="4" fill="#7557B8" opacity="0.72"/><circle cx="364.62" cy="444.80" r="4" fill="#D96C06" opacity="0.72"/><circle cx="484.22" cy="358.40" r="4" fill="#D96C06" opacity="0.72"/><circle cx="391.57" cy="444.80" r="4" fill="#2F6BFF" opacity="0.72"/><circle cx="380.28" cy="444.80" r="4" fill="#2F6BFF" opacity="0.72"/><circle cx="292.72" cy="444.80" r="4" fill="#7557B8" opacity="0.72"/><circle cx="462.60" cy="358.40" r="4" fill="#7557B8" opacity="0.72"/><circle cx="326.37" cy="488.00" r="4" fill="#2F6BFF" opacity="0.72"/><circle cx="403.74" cy="444.80" r="4" fill="#7557B8" opacity="0.72"/><circle cx="245.65" cy="444.80" r="4" fill="#2F6BFF" opacity="0.72"/><circle cx="300.79" cy="488.00" r="4" fill="#7557B8" opacity="0.72"/><circle cx="303.83" cy="488.00" r="4" fill="#2F6BFF" opacity="0.72"/><circle cx="339.21" cy="444.80" r="4" fill="#2F6BFF" opacity="0.72"/><circle cx="159.66" cy="488.00" r="4" fill="#7557B8" opacity="0.72"/><circle cx="351.12" cy="358.40" r="4" fill="#2F6BFF" opacity="0.72"/><circle cx="278.18" cy="444.80" r="4" fill="#2F6BFF" opacity="0.72"/><circle cx="308.70" cy="444.80" r="4" fill="#2F6BFF" opacity="0.72"/><circle cx="277.52" cy="444.80" r="4" fill="#7557B8" opacity="0.72"/><circle cx="293.84" cy="444.80" r="4" fill="#2F6BFF" opacity="0.72"/><circle cx="364.36" cy="380.00" r="4" fill="#2F6BFF" opacity="0.72"/><circle cx="251.91" cy="444.80" r="4" fill="#D96C06" opacity="0.72"/><circle cx="295.49" cy="401.60" r="4" fill="#2F6BFF" opacity="0.72"/><circle cx="293.84" cy="444.80" r="4" fill="#D96C06" opacity="0.72"/><circle cx="303.33" cy="401.60" r="4" fill="#2F6BFF" opacity="0.72"/><circle cx="293.84" cy="423.20" r="4" fill="#2F6BFF" opacity="0.72"/><circle cx="399.50" cy="423.20" r="4" fill="#D96C06" opacity="0.72"/><circle cx="296.57" cy="444.80" r="4" fill="#2F6BFF" opacity="0.72"/><circle cx="211.47" cy="444.80" r="4" fill="#2F6BFF" opacity="0.72"/><circle cx="228.44" cy="488.00" r="4" fill="#7557B8" opacity="0.72"/><circle cx="458.62" cy="315.20" r="4" fill="#7557B8" opacity="0.72"/><circle cx="288.12" cy="401.60" r="4" fill="#2F6BFF" opacity="0.72"/><circle cx="288.12" cy="444.80" r="4" fill="#5C6670" opacity="0.72"/><circle cx="371.69" cy="358.40" r="4" fill="#7557B8" opacity="0.72"/><circle cx="423.51" cy="336.80" r="4" fill="#7557B8" opacity="0.72"/><circle cx="304.83" cy="401.60" r="4" fill="#7557B8" opacity="0.72"/><circle cx="474.19" cy="315.20" r="4" fill="#2F6BFF" opacity="0.72"/><circle cx="480.15" cy="293.60" r="4" fill="#7557B8" opacity="0.72"/><circle cx="250.16" cy="444.80" r="4" fill="#2F6BFF" opacity="0.72"/><circle cx="302.32" cy="444.80" r="4" fill="#5C6670" opacity="0.72"/><circle cx="358.39" cy="358.40" r="4" fill="#5C6670" opacity="0.72"/><circle cx="293.84" cy="444.80" r="4" fill="#2F6BFF" opacity="0.72"/><circle cx="306.78" cy="444.80" r="4" fill="#2F6BFF" opacity="0.72"/><circle cx="278.18" cy="466.40" r="4" fill="#2F6BFF" opacity="0.72"/><rect x="775" y="52" width="12" height="12" fill="#2F6BFF"/><text x="793.00" y="63.00" font-family="Inter, Arial, sans-serif" font-size="11" fill="#1F2933" text-anchor="start" font-weight="400">correct only</text><rect x="775" y="73" width="12" height="12" fill="#D96C06"/><text x="793.00" y="84.00" font-family="Inter, Arial, sans-serif" font-size="11" fill="#1F2933" text-anchor="start" font-weight="400">under</text><rect x="775" y="94" width="12" height="12" fill="#7557B8"/><text x="793.00" y="105.00" font-family="Inter, Arial, sans-serif" font-size="11" fill="#1F2933" text-anchor="start" font-weight="400">over</text><rect x="775" y="115" width="12" height="12" fill="#C43C39"/><text x="793.00" y="126.00" font-family="Inter, Arial, sans-serif" font-size="11" fill="#1F2933" text-anchor="start" font-weight="400">under+over</text><rect x="775" y="136" width="12" height="12" fill="#5C6670"/><text x="793.00" y="147.00" font-family="Inter, Arial, sans-serif" font-size="11" fill="#1F2933" text-anchor="start" font-weight="400">timeout</text><line x1="82" y1="488" x2="750" y2="488" stroke="#1F2933"/><line x1="82" y1="56" x2="82" y2="488" stroke="#1F2933"/><text x="416.00" y="538.00" font-family="Inter, Arial, sans-serif" font-size="12" fill="#1F2933" text-anchor="middle" font-weight="400">schema_json_chars (log)</text><text x="22.00" y="272.00" font-family="Inter, Arial, sans-serif" font-size="12" fill="#1F2933" text-anchor="middle" font-weight="400">schema_depth</text></svg>
