<svg xmlns="http://www.w3.org/2000/svg" width="860" height="520" viewBox="0 0 860 520" role="img" aria-label="Schema size ECDF: completed vs timeout"><rect width="100%" height="100%" fill="#FFFFFF"/><text x="24.00" y="30.00" font-family="Inter, Arial, sans-serif" font-size="17" fill="#1F2933" text-anchor="start" font-weight="700">Schema size ECDF: completed vs timeout</text><line x1="78.00" y1="56" x2="78.00" y2="452" stroke="#D9DEE5"/><line x1="78" y1="56.00" x2="826" y2="56.00" stroke="#D9DEE5"/><line x1="227.60" y1="56" x2="227.60" y2="452" stroke="#D9DEE5"/><line x1="78" y1="135.20" x2="826" y2="135.20" stroke="#D9DEE5"/><line x1="377.20" y1="56" x2="377.20" y2="452" stroke="#D9DEE5"/><line x1="78" y1="214.40" x2="826" y2="214.40" stroke="#D9DEE5"/><line x1="526.80" y1="56" x2="526.80" y2="452" stroke="#D9DEE5"/><line x1="78" y1="293.60" x2="826" y2="293.60" stroke="#D9DEE5"/><line x1="676.40" y1="56" x2="676.40" y2="452" stroke="#D9DEE5"/><line x1="78" y1="372.80" x2="826" y2="372.80" stroke="#D9DEE5"/><line x1="826.00" y1="56" x2="826.00" y2="452" stroke="#D9DEE5"/><line x1="78" y1="452.00" x2="826" y2="452.00" stroke="#D9DEE5"/><polyline points="78.00,450.90 131.96,449.79 131.96,448.69 164.96,447.59 167.51,446.48 188.02,445.38 210.34,444.28 212.01,443.18 218.41,442.07 222.97,440.97 222.97,439.87 236.89,438.76 241.98,437.66 243.22,436.56 244.44,435.45 244.44,434.35 249.19,433.25 254.84,432.14 254.84,431.04 257.02,429.94 258.09,428.84 261.24,427.73 261.24,426.63 261.24,425.53 264.31,424.42 264.31,423.32 264.31,422.22 265.31,421.11 266.30,420.01 266.30,418.91 266.30,417.81 267.28,416.70 268.26,415.60 268.26,414.50 269.22,413.39 272.06,412.29 272.06,411.19 272.99,410.08 272.99,408.98 274.83,407.88 276.64,406.77 277.53,405.67 281.88,404.57 286.05,403.47 286.87,402.36 287.68,401.26 288.48,400.16 289.28,399.05 289.28,397.95 290.85,396.85 290.85,395.74 290.85,394.64 290.85,393.54 291.63,392.43 291.63,391.33 291.63,390.23 291.63,389.13 293.18,388.02 293.18,386.92 293.94,385.82 293.94,384.71 294.70,383.61 294.70,382.51 295.45,381.40 296.20,380.30 296.94,379.20 296.94,378.09 297.67,376.99 297.67,375.89 297.67,374.79 299.13,373.68 299.13,372.58 299.85,371.48 300.57,370.37 301.28,369.27 301.99,368.17 301.99,367.06 301.99,365.96 301.99,364.86 302.69,363.75 302.69,362.65 302.69,361.55 303.38,360.45 303.38,359.34 304.08,358.24 304.77,357.14 304.77,356.03 305.45,354.93 305.45,353.83 306.13,352.72 306.13,351.62 308.14,350.52 308.14,349.42 308.14,348.31 308.80,347.21 309.46,346.11 310.12,345.00 310.77,343.90 310.77,342.80 311.41,341.69 311.41,340.59 311.41,339.49 313.33,338.38 313.33,337.28 313.96,336.18 313.96,335.08 313.96,333.97 315.21,332.87 315.21,331.77 315.21,330.66 315.21,329.56 315.21,328.46 315.83,327.35 315.83,326.25 316.44,325.15 317.06,324.04 317.06,322.94 317.06,321.84 317.66,320.74 318.27,319.63 318.27,318.53 318.27,317.43 318.27,316.32 318.27,315.22 318.87,314.12 320.07,313.01 320.07,311.91 321.25,310.81 321.83,309.70 321.83,308.60 322.99,307.50 323.57,306.40 323.57,305.29 323.57,304.19 324.14,303.09 324.71,301.98 324.71,300.88 325.84,299.78 325.84,298.67 325.84,297.57 325.84,296.47 326.40,295.36 326.40,294.26 326.40,293.16 326.96,292.06 326.96,290.95 326.96,289.85 326.96,288.75 327.51,287.64 327.51,286.54 327.51,285.44 327.51,284.33 328.06,283.23 328.06,282.13 328.61,281.03 329.16,279.92 329.70,278.82 330.24,277.72 330.24,276.61 330.24,275.51 330.78,274.41 331.31,273.30 331.85,272.20 332.38,271.10 332.38,269.99 332.38,268.89 333.43,267.79 333.43,266.69 333.43,265.58 333.43,264.48 334.98,263.38 335.50,262.27 335.50,261.17 337.03,260.07 338.03,258.96 339.03,257.86 339.03,256.76 339.03,255.65 339.52,254.55 340.02,253.45 340.02,252.35 340.51,251.24 340.51,250.14 341.48,249.04 342.44,247.93 342.44,246.83 342.92,245.73 342.92,244.62 342.92,243.52 343.40,242.42 343.88,241.31 344.35,240.21 344.82,239.11 344.82,238.01 345.75,236.90 346.22,235.80 347.14,234.70 347.60,233.59 348.06,232.49 348.51,231.39 348.51,230.28 348.96,229.18 348.96,228.08 348.96,226.97 349.86,225.87 350.31,224.77 350.31,223.67 350.31,222.56 351.20,221.46 351.64,220.36 351.64,219.25 352.08,218.15 355.53,217.05 355.95,215.94 356.37,214.84 357.63,213.74 357.63,212.64 358.04,211.53 358.04,210.43 358.04,209.33 358.45,208.22 359.69,207.12 360.09,206.02 360.50,204.91 360.50,203.81 360.90,202.71 361.71,201.60 361.71,200.50 361.71,199.40 362.50,198.30 363.29,197.19 363.69,196.09 364.47,194.99 365.25,193.88 365.25,192.78 366.02,191.68 366.02,190.57 366.40,189.47 366.78,188.37 367.54,187.26 367.92,186.16 370.16,185.06 370.53,183.96 372.35,182.85 372.72,181.75 372.72,180.65 373.43,179.54 373.79,178.44 374.86,177.34 375.21,176.23 376.26,175.13 378.33,174.03 379.01,172.92 379.35,171.82 379.35,170.72 379.35,169.62 379.35,168.51 382.69,167.41 383.34,166.31 383.67,165.20 384.64,164.10 384.96,163.00 389.05,161.89 389.05,160.79 389.97,159.69 389.97,158.58 391.49,157.48 392.10,156.38 392.40,155.28 394.18,154.17 394.47,153.07 396.22,151.97 398.78,150.86 399.90,149.76 399.90,148.66 399.90,147.55 402.38,146.45 403.20,145.35 403.20,144.25 405.07,143.14 405.60,142.04 410.50,140.94 412.00,139.83 414.46,138.73 416.62,137.63 417.81,136.52 419.67,135.42 419.67,134.32 423.53,133.21 424.64,132.11 424.64,131.01 425.96,129.91 427.68,128.80 429.81,127.70 432.91,126.60 433.52,125.49 433.92,124.39 436.32,123.29 438.28,122.18 447.19,121.08 449.31,119.98 451.04,118.87 451.04,117.77 456.73,116.67 458.34,115.57 460.09,114.46 460.41,113.36 461.03,112.26 467.84,111.15 473.27,110.05 475.20,108.95 478.16,107.84 482.46,106.74 483.98,105.64 488.05,104.53 488.05,103.43 491.27,102.33 492.32,101.23 499.72,100.12 503.45,99.02 504.18,97.92 510.04,96.81 510.14,95.71 511.60,94.61 511.98,93.50 512.18,92.40 516.33,91.30 517.16,90.19 519.34,89.09 522.01,87.99 522.45,86.89 523.84,85.78 528.39,84.68 546.63,83.58 549.37,82.47 555.36,81.37 566.06,80.27 569.37,79.16 569.53,78.06 585.11,76.96 592.97,75.86 594.88,74.75 605.63,73.65 625.87,72.55 627.53,71.44 641.07,70.34 651.45,69.24 654.33,68.13 654.95,67.03 682.83,65.93 696.40,64.82 710.94,63.72 725.21,62.62 735.53,61.52 750.47,60.41 776.53,59.31 776.54,58.21 812.73,57.10 826.00,56.00" fill="none" stroke="#2F6BFF" stroke-width="2.5"/><rect x="690" y="50" width="12" height="12" fill="#2F6BFF"/><text x="708.00" y="61.00" font-family="Inter, Arial, sans-serif" font-size="11" fill="#1F2933" text-anchor="start" font-weight="400">completed (n=359)</text><polyline points="308.80,386.00 324.71,320.00 344.82,254.00 359.69,188.00 387.50,122.00 550.18,56.00" fill="none" stroke="#C43C39" stroke-width="2.5"/><rect x="690" y="70" width="12" height="12" fill="#C43C39"/><text x="708.00" y="81.00" font-family="Inter, Arial, sans-serif" font-size="11" fill="#1F2933" text-anchor="start" font-weight="400">timeout (n=6)</text><text x="452.00" y="498.00" font-family="Inter, Arial, sans-serif" font-size="12" fill="#1F2933" text-anchor="middle" font-weight="400">schema_json_chars (log)</text><text x="22.00" y="254.00" font-family="Inter, Arial, sans-serif" font-size="12" fill="#1F2933" text-anchor="middle" font-weight="400">ECDF</text></svg>
