<svg xmlns="http://www.w3.org/2000/svg" width="760" height="500" viewBox="0 0 760 500" role="img" aria-label="Validation time by result case"><rect width="100%" height="100%" fill="#FFFFFF"/><text x="24.00" y="30.00" font-family="Inter, Arial, sans-serif" font-size="17" fill="#1F2933" text-anchor="start" font-weight="700">Validation time by result case</text><line x1="76" y1="428.00" x2="726" y2="428.00" stroke="#D9DEE5"/><text x="68.00" y="432.00" font-family="Inter, Arial, sans-serif" font-size="10" fill="#1F2933" text-anchor="end" font-weight="400">0</text><line x1="76" y1="353.60" x2="726" y2="353.60" stroke="#D9DEE5"/><text x="68.00" y="357.60" font-family="Inter, Arial, sans-serif" font-size="10" fill="#1F2933" text-anchor="end" font-weight="400">0.2</text><line x1="76" y1="279.20" x2="726" y2="279.20" stroke="#D9DEE5"/><text x="68.00" y="283.20" font-family="Inter, Arial, sans-serif" font-size="10" fill="#1F2933" text-anchor="end" font-weight="400">0.4</text><line x1="76" y1="204.80" x2="726" y2="204.80" stroke="#D9DEE5"/><text x="68.00" y="208.80" font-family="Inter, Arial, sans-serif" font-size="10" fill="#1F2933" text-anchor="end" font-weight="400">0.6</text><line x1="76" y1="130.40" x2="726" y2="130.40" stroke="#D9DEE5"/><text x="68.00" y="134.40" font-family="Inter, Arial, sans-serif" font-size="10" fill="#1F2933" text-anchor="end" font-weight="400">0.8</text><line x1="76" y1="56.00" x2="726" y2="56.00" stroke="#D9DEE5"/><text x="68.00" y="60.00" font-family="Inter, Arial, sans-serif" font-size="10" fill="#1F2933" text-anchor="end" font-weight="400">1</text><line x1="141.00" y1="427.99" x2="141.00" y2="103.70" stroke="#5C6670" stroke-width="2"/><rect x="111.75" y="408.27" width="58.50" height="19.66" fill="#008C7D" opacity="0.7" stroke="#1F2933"/><line x1="111.75" y1="419.51" x2="170.25" y2="419.51" stroke="#1F2933" stroke-width="2"/><text x="141.00" y="466.00" font-family="Inter, Arial, sans-serif" font-size="11" fill="#1F2933" text-anchor="middle" font-weight="400">correct_accept (n=335)</text><line x1="271.00" y1="428.00" x2="271.00" y2="209.08" stroke="#5C6670" stroke-width="2"/><rect x="241.75" y="427.20" width="58.50" height="1.00" fill="#008C7D" opacity="0.7" stroke="#1F2933"/><line x1="241.75" y1="427.96" x2="300.25" y2="427.96" stroke="#1F2933" stroke-width="2"/><text x="271.00" y="466.00" font-family="Inter, Arial, sans-serif" font-size="11" fill="#1F2933" text-anchor="middle" font-weight="400">correct_reject (n=653)</text><line x1="401.00" y1="427.94" x2="401.00" y2="340.83" stroke="#5C6670" stroke-width="2"/><rect x="371.75" y="400.54" width="58.50" height="27.35" fill="#008C7D" opacity="0.7" stroke="#1F2933"/><line x1="371.75" y1="418.45" x2="430.25" y2="418.45" stroke="#1F2933" stroke-width="2"/><text x="401.00" y="466.00" font-family="Inter, Arial, sans-serif" font-size="11" fill="#1F2933" text-anchor="middle" font-weight="400">under_constraint (n=47)</text><line x1="531.00" y1="428.00" x2="531.00" y2="248.08" stroke="#5C6670" stroke-width="2"/><rect x="501.75" y="420.98" width="58.50" height="7.01" fill="#008C7D" opacity="0.7" stroke="#1F2933"/><line x1="501.75" y1="427.99" x2="560.25" y2="427.99" stroke="#1F2933" stroke-width="2"/><text x="531.00" y="466.00" font-family="Inter, Arial, sans-serif" font-size="11" fill="#1F2933" text-anchor="middle" font-weight="400">over_constraint (n=73)</text><text x="24.00" y="242.00" font-family="Inter, Arial, sans-serif" font-size="12" fill="#1F2933" text-anchor="middle" font-weight="400">validation_loop_s</text></svg>
