<?xml version="1.0" encoding="utf-8" standalone="no"?>
<!DOCTYPE svg PUBLIC "-//W3C//DTD SVG 1.1//EN"
  "http://www.w3.org/Graphics/SVG/1.1/DTD/svg11.dtd">
<svg xmlns:xlink="http://www.w3.org/1999/xlink" width="743.163589pt" height="596.634062pt" viewBox="0 0 743.163589 596.634062" xmlns="http://www.w3.org/2000/svg" version="1.1">
 <metadata>
  <rdf:RDF xmlns:dc="http://purl.org/dc/elements/1.1/" xmlns:cc="http://creativecommons.org/ns#" xmlns:rdf="http://www.w3.org/1999/02/22-rdf-syntax-ns#">
   <cc:Work>
    <dc:type rdf:resource="http://purl.org/dc/dcmitype/StillImage"/>
    <dc:date>2026-07-22T11:01:47.069686</dc:date>
    <dc:format>image/svg+xml</dc:format>
    <dc:creator>
     <cc:Agent>
      <dc:title>Matplotlib v3.10.1+dfsg1, https://matplotlib.org/</dc:title>
     </cc:Agent>
    </dc:creator>
   </cc:Work>
  </rdf:RDF>
 </metadata>
 <defs>
  <style type="text/css">*{stroke-linejoin: round; stroke-linecap: butt}</style>
 </defs>
 <g id="figure_1">
  <g id="patch_1">
   <path d="M 0 596.634062 
L 743.163589 596.634062 
L 743.163589 0 
L 0 0 
z
" style="fill: #ffffff"/>
  </g>
  <g id="axes_1">
   <g id="patch_2">
    <path d="M 106.935938 559.077812 
L 724.166347 559.077812 
L 724.166347 29.837813 
L 106.935938 29.837813 
z
" style="fill: #ffffff"/>
   </g>
   <g id="matplotlib.axis_1">
    <g id="xtick_1">
     <g id="line2d_1">
      <path d="M 106.935938 559.077812 
L 106.935938 29.837813 
" clip-path="url(#p3886a6cc3d)" style="fill: none; stroke: #d9dee5; stroke-width: 0.8; stroke-linecap: square"/>
     </g>
     <g id="line2d_2">
      <defs>
       <path id="m578f8ac383" d="M 0 0 
L 0 3.5 
" style="stroke: #000000; stroke-width: 0.8"/>
      </defs>
      <g>
       <use xlink:href="#m578f8ac383" x="106.935938" y="559.077812" style="stroke: #000000; stroke-width: 0.8"/>
      </g>
     </g>
     <g id="text_1">
      <!-- 0 -->
      <g transform="translate(103.754688 573.67625) scale(0.1 -0.1)">
       <defs>
        <path id="DejaVuSans-30" d="M 2034 4250 
Q 1547 4250 1301 3770 
Q 1056 3291 1056 2328 
Q 1056 1369 1301 889 
Q 1547 409 2034 409 
Q 2525 409 2770 889 
Q 3016 1369 3016 2328 
Q 3016 3291 2770 3770 
Q 2525 4250 2034 4250 
z
M 2034 4750 
Q 2819 4750 3233 4129 
Q 3647 3509 3647 2328 
Q 3647 1150 3233 529 
Q 2819 -91 2034 -91 
Q 1250 -91 836 529 
Q 422 1150 422 2328 
Q 422 3509 836 4129 
Q 1250 4750 2034 4750 
z
" transform="scale(0.015625)"/>
       </defs>
       <use xlink:href="#DejaVuSans-30"/>
      </g>
     </g>
    </g>
    <g id="xtick_2">
     <g id="line2d_3">
      <path d="M 231.795745 559.077812 
L 231.795745 29.837813 
" clip-path="url(#p3886a6cc3d)" style="fill: none; stroke: #d9dee5; stroke-width: 0.8; stroke-linecap: square"/>
     </g>
     <g id="line2d_4">
      <g>
       <use xlink:href="#m578f8ac383" x="231.795745" y="559.077812" style="stroke: #000000; stroke-width: 0.8"/>
      </g>
     </g>
     <g id="text_2">
      <!-- 2 -->
      <g transform="translate(228.614495 573.67625) scale(0.1 -0.1)">
       <defs>
        <path id="DejaVuSans-32" d="M 1228 531 
L 3431 531 
L 3431 0 
L 469 0 
L 469 531 
Q 828 903 1448 1529 
Q 2069 2156 2228 2338 
Q 2531 2678 2651 2914 
Q 2772 3150 2772 3378 
Q 2772 3750 2511 3984 
Q 2250 4219 1831 4219 
Q 1534 4219 1204 4116 
Q 875 4013 500 3803 
L 500 4441 
Q 881 4594 1212 4672 
Q 1544 4750 1819 4750 
Q 2544 4750 2975 4387 
Q 3406 4025 3406 3419 
Q 3406 3131 3298 2873 
Q 3191 2616 2906 2266 
Q 2828 2175 2409 1742 
Q 1991 1309 1228 531 
z
" transform="scale(0.015625)"/>
       </defs>
       <use xlink:href="#DejaVuSans-32"/>
      </g>
     </g>
    </g>
    <g id="xtick_3">
     <g id="line2d_5">
      <path d="M 356.655552 559.077812 
L 356.655552 29.837813 
" clip-path="url(#p3886a6cc3d)" style="fill: none; stroke: #d9dee5; stroke-width: 0.8; stroke-linecap: square"/>
     </g>
     <g id="line2d_6">
      <g>
       <use xlink:href="#m578f8ac383" x="356.655552" y="559.077812" style="stroke: #000000; stroke-width: 0.8"/>
      </g>
     </g>
     <g id="text_3">
      <!-- 4 -->
      <g transform="translate(353.474302 573.67625) scale(0.1 -0.1)">
       <defs>
        <path id="DejaVuSans-34" d="M 2419 4116 
L 825 1625 
L 2419 1625 
L 2419 4116 
z
M 2253 4666 
L 3047 4666 
L 3047 1625 
L 3713 1625 
L 3713 1100 
L 3047 1100 
L 3047 0 
L 2419 0 
L 2419 1100 
L 313 1100 
L 313 1709 
L 2253 4666 
z
" transform="scale(0.015625)"/>
       </defs>
       <use xlink:href="#DejaVuSans-34"/>
      </g>
     </g>
    </g>
    <g id="xtick_4">
     <g id="line2d_7">
      <path d="M 481.515359 559.077812 
L 481.515359 29.837813 
" clip-path="url(#p3886a6cc3d)" style="fill: none; stroke: #d9dee5; stroke-width: 0.8; stroke-linecap: square"/>
     </g>
     <g id="line2d_8">
      <g>
       <use xlink:href="#m578f8ac383" x="481.515359" y="559.077812" style="stroke: #000000; stroke-width: 0.8"/>
      </g>
     </g>
     <g id="text_4">
      <!-- 6 -->
      <g transform="translate(478.334109 573.67625) scale(0.1 -0.1)">
       <defs>
        <path id="DejaVuSans-36" d="M 2113 2584 
Q 1688 2584 1439 2293 
Q 1191 2003 1191 1497 
Q 1191 994 1439 701 
Q 1688 409 2113 409 
Q 2538 409 2786 701 
Q 3034 994 3034 1497 
Q 3034 2003 2786 2293 
Q 2538 2584 2113 2584 
z
M 3366 4563 
L 3366 3988 
Q 3128 4100 2886 4159 
Q 2644 4219 2406 4219 
Q 1781 4219 1451 3797 
Q 1122 3375 1075 2522 
Q 1259 2794 1537 2939 
Q 1816 3084 2150 3084 
Q 2853 3084 3261 2657 
Q 3669 2231 3669 1497 
Q 3669 778 3244 343 
Q 2819 -91 2113 -91 
Q 1303 -91 875 529 
Q 447 1150 447 2328 
Q 447 3434 972 4092 
Q 1497 4750 2381 4750 
Q 2619 4750 2861 4703 
Q 3103 4656 3366 4563 
z
" transform="scale(0.015625)"/>
       </defs>
       <use xlink:href="#DejaVuSans-36"/>
      </g>
     </g>
    </g>
    <g id="xtick_5">
     <g id="line2d_9">
      <path d="M 606.375166 559.077812 
L 606.375166 29.837813 
" clip-path="url(#p3886a6cc3d)" style="fill: none; stroke: #d9dee5; stroke-width: 0.8; stroke-linecap: square"/>
     </g>
     <g id="line2d_10">
      <g>
       <use xlink:href="#m578f8ac383" x="606.375166" y="559.077812" style="stroke: #000000; stroke-width: 0.8"/>
      </g>
     </g>
     <g id="text_5">
      <!-- 8 -->
      <g transform="translate(603.193916 573.67625) scale(0.1 -0.1)">
       <defs>
        <path id="DejaVuSans-38" d="M 2034 2216 
Q 1584 2216 1326 1975 
Q 1069 1734 1069 1313 
Q 1069 891 1326 650 
Q 1584 409 2034 409 
Q 2484 409 2743 651 
Q 3003 894 3003 1313 
Q 3003 1734 2745 1975 
Q 2488 2216 2034 2216 
z
M 1403 2484 
Q 997 2584 770 2862 
Q 544 3141 544 3541 
Q 544 4100 942 4425 
Q 1341 4750 2034 4750 
Q 2731 4750 3128 4425 
Q 3525 4100 3525 3541 
Q 3525 3141 3298 2862 
Q 3072 2584 2669 2484 
Q 3125 2378 3379 2068 
Q 3634 1759 3634 1313 
Q 3634 634 3220 271 
Q 2806 -91 2034 -91 
Q 1263 -91 848 271 
Q 434 634 434 1313 
Q 434 1759 690 2068 
Q 947 2378 1403 2484 
z
M 1172 3481 
Q 1172 3119 1398 2916 
Q 1625 2713 2034 2713 
Q 2441 2713 2670 2916 
Q 2900 3119 2900 3481 
Q 2900 3844 2670 4047 
Q 2441 4250 2034 4250 
Q 1625 4250 1398 4047 
Q 1172 3844 1172 3481 
z
" transform="scale(0.015625)"/>
       </defs>
       <use xlink:href="#DejaVuSans-38"/>
      </g>
     </g>
    </g>
    <g id="text_6">
     <!-- lift vs schemas without feature -->
     <g transform="translate(338.23708 587.354375) scale(0.1 -0.1)">
      <defs>
       <path id="DejaVuSans-6c" d="M 603 4863 
L 1178 4863 
L 1178 0 
L 603 0 
L 603 4863 
z
" transform="scale(0.015625)"/>
       <path id="DejaVuSans-69" d="M 603 3500 
L 1178 3500 
L 1178 0 
L 603 0 
L 603 3500 
z
M 603 4863 
L 1178 4863 
L 1178 4134 
L 603 4134 
L 603 4863 
z
" transform="scale(0.015625)"/>
       <path id="DejaVuSans-66" d="M 2375 4863 
L 2375 4384 
L 1825 4384 
Q 1516 4384 1395 4259 
Q 1275 4134 1275 3809 
L 1275 3500 
L 2222 3500 
L 2222 3053 
L 1275 3053 
L 1275 0 
L 697 0 
L 697 3053 
L 147 3053 
L 147 3500 
L 697 3500 
L 697 3744 
Q 697 4328 969 4595 
Q 1241 4863 1831 4863 
L 2375 4863 
z
" transform="scale(0.015625)"/>
       <path id="DejaVuSans-74" d="M 1172 4494 
L 1172 3500 
L 2356 3500 
L 2356 3053 
L 1172 3053 
L 1172 1153 
Q 1172 725 1289 603 
Q 1406 481 1766 481 
L 2356 481 
L 2356 0 
L 1766 0 
Q 1100 0 847 248 
Q 594 497 594 1153 
L 594 3053 
L 172 3053 
L 172 3500 
L 594 3500 
L 594 4494 
L 1172 4494 
z
" transform="scale(0.015625)"/>
       <path id="DejaVuSans-20" transform="scale(0.015625)"/>
       <path id="DejaVuSans-76" d="M 191 3500 
L 800 3500 
L 1894 563 
L 2988 3500 
L 3597 3500 
L 2284 0 
L 1503 0 
L 191 3500 
z
" transform="scale(0.015625)"/>
       <path id="DejaVuSans-73" d="M 2834 3397 
L 2834 2853 
Q 2591 2978 2328 3040 
Q 2066 3103 1784 3103 
Q 1356 3103 1142 2972 
Q 928 2841 928 2578 
Q 928 2378 1081 2264 
Q 1234 2150 1697 2047 
L 1894 2003 
Q 2506 1872 2764 1633 
Q 3022 1394 3022 966 
Q 3022 478 2636 193 
Q 2250 -91 1575 -91 
Q 1294 -91 989 -36 
Q 684 19 347 128 
L 347 722 
Q 666 556 975 473 
Q 1284 391 1588 391 
Q 1994 391 2212 530 
Q 2431 669 2431 922 
Q 2431 1156 2273 1281 
Q 2116 1406 1581 1522 
L 1381 1569 
Q 847 1681 609 1914 
Q 372 2147 372 2553 
Q 372 3047 722 3315 
Q 1072 3584 1716 3584 
Q 2034 3584 2315 3537 
Q 2597 3491 2834 3397 
z
" transform="scale(0.015625)"/>
       <path id="DejaVuSans-63" d="M 3122 3366 
L 3122 2828 
Q 2878 2963 2633 3030 
Q 2388 3097 2138 3097 
Q 1578 3097 1268 2742 
Q 959 2388 959 1747 
Q 959 1106 1268 751 
Q 1578 397 2138 397 
Q 2388 397 2633 464 
Q 2878 531 3122 666 
L 3122 134 
Q 2881 22 2623 -34 
Q 2366 -91 2075 -91 
Q 1284 -91 818 406 
Q 353 903 353 1747 
Q 353 2603 823 3093 
Q 1294 3584 2113 3584 
Q 2378 3584 2631 3529 
Q 2884 3475 3122 3366 
z
" transform="scale(0.015625)"/>
       <path id="DejaVuSans-68" d="M 3513 2113 
L 3513 0 
L 2938 0 
L 2938 2094 
Q 2938 2591 2744 2837 
Q 2550 3084 2163 3084 
Q 1697 3084 1428 2787 
Q 1159 2491 1159 1978 
L 1159 0 
L 581 0 
L 581 4863 
L 1159 4863 
L 1159 2956 
Q 1366 3272 1645 3428 
Q 1925 3584 2291 3584 
Q 2894 3584 3203 3211 
Q 3513 2838 3513 2113 
z
" transform="scale(0.015625)"/>
       <path id="DejaVuSans-65" d="M 3597 1894 
L 3597 1613 
L 953 1613 
Q 991 1019 1311 708 
Q 1631 397 2203 397 
Q 2534 397 2845 478 
Q 3156 559 3463 722 
L 3463 178 
Q 3153 47 2828 -22 
Q 2503 -91 2169 -91 
Q 1331 -91 842 396 
Q 353 884 353 1716 
Q 353 2575 817 3079 
Q 1281 3584 2069 3584 
Q 2775 3584 3186 3129 
Q 3597 2675 3597 1894 
z
M 3022 2063 
Q 3016 2534 2758 2815 
Q 2500 3097 2075 3097 
Q 1594 3097 1305 2825 
Q 1016 2553 972 2059 
L 3022 2063 
z
" transform="scale(0.015625)"/>
       <path id="DejaVuSans-6d" d="M 3328 2828 
Q 3544 3216 3844 3400 
Q 4144 3584 4550 3584 
Q 5097 3584 5394 3201 
Q 5691 2819 5691 2113 
L 5691 0 
L 5113 0 
L 5113 2094 
Q 5113 2597 4934 2840 
Q 4756 3084 4391 3084 
Q 3944 3084 3684 2787 
Q 3425 2491 3425 1978 
L 3425 0 
L 2847 0 
L 2847 2094 
Q 2847 2600 2669 2842 
Q 2491 3084 2119 3084 
Q 1678 3084 1418 2786 
Q 1159 2488 1159 1978 
L 1159 0 
L 581 0 
L 581 3500 
L 1159 3500 
L 1159 2956 
Q 1356 3278 1631 3431 
Q 1906 3584 2284 3584 
Q 2666 3584 2933 3390 
Q 3200 3197 3328 2828 
z
" transform="scale(0.015625)"/>
       <path id="DejaVuSans-61" d="M 2194 1759 
Q 1497 1759 1228 1600 
Q 959 1441 959 1056 
Q 959 750 1161 570 
Q 1363 391 1709 391 
Q 2188 391 2477 730 
Q 2766 1069 2766 1631 
L 2766 1759 
L 2194 1759 
z
M 3341 1997 
L 3341 0 
L 2766 0 
L 2766 531 
Q 2569 213 2275 61 
Q 1981 -91 1556 -91 
Q 1019 -91 701 211 
Q 384 513 384 1019 
Q 384 1609 779 1909 
Q 1175 2209 1959 2209 
L 2766 2209 
L 2766 2266 
Q 2766 2663 2505 2880 
Q 2244 3097 1772 3097 
Q 1472 3097 1187 3025 
Q 903 2953 641 2809 
L 641 3341 
Q 956 3463 1253 3523 
Q 1550 3584 1831 3584 
Q 2591 3584 2966 3190 
Q 3341 2797 3341 1997 
z
" transform="scale(0.015625)"/>
       <path id="DejaVuSans-77" d="M 269 3500 
L 844 3500 
L 1563 769 
L 2278 3500 
L 2956 3500 
L 3675 769 
L 4391 3500 
L 4966 3500 
L 4050 0 
L 3372 0 
L 2619 2869 
L 1863 0 
L 1184 0 
L 269 3500 
z
" transform="scale(0.015625)"/>
       <path id="DejaVuSans-6f" d="M 1959 3097 
Q 1497 3097 1228 2736 
Q 959 2375 959 1747 
Q 959 1119 1226 758 
Q 1494 397 1959 397 
Q 2419 397 2687 759 
Q 2956 1122 2956 1747 
Q 2956 2369 2687 2733 
Q 2419 3097 1959 3097 
z
M 1959 3584 
Q 2709 3584 3137 3096 
Q 3566 2609 3566 1747 
Q 3566 888 3137 398 
Q 2709 -91 1959 -91 
Q 1206 -91 779 398 
Q 353 888 353 1747 
Q 353 2609 779 3096 
Q 1206 3584 1959 3584 
z
" transform="scale(0.015625)"/>
       <path id="DejaVuSans-75" d="M 544 1381 
L 544 3500 
L 1119 3500 
L 1119 1403 
Q 1119 906 1312 657 
Q 1506 409 1894 409 
Q 2359 409 2629 706 
Q 2900 1003 2900 1516 
L 2900 3500 
L 3475 3500 
L 3475 0 
L 2900 0 
L 2900 538 
Q 2691 219 2414 64 
Q 2138 -91 1772 -91 
Q 1169 -91 856 284 
Q 544 659 544 1381 
z
M 1991 3584 
L 1991 3584 
z
" transform="scale(0.015625)"/>
       <path id="DejaVuSans-72" d="M 2631 2963 
Q 2534 3019 2420 3045 
Q 2306 3072 2169 3072 
Q 1681 3072 1420 2755 
Q 1159 2438 1159 1844 
L 1159 0 
L 581 0 
L 581 3500 
L 1159 3500 
L 1159 2956 
Q 1341 3275 1631 3429 
Q 1922 3584 2338 3584 
Q 2397 3584 2469 3576 
Q 2541 3569 2628 3553 
L 2631 2963 
z
" transform="scale(0.015625)"/>
      </defs>
      <use xlink:href="#DejaVuSans-6c"/>
      <use xlink:href="#DejaVuSans-69" transform="translate(27.783203 0)"/>
      <use xlink:href="#DejaVuSans-66" transform="translate(55.566406 0)"/>
      <use xlink:href="#DejaVuSans-74" transform="translate(89.021484 0)"/>
      <use xlink:href="#DejaVuSans-20" transform="translate(128.230469 0)"/>
      <use xlink:href="#DejaVuSans-76" transform="translate(160.017578 0)"/>
      <use xlink:href="#DejaVuSans-73" transform="translate(219.197266 0)"/>
      <use xlink:href="#DejaVuSans-20" transform="translate(271.296875 0)"/>
      <use xlink:href="#DejaVuSans-73" transform="translate(303.083984 0)"/>
      <use xlink:href="#DejaVuSans-63" transform="translate(355.183594 0)"/>
      <use xlink:href="#DejaVuSans-68" transform="translate(410.164062 0)"/>
      <use xlink:href="#DejaVuSans-65" transform="translate(473.542969 0)"/>
      <use xlink:href="#DejaVuSans-6d" transform="translate(535.066406 0)"/>
      <use xlink:href="#DejaVuSans-61" transform="translate(632.478516 0)"/>
      <use xlink:href="#DejaVuSans-73" transform="translate(693.757812 0)"/>
      <use xlink:href="#DejaVuSans-20" transform="translate(745.857422 0)"/>
      <use xlink:href="#DejaVuSans-77" transform="translate(777.644531 0)"/>
      <use xlink:href="#DejaVuSans-69" transform="translate(859.431641 0)"/>
      <use xlink:href="#DejaVuSans-74" transform="translate(887.214844 0)"/>
      <use xlink:href="#DejaVuSans-68" transform="translate(926.423828 0)"/>
      <use xlink:href="#DejaVuSans-6f" transform="translate(989.802734 0)"/>
      <use xlink:href="#DejaVuSans-75" transform="translate(1050.984375 0)"/>
      <use xlink:href="#DejaVuSans-74" transform="translate(1114.363281 0)"/>
      <use xlink:href="#DejaVuSans-20" transform="translate(1153.572266 0)"/>
      <use xlink:href="#DejaVuSans-66" transform="translate(1185.359375 0)"/>
      <use xlink:href="#DejaVuSans-65" transform="translate(1220.564453 0)"/>
      <use xlink:href="#DejaVuSans-61" transform="translate(1282.087891 0)"/>
      <use xlink:href="#DejaVuSans-74" transform="translate(1343.367188 0)"/>
      <use xlink:href="#DejaVuSans-75" transform="translate(1382.576172 0)"/>
      <use xlink:href="#DejaVuSans-72" transform="translate(1445.955078 0)"/>
      <use xlink:href="#DejaVuSans-65" transform="translate(1484.818359 0)"/>
     </g>
    </g>
   </g>
   <g id="matplotlib.axis_2">
    <g id="ytick_1">
     <g id="line2d_11">
      <defs>
       <path id="m264b8f64d8" d="M 0 0 
L -3.5 0 
" style="stroke: #000000; stroke-width: 0.8"/>
      </defs>
      <g>
       <use xlink:href="#m264b8f64d8" x="106.935938" y="66.897616" style="stroke: #000000; stroke-width: 0.8"/>
      </g>
     </g>
     <g id="text_7">
      <!-- patternProperties -->
      <g transform="translate(12.659375 70.696835) scale(0.1 -0.1)">
       <defs>
        <path id="DejaVuSans-70" d="M 1159 525 
L 1159 -1331 
L 581 -1331 
L 581 3500 
L 1159 3500 
L 1159 2969 
Q 1341 3281 1617 3432 
Q 1894 3584 2278 3584 
Q 2916 3584 3314 3078 
Q 3713 2572 3713 1747 
Q 3713 922 3314 415 
Q 2916 -91 2278 -91 
Q 1894 -91 1617 61 
Q 1341 213 1159 525 
z
M 3116 1747 
Q 3116 2381 2855 2742 
Q 2594 3103 2138 3103 
Q 1681 3103 1420 2742 
Q 1159 2381 1159 1747 
Q 1159 1113 1420 752 
Q 1681 391 2138 391 
Q 2594 391 2855 752 
Q 3116 1113 3116 1747 
z
" transform="scale(0.015625)"/>
        <path id="DejaVuSans-6e" d="M 3513 2113 
L 3513 0 
L 2938 0 
L 2938 2094 
Q 2938 2591 2744 2837 
Q 2550 3084 2163 3084 
Q 1697 3084 1428 2787 
Q 1159 2491 1159 1978 
L 1159 0 
L 581 0 
L 581 3500 
L 1159 3500 
L 1159 2956 
Q 1366 3272 1645 3428 
Q 1925 3584 2291 3584 
Q 2894 3584 3203 3211 
Q 3513 2838 3513 2113 
z
" transform="scale(0.015625)"/>
        <path id="DejaVuSans-50" d="M 1259 4147 
L 1259 2394 
L 2053 2394 
Q 2494 2394 2734 2622 
Q 2975 2850 2975 3272 
Q 2975 3691 2734 3919 
Q 2494 4147 2053 4147 
L 1259 4147 
z
M 628 4666 
L 2053 4666 
Q 2838 4666 3239 4311 
Q 3641 3956 3641 3272 
Q 3641 2581 3239 2228 
Q 2838 1875 2053 1875 
L 1259 1875 
L 1259 0 
L 628 0 
L 628 4666 
z
" transform="scale(0.015625)"/>
       </defs>
       <use xlink:href="#DejaVuSans-70"/>
       <use xlink:href="#DejaVuSans-61" transform="translate(63.476562 0)"/>
       <use xlink:href="#DejaVuSans-74" transform="translate(124.755859 0)"/>
       <use xlink:href="#DejaVuSans-74" transform="translate(163.964844 0)"/>
       <use xlink:href="#DejaVuSans-65" transform="translate(203.173828 0)"/>
       <use xlink:href="#DejaVuSans-72" transform="translate(264.697266 0)"/>
       <use xlink:href="#DejaVuSans-6e" transform="translate(304.060547 0)"/>
       <use xlink:href="#DejaVuSans-50" transform="translate(367.439453 0)"/>
       <use xlink:href="#DejaVuSans-72" transform="translate(425.992188 0)"/>
       <use xlink:href="#DejaVuSans-6f" transform="translate(464.855469 0)"/>
       <use xlink:href="#DejaVuSans-70" transform="translate(526.037109 0)"/>
       <use xlink:href="#DejaVuSans-65" transform="translate(589.513672 0)"/>
       <use xlink:href="#DejaVuSans-72" transform="translate(651.037109 0)"/>
       <use xlink:href="#DejaVuSans-74" transform="translate(692.150391 0)"/>
       <use xlink:href="#DejaVuSans-69" transform="translate(731.359375 0)"/>
       <use xlink:href="#DejaVuSans-65" transform="translate(759.142578 0)"/>
       <use xlink:href="#DejaVuSans-73" transform="translate(820.666016 0)"/>
      </g>
     </g>
    </g>
    <g id="ytick_2">
     <g id="line2d_12">
      <g>
       <use xlink:href="#m264b8f64d8" x="106.935938" y="99.406215" style="stroke: #000000; stroke-width: 0.8"/>
      </g>
     </g>
     <g id="text_8">
      <!-- minProperties -->
      <g transform="translate(30.546875 103.205434) scale(0.1 -0.1)">
       <use xlink:href="#DejaVuSans-6d"/>
       <use xlink:href="#DejaVuSans-69" transform="translate(97.412109 0)"/>
       <use xlink:href="#DejaVuSans-6e" transform="translate(125.195312 0)"/>
       <use xlink:href="#DejaVuSans-50" transform="translate(188.574219 0)"/>
       <use xlink:href="#DejaVuSans-72" transform="translate(247.126953 0)"/>
       <use xlink:href="#DejaVuSans-6f" transform="translate(285.990234 0)"/>
       <use xlink:href="#DejaVuSans-70" transform="translate(347.171875 0)"/>
       <use xlink:href="#DejaVuSans-65" transform="translate(410.648438 0)"/>
       <use xlink:href="#DejaVuSans-72" transform="translate(472.171875 0)"/>
       <use xlink:href="#DejaVuSans-74" transform="translate(513.285156 0)"/>
       <use xlink:href="#DejaVuSans-69" transform="translate(552.494141 0)"/>
       <use xlink:href="#DejaVuSans-65" transform="translate(580.277344 0)"/>
       <use xlink:href="#DejaVuSans-73" transform="translate(641.800781 0)"/>
      </g>
     </g>
    </g>
    <g id="ytick_3">
     <g id="line2d_13">
      <g>
       <use xlink:href="#m264b8f64d8" x="106.935938" y="131.914815" style="stroke: #000000; stroke-width: 0.8"/>
      </g>
     </g>
     <g id="text_9">
      <!-- not -->
      <g transform="translate(83.559375 135.714034) scale(0.1 -0.1)">
       <use xlink:href="#DejaVuSans-6e"/>
       <use xlink:href="#DejaVuSans-6f" transform="translate(63.378906 0)"/>
       <use xlink:href="#DejaVuSans-74" transform="translate(124.560547 0)"/>
      </g>
     </g>
    </g>
    <g id="ytick_4">
     <g id="line2d_14">
      <g>
       <use xlink:href="#m264b8f64d8" x="106.935938" y="164.423414" style="stroke: #000000; stroke-width: 0.8"/>
      </g>
     </g>
     <g id="text_10">
      <!-- propertyNames -->
      <g transform="translate(22.41875 168.222633) scale(0.1 -0.1)">
       <defs>
        <path id="DejaVuSans-79" d="M 2059 -325 
Q 1816 -950 1584 -1140 
Q 1353 -1331 966 -1331 
L 506 -1331 
L 506 -850 
L 844 -850 
Q 1081 -850 1212 -737 
Q 1344 -625 1503 -206 
L 1606 56 
L 191 3500 
L 800 3500 
L 1894 763 
L 2988 3500 
L 3597 3500 
L 2059 -325 
z
" transform="scale(0.015625)"/>
        <path id="DejaVuSans-4e" d="M 628 4666 
L 1478 4666 
L 3547 763 
L 3547 4666 
L 4159 4666 
L 4159 0 
L 3309 0 
L 1241 3903 
L 1241 0 
L 628 0 
L 628 4666 
z
" transform="scale(0.015625)"/>
       </defs>
       <use xlink:href="#DejaVuSans-70"/>
       <use xlink:href="#DejaVuSans-72" transform="translate(63.476562 0)"/>
       <use xlink:href="#DejaVuSans-6f" transform="translate(102.339844 0)"/>
       <use xlink:href="#DejaVuSans-70" transform="translate(163.521484 0)"/>
       <use xlink:href="#DejaVuSans-65" transform="translate(226.998047 0)"/>
       <use xlink:href="#DejaVuSans-72" transform="translate(288.521484 0)"/>
       <use xlink:href="#DejaVuSans-74" transform="translate(329.634766 0)"/>
       <use xlink:href="#DejaVuSans-79" transform="translate(368.84375 0)"/>
       <use xlink:href="#DejaVuSans-4e" transform="translate(428.023438 0)"/>
       <use xlink:href="#DejaVuSans-61" transform="translate(502.828125 0)"/>
       <use xlink:href="#DejaVuSans-6d" transform="translate(564.107422 0)"/>
       <use xlink:href="#DejaVuSans-65" transform="translate(661.519531 0)"/>
       <use xlink:href="#DejaVuSans-73" transform="translate(723.042969 0)"/>
      </g>
     </g>
    </g>
    <g id="ytick_5">
     <g id="line2d_15">
      <g>
       <use xlink:href="#m264b8f64d8" x="106.935938" y="196.932014" style="stroke: #000000; stroke-width: 0.8"/>
      </g>
     </g>
     <g id="text_11">
      <!-- maxProperties -->
      <g transform="translate(27.615625 200.731233) scale(0.1 -0.1)">
       <defs>
        <path id="DejaVuSans-78" d="M 3513 3500 
L 2247 1797 
L 3578 0 
L 2900 0 
L 1881 1375 
L 863 0 
L 184 0 
L 1544 1831 
L 300 3500 
L 978 3500 
L 1906 2253 
L 2834 3500 
L 3513 3500 
z
" transform="scale(0.015625)"/>
       </defs>
       <use xlink:href="#DejaVuSans-6d"/>
       <use xlink:href="#DejaVuSans-61" transform="translate(97.412109 0)"/>
       <use xlink:href="#DejaVuSans-78" transform="translate(158.691406 0)"/>
       <use xlink:href="#DejaVuSans-50" transform="translate(217.871094 0)"/>
       <use xlink:href="#DejaVuSans-72" transform="translate(276.423828 0)"/>
       <use xlink:href="#DejaVuSans-6f" transform="translate(315.287109 0)"/>
       <use xlink:href="#DejaVuSans-70" transform="translate(376.46875 0)"/>
       <use xlink:href="#DejaVuSans-65" transform="translate(439.945312 0)"/>
       <use xlink:href="#DejaVuSans-72" transform="translate(501.46875 0)"/>
       <use xlink:href="#DejaVuSans-74" transform="translate(542.582031 0)"/>
       <use xlink:href="#DejaVuSans-69" transform="translate(581.791016 0)"/>
       <use xlink:href="#DejaVuSans-65" transform="translate(609.574219 0)"/>
       <use xlink:href="#DejaVuSans-73" transform="translate(671.097656 0)"/>
      </g>
     </g>
    </g>
    <g id="ytick_6">
     <g id="line2d_16">
      <g>
       <use xlink:href="#m264b8f64d8" x="106.935938" y="229.440613" style="stroke: #000000; stroke-width: 0.8"/>
      </g>
     </g>
     <g id="text_12">
      <!-- oneOf -->
      <g transform="translate(69.934375 233.239832) scale(0.1 -0.1)">
       <defs>
        <path id="DejaVuSans-4f" d="M 2522 4238 
Q 1834 4238 1429 3725 
Q 1025 3213 1025 2328 
Q 1025 1447 1429 934 
Q 1834 422 2522 422 
Q 3209 422 3611 934 
Q 4013 1447 4013 2328 
Q 4013 3213 3611 3725 
Q 3209 4238 2522 4238 
z
M 2522 4750 
Q 3503 4750 4090 4092 
Q 4678 3434 4678 2328 
Q 4678 1225 4090 567 
Q 3503 -91 2522 -91 
Q 1538 -91 948 565 
Q 359 1222 359 2328 
Q 359 3434 948 4092 
Q 1538 4750 2522 4750 
z
" transform="scale(0.015625)"/>
       </defs>
       <use xlink:href="#DejaVuSans-6f"/>
       <use xlink:href="#DejaVuSans-6e" transform="translate(61.181641 0)"/>
       <use xlink:href="#DejaVuSans-65" transform="translate(124.560547 0)"/>
       <use xlink:href="#DejaVuSans-4f" transform="translate(186.083984 0)"/>
       <use xlink:href="#DejaVuSans-66" transform="translate(264.794922 0)"/>
      </g>
     </g>
    </g>
    <g id="ytick_7">
     <g id="line2d_17">
      <g>
       <use xlink:href="#m264b8f64d8" x="106.935938" y="261.949213" style="stroke: #000000; stroke-width: 0.8"/>
      </g>
     </g>
     <g id="text_13">
      <!-- if/then/else -->
      <g transform="translate(43.857813 265.748432) scale(0.1 -0.1)">
       <defs>
        <path id="DejaVuSans-2f" d="M 1625 4666 
L 2156 4666 
L 531 -594 
L 0 -594 
L 1625 4666 
z
" transform="scale(0.015625)"/>
       </defs>
       <use xlink:href="#DejaVuSans-69"/>
       <use xlink:href="#DejaVuSans-66" transform="translate(27.783203 0)"/>
       <use xlink:href="#DejaVuSans-2f" transform="translate(62.988281 0)"/>
       <use xlink:href="#DejaVuSans-74" transform="translate(96.679688 0)"/>
       <use xlink:href="#DejaVuSans-68" transform="translate(135.888672 0)"/>
       <use xlink:href="#DejaVuSans-65" transform="translate(199.267578 0)"/>
       <use xlink:href="#DejaVuSans-6e" transform="translate(260.791016 0)"/>
       <use xlink:href="#DejaVuSans-2f" transform="translate(324.169922 0)"/>
       <use xlink:href="#DejaVuSans-65" transform="translate(357.861328 0)"/>
       <use xlink:href="#DejaVuSans-6c" transform="translate(419.384766 0)"/>
       <use xlink:href="#DejaVuSans-73" transform="translate(447.167969 0)"/>
       <use xlink:href="#DejaVuSans-65" transform="translate(499.267578 0)"/>
      </g>
     </g>
    </g>
    <g id="ytick_8">
     <g id="line2d_18">
      <g>
       <use xlink:href="#m264b8f64d8" x="106.935938" y="294.457812" style="stroke: #000000; stroke-width: 0.8"/>
      </g>
     </g>
     <g id="text_14">
      <!-- allOf -->
      <g transform="translate(76.859375 298.257031) scale(0.1 -0.1)">
       <use xlink:href="#DejaVuSans-61"/>
       <use xlink:href="#DejaVuSans-6c" transform="translate(61.279297 0)"/>
       <use xlink:href="#DejaVuSans-6c" transform="translate(89.0625 0)"/>
       <use xlink:href="#DejaVuSans-4f" transform="translate(116.845703 0)"/>
       <use xlink:href="#DejaVuSans-66" transform="translate(195.556641 0)"/>
      </g>
     </g>
    </g>
    <g id="ytick_9">
     <g id="line2d_19">
      <g>
       <use xlink:href="#m264b8f64d8" x="106.935938" y="326.966412" style="stroke: #000000; stroke-width: 0.8"/>
      </g>
     </g>
     <g id="text_15">
      <!-- const -->
      <g transform="translate(72.851562 330.765631) scale(0.1 -0.1)">
       <use xlink:href="#DejaVuSans-63"/>
       <use xlink:href="#DejaVuSans-6f" transform="translate(54.980469 0)"/>
       <use xlink:href="#DejaVuSans-6e" transform="translate(116.162109 0)"/>
       <use xlink:href="#DejaVuSans-73" transform="translate(179.541016 0)"/>
       <use xlink:href="#DejaVuSans-74" transform="translate(231.640625 0)"/>
      </g>
     </g>
    </g>
    <g id="ytick_10">
     <g id="line2d_20">
      <g>
       <use xlink:href="#m264b8f64d8" x="106.935938" y="359.475012" style="stroke: #000000; stroke-width: 0.8"/>
      </g>
     </g>
     <g id="text_16">
      <!-- ref -->
      <g transform="translate(86.376563 363.27423) scale(0.1 -0.1)">
       <use xlink:href="#DejaVuSans-72"/>
       <use xlink:href="#DejaVuSans-65" transform="translate(38.863281 0)"/>
       <use xlink:href="#DejaVuSans-66" transform="translate(100.386719 0)"/>
      </g>
     </g>
    </g>
    <g id="ytick_11">
     <g id="line2d_21">
      <g>
       <use xlink:href="#m264b8f64d8" x="106.935938" y="391.983611" style="stroke: #000000; stroke-width: 0.8"/>
      </g>
     </g>
     <g id="text_17">
      <!-- defs -->
      <g transform="translate(78.704688 395.78283) scale(0.1 -0.1)">
       <defs>
        <path id="DejaVuSans-64" d="M 2906 2969 
L 2906 4863 
L 3481 4863 
L 3481 0 
L 2906 0 
L 2906 525 
Q 2725 213 2448 61 
Q 2172 -91 1784 -91 
Q 1150 -91 751 415 
Q 353 922 353 1747 
Q 353 2572 751 3078 
Q 1150 3584 1784 3584 
Q 2172 3584 2448 3432 
Q 2725 3281 2906 2969 
z
M 947 1747 
Q 947 1113 1208 752 
Q 1469 391 1925 391 
Q 2381 391 2643 752 
Q 2906 1113 2906 1747 
Q 2906 2381 2643 2742 
Q 2381 3103 1925 3103 
Q 1469 3103 1208 2742 
Q 947 2381 947 1747 
z
" transform="scale(0.015625)"/>
       </defs>
       <use xlink:href="#DejaVuSans-64"/>
       <use xlink:href="#DejaVuSans-65" transform="translate(63.476562 0)"/>
       <use xlink:href="#DejaVuSans-66" transform="translate(125 0)"/>
       <use xlink:href="#DejaVuSans-73" transform="translate(160.205078 0)"/>
      </g>
     </g>
    </g>
    <g id="ytick_12">
     <g id="line2d_22">
      <g>
       <use xlink:href="#m264b8f64d8" x="106.935938" y="424.492211" style="stroke: #000000; stroke-width: 0.8"/>
      </g>
     </g>
     <g id="text_18">
      <!-- exclusiveMinimum -->
      <g transform="translate(7.2 428.291429) scale(0.1 -0.1)">
       <defs>
        <path id="DejaVuSans-4d" d="M 628 4666 
L 1569 4666 
L 2759 1491 
L 3956 4666 
L 4897 4666 
L 4897 0 
L 4281 0 
L 4281 4097 
L 3078 897 
L 2444 897 
L 1241 4097 
L 1241 0 
L 628 0 
L 628 4666 
z
" transform="scale(0.015625)"/>
       </defs>
       <use xlink:href="#DejaVuSans-65"/>
       <use xlink:href="#DejaVuSans-78" transform="translate(59.773438 0)"/>
       <use xlink:href="#DejaVuSans-63" transform="translate(117.203125 0)"/>
       <use xlink:href="#DejaVuSans-6c" transform="translate(172.183594 0)"/>
       <use xlink:href="#DejaVuSans-75" transform="translate(199.966797 0)"/>
       <use xlink:href="#DejaVuSans-73" transform="translate(263.345703 0)"/>
       <use xlink:href="#DejaVuSans-69" transform="translate(315.445312 0)"/>
       <use xlink:href="#DejaVuSans-76" transform="translate(343.228516 0)"/>
       <use xlink:href="#DejaVuSans-65" transform="translate(402.408203 0)"/>
       <use xlink:href="#DejaVuSans-4d" transform="translate(463.931641 0)"/>
       <use xlink:href="#DejaVuSans-69" transform="translate(550.210938 0)"/>
       <use xlink:href="#DejaVuSans-6e" transform="translate(577.994141 0)"/>
       <use xlink:href="#DejaVuSans-69" transform="translate(641.373047 0)"/>
       <use xlink:href="#DejaVuSans-6d" transform="translate(669.15625 0)"/>
       <use xlink:href="#DejaVuSans-75" transform="translate(766.568359 0)"/>
       <use xlink:href="#DejaVuSans-6d" transform="translate(829.947266 0)"/>
      </g>
     </g>
    </g>
    <g id="ytick_13">
     <g id="line2d_23">
      <g>
       <use xlink:href="#m264b8f64d8" x="106.935938" y="457.00081" style="stroke: #000000; stroke-width: 0.8"/>
      </g>
     </g>
     <g id="text_19">
      <!-- minItems -->
      <g transform="translate(53.10625 460.800029) scale(0.1 -0.1)">
       <defs>
        <path id="DejaVuSans-49" d="M 628 4666 
L 1259 4666 
L 1259 0 
L 628 0 
L 628 4666 
z
" transform="scale(0.015625)"/>
       </defs>
       <use xlink:href="#DejaVuSans-6d"/>
       <use xlink:href="#DejaVuSans-69" transform="translate(97.412109 0)"/>
       <use xlink:href="#DejaVuSans-6e" transform="translate(125.195312 0)"/>
       <use xlink:href="#DejaVuSans-49" transform="translate(188.574219 0)"/>
       <use xlink:href="#DejaVuSans-74" transform="translate(218.066406 0)"/>
       <use xlink:href="#DejaVuSans-65" transform="translate(257.275391 0)"/>
       <use xlink:href="#DejaVuSans-6d" transform="translate(318.798828 0)"/>
       <use xlink:href="#DejaVuSans-73" transform="translate(416.210938 0)"/>
      </g>
     </g>
    </g>
    <g id="ytick_14">
     <g id="line2d_24">
      <g>
       <use xlink:href="#m264b8f64d8" x="106.935938" y="489.50941" style="stroke: #000000; stroke-width: 0.8"/>
      </g>
     </g>
     <g id="text_20">
      <!-- many properties -->
      <g transform="translate(17.60625 493.308628) scale(0.1 -0.1)">
       <use xlink:href="#DejaVuSans-6d"/>
       <use xlink:href="#DejaVuSans-61" transform="translate(97.412109 0)"/>
       <use xlink:href="#DejaVuSans-6e" transform="translate(158.691406 0)"/>
       <use xlink:href="#DejaVuSans-79" transform="translate(222.070312 0)"/>
       <use xlink:href="#DejaVuSans-20" transform="translate(281.25 0)"/>
       <use xlink:href="#DejaVuSans-70" transform="translate(313.037109 0)"/>
       <use xlink:href="#DejaVuSans-72" transform="translate(376.513672 0)"/>
       <use xlink:href="#DejaVuSans-6f" transform="translate(415.376953 0)"/>
       <use xlink:href="#DejaVuSans-70" transform="translate(476.558594 0)"/>
       <use xlink:href="#DejaVuSans-65" transform="translate(540.035156 0)"/>
       <use xlink:href="#DejaVuSans-72" transform="translate(601.558594 0)"/>
       <use xlink:href="#DejaVuSans-74" transform="translate(642.671875 0)"/>
       <use xlink:href="#DejaVuSans-69" transform="translate(681.880859 0)"/>
       <use xlink:href="#DejaVuSans-65" transform="translate(709.664062 0)"/>
       <use xlink:href="#DejaVuSans-73" transform="translate(771.1875 0)"/>
      </g>
     </g>
    </g>
    <g id="ytick_15">
     <g id="line2d_25">
      <g>
       <use xlink:href="#m264b8f64d8" x="106.935938" y="522.018009" style="stroke: #000000; stroke-width: 0.8"/>
      </g>
     </g>
     <g id="text_21">
      <!-- anyOf -->
      <g transform="translate(70.159375 525.817228) scale(0.1 -0.1)">
       <use xlink:href="#DejaVuSans-61"/>
       <use xlink:href="#DejaVuSans-6e" transform="translate(61.279297 0)"/>
       <use xlink:href="#DejaVuSans-79" transform="translate(124.658203 0)"/>
       <use xlink:href="#DejaVuSans-4f" transform="translate(183.837891 0)"/>
       <use xlink:href="#DejaVuSans-66" transform="translate(262.548828 0)"/>
      </g>
     </g>
    </g>
   </g>
   <g id="patch_3">
    <path d="M 106.935938 53.894176 
L 612.862503 53.894176 
L 612.862503 79.901056 
L 106.935938 79.901056 
z
" clip-path="url(#p3886a6cc3d)" style="fill: #008c7d"/>
   </g>
   <g id="patch_4">
    <path d="M 106.935938 86.402776 
L 486.69003 86.402776 
L 486.69003 112.409655 
L 106.935938 112.409655 
z
" clip-path="url(#p3886a6cc3d)" style="fill: #008c7d"/>
   </g>
   <g id="patch_5">
    <path d="M 106.935938 118.911375 
L 480.297214 118.911375 
L 480.297214 144.918255 
L 106.935938 144.918255 
z
" clip-path="url(#p3886a6cc3d)" style="fill: #008c7d"/>
   </g>
   <g id="patch_6">
    <path d="M 106.935938 151.419975 
L 464.121594 151.419975 
L 464.121594 177.426854 
L 106.935938 177.426854 
z
" clip-path="url(#p3886a6cc3d)" style="fill: #008c7d"/>
   </g>
   <g id="patch_7">
    <path d="M 106.935938 183.928574 
L 458.93433 183.928574 
L 458.93433 209.935454 
L 106.935938 209.935454 
z
" clip-path="url(#p3886a6cc3d)" style="fill: #008c7d"/>
   </g>
   <g id="patch_8">
    <path d="M 106.935938 216.437174 
L 440.391205 216.437174 
L 440.391205 242.444053 
L 106.935938 242.444053 
z
" clip-path="url(#p3886a6cc3d)" style="fill: #008c7d"/>
   </g>
   <g id="patch_9">
    <path d="M 106.935938 248.945773 
L 391.754392 248.945773 
L 391.754392 274.952653 
L 106.935938 274.952653 
z
" clip-path="url(#p3886a6cc3d)" style="fill: #008c7d"/>
   </g>
   <g id="patch_10">
    <path d="M 106.935938 281.454373 
L 315.114067 281.454373 
L 315.114067 307.461252 
L 106.935938 307.461252 
z
" clip-path="url(#p3886a6cc3d)" style="fill: #008c7d"/>
   </g>
   <g id="patch_11">
    <path d="M 106.935938 313.962972 
L 300.41528 313.962972 
L 300.41528 339.969852 
L 106.935938 339.969852 
z
" clip-path="url(#p3886a6cc3d)" style="fill: #008c7d"/>
   </g>
   <g id="patch_12">
    <path d="M 106.935938 346.471572 
L 295.865987 346.471572 
L 295.865987 372.478451 
L 106.935938 372.478451 
z
" clip-path="url(#p3886a6cc3d)" style="fill: #008c7d"/>
   </g>
   <g id="patch_13">
    <path d="M 106.935938 378.980171 
L 279.531648 378.980171 
L 279.531648 404.987051 
L 106.935938 404.987051 
z
" clip-path="url(#p3886a6cc3d)" style="fill: #008c7d"/>
   </g>
   <g id="patch_14">
    <path d="M 106.935938 411.488771 
L 262.328206 411.488771 
L 262.328206 437.49565 
L 106.935938 437.49565 
z
" clip-path="url(#p3886a6cc3d)" style="fill: #008c7d"/>
   </g>
   <g id="patch_15">
    <path d="M 106.935938 443.99737 
L 242.099018 443.99737 
L 242.099018 470.00425 
L 106.935938 470.00425 
z
" clip-path="url(#p3886a6cc3d)" style="fill: #008c7d"/>
   </g>
   <g id="patch_16">
    <path d="M 106.935938 476.50597 
L 240.954692 476.50597 
L 240.954692 502.512849 
L 106.935938 502.512849 
z
" clip-path="url(#p3886a6cc3d)" style="fill: #008c7d"/>
   </g>
   <g id="patch_17">
    <path d="M 106.935938 509.014569 
L 238.791769 509.014569 
L 238.791769 535.021449 
L 106.935938 535.021449 
z
" clip-path="url(#p3886a6cc3d)" style="fill: #008c7d"/>
   </g>
   <g id="patch_18">
    <path d="M 106.935938 559.077812 
L 106.935938 29.837813 
" style="fill: none; stroke: #000000; stroke-width: 0.8; stroke-linejoin: miter; stroke-linecap: square"/>
   </g>
   <g id="patch_19">
    <path d="M 106.935938 559.077812 
L 724.166347 559.077812 
" style="fill: none; stroke: #000000; stroke-width: 0.8; stroke-linejoin: miter; stroke-linecap: square"/>
   </g>
   <g id="text_22">
    <!-- rate 98.7%; 310 schemas -->
    <g style="fill: #5c6670" transform="translate(620.451401 69.381053) scale(0.09 -0.09)">
     <defs>
      <path id="DejaVuSans-39" d="M 703 97 
L 703 672 
Q 941 559 1184 500 
Q 1428 441 1663 441 
Q 2288 441 2617 861 
Q 2947 1281 2994 2138 
Q 2813 1869 2534 1725 
Q 2256 1581 1919 1581 
Q 1219 1581 811 2004 
Q 403 2428 403 3163 
Q 403 3881 828 4315 
Q 1253 4750 1959 4750 
Q 2769 4750 3195 4129 
Q 3622 3509 3622 2328 
Q 3622 1225 3098 567 
Q 2575 -91 1691 -91 
Q 1453 -91 1209 -44 
Q 966 3 703 97 
z
M 1959 2075 
Q 2384 2075 2632 2365 
Q 2881 2656 2881 3163 
Q 2881 3666 2632 3958 
Q 2384 4250 1959 4250 
Q 1534 4250 1286 3958 
Q 1038 3666 1038 3163 
Q 1038 2656 1286 2365 
Q 1534 2075 1959 2075 
z
" transform="scale(0.015625)"/>
      <path id="DejaVuSans-2e" d="M 684 794 
L 1344 794 
L 1344 0 
L 684 0 
L 684 794 
z
" transform="scale(0.015625)"/>
      <path id="DejaVuSans-37" d="M 525 4666 
L 3525 4666 
L 3525 4397 
L 1831 0 
L 1172 0 
L 2766 4134 
L 525 4134 
L 525 4666 
z
" transform="scale(0.015625)"/>
      <path id="DejaVuSans-25" d="M 4653 2053 
Q 4381 2053 4226 1822 
Q 4072 1591 4072 1178 
Q 4072 772 4226 539 
Q 4381 306 4653 306 
Q 4919 306 5073 539 
Q 5228 772 5228 1178 
Q 5228 1588 5073 1820 
Q 4919 2053 4653 2053 
z
M 4653 2450 
Q 5147 2450 5437 2106 
Q 5728 1763 5728 1178 
Q 5728 594 5436 251 
Q 5144 -91 4653 -91 
Q 4153 -91 3862 251 
Q 3572 594 3572 1178 
Q 3572 1766 3864 2108 
Q 4156 2450 4653 2450 
z
M 1428 4353 
Q 1159 4353 1004 4120 
Q 850 3888 850 3481 
Q 850 3069 1003 2837 
Q 1156 2606 1428 2606 
Q 1700 2606 1854 2837 
Q 2009 3069 2009 3481 
Q 2009 3884 1853 4118 
Q 1697 4353 1428 4353 
z
M 4250 4750 
L 4750 4750 
L 1831 -91 
L 1331 -91 
L 4250 4750 
z
M 1428 4750 
Q 1922 4750 2215 4408 
Q 2509 4066 2509 3481 
Q 2509 2891 2217 2550 
Q 1925 2209 1428 2209 
Q 931 2209 642 2551 
Q 353 2894 353 3481 
Q 353 4063 643 4406 
Q 934 4750 1428 4750 
z
" transform="scale(0.015625)"/>
      <path id="DejaVuSans-3b" d="M 750 3309 
L 1409 3309 
L 1409 2516 
L 750 2516 
L 750 3309 
z
M 750 794 
L 1409 794 
L 1409 256 
L 897 -744 
L 494 -744 
L 750 256 
L 750 794 
z
" transform="scale(0.015625)"/>
      <path id="DejaVuSans-33" d="M 2597 2516 
Q 3050 2419 3304 2112 
Q 3559 1806 3559 1356 
Q 3559 666 3084 287 
Q 2609 -91 1734 -91 
Q 1441 -91 1130 -33 
Q 819 25 488 141 
L 488 750 
Q 750 597 1062 519 
Q 1375 441 1716 441 
Q 2309 441 2620 675 
Q 2931 909 2931 1356 
Q 2931 1769 2642 2001 
Q 2353 2234 1838 2234 
L 1294 2234 
L 1294 2753 
L 1863 2753 
Q 2328 2753 2575 2939 
Q 2822 3125 2822 3475 
Q 2822 3834 2567 4026 
Q 2313 4219 1838 4219 
Q 1578 4219 1281 4162 
Q 984 4106 628 3988 
L 628 4550 
Q 988 4650 1302 4700 
Q 1616 4750 1894 4750 
Q 2613 4750 3031 4423 
Q 3450 4097 3450 3541 
Q 3450 3153 3228 2886 
Q 3006 2619 2597 2516 
z
" transform="scale(0.015625)"/>
      <path id="DejaVuSans-31" d="M 794 531 
L 1825 531 
L 1825 4091 
L 703 3866 
L 703 4441 
L 1819 4666 
L 2450 4666 
L 2450 531 
L 3481 531 
L 3481 0 
L 794 0 
L 794 531 
z
" transform="scale(0.015625)"/>
     </defs>
     <use xlink:href="#DejaVuSans-72"/>
     <use xlink:href="#DejaVuSans-61" transform="translate(41.113281 0)"/>
     <use xlink:href="#DejaVuSans-74" transform="translate(102.392578 0)"/>
     <use xlink:href="#DejaVuSans-65" transform="translate(141.601562 0)"/>
     <use xlink:href="#DejaVuSans-20" transform="translate(203.125 0)"/>
     <use xlink:href="#DejaVuSans-39" transform="translate(234.912109 0)"/>
     <use xlink:href="#DejaVuSans-38" transform="translate(298.535156 0)"/>
     <use xlink:href="#DejaVuSans-2e" transform="translate(362.158203 0)"/>
     <use xlink:href="#DejaVuSans-37" transform="translate(393.945312 0)"/>
     <use xlink:href="#DejaVuSans-25" transform="translate(457.568359 0)"/>
     <use xlink:href="#DejaVuSans-3b" transform="translate(552.587891 0)"/>
     <use xlink:href="#DejaVuSans-20" transform="translate(586.279297 0)"/>
     <use xlink:href="#DejaVuSans-33" transform="translate(618.066406 0)"/>
     <use xlink:href="#DejaVuSans-31" transform="translate(681.689453 0)"/>
     <use xlink:href="#DejaVuSans-30" transform="translate(745.3125 0)"/>
     <use xlink:href="#DejaVuSans-20" transform="translate(808.935547 0)"/>
     <use xlink:href="#DejaVuSans-73" transform="translate(840.722656 0)"/>
     <use xlink:href="#DejaVuSans-63" transform="translate(892.822266 0)"/>
     <use xlink:href="#DejaVuSans-68" transform="translate(947.802734 0)"/>
     <use xlink:href="#DejaVuSans-65" transform="translate(1011.181641 0)"/>
     <use xlink:href="#DejaVuSans-6d" transform="translate(1072.705078 0)"/>
     <use xlink:href="#DejaVuSans-61" transform="translate(1170.117188 0)"/>
     <use xlink:href="#DejaVuSans-73" transform="translate(1231.396484 0)"/>
    </g>
   </g>
   <g id="text_23">
    <!-- rate 98.8%; 84 schemas -->
    <g style="fill: #5c6670" transform="translate(494.278929 101.889653) scale(0.09 -0.09)">
     <use xlink:href="#DejaVuSans-72"/>
     <use xlink:href="#DejaVuSans-61" transform="translate(41.113281 0)"/>
     <use xlink:href="#DejaVuSans-74" transform="translate(102.392578 0)"/>
     <use xlink:href="#DejaVuSans-65" transform="translate(141.601562 0)"/>
     <use xlink:href="#DejaVuSans-20" transform="translate(203.125 0)"/>
     <use xlink:href="#DejaVuSans-39" transform="translate(234.912109 0)"/>
     <use xlink:href="#DejaVuSans-38" transform="translate(298.535156 0)"/>
     <use xlink:href="#DejaVuSans-2e" transform="translate(362.158203 0)"/>
     <use xlink:href="#DejaVuSans-38" transform="translate(393.945312 0)"/>
     <use xlink:href="#DejaVuSans-25" transform="translate(457.568359 0)"/>
     <use xlink:href="#DejaVuSans-3b" transform="translate(552.587891 0)"/>
     <use xlink:href="#DejaVuSans-20" transform="translate(586.279297 0)"/>
     <use xlink:href="#DejaVuSans-38" transform="translate(618.066406 0)"/>
     <use xlink:href="#DejaVuSans-34" transform="translate(681.689453 0)"/>
     <use xlink:href="#DejaVuSans-20" transform="translate(745.3125 0)"/>
     <use xlink:href="#DejaVuSans-73" transform="translate(777.099609 0)"/>
     <use xlink:href="#DejaVuSans-63" transform="translate(829.199219 0)"/>
     <use xlink:href="#DejaVuSans-68" transform="translate(884.179688 0)"/>
     <use xlink:href="#DejaVuSans-65" transform="translate(947.558594 0)"/>
     <use xlink:href="#DejaVuSans-6d" transform="translate(1009.082031 0)"/>
     <use xlink:href="#DejaVuSans-61" transform="translate(1106.494141 0)"/>
     <use xlink:href="#DejaVuSans-73" transform="translate(1167.773438 0)"/>
    </g>
   </g>
   <g id="text_24">
    <!-- rate 100.0%; 56 schemas -->
    <g style="fill: #5c6670" transform="translate(487.886113 134.398252) scale(0.09 -0.09)">
     <defs>
      <path id="DejaVuSans-35" d="M 691 4666 
L 3169 4666 
L 3169 4134 
L 1269 4134 
L 1269 2991 
Q 1406 3038 1543 3061 
Q 1681 3084 1819 3084 
Q 2600 3084 3056 2656 
Q 3513 2228 3513 1497 
Q 3513 744 3044 326 
Q 2575 -91 1722 -91 
Q 1428 -91 1123 -41 
Q 819 9 494 109 
L 494 744 
Q 775 591 1075 516 
Q 1375 441 1709 441 
Q 2250 441 2565 725 
Q 2881 1009 2881 1497 
Q 2881 1984 2565 2268 
Q 2250 2553 1709 2553 
Q 1456 2553 1204 2497 
Q 953 2441 691 2322 
L 691 4666 
z
" transform="scale(0.015625)"/>
     </defs>
     <use xlink:href="#DejaVuSans-72"/>
     <use xlink:href="#DejaVuSans-61" transform="translate(41.113281 0)"/>
     <use xlink:href="#DejaVuSans-74" transform="translate(102.392578 0)"/>
     <use xlink:href="#DejaVuSans-65" transform="translate(141.601562 0)"/>
     <use xlink:href="#DejaVuSans-20" transform="translate(203.125 0)"/>
     <use xlink:href="#DejaVuSans-31" transform="translate(234.912109 0)"/>
     <use xlink:href="#DejaVuSans-30" transform="translate(298.535156 0)"/>
     <use xlink:href="#DejaVuSans-30" transform="translate(362.158203 0)"/>
     <use xlink:href="#DejaVuSans-2e" transform="translate(425.78125 0)"/>
     <use xlink:href="#DejaVuSans-30" transform="translate(457.568359 0)"/>
     <use xlink:href="#DejaVuSans-25" transform="translate(521.191406 0)"/>
     <use xlink:href="#DejaVuSans-3b" transform="translate(616.210938 0)"/>
     <use xlink:href="#DejaVuSans-20" transform="translate(649.902344 0)"/>
     <use xlink:href="#DejaVuSans-35" transform="translate(681.689453 0)"/>
     <use xlink:href="#DejaVuSans-36" transform="translate(745.3125 0)"/>
     <use xlink:href="#DejaVuSans-20" transform="translate(808.935547 0)"/>
     <use xlink:href="#DejaVuSans-73" transform="translate(840.722656 0)"/>
     <use xlink:href="#DejaVuSans-63" transform="translate(892.822266 0)"/>
     <use xlink:href="#DejaVuSans-68" transform="translate(947.802734 0)"/>
     <use xlink:href="#DejaVuSans-65" transform="translate(1011.181641 0)"/>
     <use xlink:href="#DejaVuSans-6d" transform="translate(1072.705078 0)"/>
     <use xlink:href="#DejaVuSans-61" transform="translate(1170.117188 0)"/>
     <use xlink:href="#DejaVuSans-73" transform="translate(1231.396484 0)"/>
    </g>
   </g>
   <g id="text_25">
    <!-- rate 100.0%; 11 schemas -->
    <g style="fill: #5c6670" transform="translate(471.710492 166.906852) scale(0.09 -0.09)">
     <use xlink:href="#DejaVuSans-72"/>
     <use xlink:href="#DejaVuSans-61" transform="translate(41.113281 0)"/>
     <use xlink:href="#DejaVuSans-74" transform="translate(102.392578 0)"/>
     <use xlink:href="#DejaVuSans-65" transform="translate(141.601562 0)"/>
     <use xlink:href="#DejaVuSans-20" transform="translate(203.125 0)"/>
     <use xlink:href="#DejaVuSans-31" transform="translate(234.912109 0)"/>
     <use xlink:href="#DejaVuSans-30" transform="translate(298.535156 0)"/>
     <use xlink:href="#DejaVuSans-30" transform="translate(362.158203 0)"/>
     <use xlink:href="#DejaVuSans-2e" transform="translate(425.78125 0)"/>
     <use xlink:href="#DejaVuSans-30" transform="translate(457.568359 0)"/>
     <use xlink:href="#DejaVuSans-25" transform="translate(521.191406 0)"/>
     <use xlink:href="#DejaVuSans-3b" transform="translate(616.210938 0)"/>
     <use xlink:href="#DejaVuSans-20" transform="translate(649.902344 0)"/>
     <use xlink:href="#DejaVuSans-31" transform="translate(681.689453 0)"/>
     <use xlink:href="#DejaVuSans-31" transform="translate(745.3125 0)"/>
     <use xlink:href="#DejaVuSans-20" transform="translate(808.935547 0)"/>
     <use xlink:href="#DejaVuSans-73" transform="translate(840.722656 0)"/>
     <use xlink:href="#DejaVuSans-63" transform="translate(892.822266 0)"/>
     <use xlink:href="#DejaVuSans-68" transform="translate(947.802734 0)"/>
     <use xlink:href="#DejaVuSans-65" transform="translate(1011.181641 0)"/>
     <use xlink:href="#DejaVuSans-6d" transform="translate(1072.705078 0)"/>
     <use xlink:href="#DejaVuSans-61" transform="translate(1170.117188 0)"/>
     <use xlink:href="#DejaVuSans-73" transform="translate(1231.396484 0)"/>
    </g>
   </g>
   <g id="text_26">
    <!-- rate 96.8%; 30 schemas -->
    <g style="fill: #5c6670" transform="translate(466.523228 199.415451) scale(0.09 -0.09)">
     <use xlink:href="#DejaVuSans-72"/>
     <use xlink:href="#DejaVuSans-61" transform="translate(41.113281 0)"/>
     <use xlink:href="#DejaVuSans-74" transform="translate(102.392578 0)"/>
     <use xlink:href="#DejaVuSans-65" transform="translate(141.601562 0)"/>
     <use xlink:href="#DejaVuSans-20" transform="translate(203.125 0)"/>
     <use xlink:href="#DejaVuSans-39" transform="translate(234.912109 0)"/>
     <use xlink:href="#DejaVuSans-36" transform="translate(298.535156 0)"/>
     <use xlink:href="#DejaVuSans-2e" transform="translate(362.158203 0)"/>
     <use xlink:href="#DejaVuSans-38" transform="translate(393.945312 0)"/>
     <use xlink:href="#DejaVuSans-25" transform="translate(457.568359 0)"/>
     <use xlink:href="#DejaVuSans-3b" transform="translate(552.587891 0)"/>
     <use xlink:href="#DejaVuSans-20" transform="translate(586.279297 0)"/>
     <use xlink:href="#DejaVuSans-33" transform="translate(618.066406 0)"/>
     <use xlink:href="#DejaVuSans-30" transform="translate(681.689453 0)"/>
     <use xlink:href="#DejaVuSans-20" transform="translate(745.3125 0)"/>
     <use xlink:href="#DejaVuSans-73" transform="translate(777.099609 0)"/>
     <use xlink:href="#DejaVuSans-63" transform="translate(829.199219 0)"/>
     <use xlink:href="#DejaVuSans-68" transform="translate(884.179688 0)"/>
     <use xlink:href="#DejaVuSans-65" transform="translate(947.558594 0)"/>
     <use xlink:href="#DejaVuSans-6d" transform="translate(1009.082031 0)"/>
     <use xlink:href="#DejaVuSans-61" transform="translate(1106.494141 0)"/>
     <use xlink:href="#DejaVuSans-73" transform="translate(1167.773438 0)"/>
    </g>
   </g>
   <g id="text_27">
    <!-- rate 65.5%; 329 schemas -->
    <g style="fill: #5c6670" transform="translate(447.980104 231.924051) scale(0.09 -0.09)">
     <use xlink:href="#DejaVuSans-72"/>
     <use xlink:href="#DejaVuSans-61" transform="translate(41.113281 0)"/>
     <use xlink:href="#DejaVuSans-74" transform="translate(102.392578 0)"/>
     <use xlink:href="#DejaVuSans-65" transform="translate(141.601562 0)"/>
     <use xlink:href="#DejaVuSans-20" transform="translate(203.125 0)"/>
     <use xlink:href="#DejaVuSans-36" transform="translate(234.912109 0)"/>
     <use xlink:href="#DejaVuSans-35" transform="translate(298.535156 0)"/>
     <use xlink:href="#DejaVuSans-2e" transform="translate(362.158203 0)"/>
     <use xlink:href="#DejaVuSans-35" transform="translate(393.945312 0)"/>
     <use xlink:href="#DejaVuSans-25" transform="translate(457.568359 0)"/>
     <use xlink:href="#DejaVuSans-3b" transform="translate(552.587891 0)"/>
     <use xlink:href="#DejaVuSans-20" transform="translate(586.279297 0)"/>
     <use xlink:href="#DejaVuSans-33" transform="translate(618.066406 0)"/>
     <use xlink:href="#DejaVuSans-32" transform="translate(681.689453 0)"/>
     <use xlink:href="#DejaVuSans-39" transform="translate(745.3125 0)"/>
     <use xlink:href="#DejaVuSans-20" transform="translate(808.935547 0)"/>
     <use xlink:href="#DejaVuSans-73" transform="translate(840.722656 0)"/>
     <use xlink:href="#DejaVuSans-63" transform="translate(892.822266 0)"/>
     <use xlink:href="#DejaVuSans-68" transform="translate(947.802734 0)"/>
     <use xlink:href="#DejaVuSans-65" transform="translate(1011.181641 0)"/>
     <use xlink:href="#DejaVuSans-6d" transform="translate(1072.705078 0)"/>
     <use xlink:href="#DejaVuSans-61" transform="translate(1170.117188 0)"/>
     <use xlink:href="#DejaVuSans-73" transform="translate(1231.396484 0)"/>
    </g>
   </g>
   <g id="text_28">
    <!-- rate 80.0%; 8 schemas -->
    <g style="fill: #5c6670" transform="translate(399.34329 264.43265) scale(0.09 -0.09)">
     <use xlink:href="#DejaVuSans-72"/>
     <use xlink:href="#DejaVuSans-61" transform="translate(41.113281 0)"/>
     <use xlink:href="#DejaVuSans-74" transform="translate(102.392578 0)"/>
     <use xlink:href="#DejaVuSans-65" transform="translate(141.601562 0)"/>
     <use xlink:href="#DejaVuSans-20" transform="translate(203.125 0)"/>
     <use xlink:href="#DejaVuSans-38" transform="translate(234.912109 0)"/>
     <use xlink:href="#DejaVuSans-30" transform="translate(298.535156 0)"/>
     <use xlink:href="#DejaVuSans-2e" transform="translate(362.158203 0)"/>
     <use xlink:href="#DejaVuSans-30" transform="translate(393.945312 0)"/>
     <use xlink:href="#DejaVuSans-25" transform="translate(457.568359 0)"/>
     <use xlink:href="#DejaVuSans-3b" transform="translate(552.587891 0)"/>
     <use xlink:href="#DejaVuSans-20" transform="translate(586.279297 0)"/>
     <use xlink:href="#DejaVuSans-38" transform="translate(618.066406 0)"/>
     <use xlink:href="#DejaVuSans-20" transform="translate(681.689453 0)"/>
     <use xlink:href="#DejaVuSans-73" transform="translate(713.476562 0)"/>
     <use xlink:href="#DejaVuSans-63" transform="translate(765.576172 0)"/>
     <use xlink:href="#DejaVuSans-68" transform="translate(820.556641 0)"/>
     <use xlink:href="#DejaVuSans-65" transform="translate(883.935547 0)"/>
     <use xlink:href="#DejaVuSans-6d" transform="translate(945.458984 0)"/>
     <use xlink:href="#DejaVuSans-61" transform="translate(1042.871094 0)"/>
     <use xlink:href="#DejaVuSans-73" transform="translate(1104.150391 0)"/>
    </g>
   </g>
   <g id="text_29">
    <!-- rate 55.0%; 82 schemas -->
    <g style="fill: #5c6670" transform="translate(322.702966 296.94125) scale(0.09 -0.09)">
     <use xlink:href="#DejaVuSans-72"/>
     <use xlink:href="#DejaVuSans-61" transform="translate(41.113281 0)"/>
     <use xlink:href="#DejaVuSans-74" transform="translate(102.392578 0)"/>
     <use xlink:href="#DejaVuSans-65" transform="translate(141.601562 0)"/>
     <use xlink:href="#DejaVuSans-20" transform="translate(203.125 0)"/>
     <use xlink:href="#DejaVuSans-35" transform="translate(234.912109 0)"/>
     <use xlink:href="#DejaVuSans-35" transform="translate(298.535156 0)"/>
     <use xlink:href="#DejaVuSans-2e" transform="translate(362.158203 0)"/>
     <use xlink:href="#DejaVuSans-30" transform="translate(393.945312 0)"/>
     <use xlink:href="#DejaVuSans-25" transform="translate(457.568359 0)"/>
     <use xlink:href="#DejaVuSans-3b" transform="translate(552.587891 0)"/>
     <use xlink:href="#DejaVuSans-20" transform="translate(586.279297 0)"/>
     <use xlink:href="#DejaVuSans-38" transform="translate(618.066406 0)"/>
     <use xlink:href="#DejaVuSans-32" transform="translate(681.689453 0)"/>
     <use xlink:href="#DejaVuSans-20" transform="translate(745.3125 0)"/>
     <use xlink:href="#DejaVuSans-73" transform="translate(777.099609 0)"/>
     <use xlink:href="#DejaVuSans-63" transform="translate(829.199219 0)"/>
     <use xlink:href="#DejaVuSans-68" transform="translate(884.179688 0)"/>
     <use xlink:href="#DejaVuSans-65" transform="translate(947.558594 0)"/>
     <use xlink:href="#DejaVuSans-6d" transform="translate(1009.082031 0)"/>
     <use xlink:href="#DejaVuSans-61" transform="translate(1106.494141 0)"/>
     <use xlink:href="#DejaVuSans-73" transform="translate(1167.773438 0)"/>
    </g>
   </g>
   <g id="text_30">
    <!-- rate 53.8%; 21 schemas -->
    <g style="fill: #5c6670" transform="translate(308.004178 329.44985) scale(0.09 -0.09)">
     <use xlink:href="#DejaVuSans-72"/>
     <use xlink:href="#DejaVuSans-61" transform="translate(41.113281 0)"/>
     <use xlink:href="#DejaVuSans-74" transform="translate(102.392578 0)"/>
     <use xlink:href="#DejaVuSans-65" transform="translate(141.601562 0)"/>
     <use xlink:href="#DejaVuSans-20" transform="translate(203.125 0)"/>
     <use xlink:href="#DejaVuSans-35" transform="translate(234.912109 0)"/>
     <use xlink:href="#DejaVuSans-33" transform="translate(298.535156 0)"/>
     <use xlink:href="#DejaVuSans-2e" transform="translate(362.158203 0)"/>
     <use xlink:href="#DejaVuSans-38" transform="translate(393.945312 0)"/>
     <use xlink:href="#DejaVuSans-25" transform="translate(457.568359 0)"/>
     <use xlink:href="#DejaVuSans-3b" transform="translate(552.587891 0)"/>
     <use xlink:href="#DejaVuSans-20" transform="translate(586.279297 0)"/>
     <use xlink:href="#DejaVuSans-32" transform="translate(618.066406 0)"/>
     <use xlink:href="#DejaVuSans-31" transform="translate(681.689453 0)"/>
     <use xlink:href="#DejaVuSans-20" transform="translate(745.3125 0)"/>
     <use xlink:href="#DejaVuSans-73" transform="translate(777.099609 0)"/>
     <use xlink:href="#DejaVuSans-63" transform="translate(829.199219 0)"/>
     <use xlink:href="#DejaVuSans-68" transform="translate(884.179688 0)"/>
     <use xlink:href="#DejaVuSans-65" transform="translate(947.558594 0)"/>
     <use xlink:href="#DejaVuSans-6d" transform="translate(1009.082031 0)"/>
     <use xlink:href="#DejaVuSans-61" transform="translate(1106.494141 0)"/>
     <use xlink:href="#DejaVuSans-73" transform="translate(1167.773438 0)"/>
    </g>
   </g>
   <g id="text_31">
    <!-- rate 37.4%; 393 schemas -->
    <g style="fill: #5c6670" transform="translate(303.454885 361.958449) scale(0.09 -0.09)">
     <use xlink:href="#DejaVuSans-72"/>
     <use xlink:href="#DejaVuSans-61" transform="translate(41.113281 0)"/>
     <use xlink:href="#DejaVuSans-74" transform="translate(102.392578 0)"/>
     <use xlink:href="#DejaVuSans-65" transform="translate(141.601562 0)"/>
     <use xlink:href="#DejaVuSans-20" transform="translate(203.125 0)"/>
     <use xlink:href="#DejaVuSans-33" transform="translate(234.912109 0)"/>
     <use xlink:href="#DejaVuSans-37" transform="translate(298.535156 0)"/>
     <use xlink:href="#DejaVuSans-2e" transform="translate(362.158203 0)"/>
     <use xlink:href="#DejaVuSans-34" transform="translate(393.945312 0)"/>
     <use xlink:href="#DejaVuSans-25" transform="translate(457.568359 0)"/>
     <use xlink:href="#DejaVuSans-3b" transform="translate(552.587891 0)"/>
     <use xlink:href="#DejaVuSans-20" transform="translate(586.279297 0)"/>
     <use xlink:href="#DejaVuSans-33" transform="translate(618.066406 0)"/>
     <use xlink:href="#DejaVuSans-39" transform="translate(681.689453 0)"/>
     <use xlink:href="#DejaVuSans-33" transform="translate(745.3125 0)"/>
     <use xlink:href="#DejaVuSans-20" transform="translate(808.935547 0)"/>
     <use xlink:href="#DejaVuSans-73" transform="translate(840.722656 0)"/>
     <use xlink:href="#DejaVuSans-63" transform="translate(892.822266 0)"/>
     <use xlink:href="#DejaVuSans-68" transform="translate(947.802734 0)"/>
     <use xlink:href="#DejaVuSans-65" transform="translate(1011.181641 0)"/>
     <use xlink:href="#DejaVuSans-6d" transform="translate(1072.705078 0)"/>
     <use xlink:href="#DejaVuSans-61" transform="translate(1170.117188 0)"/>
     <use xlink:href="#DejaVuSans-73" transform="translate(1231.396484 0)"/>
    </g>
   </g>
   <g id="text_32">
    <!-- rate 34.7%; 397 schemas -->
    <g style="fill: #5c6670" transform="translate(287.120547 394.467049) scale(0.09 -0.09)">
     <use xlink:href="#DejaVuSans-72"/>
     <use xlink:href="#DejaVuSans-61" transform="translate(41.113281 0)"/>
     <use xlink:href="#DejaVuSans-74" transform="translate(102.392578 0)"/>
     <use xlink:href="#DejaVuSans-65" transform="translate(141.601562 0)"/>
     <use xlink:href="#DejaVuSans-20" transform="translate(203.125 0)"/>
     <use xlink:href="#DejaVuSans-33" transform="translate(234.912109 0)"/>
     <use xlink:href="#DejaVuSans-34" transform="translate(298.535156 0)"/>
     <use xlink:href="#DejaVuSans-2e" transform="translate(362.158203 0)"/>
     <use xlink:href="#DejaVuSans-37" transform="translate(393.945312 0)"/>
     <use xlink:href="#DejaVuSans-25" transform="translate(457.568359 0)"/>
     <use xlink:href="#DejaVuSans-3b" transform="translate(552.587891 0)"/>
     <use xlink:href="#DejaVuSans-20" transform="translate(586.279297 0)"/>
     <use xlink:href="#DejaVuSans-33" transform="translate(618.066406 0)"/>
     <use xlink:href="#DejaVuSans-39" transform="translate(681.689453 0)"/>
     <use xlink:href="#DejaVuSans-37" transform="translate(745.3125 0)"/>
     <use xlink:href="#DejaVuSans-20" transform="translate(808.935547 0)"/>
     <use xlink:href="#DejaVuSans-73" transform="translate(840.722656 0)"/>
     <use xlink:href="#DejaVuSans-63" transform="translate(892.822266 0)"/>
     <use xlink:href="#DejaVuSans-68" transform="translate(947.802734 0)"/>
     <use xlink:href="#DejaVuSans-65" transform="translate(1011.181641 0)"/>
     <use xlink:href="#DejaVuSans-6d" transform="translate(1072.705078 0)"/>
     <use xlink:href="#DejaVuSans-61" transform="translate(1170.117188 0)"/>
     <use xlink:href="#DejaVuSans-73" transform="translate(1231.396484 0)"/>
    </g>
   </g>
   <g id="text_33">
    <!-- rate 43.8%; 7 schemas -->
    <g style="fill: #5c6670" transform="translate(269.917105 426.975648) scale(0.09 -0.09)">
     <use xlink:href="#DejaVuSans-72"/>
     <use xlink:href="#DejaVuSans-61" transform="translate(41.113281 0)"/>
     <use xlink:href="#DejaVuSans-74" transform="translate(102.392578 0)"/>
     <use xlink:href="#DejaVuSans-65" transform="translate(141.601562 0)"/>
     <use xlink:href="#DejaVuSans-20" transform="translate(203.125 0)"/>
     <use xlink:href="#DejaVuSans-34" transform="translate(234.912109 0)"/>
     <use xlink:href="#DejaVuSans-33" transform="translate(298.535156 0)"/>
     <use xlink:href="#DejaVuSans-2e" transform="translate(362.158203 0)"/>
     <use xlink:href="#DejaVuSans-38" transform="translate(393.945312 0)"/>
     <use xlink:href="#DejaVuSans-25" transform="translate(457.568359 0)"/>
     <use xlink:href="#DejaVuSans-3b" transform="translate(552.587891 0)"/>
     <use xlink:href="#DejaVuSans-20" transform="translate(586.279297 0)"/>
     <use xlink:href="#DejaVuSans-37" transform="translate(618.066406 0)"/>
     <use xlink:href="#DejaVuSans-20" transform="translate(681.689453 0)"/>
     <use xlink:href="#DejaVuSans-73" transform="translate(713.476562 0)"/>
     <use xlink:href="#DejaVuSans-63" transform="translate(765.576172 0)"/>
     <use xlink:href="#DejaVuSans-68" transform="translate(820.556641 0)"/>
     <use xlink:href="#DejaVuSans-65" transform="translate(883.935547 0)"/>
     <use xlink:href="#DejaVuSans-6d" transform="translate(945.458984 0)"/>
     <use xlink:href="#DejaVuSans-61" transform="translate(1042.871094 0)"/>
     <use xlink:href="#DejaVuSans-73" transform="translate(1104.150391 0)"/>
    </g>
   </g>
   <g id="text_34">
    <!-- rate 33.7%; 194 schemas -->
    <g style="fill: #5c6670" transform="translate(249.687917 459.484248) scale(0.09 -0.09)">
     <use xlink:href="#DejaVuSans-72"/>
     <use xlink:href="#DejaVuSans-61" transform="translate(41.113281 0)"/>
     <use xlink:href="#DejaVuSans-74" transform="translate(102.392578 0)"/>
     <use xlink:href="#DejaVuSans-65" transform="translate(141.601562 0)"/>
     <use xlink:href="#DejaVuSans-20" transform="translate(203.125 0)"/>
     <use xlink:href="#DejaVuSans-33" transform="translate(234.912109 0)"/>
     <use xlink:href="#DejaVuSans-33" transform="translate(298.535156 0)"/>
     <use xlink:href="#DejaVuSans-2e" transform="translate(362.158203 0)"/>
     <use xlink:href="#DejaVuSans-37" transform="translate(393.945312 0)"/>
     <use xlink:href="#DejaVuSans-25" transform="translate(457.568359 0)"/>
     <use xlink:href="#DejaVuSans-3b" transform="translate(552.587891 0)"/>
     <use xlink:href="#DejaVuSans-20" transform="translate(586.279297 0)"/>
     <use xlink:href="#DejaVuSans-31" transform="translate(618.066406 0)"/>
     <use xlink:href="#DejaVuSans-39" transform="translate(681.689453 0)"/>
     <use xlink:href="#DejaVuSans-34" transform="translate(745.3125 0)"/>
     <use xlink:href="#DejaVuSans-20" transform="translate(808.935547 0)"/>
     <use xlink:href="#DejaVuSans-73" transform="translate(840.722656 0)"/>
     <use xlink:href="#DejaVuSans-63" transform="translate(892.822266 0)"/>
     <use xlink:href="#DejaVuSans-68" transform="translate(947.802734 0)"/>
     <use xlink:href="#DejaVuSans-65" transform="translate(1011.181641 0)"/>
     <use xlink:href="#DejaVuSans-6d" transform="translate(1072.705078 0)"/>
     <use xlink:href="#DejaVuSans-61" transform="translate(1170.117188 0)"/>
     <use xlink:href="#DejaVuSans-73" transform="translate(1231.396484 0)"/>
    </g>
   </g>
   <g id="text_35">
    <!-- rate 24.7%; 573 schemas -->
    <g style="fill: #5c6670" transform="translate(248.543591 491.992847) scale(0.09 -0.09)">
     <use xlink:href="#DejaVuSans-72"/>
     <use xlink:href="#DejaVuSans-61" transform="translate(41.113281 0)"/>
     <use xlink:href="#DejaVuSans-74" transform="translate(102.392578 0)"/>
     <use xlink:href="#DejaVuSans-65" transform="translate(141.601562 0)"/>
     <use xlink:href="#DejaVuSans-20" transform="translate(203.125 0)"/>
     <use xlink:href="#DejaVuSans-32" transform="translate(234.912109 0)"/>
     <use xlink:href="#DejaVuSans-34" transform="translate(298.535156 0)"/>
     <use xlink:href="#DejaVuSans-2e" transform="translate(362.158203 0)"/>
     <use xlink:href="#DejaVuSans-37" transform="translate(393.945312 0)"/>
     <use xlink:href="#DejaVuSans-25" transform="translate(457.568359 0)"/>
     <use xlink:href="#DejaVuSans-3b" transform="translate(552.587891 0)"/>
     <use xlink:href="#DejaVuSans-20" transform="translate(586.279297 0)"/>
     <use xlink:href="#DejaVuSans-35" transform="translate(618.066406 0)"/>
     <use xlink:href="#DejaVuSans-37" transform="translate(681.689453 0)"/>
     <use xlink:href="#DejaVuSans-33" transform="translate(745.3125 0)"/>
     <use xlink:href="#DejaVuSans-20" transform="translate(808.935547 0)"/>
     <use xlink:href="#DejaVuSans-73" transform="translate(840.722656 0)"/>
     <use xlink:href="#DejaVuSans-63" transform="translate(892.822266 0)"/>
     <use xlink:href="#DejaVuSans-68" transform="translate(947.802734 0)"/>
     <use xlink:href="#DejaVuSans-65" transform="translate(1011.181641 0)"/>
     <use xlink:href="#DejaVuSans-6d" transform="translate(1072.705078 0)"/>
     <use xlink:href="#DejaVuSans-61" transform="translate(1170.117188 0)"/>
     <use xlink:href="#DejaVuSans-73" transform="translate(1231.396484 0)"/>
    </g>
   </g>
   <g id="text_36">
    <!-- rate 34.1%; 141 schemas -->
    <g style="fill: #5c6670" transform="translate(246.380667 524.501447) scale(0.09 -0.09)">
     <use xlink:href="#DejaVuSans-72"/>
     <use xlink:href="#DejaVuSans-61" transform="translate(41.113281 0)"/>
     <use xlink:href="#DejaVuSans-74" transform="translate(102.392578 0)"/>
     <use xlink:href="#DejaVuSans-65" transform="translate(141.601562 0)"/>
     <use xlink:href="#DejaVuSans-20" transform="translate(203.125 0)"/>
     <use xlink:href="#DejaVuSans-33" transform="translate(234.912109 0)"/>
     <use xlink:href="#DejaVuSans-34" transform="translate(298.535156 0)"/>
     <use xlink:href="#DejaVuSans-2e" transform="translate(362.158203 0)"/>
     <use xlink:href="#DejaVuSans-31" transform="translate(393.945312 0)"/>
     <use xlink:href="#DejaVuSans-25" transform="translate(457.568359 0)"/>
     <use xlink:href="#DejaVuSans-3b" transform="translate(552.587891 0)"/>
     <use xlink:href="#DejaVuSans-20" transform="translate(586.279297 0)"/>
     <use xlink:href="#DejaVuSans-31" transform="translate(618.066406 0)"/>
     <use xlink:href="#DejaVuSans-34" transform="translate(681.689453 0)"/>
     <use xlink:href="#DejaVuSans-31" transform="translate(745.3125 0)"/>
     <use xlink:href="#DejaVuSans-20" transform="translate(808.935547 0)"/>
     <use xlink:href="#DejaVuSans-73" transform="translate(840.722656 0)"/>
     <use xlink:href="#DejaVuSans-63" transform="translate(892.822266 0)"/>
     <use xlink:href="#DejaVuSans-68" transform="translate(947.802734 0)"/>
     <use xlink:href="#DejaVuSans-65" transform="translate(1011.181641 0)"/>
     <use xlink:href="#DejaVuSans-6d" transform="translate(1072.705078 0)"/>
     <use xlink:href="#DejaVuSans-61" transform="translate(1170.117188 0)"/>
     <use xlink:href="#DejaVuSans-73" transform="translate(1231.396484 0)"/>
    </g>
   </g>
   <g id="text_37">
    <!-- Features most associated with compile_error -->
    <g style="fill: #1f2933" transform="translate(106.935938 17.837813) scale(0.14 -0.14)">
     <defs>
      <path id="DejaVuSans-46" d="M 628 4666 
L 3309 4666 
L 3309 4134 
L 1259 4134 
L 1259 2759 
L 3109 2759 
L 3109 2228 
L 1259 2228 
L 1259 0 
L 628 0 
L 628 4666 
z
" transform="scale(0.015625)"/>
      <path id="DejaVuSans-5f" d="M 3263 -1063 
L 3263 -1509 
L -63 -1509 
L -63 -1063 
L 3263 -1063 
z
" transform="scale(0.015625)"/>
     </defs>
     <use xlink:href="#DejaVuSans-46"/>
     <use xlink:href="#DejaVuSans-65" transform="translate(52.019531 0)"/>
     <use xlink:href="#DejaVuSans-61" transform="translate(113.542969 0)"/>
     <use xlink:href="#DejaVuSans-74" transform="translate(174.822266 0)"/>
     <use xlink:href="#DejaVuSans-75" transform="translate(214.03125 0)"/>
     <use xlink:href="#DejaVuSans-72" transform="translate(277.410156 0)"/>
     <use xlink:href="#DejaVuSans-65" transform="translate(316.273438 0)"/>
     <use xlink:href="#DejaVuSans-73" transform="translate(377.796875 0)"/>
     <use xlink:href="#DejaVuSans-20" transform="translate(429.896484 0)"/>
     <use xlink:href="#DejaVuSans-6d" transform="translate(461.683594 0)"/>
     <use xlink:href="#DejaVuSans-6f" transform="translate(559.095703 0)"/>
     <use xlink:href="#DejaVuSans-73" transform="translate(620.277344 0)"/>
     <use xlink:href="#DejaVuSans-74" transform="translate(672.376953 0)"/>
     <use xlink:href="#DejaVuSans-20" transform="translate(711.585938 0)"/>
     <use xlink:href="#DejaVuSans-61" transform="translate(743.373047 0)"/>
     <use xlink:href="#DejaVuSans-73" transform="translate(804.652344 0)"/>
     <use xlink:href="#DejaVuSans-73" transform="translate(856.751953 0)"/>
     <use xlink:href="#DejaVuSans-6f" transform="translate(908.851562 0)"/>
     <use xlink:href="#DejaVuSans-63" transform="translate(970.033203 0)"/>
     <use xlink:href="#DejaVuSans-69" transform="translate(1025.013672 0)"/>
     <use xlink:href="#DejaVuSans-61" transform="translate(1052.796875 0)"/>
     <use xlink:href="#DejaVuSans-74" transform="translate(1114.076172 0)"/>
     <use xlink:href="#DejaVuSans-65" transform="translate(1153.285156 0)"/>
     <use xlink:href="#DejaVuSans-64" transform="translate(1214.808594 0)"/>
     <use xlink:href="#DejaVuSans-20" transform="translate(1278.285156 0)"/>
     <use xlink:href="#DejaVuSans-77" transform="translate(1310.072266 0)"/>
     <use xlink:href="#DejaVuSans-69" transform="translate(1391.859375 0)"/>
     <use xlink:href="#DejaVuSans-74" transform="translate(1419.642578 0)"/>
     <use xlink:href="#DejaVuSans-68" transform="translate(1458.851562 0)"/>
     <use xlink:href="#DejaVuSans-20" transform="translate(1522.230469 0)"/>
     <use xlink:href="#DejaVuSans-63" transform="translate(1554.017578 0)"/>
     <use xlink:href="#DejaVuSans-6f" transform="translate(1608.998047 0)"/>
     <use xlink:href="#DejaVuSans-6d" transform="translate(1670.179688 0)"/>
     <use xlink:href="#DejaVuSans-70" transform="translate(1767.591797 0)"/>
     <use xlink:href="#DejaVuSans-69" transform="translate(1831.068359 0)"/>
     <use xlink:href="#DejaVuSans-6c" transform="translate(1858.851562 0)"/>
     <use xlink:href="#DejaVuSans-65" transform="translate(1886.634766 0)"/>
     <use xlink:href="#DejaVuSans-5f" transform="translate(1948.158203 0)"/>
     <use xlink:href="#DejaVuSans-65" transform="translate(1998.158203 0)"/>
     <use xlink:href="#DejaVuSans-72" transform="translate(2059.681641 0)"/>
     <use xlink:href="#DejaVuSans-72" transform="translate(2099.044922 0)"/>
     <use xlink:href="#DejaVuSans-6f" transform="translate(2137.908203 0)"/>
     <use xlink:href="#DejaVuSans-72" transform="translate(2199.089844 0)"/>
    </g>
   </g>
  </g>
 </g>
 <defs>
  <clipPath id="p3886a6cc3d">
   <rect x="106.935938" y="29.837813" width="617.23041" height="529.24"/>
  </clipPath>
 </defs>
</svg>
