<svg xmlns="http://www.w3.org/2000/svg" width="960" height="440" viewBox="0 0 960 440" role="img" aria-label="Phase timing mean +/- std by schema status"><rect width="100%" height="100%" fill="#FFFFFF"/><text x="24.00" y="30.00" font-family="Inter, Arial, sans-serif" font-size="17" fill="#1F2933" text-anchor="start" font-weight="700">Phase timing mean +/- std by schema status</text><line x1="82" y1="344.00" x2="928" y2="344.00" stroke="#D9DEE5"/><text x="74.00" y="348.00" font-family="Inter, Arial, sans-serif" font-size="10" fill="#1F2933" text-anchor="end" font-weight="400">0</text><line x1="82" y1="288.00" x2="928" y2="288.00" stroke="#D9DEE5"/><text x="74.00" y="292.00" font-family="Inter, Arial, sans-serif" font-size="10" fill="#1F2933" text-anchor="end" font-weight="400">0.002</text><line x1="82" y1="232.00" x2="928" y2="232.00" stroke="#D9DEE5"/><text x="74.00" y="236.00" font-family="Inter, Arial, sans-serif" font-size="10" fill="#1F2933" text-anchor="end" font-weight="400">0.004</text><line x1="82" y1="176.00" x2="928" y2="176.00" stroke="#D9DEE5"/><text x="74.00" y="180.00" font-family="Inter, Arial, sans-serif" font-size="10" fill="#1F2933" text-anchor="end" font-weight="400">0.006</text><line x1="82" y1="120.00" x2="928" y2="120.00" stroke="#D9DEE5"/><text x="74.00" y="124.00" font-family="Inter, Arial, sans-serif" font-size="10" fill="#1F2933" text-anchor="end" font-weight="400">0.008</text><line x1="82" y1="64.00" x2="928" y2="64.00" stroke="#D9DEE5"/><text x="74.00" y="68.00" font-family="Inter, Arial, sans-serif" font-size="10" fill="#1F2933" text-anchor="end" font-weight="400">0.01</text><rect x="136.60" y="297.56" width="24" height="46.44" fill="#2F6BFF" opacity="0.82"/><line x1="148.60" y1="246.96" x2="148.60" y2="344.00" stroke="#1F2933"/><line x1="141.60" y1="246.96" x2="155.60" y2="246.96" stroke="#1F2933"/><line x1="141.60" y1="344.00" x2="155.60" y2="344.00" stroke="#1F2933"/><text x="166.60" y="386.00" font-family="Inter, Arial, sans-serif" font-size="10" fill="#1F2933" text-anchor="middle" font-weight="400">compile_grammar_s</text><rect x="305.80" y="252.25" width="24" height="91.75" fill="#2F6BFF" opacity="0.82"/><line x1="317.80" y1="78.93" x2="317.80" y2="344.00" stroke="#1F2933"/><line x1="310.80" y1="78.93" x2="324.80" y2="78.93" stroke="#1F2933"/><line x1="310.80" y1="344.00" x2="324.80" y2="344.00" stroke="#1F2933"/><text x="335.80" y="386.00" font-family="Inter, Arial, sans-serif" font-size="10" fill="#1F2933" text-anchor="middle" font-weight="400">validation_loop_s</text><rect x="475.00" y="261.32" width="24" height="82.68" fill="#2F6BFF" opacity="0.82"/><line x1="487.00" y1="97.53" x2="487.00" y2="344.00" stroke="#1F2933"/><line x1="480.00" y1="97.53" x2="494.00" y2="97.53" stroke="#1F2933"/><line x1="480.00" y1="344.00" x2="494.00" y2="344.00" stroke="#1F2933"/><text x="505.00" y="386.00" font-family="Inter, Arial, sans-serif" font-size="10" fill="#1F2933" text-anchor="middle" font-weight="400">compute_mask_s</text><rect x="644.20" y="339.58" width="24" height="4.42" fill="#2F6BFF" opacity="0.82"/><line x1="656.20" y1="331.91" x2="656.20" y2="344.00" stroke="#1F2933"/><line x1="649.20" y1="331.91" x2="663.20" y2="331.91" stroke="#1F2933"/><line x1="649.20" y1="344.00" x2="663.20" y2="344.00" stroke="#1F2933"/><text x="674.20" y="386.00" font-family="Inter, Arial, sans-serif" font-size="10" fill="#1F2933" text-anchor="middle" font-weight="400">commit_token_s</text><text x="843.40" y="386.00" font-family="Inter, Arial, sans-serif" font-size="10" fill="#1F2933" text-anchor="middle" font-weight="400">timeout_elapsed_s</text><rect x="790" y="54" width="12" height="12" fill="#2F6BFF"/><text x="808.00" y="65.00" font-family="Inter, Arial, sans-serif" font-size="11" fill="#1F2933" text-anchor="start" font-weight="400">completed</text><rect x="790" y="74" width="12" height="12" fill="#C43C39"/><text x="808.00" y="85.00" font-family="Inter, Arial, sans-serif" font-size="11" fill="#1F2933" text-anchor="start" font-weight="400">timeout</text><text x="24.00" y="204.00" font-family="Inter, Arial, sans-serif" font-size="12" fill="#1F2933" text-anchor="middle" font-weight="400">seconds</text></svg>
