<svg xmlns="http://www.w3.org/2000/svg" width="960" height="500" viewBox="0 0 960 500" role="img" aria-label="Phase time share for slowest completed schemas"><rect width="100%" height="100%" fill="#FFFFFF"/><text x="24.00" y="30.00" font-family="Inter, Arial, sans-serif" font-size="17" fill="#1F2933" text-anchor="start" font-weight="700">Phase time share for slowest completed schemas</text><rect x="805" y="48" width="12" height="12" fill="#2F6BFF"/><text x="822.00" y="59.00" font-family="Inter, Arial, sans-serif" font-size="11" fill="#1F2933" text-anchor="start" font-weight="400">compile</text><rect x="805" y="67" width="12" height="12" fill="#008C7D"/><text x="822.00" y="78.00" font-family="Inter, Arial, sans-serif" font-size="11" fill="#1F2933" text-anchor="start" font-weight="400">validation</text><rect x="805" y="86" width="12" height="12" fill="#D96C06"/><text x="822.00" y="97.00" font-family="Inter, Arial, sans-serif" font-size="11" fill="#1F2933" text-anchor="start" font-weight="400">mask</text><rect x="805" y="105" width="12" height="12" fill="#7557B8"/><text x="822.00" y="116.00" font-family="Inter, Arial, sans-serif" font-size="11" fill="#1F2933" text-anchor="start" font-weight="400">commit</text><text x="250.00" y="76.00" font-family="Inter, Arial, sans-serif" font-size="10" fill="#1F2933" text-anchor="end" font-weight="400">Github_ultra---o46393.json</text><rect x="260.00" y="60" width="490.56" height="20" fill="#2F6BFF"/><rect x="750.56" y="60" width="15.59" height="20" fill="#008C7D"/><rect x="766.15" y="60" width="12.89" height="20" fill="#D96C06"/><rect x="779.03" y="60" width="0.97" height="20" fill="#7557B8"/><text x="788.00" y="75.00" font-family="Inter, Arial, sans-serif" font-size="10" fill="#1F2933" text-anchor="start" font-weight="400">0.0326s</text><text x="250.00" y="110.00" font-family="Inter, Arial, sans-serif" font-size="10" fill="#1F2933" text-anchor="end" font-weight="400">Github_ultra---o359.json</text><rect x="260.00" y="94" width="310.76" height="20" fill="#2F6BFF"/><rect x="570.76" y="94" width="105.62" height="20" fill="#008C7D"/><rect x="676.38" y="94" width="100.75" height="20" fill="#D96C06"/><rect x="777.13" y="94" width="2.87" height="20" fill="#7557B8"/><text x="788.00" y="109.00" font-family="Inter, Arial, sans-serif" font-size="10" fill="#1F2933" text-anchor="start" font-weight="400">0.0334s</text><text x="250.00" y="144.00" font-family="Inter, Arial, sans-serif" font-size="10" fill="#1F2933" text-anchor="end" font-weight="400">Github_ultra---o15627.json</text><rect x="260.00" y="128" width="116.82" height="20" fill="#2F6BFF"/><rect x="376.82" y="128" width="204.96" height="20" fill="#008C7D"/><rect x="581.77" y="128" width="190.01" height="20" fill="#D96C06"/><rect x="771.79" y="128" width="8.21" height="20" fill="#7557B8"/><text x="788.00" y="143.00" font-family="Inter, Arial, sans-serif" font-size="10" fill="#1F2933" text-anchor="start" font-weight="400">0.0785s</text><text x="250.00" y="178.00" font-family="Inter, Arial, sans-serif" font-size="10" fill="#1F2933" text-anchor="end" font-weight="400">Github_medium---o9907.json</text><rect x="260.00" y="162" width="520.00" height="20" fill="#2F6BFF"/><text x="788.00" y="177.00" font-family="Inter, Arial, sans-serif" font-size="10" fill="#1F2933" text-anchor="start" font-weight="400">0.0172s</text><text x="250.00" y="212.00" font-family="Inter, Arial, sans-serif" font-size="10" fill="#1F2933" text-anchor="end" font-weight="400">Github_medium---o42527.json</text><rect x="260.00" y="196" width="223.87" height="20" fill="#2F6BFF"/><rect x="483.87" y="196" width="155.82" height="20" fill="#008C7D"/><rect x="639.69" y="196" width="138.06" height="20" fill="#D96C06"/><rect x="777.74" y="196" width="2.26" height="20" fill="#7557B8"/><text x="788.00" y="211.00" font-family="Inter, Arial, sans-serif" font-size="10" fill="#1F2933" text-anchor="start" font-weight="400">0.0393s</text><text x="250.00" y="246.00" font-family="Inter, Arial, sans-serif" font-size="10" fill="#1F2933" text-anchor="end" font-weight="400">Github_ultra---o6374.json</text><rect x="260.00" y="230" width="498.90" height="20" fill="#2F6BFF"/><rect x="758.90" y="230" width="12.45" height="20" fill="#008C7D"/><rect x="771.36" y="230" width="8.01" height="20" fill="#D96C06"/><rect x="779.37" y="230" width="0.63" height="20" fill="#7557B8"/><text x="788.00" y="245.00" font-family="Inter, Arial, sans-serif" font-size="10" fill="#1F2933" text-anchor="start" font-weight="400">0.0165s</text><text x="250.00" y="280.00" font-family="Inter, Arial, sans-serif" font-size="10" fill="#1F2933" text-anchor="end" font-weight="400">Github_ultra---o6375.json</text><rect x="260.00" y="264" width="499.09" height="20" fill="#2F6BFF"/><rect x="759.09" y="264" width="12.31" height="20" fill="#008C7D"/><rect x="771.40" y="264" width="7.97" height="20" fill="#D96C06"/><rect x="779.37" y="264" width="0.63" height="20" fill="#7557B8"/><text x="788.00" y="279.00" font-family="Inter, Arial, sans-serif" font-size="10" fill="#1F2933" text-anchor="start" font-weight="400">0.0162s</text><text x="250.00" y="314.00" font-family="Inter, Arial, sans-serif" font-size="10" fill="#1F2933" text-anchor="end" font-weight="400">Github_ultra---o6373.json</text><rect x="260.00" y="298" width="499.33" height="20" fill="#2F6BFF"/><rect x="759.33" y="298" width="12.16" height="20" fill="#008C7D"/><rect x="771.48" y="298" width="7.88" height="20" fill="#D96C06"/><rect x="779.36" y="298" width="0.64" height="20" fill="#7557B8"/><text x="788.00" y="313.00" font-family="Inter, Arial, sans-serif" font-size="10" fill="#1F2933" text-anchor="start" font-weight="400">0.0159s</text><text x="250.00" y="348.00" font-family="Inter, Arial, sans-serif" font-size="10" fill="#1F2933" text-anchor="end" font-weight="400">Github_medium---o9913.json</text><rect x="260.00" y="332" width="520.00" height="20" fill="#2F6BFF"/><text x="788.00" y="347.00" font-family="Inter, Arial, sans-serif" font-size="10" fill="#1F2933" text-anchor="start" font-weight="400">0.0147s</text><text x="250.00" y="382.00" font-family="Inter, Arial, sans-serif" font-size="10" fill="#1F2933" text-anchor="end" font-weight="400">Github_ultra---o6369.json</text><rect x="260.00" y="366" width="498.09" height="20" fill="#2F6BFF"/><rect x="758.09" y="366" width="12.91" height="20" fill="#008C7D"/><rect x="771.00" y="366" width="8.37" height="20" fill="#D96C06"/><rect x="779.37" y="366" width="0.63" height="20" fill="#7557B8"/><text x="788.00" y="381.00" font-family="Inter, Arial, sans-serif" font-size="10" fill="#1F2933" text-anchor="start" font-weight="400">0.0152s</text><text x="250.00" y="416.00" font-family="Inter, Arial, sans-serif" font-size="10" fill="#1F2933" text-anchor="end" font-weight="400">Github_ultra---o6343.json</text><rect x="260.00" y="400" width="498.52" height="20" fill="#2F6BFF"/><rect x="758.52" y="400" width="12.63" height="20" fill="#008C7D"/><rect x="771.15" y="400" width="8.19" height="20" fill="#D96C06"/><rect x="779.34" y="400" width="0.66" height="20" fill="#7557B8"/><text x="788.00" y="415.00" font-family="Inter, Arial, sans-serif" font-size="10" fill="#1F2933" text-anchor="start" font-weight="400">0.0152s</text><text x="250.00" y="450.00" font-family="Inter, Arial, sans-serif" font-size="10" fill="#1F2933" text-anchor="end" font-weight="400">Github_ultra---o6371.json</text><rect x="260.00" y="434" width="498.89" height="20" fill="#2F6BFF"/><rect x="758.89" y="434" width="12.49" height="20" fill="#008C7D"/><rect x="771.38" y="434" width="7.94" height="20" fill="#D96C06"/><rect x="779.32" y="434" width="0.68" height="20" fill="#7557B8"/><text x="788.00" y="449.00" font-family="Inter, Arial, sans-serif" font-size="10" fill="#1F2933" text-anchor="start" font-weight="400">0.0151s</text></svg>
