<svg xmlns="http://www.w3.org/2000/svg" width="860" height="520" viewBox="0 0 860 520" role="img" aria-label="Schema size ECDF: completed vs timeout"><rect width="100%" height="100%" fill="#FFFFFF"/><text x="24.00" y="30.00" font-family="Inter, Arial, sans-serif" font-size="17" fill="#1F2933" text-anchor="start" font-weight="700">Schema size ECDF: completed vs timeout</text><line x1="78.00" y1="56" x2="78.00" y2="452" stroke="#D9DEE5"/><line x1="78" y1="56.00" x2="826" y2="56.00" stroke="#D9DEE5"/><line x1="227.60" y1="56" x2="227.60" y2="452" stroke="#D9DEE5"/><line x1="78" y1="135.20" x2="826" y2="135.20" stroke="#D9DEE5"/><line x1="377.20" y1="56" x2="377.20" y2="452" stroke="#D9DEE5"/><line x1="78" y1="214.40" x2="826" y2="214.40" stroke="#D9DEE5"/><line x1="526.80" y1="56" x2="526.80" y2="452" stroke="#D9DEE5"/><line x1="78" y1="293.60" x2="826" y2="293.60" stroke="#D9DEE5"/><line x1="676.40" y1="56" x2="676.40" y2="452" stroke="#D9DEE5"/><line x1="78" y1="372.80" x2="826" y2="372.80" stroke="#D9DEE5"/><line x1="826.00" y1="56" x2="826.00" y2="452" stroke="#D9DEE5"/><line x1="78" y1="452.00" x2="826" y2="452.00" stroke="#D9DEE5"/><polyline points="78.00,451.92 123.44,451.84 123.44,451.76 151.23,451.68 153.37,451.60 170.64,451.52 189.44,451.44 190.84,451.36 196.23,451.28 200.07,451.20 200.07,451.12 211.79,451.04 216.08,450.96 217.12,450.88 218.15,450.80 218.15,450.72 218.15,450.64 218.15,450.56 218.15,450.48 218.15,450.40 218.15,450.32 218.15,450.24 222.15,450.16 226.91,450.08 226.91,450.00 228.74,449.92 229.64,449.84 232.30,449.76 232.30,449.68 232.30,449.60 234.88,449.52 234.88,449.45 234.88,449.37 235.72,449.29 236.56,449.21 236.56,449.13 236.56,449.05 237.38,448.97 238.20,448.89 238.20,448.81 239.02,448.73 241.41,448.65 241.41,448.57 242.19,448.49 242.19,448.41 243.74,448.33 245.26,448.25 246.01,448.17 249.67,448.09 252.50,448.01 252.50,447.93 253.19,447.85 253.88,447.77 254.56,447.69 255.24,447.61 255.91,447.53 255.91,447.45 257.23,447.37 257.23,447.29 257.23,447.21 257.23,447.13 257.89,447.05 257.89,446.97 257.89,446.89 257.89,446.81 259.19,446.73 259.19,446.65 259.83,446.57 259.83,446.49 259.83,446.41 260.47,446.33 260.47,446.25 261.10,446.17 261.73,446.09 262.36,446.01 262.36,445.93 262.98,445.85 262.98,445.77 262.98,445.69 264.20,445.61 264.20,445.53 264.81,445.45 265.41,445.37 266.01,445.29 266.61,445.21 266.61,445.13 266.61,445.05 266.61,444.97 267.20,444.89 267.20,444.81 267.20,444.73 267.20,444.65 267.78,444.57 267.78,444.50 267.78,444.42 268.37,444.34 268.95,444.26 268.95,444.18 269.52,444.10 269.52,444.02 269.52,443.94 270.10,443.86 270.10,443.78 271.79,443.70 271.79,443.62 271.79,443.54 271.79,443.46 272.35,443.38 272.35,443.30 272.90,443.22 273.45,443.14 274.00,443.06 274.00,442.98 274.00,442.90 274.54,442.82 274.54,442.74 274.54,442.66 275.08,442.58 275.62,442.50 275.62,442.42 276.16,442.34 276.16,442.26 276.69,442.18 276.69,442.10 276.69,442.02 276.69,441.94 276.69,441.86 277.22,441.78 277.74,441.70 277.74,441.62 277.74,441.54 277.74,441.46 277.74,441.38 278.26,441.30 278.26,441.22 278.26,441.14 278.78,441.06 279.30,440.98 279.30,440.90 279.30,440.82 279.30,440.74 279.30,440.66 279.30,440.58 279.81,440.50 280.32,440.42 280.32,440.34 280.32,440.26 280.32,440.18 280.32,440.10 280.32,440.02 280.83,439.94 281.83,439.86 281.83,439.78 282.82,439.70 282.82,439.62 283.32,439.55 283.32,439.47 283.81,439.39 283.81,439.31 283.81,439.23 283.81,439.15 284.30,439.07 284.78,438.99 284.78,438.91 284.78,438.83 284.78,438.75 284.78,438.67 285.26,438.59 285.74,438.51 285.74,438.43 285.74,438.35 286.69,438.27 286.69,438.19 286.69,438.11 286.69,438.03 286.69,437.95 287.16,437.87 287.16,437.79 287.16,437.71 287.16,437.63 287.16,437.55 287.63,437.47 287.63,437.39 287.63,437.31 287.63,437.23 288.10,437.15 288.10,437.07 288.10,436.99 288.10,436.91 288.57,436.83 288.57,436.75 288.57,436.67 289.03,436.59 289.03,436.51 289.03,436.43 289.49,436.35 289.49,436.27 289.49,436.19 289.94,436.11 289.94,436.03 289.94,435.95 290.40,435.87 290.40,435.79 290.40,435.71 290.40,435.63 290.40,435.55 290.85,435.47 290.85,435.39 291.30,435.31 291.30,435.23 291.30,435.15 291.75,435.07 291.75,434.99 292.20,434.91 292.20,434.83 292.20,434.75 292.20,434.68 293.08,434.60 293.08,434.52 293.08,434.44 293.08,434.36 293.96,434.28 293.96,434.20 294.39,434.12 294.83,434.04 294.83,433.96 294.83,433.88 295.26,433.80 295.26,433.72 295.26,433.64 295.69,433.56 295.69,433.48 295.69,433.40 295.69,433.32 295.69,433.24 296.11,433.16 296.11,433.08 296.54,433.00 296.96,432.92 296.96,432.84 296.96,432.76 297.38,432.68 297.38,432.60 297.38,432.52 297.80,432.44 297.80,432.36 297.80,432.28 297.80,432.20 297.80,432.12 298.22,432.04 298.22,431.96 298.22,431.88 298.63,431.80 298.63,431.72 298.63,431.64 299.04,431.56 299.04,431.48 299.04,431.40 299.04,431.32 299.04,431.24 299.04,431.16 299.45,431.08 299.45,431.00 299.86,430.92 299.86,430.84 299.86,430.76 299.86,430.68 300.27,430.60 300.27,430.52 300.68,430.44 300.68,430.36 301.08,430.28 301.08,430.20 301.08,430.12 301.08,430.04 301.08,429.96 301.08,429.88 301.08,429.80 301.48,429.73 301.48,429.65 301.48,429.57 301.48,429.49 301.88,429.41 301.88,429.33 302.28,429.25 302.28,429.17 302.28,429.09 302.67,429.01 302.67,428.93 302.67,428.85 302.67,428.77 302.67,428.69 303.07,428.61 303.07,428.53 303.46,428.45 303.46,428.37 303.85,428.29 303.85,428.21 304.24,428.13 304.24,428.05 304.24,427.97 304.63,427.89 304.63,427.81 304.63,427.73 305.02,427.65 305.02,427.57 305.40,427.49 305.40,427.41 305.40,427.33 305.40,427.25 305.78,427.17 305.78,427.09 305.78,427.01 305.78,426.93 305.78,426.85 305.78,426.77 305.78,426.69 306.16,426.61 306.16,426.53 306.16,426.45 306.16,426.37 306.16,426.29 306.16,426.21 306.54,426.13 306.54,426.05 306.92,425.97 306.92,425.89 306.92,425.81 306.92,425.73 307.30,425.65 307.30,425.57 307.30,425.49 307.30,425.41 307.30,425.33 307.67,425.25 307.67,425.17 307.67,425.09 307.67,425.01 307.67,424.93 308.04,424.85 308.04,424.77 308.04,424.70 308.04,424.62 308.04,424.54 308.42,424.46 308.42,424.38 308.42,424.30 308.42,424.22 308.42,424.14 308.42,424.06 308.79,423.98 308.79,423.90 308.79,423.82 308.79,423.74 308.79,423.66 309.15,423.58 309.52,423.50 309.89,423.42 309.89,423.34 309.89,423.26 309.89,423.18 310.61,423.10 310.97,423.02 310.97,422.94 311.33,422.86 311.33,422.78 311.33,422.70 311.33,422.62 311.69,422.54 311.69,422.46 312.05,422.38 312.05,422.30 312.05,422.22 312.05,422.14 312.05,422.06 312.05,421.98 312.05,421.90 312.40,421.82 312.40,421.74 312.40,421.66 312.40,421.58 312.76,421.50 312.76,421.42 312.76,421.34 313.11,421.26 313.11,421.18 313.11,421.10 313.11,421.02 313.46,420.94 313.46,420.86 313.46,420.78 313.46,420.70 313.46,420.62 313.46,420.54 313.81,420.46 313.81,420.38 313.81,420.30 313.81,420.22 313.81,420.14 313.81,420.06 314.16,419.98 314.16,419.90 314.16,419.82 314.16,419.75 314.16,419.67 314.50,419.59 314.50,419.51 314.50,419.43 314.50,419.35 314.85,419.27 314.85,419.19 314.85,419.11 314.85,419.03 314.85,418.95 315.19,418.87 315.19,418.79 315.19,418.71 315.19,418.63 315.54,418.55 315.54,418.47 315.54,418.39 315.54,418.31 315.54,418.23 315.54,418.15 315.88,418.07 315.88,417.99 315.88,417.91 315.88,417.83 316.22,417.75 316.22,417.67 316.22,417.59 316.22,417.51 316.22,417.43 316.22,417.35 316.56,417.27 316.89,417.19 316.89,417.11 316.89,417.03 316.89,416.95 316.89,416.87 316.89,416.79 316.89,416.71 316.89,416.63 316.89,416.55 316.89,416.47 317.23,416.39 317.23,416.31 317.23,416.23 317.23,416.15 317.23,416.07 317.23,415.99 317.56,415.91 317.56,415.83 317.56,415.75 317.56,415.67 317.90,415.59 317.90,415.51 317.90,415.43 318.23,415.35 318.23,415.27 318.23,415.19 318.56,415.11 318.56,415.03 318.56,414.95 318.56,414.88 318.89,414.80 318.89,414.72 319.22,414.64 319.22,414.56 319.22,414.48 319.22,414.40 319.55,414.32 319.55,414.24 319.55,414.16 319.88,414.08 319.88,414.00 319.88,413.92 319.88,413.84 319.88,413.76 319.88,413.68 320.20,413.60 320.20,413.52 320.52,413.44 320.52,413.36 320.52,413.28 320.52,413.20 320.52,413.12 320.52,413.04 320.52,412.96 320.85,412.88 320.85,412.80 320.85,412.72 320.85,412.64 320.85,412.56 321.17,412.48 321.17,412.40 321.17,412.32 321.17,412.24 321.17,412.16 321.17,412.08 321.49,412.00 321.49,411.92 321.49,411.84 321.81,411.76 321.81,411.68 321.81,411.60 321.81,411.52 322.13,411.44 322.13,411.36 322.13,411.28 322.13,411.20 322.13,411.12 322.13,411.04 322.44,410.96 322.44,410.88 322.76,410.80 322.76,410.72 322.76,410.64 322.76,410.56 322.76,410.48 323.08,410.40 323.08,410.32 323.08,410.24 323.08,410.16 323.08,410.08 323.08,410.00 323.39,409.93 323.39,409.85 323.39,409.77 323.39,409.69 323.39,409.61 323.39,409.53 323.70,409.45 323.70,409.37 324.01,409.29 324.01,409.21 324.01,409.13 324.01,409.05 324.01,408.97 324.32,408.89 324.32,408.81 324.32,408.73 324.32,408.65 324.32,408.57 324.32,408.49 324.63,408.41 324.63,408.33 324.63,408.25 324.63,408.17 324.94,408.09 324.94,408.01 324.94,407.93 325.25,407.85 325.25,407.77 325.56,407.69 325.56,407.61 325.56,407.53 325.86,407.45 325.86,407.37 325.86,407.29 325.86,407.21 326.16,407.13 326.16,407.05 326.16,406.97 326.16,406.89 326.16,406.81 326.47,406.73 326.47,406.65 326.47,406.57 326.77,406.49 326.77,406.41 326.77,406.33 327.07,406.25 327.07,406.17 327.07,406.09 327.07,406.01 327.37,405.93 327.37,405.85 327.37,405.77 327.37,405.69 327.37,405.61 327.67,405.53 327.67,405.45 327.67,405.37 327.67,405.29 327.67,405.21 327.67,405.13 327.97,405.05 327.97,404.98 327.97,404.90 328.26,404.82 328.26,404.74 328.26,404.66 328.26,404.58 328.26,404.50 328.56,404.42 328.56,404.34 328.56,404.26 328.56,404.18 328.56,404.10 328.86,404.02 328.86,403.94 328.86,403.86 329.15,403.78 329.15,403.70 329.15,403.62 329.15,403.54 329.15,403.46 329.15,403.38 329.44,403.30 329.44,403.22 329.44,403.14 329.74,403.06 330.03,402.98 330.03,402.90 330.03,402.82 330.32,402.74 330.32,402.66 330.32,402.58 330.61,402.50 330.61,402.42 330.89,402.34 330.89,402.26 330.89,402.18 330.89,402.10 330.89,402.02 331.18,401.94 331.18,401.86 331.18,401.78 331.18,401.70 331.47,401.62 331.47,401.54 331.47,401.46 331.47,401.38 331.47,401.30 331.75,401.22 331.75,401.14 331.75,401.06 331.75,400.98 331.75,400.90 331.75,400.82 331.75,400.74 332.04,400.66 332.32,400.58 332.32,400.50 332.32,400.42 332.32,400.34 332.60,400.26 332.60,400.18 332.60,400.10 332.60,400.02 332.89,399.95 332.89,399.87 332.89,399.79 332.89,399.71 332.89,399.63 332.89,399.55 332.89,399.47 333.17,399.39 333.17,399.31 333.17,399.23 333.17,399.15 333.17,399.07 333.17,398.99 333.45,398.91 333.45,398.83 333.45,398.75 333.45,398.67 333.45,398.59 333.73,398.51 333.73,398.43 333.73,398.35 333.73,398.27 334.01,398.19 334.01,398.11 334.01,398.03 334.01,397.95 334.01,397.87 334.28,397.79 334.28,397.71 334.28,397.63 334.28,397.55 334.28,397.47 334.56,397.39 334.56,397.31 334.84,397.23 334.84,397.15 334.84,397.07 335.11,396.99 335.11,396.91 335.11,396.83 335.11,396.75 335.39,396.67 335.39,396.59 335.39,396.51 335.39,396.43 335.66,396.35 335.66,396.27 335.66,396.19 335.66,396.11 335.66,396.03 335.66,395.95 335.66,395.87 335.66,395.79 335.93,395.71 335.93,395.63 335.93,395.55 336.20,395.47 336.20,395.39 336.20,395.31 336.20,395.23 336.47,395.15 336.47,395.07 336.47,395.00 336.47,394.92 336.47,394.84 336.74,394.76 336.74,394.68 336.74,394.60 337.01,394.52 337.01,394.44 337.01,394.36 337.01,394.28 337.28,394.20 337.28,394.12 337.28,394.04 337.28,393.96 337.55,393.88 337.55,393.80 337.55,393.72 337.55,393.64 337.81,393.56 337.81,393.48 337.81,393.40 338.08,393.32 338.35,393.24 338.35,393.16 338.35,393.08 338.61,393.00 338.61,392.92 338.61,392.84 338.61,392.76 338.87,392.68 338.87,392.60 338.87,392.52 338.87,392.44 338.87,392.36 338.87,392.28 339.14,392.20 339.14,392.12 339.40,392.04 339.40,391.96 339.40,391.88 339.40,391.80 339.66,391.72 339.66,391.64 339.66,391.56 339.66,391.48 339.66,391.40 339.66,391.32 339.92,391.24 339.92,391.16 339.92,391.08 339.92,391.00 339.92,390.92 339.92,390.84 340.18,390.76 340.18,390.68 340.18,390.60 340.18,390.52 340.18,390.44 340.18,390.36 340.44,390.28 340.44,390.20 340.44,390.12 340.44,390.05 340.44,389.97 340.44,389.89 340.44,389.81 340.44,389.73 340.44,389.65 340.44,389.57 340.70,389.49 340.70,389.41 340.70,389.33 340.70,389.25 340.70,389.17 340.95,389.09 340.95,389.01 340.95,388.93 340.95,388.85 340.95,388.77 341.21,388.69 341.21,388.61 341.21,388.53 341.21,388.45 341.47,388.37 341.47,388.29 341.72,388.21 341.72,388.13 341.72,388.05 341.72,387.97 341.98,387.89 341.98,387.81 341.98,387.73 341.98,387.65 341.98,387.57 342.23,387.49 342.23,387.41 342.23,387.33 342.23,387.25 342.23,387.17 342.23,387.09 342.48,387.01 342.48,386.93 342.48,386.85 342.48,386.77 342.48,386.69 342.74,386.61 342.74,386.53 342.74,386.45 342.99,386.37 342.99,386.29 342.99,386.21 342.99,386.13 343.24,386.05 343.24,385.97 343.24,385.89 343.24,385.81 343.49,385.73 343.49,385.65 343.49,385.57 343.74,385.49 343.74,385.41 343.74,385.33 343.74,385.25 343.74,385.18 343.99,385.10 343.99,385.02 343.99,384.94 344.24,384.86 344.24,384.78 344.24,384.70 344.24,384.62 344.24,384.54 344.48,384.46 344.48,384.38 344.48,384.30 344.48,384.22 344.48,384.14 344.98,384.06 344.98,383.98 345.22,383.90 345.22,383.82 345.22,383.74 345.22,383.66 345.47,383.58 345.47,383.50 345.47,383.42 345.71,383.34 345.71,383.26 345.71,383.18 345.71,383.10 345.71,383.02 345.71,382.94 345.95,382.86 345.95,382.78 345.95,382.70 345.95,382.62 345.95,382.54 346.20,382.46 346.20,382.38 346.44,382.30 346.44,382.22 346.68,382.14 346.68,382.06 346.68,381.98 346.68,381.90 346.92,381.82 346.92,381.74 346.92,381.66 346.92,381.58 347.16,381.50 347.16,381.42 347.16,381.34 347.40,381.26 347.40,381.18 347.40,381.10 347.40,381.02 347.40,380.94 347.64,380.86 347.64,380.78 347.64,380.70 347.88,380.62 347.88,380.54 347.88,380.46 348.11,380.38 348.11,380.30 348.35,380.23 348.35,380.15 348.35,380.07 348.35,379.99 348.59,379.91 348.59,379.83 348.59,379.75 348.59,379.67 348.82,379.59 348.82,379.51 349.06,379.43 349.06,379.35 349.06,379.27 349.06,379.19 349.06,379.11 349.06,379.03 349.29,378.95 349.29,378.87 349.29,378.79 349.29,378.71 349.53,378.63 349.53,378.55 349.53,378.47 349.53,378.39 349.53,378.31 349.53,378.23 349.76,378.15 349.76,378.07 349.76,377.99 349.99,377.91 349.99,377.83 349.99,377.75 350.22,377.67 350.22,377.59 350.22,377.51 350.22,377.43 350.22,377.35 350.22,377.27 350.46,377.19 350.46,377.11 350.46,377.03 350.69,376.95 350.69,376.87 350.69,376.79 350.69,376.71 350.92,376.63 350.92,376.55 350.92,376.47 351.15,376.39 351.15,376.31 351.15,376.23 351.15,376.15 351.15,376.07 351.37,375.99 351.37,375.91 351.37,375.83 351.37,375.75 351.37,375.67 351.60,375.59 351.60,375.51 351.60,375.43 351.60,375.35 351.60,375.27 351.60,375.20 351.83,375.12 351.83,375.04 351.83,374.96 351.83,374.88 352.06,374.80 352.06,374.72 352.28,374.64 352.28,374.56 352.28,374.48 352.51,374.40 352.51,374.32 352.51,374.24 352.51,374.16 352.51,374.08 352.51,374.00 352.51,373.92 352.74,373.84 352.74,373.76 352.74,373.68 352.74,373.60 352.74,373.52 352.96,373.44 352.96,373.36 352.96,373.28 353.19,373.20 353.19,373.12 353.19,373.04 353.19,372.96 353.19,372.88 353.19,372.80 353.41,372.72 353.41,372.64 353.41,372.56 353.41,372.48 353.41,372.40 353.41,372.32 353.41,372.24 353.63,372.16 353.63,372.08 353.63,372.00 353.86,371.92 353.86,371.84 353.86,371.76 353.86,371.68 353.86,371.60 353.86,371.52 353.86,371.44 354.08,371.36 354.08,371.28 354.08,371.20 354.08,371.12 354.08,371.04 354.08,370.96 354.30,370.88 354.30,370.80 354.30,370.72 354.52,370.64 354.52,370.56 354.74,370.48 354.74,370.40 354.96,370.32 354.96,370.25 354.96,370.17 354.96,370.09 354.96,370.01 355.18,369.93 355.18,369.85 355.18,369.77 355.40,369.69 355.40,369.61 355.62,369.53 355.62,369.45 355.62,369.37 355.62,369.29 355.83,369.21 356.05,369.13 356.05,369.05 356.05,368.97 356.27,368.89 356.27,368.81 356.27,368.73 356.27,368.65 356.27,368.57 356.48,368.49 356.48,368.41 356.48,368.33 356.48,368.25 356.48,368.17 356.70,368.09 356.70,368.01 356.92,367.93 356.92,367.85 356.92,367.77 356.92,367.69 356.92,367.61 357.13,367.53 357.13,367.45 357.13,367.37 357.13,367.29 357.13,367.21 357.34,367.13 357.34,367.05 357.34,366.97 357.34,366.89 357.34,366.81 357.56,366.73 357.56,366.65 357.56,366.57 357.77,366.49 357.77,366.41 357.77,366.33 357.77,366.25 357.77,366.17 357.98,366.09 357.98,366.01 357.98,365.93 357.98,365.85 357.98,365.77 358.20,365.69 358.20,365.61 358.41,365.53 358.41,365.45 358.41,365.38 358.41,365.30 358.62,365.22 358.62,365.14 358.62,365.06 358.62,364.98 358.62,364.90 358.62,364.82 358.62,364.74 358.83,364.66 358.83,364.58 358.83,364.50 358.83,364.42 358.83,364.34 358.83,364.26 358.83,364.18 358.83,364.10 359.04,364.02 359.04,363.94 359.04,363.86 359.04,363.78 359.04,363.70 359.04,363.62 359.04,363.54 359.25,363.46 359.46,363.38 359.67,363.30 359.67,363.22 359.67,363.14 359.67,363.06 359.87,362.98 359.87,362.90 359.87,362.82 360.08,362.74 360.08,362.66 360.08,362.58 360.08,362.50 360.08,362.42 360.08,362.34 360.29,362.26 360.29,362.18 360.29,362.10 360.29,362.02 360.29,361.94 360.29,361.86 360.50,361.78 360.50,361.70 360.50,361.62 360.70,361.54 360.70,361.46 360.70,361.38 360.70,361.30 360.70,361.22 360.70,361.14 360.91,361.06 360.91,360.98 360.91,360.90 361.11,360.82 361.32,360.74 361.32,360.66 361.32,360.58 361.32,360.50 361.32,360.43 361.32,360.35 361.52,360.27 361.52,360.19 361.52,360.11 361.52,360.03 361.52,359.95 361.52,359.87 361.52,359.79 361.73,359.71 361.73,359.63 361.73,359.55 361.73,359.47 361.73,359.39 361.93,359.31 361.93,359.23 362.13,359.15 362.13,359.07 362.13,358.99 362.13,358.91 362.54,358.83 362.54,358.75 362.74,358.67 362.74,358.59 362.74,358.51 362.74,358.43 363.14,358.35 363.14,358.27 363.14,358.19 363.14,358.11 363.34,358.03 363.34,357.95 363.34,357.87 363.34,357.79 363.34,357.71 363.54,357.63 363.74,357.55 363.94,357.47 363.94,357.39 363.94,357.31 364.13,357.23 364.13,357.15 364.13,357.07 364.13,356.99 364.13,356.91 364.13,356.83 364.13,356.75 364.13,356.67 364.33,356.59 364.33,356.51 364.53,356.43 364.53,356.35 364.73,356.27 364.73,356.19 364.73,356.11 364.73,356.03 364.73,355.95 364.92,355.87 364.92,355.79 365.12,355.71 365.12,355.63 365.12,355.55 365.32,355.48 365.32,355.40 365.32,355.32 365.32,355.24 365.32,355.16 365.51,355.08 365.51,355.00 365.51,354.92 365.51,354.84 365.51,354.76 365.71,354.68 365.71,354.60 365.71,354.52 365.71,354.44 365.90,354.36 365.90,354.28 365.90,354.20 365.90,354.12 366.09,354.04 366.09,353.96 366.09,353.88 366.09,353.80 366.09,353.72 366.09,353.64 366.09,353.56 366.09,353.48 366.29,353.40 366.29,353.32 366.29,353.24 366.29,353.16 366.29,353.08 366.29,353.00 366.48,352.92 366.48,352.84 366.48,352.76 366.48,352.68 366.67,352.60 366.67,352.52 366.87,352.44 366.87,352.36 366.87,352.28 366.87,352.20 367.06,352.12 367.06,352.04 367.06,351.96 367.06,351.88 367.06,351.80 367.25,351.72 367.25,351.64 367.44,351.56 367.44,351.48 367.44,351.40 367.63,351.32 367.63,351.24 367.63,351.16 367.63,351.08 367.63,351.00 367.63,350.92 367.82,350.84 367.82,350.76 367.82,350.68 367.82,350.60 368.01,350.52 368.01,350.45 368.01,350.37 368.01,350.29 368.01,350.21 368.01,350.13 368.01,350.05 368.01,349.97 368.01,349.89 368.20,349.81 368.20,349.73 368.20,349.65 368.20,349.57 368.39,349.49 368.39,349.41 368.39,349.33 368.39,349.25 368.58,349.17 368.58,349.09 368.58,349.01 368.58,348.93 368.58,348.85 368.58,348.77 368.77,348.69 368.77,348.61 368.77,348.53 368.77,348.45 368.95,348.37 368.95,348.29 369.14,348.21 369.14,348.13 369.33,348.05 369.33,347.97 369.33,347.89 369.52,347.81 369.52,347.73 369.70,347.65 369.70,347.57 369.70,347.49 369.70,347.41 369.70,347.33 369.70,347.25 369.89,347.17 369.89,347.09 369.89,347.01 369.89,346.93 369.89,346.85 369.89,346.77 369.89,346.69 369.89,346.61 370.07,346.53 370.07,346.45 370.07,346.37 370.07,346.29 370.26,346.21 370.26,346.13 370.26,346.05 370.44,345.97 370.44,345.89 370.44,345.81 370.44,345.73 370.44,345.65 370.63,345.57 370.63,345.50 370.63,345.42 370.81,345.34 370.81,345.26 370.81,345.18 371.00,345.10 371.00,345.02 371.18,344.94 371.18,344.86 371.18,344.78 371.36,344.70 371.36,344.62 371.36,344.54 371.36,344.46 371.54,344.38 371.54,344.30 371.54,344.22 371.54,344.14 371.73,344.06 371.73,343.98 371.73,343.90 371.73,343.82 371.91,343.74 371.91,343.66 371.91,343.58 372.09,343.50 372.09,343.42 372.27,343.34 372.27,343.26 372.27,343.18 372.45,343.10 372.45,343.02 372.45,342.94 372.63,342.86 372.63,342.78 372.63,342.70 372.63,342.62 372.81,342.54 372.81,342.46 372.81,342.38 372.81,342.30 372.81,342.22 372.81,342.14 372.81,342.06 372.99,341.98 372.99,341.90 373.17,341.82 373.17,341.74 373.17,341.66 373.35,341.58 373.35,341.50 373.35,341.42 373.35,341.34 373.35,341.26 373.35,341.18 373.35,341.10 373.35,341.02 373.53,340.94 373.53,340.86 373.53,340.78 373.70,340.70 373.70,340.62 373.70,340.55 373.70,340.47 373.70,340.39 373.88,340.31 373.88,340.23 373.88,340.15 373.88,340.07 374.06,339.99 374.06,339.91 374.06,339.83 374.06,339.75 374.24,339.67 374.24,339.59 374.24,339.51 374.24,339.43 374.41,339.35 374.41,339.27 374.41,339.19 374.41,339.11 374.41,339.03 374.59,338.95 374.59,338.87 374.59,338.79 374.59,338.71 374.59,338.63 374.77,338.55 374.77,338.47 374.77,338.39 374.77,338.31 374.94,338.23 374.94,338.15 374.94,338.07 374.94,337.99 374.94,337.91 375.12,337.83 375.12,337.75 375.12,337.67 375.29,337.59 375.29,337.51 375.29,337.43 375.29,337.35 375.29,337.27 375.29,337.19 375.29,337.11 375.29,337.03 375.29,336.95 375.47,336.87 375.64,336.79 375.64,336.71 375.81,336.63 375.81,336.55 375.81,336.47 375.99,336.39 375.99,336.31 375.99,336.23 375.99,336.15 376.16,336.07 376.16,335.99 376.16,335.91 376.16,335.83 376.33,335.75 376.33,335.68 376.33,335.60 376.51,335.52 376.51,335.44 376.51,335.36 376.51,335.28 376.51,335.20 376.51,335.12 376.51,335.04 376.51,334.96 376.68,334.88 376.68,334.80 376.68,334.72 376.68,334.64 376.85,334.56 376.85,334.48 376.85,334.40 376.85,334.32 377.02,334.24 377.02,334.16 377.19,334.08 377.19,334.00 377.19,333.92 377.36,333.84 377.36,333.76 377.36,333.68 377.36,333.60 377.54,333.52 377.54,333.44 377.54,333.36 377.54,333.28 377.54,333.20 377.54,333.12 377.54,333.04 377.71,332.96 377.71,332.88 377.71,332.80 377.71,332.72 377.71,332.64 377.71,332.56 377.88,332.48 377.88,332.40 377.88,332.32 377.88,332.24 377.88,332.16 377.88,332.08 377.88,332.00 378.05,331.92 378.05,331.84 378.05,331.76 378.05,331.68 378.21,331.60 378.21,331.52 378.55,331.44 378.55,331.36 378.55,331.28 378.72,331.20 378.72,331.12 378.72,331.04 378.72,330.96 378.72,330.88 378.72,330.80 378.72,330.73 378.89,330.65 378.89,330.57 378.89,330.49 378.89,330.41 378.89,330.33 379.06,330.25 379.06,330.17 379.06,330.09 379.06,330.01 379.22,329.93 379.22,329.85 379.22,329.77 379.39,329.69 379.56,329.61 379.56,329.53 379.56,329.45 379.56,329.37 379.56,329.29 379.56,329.21 379.56,329.13 379.56,329.05 379.72,328.97 379.72,328.89 379.72,328.81 379.72,328.73 379.72,328.65 379.72,328.57 379.89,328.49 379.89,328.41 379.89,328.33 379.89,328.25 380.06,328.17 380.06,328.09 380.06,328.01 380.06,327.93 380.06,327.85 380.06,327.77 380.22,327.69 380.22,327.61 380.22,327.53 380.22,327.45 380.39,327.37 380.39,327.29 380.39,327.21 380.55,327.13 380.72,327.05 380.88,326.97 380.88,326.89 380.88,326.81 381.04,326.73 381.04,326.65 381.04,326.57 381.21,326.49 381.21,326.41 381.21,326.33 381.21,326.25 381.21,326.17 381.37,326.09 381.37,326.01 381.37,325.93 381.37,325.85 381.37,325.77 381.37,325.70 381.53,325.62 381.53,325.54 381.53,325.46 381.53,325.38 381.53,325.30 381.70,325.22 381.70,325.14 381.70,325.06 381.70,324.98 381.70,324.90 381.86,324.82 381.86,324.74 381.86,324.66 382.02,324.58 382.02,324.50 382.02,324.42 382.02,324.34 382.02,324.26 382.02,324.18 382.18,324.10 382.18,324.02 382.18,323.94 382.18,323.86 382.18,323.78 382.18,323.70 382.34,323.62 382.34,323.54 382.34,323.46 382.34,323.38 382.34,323.30 382.34,323.22 382.34,323.14 382.51,323.06 382.51,322.98 382.51,322.90 382.51,322.82 382.67,322.74 382.67,322.66 382.83,322.58 382.83,322.50 382.83,322.42 382.83,322.34 382.83,322.26 382.99,322.18 382.99,322.10 383.31,322.02 383.31,321.94 383.31,321.86 383.47,321.78 383.63,321.70 383.63,321.62 383.63,321.54 383.63,321.46 383.63,321.38 383.63,321.30 383.79,321.22 383.79,321.14 383.79,321.06 383.79,320.98 383.94,320.90 383.94,320.83 383.94,320.75 383.94,320.67 384.10,320.59 384.10,320.51 384.10,320.43 384.26,320.35 384.26,320.27 384.26,320.19 384.26,320.11 384.26,320.03 384.42,319.95 384.42,319.87 384.58,319.79 384.58,319.71 384.58,319.63 384.58,319.55 384.73,319.47 384.73,319.39 384.73,319.31 384.73,319.23 384.73,319.15 384.89,319.07 384.89,318.99 384.89,318.91 384.89,318.83 384.89,318.75 384.89,318.67 385.05,318.59 385.20,318.51 385.20,318.43 385.20,318.35 385.20,318.27 385.36,318.19 385.36,318.11 385.52,318.03 385.67,317.95 385.67,317.87 385.67,317.79 385.67,317.71 385.67,317.63 385.67,317.55 385.83,317.47 385.83,317.39 385.83,317.31 385.98,317.23 385.98,317.15 386.14,317.07 386.14,316.99 386.29,316.91 386.29,316.83 386.29,316.75 386.29,316.67 386.45,316.59 386.45,316.51 386.45,316.43 386.45,316.35 386.45,316.27 386.60,316.19 386.60,316.11 386.60,316.03 386.75,315.95 386.75,315.88 386.75,315.80 386.75,315.72 386.91,315.64 386.91,315.56 387.06,315.48 387.06,315.40 387.06,315.32 387.06,315.24 387.21,315.16 387.21,315.08 387.21,315.00 387.37,314.92 387.37,314.84 387.37,314.76 387.37,314.68 387.37,314.60 387.52,314.52 387.67,314.44 387.67,314.36 387.67,314.28 387.82,314.20 387.82,314.12 387.82,314.04 387.82,313.96 387.97,313.88 387.97,313.80 387.97,313.72 388.13,313.64 388.28,313.56 388.28,313.48 388.28,313.40 388.28,313.32 388.43,313.24 388.43,313.16 388.43,313.08 388.43,313.00 388.43,312.92 388.58,312.84 388.58,312.76 388.58,312.68 388.58,312.60 388.58,312.52 388.58,312.44 388.73,312.36 388.88,312.28 388.88,312.20 388.88,312.12 389.03,312.04 389.18,311.96 389.18,311.88 389.18,311.80 389.18,311.72 389.33,311.64 389.33,311.56 389.33,311.48 389.48,311.40 389.48,311.32 389.48,311.24 389.48,311.16 389.48,311.08 389.48,311.00 389.48,310.92 389.63,310.85 389.63,310.77 389.63,310.69 389.63,310.61 389.77,310.53 389.92,310.45 389.92,310.37 389.92,310.29 389.92,310.21 389.92,310.13 389.92,310.05 389.92,309.97 389.92,309.89 390.07,309.81 390.07,309.73 390.07,309.65 390.22,309.57 390.22,309.49 390.22,309.41 390.22,309.33 390.22,309.25 390.22,309.17 390.37,309.09 390.51,309.01 390.66,308.93 390.66,308.85 390.66,308.77 390.66,308.69 390.66,308.61 390.81,308.53 390.81,308.45 390.81,308.37 390.96,308.29 390.96,308.21 391.10,308.13 391.10,308.05 391.10,307.97 391.10,307.89 391.25,307.81 391.25,307.73 391.25,307.65 391.25,307.57 391.25,307.49 391.39,307.41 391.39,307.33 391.39,307.25 391.39,307.17 391.39,307.09 391.54,307.01 391.54,306.93 391.54,306.85 391.54,306.77 391.54,306.69 391.54,306.61 391.54,306.53 391.68,306.45 391.83,306.37 391.98,306.29 391.98,306.21 391.98,306.13 391.98,306.05 391.98,305.98 392.12,305.90 392.12,305.82 392.12,305.74 392.12,305.66 392.12,305.58 392.26,305.50 392.26,305.42 392.41,305.34 392.41,305.26 392.41,305.18 392.41,305.10 392.41,305.02 392.55,304.94 392.55,304.86 392.55,304.78 392.55,304.70 392.70,304.62 392.70,304.54 392.70,304.46 392.84,304.38 392.84,304.30 392.98,304.22 392.98,304.14 392.98,304.06 392.98,303.98 393.27,303.90 393.27,303.82 393.41,303.74 393.41,303.66 393.41,303.58 393.55,303.50 393.70,303.42 393.70,303.34 393.70,303.26 393.70,303.18 393.70,303.10 393.84,303.02 393.98,302.94 393.98,302.86 393.98,302.78 393.98,302.70 394.12,302.62 394.12,302.54 394.12,302.46 394.26,302.38 394.26,302.30 394.40,302.22 394.55,302.14 394.69,302.06 394.69,301.98 394.69,301.90 394.83,301.82 394.83,301.74 394.83,301.66 394.97,301.58 394.97,301.50 394.97,301.42 394.97,301.34 394.97,301.26 394.97,301.18 395.11,301.10 395.25,301.02 395.25,300.95 395.25,300.87 395.25,300.79 395.25,300.71 395.25,300.63 395.39,300.55 395.39,300.47 395.39,300.39 395.53,300.31 395.53,300.23 395.80,300.15 395.80,300.07 395.80,299.99 395.80,299.91 395.94,299.83 396.08,299.75 396.22,299.67 396.22,299.59 396.22,299.51 396.36,299.43 396.36,299.35 396.49,299.27 396.49,299.19 396.49,299.11 396.49,299.03 396.49,298.95 396.49,298.87 396.63,298.79 396.77,298.71 396.77,298.63 396.77,298.55 396.77,298.47 396.91,298.39 396.91,298.31 397.04,298.23 397.04,298.15 397.18,298.07 397.32,297.99 397.32,297.91 397.45,297.83 397.45,297.75 397.73,297.67 398.00,297.59 398.13,297.51 398.13,297.43 398.13,297.35 398.27,297.27 398.27,297.19 398.27,297.11 398.27,297.03 398.40,296.95 398.40,296.87 398.54,296.79 398.67,296.71 398.67,296.63 398.67,296.55 398.67,296.47 398.80,296.39 398.80,296.31 398.94,296.23 399.07,296.15 399.21,296.08 399.47,296.00 399.47,295.92 399.47,295.84 399.61,295.76 399.61,295.68 399.61,295.60 399.61,295.52 399.74,295.44 399.74,295.36 399.74,295.28 399.74,295.20 399.74,295.12 399.87,295.04 399.87,294.96 399.87,294.88 399.87,294.80 400.00,294.72 400.00,294.64 400.14,294.56 400.14,294.48 400.14,294.40 400.14,294.32 400.14,294.24 400.27,294.16 400.27,294.08 400.40,294.00 400.53,293.92 400.53,293.84 400.53,293.76 400.53,293.68 400.53,293.60 400.53,293.52 400.80,293.44 400.80,293.36 400.93,293.28 400.93,293.20 400.93,293.12 400.93,293.04 400.93,292.96 401.06,292.88 401.06,292.80 401.06,292.72 401.06,292.64 401.06,292.56 401.06,292.48 401.06,292.40 401.19,292.32 401.19,292.24 401.19,292.16 401.45,292.08 401.45,292.00 401.45,291.92 401.58,291.84 401.58,291.76 401.71,291.68 401.71,291.60 401.71,291.52 401.71,291.44 401.71,291.36 401.71,291.28 401.84,291.20 401.84,291.12 401.84,291.05 401.97,290.97 401.97,290.89 402.10,290.81 402.23,290.73 402.23,290.65 402.48,290.57 402.48,290.49 402.48,290.41 402.48,290.33 402.74,290.25 402.74,290.17 402.74,290.09 402.74,290.01 402.87,289.93 403.00,289.85 403.00,289.77 403.00,289.69 403.00,289.61 403.13,289.53 403.13,289.45 403.13,289.37 403.13,289.29 403.25,289.21 403.25,289.13 403.25,289.05 403.38,288.97 403.51,288.89 403.51,288.81 403.64,288.73 403.64,288.65 403.76,288.57 403.89,288.49 403.89,288.41 403.89,288.33 403.89,288.25 403.89,288.17 403.89,288.09 403.89,288.01 404.02,287.93 404.02,287.85 404.02,287.77 404.02,287.69 404.02,287.61 404.14,287.53 404.14,287.45 404.14,287.37 404.14,287.29 404.27,287.21 404.27,287.13 404.27,287.05 404.27,286.97 404.27,286.89 404.27,286.81 404.39,286.73 404.52,286.65 404.52,286.57 404.52,286.49 404.65,286.41 404.77,286.33 404.90,286.25 404.90,286.17 405.02,286.10 405.02,286.02 405.02,285.94 405.15,285.86 405.15,285.78 405.27,285.70 405.27,285.62 405.40,285.54 405.52,285.46 405.52,285.38 405.65,285.30 405.77,285.22 405.77,285.14 405.89,285.06 405.89,284.98 405.89,284.90 405.89,284.82 405.89,284.74 406.02,284.66 406.14,284.58 406.14,284.50 406.14,284.42 406.27,284.34 406.27,284.26 406.27,284.18 406.39,284.10 406.39,284.02 406.39,283.94 406.51,283.86 406.63,283.78 406.76,283.70 406.76,283.62 406.76,283.54 406.76,283.46 406.76,283.38 406.88,283.30 407.00,283.22 407.25,283.14 407.25,283.06 407.25,282.98 407.25,282.90 407.25,282.82 407.37,282.74 407.49,282.66 407.49,282.58 407.61,282.50 407.61,282.42 407.73,282.34 407.73,282.26 407.73,282.18 407.73,282.10 407.73,282.02 407.85,281.94 407.85,281.86 407.98,281.78 407.98,281.70 407.98,281.62 407.98,281.54 407.98,281.46 408.10,281.38 408.22,281.30 408.34,281.23 408.34,281.15 408.34,281.07 408.34,280.99 408.46,280.91 408.46,280.83 408.46,280.75 408.58,280.67 408.58,280.59 408.58,280.51 408.58,280.43 408.58,280.35 408.70,280.27 408.70,280.19 408.94,280.11 408.94,280.03 409.06,279.95 409.06,279.87 409.06,279.79 409.06,279.71 409.06,279.63 409.06,279.55 409.18,279.47 409.18,279.39 409.18,279.31 409.18,279.23 409.18,279.15 409.18,279.07 409.42,278.99 409.42,278.91 409.42,278.83 409.54,278.75 409.54,278.67 409.54,278.59 409.65,278.51 409.77,278.43 409.77,278.35 409.77,278.27 409.77,278.19 409.77,278.11 409.89,278.03 409.89,277.95 410.01,277.87 410.01,277.79 410.13,277.71 410.13,277.63 410.48,277.55 410.60,277.47 410.60,277.39 410.60,277.31 410.60,277.23 410.60,277.15 410.60,277.07 410.72,276.99 410.72,276.91 410.72,276.83 410.83,276.75 410.83,276.67 410.83,276.59 410.95,276.51 410.95,276.43 410.95,276.35 410.95,276.27 411.07,276.20 411.07,276.12 411.07,276.04 411.07,275.96 411.18,275.88 411.42,275.80 411.42,275.72 411.42,275.64 411.42,275.56 411.42,275.48 411.53,275.40 411.53,275.32 411.53,275.24 411.53,275.16 411.65,275.08 411.65,275.00 412.00,274.92 412.00,274.84 412.00,274.76 412.00,274.68 412.00,274.60 412.00,274.52 412.11,274.44 412.11,274.36 412.23,274.28 412.23,274.20 412.23,274.12 412.23,274.04 412.34,273.96 412.34,273.88 412.46,273.80 412.46,273.72 412.46,273.64 412.46,273.56 412.69,273.48 412.69,273.40 412.69,273.32 412.80,273.24 412.80,273.16 412.80,273.08 413.03,273.00 413.03,272.92 413.03,272.84 413.15,272.76 413.15,272.68 413.15,272.60 413.15,272.52 413.15,272.44 413.26,272.36 413.26,272.28 413.26,272.20 413.26,272.12 413.38,272.04 413.38,271.96 413.38,271.88 413.49,271.80 413.49,271.72 413.72,271.64 413.72,271.56 413.72,271.48 413.72,271.40 413.72,271.33 413.94,271.25 414.06,271.17 414.06,271.09 414.28,271.01 414.28,270.93 414.28,270.85 414.39,270.77 414.39,270.69 414.51,270.61 414.62,270.53 414.62,270.45 414.73,270.37 414.84,270.29 414.84,270.21 414.96,270.13 414.96,270.05 415.07,269.97 415.07,269.89 415.18,269.81 415.29,269.73 415.40,269.65 415.40,269.57 415.62,269.49 415.62,269.41 415.74,269.33 415.85,269.25 415.85,269.17 415.96,269.09 415.96,269.01 415.96,268.93 415.96,268.85 415.96,268.77 416.07,268.69 416.07,268.61 416.07,268.53 416.07,268.45 416.29,268.37 416.29,268.29 416.40,268.21 416.40,268.13 416.51,268.05 416.62,267.97 416.73,267.89 416.84,267.81 416.84,267.73 416.84,267.65 416.84,267.57 416.95,267.49 416.95,267.41 416.95,267.33 416.95,267.25 417.06,267.17 417.06,267.09 417.06,267.01 417.17,266.93 417.17,266.85 417.17,266.77 417.28,266.69 417.28,266.61 417.38,266.53 417.49,266.45 417.49,266.38 417.82,266.30 417.82,266.22 417.93,266.14 417.93,266.06 418.04,265.98 418.04,265.90 418.04,265.82 418.04,265.74 418.04,265.66 418.14,265.58 418.14,265.50 418.25,265.42 418.47,265.34 418.47,265.26 418.47,265.18 418.57,265.10 418.57,265.02 418.57,264.94 418.57,264.86 418.57,264.78 418.68,264.70 418.68,264.62 418.79,264.54 418.90,264.46 418.90,264.38 419.00,264.30 419.00,264.22 419.00,264.14 419.00,264.06 419.11,263.98 419.11,263.90 419.22,263.82 419.22,263.74 419.22,263.66 419.32,263.58 419.32,263.50 419.32,263.42 419.43,263.34 419.43,263.26 419.54,263.18 419.54,263.10 419.54,263.02 419.64,262.94 419.75,262.86 419.85,262.78 419.85,262.70 419.85,262.62 419.96,262.54 420.07,262.46 420.17,262.38 420.17,262.30 420.28,262.22 420.28,262.14 420.28,262.06 420.38,261.98 420.38,261.90 420.38,261.82 420.49,261.74 420.49,261.66 420.49,261.58 420.49,261.50 420.59,261.42 420.70,261.35 420.70,261.27 420.80,261.19 420.80,261.11 420.80,261.03 420.91,260.95 420.91,260.87 420.91,260.79 420.91,260.71 421.01,260.63 421.01,260.55 421.12,260.47 421.12,260.39 421.22,260.31 421.43,260.23 421.43,260.15 421.43,260.07 421.43,259.99 421.53,259.91 421.64,259.83 421.74,259.75 421.74,259.67 421.74,259.59 421.84,259.51 421.84,259.43 421.95,259.35 421.95,259.27 422.05,259.19 422.05,259.11 422.15,259.03 422.26,258.95 422.26,258.87 422.46,258.79 422.46,258.71 422.46,258.63 422.57,258.55 422.57,258.47 422.57,258.39 422.57,258.31 422.67,258.23 422.67,258.15 422.67,258.07 422.77,257.99 422.77,257.91 422.77,257.83 422.77,257.75 422.87,257.67 422.98,257.59 422.98,257.51 423.08,257.43 423.08,257.35 423.28,257.27 423.28,257.19 423.38,257.11 423.38,257.03 423.49,256.95 423.49,256.87 423.49,256.79 423.49,256.71 423.49,256.63 423.49,256.55 423.59,256.48 423.59,256.40 423.69,256.32 423.79,256.24 423.79,256.16 423.79,256.08 423.79,256.00 423.89,255.92 423.89,255.84 424.09,255.76 424.29,255.68 424.40,255.60 424.40,255.52 424.40,255.44 424.50,255.36 424.60,255.28 424.70,255.20 424.70,255.12 424.70,255.04 424.80,254.96 424.80,254.88 424.80,254.80 424.80,254.72 424.90,254.64 424.90,254.56 424.90,254.48 424.90,254.40 424.90,254.32 424.90,254.24 425.00,254.16 425.00,254.08 425.00,254.00 425.00,253.92 425.00,253.84 425.00,253.76 425.20,253.68 425.20,253.60 425.30,253.52 425.40,253.44 425.40,253.36 425.50,253.28 425.50,253.20 425.50,253.12 425.69,253.04 425.69,252.96 425.69,252.88 425.69,252.80 425.69,252.72 425.79,252.64 425.79,252.56 425.89,252.48 425.99,252.40 425.99,252.32 425.99,252.24 425.99,252.16 426.09,252.08 426.29,252.00 426.29,251.92 426.29,251.84 426.39,251.76 426.58,251.68 426.58,251.60 426.68,251.53 426.68,251.45 426.78,251.37 426.88,251.29 426.88,251.21 426.88,251.13 426.88,251.05 426.97,250.97 427.07,250.89 427.17,250.81 427.17,250.73 427.27,250.65 427.27,250.57 427.27,250.49 427.27,250.41 427.36,250.33 427.56,250.25 427.66,250.17 427.75,250.09 427.75,250.01 427.75,249.93 427.95,249.85 428.04,249.77 428.04,249.69 428.14,249.61 428.14,249.53 428.33,249.45 428.33,249.37 428.52,249.29 428.52,249.21 428.62,249.13 428.72,249.05 428.91,248.97 428.91,248.89 428.91,248.81 428.91,248.73 428.91,248.65 428.91,248.57 428.91,248.49 429.00,248.41 429.00,248.33 429.00,248.25 429.10,248.17 429.10,248.09 429.10,248.01 429.19,247.93 429.19,247.85 429.48,247.77 429.48,247.69 429.57,247.61 429.67,247.53 429.86,247.45 429.95,247.37 429.95,247.29 430.05,247.21 430.05,247.13 430.05,247.05 430.05,246.97 430.14,246.89 430.14,246.81 430.24,246.73 430.33,246.65 430.33,246.57 430.33,246.50 430.33,246.42 430.52,246.34 430.61,246.26 430.61,246.18 430.71,246.10 430.71,246.02 430.80,245.94 430.89,245.86 430.99,245.78 431.08,245.70 431.17,245.62 431.17,245.54 431.17,245.46 431.17,245.38 431.17,245.30 431.36,245.22 431.45,245.14 431.45,245.06 431.45,244.98 431.55,244.90 431.64,244.82 431.73,244.74 431.73,244.66 431.82,244.58 431.82,244.50 431.82,244.42 431.82,244.34 432.01,244.26 432.01,244.18 432.10,244.10 432.10,244.02 432.10,243.94 432.29,243.86 432.38,243.78 432.56,243.70 432.56,243.62 432.56,243.54 432.65,243.46 432.84,243.38 432.93,243.30 432.93,243.22 433.02,243.14 433.02,243.06 433.11,242.98 433.11,242.90 433.11,242.82 433.11,242.74 433.11,242.66 433.11,242.58 433.20,242.50 433.20,242.42 433.20,242.34 433.20,242.26 433.20,242.18 433.29,242.10 433.38,242.02 433.38,241.94 433.57,241.86 433.66,241.78 433.75,241.70 433.75,241.62 433.75,241.55 433.75,241.47 433.84,241.39 433.84,241.31 433.93,241.23 434.02,241.15 434.02,241.07 434.20,240.99 434.38,240.91 434.38,240.83 434.38,240.75 434.47,240.67 434.47,240.59 434.56,240.51 434.65,240.43 434.65,240.35 434.74,240.27 434.83,240.19 434.92,240.11 434.92,240.03 434.92,239.95 435.01,239.87 435.01,239.79 435.10,239.71 435.19,239.63 435.27,239.55 435.36,239.47 435.36,239.39 435.36,239.31 435.45,239.23 435.54,239.15 435.63,239.07 435.63,238.99 435.63,238.91 435.72,238.83 435.72,238.75 435.81,238.67 435.81,238.59 435.81,238.51 435.90,238.43 435.98,238.35 436.16,238.27 436.16,238.19 436.25,238.11 436.25,238.03 436.34,237.95 436.34,237.87 436.42,237.79 436.42,237.71 436.51,237.63 436.51,237.55 436.60,237.47 436.69,237.39 436.78,237.31 436.78,237.23 436.78,237.15 436.78,237.07 436.86,236.99 436.95,236.91 437.04,236.83 437.30,236.75 437.65,236.68 437.65,236.60 437.73,236.52 437.73,236.44 437.82,236.36 437.91,236.28 437.91,236.20 438.08,236.12 438.17,236.04 438.17,235.96 438.34,235.88 438.34,235.80 438.42,235.72 438.42,235.64 438.51,235.56 438.51,235.48 438.77,235.40 438.77,235.32 438.85,235.24 438.94,235.16 439.02,235.08 439.11,235.00 439.19,234.92 439.28,234.84 439.28,234.76 439.45,234.68 439.45,234.60 439.45,234.52 439.53,234.44 439.62,234.36 439.70,234.28 439.70,234.20 439.79,234.12 439.87,234.04 439.87,233.96 439.96,233.88 439.96,233.80 440.21,233.72 440.29,233.64 440.29,233.56 440.29,233.48 440.38,233.40 440.46,233.32 440.55,233.24 440.55,233.16 440.63,233.08 440.71,233.00 440.80,232.92 440.80,232.84 440.88,232.76 440.88,232.68 441.05,232.60 441.13,232.52 441.13,232.44 441.22,232.36 441.30,232.28 441.38,232.20 441.38,232.12 441.63,232.04 441.63,231.96 441.71,231.88 441.71,231.80 441.71,231.72 441.80,231.65 441.80,231.57 441.88,231.49 441.88,231.41 441.88,231.33 441.88,231.25 441.96,231.17 441.96,231.09 442.13,231.01 442.21,230.93 442.29,230.85 442.29,230.77 442.37,230.69 442.46,230.61 442.46,230.53 442.46,230.45 442.54,230.37 442.54,230.29 442.62,230.21 442.70,230.13 442.78,230.05 442.78,229.97 442.78,229.89 442.78,229.81 442.78,229.73 442.78,229.65 442.87,229.57 442.87,229.49 442.87,229.41 443.03,229.33 443.11,229.25 443.11,229.17 443.19,229.09 443.36,229.01 443.36,228.93 443.36,228.85 443.36,228.77 443.44,228.69 443.44,228.61 443.44,228.53 443.44,228.45 443.44,228.37 443.44,228.29 443.60,228.21 443.84,228.13 443.84,228.05 443.92,227.97 444.00,227.89 444.08,227.81 444.16,227.73 444.25,227.65 444.33,227.57 444.41,227.49 444.41,227.41 444.49,227.33 444.57,227.25 444.65,227.17 444.65,227.09 444.73,227.01 444.81,226.93 444.81,226.85 445.05,226.78 445.05,226.70 445.36,226.62 445.36,226.54 445.36,226.46 445.36,226.38 445.44,226.30 445.52,226.22 445.52,226.14 445.52,226.06 445.60,225.98 445.68,225.90 445.76,225.82 445.76,225.74 445.76,225.66 446.00,225.58 446.47,225.50 446.47,225.42 446.55,225.34 446.63,225.26 446.63,225.18 446.71,225.10 446.78,225.02 446.86,224.94 446.86,224.86 447.10,224.78 447.10,224.70 447.17,224.62 447.17,224.54 447.25,224.46 447.41,224.38 447.49,224.30 447.49,224.22 447.56,224.14 447.64,224.06 447.64,223.98 447.80,223.90 447.80,223.82 447.80,223.74 447.80,223.66 447.87,223.58 447.87,223.50 447.87,223.42 448.10,223.34 448.10,223.26 448.18,223.18 448.18,223.10 448.18,223.02 448.26,222.94 448.26,222.86 448.26,222.78 448.34,222.70 448.34,222.62 448.41,222.54 448.49,222.46 448.57,222.38 448.57,222.30 448.64,222.22 448.64,222.14 448.87,222.06 448.87,221.98 448.95,221.90 448.95,221.82 448.95,221.75 448.95,221.67 448.95,221.59 449.02,221.51 449.56,221.43 449.63,221.35 449.63,221.27 449.71,221.19 449.78,221.11 449.86,221.03 449.86,220.95 449.94,220.87 450.09,220.79 450.16,220.71 450.39,220.63 450.46,220.55 450.46,220.47 450.46,220.39 450.46,220.31 450.54,220.23 450.54,220.15 450.61,220.07 450.61,219.99 450.69,219.91 450.69,219.83 450.76,219.75 450.99,219.67 451.06,219.59 451.06,219.51 451.06,219.43 451.28,219.35 451.28,219.27 451.36,219.19 451.36,219.11 451.36,219.03 451.36,218.95 451.43,218.87 451.43,218.79 451.43,218.71 451.51,218.63 451.58,218.55 451.58,218.47 451.58,218.39 451.58,218.31 451.58,218.23 451.66,218.15 451.73,218.07 451.88,217.99 451.88,217.91 451.88,217.83 451.95,217.75 451.95,217.67 452.03,217.59 452.03,217.51 452.03,217.43 452.10,217.35 452.10,217.27 452.17,217.19 452.25,217.11 452.25,217.03 452.25,216.95 452.47,216.88 452.47,216.80 452.54,216.72 452.61,216.64 452.61,216.56 452.61,216.48 452.61,216.40 452.69,216.32 452.83,216.24 453.05,216.16 453.05,216.08 453.12,216.00 453.12,215.92 453.27,215.84 453.42,215.76 453.42,215.68 453.42,215.60 453.42,215.52 453.42,215.44 453.49,215.36 453.63,215.28 453.63,215.20 453.71,215.12 453.71,215.04 453.71,214.96 453.92,214.88 453.92,214.80 453.92,214.72 453.99,214.64 453.99,214.56 454.07,214.48 454.21,214.40 454.28,214.32 454.28,214.24 454.28,214.16 454.28,214.08 454.35,214.00 454.43,213.92 454.43,213.84 454.43,213.76 454.50,213.68 454.50,213.60 454.57,213.52 454.64,213.44 454.71,213.36 454.78,213.28 454.78,213.20 454.86,213.12 454.86,213.04 454.93,212.96 454.93,212.88 455.00,212.80 455.00,212.72 455.00,212.64 455.00,212.56 455.07,212.48 455.14,212.40 455.36,212.32 455.36,212.24 455.43,212.16 455.57,212.08 455.57,212.00 455.64,211.93 455.64,211.85 455.64,211.77 455.71,211.69 455.71,211.61 455.71,211.53 455.78,211.45 455.78,211.37 455.78,211.29 455.99,211.21 455.99,211.13 456.20,211.05 456.34,210.97 456.34,210.89 456.48,210.81 456.55,210.73 456.55,210.65 456.83,210.57 456.90,210.49 457.04,210.41 457.11,210.33 457.25,210.25 457.25,210.17 457.25,210.09 457.25,210.01 457.39,209.93 457.60,209.85 457.67,209.77 457.81,209.69 457.95,209.61 457.95,209.53 457.95,209.45 458.15,209.37 458.15,209.29 458.22,209.21 458.36,209.13 458.43,209.05 458.43,208.97 458.50,208.89 458.50,208.81 458.63,208.73 458.70,208.65 458.84,208.57 458.84,208.49 458.91,208.41 458.98,208.33 458.98,208.25 459.04,208.17 459.04,208.09 459.18,208.01 459.25,207.93 459.25,207.85 459.25,207.77 459.32,207.69 459.38,207.61 459.45,207.53 459.52,207.45 459.52,207.37 459.52,207.29 459.59,207.21 459.72,207.13 459.86,207.05 459.99,206.97 460.06,206.90 460.33,206.82 460.33,206.74 460.46,206.66 460.46,206.58 460.46,206.50 460.53,206.42 460.60,206.34 460.60,206.26 460.66,206.18 460.73,206.10 460.86,206.02 460.93,205.94 461.00,205.86 461.07,205.78 461.13,205.70 461.13,205.62 461.20,205.54 461.20,205.46 461.26,205.38 461.26,205.30 461.40,205.22 461.40,205.14 461.40,205.06 461.40,204.98 461.60,204.90 461.60,204.82 461.86,204.74 461.86,204.66 461.93,204.58 461.93,204.50 461.99,204.42 462.06,204.34 462.12,204.26 462.12,204.18 462.19,204.10 462.26,204.02 462.32,203.94 462.32,203.86 462.52,203.78 462.52,203.70 462.58,203.62 462.72,203.54 462.72,203.46 462.91,203.38 462.91,203.30 462.98,203.22 462.98,203.14 463.04,203.06 463.11,202.98 463.11,202.90 463.30,202.82 463.37,202.74 463.50,202.66 463.50,202.58 463.63,202.50 463.63,202.42 463.82,202.34 463.89,202.26 463.95,202.18 464.08,202.10 464.14,202.03 464.21,201.95 464.21,201.87 464.27,201.79 464.27,201.71 464.46,201.63 464.59,201.55 464.66,201.47 464.66,201.39 464.66,201.31 464.72,201.23 464.78,201.15 464.85,201.07 464.85,200.99 464.98,200.91 465.04,200.83 465.04,200.75 465.10,200.67 465.23,200.59 465.23,200.51 465.29,200.43 465.29,200.35 465.42,200.27 465.42,200.19 465.42,200.11 465.61,200.03 465.67,199.95 465.80,199.87 465.86,199.79 465.86,199.71 465.93,199.63 465.93,199.55 465.93,199.47 465.99,199.39 465.99,199.31 465.99,199.23 466.05,199.15 466.05,199.07 466.12,198.99 466.30,198.91 466.30,198.83 466.37,198.75 466.49,198.67 466.49,198.59 466.68,198.51 466.68,198.43 466.74,198.35 466.74,198.27 466.74,198.19 466.74,198.11 466.93,198.03 467.12,197.95 467.18,197.87 467.24,197.79 467.24,197.71 467.30,197.63 467.30,197.55 467.37,197.47 467.49,197.39 467.55,197.31 467.55,197.23 467.55,197.15 467.61,197.07 467.61,197.00 467.68,196.92 467.68,196.84 467.68,196.76 467.68,196.68 467.74,196.60 467.80,196.52 467.80,196.44 467.86,196.36 467.92,196.28 467.99,196.20 468.11,196.12 468.23,196.04 468.23,195.96 468.29,195.88 468.29,195.80 468.35,195.72 468.35,195.64 468.42,195.56 468.48,195.48 468.54,195.40 468.60,195.32 468.60,195.24 468.72,195.16 468.78,195.08 468.84,195.00 468.90,194.92 468.90,194.84 469.03,194.76 469.09,194.68 469.09,194.60 469.21,194.52 469.27,194.44 469.33,194.36 469.39,194.28 469.45,194.20 469.51,194.12 469.57,194.04 469.57,193.96 469.63,193.88 469.76,193.80 469.76,193.72 469.82,193.64 469.88,193.56 469.88,193.48 470.06,193.40 470.18,193.32 470.18,193.24 470.36,193.16 470.36,193.08 470.48,193.00 470.54,192.92 470.54,192.84 470.54,192.76 470.66,192.68 470.66,192.60 470.72,192.52 470.78,192.44 470.78,192.36 470.78,192.28 470.78,192.20 470.90,192.12 470.90,192.05 471.02,191.97 471.02,191.89 471.07,191.81 471.25,191.73 471.31,191.65 471.31,191.57 471.31,191.49 471.37,191.41 471.37,191.33 471.43,191.25 471.49,191.17 471.55,191.09 471.61,191.01 471.61,190.93 471.67,190.85 471.73,190.77 471.73,190.69 472.20,190.61 472.20,190.53 472.32,190.45 472.38,190.37 472.43,190.29 472.43,190.21 472.49,190.13 472.49,190.05 472.49,189.97 472.55,189.89 472.55,189.81 472.61,189.73 472.61,189.65 472.67,189.57 472.67,189.49 472.73,189.41 472.90,189.33 472.90,189.25 472.90,189.17 472.96,189.09 473.08,189.01 473.19,188.93 473.31,188.85 473.31,188.77 473.37,188.69 473.37,188.61 473.48,188.53 473.48,188.45 473.60,188.37 473.60,188.29 473.77,188.21 473.95,188.13 473.95,188.05 474.06,187.97 474.06,187.89 474.12,187.81 474.18,187.73 474.18,187.65 474.23,187.57 474.23,187.49 474.23,187.41 474.29,187.33 474.29,187.25 474.29,187.18 474.35,187.10 474.35,187.02 474.35,186.94 474.41,186.86 474.41,186.78 474.41,186.70 474.41,186.62 474.46,186.54 474.46,186.46 474.52,186.38 474.69,186.30 474.69,186.22 474.75,186.14 474.92,186.06 474.98,185.98 474.98,185.90 475.09,185.82 475.15,185.74 475.32,185.66 475.43,185.58 475.49,185.50 475.49,185.42 475.55,185.34 475.60,185.26 475.60,185.18 475.60,185.10 475.60,185.02 475.66,184.94 475.66,184.86 475.71,184.78 475.88,184.70 475.94,184.62 476.00,184.54 476.11,184.46 476.22,184.38 476.28,184.30 476.28,184.22 476.33,184.14 476.45,184.06 476.45,183.98 476.50,183.90 476.50,183.82 476.50,183.74 476.50,183.66 476.56,183.58 476.56,183.50 476.67,183.42 476.73,183.34 476.73,183.26 476.78,183.18 476.89,183.10 476.89,183.02 476.95,182.94 476.95,182.86 476.95,182.78 477.12,182.70 477.17,182.62 477.17,182.54 477.17,182.46 477.17,182.38 477.34,182.30 477.34,182.22 477.39,182.15 477.39,182.07 477.39,181.99 477.51,181.91 477.51,181.83 477.51,181.75 477.56,181.67 477.56,181.59 477.62,181.51 477.67,181.43 477.78,181.35 477.84,181.27 477.89,181.19 477.89,181.11 478.11,181.03 478.11,180.95 478.11,180.87 478.17,180.79 478.17,180.71 478.22,180.63 478.22,180.55 478.28,180.47 478.28,180.39 478.33,180.31 478.39,180.23 478.39,180.15 478.55,180.07 478.61,179.99 478.66,179.91 478.72,179.83 478.72,179.75 478.72,179.67 478.77,179.59 478.82,179.51 478.88,179.43 478.93,179.35 478.99,179.27 479.04,179.19 479.04,179.11 479.04,179.03 479.21,178.95 479.53,178.87 479.53,178.79 479.64,178.71 479.75,178.63 479.86,178.55 479.96,178.47 480.02,178.39 480.02,178.31 480.07,178.23 480.18,178.15 480.29,178.07 480.34,177.99 480.39,177.91 480.71,177.83 480.71,177.75 480.77,177.67 480.82,177.59 480.87,177.51 480.93,177.43 480.93,177.35 480.93,177.28 481.03,177.20 481.03,177.12 481.03,177.04 481.09,176.96 481.19,176.88 481.25,176.80 481.25,176.72 481.30,176.64 481.30,176.56 481.46,176.48 481.67,176.40 481.78,176.32 481.88,176.24 481.88,176.16 482.09,176.08 482.15,176.00 482.15,175.92 482.20,175.84 482.46,175.76 482.51,175.68 482.51,175.60 482.57,175.52 482.67,175.44 482.72,175.36 482.77,175.28 482.77,175.20 482.83,175.12 483.14,175.04 483.29,174.96 483.35,174.88 483.35,174.80 483.45,174.72 483.55,174.64 483.61,174.56 483.66,174.48 483.71,174.40 483.76,174.32 483.76,174.24 483.81,174.16 483.86,174.08 483.86,174.00 484.02,173.92 484.17,173.84 484.28,173.76 484.28,173.68 484.48,173.60 484.53,173.52 484.74,173.44 484.74,173.36 484.79,173.28 484.79,173.20 484.94,173.12 484.99,173.04 485.04,172.96 485.04,172.88 485.09,172.80 485.14,172.72 485.19,172.64 485.19,172.56 485.25,172.48 485.30,172.40 485.30,172.32 485.35,172.25 485.45,172.17 485.50,172.09 485.55,172.01 485.55,171.93 485.70,171.85 485.70,171.77 485.75,171.69 485.75,171.61 485.80,171.53 485.80,171.45 485.90,171.37 486.00,171.29 486.05,171.21 486.05,171.13 486.10,171.05 486.46,170.97 486.46,170.89 486.51,170.81 486.56,170.73 486.61,170.65 486.66,170.57 486.66,170.49 486.71,170.41 486.76,170.33 486.81,170.25 486.95,170.17 487.00,170.09 487.00,170.01 487.00,169.93 487.05,169.85 487.05,169.77 487.10,169.69 487.10,169.61 487.25,169.53 487.30,169.45 487.35,169.37 487.35,169.29 487.40,169.21 487.75,169.13 487.80,169.05 487.85,168.97 487.90,168.89 488.04,168.81 488.09,168.73 488.09,168.65 488.14,168.57 488.24,168.49 488.24,168.41 488.29,168.33 488.29,168.25 488.34,168.17 488.34,168.09 488.34,168.01 488.39,167.93 488.39,167.85 488.44,167.77 488.49,167.69 488.49,167.61 488.53,167.53 488.58,167.45 488.63,167.38 488.73,167.30 488.73,167.22 488.78,167.14 488.97,167.06 488.97,166.98 489.12,166.90 489.12,166.82 489.12,166.74 489.17,166.66 489.22,166.58 489.27,166.50 489.31,166.42 489.36,166.34 489.36,166.26 489.36,166.18 489.51,166.10 489.56,166.02 489.56,165.94 489.65,165.86 489.89,165.78 489.94,165.70 489.99,165.62 489.99,165.54 489.99,165.46 489.99,165.38 490.13,165.30 490.18,165.22 490.23,165.14 490.42,165.06 490.42,164.98 490.47,164.90 490.57,164.82 490.61,164.74 490.76,164.66 490.85,164.58 490.85,164.50 490.95,164.42 490.95,164.34 491.09,164.26 491.09,164.18 491.09,164.10 491.14,164.02 491.19,163.94 491.23,163.86 491.28,163.78 491.38,163.70 491.42,163.62 491.42,163.54 491.47,163.46 491.52,163.38 491.57,163.30 491.57,163.22 491.57,163.14 491.66,163.06 491.71,162.98 491.75,162.90 491.75,162.82 491.80,162.74 491.90,162.66 491.90,162.58 491.90,162.50 491.94,162.43 492.04,162.35 492.04,162.27 492.13,162.19 492.22,162.11 492.27,162.03 492.32,161.95 492.55,161.87 492.60,161.79 492.74,161.71 492.93,161.63 492.97,161.55 493.02,161.47 493.02,161.39 493.02,161.31 493.07,161.23 493.07,161.15 493.11,161.07 493.11,160.99 493.25,160.91 493.30,160.83 493.30,160.75 493.30,160.67 493.39,160.59 493.44,160.51 493.44,160.43 493.53,160.35 493.53,160.27 493.58,160.19 493.58,160.11 493.67,160.03 493.76,159.95 493.81,159.87 493.85,159.79 493.85,159.71 493.90,159.63 494.17,159.55 494.17,159.47 494.22,159.39 494.31,159.31 494.36,159.23 494.45,159.15 494.54,159.07 494.54,158.99 494.54,158.91 494.54,158.83 494.54,158.75 494.59,158.67 494.68,158.59 494.77,158.51 494.86,158.43 494.91,158.35 495.04,158.27 495.13,158.19 495.13,158.11 495.13,158.03 495.13,157.95 495.32,157.87 495.32,157.79 495.36,157.71 495.41,157.63 495.41,157.55 495.41,157.47 495.45,157.40 495.50,157.32 495.72,157.24 495.95,157.16 495.99,157.08 496.04,157.00 496.08,156.92 496.17,156.84 496.17,156.76 496.22,156.68 496.26,156.60 496.35,156.52 496.40,156.44 496.44,156.36 496.58,156.28 496.58,156.20 496.58,156.12 496.67,156.04 496.71,155.96 496.75,155.88 496.98,155.80 497.02,155.72 497.20,155.64 497.20,155.56 497.20,155.48 497.24,155.40 497.29,155.32 497.33,155.24 497.33,155.16 497.33,155.08 497.33,155.00 497.38,154.92 497.47,154.84 497.55,154.76 497.60,154.68 497.64,154.60 497.64,154.52 497.64,154.44 497.64,154.36 497.69,154.28 497.82,154.20 497.86,154.12 498.13,154.04 498.13,153.96 498.21,153.88 498.39,153.80 498.57,153.72 498.65,153.64 498.70,153.56 498.83,153.48 498.87,153.40 498.91,153.32 499.09,153.24 499.26,153.16 499.26,153.08 499.39,153.00 499.43,152.92 499.52,152.84 499.56,152.76 499.61,152.68 499.61,152.60 499.65,152.53 499.74,152.45 499.74,152.37 499.78,152.29 500.30,152.21 500.43,152.13 500.47,152.05 500.51,151.97 500.55,151.89 500.64,151.81 500.72,151.73 501.02,151.65 501.02,151.57 501.06,151.49 501.19,151.41 501.28,151.33 501.28,151.25 501.32,151.17 501.36,151.09 501.40,151.01 501.40,150.93 501.45,150.85 501.66,150.77 501.74,150.69 501.78,150.61 501.83,150.53 501.91,150.45 502.04,150.37 502.12,150.29 502.12,150.21 502.21,150.13 502.33,150.05 502.46,149.97 502.46,149.89 502.58,149.81 502.58,149.73 502.62,149.65 502.62,149.57 502.67,149.49 502.71,149.41 502.71,149.33 502.83,149.25 502.87,149.17 502.92,149.09 503.04,149.01 503.08,148.93 503.08,148.85 503.21,148.77 503.37,148.69 503.41,148.61 503.50,148.53 503.54,148.45 503.70,148.37 503.74,148.29 503.79,148.21 503.83,148.13 503.87,148.05 503.91,147.97 503.95,147.89 503.99,147.81 504.16,147.73 504.16,147.65 504.28,147.57 504.36,147.50 504.40,147.42 504.65,147.34 504.73,147.26 504.85,147.18 504.89,147.10 504.93,147.02 504.93,146.94 505.01,146.86 505.01,146.78 505.05,146.70 505.18,146.62 505.22,146.54 505.22,146.46 505.26,146.38 505.50,146.30 505.62,146.22 505.78,146.14 505.82,146.06 505.90,145.98 506.02,145.90 506.06,145.82 506.10,145.74 506.26,145.66 506.26,145.58 506.39,145.50 506.47,145.42 506.59,145.34 506.63,145.26 506.66,145.18 506.78,145.10 506.90,145.02 506.94,144.94 507.10,144.86 507.10,144.78 507.22,144.70 507.22,144.62 507.30,144.54 507.34,144.46 507.38,144.38 507.38,144.30 507.46,144.22 507.46,144.14 507.58,144.06 507.78,143.98 507.93,143.90 508.01,143.82 508.05,143.74 508.13,143.66 508.25,143.58 508.29,143.50 508.33,143.42 508.36,143.34 508.48,143.26 508.52,143.18 508.52,143.10 508.56,143.02 508.64,142.94 508.72,142.86 508.83,142.78 508.87,142.70 508.99,142.62 509.11,142.55 509.22,142.47 509.34,142.39 509.45,142.31 509.53,142.23 509.61,142.15 509.65,142.07 509.84,141.99 509.96,141.91 509.99,141.83 509.99,141.75 510.03,141.67 510.03,141.59 510.11,141.51 510.19,141.43 510.26,141.35 510.61,141.27 510.80,141.19 510.91,141.11 510.91,141.03 510.99,140.95 511.22,140.87 511.25,140.79 511.29,140.71 511.33,140.63 511.37,140.55 511.41,140.47 511.44,140.39 511.56,140.31 511.59,140.23 511.59,140.15 511.63,140.07 511.63,139.99 511.71,139.91 511.97,139.83 511.97,139.75 512.01,139.67 512.05,139.59 512.12,139.51 512.12,139.43 512.23,139.35 512.35,139.27 512.38,139.19 512.42,139.11 512.46,139.03 512.50,138.95 512.61,138.87 512.83,138.79 512.87,138.71 512.91,138.63 512.94,138.55 513.02,138.47 513.02,138.39 513.20,138.31 513.20,138.23 513.24,138.15 513.28,138.07 513.35,137.99 513.43,137.91 513.50,137.83 513.54,137.75 513.76,137.68 513.83,137.60 513.90,137.52 513.94,137.44 514.09,137.36 514.24,137.28 514.27,137.20 514.38,137.12 514.67,137.04 514.97,136.96 515.18,136.88 515.22,136.80 515.44,136.72 515.69,136.64 515.87,136.56 515.91,136.48 516.23,136.40 516.30,136.32 516.34,136.24 516.41,136.16 516.48,136.08 516.51,136.00 516.55,135.92 516.69,135.84 516.84,135.76 516.91,135.68 517.05,135.60 517.16,135.52 517.19,135.44 517.23,135.36 517.26,135.28 517.30,135.20 517.37,135.12 517.40,135.04 517.40,134.96 517.44,134.88 517.51,134.80 517.62,134.72 517.65,134.64 517.65,134.56 517.72,134.48 517.79,134.40 517.83,134.32 517.90,134.24 518.11,134.16 518.14,134.08 518.35,134.00 518.49,133.92 518.56,133.84 518.63,133.76 518.63,133.68 518.74,133.60 518.74,133.52 518.74,133.44 518.74,133.36 518.91,133.28 518.95,133.20 519.09,133.12 519.15,133.04 519.15,132.96 519.19,132.88 519.29,132.80 519.33,132.72 519.54,132.65 519.64,132.57 519.78,132.49 519.85,132.41 520.12,132.33 520.15,132.25 520.26,132.17 520.26,132.09 520.29,132.01 520.33,131.93 520.46,131.85 520.50,131.77 520.50,131.69 520.60,131.61 520.67,131.53 520.74,131.45 520.77,131.37 520.80,131.29 520.87,131.21 521.11,131.13 521.21,131.05 521.25,130.97 521.38,130.89 521.41,130.81 521.45,130.73 521.52,130.65 521.55,130.57 521.62,130.49 521.68,130.41 521.79,130.33 521.85,130.25 522.09,130.17 522.12,130.09 522.12,130.01 522.12,129.93 522.29,129.85 522.29,129.77 522.36,129.69 522.36,129.61 522.42,129.53 522.52,129.45 522.56,129.37 522.56,129.29 522.62,129.21 522.76,129.13 522.79,129.05 522.86,128.97 522.89,128.89 523.06,128.81 523.06,128.73 523.09,128.65 523.12,128.57 523.16,128.49 523.19,128.41 523.29,128.33 523.32,128.25 523.42,128.17 523.55,128.09 523.75,128.01 523.75,127.93 524.08,127.85 524.11,127.78 524.11,127.70 524.44,127.62 524.57,127.54 524.64,127.46 524.70,127.38 524.80,127.30 524.90,127.22 524.99,127.14 525.09,127.06 525.19,126.98 525.22,126.90 525.32,126.82 525.45,126.74 525.64,126.66 525.64,126.58 525.77,126.50 525.83,126.42 525.87,126.34 526.03,126.26 526.06,126.18 526.06,126.10 526.31,126.02 526.31,125.94 526.35,125.86 526.41,125.78 526.47,125.70 526.51,125.62 526.76,125.54 526.79,125.46 526.86,125.38 526.98,125.30 527.21,125.22 527.21,125.14 527.30,125.06 527.30,124.98 527.62,124.90 527.74,124.82 527.90,124.74 527.90,124.66 528.03,124.58 528.03,124.50 528.06,124.42 528.09,124.34 528.28,124.26 528.31,124.18 528.37,124.10 528.43,124.02 528.43,123.94 528.46,123.86 528.50,123.78 528.68,123.70 528.75,123.62 528.78,123.54 528.93,123.46 528.99,123.38 529.12,123.30 529.46,123.22 529.49,123.14 529.52,123.06 529.61,122.98 529.64,122.90 529.71,122.82 529.74,122.75 529.83,122.67 529.92,122.59 529.92,122.51 530.04,122.43 530.10,122.35 530.23,122.27 530.38,122.19 530.38,122.11 530.41,122.03 530.69,121.95 530.69,121.87 530.90,121.79 531.14,121.71 531.17,121.63 531.26,121.55 531.38,121.47 531.72,121.39 531.72,121.31 531.78,121.23 531.87,121.15 532.02,121.07 532.17,120.99 532.17,120.91 532.23,120.83 532.35,120.75 532.38,120.67 532.46,120.59 532.52,120.51 532.64,120.43 532.70,120.35 532.73,120.27 532.76,120.19 532.82,120.11 532.88,120.03 532.88,119.95 532.91,119.87 532.94,119.79 532.94,119.71 533.03,119.63 533.09,119.55 533.15,119.47 533.18,119.39 533.21,119.31 533.24,119.23 533.27,119.15 533.30,119.07 533.56,118.99 533.62,118.91 533.65,118.83 533.65,118.75 533.80,118.67 533.92,118.59 533.97,118.51 533.97,118.43 534.00,118.35 534.03,118.27 534.06,118.19 534.12,118.11 534.18,118.03 534.24,117.95 534.30,117.88 534.38,117.80 534.41,117.72 534.41,117.64 534.41,117.56 534.94,117.48 535.05,117.40 535.37,117.32 535.46,117.24 535.52,117.16 535.63,117.08 535.72,117.00 535.78,116.92 535.78,116.84 536.01,116.76 536.06,116.68 536.09,116.60 536.18,116.52 536.26,116.44 536.49,116.36 536.55,116.28 536.89,116.20 536.92,116.12 536.92,116.04 537.01,115.96 537.09,115.88 537.43,115.80 537.57,115.72 537.80,115.64 537.99,115.56 538.05,115.48 538.08,115.40 538.10,115.32 538.27,115.24 538.47,115.16 538.75,115.08 538.83,115.00 538.97,114.92 539.33,114.84 539.33,114.76 539.47,114.68 539.80,114.60 539.91,114.52 539.96,114.44 540.13,114.36 540.13,114.28 540.40,114.20 540.48,114.12 540.62,114.04 540.73,113.96 540.97,113.88 541.03,113.80 541.51,113.72 541.57,113.64 541.65,113.56 541.70,113.48 541.81,113.40 541.86,113.32 541.92,113.24 542.11,113.16 542.24,113.08 542.29,113.00 542.35,112.93 542.37,112.85 542.37,112.77 542.59,112.69 542.61,112.61 542.80,112.53 542.88,112.45 542.93,112.37 543.06,112.29 543.14,112.21 543.17,112.13 543.33,112.05 543.46,111.97 543.46,111.89 543.51,111.81 543.54,111.73 543.62,111.65 543.70,111.57 544.01,111.49 544.28,111.41 544.35,111.33 544.38,111.25 544.41,111.17 544.59,111.09 544.64,111.01 544.64,110.93 544.82,110.85 545.68,110.77 545.68,110.69 545.75,110.61 545.78,110.53 546.39,110.45 546.47,110.37 546.57,110.29 546.73,110.21 546.73,110.13 546.83,110.05 546.85,109.97 547.18,109.89 547.33,109.81 547.59,109.73 547.61,109.65 547.69,109.57 547.79,109.49 548.01,109.41 548.21,109.33 548.24,109.25 548.31,109.17 548.39,109.09 548.56,109.01 548.76,108.93 549.04,108.85 549.28,108.77 549.33,108.69 549.41,108.61 549.43,108.53 549.55,108.45 549.60,108.37 549.75,108.29 550.12,108.21 550.17,108.13 550.29,108.05 550.34,107.97 550.61,107.90 550.63,107.82 550.66,107.74 550.68,107.66 550.68,107.58 550.73,107.50 550.75,107.42 550.85,107.34 550.97,107.26 551.36,107.18 551.38,107.10 551.41,107.02 551.50,106.94 551.67,106.86 551.77,106.78 551.84,106.70 551.89,106.62 551.94,106.54 552.13,106.46 552.15,106.38 552.18,106.30 552.18,106.22 552.46,106.14 552.68,106.06 552.70,105.98 552.82,105.90 552.87,105.82 553.22,105.74 553.29,105.66 553.91,105.58 553.98,105.50 554.00,105.42 554.00,105.34 554.05,105.26 554.07,105.18 554.19,105.10 554.21,105.02 554.30,104.94 554.33,104.86 554.42,104.78 554.47,104.70 554.51,104.62 554.61,104.54 554.63,104.46 554.77,104.38 555.07,104.30 555.16,104.22 555.19,104.14 555.21,104.06 555.37,103.98 555.40,103.90 555.49,103.82 555.53,103.74 555.70,103.66 555.97,103.58 556.25,103.50 556.36,103.42 556.41,103.34 556.59,103.26 556.61,103.18 556.66,103.10 557.00,103.03 557.02,102.95 557.04,102.87 557.15,102.79 557.38,102.71 557.43,102.63 557.45,102.55 557.47,102.47 557.47,102.39 557.65,102.31 557.92,102.23 557.99,102.15 558.12,102.07 558.28,101.99 558.30,101.91 558.32,101.83 558.37,101.75 558.46,101.67 558.52,101.59 558.55,101.51 558.77,101.43 558.81,101.35 558.90,101.27 558.99,101.19 559.06,101.11 559.10,101.03 559.15,100.95 559.26,100.87 559.30,100.79 559.39,100.71 559.52,100.63 559.54,100.55 559.61,100.47 559.74,100.39 559.85,100.31 559.87,100.23 560.22,100.15 560.25,100.07 560.38,99.99 560.46,99.91 560.70,99.83 560.70,99.75 560.88,99.67 560.99,99.59 561.14,99.51 561.22,99.43 561.22,99.35 561.27,99.27 561.40,99.19 561.48,99.11 561.53,99.03 561.78,98.95 561.85,98.87 561.93,98.79 562.00,98.71 562.25,98.63 562.45,98.55 562.47,98.47 562.55,98.39 562.89,98.31 562.94,98.23 563.30,98.15 563.44,98.07 563.49,98.00 563.55,97.92 563.55,97.84 563.72,97.76 563.74,97.68 563.74,97.60 563.82,97.52 563.88,97.44 563.95,97.36 563.99,97.28 564.03,97.20 564.05,97.12 564.22,97.04 564.45,96.96 564.51,96.88 564.51,96.80 564.86,96.72 565.03,96.64 565.20,96.56 565.26,96.48 565.34,96.40 565.40,96.32 565.48,96.24 565.61,96.16 565.83,96.08 566.33,96.00 566.35,95.92 566.45,95.84 566.45,95.76 566.63,95.68 566.73,95.60 566.87,95.52 567.00,95.44 567.00,95.36 567.02,95.28 567.14,95.20 567.18,95.12 567.38,95.04 567.70,94.96 568.32,94.88 568.38,94.80 568.80,94.72 569.10,94.64 569.24,94.56 569.59,94.48 569.71,94.40 569.77,94.32 569.87,94.24 569.87,94.16 570.08,94.08 570.16,94.00 570.65,93.92 570.92,93.84 570.98,93.76 571.67,93.68 571.69,93.60 571.77,93.52 571.90,93.44 572.06,93.36 572.57,93.28 572.72,93.20 572.76,93.12 572.87,93.05 573.01,92.97 573.06,92.89 573.06,92.81 573.08,92.73 573.21,92.65 573.33,92.57 573.70,92.49 574.32,92.41 574.36,92.33 574.55,92.25 574.75,92.17 575.49,92.09 575.60,92.01 575.73,91.93 575.86,91.85 576.04,91.77 576.04,91.69 576.15,91.61 576.30,91.53 576.61,91.45 576.64,91.37 576.84,91.29 576.91,91.21 576.95,91.13 577.00,91.05 577.15,90.97 577.42,90.89 577.44,90.81 577.55,90.73 577.58,90.65 577.90,90.57 577.94,90.49 578.28,90.41 578.49,90.33 578.51,90.25 578.58,90.17 578.64,90.09 579.08,90.01 579.08,89.93 579.13,89.85 579.45,89.77 579.50,89.69 579.80,89.61 580.41,89.53 580.54,89.45 580.57,89.37 581.00,89.29 581.30,89.21 581.37,89.13 581.45,89.05 581.56,88.97 581.80,88.89 581.95,88.81 582.26,88.73 582.27,88.65 582.58,88.57 582.60,88.49 582.94,88.41 583.12,88.33 583.16,88.25 584.10,88.18 584.58,88.10 584.90,88.02 585.24,87.94 585.44,87.86 585.57,87.78 585.85,87.70 586.02,87.62 586.39,87.54 586.52,87.46 586.64,87.38 586.75,87.30 586.78,87.22 587.01,87.14 587.15,87.06 587.20,86.98 587.30,86.90 587.35,86.82 587.68,86.74 587.97,86.66 588.82,86.58 588.82,86.50 588.88,86.42 589.17,86.34 589.75,86.26 589.78,86.18 589.79,86.10 589.90,86.02 590.04,85.94 590.48,85.86 590.61,85.78 590.79,85.70 591.05,85.62 591.27,85.54 591.41,85.46 591.50,85.38 591.62,85.30 592.08,85.22 592.25,85.14 592.36,85.06 592.74,84.98 593.19,84.90 593.94,84.82 593.97,84.74 594.11,84.66 594.48,84.58 594.54,84.50 594.56,84.42 595.03,84.34 595.21,84.26 595.63,84.18 596.09,84.10 596.17,84.02 596.61,83.94 597.12,83.86 597.55,83.78 597.61,83.70 597.79,83.62 598.24,83.54 598.44,83.46 598.59,83.38 598.66,83.30 598.72,83.22 598.86,83.15 599.09,83.07 599.51,82.99 599.86,82.91 599.93,82.83 600.41,82.75 600.75,82.67 600.77,82.59 601.39,82.51 601.77,82.43 601.85,82.35 601.90,82.27 602.17,82.19 602.55,82.11 602.69,82.03 602.82,81.95 603.09,81.87 604.11,81.79 605.45,81.71 605.50,81.63 605.62,81.55 605.79,81.47 605.86,81.39 606.94,81.31 607.23,81.23 607.57,81.15 607.62,81.07 607.73,80.99 607.90,80.91 607.91,80.83 607.99,80.75 608.57,80.67 608.83,80.59 609.04,80.51 609.46,80.43 609.50,80.35 609.57,80.27 609.83,80.19 610.02,80.11 610.08,80.03 610.30,79.95 610.32,79.87 610.83,79.79 610.97,79.71 611.03,79.63 611.29,79.55 611.55,79.47 612.22,79.39 612.34,79.31 612.79,79.23 613.07,79.15 613.15,79.07 613.67,78.99 613.86,78.91 613.87,78.83 613.90,78.75 614.06,78.67 614.07,78.59 614.16,78.51 614.70,78.43 614.98,78.35 615.11,78.28 615.47,78.20 615.49,78.12 615.82,78.04 615.87,77.96 616.43,77.88 616.44,77.80 617.15,77.72 617.18,77.64 617.71,77.56 617.84,77.48 617.92,77.40 618.65,77.32 618.90,77.24 619.21,77.16 619.47,77.08 619.68,77.00 620.62,76.92 620.79,76.84 620.93,76.76 620.97,76.68 621.08,76.60 621.08,76.52 621.66,76.44 621.68,76.36 621.78,76.28 622.98,76.20 623.86,76.12 624.05,76.04 624.38,75.96 624.48,75.88 625.13,75.80 625.40,75.72 626.49,75.64 626.80,75.56 627.02,75.48 627.53,75.40 627.61,75.32 627.72,75.24 627.79,75.16 628.44,75.08 628.46,75.00 628.67,74.92 628.67,74.84 628.81,74.76 628.94,74.68 629.90,74.60 629.97,74.52 630.17,74.44 630.23,74.36 630.25,74.28 631.03,74.20 631.67,74.12 631.68,74.04 631.69,73.96 632.10,73.88 632.26,73.80 632.35,73.72 632.59,73.64 632.86,73.56 633.05,73.48 633.21,73.40 633.24,73.32 634.24,73.25 634.37,73.17 634.37,73.09 634.42,73.01 634.73,72.93 635.21,72.85 635.61,72.77 636.32,72.69 636.89,72.61 636.95,72.53 638.13,72.45 638.17,72.37 639.65,72.29 639.95,72.21 640.15,72.13 640.40,72.05 640.56,71.97 642.31,71.89 642.38,71.81 642.85,71.73 642.89,71.65 643.19,71.57 644.02,71.49 644.04,71.41 644.23,71.33 644.26,71.25 645.76,71.17 645.77,71.09 646.41,71.01 646.68,70.93 646.89,70.85 647.15,70.77 647.33,70.69 647.85,70.61 649.27,70.53 650.30,70.45 650.52,70.37 652.78,70.29 652.94,70.21 653.45,70.13 654.25,70.05 654.29,69.97 654.43,69.89 654.61,69.81 655.07,69.73 655.28,69.65 657.02,69.57 657.96,69.49 659.33,69.41 659.42,69.33 659.92,69.25 661.62,69.17 661.78,69.09 661.82,69.01 662.02,68.93 663.12,68.85 663.81,68.77 664.44,68.69 665.19,68.61 665.87,68.53 666.20,68.45 666.20,68.38 666.85,68.30 667.69,68.22 668.13,68.14 668.39,68.06 668.69,67.98 668.76,67.90 668.85,67.82 669.66,67.74 670.16,67.66 670.19,67.58 670.95,67.50 671.42,67.42 671.73,67.34 672.25,67.26 672.63,67.18 673.08,67.10 673.12,67.02 673.43,66.94 673.49,66.86 673.63,66.78 673.73,66.70 674.09,66.62 674.37,66.54 674.69,66.46 675.99,66.38 676.81,66.30 677.50,66.22 677.50,66.14 677.64,66.06 677.71,65.98 678.09,65.90 678.70,65.82 679.25,65.74 679.60,65.66 680.46,65.58 680.63,65.50 681.34,65.42 681.74,65.34 682.17,65.26 683.23,65.18 683.45,65.10 685.11,65.02 685.36,64.94 685.60,64.86 685.78,64.78 686.66,64.70 687.25,64.62 688.10,64.54 688.63,64.46 688.65,64.38 688.70,64.30 688.73,64.22 689.10,64.14 690.04,64.06 690.11,63.98 690.14,63.90 690.17,63.82 690.57,63.74 690.59,63.66 691.02,63.58 691.54,63.50 693.97,63.43 695.30,63.35 695.83,63.27 696.04,63.19 696.24,63.11 696.60,63.03 696.68,62.95 698.69,62.87 699.50,62.79 699.50,62.71 700.91,62.63 701.51,62.55 701.88,62.47 701.98,62.39 704.25,62.31 704.34,62.23 705.36,62.15 705.77,62.07 705.92,61.99 705.97,61.91 706.11,61.83 706.28,61.75 707.41,61.67 707.85,61.59 707.96,61.51 708.33,61.43 708.69,61.35 709.75,61.27 711.03,61.19 712.60,61.11 713.19,61.03 713.30,60.95 713.57,60.87 713.62,60.79 713.88,60.71 714.75,60.63 715.06,60.55 715.66,60.47 717.01,60.39 717.59,60.31 717.90,60.23 718.98,60.15 719.77,60.07 721.76,59.99 723.18,59.91 725.36,59.83 726.77,59.75 727.33,59.67 728.51,59.59 731.58,59.51 733.09,59.43 734.45,59.35 741.89,59.27 743.82,59.19 745.74,59.11 747.83,59.03 750.74,58.95 755.09,58.87 755.26,58.79 760.82,58.71 762.63,58.63 763.67,58.55 765.16,58.47 767.96,58.40 768.97,58.32 772.05,58.24 773.14,58.16 779.61,58.08 781.34,58.00 782.40,57.92 783.50,57.84 788.48,57.76 788.72,57.68 788.75,57.60 788.75,57.52 789.51,57.44 789.82,57.36 794.42,57.28 795.30,57.20 800.34,57.12 802.93,57.04 806.39,56.96 809.95,56.88 810.23,56.80 812.69,56.72 813.32,56.64 814.00,56.56 815.84,56.48 817.70,56.40 820.00,56.32 820.44,56.24 824.36,56.16 825.79,56.08 826.00,56.00" fill="none" stroke="#2F6BFF" stroke-width="2.5"/><rect x="690" y="50" width="12" height="12" fill="#2F6BFF"/><text x="708.00" y="61.00" font-family="Inter, Arial, sans-serif" font-size="11" fill="#1F2933" text-anchor="start" font-weight="400">completed (n=4960)</text><text x="452.00" y="498.00" font-family="Inter, Arial, sans-serif" font-size="12" fill="#1F2933" text-anchor="middle" font-weight="400">schema_json_chars (log)</text><text x="22.00" y="254.00" font-family="Inter, Arial, sans-serif" font-size="12" fill="#1F2933" text-anchor="middle" font-weight="400">ECDF</text></svg>
