<svg xmlns="http://www.w3.org/2000/svg" width="960" height="500" viewBox="0 0 960 500" role="img" aria-label="Phase time share for slowest completed schemas"><rect width="100%" height="100%" fill="#FFFFFF"/><text x="24.00" y="30.00" font-family="Inter, Arial, sans-serif" font-size="17" fill="#1F2933" text-anchor="start" font-weight="700">Phase time share for slowest completed schemas</text><rect x="805" y="48" width="12" height="12" fill="#2F6BFF"/><text x="822.00" y="59.00" font-family="Inter, Arial, sans-serif" font-size="11" fill="#1F2933" text-anchor="start" font-weight="400">compile</text><rect x="805" y="67" width="12" height="12" fill="#008C7D"/><text x="822.00" y="78.00" font-family="Inter, Arial, sans-serif" font-size="11" fill="#1F2933" text-anchor="start" font-weight="400">validation</text><rect x="805" y="86" width="12" height="12" fill="#D96C06"/><text x="822.00" y="97.00" font-family="Inter, Arial, sans-serif" font-size="11" fill="#1F2933" text-anchor="start" font-weight="400">mask</text><rect x="805" y="105" width="12" height="12" fill="#7557B8"/><text x="822.00" y="116.00" font-family="Inter, Arial, sans-serif" font-size="11" fill="#1F2933" text-anchor="start" font-weight="400">commit</text><text x="250.00" y="76.00" font-family="Inter, Arial, sans-serif" font-size="10" fill="#1F2933" text-anchor="end" font-weight="400">Github_hard---o9794.json</text><rect x="260.00" y="60" width="254.15" height="20" fill="#2F6BFF"/><rect x="514.15" y="60" width="134.78" height="20" fill="#008C7D"/><rect x="648.93" y="60" width="124.65" height="20" fill="#D96C06"/><rect x="773.59" y="60" width="6.41" height="20" fill="#7557B8"/><text x="788.00" y="75.00" font-family="Inter, Arial, sans-serif" font-size="10" fill="#1F2933" text-anchor="start" font-weight="400">0.0285s</text><text x="250.00" y="110.00" font-family="Inter, Arial, sans-serif" font-size="10" fill="#1F2933" text-anchor="end" font-weight="400">Github_hard---o9767.json</text><rect x="260.00" y="94" width="181.10" height="20" fill="#2F6BFF"/><rect x="441.10" y="94" width="172.59" height="20" fill="#008C7D"/><rect x="613.69" y="94" width="158.76" height="20" fill="#D96C06"/><rect x="772.45" y="94" width="7.55" height="20" fill="#7557B8"/><text x="788.00" y="109.00" font-family="Inter, Arial, sans-serif" font-size="10" fill="#1F2933" text-anchor="start" font-weight="400">0.037s</text><text x="250.00" y="144.00" font-family="Inter, Arial, sans-serif" font-size="10" fill="#1F2933" text-anchor="end" font-weight="400">Github_hard---o60871.json</text><rect x="260.00" y="128" width="101.79" height="20" fill="#2F6BFF"/><rect x="361.79" y="128" width="211.46" height="20" fill="#008C7D"/><rect x="573.25" y="128" width="204.73" height="20" fill="#D96C06"/><rect x="777.98" y="128" width="2.02" height="20" fill="#7557B8"/><text x="788.00" y="143.00" font-family="Inter, Arial, sans-serif" font-size="10" fill="#1F2933" text-anchor="start" font-weight="400">0.059s</text><text x="250.00" y="178.00" font-family="Inter, Arial, sans-serif" font-size="10" fill="#1F2933" text-anchor="end" font-weight="400">Github_hard---o9788.json</text><rect x="260.00" y="162" width="431.02" height="20" fill="#2F6BFF"/><rect x="691.02" y="162" width="46.41" height="20" fill="#008C7D"/><rect x="737.43" y="162" width="40.49" height="20" fill="#D96C06"/><rect x="777.91" y="162" width="2.09" height="20" fill="#7557B8"/><text x="788.00" y="177.00" font-family="Inter, Arial, sans-serif" font-size="10" fill="#1F2933" text-anchor="start" font-weight="400">0.0131s</text><text x="250.00" y="212.00" font-family="Inter, Arial, sans-serif" font-size="10" fill="#1F2933" text-anchor="end" font-weight="400">Github_hard---o62060.json</text><rect x="260.00" y="196" width="412.30" height="20" fill="#2F6BFF"/><rect x="672.30" y="196" width="56.09" height="20" fill="#008C7D"/><rect x="728.39" y="196" width="48.10" height="20" fill="#D96C06"/><rect x="776.50" y="196" width="3.50" height="20" fill="#7557B8"/><text x="788.00" y="211.00" font-family="Inter, Arial, sans-serif" font-size="10" fill="#1F2933" text-anchor="start" font-weight="400">0.0117s</text><text x="250.00" y="246.00" font-family="Inter, Arial, sans-serif" font-size="10" fill="#1F2933" text-anchor="end" font-weight="400">Github_hard---o46283.json</text><rect x="260.00" y="230" width="56.25" height="20" fill="#2F6BFF"/><rect x="316.25" y="230" width="234.42" height="20" fill="#008C7D"/><rect x="550.67" y="230" width="221.18" height="20" fill="#D96C06"/><rect x="771.85" y="230" width="8.15" height="20" fill="#7557B8"/><text x="788.00" y="245.00" font-family="Inter, Arial, sans-serif" font-size="10" fill="#1F2933" text-anchor="start" font-weight="400">0.0848s</text><text x="250.00" y="280.00" font-family="Inter, Arial, sans-serif" font-size="10" fill="#1F2933" text-anchor="end" font-weight="400">Github_hard---o82974.json</text><rect x="260.00" y="264" width="168.25" height="20" fill="#2F6BFF"/><rect x="428.25" y="264" width="177.71" height="20" fill="#008C7D"/><rect x="605.96" y="264" width="171.92" height="20" fill="#D96C06"/><rect x="777.87" y="264" width="2.13" height="20" fill="#7557B8"/><text x="788.00" y="279.00" font-family="Inter, Arial, sans-serif" font-size="10" fill="#1F2933" text-anchor="start" font-weight="400">0.0267s</text><text x="250.00" y="314.00" font-family="Inter, Arial, sans-serif" font-size="10" fill="#1F2933" text-anchor="end" font-weight="400">Github_hard---o84327.json</text><rect x="260.00" y="298" width="249.69" height="20" fill="#2F6BFF"/><rect x="509.69" y="298" width="137.39" height="20" fill="#008C7D"/><rect x="647.08" y="298" width="128.53" height="20" fill="#D96C06"/><rect x="775.62" y="298" width="4.38" height="20" fill="#7557B8"/><text x="788.00" y="313.00" font-family="Inter, Arial, sans-serif" font-size="10" fill="#1F2933" text-anchor="start" font-weight="400">0.0156s</text><text x="250.00" y="348.00" font-family="Inter, Arial, sans-serif" font-size="10" fill="#1F2933" text-anchor="end" font-weight="400">Github_hard---o55184.json</text><rect x="260.00" y="332" width="269.76" height="20" fill="#2F6BFF"/><rect x="529.76" y="332" width="127.17" height="20" fill="#008C7D"/><rect x="656.93" y="332" width="118.26" height="20" fill="#D96C06"/><rect x="775.19" y="332" width="4.81" height="20" fill="#7557B8"/><text x="788.00" y="347.00" font-family="Inter, Arial, sans-serif" font-size="10" fill="#1F2933" text-anchor="start" font-weight="400">0.0143s</text><text x="250.00" y="382.00" font-family="Inter, Arial, sans-serif" font-size="10" fill="#1F2933" text-anchor="end" font-weight="400">Github_hard---o84878.json</text><rect x="260.00" y="366" width="358.53" height="20" fill="#2F6BFF"/><rect x="618.53" y="366" width="83.05" height="20" fill="#008C7D"/><rect x="701.58" y="366" width="74.25" height="20" fill="#D96C06"/><rect x="775.82" y="366" width="4.18" height="20" fill="#7557B8"/><text x="788.00" y="381.00" font-family="Inter, Arial, sans-serif" font-size="10" fill="#1F2933" text-anchor="start" font-weight="400">0.0105s</text><text x="250.00" y="416.00" font-family="Inter, Arial, sans-serif" font-size="10" fill="#1F2933" text-anchor="end" font-weight="400">Github_hard---o9776.json</text><rect x="260.00" y="400" width="219.98" height="20" fill="#2F6BFF"/><rect x="479.98" y="400" width="153.94" height="20" fill="#008C7D"/><rect x="633.93" y="400" width="138.66" height="20" fill="#D96C06"/><rect x="772.59" y="400" width="7.41" height="20" fill="#7557B8"/><text x="788.00" y="415.00" font-family="Inter, Arial, sans-serif" font-size="10" fill="#1F2933" text-anchor="start" font-weight="400">0.017s</text><text x="250.00" y="450.00" font-family="Inter, Arial, sans-serif" font-size="10" fill="#1F2933" text-anchor="end" font-weight="400">Github_hard---o16740.json</text><rect x="260.00" y="434" width="465.86" height="20" fill="#2F6BFF"/><rect x="725.86" y="434" width="40.01" height="20" fill="#008C7D"/><rect x="765.87" y="434" width="13.04" height="20" fill="#D96C06"/><rect x="778.91" y="434" width="1.09" height="20" fill="#7557B8"/><text x="788.00" y="449.00" font-family="Inter, Arial, sans-serif" font-size="10" fill="#1F2933" text-anchor="start" font-weight="400">0.00777s</text></svg>
