<svg xmlns="http://www.w3.org/2000/svg" width="860" height="520" viewBox="0 0 860 520" role="img" aria-label="Schema size ECDF: completed vs timeout"><rect width="100%" height="100%" fill="#FFFFFF"/><text x="24.00" y="30.00" font-family="Inter, Arial, sans-serif" font-size="17" fill="#1F2933" text-anchor="start" font-weight="700">Schema size ECDF: completed vs timeout</text><line x1="78.00" y1="56" x2="78.00" y2="452" stroke="#D9DEE5"/><line x1="78" y1="56.00" x2="826" y2="56.00" stroke="#D9DEE5"/><line x1="227.60" y1="56" x2="227.60" y2="452" stroke="#D9DEE5"/><line x1="78" y1="135.20" x2="826" y2="135.20" stroke="#D9DEE5"/><line x1="377.20" y1="56" x2="377.20" y2="452" stroke="#D9DEE5"/><line x1="78" y1="214.40" x2="826" y2="214.40" stroke="#D9DEE5"/><line x1="526.80" y1="56" x2="526.80" y2="452" stroke="#D9DEE5"/><line x1="78" y1="293.60" x2="826" y2="293.60" stroke="#D9DEE5"/><line x1="676.40" y1="56" x2="676.40" y2="452" stroke="#D9DEE5"/><line x1="78" y1="372.80" x2="826" y2="372.80" stroke="#D9DEE5"/><line x1="826.00" y1="56" x2="826.00" y2="452" stroke="#D9DEE5"/><line x1="78" y1="452.00" x2="826" y2="452.00" stroke="#D9DEE5"/><polyline points="78.00,451.55 91.91,451.11 105.04,450.66 107.51,450.22 108.40,449.77 122.48,449.32 139.87,448.88 140.43,448.43 140.98,447.99 142.46,447.54 143.19,447.09 143.37,446.65 143.55,446.20 145.55,445.76 148.59,445.31 151.58,444.86 151.93,444.42 152.63,443.97 156.74,443.53 158.60,443.08 160.77,442.64 160.93,442.19 162.58,441.74 169.03,441.30 170.29,440.85 171.70,440.41 172.79,439.96 175.56,439.51 176.17,439.07 176.93,438.62 177.08,438.18 179.18,437.73 180.08,437.28 183.33,436.84 184.64,436.39 186.08,435.95 186.08,435.50 193.00,435.05 194.66,434.61 195.20,434.16 202.45,433.72 204.02,433.27 204.67,432.82 207.50,432.38 208.14,431.93 210.79,431.49 211.67,431.04 212.79,430.59 218.17,430.15 220.80,429.70 224.32,429.26 225.83,428.81 225.83,428.36 227.44,427.92 229.93,427.47 232.29,427.03 235.81,426.58 236.03,426.14 236.58,425.69 238.63,425.24 240.98,424.80 241.51,424.35 246.62,423.91 247.33,423.46 249.57,423.01 250.78,422.57 251.18,422.12 253.37,421.68 253.47,421.23 254.95,420.78 255.44,420.34 257.00,419.89 258.64,419.45 258.93,419.00 259.21,418.55 260.84,418.11 261.31,417.66 261.88,417.22 262.72,416.77 262.82,416.32 263.66,415.88 264.31,415.43 265.43,414.99 265.98,414.54 266.63,414.09 266.90,413.65 267.09,413.20 267.45,412.76 267.64,412.31 268.82,411.86 268.91,411.42 269.18,410.97 269.27,410.53 269.73,410.08 270.18,409.64 270.90,409.19 271.26,408.74 271.43,408.30 271.52,407.85 271.52,407.41 272.15,406.96 273.13,406.51 274.28,406.07 275.68,405.62 277.51,405.18 277.85,404.73 278.03,404.28 279.31,403.84 279.57,403.39 280.51,402.95 280.59,402.50 280.76,402.05 281.02,401.61 281.19,401.16 281.36,400.72 281.61,400.27 281.87,399.82 282.37,399.38 282.62,398.93 282.79,398.49 283.38,398.04 284.47,397.59 284.55,397.15 284.63,396.70 284.71,396.26 284.80,395.81 285.30,395.36 285.79,394.92 286.70,394.47 286.86,394.03 287.11,393.58 288.01,393.14 288.66,392.69 288.82,392.24 289.55,391.80 289.80,391.35 289.96,390.91 291.24,390.46 291.24,390.01 291.48,389.57 291.48,389.12 291.80,388.68 291.80,388.23 292.60,387.78 292.92,387.34 293.71,386.89 293.79,386.45 294.03,386.00 294.11,385.55 294.82,385.11 295.52,384.66 295.99,384.22 296.15,383.77 296.77,383.32 297.08,382.88 297.47,382.43 299.70,381.99 299.85,381.54 299.93,381.09 300.31,380.65 301.07,380.20 301.07,379.76 301.22,379.31 301.37,378.86 301.98,378.42 302.81,377.97 303.03,377.53 303.56,377.08 303.56,376.64 303.71,376.19 304.00,375.74 304.68,375.30 304.82,374.85 304.97,374.41 305.05,373.96 305.34,373.51 306.52,373.07 307.55,372.62 308.06,372.18 309.66,371.73 310.17,371.28 310.24,370.84 310.31,370.39 311.53,369.95 311.61,369.50 311.68,369.05 311.96,368.61 312.25,368.16 312.46,367.72 312.82,367.27 312.89,366.82 313.03,366.38 313.46,365.93 313.53,365.49 314.23,365.04 314.37,364.59 314.52,364.15 314.73,363.70 314.73,363.26 315.08,362.81 315.15,362.36 315.57,361.92 315.64,361.47 315.92,361.03 316.34,360.58 316.82,360.14 317.52,359.69 317.59,359.24 317.86,358.80 318.21,358.35 318.28,357.91 318.48,357.46 318.62,357.01 318.76,356.57 318.83,356.12 318.90,355.68 319.72,355.23 320.06,354.78 320.20,354.34 320.54,353.89 320.67,353.45 321.01,353.00 321.56,352.55 321.56,352.11 321.90,351.66 322.03,351.22 322.03,350.77 322.43,350.32 322.43,349.88 322.57,349.43 322.84,348.99 322.91,348.54 323.04,348.09 323.11,347.65 323.64,347.20 323.98,346.76 324.18,346.31 324.84,345.86 326.76,345.42 326.96,344.97 327.16,344.53 327.35,344.08 327.55,343.64 327.75,343.19 327.81,342.74 328.27,342.30 328.66,341.85 328.66,341.41 329.05,340.96 329.44,340.51 329.50,340.07 330.02,339.62 330.08,339.18 330.21,338.73 330.34,338.28 330.41,337.84 330.92,337.39 331.11,336.95 331.82,336.50 332.01,336.05 332.65,335.61 332.90,335.16 333.22,334.72 333.47,334.27 333.47,333.82 333.54,333.38 333.98,332.93 334.17,332.49 334.30,332.04 334.36,331.59 334.80,331.15 334.99,330.70 335.30,330.26 335.43,329.81 336.43,329.36 336.68,328.92 336.74,328.47 336.92,328.03 337.30,327.58 337.30,327.14 337.55,326.69 337.67,326.24 337.92,325.80 338.23,325.35 338.29,324.91 338.84,324.46 339.76,324.01 340.25,323.57 340.92,323.12 340.92,322.68 341.22,322.23 341.53,321.78 341.83,321.34 341.95,320.89 342.25,320.45 342.43,320.00 342.55,319.55 342.79,319.11 343.03,318.66 343.15,318.22 343.27,317.77 343.27,317.32 343.33,316.88 343.39,316.43 343.57,315.99 343.69,315.54 343.81,315.09 343.87,314.65 343.93,314.20 344.05,313.76 344.11,313.31 344.65,312.86 344.77,312.42 344.83,311.97 344.83,311.53 345.12,311.08 345.36,310.64 345.48,310.19 345.48,309.74 345.66,309.30 345.78,308.85 346.01,308.41 346.31,307.96 346.37,307.51 346.37,307.07 346.37,306.62 347.42,306.18 348.48,305.73 348.59,305.28 348.83,304.84 349.00,304.39 349.12,303.95 349.58,303.50 349.70,303.05 349.75,302.61 349.93,302.16 350.56,301.72 350.68,301.27 351.37,300.82 351.42,300.38 351.42,299.93 351.60,299.49 351.77,299.04 352.45,298.59 352.74,298.15 353.19,297.70 353.59,297.26 353.70,296.81 354.55,296.36 355.11,295.92 355.28,295.47 355.56,295.03 356.57,294.58 357.23,294.14 357.46,293.69 357.90,293.24 357.90,292.80 358.45,292.35 358.62,291.91 359.60,291.46 360.70,291.01 361.08,290.57 361.51,290.12 361.89,289.68 362.16,289.23 362.27,288.78 362.38,288.34 362.43,287.89 362.43,287.45 362.86,287.00 362.91,286.55 363.29,286.11 363.45,285.66 363.56,285.22 364.04,284.77 364.63,284.32 364.79,283.88 364.95,283.43 366.27,282.99 366.43,282.54 366.48,282.09 366.90,281.65 367.01,281.20 367.01,280.76 367.38,280.31 369.10,279.86 370.55,279.42 371.22,278.97 372.14,278.53 372.44,278.08 372.95,277.64 373.00,277.19 373.16,276.74 373.36,276.30 373.82,275.85 374.22,275.41 374.27,274.96 374.92,274.51 375.88,274.07 376.38,273.62 376.63,273.18 376.93,272.73 377.32,272.28 378.07,271.84 378.16,271.39 378.41,270.95 379.05,270.50 379.10,270.05 379.15,269.61 379.20,269.16 379.20,268.72 379.35,268.27 379.54,267.82 379.79,267.38 380.57,266.93 380.86,266.49 381.20,266.04 381.54,265.59 381.64,265.15 381.73,264.70 382.17,264.26 382.22,263.81 383.23,263.36 383.52,262.92 384.33,262.47 384.47,262.03 385.71,261.58 385.85,261.14 385.90,260.69 386.28,260.24 386.32,259.80 386.56,259.35 386.75,258.91 386.84,258.46 386.94,258.01 387.12,257.57 387.17,257.12 387.45,256.68 388.06,256.23 388.29,255.78 388.67,255.34 388.71,254.89 388.90,254.45 389.87,254.00 390.43,253.55 390.66,253.11 391.95,252.66 391.99,252.22 392.04,251.77 392.27,251.32 392.72,250.88 392.81,250.43 392.90,249.99 393.27,249.54 393.81,249.09 393.95,248.65 394.22,248.20 394.53,247.76 394.58,247.31 394.62,246.86 394.71,246.42 394.89,245.97 395.52,245.53 395.61,245.08 395.79,244.64 395.97,244.19 396.10,243.74 396.19,243.30 396.28,242.85 396.51,242.41 396.60,241.96 396.77,241.51 397.04,241.07 397.22,240.62 397.49,240.18 397.75,239.73 398.46,239.28 398.50,238.84 398.77,238.39 398.94,237.95 399.43,237.50 399.43,237.05 400.30,236.61 400.48,236.16 400.48,235.72 400.56,235.27 401.00,234.82 401.09,234.38 401.61,233.93 401.74,233.49 401.91,233.04 402.04,232.59 402.56,232.15 402.95,231.70 402.99,231.26 403.16,230.81 403.85,230.36 403.93,229.92 404.96,229.47 405.04,229.03 405.17,228.58 405.51,228.14 405.55,227.69 405.55,227.24 405.85,226.80 405.97,226.35 406.06,225.91 406.14,225.46 406.19,225.01 406.52,224.57 407.11,224.12 407.11,223.68 407.83,223.23 408.16,222.78 408.49,222.34 408.62,221.89 408.79,221.45 408.91,221.00 409.08,220.55 409.33,220.11 410.82,219.66 411.02,219.22 411.02,218.77 411.39,218.32 411.60,217.88 411.88,217.43 412.13,216.99 412.13,216.54 412.17,216.09 412.41,215.65 412.50,215.20 412.90,214.76 414.93,214.31 415.77,213.86 416.37,213.42 416.65,212.97 417.37,212.53 417.60,212.08 417.92,211.64 417.92,211.19 418.36,210.74 419.50,210.30 420.05,209.85 420.16,209.41 421.56,208.96 421.60,208.51 421.76,208.07 422.03,207.62 422.34,207.18 423.69,206.73 423.76,206.28 424.37,205.84 424.41,205.39 424.68,204.95 424.91,204.50 425.67,204.05 426.91,203.61 426.99,203.16 427.37,202.72 427.78,202.27 429.27,201.82 429.49,201.38 429.75,200.93 430.01,200.49 430.38,200.04 430.38,199.59 430.60,199.15 430.90,198.70 431.52,198.26 431.60,197.81 432.00,197.36 432.15,196.92 432.22,196.47 432.33,196.03 433.17,195.58 433.20,195.14 433.49,194.69 434.15,194.24 434.22,193.80 434.90,193.35 435.33,192.91 435.37,192.46 435.51,192.01 435.62,191.57 436.52,191.12 436.52,190.68 437.26,190.23 437.37,189.78 437.97,189.34 439.21,188.89 439.45,188.45 439.52,188.00 440.40,187.55 441.13,187.11 441.30,186.66 441.51,186.22 442.00,185.77 442.31,185.32 442.93,184.88 442.97,184.43 443.58,183.99 443.62,183.54 444.30,183.09 444.68,182.65 444.75,182.20 446.65,181.76 447.62,181.31 448.26,180.86 448.96,180.42 449.36,179.97 449.62,179.53 450.19,179.08 450.52,178.64 451.27,178.19 451.54,177.74 452.00,177.30 452.06,176.85 452.52,176.41 452.81,175.96 452.91,175.51 453.20,175.07 453.88,174.62 454.47,174.18 456.17,173.73 456.17,173.28 456.30,172.84 456.87,172.39 458.05,171.95 458.11,171.50 458.14,171.05 458.36,170.61 458.65,170.16 459.53,169.72 459.78,169.27 460.16,168.82 460.69,168.38 461.12,167.93 461.40,167.49 461.59,167.04 461.84,166.59 462.76,166.15 463.10,165.70 463.32,165.26 464.08,164.81 465.00,164.36 466.52,163.92 466.58,163.47 466.85,163.03 467.60,162.58 467.72,162.14 467.75,161.69 468.71,161.24 469.07,160.80 469.93,160.35 470.84,159.91 471.02,159.46 471.90,159.01 472.92,158.57 473.80,158.12 473.91,157.68 474.29,157.23 475.18,156.78 475.58,156.34 475.90,155.89 476.04,155.45 476.44,155.00 476.90,154.55 477.75,154.11 478.60,153.66 479.56,153.22 480.29,152.77 481.54,152.32 482.32,151.88 482.48,151.43 482.57,150.99 483.12,150.54 484.16,150.09 484.98,149.65 487.04,149.20 489.74,148.76 489.84,148.31 490.08,147.86 490.43,147.42 490.56,146.97 492.74,146.53 493.34,146.08 494.01,145.64 494.12,145.19 494.35,144.74 494.68,144.30 494.71,143.85 494.86,143.41 496.05,142.96 496.56,142.51 496.99,142.07 497.83,141.62 497.91,141.18 498.06,140.73 498.59,140.28 498.97,139.84 499.09,139.39 499.52,138.95 499.57,138.50 500.60,138.05 501.00,137.61 501.52,137.16 502.04,136.72 503.40,136.27 503.64,135.82 504.55,135.38 505.11,134.93 505.28,134.49 506.33,134.04 506.71,133.59 506.74,133.15 506.78,132.70 507.12,132.26 507.15,131.81 507.31,131.36 508.42,130.92 508.97,130.47 509.23,130.03 510.01,129.58 510.68,129.14 510.77,128.69 511.90,128.24 511.92,127.80 513.35,127.35 513.42,126.91 514.48,126.46 514.74,126.01 514.90,125.57 516.39,125.12 516.89,124.68 517.51,124.23 518.03,123.78 518.46,123.34 520.35,122.89 520.71,122.45 520.98,122.00 521.06,121.55 521.29,121.11 521.29,120.66 522.46,120.22 522.51,119.77 522.71,119.32 526.90,118.88 527.28,118.43 527.95,117.99 528.14,117.54 529.47,117.09 530.00,116.65 532.21,116.20 532.84,115.76 533.27,115.31 534.31,114.86 534.46,114.42 534.68,113.97 534.83,113.53 536.19,113.08 536.60,112.64 536.60,112.19 536.88,111.74 537.15,111.30 539.09,110.85 539.23,110.41 539.64,109.96 539.76,109.51 539.80,109.07 541.37,108.62 542.68,108.18 542.70,107.73 543.53,107.28 543.85,106.84 544.04,106.39 544.51,105.95 545.06,105.50 545.45,105.05 545.76,104.61 545.84,104.16 547.84,103.72 548.11,103.27 548.11,102.82 548.21,102.38 548.84,101.93 549.81,101.49 550.61,101.04 552.06,100.59 553.20,100.15 553.33,99.70 555.79,99.26 558.77,98.81 559.37,98.36 559.78,97.92 560.28,97.47 560.61,97.03 564.27,96.58 565.30,96.14 565.91,95.69 567.58,95.24 567.64,94.80 568.01,94.35 571.11,93.91 571.13,93.46 572.40,93.01 572.95,92.57 573.37,92.12 573.90,91.68 574.27,91.23 575.32,90.78 578.18,90.34 580.26,89.89 580.71,89.45 585.27,89.00 585.58,88.55 588.22,88.11 588.59,87.66 588.96,87.22 589.89,86.77 590.31,86.32 593.82,85.88 598.49,85.43 598.68,84.99 603.43,84.54 603.51,84.09 603.91,83.65 606.14,83.20 607.54,82.76 610.31,82.31 611.69,81.86 613.67,81.42 615.36,80.97 616.78,80.53 617.38,80.08 617.51,79.64 619.34,79.19 620.35,78.74 620.40,78.30 621.95,77.85 622.88,77.41 623.52,76.96 626.33,76.51 626.95,76.07 627.07,75.62 627.34,75.18 627.55,74.73 628.28,74.28 628.85,73.84 632.11,73.39 633.76,72.95 635.16,72.50 635.16,72.05 635.58,71.61 636.36,71.16 638.69,70.72 639.40,70.27 641.14,69.82 641.48,69.38 643.72,68.93 644.59,68.49 646.73,68.04 647.17,67.59 651.02,67.15 651.50,66.70 651.88,66.26 653.65,65.81 657.63,65.36 657.66,64.92 657.82,64.47 658.57,64.03 660.60,63.58 660.67,63.14 661.58,62.69 672.17,62.24 672.98,61.80 682.40,61.35 684.56,60.91 689.15,60.46 689.33,60.01 700.25,59.57 706.00,59.12 707.41,58.68 708.05,58.23 712.17,57.78 738.12,57.34 769.01,56.89 777.10,56.45 826.00,56.00" fill="none" stroke="#2F6BFF" stroke-width="2.5"/><rect x="690" y="50" width="12" height="12" fill="#2F6BFF"/><text x="708.00" y="61.00" font-family="Inter, Arial, sans-serif" font-size="11" fill="#1F2933" text-anchor="start" font-weight="400">completed (n=888)</text><text x="452.00" y="498.00" font-family="Inter, Arial, sans-serif" font-size="12" fill="#1F2933" text-anchor="middle" font-weight="400">schema_json_chars (log)</text><text x="22.00" y="254.00" font-family="Inter, Arial, sans-serif" font-size="12" fill="#1F2933" text-anchor="middle" font-weight="400">ECDF</text></svg>
