<svg xmlns="http://www.w3.org/2000/svg" width="960" height="790" viewBox="0 0 960 790" role="img" aria-label="Under vs over rates by feature"><rect width="100%" height="100%" fill="#FFFFFF"/><text x="24.00" y="30.00" font-family="Inter, Arial, sans-serif" font-size="17" fill="#1F2933" text-anchor="start" font-weight="700">Under vs over rates by feature</text><rect x="855" y="45" width="12" height="12" fill="#008C7D"/><text x="872.00" y="56.00" font-family="Inter, Arial, sans-serif" font-size="11" fill="#1F2933" text-anchor="start" font-weight="400">under</text><rect x="855" y="64" width="12" height="12" fill="#D96C06"/><text x="872.00" y="75.00" font-family="Inter, Arial, sans-serif" font-size="11" fill="#1F2933" text-anchor="start" font-weight="400">over</text><line x1="240.00" y1="58" x2="240.00" y2="740" stroke="#D9DEE5" stroke-width="1"/><text x="240.00" y="770.00" font-family="Inter, Arial, sans-serif" font-size="10" fill="#1F2933" text-anchor="middle" font-weight="400">0.0%</text><line x1="360.00" y1="58" x2="360.00" y2="740" stroke="#D9DEE5" stroke-width="1"/><text x="360.00" y="770.00" font-family="Inter, Arial, sans-serif" font-size="10" fill="#1F2933" text-anchor="middle" font-weight="400">20.0%</text><line x1="480.00" y1="58" x2="480.00" y2="740" stroke="#D9DEE5" stroke-width="1"/><text x="480.00" y="770.00" font-family="Inter, Arial, sans-serif" font-size="10" fill="#1F2933" text-anchor="middle" font-weight="400">40.0%</text><line x1="600.00" y1="58" x2="600.00" y2="740" stroke="#D9DEE5" stroke-width="1"/><text x="600.00" y="770.00" font-family="Inter, Arial, sans-serif" font-size="10" fill="#1F2933" text-anchor="middle" font-weight="400">60.0%</text><line x1="720.00" y1="58" x2="720.00" y2="740" stroke="#D9DEE5" stroke-width="1"/><text x="720.00" y="770.00" font-family="Inter, Arial, sans-serif" font-size="10" fill="#1F2933" text-anchor="middle" font-weight="400">80.0%</text><line x1="840.00" y1="58" x2="840.00" y2="740" stroke="#D9DEE5" stroke-width="1"/><text x="840.00" y="770.00" font-family="Inter, Arial, sans-serif" font-size="10" fill="#1F2933" text-anchor="middle" font-weight="400">100.0%</text><text x="230.00" y="87.00" font-family="Inter, Arial, sans-serif" font-size="11" fill="#1F2933" text-anchor="end" font-weight="400">has_allOf</text><rect x="240" y="65" width="22.78" height="15" rx="2" fill="#008C7D"/><rect x="240" y="83" width="527.27" height="15" rx="2" fill="#D96C06"/><text x="268.78" y="77.00" font-family="Inter, Arial, sans-serif" font-size="10" fill="#1F2933" text-anchor="start" font-weight="400">3.8%</text><text x="773.27" y="95.00" font-family="Inter, Arial, sans-serif" font-size="10" fill="#1F2933" text-anchor="start" font-weight="400">87.9%</text><text x="230.00" y="133.00" font-family="Inter, Arial, sans-serif" font-size="11" fill="#1F2933" text-anchor="end" font-weight="400">has_patternProperties</text><rect x="240" y="111" width="96.23" height="15" rx="2" fill="#008C7D"/><rect x="240" y="129" width="422.54" height="15" rx="2" fill="#D96C06"/><text x="342.23" y="123.00" font-family="Inter, Arial, sans-serif" font-size="10" fill="#1F2933" text-anchor="start" font-weight="400">16.0%</text><text x="668.54" y="141.00" font-family="Inter, Arial, sans-serif" font-size="10" fill="#1F2933" text-anchor="start" font-weight="400">70.4%</text><text x="230.00" y="179.00" font-family="Inter, Arial, sans-serif" font-size="11" fill="#1F2933" text-anchor="end" font-weight="400">has_not</text><rect x="240" y="157" width="66.67" height="15" rx="2" fill="#008C7D"/><rect x="240" y="175" width="450.00" height="15" rx="2" fill="#D96C06"/><text x="312.67" y="169.00" font-family="Inter, Arial, sans-serif" font-size="10" fill="#1F2933" text-anchor="start" font-weight="400">11.1%</text><text x="696.00" y="187.00" font-family="Inter, Arial, sans-serif" font-size="10" fill="#1F2933" text-anchor="start" font-weight="400">75.0%</text><text x="230.00" y="225.00" font-family="Inter, Arial, sans-serif" font-size="11" fill="#1F2933" text-anchor="end" font-weight="400">has_maximum</text><rect x="240" y="203" width="377.32" height="15" rx="2" fill="#008C7D"/><rect x="240" y="221" width="113.51" height="15" rx="2" fill="#D96C06"/><text x="623.32" y="215.00" font-family="Inter, Arial, sans-serif" font-size="10" fill="#1F2933" text-anchor="start" font-weight="400">62.9%</text><text x="359.51" y="233.00" font-family="Inter, Arial, sans-serif" font-size="10" fill="#1F2933" text-anchor="start" font-weight="400">18.9%</text><text x="230.00" y="271.00" font-family="Inter, Arial, sans-serif" font-size="11" fill="#1F2933" text-anchor="end" font-weight="400">has_multipleOf</text><rect x="240" y="249" width="321.43" height="15" rx="2" fill="#008C7D"/><rect x="240" y="267" width="160.00" height="15" rx="2" fill="#D96C06"/><text x="567.43" y="261.00" font-family="Inter, Arial, sans-serif" font-size="10" fill="#1F2933" text-anchor="start" font-weight="400">53.6%</text><text x="406.00" y="279.00" font-family="Inter, Arial, sans-serif" font-size="10" fill="#1F2933" text-anchor="start" font-weight="400">26.7%</text><text x="230.00" y="317.00" font-family="Inter, Arial, sans-serif" font-size="11" fill="#1F2933" text-anchor="end" font-weight="400">has_minimum</text><rect x="240" y="295" width="337.18" height="15" rx="2" fill="#008C7D"/><rect x="240" y="313" width="85.42" height="15" rx="2" fill="#D96C06"/><text x="583.18" y="307.00" font-family="Inter, Arial, sans-serif" font-size="10" fill="#1F2933" text-anchor="start" font-weight="400">56.2%</text><text x="331.42" y="325.00" font-family="Inter, Arial, sans-serif" font-size="10" fill="#1F2933" text-anchor="start" font-weight="400">14.2%</text><text x="230.00" y="363.00" font-family="Inter, Arial, sans-serif" font-size="11" fill="#1F2933" text-anchor="end" font-weight="400">has_maxProperties</text><rect x="240" y="341" width="1.00" height="15" rx="2" fill="#008C7D"/><rect x="240" y="359" width="300.00" height="15" rx="2" fill="#D96C06"/><text x="246.00" y="353.00" font-family="Inter, Arial, sans-serif" font-size="10" fill="#1F2933" text-anchor="start" font-weight="400">0.0%</text><text x="546.00" y="371.00" font-family="Inter, Arial, sans-serif" font-size="10" fill="#1F2933" text-anchor="start" font-weight="400">50.0%</text><text x="230.00" y="409.00" font-family="Inter, Arial, sans-serif" font-size="11" fill="#1F2933" text-anchor="end" font-weight="400">has_if_then_else</text><rect x="240" y="387" width="300.00" height="15" rx="2" fill="#008C7D"/><rect x="240" y="405" width="1.00" height="15" rx="2" fill="#D96C06"/><text x="546.00" y="399.00" font-family="Inter, Arial, sans-serif" font-size="10" fill="#1F2933" text-anchor="start" font-weight="400">50.0%</text><text x="246.00" y="417.00" font-family="Inter, Arial, sans-serif" font-size="10" fill="#1F2933" text-anchor="start" font-weight="400">0.0%</text><text x="230.00" y="455.00" font-family="Inter, Arial, sans-serif" font-size="11" fill="#1F2933" text-anchor="end" font-weight="400">deep_schema</text><rect x="240" y="433" width="46.43" height="15" rx="2" fill="#008C7D"/><rect x="240" y="451" width="245.78" height="15" rx="2" fill="#D96C06"/><text x="292.43" y="445.00" font-family="Inter, Arial, sans-serif" font-size="10" fill="#1F2933" text-anchor="start" font-weight="400">7.7%</text><text x="491.78" y="463.00" font-family="Inter, Arial, sans-serif" font-size="10" fill="#1F2933" text-anchor="start" font-weight="400">41.0%</text><text x="230.00" y="501.00" font-family="Inter, Arial, sans-serif" font-size="11" fill="#1F2933" text-anchor="end" font-weight="400">has_oneOf</text><rect x="240" y="479" width="58.70" height="15" rx="2" fill="#008C7D"/><rect x="240" y="497" width="228.57" height="15" rx="2" fill="#D96C06"/><text x="304.70" y="491.00" font-family="Inter, Arial, sans-serif" font-size="10" fill="#1F2933" text-anchor="start" font-weight="400">9.8%</text><text x="474.57" y="509.00" font-family="Inter, Arial, sans-serif" font-size="10" fill="#1F2933" text-anchor="start" font-weight="400">38.1%</text><text x="230.00" y="547.00" font-family="Inter, Arial, sans-serif" font-size="11" fill="#1F2933" text-anchor="end" font-weight="400">has_exclusiveMinimum</text><rect x="240" y="525" width="276.92" height="15" rx="2" fill="#008C7D"/><rect x="240" y="543" width="1.00" height="15" rx="2" fill="#D96C06"/><text x="522.92" y="537.00" font-family="Inter, Arial, sans-serif" font-size="10" fill="#1F2933" text-anchor="start" font-weight="400">46.2%</text><text x="246.00" y="555.00" font-family="Inter, Arial, sans-serif" font-size="10" fill="#1F2933" text-anchor="start" font-weight="400">0.0%</text><text x="230.00" y="593.00" font-family="Inter, Arial, sans-serif" font-size="11" fill="#1F2933" text-anchor="end" font-weight="400">large_enum</text><rect x="240" y="571" width="92.55" height="15" rx="2" fill="#008C7D"/><rect x="240" y="589" width="177.14" height="15" rx="2" fill="#D96C06"/><text x="338.55" y="583.00" font-family="Inter, Arial, sans-serif" font-size="10" fill="#1F2933" text-anchor="start" font-weight="400">15.4%</text><text x="423.14" y="601.00" font-family="Inter, Arial, sans-serif" font-size="10" fill="#1F2933" text-anchor="start" font-weight="400">29.5%</text><text x="230.00" y="639.00" font-family="Inter, Arial, sans-serif" font-size="11" fill="#1F2933" text-anchor="end" font-weight="400">has_pattern</text><rect x="240" y="617" width="68.34" height="15" rx="2" fill="#008C7D"/><rect x="240" y="635" width="186.67" height="15" rx="2" fill="#D96C06"/><text x="314.34" y="629.00" font-family="Inter, Arial, sans-serif" font-size="10" fill="#1F2933" text-anchor="start" font-weight="400">11.4%</text><text x="432.67" y="647.00" font-family="Inter, Arial, sans-serif" font-size="10" fill="#1F2933" text-anchor="start" font-weight="400">31.1%</text><text x="230.00" y="685.00" font-family="Inter, Arial, sans-serif" font-size="11" fill="#1F2933" text-anchor="end" font-weight="400">has_maxItems</text><rect x="240" y="663" width="73.04" height="15" rx="2" fill="#008C7D"/><rect x="240" y="681" width="156.52" height="15" rx="2" fill="#D96C06"/><text x="319.04" y="675.00" font-family="Inter, Arial, sans-serif" font-size="10" fill="#1F2933" text-anchor="start" font-weight="400">12.2%</text><text x="402.52" y="693.00" font-family="Inter, Arial, sans-serif" font-size="10" fill="#1F2933" text-anchor="start" font-weight="400">26.1%</text><text x="230.00" y="731.00" font-family="Inter, Arial, sans-serif" font-size="11" fill="#1F2933" text-anchor="end" font-weight="400">has_default</text><rect x="240" y="709" width="121.66" height="15" rx="2" fill="#008C7D"/><rect x="240" y="727" width="99.61" height="15" rx="2" fill="#D96C06"/><text x="367.66" y="721.00" font-family="Inter, Arial, sans-serif" font-size="10" fill="#1F2933" text-anchor="start" font-weight="400">20.3%</text><text x="345.61" y="739.00" font-family="Inter, Arial, sans-serif" font-size="10" fill="#1F2933" text-anchor="start" font-weight="400">16.6%</text></svg>
