<svg xmlns="http://www.w3.org/2000/svg" width="860" height="520" viewBox="0 0 860 520" role="img" aria-label="Schema size ECDF: completed vs timeout"><rect width="100%" height="100%" fill="#FFFFFF"/><text x="24.00" y="30.00" font-family="Inter, Arial, sans-serif" font-size="17" fill="#1F2933" text-anchor="start" font-weight="700">Schema size ECDF: completed vs timeout</text><line x1="78.00" y1="56" x2="78.00" y2="452" stroke="#D9DEE5"/><line x1="78" y1="56.00" x2="826" y2="56.00" stroke="#D9DEE5"/><line x1="227.60" y1="56" x2="227.60" y2="452" stroke="#D9DEE5"/><line x1="78" y1="135.20" x2="826" y2="135.20" stroke="#D9DEE5"/><line x1="377.20" y1="56" x2="377.20" y2="452" stroke="#D9DEE5"/><line x1="78" y1="214.40" x2="826" y2="214.40" stroke="#D9DEE5"/><line x1="526.80" y1="56" x2="526.80" y2="452" stroke="#D9DEE5"/><line x1="78" y1="293.60" x2="826" y2="293.60" stroke="#D9DEE5"/><line x1="676.40" y1="56" x2="676.40" y2="452" stroke="#D9DEE5"/><line x1="78" y1="372.80" x2="826" y2="372.80" stroke="#D9DEE5"/><line x1="826.00" y1="56" x2="826.00" y2="452" stroke="#D9DEE5"/><line x1="78" y1="452.00" x2="826" y2="452.00" stroke="#D9DEE5"/><polyline points="78.00,451.78 78.00,451.55 78.00,451.33 144.84,451.10 159.11,450.88 173.44,450.65 174.58,450.43 177.97,450.21 182.38,449.98 186.68,449.76 188.79,449.53 189.83,449.31 189.83,449.08 191.91,448.86 191.91,448.63 192.93,448.41 194.97,448.19 196.98,447.96 196.98,447.74 196.98,447.51 198.97,447.29 203.85,447.06 205.76,446.84 205.76,446.62 205.76,446.39 205.76,446.17 207.65,445.94 207.65,445.72 211.38,445.49 212.29,445.27 212.29,445.04 215.02,444.82 215.92,444.60 215.92,444.37 216.81,444.15 216.81,443.92 217.70,443.70 217.70,443.47 218.59,443.25 218.59,443.03 219.47,442.80 220.35,442.58 220.35,442.35 221.22,442.13 222.09,441.90 225.51,441.68 225.51,441.45 227.20,441.23 228.04,441.01 228.04,440.78 228.04,440.56 228.88,440.33 228.88,440.11 228.88,439.88 228.88,439.66 228.88,439.44 229.71,439.21 230.53,438.99 231.35,438.76 231.35,438.54 232.17,438.31 232.17,438.09 232.17,437.87 232.99,437.64 233.80,437.42 233.80,437.19 234.60,436.97 235.41,436.74 235.41,436.52 235.41,436.29 235.41,436.07 236.21,435.85 236.21,435.62 237.00,435.40 237.00,435.17 237.80,434.95 237.80,434.72 239.37,434.50 239.37,434.28 239.37,434.05 239.37,433.83 240.15,433.60 240.15,433.38 240.15,433.15 240.93,432.93 241.70,432.70 241.70,432.48 242.47,432.26 242.47,432.03 243.24,431.81 243.24,431.58 244.01,431.36 244.77,431.13 245.52,430.91 245.52,430.69 245.52,430.46 246.28,430.24 246.28,430.01 247.03,429.79 247.78,429.56 247.78,429.34 247.78,429.12 248.52,428.89 248.52,428.67 248.52,428.44 248.52,428.22 248.52,427.99 249.26,427.77 249.26,427.54 249.26,427.32 250.00,427.10 250.00,426.87 250.74,426.65 250.74,426.42 250.74,426.20 251.47,425.97 251.47,425.75 252.20,425.53 252.20,425.30 252.20,425.08 252.20,424.85 252.20,424.63 252.92,424.40 252.92,424.18 252.92,423.95 252.92,423.73 253.65,423.51 253.65,423.28 253.65,423.06 253.65,422.83 254.37,422.61 254.37,422.38 254.37,422.16 254.37,421.94 255.08,421.71 255.80,421.49 256.51,421.26 256.51,421.04 256.51,420.81 256.51,420.59 257.92,420.36 258.62,420.14 258.62,419.92 259.32,419.69 259.32,419.47 259.32,419.24 259.32,419.02 260.02,418.79 260.71,418.57 260.71,418.35 260.71,418.12 260.71,417.90 260.71,417.67 260.71,417.45 261.40,417.22 261.40,417.00 261.40,416.78 262.09,416.55 262.09,416.33 262.09,416.10 262.78,415.88 262.78,415.65 262.78,415.43 262.78,415.20 263.46,414.98 263.46,414.76 263.46,414.53 263.46,414.31 264.14,414.08 264.14,413.86 264.14,413.63 264.82,413.41 264.82,413.19 264.82,412.96 264.82,412.74 265.49,412.51 265.49,412.29 265.49,412.06 265.49,411.84 266.16,411.61 266.16,411.39 266.16,411.17 266.16,410.94 266.16,410.72 266.83,410.49 266.83,410.27 267.50,410.04 267.50,409.82 267.50,409.60 267.50,409.37 267.50,409.15 268.16,408.92 268.16,408.70 268.83,408.47 268.83,408.25 268.83,408.02 268.83,407.80 268.83,407.58 269.49,407.35 270.14,407.13 270.14,406.90 270.14,406.68 270.14,406.45 270.14,406.23 270.14,406.01 270.14,405.78 270.80,405.56 270.80,405.33 270.80,405.11 270.80,404.88 270.80,404.66 270.80,404.44 271.45,404.21 271.45,403.99 271.45,403.76 272.10,403.54 272.10,403.31 272.10,403.09 272.75,402.86 273.39,402.64 273.39,402.42 273.39,402.19 274.03,401.97 274.03,401.74 274.67,401.52 274.67,401.29 274.67,401.07 275.31,400.85 275.31,400.62 275.31,400.40 275.95,400.17 275.95,399.95 275.95,399.72 275.95,399.50 276.58,399.27 277.21,399.05 277.21,398.83 277.21,398.60 277.21,398.38 277.21,398.15 277.84,397.93 277.84,397.70 277.84,397.48 278.46,397.26 278.46,397.03 278.46,396.81 278.46,396.58 278.46,396.36 279.09,396.13 279.09,395.91 279.09,395.68 279.71,395.46 279.71,395.24 279.71,395.01 280.33,394.79 280.33,394.56 280.33,394.34 280.33,394.11 280.33,393.89 280.95,393.67 280.95,393.44 281.56,393.22 281.56,392.99 281.56,392.77 281.56,392.54 281.56,392.32 282.17,392.10 282.17,391.87 282.17,391.65 282.17,391.42 282.17,391.20 282.17,390.97 282.78,390.75 282.78,390.52 282.78,390.30 282.78,390.08 282.78,389.85 282.78,389.63 283.39,389.40 283.39,389.18 284.00,388.95 284.00,388.73 284.00,388.51 284.00,388.28 284.60,388.06 284.60,387.83 284.60,387.61 284.60,387.38 284.60,387.16 285.20,386.93 285.20,386.71 285.20,386.49 285.20,386.26 285.80,386.04 285.80,385.81 285.80,385.59 286.40,385.36 286.40,385.14 287.00,384.92 287.00,384.69 287.00,384.47 287.59,384.24 287.59,384.02 287.59,383.79 288.18,383.57 288.18,383.35 288.18,383.12 288.77,382.90 288.77,382.67 289.36,382.45 289.36,382.22 289.95,382.00 289.95,381.77 289.95,381.55 290.53,381.33 290.53,381.10 290.53,380.88 290.53,380.65 290.53,380.43 291.11,380.20 291.11,379.98 291.11,379.76 291.11,379.53 291.11,379.31 291.11,379.08 291.69,378.86 291.69,378.63 292.27,378.41 292.27,378.18 292.27,377.96 292.27,377.74 292.85,377.51 292.85,377.29 292.85,377.06 292.85,376.84 292.85,376.61 293.42,376.39 293.42,376.17 293.42,375.94 293.99,375.72 293.99,375.49 293.99,375.27 293.99,375.04 293.99,374.82 294.56,374.59 294.56,374.37 294.56,374.15 295.13,373.92 295.70,373.70 295.70,373.47 295.70,373.25 296.26,373.02 296.26,372.80 296.26,372.58 296.83,372.35 296.83,372.13 297.39,371.90 297.39,371.68 297.39,371.45 297.39,371.23 297.95,371.01 297.95,370.78 297.95,370.56 297.95,370.33 298.50,370.11 298.50,369.88 298.50,369.66 298.50,369.43 299.06,369.21 299.06,368.99 299.06,368.76 299.61,368.54 300.17,368.31 300.17,368.09 300.17,367.86 300.17,367.64 300.72,367.42 300.72,367.19 300.72,366.97 301.26,366.74 301.26,366.52 301.26,366.29 301.26,366.07 301.26,365.84 301.26,365.62 301.26,365.40 301.81,365.17 301.81,364.95 301.81,364.72 301.81,364.50 301.81,364.27 301.81,364.05 302.36,363.83 302.36,363.60 302.36,363.38 302.36,363.15 302.36,362.93 302.90,362.70 302.90,362.48 302.90,362.25 302.90,362.03 303.44,361.81 303.44,361.58 303.44,361.36 303.44,361.13 303.44,360.91 303.98,360.68 303.98,360.46 303.98,360.24 303.98,360.01 303.98,359.79 304.52,359.56 305.06,359.34 305.06,359.11 305.06,358.89 305.59,358.67 305.59,358.44 305.59,358.22 306.13,357.99 306.13,357.77 306.13,357.54 306.66,357.32 306.66,357.09 306.66,356.87 306.66,356.65 306.66,356.42 306.66,356.20 306.66,355.97 307.19,355.75 307.19,355.52 307.19,355.30 307.72,355.08 307.72,354.85 307.72,354.63 308.24,354.40 308.24,354.18 308.24,353.95 308.24,353.73 308.77,353.50 308.77,353.28 308.77,353.06 309.29,352.83 309.29,352.61 309.29,352.38 309.29,352.16 309.81,351.93 309.81,351.71 309.81,351.49 309.81,351.26 310.33,351.04 310.33,350.81 310.33,350.59 310.33,350.36 310.85,350.14 310.85,349.92 310.85,349.69 311.37,349.47 311.89,349.24 311.89,349.02 312.40,348.79 312.40,348.57 312.40,348.34 312.91,348.12 312.91,347.90 312.91,347.67 312.91,347.45 312.91,347.22 312.91,347.00 313.43,346.77 313.43,346.55 313.94,346.33 313.94,346.10 313.94,345.88 314.44,345.65 314.44,345.43 314.44,345.20 314.44,344.98 314.44,344.75 314.44,344.53 314.95,344.31 314.95,344.08 314.95,343.86 314.95,343.63 315.46,343.41 315.46,343.18 315.46,342.96 315.46,342.74 315.46,342.51 315.46,342.29 315.96,342.06 315.96,341.84 315.96,341.61 315.96,341.39 315.96,341.16 315.96,340.94 315.96,340.72 315.96,340.49 315.96,340.27 315.96,340.04 316.46,339.82 316.46,339.59 316.46,339.37 316.96,339.15 316.96,338.92 316.96,338.70 316.96,338.47 316.96,338.25 317.46,338.02 317.46,337.80 317.46,337.58 317.46,337.35 317.96,337.13 317.96,336.90 318.46,336.68 318.46,336.45 318.46,336.23 318.46,336.00 318.95,335.78 318.95,335.56 318.95,335.33 318.95,335.11 319.45,334.88 319.45,334.66 319.45,334.43 319.45,334.21 319.45,333.99 319.45,333.76 319.94,333.54 319.94,333.31 319.94,333.09 319.94,332.86 320.43,332.64 320.43,332.41 320.92,332.19 320.92,331.97 320.92,331.74 320.92,331.52 321.41,331.29 321.41,331.07 321.41,330.84 321.41,330.62 321.90,330.40 321.90,330.17 321.90,329.95 322.38,329.72 322.38,329.50 322.38,329.27 322.38,329.05 322.38,328.82 322.87,328.60 322.87,328.38 322.87,328.15 323.35,327.93 323.35,327.70 323.35,327.48 323.35,327.25 323.83,327.03 323.83,326.81 323.83,326.58 323.83,326.36 324.79,326.13 324.79,325.91 325.27,325.68 325.27,325.46 325.27,325.24 325.27,325.01 325.74,324.79 325.74,324.56 325.74,324.34 326.22,324.11 326.22,323.89 326.22,323.66 326.22,323.44 326.22,323.22 326.22,322.99 326.69,322.77 326.69,322.54 326.69,322.32 326.69,322.09 327.16,321.87 327.63,321.65 327.63,321.42 328.10,321.20 328.10,320.97 328.10,320.75 328.10,320.52 328.57,320.30 328.57,320.07 328.57,319.85 328.57,319.63 329.04,319.40 329.04,319.18 329.04,318.95 329.51,318.73 329.51,318.50 329.51,318.28 329.51,318.06 329.51,317.83 329.97,317.61 329.97,317.38 330.43,317.16 330.43,316.93 330.43,316.71 330.90,316.48 331.36,316.26 331.36,316.04 331.36,315.81 331.36,315.59 331.82,315.36 331.82,315.14 331.82,314.91 331.82,314.69 332.27,314.47 332.27,314.24 332.73,314.02 332.73,313.79 332.73,313.57 333.19,313.34 333.19,313.12 333.19,312.90 333.19,312.67 333.64,312.45 333.64,312.22 333.64,312.00 333.64,311.77 333.64,311.55 333.64,311.32 334.10,311.10 334.10,310.88 334.10,310.65 334.55,310.43 334.55,310.20 334.55,309.98 335.00,309.75 335.00,309.53 335.00,309.31 335.00,309.08 335.00,308.86 335.00,308.63 335.45,308.41 335.45,308.18 335.45,307.96 335.90,307.73 335.90,307.51 335.90,307.29 335.90,307.06 336.35,306.84 336.35,306.61 336.35,306.39 336.79,306.16 336.79,305.94 336.79,305.72 336.79,305.49 337.24,305.27 337.24,305.04 337.24,304.82 337.24,304.59 337.24,304.37 337.68,304.15 337.68,303.92 337.68,303.70 337.68,303.47 337.68,303.25 337.68,303.02 338.13,302.80 338.13,302.57 338.57,302.35 338.57,302.13 339.01,301.90 339.01,301.68 339.01,301.45 339.45,301.23 339.45,301.00 339.45,300.78 339.45,300.56 339.45,300.33 339.45,300.11 339.89,299.88 339.89,299.66 339.89,299.43 339.89,299.21 339.89,298.98 340.33,298.76 340.33,298.54 340.33,298.31 340.76,298.09 340.76,297.86 340.76,297.64 340.76,297.41 340.76,297.19 341.20,296.97 341.20,296.74 341.20,296.52 341.20,296.29 341.20,296.07 341.20,295.84 341.63,295.62 341.63,295.39 341.63,295.17 342.07,294.95 342.07,294.72 342.07,294.50 342.07,294.27 342.07,294.05 342.07,293.82 342.50,293.60 342.50,293.38 342.50,293.15 342.50,292.93 342.50,292.70 342.50,292.48 342.93,292.25 342.93,292.03 342.93,291.81 343.36,291.58 343.36,291.36 343.79,291.13 343.79,290.91 344.22,290.68 344.22,290.46 344.22,290.23 344.22,290.01 344.22,289.79 344.64,289.56 344.64,289.34 345.07,289.11 345.07,288.89 345.49,288.66 345.49,288.44 345.49,288.22 345.49,287.99 345.92,287.77 346.34,287.54 346.34,287.32 346.34,287.09 346.76,286.87 346.76,286.64 346.76,286.42 346.76,286.20 346.76,285.97 347.18,285.75 347.18,285.52 347.18,285.30 347.18,285.07 347.60,284.85 347.60,284.63 348.02,284.40 348.02,284.18 348.02,283.95 348.02,283.73 348.02,283.50 348.44,283.28 348.44,283.05 348.44,282.83 348.44,282.61 348.44,282.38 348.86,282.16 348.86,281.93 348.86,281.71 348.86,281.48 348.86,281.26 349.27,281.04 349.27,280.81 349.27,280.59 349.69,280.36 349.69,280.14 349.69,279.91 349.69,279.69 349.69,279.47 350.10,279.24 350.10,279.02 350.10,278.79 350.10,278.57 350.51,278.34 350.51,278.12 350.92,277.89 350.92,277.67 350.92,277.45 350.92,277.22 351.33,277.00 351.33,276.77 351.33,276.55 351.33,276.32 351.33,276.10 351.33,275.88 351.33,275.65 351.74,275.43 351.74,275.20 351.74,274.98 351.74,274.75 351.74,274.53 351.74,274.30 351.74,274.08 351.74,273.86 352.15,273.63 352.15,273.41 352.15,273.18 352.15,272.96 352.15,272.73 352.15,272.51 352.15,272.29 352.97,272.06 353.37,271.84 353.37,271.61 353.37,271.39 353.37,271.16 353.78,270.94 353.78,270.72 354.18,270.49 354.18,270.27 354.18,270.04 354.18,269.82 354.18,269.59 354.18,269.37 354.59,269.14 354.59,268.92 354.59,268.70 354.59,268.47 354.59,268.25 354.59,268.02 354.99,267.80 354.99,267.57 354.99,267.35 355.39,267.13 355.39,266.90 355.39,266.68 355.39,266.45 355.39,266.23 355.79,266.00 355.79,265.78 355.79,265.55 356.19,265.33 356.59,265.11 356.59,264.88 356.59,264.66 356.59,264.43 356.59,264.21 356.98,263.98 356.98,263.76 356.98,263.54 356.98,263.31 356.98,263.09 356.98,262.86 357.38,262.64 357.38,262.41 357.38,262.19 357.38,261.96 357.38,261.74 357.78,261.52 357.78,261.29 358.17,261.07 358.17,260.84 358.17,260.62 358.17,260.39 359.35,260.17 359.35,259.95 359.35,259.72 359.35,259.50 360.13,259.27 360.13,259.05 360.52,258.82 360.52,258.60 360.52,258.38 360.52,258.15 360.52,257.93 360.91,257.70 361.30,257.48 361.68,257.25 361.68,257.03 361.68,256.80 362.07,256.58 362.07,256.36 362.07,256.13 362.07,255.91 362.07,255.68 362.07,255.46 362.07,255.23 362.45,255.01 362.45,254.79 362.84,254.56 362.84,254.34 363.22,254.11 363.22,253.89 363.22,253.66 363.22,253.44 363.60,253.21 363.60,252.99 363.99,252.77 363.99,252.54 363.99,252.32 364.37,252.09 364.37,251.87 364.37,251.64 364.37,251.42 364.37,251.20 364.75,250.97 364.75,250.75 364.75,250.52 364.75,250.30 364.75,250.07 365.13,249.85 365.13,249.62 365.51,249.40 365.51,249.18 365.51,248.95 365.51,248.73 365.88,248.50 365.88,248.28 365.88,248.05 365.88,247.83 365.88,247.61 365.88,247.38 365.88,247.16 366.26,246.93 366.26,246.71 366.26,246.48 366.26,246.26 366.26,246.04 366.26,245.81 366.64,245.59 366.64,245.36 366.64,245.14 366.64,244.91 367.01,244.69 367.01,244.46 367.38,244.24 367.38,244.02 367.38,243.79 367.38,243.57 367.76,243.34 367.76,243.12 367.76,242.89 367.76,242.67 367.76,242.45 368.13,242.22 368.13,242.00 368.50,241.77 368.50,241.55 368.87,241.32 368.87,241.10 368.87,240.87 368.87,240.65 368.87,240.43 368.87,240.20 369.24,239.98 369.24,239.75 369.24,239.53 369.24,239.30 369.61,239.08 369.61,238.86 369.61,238.63 369.61,238.41 369.61,238.18 369.61,237.96 369.61,237.73 369.61,237.51 369.98,237.28 369.98,237.06 369.98,236.84 369.98,236.61 370.35,236.39 370.35,236.16 370.35,235.94 370.72,235.71 370.72,235.49 370.72,235.27 370.72,235.04 370.72,234.82 370.72,234.59 371.08,234.37 371.08,234.14 371.08,233.92 371.08,233.70 371.45,233.47 371.81,233.25 371.81,233.02 372.18,232.80 372.18,232.57 372.18,232.35 372.54,232.12 372.54,231.90 372.90,231.68 372.90,231.45 372.90,231.23 372.90,231.00 372.90,230.78 372.90,230.55 373.27,230.33 373.27,230.11 373.27,229.88 373.27,229.66 373.27,229.43 373.27,229.21 373.63,228.98 373.63,228.76 373.63,228.53 373.99,228.31 373.99,228.09 373.99,227.86 374.35,227.64 374.35,227.41 374.35,227.19 374.35,226.96 374.35,226.74 374.70,226.52 374.70,226.29 374.70,226.07 375.06,225.84 375.06,225.62 375.06,225.39 375.42,225.17 375.78,224.95 375.78,224.72 375.78,224.50 376.13,224.27 376.13,224.05 376.13,223.82 376.49,223.60 376.49,223.37 376.49,223.15 376.49,222.93 376.84,222.70 376.84,222.48 377.20,222.25 377.20,222.03 377.55,221.80 377.55,221.58 377.90,221.36 377.90,221.13 377.90,220.91 378.25,220.68 378.25,220.46 378.60,220.23 378.60,220.01 378.60,219.78 378.95,219.56 378.95,219.34 378.95,219.11 378.95,218.89 378.95,218.66 378.95,218.44 379.30,218.21 379.65,217.99 379.65,217.77 379.65,217.54 380.00,217.32 380.00,217.09 380.00,216.87 380.00,216.64 380.00,216.42 380.35,216.19 380.35,215.97 380.35,215.75 380.69,215.52 380.69,215.30 380.69,215.07 381.04,214.85 381.04,214.62 381.04,214.40 381.38,214.18 381.38,213.95 381.38,213.73 381.38,213.50 381.73,213.28 381.73,213.05 381.73,212.83 382.07,212.61 382.07,212.38 382.07,212.16 382.07,211.93 382.41,211.71 382.41,211.48 382.41,211.26 382.76,211.03 382.76,210.81 382.76,210.59 383.10,210.36 383.10,210.14 383.10,209.91 383.10,209.69 383.44,209.46 383.44,209.24 383.78,209.02 383.78,208.79 383.78,208.57 383.78,208.34 383.78,208.12 383.78,207.89 384.12,207.67 384.46,207.44 384.46,207.22 384.80,207.00 384.80,206.77 384.80,206.55 385.14,206.32 385.14,206.10 385.14,205.87 385.47,205.65 385.47,205.43 385.47,205.20 385.47,204.98 385.81,204.75 385.81,204.53 385.81,204.30 386.14,204.08 386.14,203.85 386.14,203.63 386.14,203.41 386.14,203.18 386.14,202.96 386.14,202.73 386.48,202.51 386.48,202.28 386.48,202.06 386.81,201.84 386.81,201.61 387.15,201.39 387.15,201.16 387.48,200.94 387.48,200.71 387.48,200.49 387.81,200.27 387.81,200.04 387.81,199.82 388.15,199.59 388.15,199.37 388.15,199.14 388.15,198.92 388.15,198.69 388.48,198.47 388.48,198.25 388.48,198.02 388.48,197.80 388.48,197.57 388.81,197.35 388.81,197.12 388.81,196.90 388.81,196.68 388.81,196.45 388.81,196.23 389.14,196.00 389.14,195.78 389.14,195.55 389.47,195.33 389.47,195.10 390.12,194.88 390.45,194.66 390.45,194.43 390.45,194.21 390.45,193.98 390.78,193.76 390.78,193.53 390.78,193.31 390.78,193.09 391.10,192.86 391.10,192.64 391.10,192.41 391.10,192.19 391.43,191.96 391.43,191.74 391.43,191.52 391.76,191.29 392.08,191.07 392.08,190.84 392.08,190.62 392.08,190.39 392.08,190.17 392.08,189.94 392.08,189.72 392.40,189.50 392.40,189.27 392.40,189.05 392.73,188.82 392.73,188.60 393.05,188.37 393.05,188.15 393.37,187.93 393.37,187.70 393.37,187.48 393.69,187.25 393.69,187.03 394.01,186.80 394.33,186.58 394.65,186.35 394.65,186.13 394.65,185.91 394.97,185.68 394.97,185.46 394.97,185.23 395.29,185.01 395.61,184.78 395.61,184.56 395.61,184.34 395.61,184.11 395.93,183.89 395.93,183.66 395.93,183.44 395.93,183.21 396.24,182.99 396.24,182.76 396.24,182.54 396.24,182.32 396.56,182.09 396.56,181.87 396.87,181.64 396.87,181.42 397.19,181.19 397.19,180.97 397.19,180.75 397.19,180.52 397.19,180.30 397.50,180.07 397.50,179.85 397.82,179.62 397.82,179.40 397.82,179.18 398.13,178.95 398.13,178.73 398.44,178.50 398.44,178.28 398.44,178.05 398.44,177.83 398.44,177.60 398.76,177.38 398.76,177.16 399.38,176.93 399.38,176.71 399.38,176.48 400.00,176.26 400.00,176.03 400.00,175.81 400.00,175.59 400.00,175.36 400.31,175.14 400.31,174.91 400.31,174.69 400.31,174.46 400.62,174.24 400.62,174.01 400.62,173.79 400.93,173.57 400.93,173.34 401.23,173.12 401.23,172.89 401.23,172.67 401.54,172.44 401.54,172.22 401.85,172.00 401.85,171.77 401.85,171.55 401.85,171.32 402.15,171.10 402.15,170.87 402.15,170.65 402.46,170.42 402.46,170.20 402.46,169.98 402.76,169.75 403.07,169.53 403.07,169.30 403.37,169.08 403.37,168.85 403.98,168.63 403.98,168.41 403.98,168.18 403.98,167.96 404.28,167.73 404.28,167.51 404.58,167.28 404.58,167.06 404.88,166.84 404.88,166.61 405.19,166.39 405.19,166.16 405.19,165.94 405.49,165.71 405.49,165.49 405.49,165.26 405.79,165.04 405.79,164.82 406.08,164.59 406.08,164.37 406.08,164.14 406.08,163.92 406.38,163.69 406.38,163.47 406.68,163.25 406.68,163.02 406.68,162.80 406.98,162.57 406.98,162.35 407.28,162.12 407.28,161.90 407.28,161.67 407.57,161.45 407.87,161.23 407.87,161.00 408.16,160.78 408.16,160.55 408.16,160.33 408.46,160.10 408.46,159.88 408.75,159.66 409.05,159.43 409.05,159.21 409.34,158.98 409.34,158.76 409.64,158.53 409.64,158.31 409.64,158.08 409.64,157.86 409.64,157.64 410.22,157.41 410.51,157.19 410.80,156.96 410.80,156.74 410.80,156.51 410.80,156.29 411.09,156.07 411.09,155.84 411.38,155.62 411.38,155.39 411.38,155.17 411.38,154.94 411.38,154.72 411.38,154.50 411.67,154.27 411.67,154.05 411.96,153.82 412.25,153.60 412.25,153.37 412.25,153.15 412.25,152.92 412.25,152.70 412.25,152.48 412.54,152.25 412.54,152.03 412.83,151.80 412.83,151.58 412.83,151.35 412.83,151.13 413.11,150.91 413.40,150.68 413.69,150.46 413.69,150.23 413.69,150.01 413.97,149.78 414.26,149.56 414.26,149.33 414.54,149.11 414.83,148.89 414.83,148.66 414.83,148.44 415.11,148.21 415.11,147.99 415.11,147.76 415.40,147.54 415.40,147.32 415.40,147.09 416.24,146.87 416.24,146.64 416.53,146.42 416.81,146.19 417.09,145.97 417.09,145.75 417.09,145.52 417.09,145.30 417.37,145.07 417.37,144.85 417.65,144.62 417.93,144.40 418.21,144.17 418.76,143.95 418.76,143.73 419.04,143.50 419.04,143.28 419.04,143.05 419.32,142.83 419.59,142.60 419.59,142.38 419.59,142.16 419.59,141.93 419.87,141.71 420.15,141.48 420.15,141.26 420.42,141.03 420.42,140.81 420.70,140.58 420.70,140.36 421.79,140.14 421.79,139.91 422.06,139.69 422.06,139.46 422.06,139.24 422.06,139.01 422.06,138.79 422.61,138.57 422.61,138.34 422.88,138.12 423.15,137.89 423.69,137.67 423.69,137.44 423.69,137.22 423.96,136.99 424.50,136.77 424.77,136.55 424.77,136.32 425.04,136.10 425.04,135.87 425.57,135.65 426.11,135.42 426.37,135.20 426.64,134.98 426.64,134.75 426.90,134.53 426.90,134.30 427.43,134.08 427.96,133.85 428.22,133.63 428.49,133.41 428.75,133.18 428.75,132.96 429.01,132.73 429.27,132.51 429.27,132.28 429.79,132.06 430.06,131.83 430.32,131.61 430.83,131.39 430.83,131.16 431.09,130.94 431.09,130.71 431.09,130.49 431.35,130.26 431.35,130.04 431.61,129.82 431.61,129.59 431.61,129.37 432.38,129.14 432.90,128.92 432.90,128.69 432.90,128.47 433.41,128.24 433.66,128.02 433.66,127.80 433.92,127.57 433.92,127.35 433.92,127.12 433.92,126.90 434.17,126.67 434.68,126.45 434.93,126.23 435.18,126.00 435.18,125.78 435.18,125.55 435.44,125.33 435.44,125.10 435.44,124.88 435.94,124.65 436.19,124.43 436.19,124.21 436.69,123.98 436.69,123.76 436.69,123.53 437.19,123.31 437.19,123.08 437.44,122.86 437.69,122.64 437.69,122.41 437.94,122.19 437.94,121.96 438.69,121.74 439.18,121.51 439.43,121.29 439.43,121.07 439.67,120.84 439.92,120.62 439.92,120.39 440.17,120.17 440.41,119.94 440.66,119.72 440.66,119.49 441.39,119.27 441.63,119.05 441.63,118.82 441.88,118.60 442.12,118.37 442.36,118.15 442.60,117.92 443.33,117.70 443.33,117.48 443.81,117.25 443.81,117.03 444.05,116.80 444.29,116.58 444.29,116.35 444.53,116.13 444.77,115.90 445.49,115.68 445.96,115.46 445.96,115.23 445.96,115.01 446.43,114.78 446.67,114.56 446.91,114.33 446.91,114.11 447.14,113.89 447.14,113.66 447.38,113.44 447.38,113.21 447.61,112.99 447.85,112.76 448.08,112.54 448.08,112.32 448.32,112.09 448.55,111.87 448.79,111.64 448.79,111.42 449.49,111.19 449.72,110.97 449.72,110.74 450.18,110.52 450.41,110.30 450.88,110.07 450.88,109.85 450.88,109.62 451.11,109.40 451.34,109.17 451.34,108.95 451.57,108.73 452.48,108.50 452.48,108.28 452.48,108.05 452.71,107.83 452.94,107.60 453.17,107.38 453.17,107.15 453.40,106.93 453.40,106.71 454.08,106.48 454.08,106.26 454.30,106.03 454.53,105.81 455.21,105.58 455.21,105.36 455.21,105.14 455.43,104.91 455.43,104.69 455.66,104.46 455.66,104.24 455.88,104.01 456.10,103.79 456.10,103.56 456.55,103.34 456.55,103.12 457.22,102.89 457.22,102.67 457.44,102.44 457.44,102.22 457.89,101.99 458.55,101.77 458.55,101.55 459.21,101.32 459.21,101.10 459.87,100.87 460.31,100.65 460.53,100.42 460.96,100.20 461.40,99.98 461.83,99.75 462.26,99.53 462.26,99.30 462.91,99.08 462.91,98.85 463.13,98.63 463.13,98.40 464.41,98.18 464.84,97.96 464.84,97.73 465.05,97.51 465.05,97.28 465.05,97.06 465.48,96.83 466.95,96.61 466.95,96.39 467.16,96.16 467.16,95.94 467.79,95.71 468.00,95.49 468.21,95.26 468.42,95.04 468.84,94.81 469.25,94.59 469.46,94.37 469.67,94.14 469.87,93.92 470.08,93.69 470.70,93.47 471.32,93.24 472.13,93.02 472.54,92.80 472.95,92.57 473.56,92.35 473.56,92.12 473.96,91.90 474.16,91.67 474.16,91.45 474.57,91.22 475.57,91.00 475.77,90.78 475.77,90.55 476.77,90.33 477.36,90.10 477.36,89.88 477.56,89.65 477.95,89.43 478.15,89.21 478.35,88.98 479.13,88.76 479.33,88.53 479.33,88.31 479.53,88.08 479.92,87.86 480.11,87.64 480.31,87.41 480.31,87.19 480.31,86.96 480.50,86.74 480.50,86.51 480.50,86.29 481.08,86.06 481.28,85.84 481.47,85.62 481.86,85.39 482.44,85.17 483.01,84.94 483.59,84.72 483.59,84.49 483.78,84.27 484.16,84.05 484.16,83.82 484.35,83.60 484.73,83.37 484.92,83.15 485.86,82.92 485.86,82.70 487.37,82.47 488.11,82.25 488.11,82.03 488.67,81.80 490.88,81.58 490.88,81.35 491.25,81.13 491.43,80.90 491.61,80.68 491.79,80.46 491.98,80.23 492.52,80.01 493.61,79.78 493.79,79.56 493.79,79.33 495.22,79.11 495.76,78.88 496.11,78.66 496.29,78.44 496.47,78.21 496.47,77.99 496.82,77.76 497.53,77.54 498.76,77.31 499.28,77.09 499.81,76.87 500.15,76.64 500.33,76.42 500.67,76.19 501.54,75.97 502.57,75.74 503.42,75.52 504.44,75.30 505.12,75.07 505.28,74.85 505.62,74.62 506.13,74.40 506.13,74.17 506.63,73.95 507.63,73.72 507.79,73.50 508.13,73.28 508.62,73.05 509.12,72.83 510.43,72.60 511.25,72.38 514.15,72.15 515.27,71.93 517.17,71.71 517.80,71.48 518.11,71.26 518.27,71.03 518.43,70.81 518.74,70.58 520.14,70.36 520.44,70.13 520.44,69.91 520.44,69.69 520.91,69.46 523.05,69.24 524.11,69.01 524.56,68.79 524.56,68.56 525.77,68.34 525.77,68.12 526.21,67.89 526.36,67.67 526.96,67.44 527.11,67.22 530.20,66.99 530.35,66.77 531.65,66.55 532.23,66.32 532.81,66.10 532.95,65.87 534.24,65.65 534.38,65.42 535.52,65.20 535.94,64.97 537.07,64.75 537.63,64.53 538.74,64.30 541.77,64.08 543.00,63.85 543.27,63.63 545.02,63.40 547.15,63.18 548.60,62.96 549.25,62.73 549.65,62.51 550.30,62.28 550.94,62.06 551.33,61.83 553.00,61.61 555.67,61.38 556.93,61.16 557.30,60.94 558.05,60.71 558.42,60.49 560.27,60.26 573.26,60.04 573.72,59.81 579.74,59.59 583.32,59.37 592.42,59.14 600.29,58.92 603.57,58.69 604.04,58.47 608.83,58.24 621.69,58.02 625.52,57.79 640.66,57.57 686.16,57.35 689.04,57.12 690.09,56.90 742.31,56.67 768.25,56.45 822.50,56.22 826.00,56.00" fill="none" stroke="#2F6BFF" stroke-width="2.5"/><rect x="690" y="50" width="12" height="12" fill="#2F6BFF"/><text x="708.00" y="61.00" font-family="Inter, Arial, sans-serif" font-size="11" fill="#1F2933" text-anchor="start" font-weight="400">completed (n=1765)</text><polyline points="232.99,435.50 237.00,419.00 272.75,402.50 276.58,386.00 277.84,369.50 288.77,353.00 306.66,336.50 311.89,320.00 327.16,303.50 339.45,287.00 340.76,270.50 358.96,254.00 360.13,237.50 370.35,221.00 377.20,204.50 383.10,188.00 383.78,171.50 386.48,155.00 390.45,138.50 390.45,122.00 393.05,105.50 401.23,89.00 403.98,72.50 795.03,56.00" fill="none" stroke="#C43C39" stroke-width="2.5"/><rect x="690" y="70" width="12" height="12" fill="#C43C39"/><text x="708.00" y="81.00" font-family="Inter, Arial, sans-serif" font-size="11" fill="#1F2933" text-anchor="start" font-weight="400">timeout (n=24)</text><text x="452.00" y="498.00" font-family="Inter, Arial, sans-serif" font-size="12" fill="#1F2933" text-anchor="middle" font-weight="400">schema_json_chars (log)</text><text x="22.00" y="254.00" font-family="Inter, Arial, sans-serif" font-size="12" fill="#1F2933" text-anchor="middle" font-weight="400">ECDF</text></svg>
