<svg xmlns="http://www.w3.org/2000/svg" width="960" height="790" viewBox="0 0 960 790" role="img" aria-label="Under vs over rates by feature"><rect width="100%" height="100%" fill="#FFFFFF"/><text x="24.00" y="30.00" font-family="Inter, Arial, sans-serif" font-size="17" fill="#1F2933" text-anchor="start" font-weight="700">Under vs over rates by feature</text><rect x="855" y="45" width="12" height="12" fill="#008C7D"/><text x="872.00" y="56.00" font-family="Inter, Arial, sans-serif" font-size="11" fill="#1F2933" text-anchor="start" font-weight="400">under</text><rect x="855" y="64" width="12" height="12" fill="#D96C06"/><text x="872.00" y="75.00" font-family="Inter, Arial, sans-serif" font-size="11" fill="#1F2933" text-anchor="start" font-weight="400">over</text><line x1="240.00" y1="58" x2="240.00" y2="740" stroke="#D9DEE5" stroke-width="1"/><text x="240.00" y="770.00" font-family="Inter, Arial, sans-serif" font-size="10" fill="#1F2933" text-anchor="middle" font-weight="400">0.0%</text><line x1="360.00" y1="58" x2="360.00" y2="740" stroke="#D9DEE5" stroke-width="1"/><text x="360.00" y="770.00" font-family="Inter, Arial, sans-serif" font-size="10" fill="#1F2933" text-anchor="middle" font-weight="400">20.0%</text><line x1="480.00" y1="58" x2="480.00" y2="740" stroke="#D9DEE5" stroke-width="1"/><text x="480.00" y="770.00" font-family="Inter, Arial, sans-serif" font-size="10" fill="#1F2933" text-anchor="middle" font-weight="400">40.0%</text><line x1="600.00" y1="58" x2="600.00" y2="740" stroke="#D9DEE5" stroke-width="1"/><text x="600.00" y="770.00" font-family="Inter, Arial, sans-serif" font-size="10" fill="#1F2933" text-anchor="middle" font-weight="400">60.0%</text><line x1="720.00" y1="58" x2="720.00" y2="740" stroke="#D9DEE5" stroke-width="1"/><text x="720.00" y="770.00" font-family="Inter, Arial, sans-serif" font-size="10" fill="#1F2933" text-anchor="middle" font-weight="400">80.0%</text><line x1="840.00" y1="58" x2="840.00" y2="740" stroke="#D9DEE5" stroke-width="1"/><text x="840.00" y="770.00" font-family="Inter, Arial, sans-serif" font-size="10" fill="#1F2933" text-anchor="middle" font-weight="400">100.0%</text><text x="230.00" y="87.00" font-family="Inter, Arial, sans-serif" font-size="11" fill="#1F2933" text-anchor="end" font-weight="400">has_maxProperties</text><rect x="240" y="65" width="1.00" height="15" rx="2" fill="#008C7D"/><rect x="240" y="83" width="600.00" height="15" rx="2" fill="#D96C06"/><text x="246.00" y="77.00" font-family="Inter, Arial, sans-serif" font-size="10" fill="#1F2933" text-anchor="start" font-weight="400">0.0%</text><text x="846.00" y="95.00" font-family="Inter, Arial, sans-serif" font-size="10" fill="#1F2933" text-anchor="start" font-weight="400">100.0%</text><text x="230.00" y="133.00" font-family="Inter, Arial, sans-serif" font-size="11" fill="#1F2933" text-anchor="end" font-weight="400">has_minProperties</text><rect x="240" y="111" width="1.00" height="15" rx="2" fill="#008C7D"/><rect x="240" y="129" width="600.00" height="15" rx="2" fill="#D96C06"/><text x="246.00" y="123.00" font-family="Inter, Arial, sans-serif" font-size="10" fill="#1F2933" text-anchor="start" font-weight="400">0.0%</text><text x="846.00" y="141.00" font-family="Inter, Arial, sans-serif" font-size="10" fill="#1F2933" text-anchor="start" font-weight="400">100.0%</text><text x="230.00" y="179.00" font-family="Inter, Arial, sans-serif" font-size="11" fill="#1F2933" text-anchor="end" font-weight="400">has_patternProperties</text><rect x="240" y="157" width="1.00" height="15" rx="2" fill="#008C7D"/><rect x="240" y="175" width="600.00" height="15" rx="2" fill="#D96C06"/><text x="246.00" y="169.00" font-family="Inter, Arial, sans-serif" font-size="10" fill="#1F2933" text-anchor="start" font-weight="400">0.0%</text><text x="846.00" y="187.00" font-family="Inter, Arial, sans-serif" font-size="10" fill="#1F2933" text-anchor="start" font-weight="400">100.0%</text><text x="230.00" y="225.00" font-family="Inter, Arial, sans-serif" font-size="11" fill="#1F2933" text-anchor="end" font-weight="400">has_exclusiveMaximum</text><rect x="240" y="203" width="1.00" height="15" rx="2" fill="#008C7D"/><rect x="240" y="221" width="600.00" height="15" rx="2" fill="#D96C06"/><text x="246.00" y="215.00" font-family="Inter, Arial, sans-serif" font-size="10" fill="#1F2933" text-anchor="start" font-weight="400">0.0%</text><text x="846.00" y="233.00" font-family="Inter, Arial, sans-serif" font-size="10" fill="#1F2933" text-anchor="start" font-weight="400">100.0%</text><text x="230.00" y="271.00" font-family="Inter, Arial, sans-serif" font-size="11" fill="#1F2933" text-anchor="end" font-weight="400">has_anyOf</text><rect x="240" y="249" width="4.65" height="15" rx="2" fill="#008C7D"/><rect x="240" y="267" width="566.04" height="15" rx="2" fill="#D96C06"/><text x="250.65" y="261.00" font-family="Inter, Arial, sans-serif" font-size="10" fill="#1F2933" text-anchor="start" font-weight="400">0.8%</text><text x="812.04" y="279.00" font-family="Inter, Arial, sans-serif" font-size="10" fill="#1F2933" text-anchor="start" font-weight="400">94.3%</text><text x="230.00" y="317.00" font-family="Inter, Arial, sans-serif" font-size="11" fill="#1F2933" text-anchor="end" font-weight="400">has_ref</text><rect x="240" y="295" width="2.65" height="15" rx="2" fill="#008C7D"/><rect x="240" y="313" width="554.72" height="15" rx="2" fill="#D96C06"/><text x="248.65" y="307.00" font-family="Inter, Arial, sans-serif" font-size="10" fill="#1F2933" text-anchor="start" font-weight="400">0.4%</text><text x="800.72" y="325.00" font-family="Inter, Arial, sans-serif" font-size="10" fill="#1F2933" text-anchor="start" font-weight="400">92.5%</text><text x="230.00" y="363.00" font-family="Inter, Arial, sans-serif" font-size="11" fill="#1F2933" text-anchor="end" font-weight="400">has_defs</text><rect x="240" y="341" width="2.62" height="15" rx="2" fill="#008C7D"/><rect x="240" y="359" width="544.95" height="15" rx="2" fill="#D96C06"/><text x="248.62" y="353.00" font-family="Inter, Arial, sans-serif" font-size="10" fill="#1F2933" text-anchor="start" font-weight="400">0.4%</text><text x="790.95" y="371.00" font-family="Inter, Arial, sans-serif" font-size="10" fill="#1F2933" text-anchor="start" font-weight="400">90.8%</text><text x="230.00" y="409.00" font-family="Inter, Arial, sans-serif" font-size="11" fill="#1F2933" text-anchor="end" font-weight="400">has_allOf</text><rect x="240" y="387" width="11.32" height="15" rx="2" fill="#008C7D"/><rect x="240" y="405" width="529.41" height="15" rx="2" fill="#D96C06"/><text x="257.32" y="399.00" font-family="Inter, Arial, sans-serif" font-size="10" fill="#1F2933" text-anchor="start" font-weight="400">1.9%</text><text x="775.41" y="417.00" font-family="Inter, Arial, sans-serif" font-size="10" fill="#1F2933" text-anchor="start" font-weight="400">88.2%</text><text x="230.00" y="455.00" font-family="Inter, Arial, sans-serif" font-size="11" fill="#1F2933" text-anchor="end" font-weight="400">has_oneOf</text><rect x="240" y="433" width="13.48" height="15" rx="2" fill="#008C7D"/><rect x="240" y="451" width="526.83" height="15" rx="2" fill="#D96C06"/><text x="259.48" y="445.00" font-family="Inter, Arial, sans-serif" font-size="10" fill="#1F2933" text-anchor="start" font-weight="400">2.2%</text><text x="772.83" y="463.00" font-family="Inter, Arial, sans-serif" font-size="10" fill="#1F2933" text-anchor="start" font-weight="400">87.8%</text><text x="230.00" y="501.00" font-family="Inter, Arial, sans-serif" font-size="11" fill="#1F2933" text-anchor="end" font-weight="400">has_default</text><rect x="240" y="479" width="1.00" height="15" rx="2" fill="#008C7D"/><rect x="240" y="497" width="535.38" height="15" rx="2" fill="#D96C06"/><text x="246.00" y="491.00" font-family="Inter, Arial, sans-serif" font-size="10" fill="#1F2933" text-anchor="start" font-weight="400">0.0%</text><text x="781.38" y="509.00" font-family="Inter, Arial, sans-serif" font-size="10" fill="#1F2933" text-anchor="start" font-weight="400">89.2%</text><text x="230.00" y="547.00" font-family="Inter, Arial, sans-serif" font-size="11" fill="#1F2933" text-anchor="end" font-weight="400">has_minimum</text><rect x="240" y="525" width="20.17" height="15" rx="2" fill="#008C7D"/><rect x="240" y="543" width="514.29" height="15" rx="2" fill="#D96C06"/><text x="266.17" y="537.00" font-family="Inter, Arial, sans-serif" font-size="10" fill="#1F2933" text-anchor="start" font-weight="400">3.4%</text><text x="760.29" y="555.00" font-family="Inter, Arial, sans-serif" font-size="10" fill="#1F2933" text-anchor="start" font-weight="400">85.7%</text><text x="230.00" y="593.00" font-family="Inter, Arial, sans-serif" font-size="11" fill="#1F2933" text-anchor="end" font-weight="400">has_enum</text><rect x="240" y="571" width="7.63" height="15" rx="2" fill="#008C7D"/><rect x="240" y="589" width="521.05" height="15" rx="2" fill="#D96C06"/><text x="253.63" y="583.00" font-family="Inter, Arial, sans-serif" font-size="10" fill="#1F2933" text-anchor="start" font-weight="400">1.3%</text><text x="767.05" y="601.00" font-family="Inter, Arial, sans-serif" font-size="10" fill="#1F2933" text-anchor="start" font-weight="400">86.8%</text><text x="230.00" y="639.00" font-family="Inter, Arial, sans-serif" font-size="11" fill="#1F2933" text-anchor="end" font-weight="400">large_enum</text><rect x="240" y="617" width="6.12" height="15" rx="2" fill="#008C7D"/><rect x="240" y="635" width="521.74" height="15" rx="2" fill="#D96C06"/><text x="252.12" y="629.00" font-family="Inter, Arial, sans-serif" font-size="10" fill="#1F2933" text-anchor="start" font-weight="400">1.0%</text><text x="767.74" y="647.00" font-family="Inter, Arial, sans-serif" font-size="10" fill="#1F2933" text-anchor="start" font-weight="400">87.0%</text><text x="230.00" y="685.00" font-family="Inter, Arial, sans-serif" font-size="11" fill="#1F2933" text-anchor="end" font-weight="400">has_additionalProperties</text><rect x="240" y="663" width="13.45" height="15" rx="2" fill="#008C7D"/><rect x="240" y="681" width="506.80" height="15" rx="2" fill="#D96C06"/><text x="259.45" y="675.00" font-family="Inter, Arial, sans-serif" font-size="10" fill="#1F2933" text-anchor="start" font-weight="400">2.2%</text><text x="752.80" y="693.00" font-family="Inter, Arial, sans-serif" font-size="10" fill="#1F2933" text-anchor="start" font-weight="400">84.5%</text><text x="230.00" y="731.00" font-family="Inter, Arial, sans-serif" font-size="11" fill="#1F2933" text-anchor="end" font-weight="400">has_boolean_schema</text><rect x="240" y="709" width="13.76" height="15" rx="2" fill="#008C7D"/><rect x="240" y="727" width="502.04" height="15" rx="2" fill="#D96C06"/><text x="259.76" y="721.00" font-family="Inter, Arial, sans-serif" font-size="10" fill="#1F2933" text-anchor="start" font-weight="400">2.3%</text><text x="748.04" y="739.00" font-family="Inter, Arial, sans-serif" font-size="10" fill="#1F2933" text-anchor="start" font-weight="400">83.7%</text></svg>
