<svg xmlns="http://www.w3.org/2000/svg" width="960" height="500" viewBox="0 0 960 500" role="img" aria-label="Phase time share for slowest completed schemas"><rect width="100%" height="100%" fill="#FFFFFF"/><text x="24.00" y="30.00" font-family="Inter, Arial, sans-serif" font-size="17" fill="#1F2933" text-anchor="start" font-weight="700">Phase time share for slowest completed schemas</text><rect x="805" y="48" width="12" height="12" fill="#2F6BFF"/><text x="822.00" y="59.00" font-family="Inter, Arial, sans-serif" font-size="11" fill="#1F2933" text-anchor="start" font-weight="400">compile</text><rect x="805" y="67" width="12" height="12" fill="#008C7D"/><text x="822.00" y="78.00" font-family="Inter, Arial, sans-serif" font-size="11" fill="#1F2933" text-anchor="start" font-weight="400">validation</text><rect x="805" y="86" width="12" height="12" fill="#D96C06"/><text x="822.00" y="97.00" font-family="Inter, Arial, sans-serif" font-size="11" fill="#1F2933" text-anchor="start" font-weight="400">mask</text><rect x="805" y="105" width="12" height="12" fill="#7557B8"/><text x="822.00" y="116.00" font-family="Inter, Arial, sans-serif" font-size="11" fill="#1F2933" text-anchor="start" font-weight="400">commit</text><text x="250.00" y="76.00" font-family="Inter, Arial, sans-serif" font-size="10" fill="#1F2933" text-anchor="end" font-weight="400">Github_ultra---o60790.json</text><rect x="260.00" y="60" width="517.18" height="20" fill="#2F6BFF"/><rect x="777.18" y="60" width="1.41" height="20" fill="#008C7D"/><rect x="778.59" y="60" width="0.65" height="20" fill="#D96C06"/><rect x="779.24" y="60" width="0.76" height="20" fill="#7557B8"/><text x="788.00" y="75.00" font-family="Inter, Arial, sans-serif" font-size="10" fill="#1F2933" text-anchor="start" font-weight="400">541s</text><text x="250.00" y="110.00" font-family="Inter, Arial, sans-serif" font-size="10" fill="#1F2933" text-anchor="end" font-weight="400">Github_ultra---o65431.json</text><rect x="260.00" y="94" width="519.77" height="20" fill="#2F6BFF"/><rect x="779.77" y="94" width="0.11" height="20" fill="#008C7D"/><rect x="779.89" y="94" width="0.05" height="20" fill="#D96C06"/><rect x="779.94" y="94" width="0.06" height="20" fill="#7557B8"/><text x="788.00" y="109.00" font-family="Inter, Arial, sans-serif" font-size="10" fill="#1F2933" text-anchor="start" font-weight="400">503s</text><text x="250.00" y="144.00" font-family="Inter, Arial, sans-serif" font-size="10" fill="#1F2933" text-anchor="end" font-weight="400">Github_ultra---o12652.json</text><rect x="260.00" y="128" width="520.00" height="20" fill="#2F6BFF"/><text x="788.00" y="143.00" font-family="Inter, Arial, sans-serif" font-size="10" fill="#1F2933" text-anchor="start" font-weight="400">467s</text><text x="250.00" y="178.00" font-family="Inter, Arial, sans-serif" font-size="10" fill="#1F2933" text-anchor="end" font-weight="400">Github_ultra---o21137.json</text><rect x="260.00" y="162" width="520.00" height="20" fill="#2F6BFF"/><text x="788.00" y="177.00" font-family="Inter, Arial, sans-serif" font-size="10" fill="#1F2933" text-anchor="start" font-weight="400">408s</text><text x="250.00" y="212.00" font-family="Inter, Arial, sans-serif" font-size="10" fill="#1F2933" text-anchor="end" font-weight="400">Github_ultra---o65323.json</text><rect x="260.00" y="196" width="520.00" height="20" fill="#2F6BFF"/><text x="788.00" y="211.00" font-family="Inter, Arial, sans-serif" font-size="10" fill="#1F2933" text-anchor="start" font-weight="400">382s</text><text x="250.00" y="246.00" font-family="Inter, Arial, sans-serif" font-size="10" fill="#1F2933" text-anchor="end" font-weight="400">Github_ultra---o12344.json</text><rect x="260.00" y="230" width="520.00" height="20" fill="#2F6BFF"/><text x="788.00" y="245.00" font-family="Inter, Arial, sans-serif" font-size="10" fill="#1F2933" text-anchor="start" font-weight="400">382s</text><text x="250.00" y="280.00" font-family="Inter, Arial, sans-serif" font-size="10" fill="#1F2933" text-anchor="end" font-weight="400">Github_ultra---o58926.json</text><rect x="260.00" y="264" width="519.96" height="20" fill="#2F6BFF"/><rect x="779.96" y="264" width="0.02" height="20" fill="#008C7D"/><rect x="779.98" y="264" width="0.01" height="20" fill="#D96C06"/><rect x="779.99" y="264" width="0.01" height="20" fill="#7557B8"/><text x="788.00" y="279.00" font-family="Inter, Arial, sans-serif" font-size="10" fill="#1F2933" text-anchor="start" font-weight="400">347s</text><text x="250.00" y="314.00" font-family="Inter, Arial, sans-serif" font-size="10" fill="#1F2933" text-anchor="end" font-weight="400">Github_ultra---o21136.json</text><rect x="260.00" y="298" width="520.00" height="20" fill="#2F6BFF"/><text x="788.00" y="313.00" font-family="Inter, Arial, sans-serif" font-size="10" fill="#1F2933" text-anchor="start" font-weight="400">314s</text><text x="250.00" y="348.00" font-family="Inter, Arial, sans-serif" font-size="10" fill="#1F2933" text-anchor="end" font-weight="400">Github_ultra---o21135.json</text><rect x="260.00" y="332" width="520.00" height="20" fill="#2F6BFF"/><text x="788.00" y="347.00" font-family="Inter, Arial, sans-serif" font-size="10" fill="#1F2933" text-anchor="start" font-weight="400">295s</text><text x="250.00" y="382.00" font-family="Inter, Arial, sans-serif" font-size="10" fill="#1F2933" text-anchor="end" font-weight="400">Github_ultra---o84269.json</text><rect x="260.00" y="366" width="517.77" height="20" fill="#2F6BFF"/><rect x="777.77" y="366" width="1.12" height="20" fill="#008C7D"/><rect x="778.89" y="366" width="0.51" height="20" fill="#D96C06"/><rect x="779.40" y="366" width="0.60" height="20" fill="#7557B8"/><text x="788.00" y="381.00" font-family="Inter, Arial, sans-serif" font-size="10" fill="#1F2933" text-anchor="start" font-weight="400">295s</text><text x="250.00" y="416.00" font-family="Inter, Arial, sans-serif" font-size="10" fill="#1F2933" text-anchor="end" font-weight="400">Github_ultra---o83390.json</text><rect x="260.00" y="400" width="519.70" height="20" fill="#2F6BFF"/><rect x="779.70" y="400" width="0.15" height="20" fill="#008C7D"/><rect x="779.85" y="400" width="0.07" height="20" fill="#D96C06"/><rect x="779.92" y="400" width="0.08" height="20" fill="#7557B8"/><text x="788.00" y="415.00" font-family="Inter, Arial, sans-serif" font-size="10" fill="#1F2933" text-anchor="start" font-weight="400">289s</text><text x="250.00" y="450.00" font-family="Inter, Arial, sans-serif" font-size="10" fill="#1F2933" text-anchor="end" font-weight="400">Github_ultra---o62058.json</text><rect x="260.00" y="434" width="518.93" height="20" fill="#2F6BFF"/><rect x="778.93" y="434" width="0.53" height="20" fill="#008C7D"/><rect x="779.47" y="434" width="0.25" height="20" fill="#D96C06"/><rect x="779.71" y="434" width="0.29" height="20" fill="#7557B8"/><text x="788.00" y="449.00" font-family="Inter, Arial, sans-serif" font-size="10" fill="#1F2933" text-anchor="start" font-weight="400">277s</text></svg>
