<svg xmlns="http://www.w3.org/2000/svg" width="860" height="520" viewBox="0 0 860 520" role="img" aria-label="Schema size ECDF: completed vs timeout"><rect width="100%" height="100%" fill="#FFFFFF"/><text x="24.00" y="30.00" font-family="Inter, Arial, sans-serif" font-size="17" fill="#1F2933" text-anchor="start" font-weight="700">Schema size ECDF: completed vs timeout</text><line x1="78.00" y1="56" x2="78.00" y2="452" stroke="#D9DEE5"/><line x1="78" y1="56.00" x2="826" y2="56.00" stroke="#D9DEE5"/><line x1="227.60" y1="56" x2="227.60" y2="452" stroke="#D9DEE5"/><line x1="78" y1="135.20" x2="826" y2="135.20" stroke="#D9DEE5"/><line x1="377.20" y1="56" x2="377.20" y2="452" stroke="#D9DEE5"/><line x1="78" y1="214.40" x2="826" y2="214.40" stroke="#D9DEE5"/><line x1="526.80" y1="56" x2="526.80" y2="452" stroke="#D9DEE5"/><line x1="78" y1="293.60" x2="826" y2="293.60" stroke="#D9DEE5"/><line x1="676.40" y1="56" x2="676.40" y2="452" stroke="#D9DEE5"/><line x1="78" y1="372.80" x2="826" y2="372.80" stroke="#D9DEE5"/><line x1="826.00" y1="56" x2="826.00" y2="452" stroke="#D9DEE5"/><line x1="78" y1="452.00" x2="826" y2="452.00" stroke="#D9DEE5"/><polyline points="78.00,447.70 280.63,443.39 325.12,439.09 338.19,434.78 343.90,430.48 348.84,426.17 367.72,421.87 369.82,417.57 379.69,413.26 382.10,408.96 386.78,404.65 395.34,400.35 398.41,396.04 406.07,391.74 417.00,387.43 423.24,383.13 425.71,378.83 431.34,374.52 432.85,370.22 434.17,365.91 435.68,361.61 442.75,357.30 446.61,353.00 448.74,348.70 450.38,344.39 456.44,340.09 458.78,335.78 458.80,331.48 464.63,327.17 465.69,322.87 475.80,318.57 476.98,314.26 477.43,309.96 477.58,305.65 477.96,301.35 478.48,297.04 483.36,292.74 492.24,288.43 498.53,284.13 499.63,279.83 500.54,275.52 503.06,271.22 503.96,266.91 509.61,262.61 511.29,258.30 512.21,254.00 515.34,249.70 517.63,245.39 523.42,241.09 527.52,236.78 533.86,232.48 537.93,228.17 539.57,223.87 551.90,219.57 556.30,215.26 560.25,210.96 581.83,206.65 593.02,202.35 620.15,198.04 620.66,193.74 636.79,189.43 642.06,185.13 649.38,180.83 657.53,176.52 660.46,172.22 672.56,167.91 691.34,163.61 696.35,159.30 699.44,155.00 702.62,150.70 717.10,146.39 717.78,142.09 717.86,137.78 717.88,133.48 720.07,129.17 720.99,124.87 734.34,120.57 751.51,116.26 759.02,111.96 769.07,107.65 779.41,103.35 780.22,99.04 787.37,94.74 789.18,90.43 791.16,86.13 796.52,81.83 801.90,77.52 808.59,73.22 809.85,68.91 821.24,64.61 825.40,60.30 826.00,56.00" fill="none" stroke="#2F6BFF" stroke-width="2.5"/><rect x="690" y="50" width="12" height="12" fill="#2F6BFF"/><text x="708.00" y="61.00" font-family="Inter, Arial, sans-serif" font-size="11" fill="#1F2933" text-anchor="start" font-weight="400">completed (n=92)</text><polyline points="357.01,320.00 607.54,188.00 736.88,56.00" fill="none" stroke="#C43C39" stroke-width="2.5"/><rect x="690" y="70" width="12" height="12" fill="#C43C39"/><text x="708.00" y="81.00" font-family="Inter, Arial, sans-serif" font-size="11" fill="#1F2933" text-anchor="start" font-weight="400">timeout (n=3)</text><text x="452.00" y="498.00" font-family="Inter, Arial, sans-serif" font-size="12" fill="#1F2933" text-anchor="middle" font-weight="400">schema_json_chars (log)</text><text x="22.00" y="254.00" font-family="Inter, Arial, sans-serif" font-size="12" fill="#1F2933" text-anchor="middle" font-weight="400">ECDF</text></svg>
