<svg xmlns="http://www.w3.org/2000/svg" width="900" height="560" viewBox="0 0 900 560" role="img" aria-label="Schema size vs compile time"><rect width="100%" height="100%" fill="#FFFFFF"/><text x="24.00" y="30.00" font-family="Inter, Arial, sans-serif" font-size="17" fill="#1F2933" text-anchor="start" font-weight="700">Schema size vs compile time</text><line x1="82.00" y1="56" x2="82.00" y2="488" stroke="#D9DEE5"/><line x1="82" y1="56.00" x2="868" y2="56.00" stroke="#D9DEE5"/><line x1="239.20" y1="56" x2="239.20" y2="488" stroke="#D9DEE5"/><line x1="82" y1="142.40" x2="868" y2="142.40" stroke="#D9DEE5"/><line x1="396.40" y1="56" x2="396.40" y2="488" stroke="#D9DEE5"/><line x1="82" y1="228.80" x2="868" y2="228.80" stroke="#D9DEE5"/><line x1="553.60" y1="56" x2="553.60" y2="488" stroke="#D9DEE5"/><line x1="82" y1="315.20" x2="868" y2="315.20" stroke="#D9DEE5"/><line x1="710.80" y1="56" x2="710.80" y2="488" stroke="#D9DEE5"/><line x1="82" y1="401.60" x2="868" y2="401.60" stroke="#D9DEE5"/><line x1="868.00" y1="56" x2="868.00" y2="488" stroke="#D9DEE5"/><line x1="82" y1="488.00" x2="868" y2="488.00" stroke="#D9DEE5"/><circle cx="456.26" cy="148.64" r="4.2" fill="#2F6BFF" opacity="0.72"/><circle cx="694.05" cy="75.83" r="4.2" fill="#2F6BFF" opacity="0.72"/><circle cx="690.97" cy="66.99" r="4.2" fill="#2F6BFF" opacity="0.72"/><circle cx="669.17" cy="477.12" r="4.2" fill="#2F6BFF" opacity="0.72"/><circle cx="579.98" cy="163.35" r="4.2" fill="#2F6BFF" opacity="0.72"/><circle cx="482.14" cy="164.51" r="4.2" fill="#2F6BFF" opacity="0.72"/><circle cx="652.23" cy="159.85" r="4.2" fill="#2F6BFF" opacity="0.72"/><circle cx="426.73" cy="209.08" r="4.2" fill="#2F6BFF" opacity="0.72"/><circle cx="831.39" cy="488.00" r="4.2" fill="#2F6BFF" opacity="0.72"/><circle cx="754.36" cy="474.54" r="4.2" fill="#2F6BFF" opacity="0.72"/><circle cx="501.73" cy="87.02" r="4.2" fill="#2F6BFF" opacity="0.72"/><circle cx="500.01" cy="84.29" r="4.2" fill="#2F6BFF" opacity="0.72"/><circle cx="457.85" cy="72.91" r="4.2" fill="#2F6BFF" opacity="0.72"/><circle cx="584.60" cy="445.52" r="4.2" fill="#2F6BFF" opacity="0.72"/><circle cx="529.60" cy="93.24" r="4.2" fill="#2F6BFF" opacity="0.72"/><circle cx="538.26" cy="465.89" r="4.2" fill="#2F6BFF" opacity="0.72"/><circle cx="479.67" cy="464.99" r="4.2" fill="#2F6BFF" opacity="0.72"/><circle cx="502.83" cy="468.85" r="4.2" fill="#2F6BFF" opacity="0.72"/><circle cx="438.22" cy="465.80" r="4.2" fill="#2F6BFF" opacity="0.72"/><circle cx="341.67" cy="188.01" r="4.2" fill="#2F6BFF" opacity="0.72"/><circle cx="674.71" cy="120.83" r="4.2" fill="#2F6BFF" opacity="0.72"/><circle cx="651.69" cy="150.98" r="4.2" fill="#2F6BFF" opacity="0.72"/><circle cx="550.04" cy="90.16" r="4.2" fill="#2F6BFF" opacity="0.72"/><circle cx="754.38" cy="462.06" r="4.2" fill="#2F6BFF" opacity="0.72"/><circle cx="523.89" cy="92.92" r="4.2" fill="#2F6BFF" opacity="0.72"/><circle cx="611.43" cy="469.96" r="4.2" fill="#2F6BFF" opacity="0.72"/><circle cx="465.28" cy="198.71" r="4.2" fill="#2F6BFF" opacity="0.72"/><circle cx="535.53" cy="104.27" r="4.2" fill="#2F6BFF" opacity="0.72"/><circle cx="82.00" cy="241.11" r="4.2" fill="#2F6BFF" opacity="0.72"/><circle cx="526.01" cy="93.28" r="4.2" fill="#2F6BFF" opacity="0.72"/><circle cx="726.50" cy="122.52" r="4.2" fill="#2F6BFF" opacity="0.72"/><circle cx="554.36" cy="149.77" r="4.2" fill="#2F6BFF" opacity="0.72"/><circle cx="682.41" cy="175.13" r="4.2" fill="#2F6BFF" opacity="0.72"/><circle cx="375.18" cy="56.07" r="4.2" fill="#C43C39" opacity="0.72"/><circle cx="754.29" cy="462.04" r="4.2" fill="#2F6BFF" opacity="0.72"/><circle cx="567.02" cy="421.75" r="4.2" fill="#2F6BFF" opacity="0.72"/><circle cx="386.43" cy="180.66" r="4.2" fill="#2F6BFF" opacity="0.72"/><circle cx="361.41" cy="444.07" r="4.2" fill="#2F6BFF" opacity="0.72"/><circle cx="501.25" cy="109.76" r="4.2" fill="#2F6BFF" opacity="0.72"/><circle cx="388.65" cy="179.87" r="4.2" fill="#2F6BFF" opacity="0.72"/><circle cx="541.56" cy="79.99" r="4.2" fill="#2F6BFF" opacity="0.72"/><circle cx="453.29" cy="272.17" r="4.2" fill="#2F6BFF" opacity="0.72"/><circle cx="294.93" cy="60.86" r="4.2" fill="#2F6BFF" opacity="0.72"/><circle cx="482.13" cy="114.51" r="4.2" fill="#2F6BFF" opacity="0.72"/><circle cx="473.29" cy="89.89" r="4.2" fill="#2F6BFF" opacity="0.72"/><circle cx="471.58" cy="92.20" r="4.2" fill="#2F6BFF" opacity="0.72"/><circle cx="842.68" cy="458.02" r="4.2" fill="#2F6BFF" opacity="0.72"/><circle cx="789.73" cy="460.56" r="4.2" fill="#2F6BFF" opacity="0.72"/><circle cx="797.62" cy="461.81" r="4.2" fill="#2F6BFF" opacity="0.72"/><circle cx="808.18" cy="459.37" r="4.2" fill="#2F6BFF" opacity="0.72"/><circle cx="819.89" cy="457.61" r="4.2" fill="#2F6BFF" opacity="0.72"/><circle cx="819.05" cy="457.77" r="4.2" fill="#2F6BFF" opacity="0.72"/><circle cx="827.40" cy="458.00" r="4.2" fill="#2F6BFF" opacity="0.72"/><circle cx="829.31" cy="438.21" r="4.2" fill="#2F6BFF" opacity="0.72"/><circle cx="731.76" cy="460.37" r="4.2" fill="#2F6BFF" opacity="0.72"/><circle cx="738.35" cy="459.76" r="4.2" fill="#2F6BFF" opacity="0.72"/><circle cx="753.56" cy="451.12" r="4.2" fill="#2F6BFF" opacity="0.72"/><circle cx="771.68" cy="455.05" r="4.2" fill="#2F6BFF" opacity="0.72"/><circle cx="757.65" cy="456.10" r="4.2" fill="#2F6BFF" opacity="0.72"/><circle cx="837.02" cy="455.71" r="4.2" fill="#2F6BFF" opacity="0.72"/><circle cx="849.70" cy="454.33" r="4.2" fill="#2F6BFF" opacity="0.72"/><circle cx="851.03" cy="454.29" r="4.2" fill="#2F6BFF" opacity="0.72"/><circle cx="863.00" cy="459.10" r="4.2" fill="#2F6BFF" opacity="0.72"/><circle cx="867.37" cy="444.93" r="4.2" fill="#2F6BFF" opacity="0.72"/><circle cx="868.00" cy="457.04" r="4.2" fill="#2F6BFF" opacity="0.72"/><circle cx="706.76" cy="75.78" r="4.2" fill="#2F6BFF" opacity="0.72"/><circle cx="537.30" cy="457.79" r="4.2" fill="#2F6BFF" opacity="0.72"/><circle cx="543.97" cy="465.97" r="4.2" fill="#2F6BFF" opacity="0.72"/><circle cx="502.28" cy="63.78" r="4.2" fill="#2F6BFF" opacity="0.72"/><circle cx="366.60" cy="456.70" r="4.2" fill="#2F6BFF" opacity="0.72"/><circle cx="401.54" cy="450.79" r="4.2" fill="#2F6BFF" opacity="0.72"/><circle cx="469.34" cy="457.65" r="4.2" fill="#2F6BFF" opacity="0.72"/><circle cx="415.47" cy="175.93" r="4.2" fill="#2F6BFF" opacity="0.72"/><circle cx="418.69" cy="174.53" r="4.2" fill="#2F6BFF" opacity="0.72"/><circle cx="444.78" cy="458.83" r="4.2" fill="#2F6BFF" opacity="0.72"/><circle cx="447.37" cy="170.42" r="4.2" fill="#2F6BFF" opacity="0.72"/><circle cx="638.44" cy="56.00" r="4.2" fill="#C43C39" opacity="0.72"/><circle cx="517.29" cy="92.96" r="4.2" fill="#2F6BFF" opacity="0.72"/><circle cx="355.41" cy="463.39" r="4.2" fill="#2F6BFF" opacity="0.72"/><circle cx="406.47" cy="457.79" r="4.2" fill="#2F6BFF" opacity="0.72"/><circle cx="735.01" cy="454.67" r="4.2" fill="#2F6BFF" opacity="0.72"/><circle cx="488.27" cy="221.77" r="4.2" fill="#2F6BFF" opacity="0.72"/><circle cx="528.65" cy="93.20" r="4.2" fill="#2F6BFF" opacity="0.72"/><circle cx="489.39" cy="91.35" r="4.2" fill="#2F6BFF" opacity="0.72"/><circle cx="588.75" cy="164.36" r="4.2" fill="#2F6BFF" opacity="0.72"/><circle cx="501.88" cy="455.55" r="4.2" fill="#2F6BFF" opacity="0.72"/><circle cx="399.02" cy="457.25" r="4.2" fill="#2F6BFF" opacity="0.72"/><circle cx="774.35" cy="56.05" r="4.2" fill="#C43C39" opacity="0.72"/><circle cx="507.95" cy="88.05" r="4.2" fill="#2F6BFF" opacity="0.72"/><circle cx="525.05" cy="93.10" r="4.2" fill="#2F6BFF" opacity="0.72"/><circle cx="756.69" cy="459.95" r="4.2" fill="#2F6BFF" opacity="0.72"/><circle cx="565.30" cy="87.23" r="4.2" fill="#2F6BFF" opacity="0.72"/><circle cx="561.02" cy="210.71" r="4.2" fill="#2F6BFF" opacity="0.72"/><circle cx="454.88" cy="457.98" r="4.2" fill="#2F6BFF" opacity="0.72"/><circle cx="623.18" cy="453.61" r="4.2" fill="#2F6BFF" opacity="0.72"/><line x1="82" y1="488" x2="868" y2="488" stroke="#1F2933"/><line x1="82" y1="56" x2="82" y2="488" stroke="#1F2933"/><text x="475.00" y="538.00" font-family="Inter, Arial, sans-serif" font-size="12" fill="#1F2933" text-anchor="middle" font-weight="400">schema_json_chars (log)</text><text x="20.00" y="272.00" font-family="Inter, Arial, sans-serif" font-size="12" fill="#1F2933" text-anchor="middle" font-weight="400">seconds (log)</text><rect x="735" y="48" width="12" height="12" fill="#2F6BFF"/><text x="753.00" y="59.00" font-family="Inter, Arial, sans-serif" font-size="11" fill="#1F2933" text-anchor="start" font-weight="400">completed</text><rect x="735" y="68" width="12" height="12" fill="#C43C39"/><text x="753.00" y="79.00" font-family="Inter, Arial, sans-serif" font-size="11" fill="#1F2933" text-anchor="start" font-weight="400">timeout</text></svg>
