<svg xmlns="http://www.w3.org/2000/svg" width="960" height="500" viewBox="0 0 960 500" role="img" aria-label="Phase time share for slowest completed schemas"><rect width="100%" height="100%" fill="#FFFFFF"/><text x="24.00" y="30.00" font-family="Inter, Arial, sans-serif" font-size="17" fill="#1F2933" text-anchor="start" font-weight="700">Phase time share for slowest completed schemas</text><rect x="805" y="48" width="12" height="12" fill="#2F6BFF"/><text x="822.00" y="59.00" font-family="Inter, Arial, sans-serif" font-size="11" fill="#1F2933" text-anchor="start" font-weight="400">compile</text><rect x="805" y="67" width="12" height="12" fill="#008C7D"/><text x="822.00" y="78.00" font-family="Inter, Arial, sans-serif" font-size="11" fill="#1F2933" text-anchor="start" font-weight="400">validation</text><rect x="805" y="86" width="12" height="12" fill="#D96C06"/><text x="822.00" y="97.00" font-family="Inter, Arial, sans-serif" font-size="11" fill="#1F2933" text-anchor="start" font-weight="400">mask</text><rect x="805" y="105" width="12" height="12" fill="#7557B8"/><text x="822.00" y="116.00" font-family="Inter, Arial, sans-serif" font-size="11" fill="#1F2933" text-anchor="start" font-weight="400">commit</text><text x="250.00" y="76.00" font-family="Inter, Arial, sans-serif" font-size="10" fill="#1F2933" text-anchor="end" font-weight="400">Github_medium---o9907.json</text><rect x="260.00" y="60" width="520.00" height="20" fill="#2F6BFF"/><text x="788.00" y="75.00" font-family="Inter, Arial, sans-serif" font-size="10" fill="#1F2933" text-anchor="start" font-weight="400">0.0172s</text><text x="250.00" y="110.00" font-family="Inter, Arial, sans-serif" font-size="10" fill="#1F2933" text-anchor="end" font-weight="400">Github_medium---o42527.json</text><rect x="260.00" y="94" width="223.87" height="20" fill="#2F6BFF"/><rect x="483.87" y="94" width="155.82" height="20" fill="#008C7D"/><rect x="639.69" y="94" width="138.06" height="20" fill="#D96C06"/><rect x="777.74" y="94" width="2.26" height="20" fill="#7557B8"/><text x="788.00" y="109.00" font-family="Inter, Arial, sans-serif" font-size="10" fill="#1F2933" text-anchor="start" font-weight="400">0.0393s</text><text x="250.00" y="144.00" font-family="Inter, Arial, sans-serif" font-size="10" fill="#1F2933" text-anchor="end" font-weight="400">Github_medium---o9913.json</text><rect x="260.00" y="128" width="520.00" height="20" fill="#2F6BFF"/><text x="788.00" y="143.00" font-family="Inter, Arial, sans-serif" font-size="10" fill="#1F2933" text-anchor="start" font-weight="400">0.0147s</text><text x="250.00" y="178.00" font-family="Inter, Arial, sans-serif" font-size="10" fill="#1F2933" text-anchor="end" font-weight="400">Github_medium---o9940.json</text><rect x="260.00" y="162" width="287.35" height="20" fill="#2F6BFF"/><rect x="547.35" y="162" width="119.30" height="20" fill="#008C7D"/><rect x="666.66" y="162" width="105.43" height="20" fill="#D96C06"/><rect x="772.08" y="162" width="7.92" height="20" fill="#7557B8"/><text x="788.00" y="177.00" font-family="Inter, Arial, sans-serif" font-size="10" fill="#1F2933" text-anchor="start" font-weight="400">0.0262s</text><text x="250.00" y="212.00" font-family="Inter, Arial, sans-serif" font-size="10" fill="#1F2933" text-anchor="end" font-weight="400">Github_medium---o82710.json</text><rect x="260.00" y="196" width="436.31" height="20" fill="#2F6BFF"/><rect x="696.31" y="196" width="43.79" height="20" fill="#008C7D"/><rect x="740.10" y="196" width="38.04" height="20" fill="#D96C06"/><rect x="778.14" y="196" width="1.86" height="20" fill="#7557B8"/><text x="788.00" y="211.00" font-family="Inter, Arial, sans-serif" font-size="10" fill="#1F2933" text-anchor="start" font-weight="400">0.0162s</text><text x="250.00" y="246.00" font-family="Inter, Arial, sans-serif" font-size="10" fill="#1F2933" text-anchor="end" font-weight="400">Github_medium---o82298.json</text><rect x="260.00" y="230" width="256.78" height="20" fill="#2F6BFF"/><rect x="516.78" y="230" width="138.28" height="20" fill="#008C7D"/><rect x="655.06" y="230" width="122.74" height="20" fill="#D96C06"/><rect x="777.81" y="230" width="2.19" height="20" fill="#7557B8"/><text x="788.00" y="245.00" font-family="Inter, Arial, sans-serif" font-size="10" fill="#1F2933" text-anchor="start" font-weight="400">0.0265s</text><text x="250.00" y="280.00" font-family="Inter, Arial, sans-serif" font-size="10" fill="#1F2933" text-anchor="end" font-weight="400">Github_medium---o82667.json</text><rect x="260.00" y="264" width="291.47" height="20" fill="#2F6BFF"/><rect x="551.47" y="264" width="115.44" height="20" fill="#008C7D"/><rect x="666.91" y="264" width="111.77" height="20" fill="#D96C06"/><rect x="778.69" y="264" width="1.31" height="20" fill="#7557B8"/><text x="788.00" y="279.00" font-family="Inter, Arial, sans-serif" font-size="10" fill="#1F2933" text-anchor="start" font-weight="400">0.0224s</text><text x="250.00" y="314.00" font-family="Inter, Arial, sans-serif" font-size="10" fill="#1F2933" text-anchor="end" font-weight="400">Github_medium---o82712.json</text><rect x="260.00" y="298" width="291.20" height="20" fill="#2F6BFF"/><rect x="551.20" y="298" width="115.60" height="20" fill="#008C7D"/><rect x="666.80" y="298" width="111.77" height="20" fill="#D96C06"/><rect x="778.56" y="298" width="1.44" height="20" fill="#7557B8"/><text x="788.00" y="313.00" font-family="Inter, Arial, sans-serif" font-size="10" fill="#1F2933" text-anchor="start" font-weight="400">0.0221s</text><text x="250.00" y="348.00" font-family="Inter, Arial, sans-serif" font-size="10" fill="#1F2933" text-anchor="end" font-weight="400">Github_medium---o82637.json</text><rect x="260.00" y="332" width="304.17" height="20" fill="#2F6BFF"/><rect x="564.17" y="332" width="108.93" height="20" fill="#008C7D"/><rect x="673.10" y="332" width="105.65" height="20" fill="#D96C06"/><rect x="778.76" y="332" width="1.24" height="20" fill="#7557B8"/><text x="788.00" y="347.00" font-family="Inter, Arial, sans-serif" font-size="10" fill="#1F2933" text-anchor="start" font-weight="400">0.0205s</text><text x="250.00" y="382.00" font-family="Inter, Arial, sans-serif" font-size="10" fill="#1F2933" text-anchor="end" font-weight="400">Github_medium---o82646.json</text><rect x="260.00" y="366" width="265.47" height="20" fill="#2F6BFF"/><rect x="525.47" y="366" width="128.78" height="20" fill="#008C7D"/><rect x="654.25" y="366" width="124.11" height="20" fill="#D96C06"/><rect x="778.36" y="366" width="1.64" height="20" fill="#7557B8"/><text x="788.00" y="381.00" font-family="Inter, Arial, sans-serif" font-size="10" fill="#1F2933" text-anchor="start" font-weight="400">0.0231s</text><text x="250.00" y="416.00" font-family="Inter, Arial, sans-serif" font-size="10" fill="#1F2933" text-anchor="end" font-weight="400">Github_medium---o9769.json</text><rect x="260.00" y="400" width="211.94" height="20" fill="#2F6BFF"/><rect x="471.94" y="400" width="157.60" height="20" fill="#008C7D"/><rect x="629.54" y="400" width="142.94" height="20" fill="#D96C06"/><rect x="772.48" y="400" width="7.52" height="20" fill="#7557B8"/><text x="788.00" y="415.00" font-family="Inter, Arial, sans-serif" font-size="10" fill="#1F2933" text-anchor="start" font-weight="400">0.0281s</text><text x="250.00" y="450.00" font-family="Inter, Arial, sans-serif" font-size="10" fill="#1F2933" text-anchor="end" font-weight="400">Github_medium---o82635.json</text><rect x="260.00" y="434" width="263.97" height="20" fill="#2F6BFF"/><rect x="523.97" y="434" width="139.20" height="20" fill="#008C7D"/><rect x="663.17" y="434" width="115.51" height="20" fill="#D96C06"/><rect x="778.68" y="434" width="1.32" height="20" fill="#7557B8"/><text x="788.00" y="449.00" font-family="Inter, Arial, sans-serif" font-size="10" fill="#1F2933" text-anchor="start" font-weight="400">0.021s</text></svg>
