<svg xmlns="http://www.w3.org/2000/svg" width="860" height="520" viewBox="0 0 860 520" role="img" aria-label="Schema size ECDF: completed vs timeout"><rect width="100%" height="100%" fill="#FFFFFF"/><text x="24.00" y="30.00" font-family="Inter, Arial, sans-serif" font-size="17" fill="#1F2933" text-anchor="start" font-weight="700">Schema size ECDF: completed vs timeout</text><line x1="78.00" y1="56" x2="78.00" y2="452" stroke="#D9DEE5"/><line x1="78" y1="56.00" x2="826" y2="56.00" stroke="#D9DEE5"/><line x1="227.60" y1="56" x2="227.60" y2="452" stroke="#D9DEE5"/><line x1="78" y1="135.20" x2="826" y2="135.20" stroke="#D9DEE5"/><line x1="377.20" y1="56" x2="377.20" y2="452" stroke="#D9DEE5"/><line x1="78" y1="214.40" x2="826" y2="214.40" stroke="#D9DEE5"/><line x1="526.80" y1="56" x2="526.80" y2="452" stroke="#D9DEE5"/><line x1="78" y1="293.60" x2="826" y2="293.60" stroke="#D9DEE5"/><line x1="676.40" y1="56" x2="676.40" y2="452" stroke="#D9DEE5"/><line x1="78" y1="372.80" x2="826" y2="372.80" stroke="#D9DEE5"/><line x1="826.00" y1="56" x2="826.00" y2="452" stroke="#D9DEE5"/><line x1="78" y1="452.00" x2="826" y2="452.00" stroke="#D9DEE5"/><polyline points="78.00,451.78 78.00,451.57 78.00,451.35 125.10,451.13 234.94,450.91 244.25,450.70 255.55,450.48 265.89,450.26 267.68,450.04 272.33,449.83 273.46,449.61 274.58,449.39 275.97,449.18 278.98,448.96 280.85,448.74 282.70,448.52 283.48,448.31 286.31,448.09 288.08,447.87 288.58,447.66 288.58,447.44 289.82,447.22 290.06,447.00 290.31,446.79 290.80,446.57 290.80,446.35 290.80,446.13 291.29,445.92 291.29,445.70 291.53,445.48 292.26,445.27 292.50,445.05 292.50,444.83 292.74,444.61 293.23,444.40 293.47,444.18 293.47,443.96 294.42,443.75 295.13,443.53 295.60,443.31 296.54,443.09 296.54,442.88 297.01,442.66 297.24,442.44 297.94,442.22 297.94,442.01 298.17,441.79 298.40,441.57 299.31,441.36 299.54,441.14 299.54,440.92 299.77,440.70 299.77,440.49 300.00,440.27 300.00,440.05 300.00,439.84 300.22,439.62 300.45,439.40 301.58,439.18 301.58,438.97 301.58,438.75 301.58,438.53 301.80,438.31 302.02,438.10 302.25,437.88 302.47,437.66 302.69,437.45 302.69,437.23 302.69,437.01 302.69,436.79 302.92,436.58 303.14,436.36 303.14,436.14 303.14,435.93 303.14,435.71 303.14,435.49 303.36,435.27 304.68,435.06 304.89,434.84 305.33,434.62 305.55,434.40 305.76,434.19 306.41,433.97 306.41,433.75 306.63,433.54 306.63,433.32 306.63,433.10 307.06,432.88 307.06,432.67 307.49,432.45 307.70,432.23 307.91,432.02 308.55,431.80 308.76,431.58 308.76,431.36 308.97,431.15 309.60,430.93 309.81,430.71 310.02,430.49 310.02,430.28 310.44,430.06 310.65,429.84 310.86,429.63 311.27,429.41 311.27,429.19 311.48,428.97 311.48,428.76 311.48,428.54 311.68,428.32 311.89,428.11 312.10,427.89 312.71,427.67 312.92,427.45 313.12,427.24 313.12,427.02 313.53,426.80 313.53,426.58 313.73,426.37 313.93,426.15 313.93,425.93 314.54,425.72 314.74,425.50 314.74,425.28 315.14,425.06 315.14,424.85 315.14,424.63 315.34,424.41 315.34,424.20 315.54,423.98 315.54,423.76 315.74,423.54 315.74,423.33 315.74,423.11 315.74,422.89 315.94,422.67 316.14,422.46 316.34,422.24 316.34,422.02 316.34,421.81 316.54,421.59 316.54,421.37 316.74,421.15 316.94,420.94 317.13,420.72 317.13,420.50 317.33,420.29 317.33,420.07 317.53,419.85 317.72,419.63 317.72,419.42 317.72,419.20 318.70,418.98 319.09,418.76 319.09,418.55 319.29,418.33 319.67,418.11 319.87,417.90 320.06,417.68 320.06,417.46 320.06,417.24 320.25,417.03 320.44,416.81 320.63,416.59 320.83,416.38 320.83,416.16 320.83,415.94 320.83,415.72 321.02,415.51 321.02,415.29 321.21,415.07 321.59,414.85 321.97,414.64 322.16,414.42 322.16,414.20 322.54,413.99 322.54,413.77 322.54,413.55 322.54,413.33 322.73,413.12 322.91,412.90 322.91,412.68 322.91,412.47 323.10,412.25 323.29,412.03 324.78,411.81 324.78,411.60 324.97,411.38 324.97,411.16 325.52,410.94 325.52,410.73 325.71,410.51 325.71,410.29 326.62,410.08 326.80,409.86 326.99,409.64 326.99,409.42 327.17,409.21 327.35,408.99 327.53,408.77 327.53,408.56 327.53,408.34 327.53,408.12 327.53,407.90 327.71,407.69 327.89,407.47 328.07,407.25 328.07,407.03 328.43,406.82 328.61,406.60 328.61,406.38 328.61,406.17 328.79,405.95 328.79,405.73 328.79,405.51 328.97,405.30 328.97,405.08 329.33,404.86 329.51,404.65 329.69,404.43 329.69,404.21 329.69,403.99 330.04,403.78 330.04,403.56 330.75,403.34 331.10,403.12 331.10,402.91 331.46,402.69 331.46,402.47 331.63,402.26 331.63,402.04 331.81,401.82 331.81,401.60 331.81,401.39 331.98,401.17 332.16,400.95 332.33,400.74 332.33,400.52 332.68,400.30 332.68,400.08 332.68,399.87 332.68,399.65 332.68,399.43 332.85,399.21 332.85,399.00 332.85,398.78 332.85,398.56 333.02,398.35 333.02,398.13 333.20,397.91 333.20,397.69 333.20,397.48 333.20,397.26 333.20,397.04 333.54,396.83 333.72,396.61 333.89,396.39 334.06,396.17 334.23,395.96 334.40,395.74 334.57,395.52 334.92,395.30 335.09,395.09 335.26,394.87 335.26,394.65 335.43,394.44 335.43,394.22 335.43,394.00 335.60,393.78 335.77,393.57 335.94,393.35 336.10,393.13 336.61,392.91 336.61,392.70 336.61,392.48 336.61,392.26 336.61,392.05 336.78,391.83 337.28,391.61 337.28,391.39 337.45,391.18 337.62,390.96 337.78,390.74 337.95,390.53 337.95,390.31 337.95,390.09 338.28,389.87 338.28,389.66 338.28,389.44 338.78,389.22 338.94,389.00 338.94,388.79 339.11,388.57 339.11,388.35 339.11,388.14 339.11,387.92 339.60,387.70 339.60,387.48 339.77,387.27 339.77,387.05 339.77,386.83 339.77,386.62 339.77,386.40 339.93,386.18 339.93,385.96 339.93,385.75 339.93,385.53 340.26,385.31 340.26,385.09 340.42,384.88 340.42,384.66 340.58,384.44 340.74,384.23 340.74,384.01 340.91,383.79 341.23,383.57 341.72,383.36 341.88,383.14 341.88,382.92 341.88,382.71 342.04,382.49 342.04,382.27 342.20,382.05 342.36,381.84 342.36,381.62 342.52,381.40 342.52,381.18 342.68,380.97 343.00,380.75 343.00,380.53 343.00,380.32 343.16,380.10 343.16,379.88 343.16,379.66 343.32,379.45 343.80,379.23 343.80,379.01 343.80,378.80 344.11,378.58 344.11,378.36 344.27,378.14 344.43,377.93 344.74,377.71 344.90,377.49 344.90,377.27 344.90,377.06 345.22,376.84 345.37,376.62 345.37,376.41 345.37,376.19 345.53,375.97 345.53,375.75 345.53,375.54 345.53,375.32 345.68,375.10 345.68,374.89 345.84,374.67 345.84,374.45 346.15,374.23 346.15,374.02 346.15,373.80 346.46,373.58 346.93,373.36 346.93,373.15 346.93,372.93 347.08,372.71 347.24,372.50 347.39,372.28 347.70,372.06 348.01,371.84 348.01,371.63 348.31,371.41 348.46,371.19 348.92,370.98 349.07,370.76 349.07,370.54 349.22,370.32 349.22,370.11 349.22,369.89 349.38,369.67 349.68,369.45 349.68,369.24 349.83,369.02 349.83,368.80 350.13,368.59 350.43,368.37 350.43,368.15 350.43,367.93 350.43,367.72 350.58,367.50 350.58,367.28 350.88,367.07 350.88,366.85 350.88,366.63 351.03,366.41 351.18,366.20 351.33,365.98 351.33,365.76 351.78,365.54 351.78,365.33 351.93,365.11 351.93,364.89 352.07,364.68 352.07,364.46 352.07,364.24 352.37,364.02 352.67,363.81 352.67,363.59 352.81,363.37 352.81,363.16 352.81,362.94 352.96,362.72 353.25,362.50 353.25,362.29 353.40,362.07 353.40,361.85 353.40,361.63 353.55,361.42 353.55,361.20 353.69,360.98 353.69,360.77 353.84,360.55 353.84,360.33 353.99,360.11 354.13,359.90 354.13,359.68 354.42,359.46 354.57,359.25 354.57,359.03 354.86,358.81 355.00,358.59 355.00,358.38 355.15,358.16 355.15,357.94 355.29,357.72 355.29,357.51 355.29,357.29 355.44,357.07 355.44,356.86 355.44,356.64 355.44,356.42 355.58,356.20 355.72,355.99 355.87,355.77 355.87,355.55 355.87,355.34 356.01,355.12 356.01,354.90 356.01,354.68 356.15,354.47 356.15,354.25 356.30,354.03 356.44,353.81 356.73,353.60 356.73,353.38 356.87,353.16 357.15,352.95 357.30,352.73 357.30,352.51 357.44,352.29 357.58,352.08 357.58,351.86 357.72,351.64 357.86,351.43 357.86,351.21 358.14,350.99 358.14,350.77 358.29,350.56 358.29,350.34 358.43,350.12 358.43,349.90 358.43,349.69 358.57,349.47 358.57,349.25 358.57,349.04 358.57,348.82 358.71,348.60 358.85,348.38 358.85,348.17 358.99,347.95 359.55,347.73 359.55,347.52 359.55,347.30 359.55,347.08 359.69,346.86 359.69,346.65 359.96,346.43 359.96,346.21 359.96,345.99 360.10,345.78 360.38,345.56 360.79,345.34 361.07,345.13 361.21,344.91 361.21,344.69 361.35,344.47 361.35,344.26 361.35,344.04 361.48,343.82 361.48,343.61 361.48,343.39 361.62,343.17 361.62,342.95 361.62,342.74 361.89,342.52 361.89,342.30 362.17,342.08 362.30,341.87 362.30,341.65 362.58,341.43 362.58,341.22 362.58,341.00 362.58,340.78 362.71,340.56 362.71,340.35 362.85,340.13 362.98,339.91 362.98,339.70 363.12,339.48 363.39,339.26 363.39,339.04 363.52,338.83 363.93,338.61 364.06,338.39 364.20,338.17 364.46,337.96 364.60,337.74 364.73,337.52 364.73,337.31 364.73,337.09 364.87,336.87 365.13,336.65 365.27,336.44 365.40,336.22 365.66,336.00 365.80,335.78 365.80,335.57 365.93,335.35 365.93,335.13 366.19,334.92 366.19,334.70 366.46,334.48 366.59,334.26 366.72,334.05 366.98,333.83 366.98,333.61 366.98,333.40 366.98,333.18 366.98,332.96 367.11,332.74 367.11,332.53 367.11,332.31 367.24,332.09 367.24,331.87 367.24,331.66 367.37,331.44 367.77,331.22 367.77,331.01 367.90,330.79 368.03,330.57 368.29,330.35 368.42,330.14 368.42,329.92 368.55,329.70 368.55,329.49 368.55,329.27 368.55,329.05 368.68,328.83 368.68,328.62 368.80,328.40 368.93,328.18 368.93,327.96 369.32,327.75 369.45,327.53 369.83,327.31 369.96,327.10 370.09,326.88 370.09,326.66 370.09,326.44 370.09,326.23 370.35,326.01 370.47,325.79 370.47,325.58 370.47,325.36 370.60,325.14 370.73,324.92 370.85,324.71 370.98,324.49 370.98,324.27 371.24,324.05 371.24,323.84 371.36,323.62 371.36,323.40 371.61,323.19 371.99,322.97 371.99,322.75 372.50,322.53 372.50,322.32 372.62,322.10 372.75,321.88 372.75,321.67 372.75,321.45 372.75,321.23 372.87,321.01 372.87,320.80 372.87,320.58 373.00,320.36 373.37,320.14 373.49,319.93 373.62,319.71 373.62,319.49 373.74,319.28 373.99,319.06 373.99,318.84 374.24,318.62 374.48,318.41 374.48,318.19 374.61,317.97 374.61,317.76 374.73,317.54 374.85,317.32 374.98,317.10 375.10,316.89 375.22,316.67 375.34,316.45 375.34,316.23 375.71,316.02 375.83,315.80 375.83,315.58 375.96,315.37 376.08,315.15 376.20,314.93 376.20,314.71 376.20,314.50 376.32,314.28 376.32,314.06 376.44,313.85 376.44,313.63 376.56,313.41 376.68,313.19 376.93,312.98 376.93,312.76 377.05,312.54 377.17,312.32 377.29,312.11 377.41,311.89 377.41,311.67 377.53,311.46 377.65,311.24 377.77,311.02 377.77,310.80 377.77,310.59 378.01,310.37 378.13,310.15 378.96,309.94 379.08,309.72 379.20,309.50 379.91,309.28 379.91,309.07 380.15,308.85 380.15,308.63 380.50,308.41 380.50,308.20 380.62,307.98 380.97,307.76 381.20,307.55 381.20,307.33 381.44,307.11 381.44,306.89 381.55,306.68 381.67,306.46 381.78,306.24 381.90,306.03 382.02,305.81 382.02,305.59 382.13,305.37 382.13,305.16 382.48,304.94 382.59,304.72 382.59,304.50 382.59,304.29 382.94,304.07 382.94,303.85 383.06,303.64 383.17,303.42 383.29,303.20 383.40,302.98 383.40,302.77 383.63,302.55 383.74,302.33 383.74,302.12 383.86,301.90 383.97,301.68 384.09,301.46 384.43,301.25 384.43,301.03 384.54,300.81 384.54,300.59 384.54,300.38 384.65,300.16 384.77,299.94 384.77,299.73 384.77,299.51 384.88,299.29 384.88,299.07 385.11,298.86 385.22,298.64 385.33,298.42 385.45,298.21 385.56,297.99 385.56,297.77 385.67,297.55 385.78,297.34 385.90,297.12 386.01,296.90 386.01,296.68 386.01,296.47 386.01,296.25 386.01,296.03 386.01,295.82 386.12,295.60 386.12,295.38 386.34,295.16 386.46,294.95 386.57,294.73 386.79,294.51 386.79,294.30 386.79,294.08 386.90,293.86 386.90,293.64 386.90,293.43 386.90,293.21 386.90,292.99 387.46,292.77 387.57,292.56 387.68,292.34 387.79,292.12 388.01,291.91 388.23,291.69 388.45,291.47 388.56,291.25 388.67,291.04 388.78,290.82 388.78,290.60 389.11,290.39 389.11,290.17 389.55,289.95 389.55,289.73 389.55,289.52 389.66,289.30 389.87,289.08 389.98,288.86 390.09,288.65 390.09,288.43 390.42,288.21 391.06,288.00 391.06,287.78 391.28,287.56 391.28,287.34 391.39,287.13 391.49,286.91 391.60,286.69 391.92,286.48 392.03,286.26 392.14,286.04 392.46,285.82 392.46,285.61 392.56,285.39 392.88,285.17 392.88,284.95 392.88,284.74 392.99,284.52 392.99,284.30 393.30,284.09 393.30,283.87 393.41,283.65 393.41,283.43 393.41,283.22 393.52,283.00 393.62,282.78 393.62,282.57 393.94,282.35 394.04,282.13 394.04,281.91 394.36,281.70 394.46,281.48 394.46,281.26 394.46,281.04 394.46,280.83 394.57,280.61 395.30,280.39 395.40,280.18 395.50,279.96 395.71,279.74 395.71,279.52 395.81,279.31 396.12,279.09 396.43,278.87 396.54,278.65 396.54,278.44 396.54,278.22 396.74,278.00 396.85,277.79 396.85,277.57 396.95,277.35 397.26,277.13 397.36,276.92 397.36,276.70 397.36,276.48 397.66,276.27 397.77,276.05 397.77,275.83 397.77,275.61 397.77,275.40 397.87,275.18 397.87,274.96 397.87,274.74 397.97,274.53 398.07,274.31 398.07,274.09 398.07,273.88 398.17,273.66 398.27,273.44 398.48,273.22 398.58,273.01 398.68,272.79 398.68,272.57 398.78,272.36 398.78,272.14 398.88,271.92 398.98,271.70 398.98,271.49 399.29,271.27 399.29,271.05 399.39,270.83 399.49,270.62 399.49,270.40 399.49,270.18 399.79,269.97 400.09,269.75 400.09,269.53 400.19,269.31 400.19,269.10 400.59,268.88 400.59,268.66 400.59,268.45 400.59,268.23 400.88,268.01 400.98,267.79 400.98,267.58 400.98,267.36 401.28,267.14 401.28,266.92 401.28,266.71 401.38,266.49 401.38,266.27 401.68,266.06 401.78,265.84 401.78,265.62 401.78,265.40 401.97,265.19 401.97,264.97 401.97,264.75 402.07,264.54 402.07,264.32 402.17,264.10 402.27,263.88 402.37,263.67 402.46,263.45 402.46,263.23 402.56,263.01 402.56,262.80 402.66,262.58 402.76,262.36 402.76,262.15 402.86,261.93 402.95,261.71 403.25,261.49 403.25,261.28 403.34,261.06 403.54,260.84 403.54,260.63 403.63,260.41 403.63,260.19 403.63,259.97 403.73,259.76 403.73,259.54 403.73,259.32 403.83,259.10 403.83,258.89 403.83,258.67 404.12,258.45 404.12,258.24 404.41,258.02 404.60,257.80 404.60,257.58 404.89,257.37 404.89,257.15 405.27,256.93 405.37,256.72 405.56,256.50 405.85,256.28 405.85,256.06 406.04,255.85 406.32,255.63 406.42,255.41 406.61,255.19 406.80,254.98 406.80,254.76 406.80,254.54 407.08,254.33 407.18,254.11 407.36,253.89 407.46,253.67 407.55,253.46 407.55,253.24 407.74,253.02 407.83,252.81 408.02,252.59 408.02,252.37 408.12,252.15 408.21,251.94 408.21,251.72 408.30,251.50 408.30,251.28 408.49,251.07 408.58,250.85 408.68,250.63 408.77,250.42 408.86,250.20 408.96,249.98 408.96,249.76 409.05,249.55 409.23,249.33 409.42,249.11 409.70,248.90 410.07,248.68 410.25,248.46 410.25,248.24 410.25,248.03 410.43,247.81 410.43,247.59 410.53,247.37 410.62,247.16 410.89,246.94 410.98,246.72 411.07,246.51 411.17,246.29 411.17,246.07 411.26,245.85 411.35,245.64 411.35,245.42 411.53,245.20 411.53,244.99 411.53,244.77 411.80,244.55 411.80,244.33 412.17,244.12 412.17,243.90 412.26,243.68 412.26,243.46 412.35,243.25 412.44,243.03 412.53,242.81 412.53,242.60 412.62,242.38 412.80,242.16 412.80,241.94 413.07,241.73 413.07,241.51 413.16,241.29 413.34,241.08 413.34,240.86 413.61,240.64 413.61,240.42 413.70,240.21 413.70,239.99 413.79,239.77 413.87,239.55 414.14,239.34 414.23,239.12 414.41,238.90 414.41,238.69 414.59,238.47 414.85,238.25 415.03,238.03 415.21,237.82 415.29,237.60 415.38,237.38 415.47,237.17 415.91,236.95 416.00,236.73 416.00,236.51 416.00,236.30 416.09,236.08 416.17,235.86 416.26,235.64 416.44,235.43 416.52,235.21 416.61,234.99 416.79,234.78 416.79,234.56 416.87,234.34 416.87,234.12 417.05,233.91 417.05,233.69 417.05,233.47 417.39,233.26 417.57,233.04 417.65,232.82 417.65,232.60 417.74,232.39 417.74,232.17 417.83,231.95 417.83,231.73 417.91,231.52 417.91,231.30 418.00,231.08 418.26,230.87 418.26,230.65 418.35,230.43 418.52,230.21 418.52,230.00 418.78,229.78 418.78,229.56 418.86,229.35 418.86,229.13 418.86,228.91 418.86,228.69 419.12,228.48 419.37,228.26 419.46,228.04 419.54,227.82 419.63,227.61 419.63,227.39 419.71,227.17 419.89,226.96 419.97,226.74 419.97,226.52 419.97,226.30 420.05,226.09 420.05,225.87 420.14,225.65 420.14,225.43 420.14,225.22 420.22,225.00 420.31,224.78 420.31,224.57 420.39,224.35 420.48,224.13 420.56,223.91 420.73,223.70 420.90,223.48 420.99,223.26 420.99,223.05 421.07,222.83 421.07,222.61 421.15,222.39 421.24,222.18 421.32,221.96 421.41,221.74 421.41,221.52 421.57,221.31 421.66,221.09 421.74,220.87 421.82,220.66 421.82,220.44 421.99,220.22 422.08,220.00 422.08,219.79 422.24,219.57 422.33,219.35 422.41,219.14 422.49,218.92 422.58,218.70 422.66,218.48 422.74,218.27 422.74,218.05 422.82,217.83 422.99,217.61 422.99,217.40 423.07,217.18 423.16,216.96 423.16,216.75 423.40,216.53 423.57,216.31 423.57,216.09 423.82,215.88 423.82,215.66 423.98,215.44 424.06,215.23 424.06,215.01 424.06,214.79 424.23,214.57 424.23,214.36 424.31,214.14 424.39,213.92 424.39,213.70 424.39,213.49 424.39,213.27 424.55,213.05 424.72,212.84 424.72,212.62 424.80,212.40 425.04,212.18 425.13,211.97 425.13,211.75 425.13,211.53 425.21,211.32 425.21,211.10 425.29,210.88 425.37,210.66 425.45,210.45 425.53,210.23 425.53,210.01 425.61,209.79 425.69,209.58 425.69,209.36 426.34,209.14 426.50,208.93 426.58,208.71 426.66,208.49 426.66,208.27 426.74,208.06 426.74,207.84 426.74,207.62 426.82,207.41 426.82,207.19 426.90,206.97 426.98,206.75 427.06,206.54 427.30,206.32 427.30,206.10 427.38,205.88 427.54,205.67 427.70,205.45 427.86,205.23 427.86,205.02 427.94,204.80 427.94,204.58 428.10,204.36 428.10,204.15 428.26,203.93 428.26,203.71 428.50,203.50 428.74,203.28 428.89,203.06 428.89,202.84 428.97,202.63 429.05,202.41 429.05,202.19 429.13,201.97 429.13,201.76 429.13,201.54 429.21,201.32 429.21,201.11 429.21,200.89 429.29,200.67 429.29,200.45 429.29,200.24 429.37,200.02 429.37,199.80 429.37,199.59 429.37,199.37 429.45,199.15 429.45,198.93 429.52,198.72 429.84,198.50 430.15,198.28 430.15,198.06 430.31,197.85 430.38,197.63 430.62,197.41 430.77,197.20 430.85,196.98 430.93,196.76 431.01,196.54 431.01,196.33 431.01,196.11 431.08,195.89 431.08,195.68 431.16,195.46 431.39,195.24 431.47,195.02 431.70,194.81 431.86,194.59 431.93,194.37 431.93,194.15 432.01,193.94 432.17,193.72 432.17,193.50 432.24,193.29 432.24,193.07 432.24,192.85 432.24,192.63 432.32,192.42 432.32,192.20 432.47,191.98 432.55,191.77 432.63,191.55 432.78,191.33 432.78,191.11 432.85,190.90 432.85,190.68 432.85,190.46 433.08,190.24 433.16,190.03 433.16,189.81 433.16,189.59 433.16,189.38 433.39,189.16 433.39,188.94 433.46,188.72 433.46,188.51 433.46,188.29 433.62,188.07 433.62,187.86 433.62,187.64 433.69,187.42 433.69,187.20 433.77,186.99 433.84,186.77 434.00,186.55 434.15,186.33 434.45,186.12 434.45,185.90 434.45,185.68 434.52,185.47 434.52,185.25 434.60,185.03 434.60,184.81 434.68,184.60 434.68,184.38 434.75,184.16 434.83,183.95 434.83,183.73 435.05,183.51 435.13,183.29 435.20,183.08 435.28,182.86 435.28,182.64 435.28,182.42 435.35,182.21 435.43,181.99 435.50,181.77 435.58,181.56 435.65,181.34 435.72,181.12 435.72,180.90 435.72,180.69 435.95,180.47 436.39,180.25 436.39,180.04 436.84,179.82 437.06,179.60 437.14,179.38 437.28,179.17 437.43,178.95 437.50,178.73 437.58,178.51 438.02,178.30 438.02,178.08 438.09,177.86 438.16,177.65 438.24,177.43 438.31,177.21 438.31,176.99 438.31,176.78 438.46,176.56 438.46,176.34 438.53,176.13 438.67,175.91 438.75,175.69 438.75,175.47 438.82,175.26 438.82,175.04 439.04,174.82 439.33,174.60 439.47,174.39 439.62,174.17 439.62,173.95 439.91,173.74 439.98,173.52 439.98,173.30 440.48,173.08 440.55,172.87 440.70,172.65 440.77,172.43 440.84,172.22 440.84,172.00 440.91,171.78 441.34,171.56 441.55,171.35 441.63,171.13 441.63,170.91 441.77,170.69 441.91,170.48 441.98,170.26 442.05,170.04 442.12,169.83 442.19,169.61 442.19,169.39 442.26,169.17 442.34,168.96 442.34,168.74 442.55,168.52 442.76,168.30 442.90,168.09 442.90,167.87 443.18,167.65 443.25,167.44 443.53,167.22 443.53,167.00 443.60,166.78 443.60,166.57 443.81,166.35 443.95,166.13 443.95,165.92 444.02,165.70 444.09,165.48 444.16,165.26 444.16,165.05 444.23,164.83 444.30,164.61 444.30,164.39 444.51,164.18 444.58,163.96 444.65,163.74 444.65,163.53 444.85,163.31 444.85,163.09 444.92,162.87 444.92,162.66 444.99,162.44 444.99,162.22 445.13,162.01 445.27,161.79 445.34,161.57 445.34,161.35 445.41,161.14 445.89,160.92 445.96,160.70 446.09,160.48 446.16,160.27 446.16,160.05 446.23,159.83 446.30,159.62 446.37,159.40 446.57,159.18 446.64,158.96 446.64,158.75 446.64,158.53 446.71,158.31 446.78,158.10 446.78,157.88 447.05,157.66 447.12,157.44 447.12,157.23 447.19,157.01 447.66,156.79 447.73,156.57 447.80,156.36 447.86,156.14 448.07,155.92 448.13,155.71 448.13,155.49 448.20,155.27 448.34,155.05 448.40,154.84 448.40,154.62 448.47,154.40 448.47,154.19 448.54,153.97 448.61,153.75 448.67,153.53 448.74,153.32 448.81,153.10 448.87,152.88 449.01,152.66 449.01,152.45 449.07,152.23 449.34,152.01 449.54,151.80 449.54,151.58 449.61,151.36 449.68,151.14 449.74,150.93 449.81,150.71 449.88,150.49 449.88,150.28 450.07,150.06 450.14,149.84 450.14,149.62 450.27,149.41 450.60,149.19 450.67,148.97 450.74,148.75 450.74,148.54 450.74,148.32 450.74,148.10 451.00,147.89 451.07,147.67 451.33,147.45 451.33,147.23 451.39,147.02 451.53,146.80 451.59,146.58 451.79,146.37 451.92,146.15 451.92,145.93 452.24,145.71 452.24,145.50 452.31,145.28 452.38,145.06 452.51,144.84 452.64,144.63 452.70,144.41 452.70,144.19 452.77,143.98 452.83,143.76 452.90,143.54 452.90,143.32 452.90,143.11 453.02,142.89 453.09,142.67 453.15,142.46 453.22,142.24 453.35,142.02 453.35,141.80 453.41,141.59 453.54,141.37 453.67,141.15 453.80,140.93 453.93,140.72 454.31,140.50 454.51,140.28 454.76,140.07 454.89,139.85 454.89,139.63 454.95,139.41 454.95,139.20 455.02,138.98 455.02,138.76 455.21,138.55 455.27,138.33 455.27,138.11 455.27,137.89 455.40,137.68 455.46,137.46 455.59,137.24 455.59,137.02 455.65,136.81 455.65,136.59 455.78,136.37 455.97,136.16 456.03,135.94 456.03,135.72 456.09,135.50 456.47,135.29 456.47,135.07 456.54,134.85 456.72,134.64 456.85,134.42 456.98,134.20 456.98,133.98 456.98,133.77 456.98,133.55 456.98,133.33 457.16,133.11 457.29,132.90 457.41,132.68 457.79,132.46 457.79,132.25 457.79,132.03 458.04,131.81 458.10,131.59 458.16,131.38 458.16,131.16 458.22,130.94 458.29,130.73 458.60,130.51 458.90,130.29 459.09,130.07 459.21,129.86 459.34,129.64 459.46,129.42 459.52,129.20 459.77,128.99 459.77,128.77 459.77,128.55 459.95,128.34 460.01,128.12 460.32,127.90 460.62,127.68 460.62,127.47 460.68,127.25 460.80,127.03 460.80,126.82 460.86,126.60 460.99,126.38 461.17,126.16 461.23,125.95 461.23,125.73 461.23,125.51 461.29,125.29 461.47,125.08 461.53,124.86 461.89,124.64 462.01,124.43 462.25,124.21 462.49,123.99 462.61,123.77 462.85,123.56 462.91,123.34 462.97,123.12 463.21,122.91 463.45,122.69 463.45,122.47 463.69,122.25 463.86,122.04 463.92,121.82 463.92,121.60 463.98,121.38 464.10,121.17 464.10,120.95 464.16,120.73 465.04,120.52 465.16,120.30 465.34,120.08 465.45,119.86 465.86,119.65 465.86,119.43 465.92,119.21 466.21,119.00 466.21,118.78 466.33,118.56 466.39,118.34 466.39,118.13 466.44,117.91 466.73,117.69 466.85,117.47 467.37,117.26 467.83,117.04 468.00,116.82 468.00,116.61 468.06,116.39 468.06,116.17 468.12,115.95 468.17,115.74 468.40,115.52 468.63,115.30 468.69,115.09 468.69,114.87 469.08,114.65 469.14,114.43 469.25,114.22 469.31,114.00 469.54,113.78 469.88,113.56 469.93,113.35 470.16,113.13 470.33,112.91 470.44,112.70 470.83,112.48 470.94,112.26 471.17,112.04 471.22,111.83 471.34,111.61 471.56,111.39 471.61,111.17 471.61,110.96 471.67,110.74 472.17,110.52 472.39,110.31 472.72,110.09 472.78,109.87 472.83,109.65 473.05,109.44 473.49,109.22 473.54,109.00 473.60,108.79 473.76,108.57 473.93,108.35 473.98,108.13 474.53,107.92 474.69,107.70 474.69,107.48 474.85,107.26 475.45,107.05 475.50,106.83 475.61,106.61 475.77,106.40 475.82,106.18 476.14,105.96 476.20,105.74 476.31,105.53 476.41,105.31 476.57,105.09 476.79,104.88 476.95,104.66 477.26,104.44 477.64,104.22 477.69,104.01 478.11,103.79 478.16,103.57 478.22,103.35 478.22,103.14 478.32,102.92 478.53,102.70 479.00,102.49 479.27,102.27 479.42,102.05 479.42,101.83 479.53,101.62 479.84,101.40 479.89,101.18 480.00,100.97 480.15,100.75 480.31,100.53 480.36,100.31 480.41,100.10 480.51,99.88 480.93,99.66 481.08,99.44 481.24,99.23 481.39,99.01 481.44,98.79 481.54,98.58 481.59,98.36 481.75,98.14 482.11,97.92 482.16,97.71 482.31,97.49 482.31,97.27 482.77,97.06 482.97,96.84 483.02,96.62 483.98,96.40 484.03,96.19 484.18,95.97 484.98,95.75 485.33,95.53 485.97,95.32 486.22,95.10 486.27,94.88 486.81,94.67 486.86,94.45 486.96,94.23 487.35,94.01 487.55,93.80 487.64,93.58 487.84,93.36 488.13,93.15 488.18,92.93 488.32,92.71 488.32,92.49 488.37,92.28 488.66,92.06 488.66,91.84 488.76,91.62 489.63,91.41 490.01,91.19 490.15,90.97 490.15,90.76 490.63,90.54 490.72,90.32 490.91,90.10 491.39,89.89 491.67,89.67 492.24,89.45 492.24,89.24 492.33,89.02 492.57,88.80 493.08,88.58 493.41,88.37 493.59,88.15 493.82,87.93 493.96,87.71 494.01,87.50 494.33,87.28 494.75,87.06 494.79,86.85 495.21,86.63 495.34,86.41 496.07,86.19 496.07,85.98 496.12,85.76 496.17,85.54 496.26,85.33 496.39,85.11 496.76,84.89 497.03,84.67 497.48,84.46 497.52,84.24 497.52,84.02 497.97,83.80 498.15,83.59 498.24,83.37 499.17,83.15 499.79,82.94 499.93,82.72 500.19,82.50 500.54,82.28 501.20,82.07 501.46,81.85 501.76,81.63 501.90,81.42 502.72,81.20 502.98,80.98 503.28,80.76 503.45,80.55 503.53,80.33 503.87,80.11 504.39,79.89 504.85,79.68 504.94,79.46 505.19,79.24 505.36,79.03 506.12,78.81 506.83,78.59 507.20,78.37 507.33,78.16 508.03,77.94 508.81,77.72 509.34,77.51 509.63,77.29 510.04,77.07 511.09,76.85 511.13,76.64 511.33,76.42 511.49,76.20 512.53,75.98 512.96,75.77 513.52,75.55 514.18,75.33 516.67,75.12 516.71,74.90 516.94,74.68 518.39,74.46 519.26,74.25 520.16,74.03 520.72,73.81 521.46,73.60 521.57,73.38 521.79,73.16 521.86,72.94 523.51,72.73 523.62,72.51 523.87,72.29 524.05,72.07 524.13,71.86 524.38,71.64 524.81,71.42 525.35,71.21 527.09,70.99 527.20,70.77 527.23,70.55 528.18,70.34 528.32,70.12 528.53,69.90 528.67,69.69 528.70,69.47 530.71,69.25 530.81,69.03 531.32,68.82 532.10,68.60 532.24,68.38 532.48,68.16 533.48,67.95 534.02,67.73 534.92,67.51 534.95,67.30 535.44,67.08 536.00,66.86 536.40,66.64 536.72,66.43 536.95,66.21 538.50,65.99 538.57,65.78 538.60,65.56 538.92,65.34 540.10,65.12 540.16,64.91 540.61,64.69 540.83,64.47 541.80,64.25 542.05,64.04 542.08,63.82 542.15,63.60 543.23,63.39 543.26,63.17 544.71,62.95 544.74,62.73 546.53,62.52 548.08,62.30 548.64,62.08 551.60,61.87 552.83,61.65 554.73,61.43 555.40,61.21 557.29,61.00 560.12,60.78 560.66,60.56 563.97,60.34 564.56,60.13 564.64,59.91 570.24,59.69 570.79,59.48 572.96,59.26 575.93,59.04 601.39,58.82 605.44,58.61 622.79,58.39 640.58,58.17 659.59,57.96 660.33,57.74 676.02,57.52 701.17,57.30 723.20,57.09 725.21,56.87 748.85,56.65 750.12,56.43 750.61,56.22 826.00,56.00" fill="none" stroke="#2F6BFF" stroke-width="2.5"/><rect x="690" y="50" width="12" height="12" fill="#2F6BFF"/><text x="708.00" y="61.00" font-family="Inter, Arial, sans-serif" font-size="11" fill="#1F2933" text-anchor="start" font-weight="400">completed (n=1823)</text><text x="452.00" y="498.00" font-family="Inter, Arial, sans-serif" font-size="12" fill="#1F2933" text-anchor="middle" font-weight="400">schema_json_chars (log)</text><text x="22.00" y="254.00" font-family="Inter, Arial, sans-serif" font-size="12" fill="#1F2933" text-anchor="middle" font-weight="400">ECDF</text></svg>
