<svg xmlns="http://www.w3.org/2000/svg" width="960" height="790" viewBox="0 0 960 790" role="img" aria-label="Under vs over rates by feature"><rect width="100%" height="100%" fill="#FFFFFF"/><text x="24.00" y="30.00" font-family="Inter, Arial, sans-serif" font-size="17" fill="#1F2933" text-anchor="start" font-weight="700">Under vs over rates by feature</text><rect x="855" y="45" width="12" height="12" fill="#008C7D"/><text x="872.00" y="56.00" font-family="Inter, Arial, sans-serif" font-size="11" fill="#1F2933" text-anchor="start" font-weight="400">under</text><rect x="855" y="64" width="12" height="12" fill="#D96C06"/><text x="872.00" y="75.00" font-family="Inter, Arial, sans-serif" font-size="11" fill="#1F2933" text-anchor="start" font-weight="400">over</text><line x1="240.00" y1="58" x2="240.00" y2="740" stroke="#D9DEE5" stroke-width="1"/><text x="240.00" y="770.00" font-family="Inter, Arial, sans-serif" font-size="10" fill="#1F2933" text-anchor="middle" font-weight="400">0.0%</text><line x1="360.00" y1="58" x2="360.00" y2="740" stroke="#D9DEE5" stroke-width="1"/><text x="360.00" y="770.00" font-family="Inter, Arial, sans-serif" font-size="10" fill="#1F2933" text-anchor="middle" font-weight="400">20.0%</text><line x1="480.00" y1="58" x2="480.00" y2="740" stroke="#D9DEE5" stroke-width="1"/><text x="480.00" y="770.00" font-family="Inter, Arial, sans-serif" font-size="10" fill="#1F2933" text-anchor="middle" font-weight="400">40.0%</text><line x1="600.00" y1="58" x2="600.00" y2="740" stroke="#D9DEE5" stroke-width="1"/><text x="600.00" y="770.00" font-family="Inter, Arial, sans-serif" font-size="10" fill="#1F2933" text-anchor="middle" font-weight="400">60.0%</text><line x1="720.00" y1="58" x2="720.00" y2="740" stroke="#D9DEE5" stroke-width="1"/><text x="720.00" y="770.00" font-family="Inter, Arial, sans-serif" font-size="10" fill="#1F2933" text-anchor="middle" font-weight="400">80.0%</text><line x1="840.00" y1="58" x2="840.00" y2="740" stroke="#D9DEE5" stroke-width="1"/><text x="840.00" y="770.00" font-family="Inter, Arial, sans-serif" font-size="10" fill="#1F2933" text-anchor="middle" font-weight="400">100.0%</text><text x="230.00" y="87.00" font-family="Inter, Arial, sans-serif" font-size="11" fill="#1F2933" text-anchor="end" font-weight="400">has_exclusiveMaximum</text><rect x="240" y="65" width="54.55" height="15" rx="2" fill="#008C7D"/><rect x="240" y="83" width="600.00" height="15" rx="2" fill="#D96C06"/><text x="300.55" y="77.00" font-family="Inter, Arial, sans-serif" font-size="10" fill="#1F2933" text-anchor="start" font-weight="400">9.1%</text><text x="846.00" y="95.00" font-family="Inter, Arial, sans-serif" font-size="10" fill="#1F2933" text-anchor="start" font-weight="400">100.0%</text><text x="230.00" y="133.00" font-family="Inter, Arial, sans-serif" font-size="11" fill="#1F2933" text-anchor="end" font-weight="400">has_maxProperties</text><rect x="240" y="111" width="1.00" height="15" rx="2" fill="#008C7D"/><rect x="240" y="129" width="600.00" height="15" rx="2" fill="#D96C06"/><text x="246.00" y="123.00" font-family="Inter, Arial, sans-serif" font-size="10" fill="#1F2933" text-anchor="start" font-weight="400">0.0%</text><text x="846.00" y="141.00" font-family="Inter, Arial, sans-serif" font-size="10" fill="#1F2933" text-anchor="start" font-weight="400">100.0%</text><text x="230.00" y="179.00" font-family="Inter, Arial, sans-serif" font-size="11" fill="#1F2933" text-anchor="end" font-weight="400">has_minProperties</text><rect x="240" y="157" width="1.00" height="15" rx="2" fill="#008C7D"/><rect x="240" y="175" width="600.00" height="15" rx="2" fill="#D96C06"/><text x="246.00" y="169.00" font-family="Inter, Arial, sans-serif" font-size="10" fill="#1F2933" text-anchor="start" font-weight="400">0.0%</text><text x="846.00" y="187.00" font-family="Inter, Arial, sans-serif" font-size="10" fill="#1F2933" text-anchor="start" font-weight="400">100.0%</text><text x="230.00" y="225.00" font-family="Inter, Arial, sans-serif" font-size="11" fill="#1F2933" text-anchor="end" font-weight="400">has_patternProperties</text><rect x="240" y="203" width="41.38" height="15" rx="2" fill="#008C7D"/><rect x="240" y="221" width="480.00" height="15" rx="2" fill="#D96C06"/><text x="287.38" y="215.00" font-family="Inter, Arial, sans-serif" font-size="10" fill="#1F2933" text-anchor="start" font-weight="400">6.9%</text><text x="726.00" y="233.00" font-family="Inter, Arial, sans-serif" font-size="10" fill="#1F2933" text-anchor="start" font-weight="400">80.0%</text><text x="230.00" y="271.00" font-family="Inter, Arial, sans-serif" font-size="11" fill="#1F2933" text-anchor="end" font-weight="400">has_pattern</text><rect x="240" y="249" width="176.00" height="15" rx="2" fill="#008C7D"/><rect x="240" y="267" width="338.18" height="15" rx="2" fill="#D96C06"/><text x="422.00" y="261.00" font-family="Inter, Arial, sans-serif" font-size="10" fill="#1F2933" text-anchor="start" font-weight="400">29.3%</text><text x="584.18" y="279.00" font-family="Inter, Arial, sans-serif" font-size="10" fill="#1F2933" text-anchor="start" font-weight="400">56.4%</text><text x="230.00" y="317.00" font-family="Inter, Arial, sans-serif" font-size="11" fill="#1F2933" text-anchor="end" font-weight="400">has_multipleOf</text><rect x="240" y="295" width="505.26" height="15" rx="2" fill="#008C7D"/><rect x="240" y="313" width="1.00" height="15" rx="2" fill="#D96C06"/><text x="751.26" y="307.00" font-family="Inter, Arial, sans-serif" font-size="10" fill="#1F2933" text-anchor="start" font-weight="400">84.2%</text><text x="246.00" y="325.00" font-family="Inter, Arial, sans-serif" font-size="10" fill="#1F2933" text-anchor="start" font-weight="400">0.0%</text><text x="230.00" y="363.00" font-family="Inter, Arial, sans-serif" font-size="11" fill="#1F2933" text-anchor="end" font-weight="400">has_maxLength</text><rect x="240" y="341" width="265.82" height="15" rx="2" fill="#008C7D"/><rect x="240" y="359" width="220.00" height="15" rx="2" fill="#D96C06"/><text x="511.82" y="353.00" font-family="Inter, Arial, sans-serif" font-size="10" fill="#1F2933" text-anchor="start" font-weight="400">44.3%</text><text x="466.00" y="371.00" font-family="Inter, Arial, sans-serif" font-size="10" fill="#1F2933" text-anchor="start" font-weight="400">36.7%</text><text x="230.00" y="409.00" font-family="Inter, Arial, sans-serif" font-size="11" fill="#1F2933" text-anchor="end" font-weight="400">has_minimum</text><rect x="240" y="387" width="192.86" height="15" rx="2" fill="#008C7D"/><rect x="240" y="405" width="288.00" height="15" rx="2" fill="#D96C06"/><text x="438.86" y="399.00" font-family="Inter, Arial, sans-serif" font-size="10" fill="#1F2933" text-anchor="start" font-weight="400">32.1%</text><text x="534.00" y="417.00" font-family="Inter, Arial, sans-serif" font-size="10" fill="#1F2933" text-anchor="start" font-weight="400">48.0%</text><text x="230.00" y="455.00" font-family="Inter, Arial, sans-serif" font-size="11" fill="#1F2933" text-anchor="end" font-weight="400">has_allOf</text><rect x="240" y="433" width="339.62" height="15" rx="2" fill="#008C7D"/><rect x="240" y="451" width="141.18" height="15" rx="2" fill="#D96C06"/><text x="585.62" y="445.00" font-family="Inter, Arial, sans-serif" font-size="10" fill="#1F2933" text-anchor="start" font-weight="400">56.6%</text><text x="387.18" y="463.00" font-family="Inter, Arial, sans-serif" font-size="10" fill="#1F2933" text-anchor="start" font-weight="400">23.5%</text><text x="230.00" y="501.00" font-family="Inter, Arial, sans-serif" font-size="11" fill="#1F2933" text-anchor="end" font-weight="400">has_oneOf</text><rect x="240" y="479" width="176.47" height="15" rx="2" fill="#008C7D"/><rect x="240" y="497" width="285.71" height="15" rx="2" fill="#D96C06"/><text x="422.47" y="491.00" font-family="Inter, Arial, sans-serif" font-size="10" fill="#1F2933" text-anchor="start" font-weight="400">29.4%</text><text x="531.71" y="509.00" font-family="Inter, Arial, sans-serif" font-size="10" fill="#1F2933" text-anchor="start" font-weight="400">47.6%</text><text x="230.00" y="547.00" font-family="Inter, Arial, sans-serif" font-size="11" fill="#1F2933" text-anchor="end" font-weight="400">has_maxItems</text><rect x="240" y="525" width="153.85" height="15" rx="2" fill="#008C7D"/><rect x="240" y="543" width="266.67" height="15" rx="2" fill="#D96C06"/><text x="399.85" y="537.00" font-family="Inter, Arial, sans-serif" font-size="10" fill="#1F2933" text-anchor="start" font-weight="400">25.6%</text><text x="512.67" y="555.00" font-family="Inter, Arial, sans-serif" font-size="10" fill="#1F2933" text-anchor="start" font-weight="400">44.4%</text><text x="230.00" y="593.00" font-family="Inter, Arial, sans-serif" font-size="11" fill="#1F2933" text-anchor="end" font-weight="400">has_minLength</text><rect x="240" y="571" width="189.80" height="15" rx="2" fill="#008C7D"/><rect x="240" y="589" width="225.00" height="15" rx="2" fill="#D96C06"/><text x="435.80" y="583.00" font-family="Inter, Arial, sans-serif" font-size="10" fill="#1F2933" text-anchor="start" font-weight="400">31.6%</text><text x="471.00" y="601.00" font-family="Inter, Arial, sans-serif" font-size="10" fill="#1F2933" text-anchor="start" font-weight="400">37.5%</text><text x="230.00" y="639.00" font-family="Inter, Arial, sans-serif" font-size="11" fill="#1F2933" text-anchor="end" font-weight="400">has_not</text><rect x="240" y="617" width="405.88" height="15" rx="2" fill="#008C7D"/><rect x="240" y="635" width="1.00" height="15" rx="2" fill="#D96C06"/><text x="651.88" y="629.00" font-family="Inter, Arial, sans-serif" font-size="10" fill="#1F2933" text-anchor="start" font-weight="400">67.6%</text><text x="246.00" y="647.00" font-family="Inter, Arial, sans-serif" font-size="10" fill="#1F2933" text-anchor="start" font-weight="400">0.0%</text><text x="230.00" y="685.00" font-family="Inter, Arial, sans-serif" font-size="11" fill="#1F2933" text-anchor="end" font-weight="400">large_enum</text><rect x="240" y="663" width="106.81" height="15" rx="2" fill="#008C7D"/><rect x="240" y="681" width="287.23" height="15" rx="2" fill="#D96C06"/><text x="352.81" y="675.00" font-family="Inter, Arial, sans-serif" font-size="10" fill="#1F2933" text-anchor="start" font-weight="400">17.8%</text><text x="533.23" y="693.00" font-family="Inter, Arial, sans-serif" font-size="10" fill="#1F2933" text-anchor="start" font-weight="400">47.9%</text><text x="230.00" y="731.00" font-family="Inter, Arial, sans-serif" font-size="11" fill="#1F2933" text-anchor="end" font-weight="400">has_maximum</text><rect x="240" y="709" width="193.22" height="15" rx="2" fill="#008C7D"/><rect x="240" y="727" width="200.00" height="15" rx="2" fill="#D96C06"/><text x="439.22" y="721.00" font-family="Inter, Arial, sans-serif" font-size="10" fill="#1F2933" text-anchor="start" font-weight="400">32.2%</text><text x="446.00" y="739.00" font-family="Inter, Arial, sans-serif" font-size="10" fill="#1F2933" text-anchor="start" font-weight="400">33.3%</text></svg>
