<svg xmlns="http://www.w3.org/2000/svg" width="960" height="500" viewBox="0 0 960 500" role="img" aria-label="Phase time share for slowest completed schemas"><rect width="100%" height="100%" fill="#FFFFFF"/><text x="24.00" y="30.00" font-family="Inter, Arial, sans-serif" font-size="17" fill="#1F2933" text-anchor="start" font-weight="700">Phase time share for slowest completed schemas</text><rect x="805" y="48" width="12" height="12" fill="#2F6BFF"/><text x="822.00" y="59.00" font-family="Inter, Arial, sans-serif" font-size="11" fill="#1F2933" text-anchor="start" font-weight="400">compile</text><rect x="805" y="67" width="12" height="12" fill="#008C7D"/><text x="822.00" y="78.00" font-family="Inter, Arial, sans-serif" font-size="11" fill="#1F2933" text-anchor="start" font-weight="400">validation</text><rect x="805" y="86" width="12" height="12" fill="#D96C06"/><text x="822.00" y="97.00" font-family="Inter, Arial, sans-serif" font-size="11" fill="#1F2933" text-anchor="start" font-weight="400">mask</text><rect x="805" y="105" width="12" height="12" fill="#7557B8"/><text x="822.00" y="116.00" font-family="Inter, Arial, sans-serif" font-size="11" fill="#1F2933" text-anchor="start" font-weight="400">commit</text><text x="250.00" y="76.00" font-family="Inter, Arial, sans-serif" font-size="10" fill="#1F2933" text-anchor="end" font-weight="400">Github_ultra---o25423.json</text><rect x="260.00" y="60" width="519.83" height="20" fill="#2F6BFF"/><rect x="779.83" y="60" width="0.09" height="20" fill="#008C7D"/><rect x="779.92" y="60" width="0.08" height="20" fill="#D96C06"/><rect x="780.00" y="60" width="0.00" height="20" fill="#7557B8"/><text x="788.00" y="75.00" font-family="Inter, Arial, sans-serif" font-size="10" fill="#1F2933" text-anchor="start" font-weight="400">84.7s</text><text x="250.00" y="110.00" font-family="Inter, Arial, sans-serif" font-size="10" fill="#1F2933" text-anchor="end" font-weight="400">Github_ultra---o62058.json</text><rect x="260.00" y="94" width="519.98" height="20" fill="#2F6BFF"/><rect x="779.98" y="94" width="0.01" height="20" fill="#008C7D"/><rect x="779.99" y="94" width="0.01" height="20" fill="#D96C06"/><rect x="780.00" y="94" width="0.00" height="20" fill="#7557B8"/><text x="788.00" y="109.00" font-family="Inter, Arial, sans-serif" font-size="10" fill="#1F2933" text-anchor="start" font-weight="400">84.6s</text><text x="250.00" y="144.00" font-family="Inter, Arial, sans-serif" font-size="10" fill="#1F2933" text-anchor="end" font-weight="400">Github_ultra---o62059.json</text><rect x="260.00" y="128" width="496.48" height="20" fill="#2F6BFF"/><rect x="756.48" y="128" width="11.76" height="20" fill="#008C7D"/><rect x="768.24" y="128" width="11.75" height="20" fill="#D96C06"/><rect x="780.00" y="128" width="0.00" height="20" fill="#7557B8"/><text x="788.00" y="143.00" font-family="Inter, Arial, sans-serif" font-size="10" fill="#1F2933" text-anchor="start" font-weight="400">88.3s</text><text x="250.00" y="178.00" font-family="Inter, Arial, sans-serif" font-size="10" fill="#1F2933" text-anchor="end" font-weight="400">Github_ultra---o21135.json</text><rect x="260.00" y="162" width="462.88" height="20" fill="#2F6BFF"/><rect x="722.88" y="162" width="28.56" height="20" fill="#008C7D"/><rect x="751.45" y="162" width="28.55" height="20" fill="#D96C06"/><rect x="780.00" y="162" width="0.00" height="20" fill="#7557B8"/><text x="788.00" y="177.00" font-family="Inter, Arial, sans-serif" font-size="10" fill="#1F2933" text-anchor="start" font-weight="400">94.1s</text><text x="250.00" y="212.00" font-family="Inter, Arial, sans-serif" font-size="10" fill="#1F2933" text-anchor="end" font-weight="400">Github_ultra---o21136.json</text><rect x="260.00" y="196" width="457.20" height="20" fill="#2F6BFF"/><rect x="717.20" y="196" width="31.40" height="20" fill="#008C7D"/><rect x="748.60" y="196" width="31.39" height="20" fill="#D96C06"/><rect x="780.00" y="196" width="0.00" height="20" fill="#7557B8"/><text x="788.00" y="211.00" font-family="Inter, Arial, sans-serif" font-size="10" fill="#1F2933" text-anchor="start" font-weight="400">94.8s</text><text x="250.00" y="246.00" font-family="Inter, Arial, sans-serif" font-size="10" fill="#1F2933" text-anchor="end" font-weight="400">Github_ultra---o81125.json</text><rect x="260.00" y="230" width="519.95" height="20" fill="#2F6BFF"/><rect x="779.95" y="230" width="0.03" height="20" fill="#008C7D"/><rect x="779.97" y="230" width="0.02" height="20" fill="#D96C06"/><rect x="780.00" y="230" width="0.00" height="20" fill="#7557B8"/><text x="788.00" y="245.00" font-family="Inter, Arial, sans-serif" font-size="10" fill="#1F2933" text-anchor="start" font-weight="400">79.9s</text><text x="250.00" y="280.00" font-family="Inter, Arial, sans-serif" font-size="10" fill="#1F2933" text-anchor="end" font-weight="400">Github_ultra---o46322.json</text><rect x="260.00" y="264" width="519.03" height="20" fill="#2F6BFF"/><rect x="779.03" y="264" width="0.49" height="20" fill="#008C7D"/><rect x="779.53" y="264" width="0.42" height="20" fill="#D96C06"/><rect x="779.94" y="264" width="0.06" height="20" fill="#7557B8"/><text x="788.00" y="279.00" font-family="Inter, Arial, sans-serif" font-size="10" fill="#1F2933" text-anchor="start" font-weight="400">78.8s</text><text x="250.00" y="314.00" font-family="Inter, Arial, sans-serif" font-size="10" fill="#1F2933" text-anchor="end" font-weight="400">Github_ultra---o18637.json</text><rect x="260.00" y="298" width="519.86" height="20" fill="#2F6BFF"/><rect x="779.86" y="298" width="0.07" height="20" fill="#008C7D"/><rect x="779.93" y="298" width="0.07" height="20" fill="#D96C06"/><rect x="780.00" y="298" width="0.00" height="20" fill="#7557B8"/><text x="788.00" y="313.00" font-family="Inter, Arial, sans-serif" font-size="10" fill="#1F2933" text-anchor="start" font-weight="400">73.8s</text><text x="250.00" y="348.00" font-family="Inter, Arial, sans-serif" font-size="10" fill="#1F2933" text-anchor="end" font-weight="400">Github_ultra---o38670.json</text><rect x="260.00" y="332" width="519.97" height="20" fill="#2F6BFF"/><rect x="779.97" y="332" width="0.01" height="20" fill="#008C7D"/><rect x="779.99" y="332" width="0.01" height="20" fill="#D96C06"/><rect x="780.00" y="332" width="0.00" height="20" fill="#7557B8"/><text x="788.00" y="347.00" font-family="Inter, Arial, sans-serif" font-size="10" fill="#1F2933" text-anchor="start" font-weight="400">69.9s</text><text x="250.00" y="382.00" font-family="Inter, Arial, sans-serif" font-size="10" fill="#1F2933" text-anchor="end" font-weight="400">Github_ultra---o48403.json</text><rect x="260.00" y="366" width="519.97" height="20" fill="#2F6BFF"/><rect x="779.97" y="366" width="0.02" height="20" fill="#008C7D"/><rect x="779.98" y="366" width="0.02" height="20" fill="#D96C06"/><rect x="780.00" y="366" width="0.00" height="20" fill="#7557B8"/><text x="788.00" y="381.00" font-family="Inter, Arial, sans-serif" font-size="10" fill="#1F2933" text-anchor="start" font-weight="400">69.2s</text><text x="250.00" y="416.00" font-family="Inter, Arial, sans-serif" font-size="10" fill="#1F2933" text-anchor="end" font-weight="400">Github_ultra---o83932.json</text><rect x="260.00" y="400" width="519.97" height="20" fill="#2F6BFF"/><rect x="779.97" y="400" width="0.01" height="20" fill="#008C7D"/><rect x="779.99" y="400" width="0.01" height="20" fill="#D96C06"/><rect x="780.00" y="400" width="0.00" height="20" fill="#7557B8"/><text x="788.00" y="415.00" font-family="Inter, Arial, sans-serif" font-size="10" fill="#1F2933" text-anchor="start" font-weight="400">67.3s</text><text x="250.00" y="450.00" font-family="Inter, Arial, sans-serif" font-size="10" fill="#1F2933" text-anchor="end" font-weight="400">Github_ultra---o19343.json</text><rect x="260.00" y="434" width="519.94" height="20" fill="#2F6BFF"/><rect x="779.94" y="434" width="0.03" height="20" fill="#008C7D"/><rect x="779.97" y="434" width="0.03" height="20" fill="#D96C06"/><rect x="780.00" y="434" width="0.00" height="20" fill="#7557B8"/><text x="788.00" y="449.00" font-family="Inter, Arial, sans-serif" font-size="10" fill="#1F2933" text-anchor="start" font-weight="400">66.9s</text></svg>
