<svg xmlns="http://www.w3.org/2000/svg" width="960" height="440" viewBox="0 0 960 440" role="img" aria-label="Phase timing mean +/- std by schema status"><rect width="100%" height="100%" fill="#FFFFFF"/><text x="24.00" y="30.00" font-family="Inter, Arial, sans-serif" font-size="17" fill="#1F2933" text-anchor="start" font-weight="700">Phase timing mean +/- std by schema status</text><line x1="82" y1="344.00" x2="928" y2="344.00" stroke="#D9DEE5"/><text x="74.00" y="348.00" font-family="Inter, Arial, sans-serif" font-size="10" fill="#1F2933" text-anchor="end" font-weight="400">0</text><line x1="82" y1="288.00" x2="928" y2="288.00" stroke="#D9DEE5"/><text x="74.00" y="292.00" font-family="Inter, Arial, sans-serif" font-size="10" fill="#1F2933" text-anchor="end" font-weight="400">2e+02</text><line x1="82" y1="232.00" x2="928" y2="232.00" stroke="#D9DEE5"/><text x="74.00" y="236.00" font-family="Inter, Arial, sans-serif" font-size="10" fill="#1F2933" text-anchor="end" font-weight="400">4e+02</text><line x1="82" y1="176.00" x2="928" y2="176.00" stroke="#D9DEE5"/><text x="74.00" y="180.00" font-family="Inter, Arial, sans-serif" font-size="10" fill="#1F2933" text-anchor="end" font-weight="400">6e+02</text><line x1="82" y1="120.00" x2="928" y2="120.00" stroke="#D9DEE5"/><text x="74.00" y="124.00" font-family="Inter, Arial, sans-serif" font-size="10" fill="#1F2933" text-anchor="end" font-weight="400">8e+02</text><line x1="82" y1="64.00" x2="928" y2="64.00" stroke="#D9DEE5"/><text x="74.00" y="68.00" font-family="Inter, Arial, sans-serif" font-size="10" fill="#1F2933" text-anchor="end" font-weight="400">1e+03</text><rect x="136.60" y="334.44" width="24" height="9.56" fill="#2F6BFF" opacity="0.82"/><line x1="148.60" y1="328.24" x2="148.60" y2="340.63" stroke="#1F2933"/><line x1="141.60" y1="328.24" x2="155.60" y2="328.24" stroke="#1F2933"/><line x1="141.60" y1="340.63" x2="155.60" y2="340.63" stroke="#1F2933"/><rect x="172.60" y="331.57" width="24" height="12.43" fill="#C43C39" opacity="0.82"/><line x1="184.60" y1="324.55" x2="184.60" y2="338.60" stroke="#1F2933"/><line x1="177.60" y1="324.55" x2="191.60" y2="324.55" stroke="#1F2933"/><line x1="177.60" y1="338.60" x2="191.60" y2="338.60" stroke="#1F2933"/><text x="166.60" y="386.00" font-family="Inter, Arial, sans-serif" font-size="10" fill="#1F2933" text-anchor="middle" font-weight="400">compile_grammar_s</text><rect x="305.80" y="343.91" width="24" height="1.00" fill="#2F6BFF" opacity="0.82"/><line x1="317.80" y1="343.66" x2="317.80" y2="344.00" stroke="#1F2933"/><line x1="310.80" y1="343.66" x2="324.80" y2="343.66" stroke="#1F2933"/><line x1="310.80" y1="344.00" x2="324.80" y2="344.00" stroke="#1F2933"/><rect x="341.80" y="233.34" width="24" height="110.66" fill="#C43C39" opacity="0.82"/><line x1="353.80" y1="170.57" x2="353.80" y2="296.10" stroke="#1F2933"/><line x1="346.80" y1="170.57" x2="360.80" y2="170.57" stroke="#1F2933"/><line x1="346.80" y1="296.10" x2="360.80" y2="296.10" stroke="#1F2933"/><text x="335.80" y="386.00" font-family="Inter, Arial, sans-serif" font-size="10" fill="#1F2933" text-anchor="middle" font-weight="400">validation_loop_s</text><rect x="475.00" y="343.91" width="24" height="1.00" fill="#2F6BFF" opacity="0.82"/><line x1="487.00" y1="343.66" x2="487.00" y2="344.00" stroke="#1F2933"/><line x1="480.00" y1="343.66" x2="494.00" y2="343.66" stroke="#1F2933"/><line x1="480.00" y1="344.00" x2="494.00" y2="344.00" stroke="#1F2933"/><rect x="511.00" y="237.49" width="24" height="106.51" fill="#C43C39" opacity="0.82"/><line x1="523.00" y1="179.02" x2="523.00" y2="295.96" stroke="#1F2933"/><line x1="516.00" y1="179.02" x2="530.00" y2="179.02" stroke="#1F2933"/><line x1="516.00" y1="295.96" x2="530.00" y2="295.96" stroke="#1F2933"/><text x="505.00" y="386.00" font-family="Inter, Arial, sans-serif" font-size="10" fill="#1F2933" text-anchor="middle" font-weight="400">compute_mask_s</text><rect x="644.20" y="344.00" width="24" height="1.00" fill="#2F6BFF" opacity="0.82"/><line x1="656.20" y1="344.00" x2="656.20" y2="344.00" stroke="#1F2933"/><line x1="649.20" y1="344.00" x2="663.20" y2="344.00" stroke="#1F2933"/><line x1="649.20" y1="344.00" x2="663.20" y2="344.00" stroke="#1F2933"/><rect x="680.20" y="339.91" width="24" height="4.09" fill="#C43C39" opacity="0.82"/><line x1="692.20" y1="333.12" x2="692.20" y2="344.00" stroke="#1F2933"/><line x1="685.20" y1="333.12" x2="699.20" y2="333.12" stroke="#1F2933"/><line x1="685.20" y1="344.00" x2="699.20" y2="344.00" stroke="#1F2933"/><text x="674.20" y="386.00" font-family="Inter, Arial, sans-serif" font-size="10" fill="#1F2933" text-anchor="middle" font-weight="400">commit_token_s</text><rect x="849.40" y="175.97" width="24" height="168.03" fill="#C43C39" opacity="0.82"/><line x1="861.40" y1="175.96" x2="861.40" y2="175.98" stroke="#1F2933"/><line x1="854.40" y1="175.96" x2="868.40" y2="175.96" stroke="#1F2933"/><line x1="854.40" y1="175.98" x2="868.40" y2="175.98" stroke="#1F2933"/><text x="843.40" y="386.00" font-family="Inter, Arial, sans-serif" font-size="10" fill="#1F2933" text-anchor="middle" font-weight="400">timeout_elapsed_s</text><rect x="790" y="54" width="12" height="12" fill="#2F6BFF"/><text x="808.00" y="65.00" font-family="Inter, Arial, sans-serif" font-size="11" fill="#1F2933" text-anchor="start" font-weight="400">completed</text><rect x="790" y="74" width="12" height="12" fill="#C43C39"/><text x="808.00" y="85.00" font-family="Inter, Arial, sans-serif" font-size="11" fill="#1F2933" text-anchor="start" font-weight="400">timeout</text><text x="24.00" y="204.00" font-family="Inter, Arial, sans-serif" font-size="12" fill="#1F2933" text-anchor="middle" font-weight="400">seconds</text></svg>
