<svg xmlns="http://www.w3.org/2000/svg" width="900" height="560" viewBox="0 0 900 560" role="img" aria-label="Schema size vs compile time"><rect width="100%" height="100%" fill="#FFFFFF"/><text x="24.00" y="30.00" font-family="Inter, Arial, sans-serif" font-size="17" fill="#1F2933" text-anchor="start" font-weight="700">Schema size vs compile time</text><line x1="82.00" y1="56" x2="82.00" y2="488" stroke="#D9DEE5"/><line x1="82" y1="56.00" x2="868" y2="56.00" stroke="#D9DEE5"/><line x1="239.20" y1="56" x2="239.20" y2="488" stroke="#D9DEE5"/><line x1="82" y1="142.40" x2="868" y2="142.40" stroke="#D9DEE5"/><line x1="396.40" y1="56" x2="396.40" y2="488" stroke="#D9DEE5"/><line x1="82" y1="228.80" x2="868" y2="228.80" stroke="#D9DEE5"/><line x1="553.60" y1="56" x2="553.60" y2="488" stroke="#D9DEE5"/><line x1="82" y1="315.20" x2="868" y2="315.20" stroke="#D9DEE5"/><line x1="710.80" y1="56" x2="710.80" y2="488" stroke="#D9DEE5"/><line x1="82" y1="401.60" x2="868" y2="401.60" stroke="#D9DEE5"/><line x1="868.00" y1="56" x2="868.00" y2="488" stroke="#D9DEE5"/><line x1="82" y1="488.00" x2="868" y2="488.00" stroke="#D9DEE5"/><circle cx="456.26" cy="107.43" r="4.2" fill="#2F6BFF" opacity="0.72"/><circle cx="694.05" cy="115.58" r="4.2" fill="#2F6BFF" opacity="0.72"/><circle cx="690.97" cy="116.74" r="4.2" fill="#2F6BFF" opacity="0.72"/><circle cx="669.17" cy="90.72" r="4.2" fill="#2F6BFF" opacity="0.72"/><circle cx="579.98" cy="75.30" r="4.2" fill="#2F6BFF" opacity="0.72"/><circle cx="482.14" cy="67.19" r="4.2" fill="#2F6BFF" opacity="0.72"/><circle cx="652.23" cy="124.91" r="4.2" fill="#2F6BFF" opacity="0.72"/><circle cx="426.73" cy="79.40" r="4.2" fill="#2F6BFF" opacity="0.72"/><circle cx="831.39" cy="62.12" r="4.2" fill="#2F6BFF" opacity="0.72"/><circle cx="754.36" cy="66.45" r="4.2" fill="#2F6BFF" opacity="0.72"/><circle cx="501.73" cy="56.46" r="4.2" fill="#2F6BFF" opacity="0.72"/><circle cx="500.01" cy="56.69" r="4.2" fill="#2F6BFF" opacity="0.72"/><circle cx="457.85" cy="62.73" r="4.2" fill="#C43C39" opacity="0.72"/><circle cx="584.60" cy="75.94" r="4.2" fill="#2F6BFF" opacity="0.72"/><circle cx="529.60" cy="103.04" r="4.2" fill="#2F6BFF" opacity="0.72"/><circle cx="538.26" cy="269.72" r="4.2" fill="#2F6BFF" opacity="0.72"/><circle cx="479.67" cy="56.00" r="4.2" fill="#2F6BFF" opacity="0.72"/><circle cx="502.83" cy="261.05" r="4.2" fill="#2F6BFF" opacity="0.72"/><circle cx="438.22" cy="198.66" r="4.2" fill="#2F6BFF" opacity="0.72"/><circle cx="341.67" cy="89.64" r="4.2" fill="#2F6BFF" opacity="0.72"/><circle cx="674.71" cy="249.68" r="4.2" fill="#2F6BFF" opacity="0.72"/><circle cx="651.69" cy="204.54" r="4.2" fill="#2F6BFF" opacity="0.72"/><circle cx="550.04" cy="249.95" r="4.2" fill="#2F6BFF" opacity="0.72"/><circle cx="754.38" cy="64.50" r="4.2" fill="#2F6BFF" opacity="0.72"/><circle cx="523.89" cy="104.31" r="4.2" fill="#2F6BFF" opacity="0.72"/><circle cx="611.43" cy="488.00" r="4.2" fill="#2F6BFF" opacity="0.72"/><circle cx="465.28" cy="125.82" r="4.2" fill="#2F6BFF" opacity="0.72"/><circle cx="535.53" cy="102.08" r="4.2" fill="#2F6BFF" opacity="0.72"/><circle cx="82.00" cy="153.81" r="4.2" fill="#2F6BFF" opacity="0.72"/><circle cx="526.01" cy="103.89" r="4.2" fill="#2F6BFF" opacity="0.72"/><circle cx="726.50" cy="70.83" r="4.2" fill="#2F6BFF" opacity="0.72"/><circle cx="554.36" cy="59.27" r="4.2" fill="#2F6BFF" opacity="0.72"/><circle cx="682.41" cy="68.86" r="4.2" fill="#2F6BFF" opacity="0.72"/><circle cx="375.18" cy="94.74" r="4.2" fill="#C43C39" opacity="0.72"/><circle cx="754.29" cy="64.94" r="4.2" fill="#2F6BFF" opacity="0.72"/><circle cx="567.02" cy="85.69" r="4.2" fill="#2F6BFF" opacity="0.72"/><circle cx="386.43" cy="82.54" r="4.2" fill="#2F6BFF" opacity="0.72"/><circle cx="361.41" cy="103.33" r="4.2" fill="#2F6BFF" opacity="0.72"/><circle cx="501.25" cy="95.18" r="4.2" fill="#2F6BFF" opacity="0.72"/><circle cx="388.65" cy="82.62" r="4.2" fill="#2F6BFF" opacity="0.72"/><circle cx="541.56" cy="154.73" r="4.2" fill="#2F6BFF" opacity="0.72"/><circle cx="453.29" cy="196.70" r="4.2" fill="#2F6BFF" opacity="0.72"/><circle cx="294.93" cy="124.01" r="4.2" fill="#2F6BFF" opacity="0.72"/><circle cx="482.13" cy="86.01" r="4.2" fill="#2F6BFF" opacity="0.72"/><circle cx="473.29" cy="56.03" r="4.2" fill="#2F6BFF" opacity="0.72"/><circle cx="471.58" cy="56.18" r="4.2" fill="#2F6BFF" opacity="0.72"/><circle cx="842.68" cy="99.03" r="4.2" fill="#2F6BFF" opacity="0.72"/><circle cx="789.73" cy="111.68" r="4.2" fill="#2F6BFF" opacity="0.72"/><circle cx="797.62" cy="108.17" r="4.2" fill="#2F6BFF" opacity="0.72"/><circle cx="808.18" cy="108.57" r="4.2" fill="#2F6BFF" opacity="0.72"/><circle cx="819.89" cy="104.30" r="4.2" fill="#2F6BFF" opacity="0.72"/><circle cx="819.05" cy="104.32" r="4.2" fill="#2F6BFF" opacity="0.72"/><circle cx="827.40" cy="101.55" r="4.2" fill="#2F6BFF" opacity="0.72"/><circle cx="829.31" cy="100.80" r="4.2" fill="#2F6BFF" opacity="0.72"/><circle cx="731.76" cy="118.66" r="4.2" fill="#2F6BFF" opacity="0.72"/><circle cx="738.35" cy="117.16" r="4.2" fill="#2F6BFF" opacity="0.72"/><circle cx="753.56" cy="114.20" r="4.2" fill="#2F6BFF" opacity="0.72"/><circle cx="771.68" cy="111.35" r="4.2" fill="#2F6BFF" opacity="0.72"/><circle cx="757.65" cy="115.90" r="4.2" fill="#2F6BFF" opacity="0.72"/><circle cx="837.02" cy="100.98" r="4.2" fill="#2F6BFF" opacity="0.72"/><circle cx="849.70" cy="98.74" r="4.2" fill="#2F6BFF" opacity="0.72"/><circle cx="851.03" cy="98.66" r="4.2" fill="#2F6BFF" opacity="0.72"/><circle cx="863.00" cy="97.43" r="4.2" fill="#2F6BFF" opacity="0.72"/><circle cx="867.37" cy="96.28" r="4.2" fill="#2F6BFF" opacity="0.72"/><circle cx="868.00" cy="95.68" r="4.2" fill="#2F6BFF" opacity="0.72"/><circle cx="706.76" cy="114.94" r="4.2" fill="#2F6BFF" opacity="0.72"/><circle cx="537.30" cy="112.93" r="4.2" fill="#2F6BFF" opacity="0.72"/><circle cx="543.97" cy="110.02" r="4.2" fill="#C43C39" opacity="0.72"/><circle cx="502.28" cy="269.64" r="4.2" fill="#2F6BFF" opacity="0.72"/><circle cx="366.60" cy="92.65" r="4.2" fill="#2F6BFF" opacity="0.72"/><circle cx="401.54" cy="89.85" r="4.2" fill="#2F6BFF" opacity="0.72"/><circle cx="469.34" cy="124.50" r="4.2" fill="#2F6BFF" opacity="0.72"/><circle cx="415.47" cy="76.11" r="4.2" fill="#2F6BFF" opacity="0.72"/><circle cx="418.69" cy="77.08" r="4.2" fill="#2F6BFF" opacity="0.72"/><circle cx="444.78" cy="120.71" r="4.2" fill="#2F6BFF" opacity="0.72"/><circle cx="447.37" cy="111.43" r="4.2" fill="#2F6BFF" opacity="0.72"/><circle cx="638.44" cy="82.99" r="4.2" fill="#2F6BFF" opacity="0.72"/><circle cx="517.29" cy="105.21" r="4.2" fill="#2F6BFF" opacity="0.72"/><circle cx="355.41" cy="131.10" r="4.2" fill="#2F6BFF" opacity="0.72"/><circle cx="406.47" cy="119.72" r="4.2" fill="#2F6BFF" opacity="0.72"/><circle cx="735.01" cy="86.97" r="4.2" fill="#2F6BFF" opacity="0.72"/><circle cx="488.27" cy="122.26" r="4.2" fill="#2F6BFF" opacity="0.72"/><circle cx="528.65" cy="103.69" r="4.2" fill="#2F6BFF" opacity="0.72"/><circle cx="489.39" cy="110.74" r="4.2" fill="#2F6BFF" opacity="0.72"/><circle cx="588.75" cy="113.89" r="4.2" fill="#2F6BFF" opacity="0.72"/><circle cx="501.88" cy="133.11" r="4.2" fill="#2F6BFF" opacity="0.72"/><circle cx="399.02" cy="107.62" r="4.2" fill="#2F6BFF" opacity="0.72"/><circle cx="774.35" cy="58.58" r="4.2" fill="#2F6BFF" opacity="0.72"/><circle cx="507.95" cy="78.58" r="4.2" fill="#2F6BFF" opacity="0.72"/><circle cx="525.05" cy="103.69" r="4.2" fill="#2F6BFF" opacity="0.72"/><circle cx="756.69" cy="66.14" r="4.2" fill="#2F6BFF" opacity="0.72"/><circle cx="565.30" cy="128.88" r="4.2" fill="#2F6BFF" opacity="0.72"/><circle cx="561.02" cy="123.09" r="4.2" fill="#2F6BFF" opacity="0.72"/><circle cx="454.88" cy="105.61" r="4.2" fill="#2F6BFF" opacity="0.72"/><circle cx="623.18" cy="131.12" r="4.2" fill="#2F6BFF" opacity="0.72"/><line x1="82" y1="488" x2="868" y2="488" stroke="#1F2933"/><line x1="82" y1="56" x2="82" y2="488" stroke="#1F2933"/><text x="475.00" y="538.00" font-family="Inter, Arial, sans-serif" font-size="12" fill="#1F2933" text-anchor="middle" font-weight="400">schema_json_chars (log)</text><text x="20.00" y="272.00" font-family="Inter, Arial, sans-serif" font-size="12" fill="#1F2933" text-anchor="middle" font-weight="400">seconds (log)</text><rect x="735" y="48" width="12" height="12" fill="#2F6BFF"/><text x="753.00" y="59.00" font-family="Inter, Arial, sans-serif" font-size="11" fill="#1F2933" text-anchor="start" font-weight="400">completed</text><rect x="735" y="68" width="12" height="12" fill="#C43C39"/><text x="753.00" y="79.00" font-family="Inter, Arial, sans-serif" font-size="11" fill="#1F2933" text-anchor="start" font-weight="400">timeout</text></svg>
