<svg xmlns="http://www.w3.org/2000/svg" width="860" height="520" viewBox="0 0 860 520" role="img" aria-label="Schema size ECDF: completed vs timeout"><rect width="100%" height="100%" fill="#FFFFFF"/><text x="24.00" y="30.00" font-family="Inter, Arial, sans-serif" font-size="17" fill="#1F2933" text-anchor="start" font-weight="700">Schema size ECDF: completed vs timeout</text><line x1="78.00" y1="56" x2="78.00" y2="452" stroke="#D9DEE5"/><line x1="78" y1="56.00" x2="826" y2="56.00" stroke="#D9DEE5"/><line x1="227.60" y1="56" x2="227.60" y2="452" stroke="#D9DEE5"/><line x1="78" y1="135.20" x2="826" y2="135.20" stroke="#D9DEE5"/><line x1="377.20" y1="56" x2="377.20" y2="452" stroke="#D9DEE5"/><line x1="78" y1="214.40" x2="826" y2="214.40" stroke="#D9DEE5"/><line x1="526.80" y1="56" x2="526.80" y2="452" stroke="#D9DEE5"/><line x1="78" y1="293.60" x2="826" y2="293.60" stroke="#D9DEE5"/><line x1="676.40" y1="56" x2="676.40" y2="452" stroke="#D9DEE5"/><line x1="78" y1="372.80" x2="826" y2="372.80" stroke="#D9DEE5"/><line x1="826.00" y1="56" x2="826.00" y2="452" stroke="#D9DEE5"/><line x1="78" y1="452.00" x2="826" y2="452.00" stroke="#D9DEE5"/><polyline points="78.00,447.70 280.63,443.39 325.12,439.09 338.19,434.78 343.90,430.48 348.84,426.17 367.72,421.87 369.82,417.57 379.69,413.26 382.10,408.96 386.78,404.65 395.34,400.35 398.41,396.04 406.07,391.74 417.00,387.43 423.24,383.13 425.71,378.83 431.34,374.52 432.85,370.22 434.17,365.91 442.75,361.61 446.61,357.30 448.74,353.00 450.38,348.70 456.44,344.39 458.78,340.09 458.80,335.78 464.63,331.48 465.69,327.17 475.80,322.87 476.98,318.57 477.43,314.26 477.58,309.96 477.96,305.65 478.48,301.35 483.36,297.04 492.24,292.74 498.53,288.43 499.63,284.13 500.54,279.83 503.06,275.52 503.96,271.22 509.61,266.91 511.29,262.61 512.21,258.30 515.34,254.00 523.42,249.70 527.52,245.39 533.86,241.09 537.93,236.78 539.57,232.48 551.90,228.17 556.30,223.87 560.25,219.57 581.83,215.26 593.02,210.96 607.54,206.65 620.15,202.35 620.66,198.04 636.79,193.74 642.06,189.43 649.38,185.13 657.53,180.83 660.46,176.52 672.56,172.22 691.34,167.91 696.35,163.61 699.44,159.30 702.62,155.00 717.10,150.70 717.78,146.39 717.86,142.09 717.88,137.78 720.07,133.48 720.99,129.17 734.34,124.87 736.88,120.57 751.51,116.26 759.02,111.96 769.07,107.65 779.41,103.35 780.22,99.04 787.37,94.74 789.18,90.43 791.16,86.13 796.52,81.83 801.90,77.52 808.59,73.22 809.85,68.91 821.24,64.61 825.40,60.30 826.00,56.00" fill="none" stroke="#2F6BFF" stroke-width="2.5"/><rect x="690" y="50" width="12" height="12" fill="#2F6BFF"/><text x="708.00" y="61.00" font-family="Inter, Arial, sans-serif" font-size="11" fill="#1F2933" text-anchor="start" font-weight="400">completed (n=92)</text><polyline points="357.01,320.00 435.68,188.00 517.63,56.00" fill="none" stroke="#C43C39" stroke-width="2.5"/><rect x="690" y="70" width="12" height="12" fill="#C43C39"/><text x="708.00" y="81.00" font-family="Inter, Arial, sans-serif" font-size="11" fill="#1F2933" text-anchor="start" font-weight="400">timeout (n=3)</text><text x="452.00" y="498.00" font-family="Inter, Arial, sans-serif" font-size="12" fill="#1F2933" text-anchor="middle" font-weight="400">schema_json_chars (log)</text><text x="22.00" y="254.00" font-family="Inter, Arial, sans-serif" font-size="12" fill="#1F2933" text-anchor="middle" font-weight="400">ECDF</text></svg>
