<svg xmlns="http://www.w3.org/2000/svg" width="900" height="560" viewBox="0 0 900 560" role="img" aria-label="Schema depth vs compile time"><rect width="100%" height="100%" fill="#FFFFFF"/><text x="24.00" y="30.00" font-family="Inter, Arial, sans-serif" font-size="17" fill="#1F2933" text-anchor="start" font-weight="700">Schema depth vs compile time</text><line x1="82.00" y1="56" x2="82.00" y2="488" stroke="#D9DEE5"/><line x1="82" y1="56.00" x2="868" y2="56.00" stroke="#D9DEE5"/><line x1="239.20" y1="56" x2="239.20" y2="488" stroke="#D9DEE5"/><line x1="82" y1="142.40" x2="868" y2="142.40" stroke="#D9DEE5"/><line x1="396.40" y1="56" x2="396.40" y2="488" stroke="#D9DEE5"/><line x1="82" y1="228.80" x2="868" y2="228.80" stroke="#D9DEE5"/><line x1="553.60" y1="56" x2="553.60" y2="488" stroke="#D9DEE5"/><line x1="82" y1="315.20" x2="868" y2="315.20" stroke="#D9DEE5"/><line x1="710.80" y1="56" x2="710.80" y2="488" stroke="#D9DEE5"/><line x1="82" y1="401.60" x2="868" y2="401.60" stroke="#D9DEE5"/><line x1="868.00" y1="56" x2="868.00" y2="488" stroke="#D9DEE5"/><line x1="82" y1="488.00" x2="868" y2="488.00" stroke="#D9DEE5"/><circle cx="278.50" cy="107.43" r="4.2" fill="#2F6BFF" opacity="0.72"/><circle cx="425.88" cy="115.58" r="4.2" fill="#2F6BFF" opacity="0.72"/><circle cx="425.88" cy="116.74" r="4.2" fill="#2F6BFF" opacity="0.72"/><circle cx="278.50" cy="90.72" r="4.2" fill="#2F6BFF" opacity="0.72"/><circle cx="425.88" cy="75.30" r="4.2" fill="#2F6BFF" opacity="0.72"/><circle cx="376.75" cy="67.19" r="4.2" fill="#2F6BFF" opacity="0.72"/><circle cx="524.12" cy="124.91" r="4.2" fill="#2F6BFF" opacity="0.72"/><circle cx="82.00" cy="79.40" r="4.2" fill="#2F6BFF" opacity="0.72"/><circle cx="327.62" cy="62.12" r="4.2" fill="#2F6BFF" opacity="0.72"/><circle cx="425.88" cy="66.45" r="4.2" fill="#2F6BFF" opacity="0.72"/><circle cx="327.62" cy="56.46" r="4.2" fill="#2F6BFF" opacity="0.72"/><circle cx="327.62" cy="56.69" r="4.2" fill="#2F6BFF" opacity="0.72"/><circle cx="327.62" cy="62.73" r="4.2" fill="#C43C39" opacity="0.72"/><circle cx="622.38" cy="75.94" r="4.2" fill="#2F6BFF" opacity="0.72"/><circle cx="376.75" cy="103.04" r="4.2" fill="#2F6BFF" opacity="0.72"/><circle cx="425.88" cy="269.72" r="4.2" fill="#2F6BFF" opacity="0.72"/><circle cx="180.25" cy="56.00" r="4.2" fill="#2F6BFF" opacity="0.72"/><circle cx="818.88" cy="261.05" r="4.2" fill="#2F6BFF" opacity="0.72"/><circle cx="720.62" cy="198.66" r="4.2" fill="#2F6BFF" opacity="0.72"/><circle cx="376.75" cy="89.64" r="4.2" fill="#2F6BFF" opacity="0.72"/><circle cx="376.75" cy="249.68" r="4.2" fill="#2F6BFF" opacity="0.72"/><circle cx="376.75" cy="204.54" r="4.2" fill="#2F6BFF" opacity="0.72"/><circle cx="327.62" cy="249.95" r="4.2" fill="#2F6BFF" opacity="0.72"/><circle cx="425.88" cy="64.50" r="4.2" fill="#2F6BFF" opacity="0.72"/><circle cx="376.75" cy="104.31" r="4.2" fill="#2F6BFF" opacity="0.72"/><circle cx="180.25" cy="488.00" r="4.2" fill="#2F6BFF" opacity="0.72"/><circle cx="475.00" cy="125.82" r="4.2" fill="#2F6BFF" opacity="0.72"/><circle cx="376.75" cy="102.08" r="4.2" fill="#2F6BFF" opacity="0.72"/><circle cx="376.75" cy="153.81" r="4.2" fill="#2F6BFF" opacity="0.72"/><circle cx="376.75" cy="103.89" r="4.2" fill="#2F6BFF" opacity="0.72"/><circle cx="425.88" cy="70.83" r="4.2" fill="#2F6BFF" opacity="0.72"/><circle cx="229.38" cy="59.27" r="4.2" fill="#2F6BFF" opacity="0.72"/><circle cx="622.38" cy="68.86" r="4.2" fill="#2F6BFF" opacity="0.72"/><circle cx="376.75" cy="94.74" r="4.2" fill="#C43C39" opacity="0.72"/><circle cx="425.88" cy="64.94" r="4.2" fill="#2F6BFF" opacity="0.72"/><circle cx="327.62" cy="85.69" r="4.2" fill="#2F6BFF" opacity="0.72"/><circle cx="376.75" cy="82.54" r="4.2" fill="#2F6BFF" opacity="0.72"/><circle cx="720.62" cy="103.33" r="4.2" fill="#2F6BFF" opacity="0.72"/><circle cx="425.88" cy="95.18" r="4.2" fill="#2F6BFF" opacity="0.72"/><circle cx="376.75" cy="82.62" r="4.2" fill="#2F6BFF" opacity="0.72"/><circle cx="868.00" cy="154.73" r="4.2" fill="#2F6BFF" opacity="0.72"/><circle cx="475.00" cy="196.70" r="4.2" fill="#2F6BFF" opacity="0.72"/><circle cx="622.38" cy="124.01" r="4.2" fill="#2F6BFF" opacity="0.72"/><circle cx="425.88" cy="86.01" r="4.2" fill="#2F6BFF" opacity="0.72"/><circle cx="327.62" cy="56.03" r="4.2" fill="#2F6BFF" opacity="0.72"/><circle cx="327.62" cy="56.18" r="4.2" fill="#2F6BFF" opacity="0.72"/><circle cx="376.75" cy="99.03" r="4.2" fill="#2F6BFF" opacity="0.72"/><circle cx="376.75" cy="111.68" r="4.2" fill="#2F6BFF" opacity="0.72"/><circle cx="376.75" cy="108.17" r="4.2" fill="#2F6BFF" opacity="0.72"/><circle cx="376.75" cy="108.57" r="4.2" fill="#2F6BFF" opacity="0.72"/><circle cx="376.75" cy="104.30" r="4.2" fill="#2F6BFF" opacity="0.72"/><circle cx="376.75" cy="104.32" r="4.2" fill="#2F6BFF" opacity="0.72"/><circle cx="376.75" cy="101.55" r="4.2" fill="#2F6BFF" opacity="0.72"/><circle cx="376.75" cy="100.80" r="4.2" fill="#2F6BFF" opacity="0.72"/><circle cx="376.75" cy="118.66" r="4.2" fill="#2F6BFF" opacity="0.72"/><circle cx="376.75" cy="117.16" r="4.2" fill="#2F6BFF" opacity="0.72"/><circle cx="376.75" cy="114.20" r="4.2" fill="#2F6BFF" opacity="0.72"/><circle cx="376.75" cy="111.35" r="4.2" fill="#2F6BFF" opacity="0.72"/><circle cx="376.75" cy="115.90" r="4.2" fill="#2F6BFF" opacity="0.72"/><circle cx="376.75" cy="100.98" r="4.2" fill="#2F6BFF" opacity="0.72"/><circle cx="376.75" cy="98.74" r="4.2" fill="#2F6BFF" opacity="0.72"/><circle cx="376.75" cy="98.66" r="4.2" fill="#2F6BFF" opacity="0.72"/><circle cx="376.75" cy="97.43" r="4.2" fill="#2F6BFF" opacity="0.72"/><circle cx="376.75" cy="96.28" r="4.2" fill="#2F6BFF" opacity="0.72"/><circle cx="376.75" cy="95.68" r="4.2" fill="#2F6BFF" opacity="0.72"/><circle cx="425.88" cy="114.94" r="4.2" fill="#2F6BFF" opacity="0.72"/><circle cx="573.25" cy="112.93" r="4.2" fill="#2F6BFF" opacity="0.72"/><circle cx="573.25" cy="110.02" r="4.2" fill="#C43C39" opacity="0.72"/><circle cx="573.25" cy="269.64" r="4.2" fill="#2F6BFF" opacity="0.72"/><circle cx="278.50" cy="92.65" r="4.2" fill="#2F6BFF" opacity="0.72"/><circle cx="278.50" cy="89.85" r="4.2" fill="#2F6BFF" opacity="0.72"/><circle cx="278.50" cy="124.50" r="4.2" fill="#2F6BFF" opacity="0.72"/><circle cx="376.75" cy="76.11" r="4.2" fill="#2F6BFF" opacity="0.72"/><circle cx="376.75" cy="77.08" r="4.2" fill="#2F6BFF" opacity="0.72"/><circle cx="376.75" cy="120.71" r="4.2" fill="#2F6BFF" opacity="0.72"/><circle cx="425.88" cy="111.43" r="4.2" fill="#2F6BFF" opacity="0.72"/><circle cx="524.12" cy="82.99" r="4.2" fill="#2F6BFF" opacity="0.72"/><circle cx="376.75" cy="105.21" r="4.2" fill="#2F6BFF" opacity="0.72"/><circle cx="376.75" cy="131.10" r="4.2" fill="#2F6BFF" opacity="0.72"/><circle cx="524.12" cy="119.72" r="4.2" fill="#2F6BFF" opacity="0.72"/><circle cx="425.88" cy="86.97" r="4.2" fill="#2F6BFF" opacity="0.72"/><circle cx="180.25" cy="122.26" r="4.2" fill="#2F6BFF" opacity="0.72"/><circle cx="376.75" cy="103.69" r="4.2" fill="#2F6BFF" opacity="0.72"/><circle cx="376.75" cy="110.74" r="4.2" fill="#2F6BFF" opacity="0.72"/><circle cx="376.75" cy="113.89" r="4.2" fill="#2F6BFF" opacity="0.72"/><circle cx="425.88" cy="133.11" r="4.2" fill="#2F6BFF" opacity="0.72"/><circle cx="278.50" cy="107.62" r="4.2" fill="#2F6BFF" opacity="0.72"/><circle cx="573.25" cy="58.58" r="4.2" fill="#2F6BFF" opacity="0.72"/><circle cx="425.88" cy="78.58" r="4.2" fill="#2F6BFF" opacity="0.72"/><circle cx="376.75" cy="103.69" r="4.2" fill="#2F6BFF" opacity="0.72"/><circle cx="425.88" cy="66.14" r="4.2" fill="#2F6BFF" opacity="0.72"/><circle cx="524.12" cy="128.88" r="4.2" fill="#2F6BFF" opacity="0.72"/><circle cx="475.00" cy="123.09" r="4.2" fill="#2F6BFF" opacity="0.72"/><circle cx="327.62" cy="105.61" r="4.2" fill="#2F6BFF" opacity="0.72"/><circle cx="278.50" cy="131.12" r="4.2" fill="#2F6BFF" opacity="0.72"/><line x1="82" y1="488" x2="868" y2="488" stroke="#1F2933"/><line x1="82" y1="56" x2="82" y2="488" stroke="#1F2933"/><text x="475.00" y="538.00" font-family="Inter, Arial, sans-serif" font-size="12" fill="#1F2933" text-anchor="middle" font-weight="400">schema_depth</text><text x="20.00" y="272.00" font-family="Inter, Arial, sans-serif" font-size="12" fill="#1F2933" text-anchor="middle" font-weight="400">seconds (log)</text><rect x="735" y="48" width="12" height="12" fill="#2F6BFF"/><text x="753.00" y="59.00" font-family="Inter, Arial, sans-serif" font-size="11" fill="#1F2933" text-anchor="start" font-weight="400">completed</text><rect x="735" y="68" width="12" height="12" fill="#C43C39"/><text x="753.00" y="79.00" font-family="Inter, Arial, sans-serif" font-size="11" fill="#1F2933" text-anchor="start" font-weight="400">timeout</text></svg>
