<svg xmlns="http://www.w3.org/2000/svg" width="920" height="560" viewBox="0 0 920 560" role="img" aria-label="Schema size vs nb_branches_combinators by constraint group"><rect width="100%" height="100%" fill="#FFFFFF"/><text x="24.00" y="30.00" font-family="Inter, Arial, sans-serif" font-size="17" fill="#1F2933" text-anchor="start" font-weight="700">Schema size vs nb_branches_combinators by constraint group</text><line x1="82.00" y1="56" x2="82.00" y2="488" stroke="#D9DEE5"/><line x1="82" y1="56.00" x2="750" y2="56.00" stroke="#D9DEE5"/><line x1="215.60" y1="56" x2="215.60" y2="488" stroke="#D9DEE5"/><line x1="82" y1="142.40" x2="750" y2="142.40" stroke="#D9DEE5"/><line x1="349.20" y1="56" x2="349.20" y2="488" stroke="#D9DEE5"/><line x1="82" y1="228.80" x2="750" y2="228.80" stroke="#D9DEE5"/><line x1="482.80" y1="56" x2="482.80" y2="488" stroke="#D9DEE5"/><line x1="82" y1="315.20" x2="750" y2="315.20" stroke="#D9DEE5"/><line x1="616.40" y1="56" x2="616.40" y2="488" stroke="#D9DEE5"/><line x1="82" y1="401.60" x2="750" y2="401.60" stroke="#D9DEE5"/><line x1="750.00" y1="56" x2="750.00" y2="488" stroke="#D9DEE5"/><line x1="82" y1="488.00" x2="750" y2="488.00" stroke="#D9DEE5"/><circle cx="400.08" cy="488.00" r="4" fill="#D96C06" opacity="0.72"/><circle cx="602.16" cy="488.00" r="4" fill="#7557B8" opacity="0.72"/><circle cx="599.55" cy="488.00" r="4" fill="#7557B8" opacity="0.72"/><circle cx="581.02" cy="484.84" r="4" fill="#D96C06" opacity="0.72"/><circle cx="505.22" cy="488.00" r="4" fill="#7557B8" opacity="0.72"/><circle cx="422.07" cy="488.00" r="4" fill="#2F6BFF" opacity="0.72"/><circle cx="566.63" cy="393.05" r="4" fill="#D96C06" opacity="0.72"/><circle cx="374.98" cy="488.00" r="4" fill="#D96C06" opacity="0.72"/><circle cx="718.89" cy="488.00" r="4" fill="#7557B8" opacity="0.72"/><circle cx="653.42" cy="425.49" r="4" fill="#D96C06" opacity="0.72"/><circle cx="438.71" cy="488.00" r="4" fill="#7557B8" opacity="0.72"/><circle cx="437.26" cy="488.00" r="4" fill="#C43C39" opacity="0.72"/><circle cx="401.43" cy="488.00" r="4" fill="#5C6670" opacity="0.72"/><circle cx="509.15" cy="476.92" r="4" fill="#2F6BFF" opacity="0.72"/><circle cx="462.40" cy="478.51" r="4" fill="#7557B8" opacity="0.72"/><circle cx="469.77" cy="472.18" r="4" fill="#D96C06" opacity="0.72"/><circle cx="419.97" cy="488.00" r="4" fill="#D96C06" opacity="0.72"/><circle cx="439.65" cy="472.97" r="4" fill="#2F6BFF" opacity="0.72"/><circle cx="384.75" cy="471.38" r="4" fill="#7557B8" opacity="0.72"/><circle cx="302.69" cy="488.00" r="4" fill="#7557B8" opacity="0.72"/><circle cx="585.73" cy="458.73" r="4" fill="#D96C06" opacity="0.72"/><circle cx="566.16" cy="451.60" r="4" fill="#D96C06" opacity="0.72"/><circle cx="479.78" cy="459.52" r="4" fill="#D96C06" opacity="0.72"/><circle cx="653.44" cy="430.24" r="4" fill="#2F6BFF" opacity="0.72"/><circle cx="457.55" cy="478.51" r="4" fill="#7557B8" opacity="0.72"/><circle cx="531.94" cy="488.00" r="4" fill="#7557B8" opacity="0.72"/><circle cx="407.74" cy="488.00" r="4" fill="#7557B8" opacity="0.72"/><circle cx="467.44" cy="478.51" r="4" fill="#7557B8" opacity="0.72"/><circle cx="82.00" cy="488.00" r="4" fill="#2F6BFF" opacity="0.72"/><circle cx="459.35" cy="478.51" r="4" fill="#7557B8" opacity="0.72"/><circle cx="629.74" cy="488.00" r="4" fill="#2F6BFF" opacity="0.72"/><circle cx="483.44" cy="488.00" r="4" fill="#D96C06" opacity="0.72"/><circle cx="592.27" cy="469.80" r="4" fill="#D96C06" opacity="0.72"/><circle cx="331.17" cy="488.00" r="4" fill="#5C6670" opacity="0.72"/><circle cx="653.36" cy="428.66" r="4" fill="#2F6BFF" opacity="0.72"/><circle cx="494.20" cy="451.60" r="4" fill="#7557B8" opacity="0.72"/><circle cx="340.73" cy="488.00" r="4" fill="#D96C06" opacity="0.72"/><circle cx="319.46" cy="488.00" r="4" fill="#7557B8" opacity="0.72"/><circle cx="438.31" cy="488.00" r="4" fill="#2F6BFF" opacity="0.72"/><circle cx="342.61" cy="488.00" r="4" fill="#C43C39" opacity="0.72"/><circle cx="472.57" cy="464.26" r="4" fill="#D96C06" opacity="0.72"/><circle cx="397.55" cy="484.04" r="4" fill="#7557B8" opacity="0.72"/><circle cx="262.96" cy="488.00" r="4" fill="#D96C06" opacity="0.72"/><circle cx="422.06" cy="488.00" r="4" fill="#7557B8" opacity="0.72"/><circle cx="414.55" cy="488.00" r="4" fill="#7557B8" opacity="0.72"/><circle cx="413.09" cy="488.00" r="4" fill="#C43C39" opacity="0.72"/><circle cx="728.48" cy="472.97" r="4" fill="#2F6BFF" opacity="0.72"/><circle cx="683.48" cy="472.97" r="4" fill="#2F6BFF" opacity="0.72"/><circle cx="690.18" cy="472.97" r="4" fill="#2F6BFF" opacity="0.72"/><circle cx="699.16" cy="472.97" r="4" fill="#2F6BFF" opacity="0.72"/><circle cx="709.12" cy="472.97" r="4" fill="#2F6BFF" opacity="0.72"/><circle cx="708.40" cy="473.76" r="4" fill="#2F6BFF" opacity="0.72"/><circle cx="715.50" cy="473.76" r="4" fill="#2F6BFF" opacity="0.72"/><circle cx="717.12" cy="473.76" r="4" fill="#2F6BFF" opacity="0.72"/><circle cx="634.22" cy="474.55" r="4" fill="#2F6BFF" opacity="0.72"/><circle cx="639.81" cy="474.55" r="4" fill="#2F6BFF" opacity="0.72"/><circle cx="652.74" cy="473.76" r="4" fill="#2F6BFF" opacity="0.72"/><circle cx="668.14" cy="473.76" r="4" fill="#2F6BFF" opacity="0.72"/><circle cx="656.22" cy="473.76" r="4" fill="#2F6BFF" opacity="0.72"/><circle cx="723.67" cy="476.13" r="4" fill="#2F6BFF" opacity="0.72"/><circle cx="734.45" cy="476.13" r="4" fill="#2F6BFF" opacity="0.72"/><circle cx="735.58" cy="476.13" r="4" fill="#2F6BFF" opacity="0.72"/><circle cx="745.75" cy="476.13" r="4" fill="#2F6BFF" opacity="0.72"/><circle cx="749.47" cy="476.13" r="4" fill="#2F6BFF" opacity="0.72"/><circle cx="750.00" cy="476.13" r="4" fill="#2F6BFF" opacity="0.72"/><circle cx="612.97" cy="488.00" r="4" fill="#7557B8" opacity="0.72"/><circle cx="468.95" cy="456.35" r="4" fill="#D96C06" opacity="0.72"/><circle cx="474.61" cy="454.77" r="4" fill="#5C6670" opacity="0.72"/><circle cx="439.19" cy="457.14" r="4" fill="#D96C06" opacity="0.72"/><circle cx="323.87" cy="484.84" r="4" fill="#D96C06" opacity="0.72"/><circle cx="353.57" cy="484.84" r="4" fill="#D96C06" opacity="0.72"/><circle cx="411.19" cy="486.42" r="4" fill="#2F6BFF" opacity="0.72"/><circle cx="365.40" cy="488.00" r="4" fill="#D96C06" opacity="0.72"/><circle cx="368.14" cy="488.00" r="4" fill="#D96C06" opacity="0.72"/><circle cx="390.31" cy="479.30" r="4" fill="#7557B8" opacity="0.72"/><circle cx="392.52" cy="488.00" r="4" fill="#7557B8" opacity="0.72"/><circle cx="554.90" cy="56.00" r="4" fill="#7557B8" opacity="0.72"/><circle cx="451.94" cy="478.51" r="4" fill="#7557B8" opacity="0.72"/><circle cx="314.37" cy="488.00" r="4" fill="#D96C06" opacity="0.72"/><circle cx="357.76" cy="488.00" r="4" fill="#2F6BFF" opacity="0.72"/><circle cx="636.98" cy="488.00" r="4" fill="#7557B8" opacity="0.72"/><circle cx="427.28" cy="488.00" r="4" fill="#2F6BFF" opacity="0.72"/><circle cx="461.59" cy="478.51" r="4" fill="#7557B8" opacity="0.72"/><circle cx="428.23" cy="478.51" r="4" fill="#7557B8" opacity="0.72"/><circle cx="512.67" cy="473.76" r="4" fill="#7557B8" opacity="0.72"/><circle cx="438.85" cy="488.00" r="4" fill="#7557B8" opacity="0.72"/><circle cx="351.43" cy="488.00" r="4" fill="#7557B8" opacity="0.72"/><circle cx="670.41" cy="459.52" r="4" fill="#2F6BFF" opacity="0.72"/><circle cx="444.01" cy="372.48" r="4" fill="#2F6BFF" opacity="0.72"/><circle cx="458.53" cy="478.51" r="4" fill="#7557B8" opacity="0.72"/><circle cx="655.40" cy="420.75" r="4" fill="#2F6BFF" opacity="0.72"/><circle cx="492.74" cy="488.00" r="4" fill="#D96C06" opacity="0.72"/><circle cx="489.11" cy="488.00" r="4" fill="#2F6BFF" opacity="0.72"/><circle cx="398.90" cy="488.00" r="4" fill="#7557B8" opacity="0.72"/><circle cx="541.94" cy="479.30" r="4" fill="#7557B8" opacity="0.72"/><rect x="775" y="52" width="12" height="12" fill="#2F6BFF"/><text x="793.00" y="63.00" font-family="Inter, Arial, sans-serif" font-size="11" fill="#1F2933" text-anchor="start" font-weight="400">correct only</text><rect x="775" y="73" width="12" height="12" fill="#D96C06"/><text x="793.00" y="84.00" font-family="Inter, Arial, sans-serif" font-size="11" fill="#1F2933" text-anchor="start" font-weight="400">under</text><rect x="775" y="94" width="12" height="12" fill="#7557B8"/><text x="793.00" y="105.00" font-family="Inter, Arial, sans-serif" font-size="11" fill="#1F2933" text-anchor="start" font-weight="400">over</text><rect x="775" y="115" width="12" height="12" fill="#C43C39"/><text x="793.00" y="126.00" font-family="Inter, Arial, sans-serif" font-size="11" fill="#1F2933" text-anchor="start" font-weight="400">under+over</text><rect x="775" y="136" width="12" height="12" fill="#5C6670"/><text x="793.00" y="147.00" font-family="Inter, Arial, sans-serif" font-size="11" fill="#1F2933" text-anchor="start" font-weight="400">timeout</text><line x1="82" y1="488" x2="750" y2="488" stroke="#1F2933"/><line x1="82" y1="56" x2="82" y2="488" stroke="#1F2933"/><text x="416.00" y="538.00" font-family="Inter, Arial, sans-serif" font-size="12" fill="#1F2933" text-anchor="middle" font-weight="400">schema_json_chars (log)</text><text x="22.00" y="272.00" font-family="Inter, Arial, sans-serif" font-size="12" fill="#1F2933" text-anchor="middle" font-weight="400">nb_branches_combinators</text></svg>
