<svg xmlns="http://www.w3.org/2000/svg" width="960" height="300" viewBox="0 0 960 300" role="img" aria-label="Under/over rates by compile speed group"><rect width="100%" height="100%" fill="#FFFFFF"/><text x="24.00" y="30.00" font-family="Inter, Arial, sans-serif" font-size="17" fill="#1F2933" text-anchor="start" font-weight="700">Under/over rates by compile speed group</text><rect x="855" y="45" width="12" height="12" fill="#008C7D"/><text x="872.00" y="56.00" font-family="Inter, Arial, sans-serif" font-size="11" fill="#1F2933" text-anchor="start" font-weight="400">under</text><rect x="855" y="64" width="12" height="12" fill="#D96C06"/><text x="872.00" y="75.00" font-family="Inter, Arial, sans-serif" font-size="11" fill="#1F2933" text-anchor="start" font-weight="400">over</text><line x1="240.00" y1="58" x2="240.00" y2="250" stroke="#D9DEE5" stroke-width="1"/><text x="240.00" y="280.00" font-family="Inter, Arial, sans-serif" font-size="10" fill="#1F2933" text-anchor="middle" font-weight="400">0.0%</text><line x1="360.00" y1="58" x2="360.00" y2="250" stroke="#D9DEE5" stroke-width="1"/><text x="360.00" y="280.00" font-family="Inter, Arial, sans-serif" font-size="10" fill="#1F2933" text-anchor="middle" font-weight="400">10.0%</text><line x1="480.00" y1="58" x2="480.00" y2="250" stroke="#D9DEE5" stroke-width="1"/><text x="480.00" y="280.00" font-family="Inter, Arial, sans-serif" font-size="10" fill="#1F2933" text-anchor="middle" font-weight="400">20.0%</text><line x1="600.00" y1="58" x2="600.00" y2="250" stroke="#D9DEE5" stroke-width="1"/><text x="600.00" y="280.00" font-family="Inter, Arial, sans-serif" font-size="10" fill="#1F2933" text-anchor="middle" font-weight="400">30.0%</text><line x1="720.00" y1="58" x2="720.00" y2="250" stroke="#D9DEE5" stroke-width="1"/><text x="720.00" y="280.00" font-family="Inter, Arial, sans-serif" font-size="10" fill="#1F2933" text-anchor="middle" font-weight="400">40.0%</text><line x1="840.00" y1="58" x2="840.00" y2="250" stroke="#D9DEE5" stroke-width="1"/><text x="840.00" y="280.00" font-family="Inter, Arial, sans-serif" font-size="10" fill="#1F2933" text-anchor="middle" font-weight="400">50.0%</text><text x="230.00" y="87.00" font-family="Inter, Arial, sans-serif" font-size="11" fill="#1F2933" text-anchor="end" font-weight="400">fast</text><rect x="240" y="65" width="580.65" height="15" rx="2" fill="#008C7D"/><rect x="240" y="83" width="324.32" height="15" rx="2" fill="#D96C06"/><text x="826.65" y="77.00" font-family="Inter, Arial, sans-serif" font-size="10" fill="#1F2933" text-anchor="start" font-weight="400">48.4%</text><text x="570.32" y="95.00" font-family="Inter, Arial, sans-serif" font-size="10" fill="#1F2933" text-anchor="start" font-weight="400">27.0%</text><text x="230.00" y="133.00" font-family="Inter, Arial, sans-serif" font-size="11" fill="#1F2933" text-anchor="end" font-weight="400">medium</text><rect x="240" y="111" width="74.07" height="15" rx="2" fill="#008C7D"/><rect x="240" y="129" width="542.86" height="15" rx="2" fill="#D96C06"/><text x="320.07" y="123.00" font-family="Inter, Arial, sans-serif" font-size="10" fill="#1F2933" text-anchor="start" font-weight="400">6.2%</text><text x="788.86" y="141.00" font-family="Inter, Arial, sans-serif" font-size="10" fill="#1F2933" text-anchor="start" font-weight="400">45.2%</text><text x="230.00" y="179.00" font-family="Inter, Arial, sans-serif" font-size="11" fill="#1F2933" text-anchor="end" font-weight="400">slow</text><rect x="240" y="157" width="123.08" height="15" rx="2" fill="#008C7D"/><rect x="240" y="175" width="536.84" height="15" rx="2" fill="#D96C06"/><text x="369.08" y="169.00" font-family="Inter, Arial, sans-serif" font-size="10" fill="#1F2933" text-anchor="start" font-weight="400">10.3%</text><text x="782.84" y="187.00" font-family="Inter, Arial, sans-serif" font-size="10" fill="#1F2933" text-anchor="start" font-weight="400">44.7%</text><text x="230.00" y="225.00" font-family="Inter, Arial, sans-serif" font-size="11" fill="#1F2933" text-anchor="end" font-weight="400">very_slow</text><rect x="240" y="203" width="226.09" height="15" rx="2" fill="#008C7D"/><rect x="240" y="221" width="330.00" height="15" rx="2" fill="#D96C06"/><text x="472.09" y="215.00" font-family="Inter, Arial, sans-serif" font-size="10" fill="#1F2933" text-anchor="start" font-weight="400">18.8%</text><text x="576.00" y="233.00" font-family="Inter, Arial, sans-serif" font-size="10" fill="#1F2933" text-anchor="start" font-weight="400">27.5%</text></svg>
